<?xml version="1.0" encoding="utf-8"?>

<!DOCTYPE svg PUBLIC "-//W3C//DTD SVG 1.1//EN" "http://www.w3.org/Graphics/SVG/1.1/DTD/svg11.dtd">
<svg version="1.1" id="Layer_1" xmlns="http://www.w3.org/2000/svg" xmlns:xlink="http://www.w3.org/1999/xlink" x="0px" y="0px"
	 viewBox="0 0 2602 738" enable-background="new 0 0 2602 738" xml:space="preserve">
<g>
	<path fill="#060606" d="M1627.19,507.11c-0.676,0.52-2.055,1.548-2.744,2.055c0.416,1.951,0.871,3.915,1.365,5.918
		c-7.218,1.951-15.047,1.132-22.018-1.314c-4.37-1.938-2.705-7.452-2.848-11.12c-1.834,1.145-3.603,2.393-5.332,3.668
		c-3.03-1.977-8.089-2.666-8.857-6.711c1.197-3.733,4.357-7.673,0.897-11.211c-2.523,3.03-4.552,6.646-8.115,8.623
		c-19.583-16.008-14.139-25.68-24.086-42.866c-1.21-3.239-5.371-7.114-2.159-10.301c4.643-2.978,13.214,0.676,14.592-6.659
		c-16.018,0.988-16,6.236-21.16-0.338c-3.017-5.605-8.467-9.208-11.991-14.397c4.643-4.591,8.688-9.858,11.419-15.815
		c-6.672,2.523-10.456,9.052-15.385,13.838c-40.249-19.238-64.565-0.324-69.462,19.404c-12.81-0.894-8.121-4.033-27.35-0.286
		c-1.521-1.43-2.952-2.913-4.63-4.032c-3.941,0.325-3.563,6.034-7.127,7.14c-6.854,2.081-14.124,2.692-20.809,5.332
		c-6.451,3.004-12.498,7.01-19.365,9.039c-0.78-2.861-1.457-5.697-2.12-8.519c-1.092,0.104-3.264,0.312-4.357,0.416
		c0.819,2.406,2.042,4.656,3.433,6.854c-1.587,5.384-6.126,8.636-10.834,11.172c-1.548-1.782-3.108-3.537-4.773-5.098
		c0.182,2.783,1.157,5.592,0.793,8.454c-32.417,31.552-28.758,37.852-34.582,37.143c-2.172-2.029-3.889-4.539-6.321-6.203
		c0.351,4.63,4.786,8.454,3.225,13.318c-22.21,39.397-6.972,11.747-19.313,42.762c-0.975-2.809-2.016-5.566-2.419-8.467
		c5.042-29.329,1.423-154.651,3.512-235.425c8.519,2.796,12.641,12.498,21.446,14.956c-0.832-5.931-4.526-11.302-3.486-17.466
		c1.119-7.517-0.624-15.177-3.394-22.109c-5.905-6.971-8.909-16.309-7.4-25.387c7.9-0.902,31.306,0.908,37.274,4.591
		c27.308,15.942,33.055,11.031,45.441,10.131c20.027-3.96,30.314-0.732,40.2-1.171c1.821-1.027,1.301-2.848,0.663-4.37
		c-2.978-1.808-6.698-1.561-9.715-3.108c-16.06-18.588-3.904-24.45-41.565-35.869c-0.299-2.263-0.676-4.487-0.533-6.711
		c6.57-3.466,20.369,2.717,32.228-15.71c0.613-1,17.836-23.362,13.461-41.826c-1.21-5.046-3.42-12.667-10.157-11.159
		c2.208,9.139,9.824,19.941-4.083,45.506c-12.273,20.563-22.007,17.62-33.931,16.725c-3.902-3.017-8.297-5.228-12.459-7.803
		c9.052-7.244,14.566-17.635,19.703-27.766c5.111-2.705,11.263-2.003,16.725-3.72c-5.02-2.913-10.599-0.377-15.88-0.156
		c6.76-34.685,5.645-25.51-2.029-54.272c1.274-1.73,2.809-3.225,4.279-4.773c-3.369-1.587-6.919-2.718-10.209-4.396
		c-1.008-0.833-12.613-14.683-12.979-17.453c-0.86-4.259,9.179-12.639,23.436-6.178c19.475,15.804,7.623,42.069,26.817,42.983
		c-10.081-14.036-3.257-8.306-9.051-26.133c-0.048-0.004-0.096-0.003-0.144-0.008c-6.579-26.625-26.58-30.746-38.574-21.498
		c-2.783,2.146-3.967,6.919-8.271,6.022c-2.198-5.865-5.683-11.263-6.386-17.583c-1.118-2.419,0.611-4.695,2.666-5.813
		c3.863-1.86,7.634,1.301,11.614,1.248c-0.267-3.403-17.444-21.563-19.027-23.293c-3.207-3.548-8.825-1.91-10.991-6.72
		c-0.804-0.522-1.291-1.125-1.608-1.853c-0.773-0.659-2.53-1.249-3.472-1.582c-3.527,0.435-7.123,0.285-10.629,0.857
		c0.013,0.858,0.013,2.575,0.026,3.433c2.757,0.234,5.579,0.104,8.363,0.611c8.141,5.874,8.618,15.186-9.104,17.479
		c-4.214,0.377-7.894,3.407-12.199,2.822c-8.011-0.936-15.307-4.76-23.384-5.436c-2.653-0.959-24.787,1.339-23.111-11.302
		c5.029-15.807,15.255-8.837,22.747-9.156c9.004,1.464,11.411-8.218,22.408,2.64c-3.106,7.052-2.103,8.933-10.651,9.299
		c-2.848-0.091-6.022,1.158-8.48-0.728c-2.198-1.196-4.136-3.355-6.802-3.043c-3.989,5.116,10.149,9.793,21.407,8.467
		c4.175-0.611,3.499-5.852,6.646-7.699c3.785-2.38,4.24-7.309,3.121-11.25c0.068-0.04,0.135-0.081,0.202-0.121
		c-8.618-4.862-20.801-4.136-25.276-2.871c-10.463,1.876-17.132-6.423-32.071,11.055c-10.668,0.034-25.599,20.222-17.857,31.239
		c10.433,13.858,26.709,9.851,45.818,11.51c6.568,0.559,13.552,4.851,19.898,1.222c20.144-10.225,24.735-0.586,33.658-12.238
		c0.885-2.9-1.626-4.552-3.641-5.931c-2.77,6.204-9.728,7.621-15.88,7.543c-7.595-0.481-12.888,7.296-20.523,6.373
		c-22.791-4.59-33.673-0.943-43.789-3.186c-13.879-1.913-16.574-23.061,1.327-33.489c1.548,3.056,2.783,6.334,4.799,9.182
		c3.941,3.121,8.792,5.852,14.007,5.527c18.832,0.873,37.18,10.331,42.489,6.113c6.203-3.199,13.708-5.826,20.627-3.459
		c-0.498-3.792,3.905-15.984,9.611-9.117c2.718,3.03,6.425,4.968,9.169,8.024c0.676,2.211-1.795,3.147-3.004,4.513
		c-4.643,3.642-5.397,10.157-4.591,15.646c9.334,31.441,42.394,30.399,33.515,92.417c-1.092-0.065-3.29-0.182-4.383-0.247
		c0.949,1.522,2.029,3.043,3.121,4.578c-3.798,1.469-8.077,0.572-11.731,2.445c3.043,1.756,6.464,2.744,9.702,4.149
		c-13.275,27.041-43.542,42.119-54.857,16.465c1.18-32.762-30.476-44.811-47.743-17.258c-5.176,7.816,3.199,19.69,12.264,17.896
		c1.795-0.481,3.654-1.886,2.445-3.85c-3.895-1.242-9.855,1.017-9.754-12.069c-0.395-4.304,15.448-24.466,34.178-3.525
		c4.643,8.935,3.42,20.211-1.079,28.989c-3.394,5.137-9.845,1.379-14.553,1.093c0.897,3.186,4.448,3.889,6.724,5.892
		c-0.533,2.328-2.835,2.809-4.851,3.225c-3.654-1.027-7.075-2.718-10.743-3.642c0.065,2.016,0.156,4.071,0.286,6.152
		c-7.829,0.091-15.737-1.795-23.384,0.663c-69.123-3.218-74.959-59.715-69.696-63.323c2.328-0.572,4.76-0.351,7.166-0.403
		c0.364-0.663,1.092-2.016,1.47-2.679c-4.149-1.873-10.274-2.991-10.326-8.675c3.338-6.912,46.004,1.144,49.941-7.972
		c-10.591-1.166-40.318,3.518-48.991,0.013c2.27-23.173,15.702-39.9,16.236-40.907c15.365-28.975,6.438-28.066,3.546-23.444
		c-9.641,15.407-6.002,14.074-9.358,21.365c-2.963,6.436-8.065,2.592-13.336,3.893c-54.681,13.497-31.525,55.919-31.564,69.683
		c2.263,9.052,1.444,19.04,6.529,27.247c16.187,30.865,39.121,33.166,50.279,23.631c-2.354,4.656-4.188,9.559-5.696,14.566
		c-20.434,4.506-22.673,11.337-30.121,30.277c-2.133,8.584-5.956,16.673-7.296,25.478c-0.989,4.123-0.702,10.469-6.229,11.198
		c-5.124-2.575-10.066-5.566-15.646-7.062c-13.588-4.978,2.804-8.845,2.094-15.073c-7.574,3.146-7.777,11.188-14.878,7.14
		c-10.633-7.76-34.074-11.978-34.074-11.978c-1.217-8.188,10.303-11.051-2.887-35.778c32.286-13.322,25.388-31.969,19.651-38.08
		c-7.814-1.534,0.268,10.676-2.809,19.313c-2.647,16.003-36.68,15.681-39.159,16.153c2.926-8.441,9.377-15.659,9.754-24.892
		c3.778-49.046-33.747-52.878-37.547-62.465c3.004-8.089,13.565-10.677,20.718-6.555c14.452,6.66,7.078,22.113,39.042,37.885
		c6.157-3.054-9.947-7.317-16.413-19.092c-4.916-7.543-7.959-16.777-15.529-22.2c-13.269-7.461-23.204-5.696-33.866,8.467
		c-39.342,3.777-25.266-16.819-53.036-6.321c-7.049,3.425-14.156-12.721-39.068,6.243c-5.046,4.292-5.709,11.458-5.28,17.648
		c-2.484,0.884-5.683,2.029-6.06,5.059c-0.343,8.014-0.527,12.391,21.368,11.588c-2.427,5.927-5.902,12.833-28.703,9.702
		c-6.165-7.478-3.355-20.9,6.321-23.878c2.848-0.585,1.847-3.85,2.211-5.905c-13.348-1.582-29.538,30.788-8.48,36.012
		c4.903,1.847,10.339-0.091,15.203,1.886c22.395,8.866,46.092-16.139,53.062-19.56c17.227-8.845,17.198-23.429,20.054-26.922
		c40.549-5.312,66.173,38.31,58.212,61.139c-12.839,38.066-35.281,33.747-45.883,39.875c-1.691,3.616-0.611,8.727-4.422,11.289
		c-16.615,7.187-31.105-1.471-32.28-7.127c1.054-4.084,5.085-6.568,7.621-9.741c-3.693,1.027-7.231,2.497-10.886,3.642
		c-1.325-21.771-0.085-13.209,3.186-23.969c-11.121,5.291-11.874,18.8-9.598,24.633c2.978,5.878-5.514,8.428-6.074,13.916
		c3.472-1.158,6.672-2.926,9.936-4.565c5.865,5.202,13.161,8.31,20.614,10.535c6.206,4,18.094-1.799,25.244-6.958
		c2.055,2.471,4.344,4.825,7.413,6.086c-0.689-5.033-2.549-9.832-2.679-14.917c0.975-0.247,2.952-0.754,3.928-1.014
		c3.134,5.437,6.138,10.964,9.208,16.452c1.04,0.065,3.095,0.208,4.136,0.273c-0.585-4.994-2.965-9.377-5.293-13.682
		c-5.036-7.725,8.94-10.56,18.546-17.102c5.826-1.365,12.797-3.511,18.26,0.065c2.289,1.405,5.293,2.471,6.269,5.28
		c14.771,31.603-27.965,35.161-37.156,40.668c-40.91,25.819-31.441,31.07-54.285,32.657c-7.192,0.247-12.797-6.23-14.501-12.668
		c-1.938-6.386,0.572-12.797,2.146-18.923c1.421-1.515,15.992-9.197,11.055-16.946c-5.215,0.221-6.165,5.436-8.597,8.961
		c-16.769,11.417-56.414,7.518-62.881-18.572c5.396-8.662,26.772-9.504,39.407-19.807c-9.646,1.441-18.182,7.363-41.969,14.826
		c-0.143-5.605-0.832-11.302,0.234-16.816c3.514-5.97,38.887-11.391,40.681-17.739c0,0-29.561,9.4-38.795,12.03
		c5.511-22.301,5.878-28.101-5.501-36.142c-5.046-1.769-9.624,2.744-10.365,7.53c3.316,2.562,7.257,1.977,11.068,1.093
		c5.293,9.39,1.626,20.822-3.017,29.717c-3.629,2.783-8.896,2.237-12.316,5.462c3.681-0.273,7.309-1.053,11.003-1.339
		c-1.219,12.937,3.256,16.076-0.286,20.301c-12.043,6.053-19.951-24.102-12.953-33.84c3.316-4.786,10.417-4.617,13.279-9.767
		c-14.195-3.439-27.341,13.231-22.265,30.446c2.965,12.46,14.562,21.577,15.984,28.716c-4.305,0.741-8.61,1.574-12.94,1.938
		c-6.594,1.054-3.511-11.341-9.975-9.871c-3.628,2.913-0.312,7.803-0.104,11.536c0,0-54.609,16.803-54.61,16.803
		c-1.392-2.315-2.653-4.708-4.435-6.685c-3.798,0.936-1.951,5.865-2.523,8.727c-5.644,0.624-10.859,3.785-16.569,3.524
		c-3.46-2.848-2.757-8.493-6.581-11.081c-3.186,3.642-0.104,8.688-1.248,12.902c-6.724,2.835-13.955,4.214-21.095,5.579
		c-1.184-2.757,0.663-8.844-3.707-8.233c-2.237,2.796-1.964,6.594-3.42,9.754c-5.833,4.972-68.653-1.901-67.108-14.41
		c1.327-2.185,3.134-4.031,4.617-6.073c-3.72,0.676-6.854,3.42-10.677,3.524c-3.504-2.796-16.004-16.922-9.026-18.038
		c4.669-2.367,10.443-2.757,14.228-6.672c26.77-24.267,10.021-45.722,6.412-55.26c-1.053-3.98,2.237-7.14,3.225-10.716
		c-2.861,1.157-4.721,4.851-8.037,4.526c-3.16-4.851-7.959-8.31-11.094-13.084c0.754-3.498,2.744-6.529,3.889-9.858
		c-3.368,1.509-4.773,6.32-8.74,6.32c-7.699-4.201-12.927-12.342-13.435-21.056c0.794-3.563,1.925-7.413,4.708-9.923
		c3.121-1.469,6.659-0.377,9.962-0.273c-1.118-2.692-2.12-5.397-2.848-8.167c3.29-0.234,6.594-0.078,9.91-0.039
		c-3.537-4.76-6.373-12.316-13.461-11.809c-0.169,3.069,1.183,6.464-0.416,9.338c-2.783-0.819-5.345-2.198-8.037-3.16
		c-0.832,3.212-0.169,6.451,0.65,9.624c-21.912,22.26-24.671,34.573-32.891,48.368c-3.85-1.522-8.31-3.056-11.484,0.637
		c3.407,3.29,7.66,5.813,10.352,9.819c0.78,7.478-0.819,14.826-2.939,21.953c4.272,12.032-1.572,58.495,42.034,42.008
		c3.433,2.861,4.175,7.543,6.451,11.224c2.107,3.967,5.93,6.932,6.997,11.458c6.365-0.149,8.422,4.75,26.362,12.407
		c4.877,1.548,9.988,2.211,14.995,3.277c-7.92,2.913-16.452,3.238-24.775,2.614c-1.795-0.65-3.369-1.704-5.15-2.224
		c-13.245,4.546-0.798,0.947-21.914,1.782c-6.152-1.482-11.978-4.188-18.26-5.111c-2.823-0.587-20.292-0.222-13.721-15.307
		c-0.793,0.052-2.38,0.13-3.173,0.169c-1.418,2.094-2.705,4.318-4.461,6.191c-18.308-5.111-33.288-39.251-41.539-43.737
		c-3.733-2.211-7.712-4.149-10.443-7.608c15.948-26.218,3.445-48.402,3.602-58.68c0.156-1.86-0.585-3.213-2.224-4.045
		c-0.611,0.715-1.86,2.133-2.471,2.848c-1.67,12.006,11.086,34.864-5.97,58.251c12.514,14.199,17.648,10.727,25.894,28.196
		c5.065,12.653,15.907,15.514,19.469,25.4c-8.692-1.883-22.094-12.162-29.509-6.646c0.164,6.408,30.601,12.802,43.789,16.972
		c-1.639,3.55-3.55,6.984-4.916,10.677c5.918,1.105,5.644-6.113,9-9.117c6.276-1.805,30.133,6.816,35.232,8.753
		c-19.247,15.265-19.324,10.296-25.764,10.209c0.442,2.068,1.014,4.162,1.587,6.269c-3.563,4.474-6.295,9.533-9.689,14.124
		c-3.455,4.431-22.626-4.394-33.06,7.205c-2.172,2.783-5.8,2.458-8.948,2.744c-0.299,3.603-0.676,7.322-2.64,10.495
		c-2.731,4.838-3.121,10.56-5.28,15.594c-4.136,3.616-9.312-1.587-14.033-1.184c1.756,6.716-0.222,4.992,12.628,7.439
		c1.216,2.948,1.159,33.127-6.529,41.305c-3.069-1.951-5.944-4.968-9.91-4.227c1.118,3.732,4.058,6.412,6.425,9.416
		c-7.145,8.663-3.428,5.222-12.563,7.322c0.442,2.393,1.014,4.773,1.626,7.179c-2.692,3.147-5.826,6.113-7.075,10.209
		c1.912,0.182,4.123,1.782,5.93,0.325c2.77-1.743,4.396-5.137,7.686-6.048c3.85,1.067,6.802,4.5,11.107,4.032
		c-2.198-3.056-4.76-5.8-7.166-8.623c6.295-20.255,40.164-26.136,44.895-25.998c2.653,3.277,4.201,8.961,9.455,8.298
		c2.12-3.004-0.962-6.477-1.431-9.572c11.094-3.771,18.91-13.266,29.717-17.505c3.145-9.816,4.978-4.9,12.147-21.979
		c3.381,0.689,6.75,1.548,10.17,2.198c0.689-0.871,2.094-2.627,2.796-3.498c-3.642-2.094-7.738-3.043-11.783-3.876
		c-3.673-27.616-13.106-25.171-27.78-30.043c2.172-6.607,7.127-12.745,13.929-14.891c6.199-13.22,24.598-19.578,31.59-16.322
		c2.445,3.993,0.26,10.937,6.035,12.173c0.455-3.72,0.299-7.4,0.286-11.081c1.258-2.863,21.194-3.092,22.603-3.095
		c2.068,2.991,4.656,5.645,8.05,7.153c-0.039-2.991-0.247-5.944-0.403-8.87c3.59-0.858,7.296-0.858,10.977-0.897
		c7.686-0.221,14.982-3.342,22.643-3.616c1.222,1.275,2.276,2.744,3.407,4.201c3.297-6.003,1.177-6.785,24.502-13.226
		c2.159,0.936,3.915,2.614,5.865,3.98c5.967-9.276,1.54-5.039,20.913-10.131c5.251-1.015,36.653-13.962,41.995-13.851
		c-0.819,3.979-4.773,5.449-7.361,8.102c-3.407,3.225-6.074,7.231-9.78,10.157c-2.38,0.846-4.942,0.82-7.387,1.262
		c0.403,1.716,1.027,3.446,1.262,5.293c-2.666,6.386-6.867,12.498-13.162,15.763c0.52,1.808,2.315,3.59,1.6,5.631
		c-11.6,41.997,6.613,65.648,6.529,70.75c-1.535,3.42-4.747,5.696-7.231,8.401c1.717,1.183,3.499,2.354,5.358,3.446
		c2.146-2.263,4.279-4.526,6.568-6.607c15.704,19.621,28.012,20.96,42.853,26.687c2.354,1.144,4.617,5.007,7.491,2.757
		c4.032-2.653,9.156-1.704,13.513-3.563c8.753-3.55,17.609-9.169,27.468-7.53c2.367-4.955,6.477-8.583,11.367-10.951
		c6.047-10.528,21.794-28.726,8.493-55.377c-22.987-27.68-22.07-5.865-22.07-29.184c-4.721,0.897-5.696,6.022-8.48,9.143
		c-57.097,2.47-33.886,64.419-6.789,49.304c3.902-2.107,8.688-4.669,9.208-9.598c0.065-2.887-3.004-3.408-4.968-4.5
		c-0.585,6.126-6.282,10.794-12.446,9.585c-7.439,0.319-18.824-16.486-11.393-28.079c5.55-7.394,19.185-13.789,22.031-11.562
		c2.432,0.833,1.886,3.759,2.731,5.774c3.264,1.704,4.981-3.069,7.634-4.253c3.725,0.42,17.642,11.405,21.29,18.052
		c4.671,13.577,3.551,29.215-6.737,41.5c-2.926,1.353-6.451,0.52-9.585,1.041c-0.013,2.432,0.065,4.89,0.156,7.387
		c-1.808,1.106-3.551,2.38-5.527,3.187c-3.459-0.625-6.763-1.925-10.248-2.237c-0.182,2.029-0.273,4.149-0.39,6.256
		c-8.024,2.601-16.075,8.675-24.814,5.085c-2.406-2.367-2.042-6.477-3.85-9.312c-1.405,2.861-2.419,5.905-3.55,8.909
		c-5.085-1.496-10.274-2.536-15.294-4.162c-33.333-15.565-43.351-56.91-32.019-89.959c3.407-0.234,6.815-0.52,10.157-1.314
		c-2.705-2.783-8.935-4.526-6.607-9.442c1.067-6.021,6.841-8.57,11.991-10.313c-0.585-7.998,14.581-24.571,35.024-25.881
		c6.113-4.123,13.122-6.334,20.354-7.543c6.966,8.675,1.291,18.824,15.06,25.413c21.973,7.615,30.09,10.253,48.536-2.094
		c1.079,4.214,1.587,9.039,5.202,12.017c5.085,4.357,11.562,8.948,18.637,6.841c10.458-0.175,12.003-2.091,50.279-31.603
		c7.085-5.214,18.479-0.683,32.917-12.563c1.444-0.871,2.874-2.484,4.695-2.198c13.084,4.734,27.234,6.893,39.485,13.773
		c0.859,6.875-9.369,13.459-4.175,16.79c5.905-0.741,4.825-10.327,10.365-11.523c6.477,2.679,13.356,4.916,19.118,9.039
		c-0.273,2.315-0.559,4.63-0.689,7.023c2.575-0.481,5.072-1.327,7.569-2.172c18.993,11.09,36.923,32.034,37.56,39.251
		c5.241,1.703,11.653,4.188,13.318,10.014c0.546,2.978,4.279,2.575,6.373,4.058c4.158,5.884-1.397,2.63,17.31,26.973
		c2.849,3.673,12.189,25.01,16.14,35.986c2.341,6.086-3.603,10.69-5.475,15.958c4.474-0.013,6.854-4.149,9.988-6.659
		c2.38,4.214,4.214,8.805,5.215,13.578c-1.964,3.017-4.76,5.384-6.919,8.272c2.796,0.702,5.671,1.196,8.532,1.821
		c1.639,4.591,1.6,10.678,6.789,12.954c2.169-14.483-3.226-30.495-9.117-43.698c2.237-3.85,4.916-7.777,4.37-12.446
		c-2.679,2.263-4.331,8.311-8.674,5.658c-12.149-26.813-8.972-27.058-19.833-39.979c2.887-3.342,6.099-6.685,6.828-11.224
		c-3.889,1.34-7.699,2.9-11.718,3.772c-3.343-5.202-5.957-10.795-8.714-16.296c2.926-3.694,7.764-6.659,7.322-11.965
		c-8.397,0.929-10.367,14.185-21.277-0.741c2.315-3.395,5.657-5.944,7.712-9.52c-20.104,5.518-4.596,13.299-30.862-15.411
		c-6.373-6.893-15.646-10.196-22.005-17.024c2.334-8.542,10.867-13.845,29.574-19.183c4.831-1.18,22.52-19.684,23.631-20.601
		c4.227-4.071,10.664-0.078,15.62-2.627c8.271-3.329,16.972-6.945,26.102-4.929c-0.325,5.462-3.863,9.806-5.995,14.644
		c1.821,0.598,3.693,1.235,5.553,1.899c-2.199,21.511,18.784,28.199,26.089,31.408c0,0.001-1.183,232.042-1.183,232.043
		c-51.955-75.512-17.047-38.724-83.534-85.693c0.468-5.007,1.847-9.91,1.548-14.943c-0.885-0.052-2.666-0.143-3.551-0.195
		c-1.769,4.071-0.65,10.495-5.579,12.394c-23.443-5.019-15.263-9.819-17.089-17.362c-1.951,2.796-2.9,6.256-5.345,8.714
		c-2.372,0.073-25.248-3.792-36.649,1.17c2.292,6.143,8.541-0.149,35.167,4.656c0.936,1.691,1.886,3.408,2.9,5.15
		c1.444-1.391,2.9-2.744,4.409-4.045c4.942,2.341,9.754,5.046,15.047,6.607c-0.598,2.952-1.001,5.931-0.937,8.987
		c3.824-0.026,5.748-3.473,7.92-6.074c1.506,0.773,38.782,26.44,38.782,26.44c3.134,1.717,3.069,5.449,3.186,8.597
		c2.718,0.273,5.969,0.039,7.504,2.861c3.746,5.709,10.105,10.352,10.482,17.674c6.269,1.795,6.828,8.961,10.43,13.435
		c3.381,4.357,7.257,8.896,7.426,14.748c4.888,24.103,12.84,42.911,3.798,50.812c4.695,5.566,2.107,13.239,2.679,19.898
		c-1.547,1.184-4.539,1.704-3.941,4.253c1.665,0.897,3.447,1.587,5.254,2.393c-0.078,8.024,0.156,16.049,0.143,24.086
		c-1.899,0.78-3.797,1.548-5.631,2.432c1.613,2.38,4.37,4.136,5.397,6.906c0.484,10.358-5.627,35.465-0.884,38.626
		c1.509-0.312,3.004-0.806,4.526-1.196c2.442-10.978,2.536-38.86,2.536-38.86c3.876,0,7.881,0.078,11.523-1.522
		c-2.289-3.693-6.49-3.59-10.287-3.537c-0.312-9.832-2.354-19.768-0.013-29.496c3.017,0.962,6.139,1.535,9.312,1.873
		c0.104-0.975,0.299-2.926,0.403-3.902c-3.421-0.169-6.815-0.143-10.183-0.234c-1.821-6.074-2.51-12.602-1.353-18.832
		c1.067-2.497,3.928-1.665,6.074-1.964c2.731,0.286,6.438-2.146,4.357-5.072c-3.147-0.377-6.282-0.065-9.39,0.026
		c3.813-21.965-7.867,7.739,12.407-53.829c5.288-19.278,8.477-19.803,18.624-20.145c-0.754-1.821-1.509-3.59-2.263-5.332
		c4.843-5.544,14.797-28.234,29.028-38.236c0.494,4.201,2.237,9.416,7.53,8.818c-1.274-3.251-2.978-6.269-4.071-9.533
		c1.834-3.264,4.695-6.047,8.089-7.647c2.107-0.26,4.149,0.52,6.243,0.924c6.385-14.451,39.414-21.351,43.581-21.446
		c2.562,2.861,3.473,6.802,5.774,9.897c1.041,1.665,4.201,2.315,4.721-0.156c-0.585-3.772-1.951-7.361-2.523-11.107
		c7.894-2.484,16.504-2.341,24.372,0.286c-0.473,1-17.047,21.449-1.756,47.249c46.882,20.71,26.043,1.235,49.213,18.936
		c-0.052-2.445-0.13-4.851-0.169-7.231c7.959-2.25,16.959-4.24,24.723-0.221c6.987-4.991,21.321-6.847,26.479-5.124
		c7.062-0.039,13.955,1.496,20.314,4.643c0,3.563-0.143,7.14,0.117,10.743c5.53-2.965,10.837-12.001,18.559,6.099
		c16.904-3.162,21.158,3.507,29.015,0.507c2.744-2.822,4.188-6.607,6.099-9.988C1629.947,509.789,1628.568,508.424,1627.19,507.11z
		 M1213.382,226.439c-24.133-1.768-36.81-28.675-36.74-36.415c-1.275-6.373-0.559-12.888-1.066-19.287
		c-2.345-5.038-8.096-25.976-3.134-42.541c11.919-12.557,25.415-13.463,31.005-10.417c-9.913,25.235-0.675,21.584-12.29,29.392
		c1.405,1.353,2.861,2.692,4.344,4.071c0.221,3.342-0.39,6.646-3.03,8.974c3.875,4.201,4.539,9.923,4.318,15.411
		c11.083,41.063,18.958,29.783,26.349,43.88C1220.184,222.16,1217.18,225.1,1213.382,226.439z M967.696,183.378
		c-2.861,0.052-5.982,1.223-8.662,0.013c-3.186-3.238-2.471-7.816-0.819-11.549c5.631,0.442,10.938-1.392,16.218-3.043
		c-0.052-1.014-0.169-3.043-0.221-4.058c-3.446,1.938-6.152,5.371-10.183,6.139c-4.541-1.046-5.638-13.178,11.731-20.991
		c6.542-0.702,14.904-0.611,19.17,5.293C998.418,173.34,983.241,178.238,967.696,183.378z M968.906,201.612
		c3.759-4.916,9.286-8.493,11.627-14.423c3.725-10.78,20.989-5.231,21.615-32.046c0.351-2.185,0.481-5.657,3.459-5.592
		C1052.831,144.201,1000.763,202.501,968.906,201.612z M700.018,275.574c-5.802-21.888-10.027-15.768-10.677-40.096
		c-0.013-2.497-2.107-4.084-3.668-5.658c-9.636,22.266,13.871,40.825,7.361,52.074c-2.978,0.78-5.982,1.47-9,2.016
		c-1.99-2.952,0.416-5.696,1.548-8.388c-3.42-0.169-5.488,2.536-8.024,4.318c-8.191-1.362-15.313-26.747-8.206-35.128
		c-1.743-2.341-4.227-4.643-3.603-7.816c1.001-4.955,0.234-10.014,0.988-14.943c2.497-1.522,5.501-1.756,8.193-2.783
		c-2.042-2.107-4.305-3.954-6.113-6.23c-0.888-2.164,12.165-30.616,20.119-33.827c0.81,16.482,12.614,20.068,16.075,25.491
		c0.897,4.773-4.253,8.037-5.072,12.55c1.496,10.025,8.611-6.32,9.468-7.322c4.682-0.312,7.049,4.877,9.117,8.31
		c2.341,2.822,0.819,6.425,0.611,9.702c1.977,0.507,5.124-0.585,6.256,1.69c2.744,6.282,5.293,13.175,3.824,20.132
		C731.053,259.711,716.709,282.561,700.018,275.574z M694.647,386.341c-0.151,1.019,4.372,17.265-6.568,26.206
		c-2.133-0.559-3.745-2.185-5.553-3.251c-1.623,2.464,6.154,23.099-52.464,30.667c-2.887,1.248-5.163,3.577-8.102,4.734
		c-2.172-1.847,0.156-4.799,0.208-7.075c2.185-6.06-0.26-12.693,2.51-18.572c2.068-3.459-1.392-7.465,0.819-10.781
		c1.444-2.744,7.023-2.081,6.555-5.97c-2.12-0.858-4.305-1.496-6.438-2.185c2.742-18.607,2.832-14.181,8.363-18.52
		c2.185-3.798,4.409-7.686,7.699-10.652c6.334-1.703,13.07-1.886,19.573-1.014c-1.466,4.846-11.664,20.191-13.734,31.863
		c4.929,1.482,7.985-3.824,8.844-7.92c0.975-7.413,7.335-12.212,10.131-18.832C671.148,365.968,695.646,372.101,694.647,386.341z
		 M949.398,309.7c-6.33-3.725-10.535-18.271-10.313-26.843c-5.514-1.301-8.896-6.373-9.013-11.835
		c5.634-9.815,10.59,11.756,19.599,17.57c10.639,5.93,22.617,10.729,35.037,9.312c3.342-0.351,8.388-0.78,8.531,3.941
		C988.366,311.173,983.944,322.137,949.398,309.7z M1389.177,239.302c18.25-1.833,25.729,19.934,30.94,29.705
		c-3.915,3.642-10.261,2.588-15.281,2.978c-24.169,4.936-31.145,2.722-36.259-5.488c0.455-4.578,5.449-5.892,8.896-7.66
		C1388.868,254.427,1387.504,242.425,1389.177,239.302z M1213.291,283.351c-2.474,2.201-18.025,9.523-24.749,11.029
		c1.21-6.581,4.734-12.381,6.62-18.741c9.027-24.937,10.464-27.578,22.577-31.513
		C1225.302,273.86,1241.684,257.256,1213.291,283.351z M1303.159,307.034c0.455-1.951,1.001-3.863,1.535-5.735
		c-1.873,0.754-3.655,1.677-5.397,2.666c-5.384-0.975-9.117-5.098-13.24-8.284c-5.735-5.15-3.563-13.578-6.477-20.028
		c-1.119-8.961,7.777-15.607,6.997-24.672c-1.626,0-3.238,0.052-4.812,0.169c-0.611,2.718-1.405,5.41-2.263,8.102
		c-3.954-0.637-7.634-3.342-11.718-2.107c-8.974,1.873-17.414,6.581-26.843,5.97c-21.861-5.448-17.458-28.985-8.649-36.363
		c6.139-2.458,11.627,2.627,17.453,3.876c28.355,6.315,17.642,1.221,45.844,2.315c4.981,0.455,9.403-2.432,14.28-2.848
		c5.917-0.117,10.508,5.293,16.595,4.175c-2.341-3.473-6.477-4.695-9.884-6.685c3.17-10.874,28.259,3.702,41.383,5.566
		c0.39-3.915-4.292-2.757-6.672-4.005c-7.387-3.408-14.865-6.919-22.942-8.337c-3.967-0.026-4.084-5.41-1.301-7.192
		c7.4,4.617,15.932,7.075,24.411,8.844c4.531-0.59,22.274-10.814,29.457,3.056c4.784,24.686-3.484,36.042-28.937,35.388
		c-25.721-12.389-27.491-18.265-33.346-16.4c3.147,5.878,9.728,8.012,14.605,12.043c0.195,0.494,0.572,1.457,0.767,1.938
		c-9.676,0.052-19.261-4.018-28.846-0.949c1.17,2.003,2.874,3.655,4.656,5.202c-0.494,27.684,13.463,26.14,11.575,52.516
		c-3.693-0.624-6.243-3.486-9.377-5.176C1309.167,308.699,1306.072,308.101,1303.159,307.034z M1524.434,483.947
		c-4.149,2.419-2.341,6.997-1.067,10.573c-6.047,1.054-11.783,3.785-17.96,3.785c-1.405-1.808-2.718-3.642-4.344-5.15
		c-3.82,2.118-1.497,8.905-31.083-0.325c-4.734-1.574-2.718-7.049-1.743-10.456c-2.419,0.637-4.812,1.353-7.244,1.834
		c-2.627-4.448-4.578-9.806-3.303-14.969c1.347-9.538-1.099-27.571,19.352-19.768c5.579,3.225,12.862,2.198,17.7,6.841
		c7.673,5.41,15.164,11.887,24.698,13.617c-0.117-0.936-0.351-2.835-0.468-3.784c-10.476-3.382-21.179-18.918-30.914-19.911
		c-5.945-1.663-24.805-2.099-18.429-10.482c2.484-3.694,3.238-8.583,7.01-11.315c15.735-9.946,43.322-12.521,48.953,4.825
		c8.401-1.938,13.539,6.321,16.01,13.084c-3.004,1.964-7.712,1.717-9.117,5.527c3.85,0.52,7.959-2.016,11.64-0.624
		c9.698,10.547,7.314,24.742,22.395,46.273C1516.192,498.46,1531.975,491.581,1524.434,483.947z"/>
	<path fill="#060606" d="M1247.392,92.444c-17.176-16.669-10.65-18.909-9.325-34.217c-5.769-0.783-12.584,5.969-6.737,25.595
		c6.672,10.521,18.078,16.595,29.288,21.173c6.867,0.741,13.929,0.598,20.731-0.741c-0.104-0.936-0.312-2.809-0.403-3.759
		C1265.708,98.835,1265.653,104.39,1247.392,92.444z"/>
	<path fill="#060606" d="M1623.236,446.622c4.864-4.656,6.828-11.263,10.729-16.595c5.956,3.004,8.675,10.235,15.424,12.082
		c7.686,3.889,16.634,4.916,23.683,10.131c1.847,2.12,2.653,5.15,5.15,6.789c1.977,0.754,3.251-1.678,4.76-2.549
		c9.949-7.27,24.45-3.147,33.554-11.952c2.926-2.874,7.504-1.353,10.69-3.616c2.562-1.716,5.124-3.498,8.024-4.643
		c3.642,0.13,8.428,2.64,10.873-1.327c-2.081-1.262-4.175-2.406-6.217-3.603c1.247-7.041,16.195-14.094,17.427-24.242
		c1.001-6.008,4.851-11.029,5.865-17.024c2.549,0.078,5.033,0.663,7.439,1.639c0.572-1.86,1.106-3.733,1.678-5.54
		c-1.951-0.728-3.902-1.327-5.826-1.86c-2.588-8.128-0.741-16.803-2.211-25.088c1.873-7.257-1.665-14.241-1.99-21.446
		c1.912-1.131,3.993-2.302,4.747-4.552c-2.341-0.195-4.617-0.221-6.906-0.247c-1.171-2.523-4.357-4.617-4.084-7.413
		c2.601-2.497,5.905-4.136,8.401-6.776c-4.006-3.408-7.803,1.626-11.978,1.157c-4.136-3.069-4.656-8.493-7.439-12.394
		c-4.735-4.247-30.81-22.616-30.81-22.616c-3.681-3.537-10.599-2.458-12.693-7.621c21.154-0.755,49.157,11.833,62.426,15.268
		c4.903,1.223,1.236,6.906,2.367,10.235c1.405,0.78,2.965,1.405,4.552,2.042c0.859-2.965,1.899-5.865,3.355-8.584
		c10.964,3.186,21.797,6.932,32.54,10.873c-0.091,4.344-4.084,11.471,2.302,13.045c2.016-2.094,2.848-4.942,4.136-7.452
		c3.303,3.408,4.63,7.881,5.176,12.524c1.782,0.286,5.072,1.691,5.046-1.444c1.027-2.731-0.806-7.322,2.679-8.441
		c16.355,7.021,57.822,15.206,75.003,14.007c4.673,4.322,28.244,9.108,44.882,22.539c-12.628,11.998-15.087,32.52-1.457,47.366
		c4.292,4.331,10.664,5.501,15.229,9.494c1.86,2.029,1.795,6.62,5.358,6.334c1.079-1.613,1.873-3.382,2.861-5.007
		c2.419,0.689,6.126-0.221,7.244,2.757c1.639,3.837,3.368,8.09,8.077,8.818c1.183-3.433-2.003-7.647,0.494-10.378
		c7.179-0.663,14.332-2.406,21.589-1.301c27.771,5.67,33.758-1.047,45.194,1.067c1.183,1.795,2.523,3.524,4.135,5.059
		c3.134-2.952,9.975-4.929,11.965,0.247c1.196,3.902,3.823,7.114,8.011,7.998c0.117-2.354,0.091-4.682,0.078-6.958
		c5.449-1.495,11.861,1.184,16.634-2.536c5.28-3.811,14.059-4.084,15.958-11.51c-4.087-6.073-18.578,15.012-34.868,5.813
		c-2.081-2.926-1.652-6.62-1.86-9.962c-0.923,0.13-2.77,0.377-3.694,0.494c-0.741,2.107-1.404,4.227-1.977,6.425
		c-12.054-0.213-7.657-4.276-8.492-9.286c0.286-2.796-2.939-2.692-4.76-2.926c-0.533,2.718-1.184,5.462-2.185,8.102
		c-7.203-0.766-21.253-20.764-24.684-29.783c-2.003-5.072-6.698-8.375-8.948-13.305c2.185-2.198,5.553-3.277,6.945-6.178
		c-2.887-3.186-7.153-0.897-10.521-0.091c-14.365-11.191-7.44-8.161-26.063-15.854c-0.924-2.029-1.184-4.24-1.769-6.294
		c-3.746-1.288-4.357,4.409-7.79,4.396c-4.617,0.377-9.26,0.377-13.838,0.962c-6.204,1.301-8.74,8.246-14.475,10.339
		c-4.955-2.367-8.675-6.971-14.228-8.206c-3.538-1.171-9.585-4.916-6.906-9.091c0.482-0.177,29.531-6.607,34.308-6.971
		c6.742-0.314,36.362-16.288,56.223-15.047c-0.031,2.849-5.815,17.18,4.253,26.648c5.189,5.384,11.952,10.847,19.95,9.936
		c3.459,0.481,8.401-1.301,10.587,2.38c2.146,3.238,2.861,8.662,7.881,8.31c0.234-3.069-2.562-6.802,0.013-9.26
		c19.159-2.119,13.595,7.03,21.186,7.153c-0.416-2.705-1.105-5.28-1.847-7.842c4.565-2.029,9.52-3.056,14.306-4.448
		c12.589,0.546,22.148-10.391,34.764-10.157c2.887,0.638,5.319,2.51,8.18,3.355c22.447,6.847,6.589,7.891,20.484,5.41
		c2.328,2.796,4.097,6.62,8.18,7.166c0.52-2.9,0.715-5.813,1.092-8.675c5.983-0.832,13.24-1.053,17.349-6.126
		c3.681-4.578,5.853-11.185,2.237-16.452c-11.381,1.406-1.385,12.154-20.718,16.53c-1.47-2.094-2.107-4.578-3.187-6.802
		c-3.342-1.132-3.264,3.824-4.773,5.722c-0.884-0.169-2.653-0.507-3.537-0.663c-0.325-2.575-0.858-5.098-2.458-7.127
		c-1.236,2.029-2.25,4.201-3.264,6.373c-15.411-5.651-14.687-13.566-24.528-23.813c-2.315-4.552-7.751-6.789-8.896-11.926
		c0.156-2.822,1.496-5.41,2.016-8.128c-2.848,0.924-5.28,3.59-8.441,3.004c-2.315-1.222-4.318-2.887-6.281-4.513
		c-1.899-3.472,1.794-6.594,2.523-9.871c-4.331-0.702-5.787,6.386-10.105,4.5c-19.073-8.517-37.482-9.677-43.906-8.35
		c-0.247-5.384,6.06-7.153,8.818-10.898c3.212-5.54,7.751-10.079,11.497-15.255c-1.625-1.457-3.29-2.848-4.877-4.227
		c4.699-5.054,7.981-5.165,10.482-21.719c-0.91-4.877,0.715-10.82-3.849-14.163c0.546-5.046,0.975-10.456-2.12-14.813
		c-1.483,0.65-2.926,1.352-4.318,2.107c0.956,13.758,4.653,5.1-4.344,22.031c2.731,0.338,5.41-0.39,7.986-1.365
		c0.662,6.364-1.94,22.896-9.455,26.297c-1.483-1.444-2.926-2.861-4.409-4.149c0.377,2.393,1.027,4.825,1.47,7.283
		c-3.017,0.819-6.074,1.405-9.169,1.561c-6.854,0.143-11.445,7.517-18.402,6.828c1.55-34.13,3.135-30.095,15.606-47.288
		c1.288,0.715,2.614,1.443,3.993,2.211c0,2.347-3.088,13.96,7.946,17.479c3.121,0.949,4.487-2.614,3.876-5.124
		c0.585-3.537-3.459-3.876-5.579-5.293c-1.717-6.932,0.741-15.971,8.128-18.481c-0.559-1.314-1.093-2.575-1.587-3.811
		c-4.767-0.448-16.548,5.895-29.249,21.355c-2.51,2.692-3.251,8.948-8.011,7.842c-5.422-6.553-0.074-6.324-13.123-14.605
		c0.806-2.523,1.652-5.046,2.484-7.543c-8.194,1.132-6.841,11.666-12.108,16.101c-8.512,6.193-11.915,37.71,0.676,56.275
		c-3.771,8.935-7.452,19.482-17.141,23.423c-6.374,13.325-24.087,21.486-25.569,22.643c-11.458,3.459-22.851,8.454-34.998,8.401
		c-2.094-1.626-3.72-3.707-5.592-5.475c-7.702,10.174,2.609,4.203-40.421,5.644c-1.964,0.156-5.254-0.962-3.603-3.355
		c3.603-2.497,7.868-3.616,11.978-4.981c53.25-37.564,5.603-21.039,51.411-19.625c5.371-1.769,9.091-6.815,14.423-8.74
		c3.03,0.221,6.061,0.872,9.169,0.494c-1.522-2.64-4.604-4.721-4.747-7.868c11.345-27.74,0.136-37.518,2.042-48.003
		c1.001-4.617,7.296-6.152,6.659-11.315c-3.954,1.21-5.839,5.28-9.286,7.296c-3.017-1.691-2.874-5.384-3.641-8.285
		c-0.884-3.966-3.017-7.491-4.019-11.393c0.364-4.252,3.446-7.686,4.279-11.835c-2.393,0.507-4.708,1.222-7.049,1.834
		c-0.966-21.391-2.566-17.862,2.562-32.592c2.822-0.104,5.709-0.182,8.427-1.209c-11.12-13.756-7.231-15.933-2.9-20.809
		c3.043,1.106,5.905,2.796,9.299,2.822c-1.977-6.477-6.958-14.267-14.605-13.695c-0.338,0.728-1.014,2.172-1.353,2.887
		c1.392,1.782,2.822,3.525,4.292,5.319c-5.891,3.16-9.312,9.689-16.231,10.977c-1.307,7.498,15.495,6.828-23.787,42.931
		c-3.043,2.536-6.113,7.946-10.652,5.696c-1.209-3.147-2.406-6.269-3.68-9.338c-2.653,0.143-6.438,0.819-6.308,4.24
		c-1.366,5.319,4.006,9.026,4.292,13.981c-2.497,3.238-4.552,7.127-8.18,9.234c-2.276,0.182-3.394-2.679-4.903-3.954
		c-0.962,0.195-2.9,0.559-3.863,0.754c-0.702,3.941,1.73,7.361,2.328,11.133c-0.599,2.212-28.229,54.489,15.841,61.906
		c4.149-0.078,7.829-2.861,12.134-2.276c-2.968,12.551-23.444,24.223-39.602,29.913c-7.205,0.286-14.436,0.286-21.615-0.078
		c-0.964-11.254,1.354-8.908-5.384-10.417c-1.366,2.64-2.406,5.436-3.238,8.323c-5.397,0.559-11.081-0.702-15.294-4.175
		c-0.338-2.484,2.562-7.101-0.819-7.959c-1.938,2.965-4.474,9.117-8.779,5.332c0.484-5.375,8.989-23.757,0.975-19.261
		c-3.759,4.24-4.383,10.587-8.193,14.683c0,0-35.459-12.88-45.168-14.111c-4.032-0.468-8.883-3.837-8.089-8.311
		c1.457-1.652,3.355-3.056,3.85-5.319c-2.328-2.237-5.969-0.273-8.844-1.132c-2.159,2.64-3.017,5.944-4.24,9.078
		c0,0-18.182-5.776-28.092-7.465c-8.193-1.704-16.725,0.169-24.828-2.081c-2.816-2.563,8.565-22.016,9.143-23.02
		c3.713-8.621,19.017,0.084,19.859-6.672c-4.526-0.988-9.234-0.169-13.656-1.574c0.178-5.134,17.578-43.418-23.215-41.527
		c-2.159-2.276-0.273-6.034-1.287-8.843c-1.027-0.052-3.069-0.169-4.084-0.221c-5.41,8.467,1.821,17.883,0.806,26.882
		c-1.014,5.345,1.001,10.703-0.429,16.036c-4.907,23.544,6.607,8.762-51.853,23.501c2.445,7.006,39.078-8.575,47.561-4.227
		c-5.22,13.327-2.426,12.799-32.54,18.455c-2.77,0.286-5.917-4.994-7.777-1.301c-1.6,3.16-5.254,3.577-8.089,5.072
		c-3.345,4.29-3.028,27.894-1.027,35.128c-3.153,8.041-27.22,11.826-34.243,3.199c-1.769-1.821-1.379-5.983-4.578-5.723
		c-5.007,4.214-4.149,11.679-8.089,16.595c1.191-4.785,4.944-20.15,0.104-21.16c-1.951,2.185-2.718,5.085-3.915,7.699
		c-4.955-2.965-7.452-8.662-12.55-11.38c-23.168-14.315-41.586-1.487-54.818-23.098c-3.498-7.062-0.884-15.737,4.565-20.965
		c7.595-4.162,14.436-9.988,23.033-12.082c-1.27-8.015-14.419,4.929-24.021-3.108c-13.868-14.01-5.746-37.019,3.681-47.171
		c4.194-3.86,10.873-30.334,12.29-36.988c1.143-2.338,14.405-10.181,23.007-10.56c6.906,1.626,13.044,5.605,18.793,9.663
		c-16.281,7.68-33.48,15.833-34.699,36.246c-3.941,2.601-9.52,4.448-10.352,9.793c1.001-0.44,27.232-12.951,28.365-18.468
		c-4.032-0.364-6.815,2.757-10.079,4.487c-1.34-4.695,3.186-7.439,5.254-11.003c11.341-16.39,43.855-20.952,46.495-19.183
		c-1.554,24.131,16.138,27.902,23.007,25.985c-0.156-0.872-0.494-2.588-0.663-3.447c-4.656-2.029-10.483-3.121-12.68-8.336
		c-6.388-8.251-3.551-26.579,9.117-26.492c-0.104-0.819-0.286-2.432-0.377-3.251c-7.953-2.206-23,9.947-26.622,10.521
		c-9.529,4.203-27.518-19.741-46.807-9.13c-26.176,5-20.262,34.969-30.836,49.889c-19.153,25.523-13.123,41.864,4.305,55.572
		c-15.398,14.123-11.064,19.225-11.419,30.732c-26.333,4.8-13.911,3.215-28.703,8.363c-1.574-3.135-2.562-6.49-3.811-9.702
		c-1.079,0.039-3.251,0.13-4.331,0.182c0.455,4.149,2.302,8.246,1.378,12.485c-4.045,4.331-9.598,6.477-15.307,7.491
		c-2.367-1.495-4.669-3.03-6.932-4.565c-3.797,1.782-2.783,5.423-2.133,8.83c-6.347,3.135-11.029,8.922-17.765,11.276
		c-1.795-3.486-3.928-7.218-8.324-7.348c-3.537,4.201,2.835,7.647,2.432,11.718c-3.772,2.887-7.179,6.178-10.638,9.416
		c-3.785,0.949-6.425-3.563-10.261-2.562c-0.65,3.108,1.938,5.488,3.173,8.154c-3.004,3.082-5.254,7.01-9.156,9.078
		c-2.419-1.834-4.799-3.954-7.959-4.018c-0.13,2.536,0.585,5.02,1.001,7.556c-2.82,5.765-15.141,16.904-16.049,20.289
		c-2.243,6.655-15.414,28.627-18.117,31.668c-3.889,2.029-7.881-1.847-11.978-1.443c-0.221,4.045,3.108,6.256,5.891,8.519
		c0.115,0.402-23.488,62.189-23.254,73.246c0.91,0.156,2.731,0.455,3.641,0.612c18.48-64.195,19.947-54.658,24.971-67.733
		c1.829-7.14,14.976,0.037,11.432-5.905c-2.068-1.456-6.009-2.341-4.994-5.645c0.414-1.013,12.533-23.374,21.173-32.761
		c4.279,1.756,8.115,5.059,13.083,4.37c0.195-5.319-5.891-5.813-7.803-9.585c1.014-3.928,4.006-6.932,6.724-9.78
		c3.511-2.107,6.919,1.652,10.274,2.51c-0.325-2.718-1.977-4.825-3.213-7.101c0.052-3.329,3.551-5.189,5.241-7.738
		c2.133-3.277,6.308-2.406,9.611-3.043c0.078-5.957,4.604-10.248,9.234-13.305c5.111-1.782,9.065,3.772,14.202,3.707
		c-0.91-3.29-4.929-5.397-4.331-8.961c6.936-8.413,31.139-16.09,35.869-19.287c3.616-2.38,6.542,2.25,10.222,2.185
		c0.312-2.536,0.559-5.033,0.897-7.517c9.234-4.305,19.144-6.672,29.249-7.816c14.285,14.018,33.982,8.251,51.033,17.869
		c6.776,4.175,11.341,10.951,17.74,15.62c-0.884,3.148-3.134,6.438-0.65,9.494c1.587-0.962,3.173-1.964,4.695-3.043
		c1.04,1.326,1.73,3.797,3.941,3.368c3.251-1.756,2.874-6.204,4.513-9.117c10.525,1.649,6.853,10.065,37.066-0.039
		c3.785-1.014,6.347-4.357,8.167-7.608c0.819-3.395-0.806-6.425-2.211-9.312c-0.637-7.998-0.546-16.022-0.013-24.008
		c0.741-0.039,2.237-0.13,2.978-0.182c0.897,6.399,0.507,12.862,0.507,19.313c1.027,2.38,2.25,4.76,3.772,6.945
		c13.542,10.504,17.354,13.314,38.106,1.054c4.89-5.566,8.675-12.277,10.3-19.56c2.424-13.001,61.692,24.625,58.694,41.253
		c2.354,1.535,5.761,2.146,6.984,5.007c1.405,2.705,1.053,6.073,2.757,8.675c4.214,4.812,4.357,11.77,3.824,17.843
		c0.915,22.332,2.353,25.317-8.753,51.164c-3.316-0.923-6.321-3.577-9.884-2.952c-4.864,3.706,2.458,7.166,5.098,9.403
		c-0.481,1.873,0.208,4.708-1.951,5.735c-3.433,1.535-5.749,4.604-8.87,6.542c-3.173,0.247-6.373-3.993-9.221-0.832
		c-0.078,3.186,2.991,4.929,4.682,7.296c-15.047,6.1-30.017,15.412-46.95,13.253c-1.665-2.914-0.312-8.506-4.279-9.156
		c-1.717,2.588-2.679,5.592-3.889,8.467c-28.187-10.322-28.471-8.67-35.193-23.826c0.78-3.238,2.497-6.178,2.939-9.481
		c-4.392,1.774-6.761,13.214-13.838-13.981c0.695-7.747,4.281-22.969,11.913-24.216c-1.313-12.948,25.952-22.33,47.275-4.448
		c3.355,3.837,4.162,11.211-1.262,13.669c-3.29,1.951,1.34,5.436,3.694,3.85c14.843-7.004,7.24-40.305-36.428-32.982
		c-7.764,1.496-12.355,8.467-18.624,12.55c-3.355,0.416-5.879-2.913-8.792-4.11c-3.134,4.058,2.211,6.763,4.474,9.624
		c-4.178,4.475-9.394,22.219-6.529,33.606c11.04,19.128,7.408,20.568,4.422,24.541
		C1623.772,436.547,1616.609,446.114,1623.236,446.622z M1949.686,354.933c10.481-0.578,20.944,15.643,32.032,17.466
		c-0.981-3.348-17.995-17.263-23.683-20.458c-8.171-4.71,13.951-17.825,23.11-6.607c2.029-0.845,4.084-1.704,6.165-2.523
		c4.66,3.736,20.41,9.585,15.529,14.423c-2.783,3.459-8.077,4.162-9.793,8.544c5.514,0.013,9.117-6.373,14.852-5.319
		c8.115,6.333,10.651,17.076,16.868,24.996c3.941,7.166,11.38,11.64,15.113,18.897c-13.942,4.5-28.235-3.837-42.216-0.052
		c-4.955-0.143-9.897-0.351-14.839,0.104c-1.223-2.185-1.08-5.527-3.343-6.776c-3.225-0.312-3.797,3.603-5.293,5.644
		c-2.887-0.234-6.997,1.496-8.674-1.652c-0.507-3.941-0.598-8.011-2.575-11.536c-1.365,0.546-2.705,1.131-3.993,1.756
		c-0.559,2.159-1.092,4.331-1.665,6.529C1941.916,398.175,1939.415,370.34,1949.686,354.933z M2092.837,283.897
		c-0.637,2.146-1.274,4.292-1.717,6.529c2.796,0.468,4.773-1.704,7.075-2.887c3.615-0.364,5.371,3.824,7.452,6.191
		c-1.496,3.511-4.838,6.464-4.76,10.469c5.241,3.967,5.761-7.608,10.834-5.852c5.975,4.973,18.964,24.113,19.248,25.113
		c-4.526,0.689-9.247,0.091-13.565,1.717c-9.379,4.397-24.819,11.727-40.148,12.251c-0.988-1.938-1.912-3.876-2.861-5.723
		c-1.339,2.172-2.601,4.422-3.953,6.607c-4.266,0.598-8.532,0.169-12.771-0.052c-1.08-2.341-1.899-4.76-2.874-7.062
		c-3.524,0.195-3.811,4.461-5.462,6.828c-9.61-1.018-19.743-1.06-26.115-15.945c-1.873-4.266,0.91-8.61,1.678-12.797
		c11.683-8.301,10.222-4.117,20.158-1.808c0.169-3.694-0.663-8.194-4.591-9.546c-4.422,0.312-9.143,2.471-13.409,0.546
		c-3.017-5.059,3.733-8.414,5.605-12.485c2.302-5.176,7.751-7.426,12.459-9.884C2063.964,272.493,2086.232,278.297,2092.837,283.897
		z M2059.322,248.276c-2.983,8.745-29.324,31.034-43.646,26.466C2004.321,272.791,2034.087,244.902,2059.322,248.276z
		 M2009.68,209.233c8.46-0.91,18.293,19.798,14.566,44.96c-3.238,4.149-8.974,5.54-12.121,9.936
		C2007.926,271.257,1990.375,247.256,2009.68,209.233z M2006.104,274.26c5.645-0.039,8.571,7.647,14.54,5.982
		c2.627-0.754,7.53-2.809,7.478,1.834c-2.926,4.279-7.4,7.725-8.428,13.071c-1.145,7.964-18.232,4.92-29.002,11.145
		c-4.903,1.691-9.221,5.488-14.683,4.851C1982.878,301.527,1995.222,297.545,2006.104,274.26z M1905.259,280.945
		c-11.939,2.224-23.839-6.412-26.375-18.064c1.373-8.346-1.212-10.601,7.27-31.174c2.64-0.091,5.293-0.234,7.959-0.533
		c-2.415-9.098-6.783-5.667,7.608-19.235c2.12,0.572,4.227,1.197,6.399,1.795c1.964-2.588,0.533-5.345-0.078-8.063
		c0,0,22.305-21.875,27.48-28.508c1.327-1.561,2.211-4.461,4.799-3.771c2.88,4.613-3.65,17.887,1.379,29.913
		c1.665,4.045-1.418,7.803-2.874,11.406c10.839,1.275,4.096-0.459,12.043,15.88c1.183,4.474-4.11,7.049-4.175,11.419
		c2.367-0.143,4.76-0.377,7.192-0.598c0.147,1.539,6.705,30.344-2.926,34.477c-2.822-0.676-5.527-1.704-8.311-2.224
		c-1.387,6.207,16.9,14.539-15.099,15.112c-16.066,0.059,2.029-25.834-6.451-33.619
		C1914.385,255.892,1919.929,274.476,1905.259,280.945z M1698.096,206.138c13.993,8.787,10.342,36.995-12.758,40.239
		c-1.574-5.163,0.91-10.327,1.119-15.49C1689.609,216.925,1674.849,196.883,1698.096,206.138z M1646.724,271.971
		c5.774-0.117,11.211-2.653,17.011-2.627c-1.783,5.126-9.936,18.789-23.449,11.588c-0.091-1.73-0.156-3.42-0.182-5.085
		C1642.146,274.299,1643.811,271.594,1646.724,271.971z M1681.306,263.466c1.483,0.416,3.017,0.832,4.578,1.262
		c-0.357,3.85-8.172,27.77-15.62,37.339c-3.629,4.227-9.377,4.253-14.488,4.656c-10.103,1.458-21.402-13.515-15.203-17.622
		c5.228-1.053,11.289,0.052,15.646-3.706c8.987-5.215,13.135-16.075,22.89-20.302c-3.225-5.176,1.353-10.118,3.225-14.865
		c3.485-2.575,8.987-4.604,12.823-1.613C1688.615,264.567,1685.355,262.214,1681.306,263.466z"/>
	<path fill="#060606" d="M1419.376,144.752c3.03-4.24,8.532-6.23,10.639-11.185c-7.407,1.439-15.341,11.166-16.426,15.086
		C1416.228,148.667,1417.971,146.742,1419.376,144.752z"/>
	<path fill="#060606" d="M1411.403,160.177c0.793-0.156,2.367-0.481,3.147-0.65c4.5-3.72,8.519-7.998,13.019-11.731
		c2.835-1.275,5.397-3.03,7.192-5.618c-0.858-0.065-2.575-0.221-3.433-0.286C1422.673,152.528,1412.76,150.731,1411.403,160.177z"/>
	<path fill="#060606" d="M1681.657,175.77c-6.26-20.814-16.098-10.973-21.017-17.948c-3.488-4.424-28.862-24.153-39.172-8.688
		c-7.991,10.018,2.304,41.582,32.943,40.876c6.126-0.078,12.901,1.183,18.364-2.38
		C1677.066,185.121,1683.412,181.778,1681.657,175.77z M1625.967,161.295c-0.065-3.941,0.403-8.258,2.835-11.458
		c9.741-4.552,18.728,3.134,25.426,9.403c0.52,1.951,0.234,4.031,0.325,6.099c-7.881,1.262-17.453-1.457-21.55-8.818
		c-1.647-2.907-10.3,2.632,4.864,11.159c7.201,3.47,9.133,7.805,25.881-2.484c3.485,1.314,8.024,2.094,9.598,6.035
		C1682.954,194.393,1626.182,187.575,1625.967,161.295z"/>
	<path fill="#060606" d="M1113.019,198.282c1.465-0.66,16.848-9.989,16.413-17.011
		C1120.715,185.529,1113.328,195.709,1113.019,198.282z"/>
	<path fill="#060606" d="M447.543,325.866c-0.195,2.744-1.47,6.464,1.717,8.102c6.098,6.265,22.397,1.248,24.073,1.431
		c2.744,1.34,5.371,2.939,8.232,4.097c3.85-4.747-3.954-7.634-2.861-12.498c4.903-2.484,10.066-5.41,15.789-4.422
		c5.96-18.453,34.491-7.794,53.361-0.988c-0.975,3.902-2.874,7.569-3.394,11.614c0.058,2.015,4.358,6.871,11.237-14.345
		c-8.063-7.127-19.547-6.295-28.924-10.417c-5.605-2.12-11.64-1.197-17.453-1.522c0.836-5.088,16.789-19.942,22.786-23.162
		c2.835,0.663,5.605,1.886,8.597,1.639c0.156-2.224-0.598-4.604,0.429-6.62c3.55-3.863,8.532-6.854,13.877-6.698
		c2.042,1.795,3.772,3.94,5.826,5.8c1.522-3.017,0.975-6.373,1.041-9.559c7.985-2.38,16.309-3.472,24.606-4.11
		c6.412,2.042,14.254,3.108,18.052,9.416c5.392,6.376,7.727,22.586-0.468,18.78c-9.897-3.42-20.575-4.019-30.849-2.861
		c-4.669,1.873-9.429,3.629-13.812,6.139c0.013,0.546,0.052,1.665,0.065,2.224c4.604,2.055,8.597-3.03,13.109-3.784
		c12.301-1.411,29.265-0.175,35.596,10.937c1.961,7.753-11.531,16.261-34.126,17.466c-3.121-2.237-0.351-6.776-2.978-9.364
		c-3.147,1.496-2.835,5.579-4.032,8.414c-3.355-0.91-6.62-2.042-9.949-2.952c-0.182,1.808-0.325,3.642-0.442,5.514
		c3.238,1.483,6.906,2.263,9.741,4.552c1.353,2.185,2.198,4.669,3.368,7.01c0.949-0.13,2.822-0.403,3.759-0.533
		c0.559-2.406,1.001-4.838,1.522-7.192c1.001-0.088,17.943,0.791,26.037-5.254c19.535-12.374,11.539-18.268,10.196-23.553
		c0.507-3.941,5.93-5.918,4.916-10.157c-5.886-38.171-37.028-22.922-51.658-32.591c-4.37-2.809-10.417-2.77-13.526-7.439
		c-2.302-1.496-0.702-4.942,1.912-4.292c38.54,1.239,31.947,9.316,40.226,11.601c2.276-0.728,4.734-1.248,6.659-2.757
		c0.516-7.052-14.127-0.758-0.923-24.138c1.847-2.991,1.184-6.815,3.121-9.741c3.277-5.28,5.618-11.263,5.982-17.492
		c-5.228,0.611-4.201,7.075-7.205,9.975c-7.649,1.643-3.025-12.463-19.846-17.609c-7.335-1.821-12.056-8.558-19.118-11.042
		c-19.811-0.07-18.449,16.118,6.347,10.105c0.156,1.795,0.312,3.616,0.468,5.475c-4.318,2.068-9.403,1.444-14.007,0.975
		c-3.941-2.705-6.867-6.568-10.014-10.066c-2.146,0-2.549,2.445-3.59,3.863c2.926,5.475,2.068,11.861,3.147,17.791
		c2.432,4.747,3.98,9.858,6.112,14.748c2.328,4.942,9.169,7.049,9.624,12.914c-7.751,0.468-15.516-0.351-23.254-0.143
		c1.118,3.199,4.825,3.511,7.309,5.267c5.34,10.743,8.057,8.014,22.617,17.258c-2.341,4.201-8.454,3.889-12.433,2.289
		c-18.96,18.368-21.634,8.965-27.364,7.062c-4.734,2.783,2.809,8.18-1.379,10.977c-14.226,15.335-33.812,28.709-41.539,35.31
		c-5.241,5.865-13.383,7.426-19.872,11.497C458.156,331.926,452.81,327.999,447.543,325.866z M550.026,204.59
		c7.998,0.546,18.364,3.655,24.034-3.954c3.407-3.876,7.582,1.197,10.508,3.225c5.605,3.447,7.881,9.78,11.198,15.126
		c1.288,1.626-0.247,3.511-1.066,4.994c-4.565,6.087-4.643,14.306-8.193,20.809C561.79,239.784,554.353,220.7,550.026,204.59z"/>
	<path fill="#060606" d="M1114.84,208.062c0.65,0.416,1.951,1.249,2.601,1.665c6.243-4.526,9.819-11.601,14.54-17.518
		c-0.676,0.026-2.042,0.091-2.731,0.117C1123.931,196.969,1118.156,201.69,1114.84,208.062z"/>
	<path fill="#060606" d="M1669.692,196.787c0.13-2.367-3.03-1.314-4.383-1.6c-3.733,9.741,2.588,19.144,2.042,29.041
		C1674.289,223.494,1670.532,212.427,1669.692,196.787z"/>
	<path fill="#060606" d="M1545.737,197.372c-5.801-0.234-9.39,5.072-14.007,7.712c-3.589,3.056-9.559,5.566-8.896,11.158
		c4.942,0.117,8.115-4.305,11.445-7.335C1537.634,204.551,1543.383,202.535,1545.737,197.372z"/>
	<path fill="#060606" d="M1599.423,244.257c0.806,0.585,2.406,1.743,3.212,2.315c22.134-7.06,5.325,29.33-14.8,23.072
		c-2.133-0.52-4.162,0.754-6.23,0.923c-7.967-1.103-28.313-8.084-28.495-16.088c4.019-1.964,8.389-3.251,12.069-5.878
		c-5.254-1.782-9.442,2.718-14.384,3.498c-8.464-5.723-9.056-32.44-9.624-38.652c-6.758-4.848-7.407,16.636-1.587,28.885
		c-0.013,4.487,3.342,8.024,3.915,12.29c-4.344,3.511-11.497,3.135-14.111,8.675c5.501-1.197,10.313-4.461,15.854-5.553
		c11.315,8.779,24.229,16.725,38.808,18.13c7.543,11.25,21.706,17.024,35.024,15.581c0.962-1.17,1.951-2.315,2.965-3.421
		c-3.819-3.043-18.678-0.509-27.844-9.897c4.011-8.474,13.46-6.121,19.82-15.386
		C1632.455,243.497,1600.581,230.156,1599.423,244.257z"/>
	<path fill="#060606" d="M1924.26,253.413c3.369-4.24,2.263-9.871,2.536-14.813c0.338-2.497,2.289-7.205-1.808-7.218
		c-2.575,6.672-5.865,13.578-5.124,20.952C1920.762,254.323,1922.791,256.079,1924.26,253.413z"/>
	<path fill="#060606" d="M1294.51,252.58c-1.327,7.595-6.646,14.436-5.579,22.37c6.027-2.417,12.068-23.69,12.017-28.04
		C1297.476,246.663,1294.809,249.173,1294.51,252.58z"/>
	<path fill="#060606" d="M486.573,313.316c1.236-3.316-2.172-6.113-5.293-5.124C481.995,310.871,483.789,312.756,486.573,313.316z"
		/>
	<path fill="#060606" d="M466.323,316.073c-0.052,0.923-0.143,2.744-0.195,3.655c1.704,0.143,3.42,0.286,5.15,0.442
		C470.069,318.271,468.469,316.736,466.323,316.073z"/>
	<path fill="#060606" d="M1021.747,498.878c-27.75,14.835-25.818,43.756-14.8,42.502c0.362-8.738-8.719-15.199,15.841-35.024
		c4.981-4.253,11.601-5.605,17.193-8.792c4.045-2.809,9.182-1.691,13.721-3.082c7.192,0.117,14.397-2.38,21.433,0.234
		c0.336,1.433,0.208,13.663,5.67,9.91c0.793-2.939,0.39-6.139,1.717-8.883c2.714-1.038,27.524-4.188,33.359-3.004
		c2.666,0.988,4.682,3.147,7.075,4.695c0.676-2.523,0.273-5.319,1.535-7.595c39.387-10.205,34.735-36.458,23.891-34.816
		c0,4.357,2.094,8.948-0.026,13.148c-5.118,9.776-20.392,16.109-29.145,15.568c-2.445-2.497-5.085-4.76-8.219-6.269
		c-0.65,0.416-1.964,1.261-2.614,1.678c0.013,1.821,2.38,5.137-0.533,5.735c-7.79,1.574-15.776,2.978-23.735,2.315
		c-1.769-0.936-3.043-2.523-4.63-3.616c-1.756,0.78-2.861,2.406-4.175,3.745c-10.946-1.249-24.327,1.765-36.22,4.669
		c0.858-3.303,3.42-5.527,5.775-7.764c6.315-5.665,15.637-37.756,15.906-38.756c0.845-3.59,5.033-3.719,7.361-5.813
		c-0.637-1.73-1.405-3.356-2.094-4.968c20.741-26.123,26.722-15.184,33.385-19.495c3.893-2.52,25.839,3.118,26.115,5.124
		c-0.819,3.863-3.303,7.361-2.874,11.484c4.279-0.429,5.15-4.838,6.776-8.024c1.495-0.091,3.004-0.026,4.539,0.195
		c2.562,4.929,5.137,9.962,6.503,15.425c-0.377,0.611-1.131,1.808-1.509,2.419c-22.381,1.662-60.35,16.816-47.678,22.682
		c53.793-27.247,71.933-6.336,44.179-48.393c1.197-3.616,3.889-6.828,3.459-10.847c-3.121,1.288-4.734,4.279-6.308,7.075
		c-10.651,2.159-20.444-4.812-31.083-4.487c-5.358,1.054-8.558-4.058-13.226-5.475c0.468,2.731,1.313,5.462,1.821,8.245
		c-16.366,7.317-10.368,8.085-21.641,10.131c-4.851,2.471-6.411,8.623-11.224,11.107c-3.525,0.247-5.761-3.394-8.922-4.435
		c-2.536,5.28,3.499,7.374,5.996,10.937C1053.424,452.811,1039.312,491.367,1021.747,498.878z"/>
	<path fill="#060606" d="M1140.851,406.422C1138.848,410.336,1145.078,406.63,1140.851,406.422L1140.851,406.422z"/>
	<path fill="#060606" d="M2503.902,448.993c-74.366-38.312-142.222-19.865-183.236-10.09
		c-145.99,34.794-269.827,98.169-326.328,119.789c-1,0.383-189.613,75.084-258.819,93.539
		c-137.132,41.107-239.176,63.407-325.428,23.017c-106.118-49.693-69.866-121.724-39.108-134.404
		c27.568-11.365,69.069-0.369,78.791,26.828c8.349,23.358-8.106,49.557-34.325,48.931c-25.597-0.612-33.759-24.136-25.145-34.187
		c4.552-5.311,17.409-6.776,20.34,1.165c1.187,3.214-3.119,9.605,0.026,11.641c6.276,4.062,12.539-15.761,0.25-23.877
		c-20.417-13.47-39.889,21.94-25.879,37.6c10.087,11.274,26.27,15.778,40.89,12.141c39.191-9.751,51.186-73.085-8.187-87.871
		c-95.719-23.838-142.41,112.856,26.302,163.183c34.316,10.237,71.684,10.324,106.961,6.112
		c66.856-7.983,240.104-53.882,404.472-120.547c194.536-78.9,442.694-199.617,556.146-121.515
		c21.973,15.127,43.142,34.226,54.676,58.737c15.563,33.072,6.271,74.757-20.335,99.494c-5.168,4.805-11.429,7.233-16.853,11.677
		c-4.689,3.841-10.319,5.703-16.148,7.173c-57.867,14.587-96.662-31.533-82.901-78.897c11.258-38.746,48.624-46.469,70.244-24.763
		c8.366,8.399,12.21,21.552,8.147,32.69c-4.063,11.137-16.658,18.938-28.189,16.187c-1.011,2.881,1.13,6.146,3.963,7.282
		c11.277,4.523,37.682-14.569,32.693-41.632c-6.41-34.771-54.373-47.61-82.052-15.497c-21.007,24.372-19.604,65.474,0.809,89.725
		c42.792,50.839,146.038,19.377,145.316-68.124C2580.591,505.383,2547.378,471.392,2503.902,448.993z"/>
	<path fill="#060606" d="M98.098,448.993c74.366-38.312,142.222-19.865,183.236-10.09c145.99,34.794,269.827,98.169,326.328,119.789
		c1,0.383,189.613,75.084,258.819,93.539c137.132,41.107,239.176,63.407,325.428,23.017
		c106.118-49.693,69.866-121.724,39.108-134.404c-27.568-11.365-69.069-0.369-78.791,26.828
		c-8.349,23.358,8.106,49.557,34.325,48.931c25.597-0.612,33.759-24.136,25.145-34.187c-4.552-5.311-17.409-6.776-20.34,1.165
		c-1.187,3.214,3.119,9.605-0.026,11.641c-6.276,4.062-12.539-15.761-0.25-23.877c20.417-13.47,39.889,21.94,25.879,37.6
		c-10.087,11.274-26.27,15.778-40.89,12.141c-39.191-9.751-51.186-73.085,8.187-87.871c95.719-23.838,142.41,112.856-26.302,163.183
		c-34.316,10.237-71.684,10.324-106.961,6.112c-66.856-7.983-240.104-53.882-404.472-120.547
		c-194.536-78.9-442.694-199.617-556.146-121.515c-21.973,15.127-43.142,34.226-54.676,58.737
		c-15.563,33.072-6.271,74.757,20.335,99.494c5.168,4.805,11.429,7.233,16.853,11.677c4.689,3.841,10.319,5.703,16.148,7.173
		c57.867,14.587,96.663-31.533,82.901-78.897c-11.258-38.746-48.624-46.469-70.244-24.763c-8.366,8.399-12.21,21.552-8.147,32.69
		c4.062,11.137,16.658,18.938,28.189,16.187c1.011,2.881-1.13,6.146-3.963,7.282c-11.277,4.523-37.682-14.569-32.693-41.632
		c6.41-34.771,54.373-47.61,82.052-15.497c21.007,24.372,19.603,65.474-0.809,89.725C123.528,673.462,20.282,642,21.004,554.499
		C21.409,505.383,54.622,471.392,98.098,448.993z"/>
</g>
</svg>
