<svg width="271" height="316" viewBox="0 0 271 316" fill="none" xmlns="http://www.w3.org/2000/svg">
<path d="M136.464 11.1714C136.904 12.6871 137.112 14.2368 137.451 15.7668C137.91 13.7955 138.07 11.768 138.934 9.86723C139.428 8.57476 140.073 7.29405 140.202 5.94152C140.202 4.83962 140.123 3.61509 139.199 2.7195C138.219 1.77163 136.077 1.97662 135.358 3.04065C134.435 4.33967 134.346 5.95063 134.91 7.35404C135.363 8.64129 136.011 9.88289 136.464 11.1714V11.1714Z" fill="#28382D"/>
<path d="M127.177 9.93627C128.482 10.8945 130.387 11.0512 131.83 11.841C132.913 12.4036 133.758 13.1923 134.457 14.0356C134.733 13.294 134.461 12.5277 134.145 11.8241C133.596 10.6516 132.813 9.54329 131.81 8.56807C131.119 7.92701 130.311 7.30436 129.267 7.03541C128.58 6.84351 127.757 6.91659 127.209 7.30825C126.221 7.95444 126.204 9.27433 127.177 9.93627H127.177Z" fill="#28382D"/>
<path d="M140.145 14.037C140.667 13.4652 141.177 12.8724 141.881 12.422C143.333 11.4298 145.296 11.1112 146.887 10.2927C147.579 9.9337 148.181 9.36324 148.155 8.68564C148.219 7.90233 147.509 7.10078 146.49 6.95976C145.523 6.83183 144.596 7.23004 143.885 7.70256C142.501 8.64522 141.534 9.90106 140.792 11.1949C140.318 12.0865 139.842 13.0604 140.145 14.037V14.037Z" fill="#28382D"/>
<path d="M105.91 24.7253C107.727 24.9225 109.587 24.5504 111.165 23.8493C114.747 22.2762 117.106 19.5737 120.07 17.4431C119.92 18.0946 119.612 18.7226 119.57 19.3897C119.31 20.8532 119.8 22.4289 121.083 23.5439C122.951 25.13 126.644 25.023 128.361 23.3402C129.028 22.673 129.513 21.8166 129.326 20.9576C129.137 19.8989 128.336 18.827 127.009 18.421C125.951 18.1077 124.584 18.2186 123.805 18.904C123.136 19.4615 123.146 20.3388 123.537 21.0007C123.988 21.7214 125.551 21.6992 125.975 20.9724C126.271 20.5023 126.197 19.9618 126.086 19.467C126.47 19.5597 126.884 19.6328 127.203 19.8391C128.014 20.3339 128.193 21.2452 127.94 21.9828C127.556 23.0455 126.148 23.7492 124.759 23.7517C123.648 23.7686 122.473 23.4528 121.777 22.7557C121.008 21.9932 120.811 20.9867 120.831 20.0454C120.841 18.753 121.331 17.4018 122.518 16.4579C123.719 15.5035 125.446 15.0806 127.122 14.9591C129.902 14.6849 132.918 15.4709 134.718 17.1746C136.004 18.4031 136.432 20.0598 136.247 21.6094C136.149 22.3666 135.802 23.1708 134.965 23.6264C134.26 23.9842 133.305 24.1055 132.525 23.8288C131.8 23.5794 131.539 22.86 131.754 22.3052C131.887 21.9867 132.258 21.7895 132.601 21.6159C132.696 22.0324 133.014 22.6668 133.714 22.5141C134.839 22.2191 134.797 20.8783 133.827 20.454C133.054 20.0754 132.071 20.3508 131.433 20.7726C129.92 21.77 130.269 24.0442 132.185 24.6016C133.428 24.9555 134.908 24.7635 135.952 24.1355C136.782 23.6486 137.165 22.8705 137.447 22.1225C137.777 23.0637 138.407 24.0272 139.598 24.4672C140.773 24.9045 142.297 24.9123 143.375 24.2988C144.271 23.7778 144.516 22.8248 144.362 22.0063C144.166 20.9815 142.753 20.1943 141.443 20.4305C140.655 20.561 140.125 21.2661 140.409 21.8587C140.553 22.206 140.93 22.5663 141.448 22.5389C141.984 22.4241 142.152 21.9737 142.302 21.6146C143.173 21.9149 143.521 22.8287 142.952 23.4319C142.277 24.0925 140.955 24.1186 140.069 23.7086C139.236 23.3274 138.843 22.5755 138.704 21.8653C138.409 20.1629 138.875 18.3065 140.372 16.9944C142.129 15.4669 144.897 14.7137 147.505 14.9461C149.164 15.0544 150.885 15.4121 152.139 16.3038C153.345 17.1458 153.938 18.4056 154.039 19.6394C154.147 20.6408 154.051 21.7295 153.311 22.5885C152.06 24.0155 149.028 24.1643 147.576 22.8484C146.631 22.0428 146.581 20.6263 147.605 19.8535C147.903 19.6851 148.327 19.4331 148.694 19.5545C148.657 20.2726 148.694 21.3536 149.858 21.5063C151.314 21.7413 151.958 20.2687 151.5 19.4109C150.922 18.2477 148.905 17.9749 147.596 18.5271C145.69 19.3483 144.934 21.475 146.125 22.915C147.521 24.8419 151.266 25.2322 153.404 23.8471C154.793 22.9163 155.448 21.4384 155.384 20.0402C155.415 19.1368 155.031 18.2843 154.681 17.4396C155.783 18.1538 156.686 19.0297 157.683 19.83C159.663 21.4436 161.687 23.1173 164.304 24.1121C166.303 24.8784 168.778 25.0495 170.814 24.2727C173.385 23.274 174.358 20.5194 172.981 18.5937C172.377 17.6955 171.152 17.1355 169.886 16.984C169.004 16.89 168.046 16.843 167.236 17.1851C166.08 17.625 165.299 18.6525 165.53 19.6551C165.616 20.3092 166.185 20.924 167.008 21.1277C167.857 21.3275 169.021 21.0481 169.226 20.3053C169.463 19.689 169.068 19.0637 168.371 18.753C168.625 18.5637 168.866 18.3182 169.243 18.2817C170.273 18.193 171.418 18.5676 171.841 19.3392C172.511 20.6081 172.131 22.2739 170.652 23.1095C169.435 23.8158 167.795 23.868 166.36 23.6108C164.555 23.2805 163.054 22.3745 161.679 21.4528C160.224 20.4502 158.857 19.3732 157.501 18.2882C156.597 17.5337 155.593 16.8443 154.773 16.0323C155.457 16.1419 156.097 16.3652 156.77 16.5101C158.912 17.0715 161.522 16.3338 162.627 14.7894C163.336 13.809 163.474 12.6301 163.263 11.5322C163.085 10.5805 162.516 9.63918 161.527 9.03598C160.433 8.35192 158.973 8.09085 157.59 8.19657C155.895 8.32972 154.374 9.35456 153.99 10.6444C153.835 11.3337 153.97 12.1536 154.691 12.6366C155.33 13.0374 156.321 13.1497 157.04 12.809C157.843 12.386 157.912 11.4095 157.336 10.8429C157.008 10.5217 156.445 10.5309 155.972 10.489C156.279 10.0021 156.733 9.52036 157.445 9.37809C159.156 9.05562 161.091 9.84672 161.716 11.1274C162.231 12.1693 162.122 13.4043 161.394 14.3716C160.729 15.2398 159.409 15.7373 158.119 15.6772C156.385 15.5967 154.834 14.9265 153.167 14.6197C151.092 14.2072 148.979 13.8677 146.835 13.7894C145.163 13.7107 143.491 14.0375 142.006 14.621C139.818 15.4579 138.118 17.0205 137.5 18.8575C137.055 17.8 136.375 16.7908 135.368 15.9905C133.298 14.3443 130.235 13.4343 127.273 13.7137C124.487 13.9657 121.75 14.5218 119.122 15.2803C117.973 15.5571 116.729 15.8443 115.533 15.5649C114.313 15.3091 113.371 14.4905 113.061 13.5531C112.721 12.5375 112.814 11.3703 113.629 10.5008C114.474 9.56866 116.116 9.06349 117.537 9.41464C118.197 9.57388 118.62 10.0217 118.943 10.4695C118.445 10.5296 117.845 10.5358 117.525 10.8899C117.024 11.4421 117.079 12.3312 117.785 12.7685C118.719 13.2594 120.186 12.9696 120.681 12.1745C121.132 11.4526 121.046 10.5674 120.533 9.87937C119.814 8.85851 118.351 8.19922 116.857 8.17958C115.432 8.1212 113.951 8.50728 112.965 9.32458C112.048 10.0517 111.64 11.0805 111.568 12.0779C111.502 13.1158 111.719 14.2072 112.479 15.0858C113.376 16.1576 115.069 16.732 116.69 16.7007C117.834 16.6742 118.879 16.2855 119.952 16.0219C119.706 16.39 119.292 16.6615 118.938 16.9658C116.938 18.5806 114.998 20.2478 112.811 21.7165C111.526 22.5599 110.101 23.3563 108.424 23.633C107.038 23.8602 105.469 23.8015 104.292 23.1304C102.8 22.3197 102.402 20.663 103.037 19.3927C103.441 18.5781 104.659 18.1694 105.731 18.2908C106.07 18.3466 106.29 18.5781 106.536 18.7516C105.634 19.0494 105.369 19.9724 105.863 20.5938C106.395 21.2322 107.626 21.368 108.412 20.9358C109.283 20.4945 109.534 19.5911 109.348 18.8391C109.06 17.7895 107.776 16.9997 106.413 16.9292C105.41 16.8796 104.366 16.984 103.475 17.3639C102.539 17.7517 101.863 18.4592 101.56 19.2399C100.99 20.6173 101.352 22.2034 102.5 23.3445C103.318 24.1525 104.612 24.6068 105.91 24.7256L105.91 24.7253Z" fill="#28382D"/>
<path d="M32.1652 51.4051C32.2114 51.9078 32.4381 52.4405 33.0044 52.7325C33.602 53.0101 34.3326 52.9277 34.9654 52.7724C35 52.5035 34.9724 52.2223 35.0913 51.9624C35.3438 51.6404 35.8424 51.5501 36.2714 51.4316C36.3235 50.7734 36.0504 49.955 35.1242 49.7567C34.0128 49.5225 32.8889 49.9601 31.7606 49.8309C31.9846 50.3406 32.112 50.8686 32.1652 51.4051V51.4051Z" fill="#28382D"/>
<path d="M41.8116 45.3665C42.4237 44.5624 43.5155 43.9857 44.7108 43.8537C44.6619 43.7637 44.6173 43.6715 44.575 43.579C42.7306 43.6658 40.8551 44.1898 39.6365 45.3113C38.925 46.0184 38.1213 46.7136 37.0231 47.0563C38.8781 47.502 40.9357 46.652 41.8116 45.3665V45.3665Z" fill="#28382D"/>
<path d="M46.1865 40.0029C46.4101 40.1802 46.5205 40.4184 46.7071 40.6181C46.8069 39.9439 46.2861 39.2711 45.558 38.9323C44.8981 38.7607 44.809 39.4906 44.7099 39.8314C45.2045 39.8439 45.7486 39.7741 46.1865 40.0029Z" fill="#28382D"/>
<path d="M46.1676 41.4756C46.3805 41.2173 46.4935 40.9226 46.5218 40.6171C46.2445 40.3224 45.8872 40.0378 45.3825 40.0505C44.8107 40.0431 44.0095 40.0424 43.731 40.5003C44.0103 41.2352 45.2078 41.7278 46.1676 41.4756V41.4756Z" fill="#28382D"/>
<path d="M49.327 41.2191C48.7463 41.2014 48.1698 41.1665 47.5989 41.0938C47.2188 41.0555 46.8264 40.9524 46.458 41.0805C47.0348 41.2439 47.6526 41.2885 48.2604 41.3453C49.8686 41.4717 51.5452 41.499 53.0787 41.0399C52.3902 41.9877 51.2903 42.7422 49.989 43.1467C49.2938 43.4015 48.5131 43.4016 47.769 43.4826C46.8702 43.5506 45.9737 43.7516 45.0707 43.5984C45.2362 43.9763 44.6148 43.8966 44.3375 44.0033C43.0887 44.5114 42.3425 45.5434 42.0754 46.5886C41.7368 47.8758 41.7474 49.2669 40.7953 50.4085C40.6745 49.9125 40.6384 49.4059 40.7064 48.9035C40.084 49.0782 39.4341 49.1756 38.7754 49.2153C38.1269 49.2576 37.4058 49.3819 37.0057 49.8169C36.5585 50.2716 36.6926 50.8742 36.8688 51.3851C37.2421 51.4259 37.6402 51.4009 37.9983 51.515C38.3551 51.7401 38.4747 52.0956 38.622 52.4167C39.3904 52.4291 40.3136 52.2999 40.6855 51.7067C40.9598 51.3647 40.7579 50.9208 41.0455 50.5867C41.6753 49.8014 41.8409 48.8718 42.0893 47.9849C43.2468 49.7546 42.4855 51.8516 41.2627 53.4689C41.0146 53.2606 40.8283 52.9855 40.4764 52.8735C39.9021 52.654 39.2393 52.7472 38.6581 52.8953C38.6131 53.1663 38.6625 53.4554 38.5308 53.7111C38.2716 54.0291 37.7767 54.1134 37.3562 54.232C37.3525 54.6887 37.3998 55.1904 37.8062 55.5519C38.0225 55.7774 38.3932 55.8595 38.7062 55.9829C37.4112 57.0014 35.9776 57.9046 34.5096 58.7677C33.8632 58.7176 32.9666 58.6439 32.8406 58.0329C32.6318 57.2675 31.661 56.8717 30.7811 56.6566C31.5583 57.1215 32.1524 57.7655 32.3499 58.5209C32.92 58.807 33.5891 58.9199 34.2608 58.9571C33.6159 59.3371 33.0181 59.8175 32.213 59.984C31.736 60.0953 31.281 59.8859 30.836 59.791C31.1874 59.9635 31.5532 60.1923 32.0005 60.1603C32.69 60.1045 33.2677 59.7668 33.8077 59.4543C35.1195 58.6185 36.4914 57.8398 37.766 56.9687C37.589 57.8734 36.9437 58.7367 35.9389 59.2319C35.3921 59.3923 34.7883 59.4645 34.3197 59.7519C33.8448 59.9813 33.7547 60.431 33.581 60.8064C33.9507 60.531 34.296 60.1473 34.8657 60.1354C35.9495 60.0605 36.9534 59.5533 37.4976 58.8224C37.9891 58.2048 38.0572 57.4575 38.0322 56.7486C38.3638 56.5097 38.689 56.2622 39.0043 56.0054C39.9572 55.9449 40.8999 55.768 41.865 55.8347C41.545 55.1496 41.5044 54.42 41.3515 53.7075C42.4119 52.3983 43.1394 50.8421 42.8721 49.2772C42.8054 48.5912 42.4724 47.9493 42.2081 47.3023C42.2891 46.2994 42.8419 45.2677 43.8552 44.618C44.847 44.0116 46.1544 43.9938 47.3528 43.8866C47.3923 43.9003 47.4708 43.9239 47.5114 43.9364C46.7185 44.3502 46.0122 44.9619 45.8635 45.7156C45.7063 46.4478 46.1111 47.1866 46.6992 47.7465C47.1405 48.15 47.6165 48.6022 47.6202 49.1586C47.6661 49.6875 47.2135 50.1176 46.9227 50.56C47.9289 49.8831 49.1185 49.2461 49.5581 48.2195C49.8915 47.485 49.586 46.695 49.1469 46.0296C48.7099 45.3555 48.1428 44.6092 48.5074 43.8324C49.2255 43.7261 49.956 43.6288 50.632 43.3955C51.9008 42.9831 52.9148 42.1974 53.6504 41.3071C54.1282 40.7012 54.6403 40.0564 54.6601 39.3215C54.6737 38.8033 54.6464 38.1869 54.0195 37.8703C54.0129 38.7743 53.8302 39.6739 53.4065 40.5192C52.6282 40.8989 51.6833 41.2455 50.7467 41.1134C49.67 40.7025 49.3748 39.7131 48.64 39.0463C48.0921 38.4544 47.18 38.2054 46.3506 37.9348C47.1503 38.5166 47.8473 39.1938 48.2716 39.9837C48.5083 40.4482 48.8509 40.8787 49.327 41.2191V41.2191Z" fill="#28382D"/>
<path d="M44.1854 42.4856C45.0657 42.5629 45.9981 42.1217 46.3734 41.5059C46.0562 41.5757 45.7828 41.7192 45.4586 41.7338C44.9936 41.7257 44.6087 41.497 44.2126 41.344C44.0849 41.7007 43.6832 42.2038 44.1854 42.4856Z" fill="#28382D"/>
<path d="M32.8862 54.0523C32.4865 54.9398 33.1466 55.8582 32.9271 56.7672C33.9314 56.3885 35.1144 56.5781 36.1083 56.1949C36.9896 55.8484 37.0887 54.9452 36.7439 54.3045C36.38 54.2134 35.9802 54.2637 35.6309 54.145C35.2643 53.9256 35.1471 53.5698 35.0068 53.248C34.1942 53.2225 33.2061 53.3938 32.8862 54.0523V54.0523Z" fill="#28382D"/>
<path d="M29.6427 59.309C30.0536 59.6123 30.837 59.4099 30.9442 58.9687C31.0662 58.5511 30.4933 58.2766 30.0727 58.1419C29.7894 58.0443 29.4368 58.1457 29.4088 58.4037C29.3245 58.7122 29.4076 59.051 29.6427 59.309V59.309Z" fill="#28382D"/>
<path d="M36.9896 53.5344C37.6249 53.4711 37.9686 52.8529 37.6184 52.4409C37.2515 51.9105 36.0858 52.019 35.9214 52.6104C35.702 53.1051 36.3251 53.6594 36.9896 53.5344V53.5344Z" fill="#28382D"/>
<path d="M137.622 300.233C137.283 301.763 137.074 303.313 136.635 304.828C136.182 306.117 135.534 307.358 135.081 308.646C134.517 310.049 134.606 311.66 135.529 312.959C136.248 314.023 138.39 314.228 139.37 313.28C140.294 312.385 140.373 311.16 140.373 310.058C140.244 308.706 139.599 307.425 139.105 306.133C138.241 304.232 138.081 302.204 137.622 300.233V300.233Z" fill="#28382D"/>
<path d="M134.628 301.964C133.929 302.807 133.084 303.596 132.001 304.158C130.558 304.948 128.653 305.105 127.348 306.063C126.375 306.725 126.392 308.045 127.38 308.691C127.928 309.083 128.751 309.156 129.438 308.964C130.482 308.695 131.29 308.072 131.981 307.431C132.984 306.456 133.767 305.348 134.316 304.175C134.633 303.472 134.904 302.705 134.628 301.964H134.628Z" fill="#28382D"/>
<path d="M147.058 305.707C145.467 304.889 143.504 304.57 142.052 303.578C141.348 303.127 140.838 302.535 140.316 301.963C140.013 302.939 140.489 303.913 140.963 304.805C141.705 306.099 142.672 307.355 144.056 308.297C144.767 308.77 145.694 309.168 146.661 309.04C147.68 308.899 148.39 308.098 148.326 307.314C148.352 306.637 147.75 306.066 147.058 305.707Z" fill="#28382D"/>
<path d="M170.985 291.727C168.949 290.951 166.473 291.122 164.475 291.888C161.858 292.883 159.834 294.556 157.854 296.17C156.857 296.97 155.954 297.846 154.851 298.56C155.202 297.716 155.585 296.863 155.555 295.96C155.619 294.562 154.964 293.084 153.575 292.153C151.436 290.768 147.691 291.158 146.295 293.085C145.105 294.525 145.861 296.652 147.767 297.473C149.075 298.025 151.093 297.752 151.67 296.589C152.128 295.731 151.485 294.259 150.029 294.494C148.865 294.647 148.828 295.728 148.865 296.446C148.498 296.567 148.074 296.315 147.776 296.147C146.752 295.374 146.802 293.957 147.747 293.152C149.198 291.836 152.231 291.985 153.482 293.412C154.221 294.271 154.317 295.359 154.21 296.361C154.109 297.594 153.516 298.854 152.31 299.696C151.056 300.588 149.335 300.946 147.676 301.054C145.068 301.286 142.3 300.533 140.543 299.006C139.046 297.694 138.58 295.837 138.874 294.135C139.014 293.425 139.407 292.673 140.24 292.291C141.126 291.881 142.448 291.908 143.123 292.568C143.692 293.171 143.344 294.085 142.473 294.386C142.323 294.026 142.155 293.576 141.619 293.461C141.101 293.434 140.723 293.794 140.58 294.141C140.296 294.734 140.826 295.439 141.614 295.57C142.924 295.806 144.337 295.019 144.532 293.994C144.687 293.175 144.441 292.222 143.546 291.701C142.468 291.088 140.944 291.096 139.769 291.533C138.578 291.973 137.948 292.936 137.618 293.878C137.335 293.13 136.953 292.351 136.123 291.865C135.079 291.237 133.599 291.045 132.356 291.398C130.44 291.956 130.091 294.23 131.603 295.228C132.242 295.649 133.225 295.925 133.998 295.546C134.968 295.122 135.01 293.781 133.885 293.486C133.185 293.333 132.866 293.968 132.772 294.384C132.429 294.211 132.058 294.013 131.925 293.695C131.709 293.14 131.971 292.421 132.696 292.171C133.476 291.895 134.431 292.016 135.136 292.374C135.973 292.829 136.32 293.634 136.418 294.391C136.603 295.94 136.175 297.597 134.889 298.826C133.089 300.529 130.073 301.315 127.293 301.041C125.617 300.92 123.889 300.497 122.689 299.542C121.502 298.598 121.012 297.247 121.002 295.955C120.981 295.013 121.178 294.007 121.948 293.244C122.643 292.547 123.819 292.231 124.93 292.248C126.319 292.248 127.727 292.955 128.111 294.017C128.364 294.755 128.185 295.666 127.373 296.161C127.055 296.367 126.641 296.44 126.257 296.533C126.368 296.038 126.442 295.498 126.146 295.028C125.722 294.301 124.159 294.278 123.708 294.999C123.317 295.661 123.307 296.538 123.975 297.095C124.755 297.781 126.122 297.892 127.18 297.578C128.507 297.172 129.308 296.101 129.497 295.042C129.684 294.183 129.199 293.326 128.532 292.659C126.814 290.976 123.122 290.869 121.254 292.455C119.971 293.57 119.481 295.146 119.74 296.61C119.783 297.277 120.091 297.905 120.241 298.556C117.277 296.426 114.918 293.723 111.336 292.15C109.758 291.449 107.898 291.077 106.081 291.274C104.782 291.393 103.489 291.847 102.671 292.655C101.522 293.796 101.16 295.382 101.731 296.76C102.034 297.54 102.71 298.248 103.646 298.636C104.537 299.016 105.581 299.12 106.584 299.071C107.946 299 109.231 298.21 109.519 297.161C109.704 296.409 109.454 295.505 108.583 295.064C107.797 294.632 106.566 294.768 106.034 295.406C105.54 296.027 105.805 296.95 106.707 297.248C106.461 297.422 106.241 297.653 105.902 297.709C104.83 297.83 103.612 297.422 103.208 296.607C102.573 295.337 102.971 293.68 104.462 292.869C105.64 292.198 107.209 292.14 108.595 292.367C110.272 292.643 111.696 293.44 112.981 294.283C115.169 295.752 117.109 297.419 119.109 299.034C119.463 299.338 119.877 299.61 120.123 299.978C119.05 299.714 118.004 299.325 116.861 299.299C115.239 299.268 113.547 299.842 112.65 300.914C111.89 301.793 111.673 302.884 111.739 303.922C111.811 304.919 112.219 305.948 113.136 306.675C114.121 307.492 115.603 307.879 117.028 307.82C118.521 307.801 119.985 307.141 120.704 306.12C121.217 305.432 121.303 304.547 120.852 303.825C120.357 303.03 118.89 302.74 117.956 303.231C117.25 303.669 117.194 304.558 117.696 305.11C118.016 305.464 118.616 305.47 119.114 305.53C118.791 305.978 118.368 306.426 117.708 306.585C116.287 306.936 114.645 306.431 113.8 305.499C112.985 304.629 112.892 303.462 113.232 302.447C113.542 301.509 114.483 300.691 115.704 300.435C116.9 300.155 118.144 300.444 119.293 300.719C121.921 301.478 124.657 302.034 127.444 302.286C130.406 302.565 133.469 301.655 135.539 300.009C136.546 299.209 137.226 298.2 137.671 297.142C138.289 298.979 139.989 300.542 142.177 301.379C143.662 301.962 145.334 302.289 147.006 302.21C149.15 302.132 151.263 301.793 153.337 301.38C155.005 301.073 156.555 300.403 158.29 300.322C159.58 300.262 160.9 300.76 161.565 301.628C162.292 302.595 162.402 303.83 161.887 304.872C161.262 306.153 159.327 306.944 157.616 306.622C156.904 306.479 156.449 305.998 156.143 305.511C156.616 305.469 157.178 305.478 157.507 305.157C158.083 304.59 158.014 303.614 157.21 303.191C156.491 302.85 155.501 302.962 154.861 303.363C154.141 303.846 154.006 304.666 154.161 305.355C154.545 306.645 156.065 307.67 157.761 307.803C159.144 307.909 160.603 307.648 161.698 306.964C162.686 306.361 163.256 305.419 163.434 304.468C163.645 303.37 163.506 302.191 162.798 301.21C161.693 299.666 159.083 298.928 156.941 299.49C156.267 299.634 155.628 299.858 154.944 299.967C155.764 299.155 156.768 298.466 157.672 297.711C159.027 296.627 160.395 295.55 161.85 294.547C163.225 293.625 164.726 292.719 166.531 292.389C167.965 292.132 169.606 292.184 170.823 292.89C172.301 293.726 172.682 295.392 172.012 296.661C171.589 297.432 170.444 297.807 169.414 297.718C169.036 297.682 168.796 297.436 168.541 297.247C169.238 296.936 169.634 296.311 169.397 295.694C169.191 294.952 168.028 294.672 167.179 294.872C166.356 295.076 165.786 295.691 165.701 296.345C165.47 297.347 166.251 298.375 167.406 298.815C168.216 299.157 169.174 299.11 170.057 299.016C171.323 298.864 172.547 298.304 173.152 297.406C174.529 295.48 173.556 292.726 170.985 291.727L170.985 291.727Z" fill="#28382D"/>
<path fill-rule="evenodd" clip-rule="evenodd" d="M92.7715 10.3184C85.8125 13.2507 66.081 24.8002 55.2522 35.8164C49.8378 41.3244 57.9794 50.3372 53.6732 56.6531C49.3669 62.969 32.6129 66.5881 29.7433 73.6357C28.2739 77.2445 24.68 88.1641 23.2174 94.2383C14.6675 97.2342 13.0258 103.436 14.9439 108.306C16.9023 113.278 23.8256 117.077 31.8692 116.626C38.3904 116.26 42.6392 111.684 43.1137 107.249C43.351 105.031 42.6842 102.692 40.6176 101.119C39.2864 100.105 35.6327 98.54 31.3087 98.5592C19.5603 98.6114 18.4725 108.68 24.8503 110.806C29.2438 112.271 33.0576 111.444 34.8858 109.525C35.7999 108.566 36.1754 107.476 36.1152 106.275C36.0788 105.551 36.2923 104.491 33.6289 103.335C30.9654 102.179 28.5982 104.929 28.5982 104.929C28.5982 104.929 30.7523 103.763 32.5851 104.753C34.4179 105.743 33.8293 106.105 33.8299 106.503C33.8305 107.209 33.7751 107.924 33.1802 108.548C31.9904 109.797 29.378 110.635 25.7499 109.317C22.4945 108.135 21.5565 100.47 31.3832 100.202C35.1643 100.099 37.5664 100.952 39.0437 102.221C40.521 103.489 41.1166 105.253 40.9176 107.113C40.5195 110.833 36.9313 114.689 31.6334 114.986C24.5829 115.382 19.1816 111.825 17.4991 107.554C15.8167 103.282 17.6834 98.3715 25.8938 95.6898L26.4203 95.5178L26.5248 95.0825C27.9551 89.1137 30.9089 77.7121 32.2626 74.3873C35.0985 67.4225 51.6855 63.8229 55.8125 57.5267C59.9396 51.2304 51.6067 42.2374 56.939 36.8129C67.6037 25.9637 86.969 14.6347 93.7842 11.7629C100.599 8.89118 104.872 6.00146 104.872 6.00146C104.872 6.00146 99.7304 7.38603 92.7714 10.3184H92.7715Z" fill="#28382D"/>
<path d="M30.5151 260.886C30.5614 260.383 30.7881 259.851 31.3544 259.559C31.9519 259.281 32.6825 259.363 33.3154 259.519C33.3499 259.788 33.3223 260.069 33.4413 260.329C33.6938 260.651 34.1924 260.741 34.6214 260.859C34.6735 261.518 34.4004 262.336 33.4741 262.534C32.3628 262.768 31.2388 262.331 30.1106 262.46C30.3345 261.95 30.4619 261.422 30.5151 260.886V260.886Z" fill="#28382D"/>
<path d="M40.1615 266.925C40.7737 267.729 41.8655 268.305 43.0608 268.437C43.0118 268.527 42.9672 268.62 42.925 268.712C41.0805 268.625 39.2051 268.101 37.9865 266.98C37.2749 266.273 36.4712 265.577 35.3731 265.235C37.2281 264.789 39.2857 265.639 40.1615 266.925V266.925Z" fill="#28382D"/>
<path d="M44.5364 272.288C44.7601 272.111 44.8704 271.873 45.0571 271.673C45.1569 272.347 44.636 273.02 43.908 273.359C43.2481 273.53 43.159 272.8 43.0598 272.46C43.5544 272.447 44.0986 272.517 44.5364 272.288Z" fill="#28382D"/>
<path d="M44.5176 270.815C44.7305 271.074 44.8435 271.368 44.8718 271.674C44.5945 271.969 44.2372 272.253 43.7325 272.241C43.1607 272.248 42.3595 272.249 42.081 271.791C42.3602 271.056 43.5578 270.563 44.5176 270.815V270.815Z" fill="#28382D"/>
<path d="M47.677 271.072C47.0962 271.09 46.5198 271.125 45.9489 271.197C45.5688 271.235 45.1764 271.339 44.8079 271.21C45.3848 271.047 46.0025 271.003 46.6104 270.946C48.2186 270.819 49.8952 270.792 51.4287 271.251C50.7402 270.303 49.6403 269.549 48.3389 269.144C47.6438 268.889 46.8631 268.889 46.119 268.808C45.2202 268.74 44.3237 268.539 43.4207 268.693C43.5861 268.315 42.9648 268.394 42.6875 268.288C41.4387 267.78 40.6925 266.748 40.4254 265.702C40.0867 264.415 40.0973 263.024 39.1453 261.883C39.0245 262.379 38.9884 262.885 39.0563 263.388C38.434 263.213 37.784 263.115 37.1254 263.076C36.4768 263.033 35.7558 262.909 35.3556 262.474C34.9084 262.019 35.0426 261.417 35.2187 260.906C35.592 260.865 35.9901 260.89 36.3483 260.776C36.705 260.551 36.8246 260.195 36.9719 259.874C37.7404 259.862 38.6636 259.991 39.0355 260.584C39.3098 260.926 39.1079 261.37 39.3955 261.704C40.0253 262.49 40.1908 263.419 40.4393 264.306C41.5967 262.536 40.8355 260.439 39.6127 258.822C39.3645 259.03 39.1782 259.306 38.8264 259.417C38.252 259.637 37.5893 259.544 37.008 259.396C36.9631 259.125 37.0124 258.836 36.8807 258.58C36.6216 258.262 36.1267 258.178 35.7062 258.059C35.7025 257.602 35.7497 257.101 36.1562 256.739C36.3725 256.514 36.7432 256.432 37.0562 256.308C35.7612 255.29 34.3276 254.386 32.8595 253.523C32.2132 253.573 31.3166 253.647 31.1906 254.258C30.9818 255.024 30.011 255.419 29.1311 255.634C29.9083 255.169 30.5024 254.526 30.6998 253.77C31.27 253.484 31.9391 253.371 32.6108 253.334C31.9659 252.954 31.3681 252.474 30.563 252.307C30.0859 252.196 29.631 252.405 29.186 252.5C29.5373 252.328 29.9031 252.099 30.3505 252.131C31.04 252.187 31.6177 252.524 32.1576 252.837C33.4694 253.673 34.8414 254.451 36.1159 255.322C35.9389 254.418 35.2937 253.554 34.2888 253.059C33.7421 252.899 33.1383 252.827 32.6697 252.539C32.1948 252.31 32.1047 251.86 31.931 251.485C32.3007 251.76 32.6459 252.144 33.2156 252.156C34.2995 252.231 35.3034 252.738 35.8476 253.469C36.3391 254.086 36.4072 254.834 36.3822 255.542C36.7138 255.781 37.039 256.029 37.3543 256.286C38.3072 256.346 39.2499 256.523 40.215 256.456C39.895 257.141 39.8544 257.871 39.7015 258.584C40.7619 259.893 41.4894 261.449 41.2221 263.014C41.1554 263.7 40.8224 264.342 40.5581 264.989C40.6391 265.992 41.1919 267.023 42.2052 267.673C43.197 268.279 44.5043 268.297 45.7027 268.404C45.7423 268.391 45.8208 268.367 45.8614 268.355C45.0685 267.941 44.3622 267.329 44.2135 266.575C44.0563 265.843 44.4611 265.104 45.0492 264.545C45.4904 264.141 45.9664 263.689 45.9702 263.132C46.0161 262.604 45.5635 262.173 45.2727 261.731C46.2789 262.408 47.4685 263.045 47.9081 264.072C48.2415 264.806 47.936 265.596 47.4968 266.261C47.0598 266.935 46.4927 267.682 46.8573 268.459C47.5755 268.565 48.3059 268.662 48.9819 268.896C50.2507 269.308 51.2648 270.094 52.0003 270.984C52.4782 271.59 52.9902 272.235 53.01 272.969C53.0236 273.488 52.9964 274.104 52.3694 274.421C52.3629 273.517 52.1802 272.617 51.7565 271.772C50.9782 271.392 50.0332 271.046 49.0966 271.178C48.0199 271.589 47.7248 272.578 46.99 273.245C46.4421 273.837 45.53 274.086 44.7006 274.356C45.5003 273.774 46.1972 273.097 46.6216 272.307C46.8583 271.843 47.2009 271.412 47.677 271.072V271.072Z" fill="#28382D"/>
<path d="M42.5353 269.805C43.4157 269.728 44.3481 270.169 44.7233 270.785C44.4062 270.715 44.1328 270.572 43.8086 270.557C43.3436 270.565 42.9586 270.794 42.5626 270.947C42.4349 270.59 42.0332 270.087 42.5353 269.805Z" fill="#28382D"/>
<path d="M31.2362 258.239C30.8364 257.351 31.4965 256.433 31.2771 255.524C32.2813 255.902 33.4644 255.713 34.4583 256.096C35.3395 256.443 35.4387 257.346 35.0939 257.986C34.73 258.078 34.3302 258.027 33.9809 258.146C33.6143 258.365 33.4971 258.721 33.3568 259.043C32.5441 259.069 31.5561 258.897 31.2362 258.239V258.239Z" fill="#28382D"/>
<path d="M27.9927 252.982C28.4036 252.678 29.1869 252.881 29.2941 253.322C29.4162 253.739 28.8432 254.014 28.4227 254.149C28.1394 254.246 27.7868 254.145 27.7587 253.887C27.6745 253.578 27.7576 253.24 27.9927 252.982V252.982Z" fill="#28382D"/>
<path d="M35.3396 258.757C35.9749 258.82 36.3186 259.438 35.9683 259.85C35.6015 260.38 34.4358 260.272 34.2713 259.681C34.0519 259.186 34.6751 258.632 35.3396 258.757V258.757Z" fill="#28382D"/>
<path fill-rule="evenodd" clip-rule="evenodd" d="M91.1215 301.972C84.1625 299.04 64.431 287.49 53.6022 276.474C48.1878 270.966 56.3294 261.953 52.0231 255.637C47.7169 249.322 30.9628 245.702 28.0933 238.655C26.6239 235.046 23.03 224.127 21.5674 218.052C13.0174 215.056 11.3757 208.855 13.2939 203.985C15.2522 199.012 22.1756 195.214 30.2192 195.665C36.7404 196.031 40.9891 200.606 41.4637 205.042C41.701 207.26 41.0342 209.598 38.9676 211.172C37.6364 212.185 33.9827 213.751 29.6587 213.732C17.9103 213.679 16.8225 203.611 23.2003 201.484C27.5938 200.019 31.4075 200.847 33.2357 202.765C34.1498 203.724 34.5254 204.815 34.4651 206.015C34.4287 206.74 34.6423 207.8 31.9788 208.956C29.3154 210.112 26.9482 207.361 26.9482 207.361C26.9482 207.361 29.1023 208.527 30.9351 207.537C32.7679 206.547 32.1793 206.185 32.1799 205.788C32.1805 205.082 32.1251 204.367 31.5302 203.742C30.3404 202.494 27.728 201.655 24.0999 202.973C20.8444 204.156 19.9065 211.821 29.7332 212.088C33.5143 212.191 35.9164 211.338 37.3937 210.07C38.871 208.801 39.4666 207.038 39.2675 205.178C38.8695 201.457 35.2813 197.602 29.9834 197.305C22.9328 196.909 17.5315 200.465 15.8491 204.737C14.1667 209.009 16.0334 213.919 24.2438 216.601L24.7702 216.773L24.8748 217.208C26.3051 223.177 29.2588 234.578 30.6126 237.903C33.4485 244.868 50.0354 248.468 54.1625 254.764C58.2895 261.06 49.9566 270.053 55.289 275.478C65.9537 286.327 85.319 297.656 92.1342 300.528C98.9493 303.399 103.222 306.289 103.222 306.289C103.222 306.289 98.0803 304.905 91.1214 301.972H91.1215Z" fill="#28382D"/>
<path d="M242.862 50.991C242.816 51.4938 242.589 52.0264 242.023 52.3184C241.426 52.5961 240.695 52.5136 240.062 52.3584C240.028 52.0894 240.055 51.8082 239.936 51.5483C239.684 51.2263 239.185 51.136 238.756 51.0175C238.704 50.3594 238.977 49.5409 239.903 49.3427C241.015 49.1085 242.139 49.546 243.267 49.4169C243.043 49.9266 242.916 50.4545 242.862 50.991V50.991Z" fill="#28382D"/>
<path d="M233.216 44.9524C232.604 44.1483 231.512 43.5716 230.317 43.4396C230.366 43.3497 230.41 43.2574 230.453 43.1649C232.297 43.2518 234.172 43.7758 235.391 44.8972C236.103 45.6044 236.906 46.2996 238.004 46.6423C236.15 47.0879 234.092 46.238 233.216 44.9524V44.9524Z" fill="#28382D"/>
<path d="M228.841 39.5889C228.617 39.7661 228.507 40.0044 228.32 40.2041C228.221 39.5299 228.742 38.857 229.47 38.5183C230.129 38.3467 230.219 39.0766 230.318 39.4173C229.823 39.4299 229.279 39.3601 228.841 39.5889Z" fill="#28382D"/>
<path d="M228.86 41.0616C228.647 40.8032 228.534 40.5085 228.506 40.203C228.783 39.9083 229.14 39.6237 229.645 39.6364C230.217 39.629 231.018 39.6283 231.296 40.0862C231.017 40.8211 229.82 41.3137 228.86 41.0616V41.0616Z" fill="#28382D"/>
<path d="M225.701 40.805C226.281 40.7873 226.858 40.7524 227.429 40.6797C227.809 40.6415 228.201 40.5383 228.57 40.6665C227.993 40.8298 227.375 40.8744 226.767 40.9313C225.159 41.0577 223.482 41.0849 221.949 40.6258C222.637 41.5737 223.737 42.3282 225.039 42.7327C225.734 42.9875 226.514 42.9875 227.259 43.0685C228.157 43.1366 229.054 43.3375 229.957 43.1843C229.791 43.5622 230.413 43.4826 230.69 43.5892C231.939 44.0973 232.685 45.1293 232.952 46.1746C233.291 47.4618 233.28 48.8529 234.232 49.9944C234.353 49.4984 234.389 48.9918 234.321 48.4894C234.944 48.6641 235.594 48.7615 236.252 48.8012C236.901 48.8435 237.622 48.9678 238.022 49.4028C238.469 49.8575 238.335 50.4602 238.159 50.971C237.786 51.0119 237.387 50.9868 237.029 51.1009C236.673 51.326 236.553 51.6816 236.406 52.0026C235.637 52.015 234.714 51.8858 234.342 51.2926C234.068 50.9507 234.27 50.5067 233.982 50.1727C233.352 49.3873 233.187 48.4577 232.938 47.5709C231.781 49.3406 232.542 51.4375 233.765 53.0548C234.013 52.8465 234.199 52.5714 234.551 52.4595C235.126 52.24 235.788 52.3331 236.37 52.4813C236.415 52.7522 236.365 53.0414 236.497 53.297C236.756 53.6151 237.251 53.6994 237.671 53.818C237.675 54.2746 237.628 54.7764 237.221 55.1379C237.005 55.3634 236.634 55.4454 236.321 55.5688C237.616 56.5873 239.05 57.4906 240.518 58.3536C241.164 58.3036 242.061 58.2298 242.187 57.6188C242.396 56.8534 243.367 56.4576 244.246 56.2425C243.469 56.7075 242.875 57.3514 242.678 58.1069C242.108 58.3929 241.439 58.5058 240.767 58.5431C241.412 58.9231 242.009 59.4034 242.815 59.5699C243.292 59.6812 243.747 59.4718 244.192 59.3769C243.84 59.5494 243.474 59.7782 243.027 59.7463C242.338 59.6904 241.76 59.3527 241.22 59.0403C239.908 58.2044 238.536 57.4258 237.262 56.5547C237.439 57.4593 238.084 58.3227 239.089 58.8178C239.635 58.9782 240.239 59.0504 240.708 59.3379C241.183 59.5672 241.273 60.0169 241.447 60.3924C241.077 60.1169 240.732 59.7332 240.162 59.7214C239.078 59.6464 238.074 59.1393 237.53 58.4083C237.039 57.7907 236.97 57.0434 236.995 56.3346C236.664 56.0957 236.339 55.8481 236.023 55.5913C235.07 55.5308 234.128 55.354 233.163 55.4207C233.483 54.7356 233.523 54.0059 233.676 53.2934C232.616 51.9843 231.888 50.428 232.155 48.8631C232.222 48.1772 232.555 47.5353 232.819 46.8882C232.738 45.8854 232.186 44.8537 231.172 44.204C230.181 43.5975 228.873 43.5797 227.675 43.4725C227.635 43.4862 227.557 43.5098 227.516 43.5224C228.309 43.9362 229.015 44.5478 229.164 45.3015C229.321 46.0338 228.916 46.7726 228.328 47.3324C227.887 47.736 227.411 48.1881 227.407 48.7446C227.361 49.2735 227.814 49.7036 228.105 50.1459C227.099 49.469 225.909 48.832 225.469 47.8054C225.136 47.0709 225.442 46.2809 225.881 45.6155C226.318 44.9415 226.885 44.1951 226.52 43.4183C225.802 43.312 225.072 43.2147 224.396 42.9814C223.127 42.5691 222.113 41.7834 221.377 40.8931C220.899 40.2872 220.387 39.6424 220.368 38.9075C220.354 38.3893 220.381 37.7728 221.008 37.4563C221.015 38.3602 221.197 39.2599 221.621 40.1051C222.399 40.4849 223.344 40.8314 224.281 40.6994C225.358 40.2884 225.653 39.299 226.388 38.6323C226.935 38.0404 227.848 37.7913 228.677 37.5207C227.877 38.1026 227.18 38.7797 226.756 39.5696C226.519 40.0342 226.177 40.4646 225.701 40.805V40.805Z" fill="#28382D"/>
<path d="M230.842 42.0715C229.962 42.1488 229.029 41.7077 228.654 41.0918C228.971 41.1616 229.245 41.3051 229.569 41.3198C230.034 41.3116 230.419 41.0829 230.815 40.9299C230.943 41.2866 231.344 41.7897 230.842 42.0715Z" fill="#28382D"/>
<path d="M242.141 53.6383C242.541 54.5258 241.881 55.4441 242.101 56.3532C241.096 55.9745 239.913 56.1641 238.919 55.7808C238.038 55.4343 237.939 54.5312 238.284 53.8905C238.648 53.7993 239.047 53.8497 239.397 53.7309C239.763 53.5115 239.88 53.1557 240.021 52.834C240.833 52.8084 241.821 52.9797 242.141 53.6383V53.6383Z" fill="#28382D"/>
<path d="M245.385 58.8954C244.974 59.1987 244.191 58.9964 244.083 58.5551C243.961 58.1375 244.534 57.863 244.955 57.7283C245.238 57.6307 245.591 57.7321 245.619 57.9901C245.703 58.2986 245.62 58.6374 245.385 58.8954V58.8954Z" fill="#28382D"/>
<path d="M238.038 53.1204C237.403 53.057 237.059 52.4388 237.409 52.0269C237.776 51.4965 238.942 51.605 239.106 52.1964C239.326 52.691 238.702 53.2454 238.038 53.1204V53.1204Z" fill="#28382D"/>
<path fill-rule="evenodd" clip-rule="evenodd" d="M182.256 9.90482C189.215 12.8372 208.947 24.3867 219.775 35.4028C225.19 40.9108 217.048 49.9236 221.354 56.2395C225.661 62.5555 242.415 66.1745 245.284 73.2221C246.754 76.8309 250.348 87.7505 251.81 93.8247C260.36 96.8207 262.002 103.022 260.084 107.893C258.125 112.865 251.202 116.663 243.158 116.212C236.637 115.846 232.388 111.271 231.914 106.835C231.677 104.617 232.343 102.279 234.41 100.705C235.741 99.6917 239.395 98.1264 243.719 98.1456C255.467 98.1978 256.555 108.266 250.177 110.393C245.784 111.858 241.97 111.03 240.142 109.112C239.228 108.153 238.852 107.062 238.912 105.862C238.949 105.137 238.735 104.077 241.399 102.921C244.062 101.765 246.429 104.516 246.429 104.516C246.429 104.516 244.275 103.35 242.442 104.34C240.61 105.33 241.198 105.692 241.198 106.089C241.195 106.795 241.252 107.51 241.847 108.135C243.037 109.383 245.65 110.222 249.278 108.904C252.533 107.721 253.471 100.056 243.644 99.7887C239.863 99.6858 237.461 100.539 235.984 101.807C234.507 103.076 233.911 104.839 234.11 106.699C234.508 110.42 238.096 114.275 243.394 114.572C250.445 114.968 255.846 111.412 257.528 107.14C259.211 102.868 257.344 97.958 249.134 95.2762L248.607 95.1042L248.503 94.669C247.072 88.7001 244.119 77.2986 242.765 73.9737C239.929 67.009 223.342 63.4094 219.215 57.1131C215.088 50.8168 223.421 41.824 218.089 36.3993C207.424 25.5501 188.059 14.2211 181.243 11.3494C174.428 8.47761 170.156 5.58789 170.156 5.58789C170.156 5.58789 175.297 6.97255 182.256 9.90482H182.256Z" fill="#28382D"/>
<path d="M244.512 260.472C244.466 259.97 244.239 259.437 243.673 259.145C243.076 258.867 242.345 258.95 241.712 259.105C241.678 259.374 241.705 259.655 241.586 259.915C241.334 260.237 240.835 260.327 240.406 260.446C240.354 261.104 240.627 261.922 241.553 262.121C242.665 262.355 243.789 261.917 244.917 262.046C244.693 261.537 244.566 261.009 244.512 260.472V260.472Z" fill="#28382D"/>
<path d="M234.866 266.511C234.254 267.315 233.162 267.892 231.967 268.024C232.016 268.114 232.06 268.206 232.102 268.298C233.947 268.212 235.822 267.688 237.041 266.566C237.753 265.859 238.556 265.164 239.654 264.821C237.799 264.375 235.742 265.225 234.866 266.511V266.511Z" fill="#28382D"/>
<path d="M230.491 271.874C230.267 271.697 230.157 271.459 229.97 271.259C229.871 271.934 230.391 272.606 231.119 272.945C231.779 273.117 231.868 272.387 231.968 272.046C231.473 272.033 230.929 272.103 230.491 271.874Z" fill="#28382D"/>
<path d="M230.51 270.402C230.297 270.66 230.184 270.955 230.156 271.26C230.433 271.555 230.79 271.84 231.295 271.827C231.867 271.834 232.668 271.835 232.946 271.377C232.667 270.642 231.47 270.15 230.51 270.402V270.402Z" fill="#28382D"/>
<path d="M227.35 270.658C227.931 270.676 228.508 270.711 229.079 270.784C229.459 270.822 229.851 270.925 230.22 270.797C229.643 270.634 229.025 270.589 228.417 270.532C226.809 270.406 225.132 270.378 223.599 270.838C224.287 269.89 225.387 269.135 226.689 268.731C227.384 268.476 228.164 268.476 228.908 268.395C229.807 268.327 230.704 268.126 231.607 268.279C231.441 267.901 232.063 267.981 232.34 267.874C233.589 267.366 234.335 266.334 234.602 265.289C234.941 264.002 234.93 262.611 235.882 261.469C236.003 261.965 236.039 262.472 235.971 262.974C236.593 262.799 237.243 262.702 237.902 262.662C238.551 262.62 239.272 262.496 239.672 262.061C240.119 261.606 239.985 261.003 239.809 260.492C239.435 260.452 239.037 260.477 238.679 260.362C238.322 260.137 238.203 259.782 238.056 259.461C237.287 259.448 236.364 259.578 235.992 260.171C235.718 260.513 235.92 260.957 235.632 261.291C235.002 262.076 234.837 263.006 234.588 263.893C233.431 262.123 234.192 260.026 235.415 258.409C235.663 258.617 235.849 258.892 236.201 259.004C236.775 259.223 237.438 259.13 238.019 258.982C238.064 258.711 238.015 258.422 238.147 258.166C238.406 257.848 238.901 257.764 239.321 257.645C239.325 257.189 239.278 256.687 238.871 256.326C238.655 256.1 238.284 256.018 237.971 255.895C239.266 254.876 240.7 253.973 242.168 253.11C242.814 253.16 243.711 253.234 243.837 253.845C244.046 254.61 245.016 255.006 245.896 255.221C245.119 254.756 244.525 254.112 244.328 253.357C243.757 253.07 243.088 252.958 242.417 252.92C243.062 252.54 243.659 252.06 244.464 251.893C244.942 251.782 245.396 251.992 245.841 252.086C245.49 251.914 245.124 251.685 244.677 251.717C243.987 251.773 243.41 252.111 242.87 252.423C241.558 253.259 240.186 254.038 238.912 254.909C239.089 254.004 239.734 253.141 240.739 252.646C241.285 252.485 241.889 252.413 242.358 252.126C242.833 251.896 242.923 251.446 243.096 251.071C242.727 251.346 242.382 251.73 241.812 251.742C240.728 251.817 239.724 252.324 239.18 253.055C238.688 253.673 238.62 254.42 238.645 255.129C238.314 255.368 237.988 255.615 237.673 255.872C236.72 255.933 235.778 256.109 234.812 256.043C235.132 256.728 235.173 257.457 235.326 258.17C234.266 259.479 233.538 261.035 233.805 262.6C233.872 263.286 234.205 263.928 234.469 264.575C234.388 265.578 233.836 266.61 232.822 267.259C231.83 267.866 230.523 267.884 229.325 267.991C229.285 267.977 229.207 267.954 229.166 267.941C229.959 267.527 230.665 266.916 230.814 266.162C230.971 265.43 230.566 264.691 229.978 264.131C229.537 263.727 229.061 263.275 229.057 262.719C229.011 262.19 229.464 261.76 229.755 261.317C228.749 261.994 227.559 262.631 227.119 263.658C226.786 264.392 227.091 265.182 227.531 265.848C227.968 266.522 228.535 267.268 228.17 268.045C227.452 268.151 226.722 268.249 226.046 268.482C224.777 268.894 223.763 269.68 223.027 270.57C222.549 271.176 222.037 271.821 222.017 272.556C222.004 273.074 222.031 273.691 222.658 274.007C222.665 273.103 222.847 272.204 223.271 271.358C224.049 270.979 224.994 270.632 225.931 270.764C227.008 271.175 227.303 272.164 228.037 272.831C228.585 273.423 229.497 273.672 230.327 273.943C229.527 273.361 228.83 272.684 228.406 271.894C228.169 271.429 227.827 270.999 227.35 270.658V270.658Z" fill="#28382D"/>
<path d="M232.492 269.392C231.612 269.315 230.679 269.756 230.304 270.372C230.621 270.302 230.895 270.158 231.219 270.144C231.684 270.152 232.069 270.38 232.465 270.533C232.593 270.177 232.994 269.674 232.492 269.392Z" fill="#28382D"/>
<path d="M243.791 257.825C244.191 256.938 243.531 256.019 243.75 255.11C242.746 255.489 241.563 255.299 240.569 255.683C239.688 256.029 239.589 256.932 239.934 257.573C240.297 257.664 240.697 257.614 241.047 257.732C241.413 257.952 241.53 258.308 241.671 258.629C242.483 258.655 243.471 258.484 243.791 257.825V257.825Z" fill="#28382D"/>
<path d="M247.035 252.568C246.624 252.265 245.841 252.468 245.733 252.909C245.611 253.326 246.184 253.601 246.605 253.736C246.888 253.833 247.241 253.732 247.269 253.474C247.353 253.165 247.27 252.826 247.035 252.568V252.568Z" fill="#28382D"/>
<path d="M239.688 258.343C239.052 258.406 238.709 259.025 239.059 259.437C239.426 259.967 240.592 259.858 240.756 259.267C240.975 258.772 240.352 258.218 239.688 258.343V258.343Z" fill="#28382D"/>
<path fill-rule="evenodd" clip-rule="evenodd" d="M183.906 301.559C190.865 298.626 210.596 287.077 221.425 276.061C226.84 270.553 218.698 261.54 223.004 255.224C227.31 248.908 244.065 245.289 246.934 238.241C248.404 234.633 251.997 223.713 253.46 217.639C262.01 214.643 263.652 208.441 261.733 203.571C259.775 198.599 252.852 194.8 244.808 195.251C238.287 195.617 234.038 200.193 233.564 204.628C233.326 206.846 233.993 209.185 236.06 210.758C237.391 211.772 241.045 213.337 245.369 213.318C257.117 213.266 258.205 203.198 251.827 201.071C247.434 199.606 243.62 200.433 241.792 202.352C240.878 203.311 240.502 204.401 240.562 205.602C240.599 206.326 240.385 207.386 243.049 208.542C245.712 209.698 248.079 206.948 248.079 206.948C248.079 206.948 245.925 208.114 244.092 207.124C242.259 206.134 242.848 205.772 242.847 205.374C242.845 204.668 242.902 203.953 243.497 203.329C244.687 202.08 247.299 201.242 250.928 202.56C254.183 203.742 255.121 211.407 245.294 211.675C241.513 211.778 239.111 210.925 237.634 209.656C236.156 208.388 235.561 206.624 235.76 204.764C236.158 201.044 239.746 197.188 245.044 196.891C252.095 196.496 257.496 200.052 259.178 204.323C260.861 208.595 258.994 213.505 250.784 216.187L250.257 216.359L250.153 216.795C248.722 222.763 245.769 234.165 244.415 237.49C241.579 244.454 224.992 248.054 220.865 254.35C216.738 260.647 225.071 269.64 219.738 275.064C209.074 285.913 189.708 297.242 182.893 300.114C176.078 302.986 171.806 305.876 171.806 305.876C171.806 305.876 176.947 304.491 183.906 301.559H183.906Z" fill="#28382D"/>
<path d="M11.1696 156.872C12.6851 156.432 14.2344 156.223 15.7642 155.885C13.7932 155.425 11.7661 155.265 9.86568 154.401C8.57344 153.908 7.29298 153.263 5.94069 153.133C4.83899 153.133 3.61469 153.212 2.71927 154.137C1.77157 155.117 1.97652 157.259 3.04036 157.978C4.33914 158.901 5.9498 158.991 7.35295 158.426C8.63997 157.973 9.88134 157.325 11.1696 156.872V156.872Z" fill="#28382D"/>
<path d="M9.93487 166.16C10.8929 164.855 11.0496 162.95 11.8392 161.507C12.4018 160.424 13.1902 159.578 14.0334 158.879C13.292 158.603 12.5258 158.875 11.8223 159.191C10.6501 159.74 9.54195 160.523 8.56692 161.527C7.92597 162.217 7.30344 163.026 7.03453 164.07C6.84267 164.757 6.91574 165.581 7.30733 166.128C7.9534 167.117 9.27305 167.133 9.93487 166.16V166.16Z" fill="#28382D"/>
<path d="M14.0347 153.19C13.463 152.668 12.8704 152.158 12.42 151.454C11.428 150.002 11.1095 148.038 10.2911 146.446C9.93217 145.754 9.36182 145.153 8.68434 145.178C7.90117 145.114 7.09977 145.825 6.95878 146.844C6.83088 147.811 7.22901 148.739 7.70144 149.449C8.64393 150.834 9.89954 151.8 11.1931 152.543C12.0846 153.016 13.0583 153.493 14.0347 153.19V153.19Z" fill="#28382D"/>
<path d="M24.7209 187.431C24.9181 185.614 24.546 183.753 23.8451 182.175C22.2722 178.593 19.5703 176.233 17.4401 173.269C18.0914 173.419 18.7193 173.727 19.3863 173.769C20.8495 174.028 22.425 173.538 23.5397 172.255C25.1256 170.387 25.0186 166.694 23.3361 164.976C22.669 164.309 21.8128 163.824 20.9539 164.011C19.8954 164.199 18.8237 165.001 18.4177 166.328C18.1045 167.386 18.2154 168.753 18.9007 169.533C19.4581 170.202 20.3353 170.192 20.997 169.801C21.7175 169.35 21.6953 167.787 20.9687 167.362C20.4987 167.066 19.9583 167.14 19.4636 167.251C19.5563 166.867 19.6294 166.453 19.8356 166.135C20.3304 165.323 21.2414 165.144 21.9789 165.397C23.0414 165.781 23.745 167.189 23.7475 168.578C23.7644 169.69 23.4486 170.865 22.7516 171.561C21.9893 172.331 20.983 172.528 20.0418 172.508C18.7497 172.497 17.3987 172.007 16.455 170.82C15.5008 169.619 15.0779 167.891 14.9565 166.215C14.6824 163.435 15.4682 160.418 17.1716 158.618C18.3999 157.331 20.0563 156.903 21.6056 157.089C22.3626 157.186 23.1667 157.533 23.6222 158.37C23.9799 159.076 24.1013 160.031 23.8246 160.811C23.5752 161.537 22.856 161.798 22.3013 161.582C21.9828 161.449 21.7857 161.079 21.6121 160.735C22.0285 160.641 22.6628 160.322 22.5101 159.622C22.2152 158.497 20.8746 158.539 20.4504 159.509C20.0719 160.282 20.3473 161.266 20.7689 161.904C21.7662 163.416 24.04 163.068 24.5972 161.151C24.951 159.908 24.7591 158.428 24.1313 157.383C23.6444 156.553 22.8664 156.171 22.1186 155.888C23.0596 155.558 24.023 154.928 24.4629 153.737C24.9001 152.562 24.9079 151.037 24.2945 149.959C23.7736 149.063 22.8208 148.818 22.0024 148.972C20.9778 149.168 20.1907 150.581 20.4269 151.891C20.5574 152.679 21.2623 153.21 21.8549 152.925C22.2021 152.782 22.5623 152.405 22.5349 151.886C22.4201 151.351 21.9698 151.182 21.6108 151.032C21.911 150.162 22.8247 149.813 23.4278 150.382C24.0883 151.058 24.1144 152.38 23.7044 153.266C23.3233 154.099 22.5715 154.492 21.8614 154.631C20.1594 154.926 18.3033 154.46 16.9915 152.962C15.4642 151.206 14.7111 148.437 14.9435 145.828C15.0518 144.169 15.4095 142.448 16.3009 141.193C17.1428 139.987 18.4024 139.394 19.6359 139.293C20.6371 139.186 21.7256 139.282 22.5845 140.021C24.0112 141.272 24.16 144.306 22.8443 145.757C22.039 146.702 20.6227 146.753 19.85 145.729C19.6816 145.43 19.4297 145.006 19.5511 144.639C20.269 144.676 21.3498 144.639 21.5025 143.475C21.7375 142.018 20.2651 141.375 19.4075 141.833C18.2445 142.411 17.9717 144.428 18.5239 145.737C19.3449 147.644 21.4712 148.4 22.9109 147.209C24.8375 145.813 25.2277 142.067 23.8429 139.928C22.9123 138.539 21.4346 137.884 20.0367 137.948C19.1334 137.917 18.2811 138.301 17.4366 138.652C18.1506 137.548 19.0264 136.646 19.8265 135.649C21.4399 133.668 23.1132 131.644 24.1078 129.026C24.874 127.027 25.0451 124.551 24.2684 122.515C23.2699 119.944 20.5158 118.97 18.5905 120.348C17.6924 120.952 17.1325 122.177 16.981 123.443C16.8871 124.326 16.84 125.284 17.1821 126.094C17.6219 127.25 18.6492 128.031 19.6517 127.8C20.3056 127.714 20.9204 127.145 21.124 126.322C21.3237 125.473 21.0444 124.309 20.3017 124.103C19.6855 123.866 19.0603 124.262 18.7497 124.959C18.5604 124.705 18.315 124.464 18.2785 124.087C18.1898 123.056 18.5644 121.911 19.3358 121.488C20.6045 120.818 22.27 121.198 23.1054 122.677C23.8116 123.895 23.8638 125.535 23.6066 126.97C23.2764 128.775 22.3706 130.276 21.449 131.652C20.4466 133.107 19.3698 134.475 18.285 135.831C17.5306 136.735 16.8414 137.739 16.0295 138.559C16.1391 137.875 16.3624 137.235 16.5072 136.562C17.0685 134.419 16.331 131.809 14.7868 130.704C13.8066 129.995 12.6279 129.857 11.5302 130.067C10.5787 130.246 9.63756 130.815 9.03448 131.804C8.35055 132.898 8.08952 134.359 8.19522 135.741C8.32835 137.437 9.353 138.958 10.6426 139.342C11.3318 139.497 12.1515 139.362 12.6345 138.642C13.0352 138.002 13.1474 137.011 12.8068 136.292C12.3839 135.489 11.4075 135.42 10.8411 135.996C10.5199 136.324 10.5291 136.887 10.4873 137.36C10.0004 137.053 9.51877 136.599 9.37653 135.886C9.05412 134.175 9.84507 132.24 11.1255 131.615C12.1672 131.1 13.402 131.209 14.3692 131.937C15.2372 132.602 15.7345 133.922 15.6745 135.212C15.594 136.947 14.9239 138.498 14.6172 140.166C14.2047 142.241 13.8653 144.354 13.787 146.498C13.7083 148.171 14.0351 149.843 14.6185 151.329C15.4552 153.516 17.0176 155.217 18.8542 155.836C17.7969 156.28 16.7879 156.961 15.9877 157.968C14.3418 160.038 13.432 163.101 13.7113 166.064C13.9632 168.851 14.5193 171.588 15.2777 174.217C15.5544 175.366 15.8416 176.61 15.5622 177.806C15.3064 179.027 14.488 179.968 13.5508 180.278C12.5353 180.619 11.3683 180.526 10.499 179.711C9.56706 178.865 9.06199 177.223 9.41307 175.802C9.57228 175.142 10.02 174.719 10.4677 174.395C10.5279 174.894 10.534 175.494 10.888 175.814C11.4402 176.315 12.329 176.26 12.7663 175.554C13.2571 174.619 12.9673 173.152 12.1724 172.657C11.4506 172.206 10.5656 172.292 9.87771 172.806C8.85704 173.525 8.19788 174.988 8.17824 176.482C8.11987 177.907 8.50588 179.389 9.32302 180.374C10.05 181.292 11.0786 181.7 12.0758 181.772C13.1136 181.838 14.2047 181.621 15.0832 180.861C16.1548 179.963 16.7291 178.271 16.6978 176.649C16.6713 175.505 16.2827 174.459 16.0191 173.387C16.3872 173.633 16.6586 174.047 16.9628 174.4C18.5774 176.401 20.2442 178.342 21.7126 180.529C22.5559 181.814 23.3521 183.239 23.6288 184.917C23.856 186.303 23.7973 187.872 23.1263 189.05C22.3157 190.542 20.6593 190.939 19.3893 190.304C18.5748 189.9 18.1662 188.683 18.2876 187.61C18.3433 187.271 18.5748 187.051 18.7484 186.805C19.046 187.707 19.9689 187.972 20.5902 187.478C21.2284 186.946 21.3642 185.715 20.9321 184.928C20.4909 184.058 19.5877 183.807 18.8358 183.992C17.7864 184.28 16.9967 185.565 16.9262 186.928C16.8766 187.931 16.981 188.976 17.3609 189.867C17.7486 190.803 18.456 191.478 19.2365 191.781C20.6137 192.352 22.1995 191.99 23.3404 190.842C24.1482 190.023 24.6024 188.73 24.7212 187.431L24.7209 187.431Z" fill="#28382D"/>
<path d="M259.83 157.715C258.315 157.275 256.765 157.067 255.236 156.728C257.207 156.268 259.234 156.108 261.134 155.244C262.426 154.751 263.707 154.106 265.059 153.976C266.161 153.976 267.385 154.055 268.281 154.98C269.228 155.96 269.023 158.102 267.96 158.822C266.661 159.745 265.05 159.834 263.647 159.27C262.36 158.817 261.119 158.168 259.83 157.715V157.715Z" fill="#28382D"/>
<path d="M261.065 167.003C260.107 165.698 259.95 163.793 259.161 162.35C258.598 161.267 257.81 160.421 256.966 159.722C257.708 159.446 258.474 159.718 259.178 160.034C260.35 160.583 261.458 161.366 262.433 162.37C263.074 163.06 263.696 163.869 263.965 164.913C264.157 165.6 264.084 166.424 263.693 166.971C263.046 167.96 261.727 167.977 261.065 167.003V167.003Z" fill="#28382D"/>
<path d="M256.965 154.033C257.537 153.511 258.13 153.001 258.58 152.297C259.572 150.845 259.89 148.881 260.709 147.29C261.068 146.597 261.638 145.996 262.316 146.021C263.099 145.957 263.9 146.668 264.041 147.687C264.169 148.654 263.771 149.582 263.298 150.293C262.356 151.677 261.1 152.644 259.807 153.386C258.915 153.86 257.942 154.336 256.965 154.033V154.033Z" fill="#28382D"/>
<path d="M246.279 188.275C246.082 186.457 246.454 184.596 247.155 183.018C248.728 179.436 251.43 177.076 253.56 174.112C252.908 174.262 252.281 174.57 251.614 174.612C250.15 174.872 248.575 174.382 247.46 173.098C245.874 171.23 245.981 167.537 247.664 165.819C248.331 165.152 249.187 164.667 250.046 164.854C251.104 165.043 252.176 165.844 252.582 167.171C252.895 168.229 252.784 169.597 252.099 170.377C251.542 171.045 250.665 171.035 250.003 170.644C249.282 170.193 249.305 168.63 250.031 168.206C250.501 167.909 251.042 167.983 251.536 168.094C251.444 167.71 251.371 167.296 251.164 166.978C250.67 166.166 249.758 165.988 249.021 166.24C247.958 166.624 247.255 168.032 247.252 169.422C247.236 170.533 247.551 171.709 248.248 172.404C249.011 173.174 250.017 173.371 250.958 173.351C252.25 173.341 253.601 172.851 254.545 171.663C255.499 170.462 255.922 168.734 256.043 167.059C256.317 164.278 255.532 161.262 253.828 159.461C252.6 158.175 250.944 157.747 249.394 157.932C248.637 158.03 247.833 158.377 247.378 159.214C247.02 159.919 246.899 160.874 247.175 161.654C247.425 162.38 248.144 162.641 248.699 162.425C249.017 162.292 249.214 161.922 249.388 161.578C248.971 161.484 248.337 161.166 248.49 160.465C248.785 159.34 250.125 159.382 250.549 160.352C250.928 161.125 250.653 162.109 250.231 162.747C249.234 164.259 246.96 163.911 246.403 161.994C246.049 160.751 246.241 159.271 246.869 158.227C247.355 157.396 248.133 157.014 248.881 156.731C247.94 156.401 246.977 155.771 246.537 154.58C246.1 153.405 246.092 151.881 246.705 150.803C247.226 149.907 248.179 149.661 248.997 149.816C250.022 150.011 250.809 151.424 250.573 152.734C250.442 153.523 249.738 154.053 249.145 153.769C248.798 153.625 248.438 153.248 248.465 152.729C248.58 152.194 249.03 152.025 249.389 151.876C249.089 151.005 248.175 150.656 247.572 151.225C246.912 151.901 246.886 153.223 247.295 154.109C247.677 154.942 248.428 155.335 249.138 155.475C250.84 155.769 252.697 155.303 254.008 153.806C255.536 152.049 256.289 149.28 256.056 146.671C255.948 145.012 255.59 143.291 254.699 142.036C253.857 140.831 252.597 140.238 251.364 140.137C250.363 140.029 249.274 140.125 248.415 140.864C246.989 142.116 246.84 145.149 248.156 146.601C248.961 147.545 250.377 147.596 251.15 146.572C251.318 146.274 251.57 145.849 251.449 145.482C250.731 145.519 249.65 145.482 249.497 144.318C249.262 142.862 250.735 142.218 251.592 142.676C252.755 143.254 253.028 145.272 252.476 146.58C251.655 148.487 249.529 149.243 248.089 148.052C246.162 146.656 245.772 142.91 247.157 140.771C248.088 139.382 249.565 138.727 250.963 138.791C251.866 138.761 252.719 139.145 253.563 139.495C252.849 138.392 251.973 137.489 251.173 136.492C249.56 134.511 247.887 132.487 246.892 129.87C246.126 127.871 245.955 125.395 246.731 123.359C247.73 120.787 250.484 119.813 252.409 121.191C253.307 121.796 253.867 123.02 254.019 124.287C254.113 125.169 254.16 126.127 253.818 126.937C253.378 128.093 252.351 128.874 251.348 128.644C250.694 128.558 250.08 127.988 249.876 127.165C249.676 126.316 249.955 125.152 250.698 124.947C251.314 124.709 251.94 125.105 252.25 125.802C252.439 125.548 252.685 125.307 252.721 124.93C252.81 123.899 252.435 122.754 251.664 122.331C250.395 121.661 248.73 122.042 247.894 123.52C247.188 124.738 247.136 126.378 247.393 127.813C247.723 129.619 248.629 131.119 249.551 132.495C250.553 133.95 251.63 135.318 252.715 136.674C253.469 137.578 254.159 138.582 254.97 139.402C254.861 138.718 254.637 138.078 254.493 137.405C253.931 135.262 254.669 132.652 256.213 131.547C257.193 130.838 258.372 130.7 259.47 130.91C260.421 131.089 261.362 131.658 261.965 132.647C262.649 133.742 262.91 135.202 262.805 136.585C262.672 138.281 261.647 139.801 260.357 140.185C259.668 140.34 258.848 140.206 258.365 139.485C257.965 138.845 257.852 137.854 258.193 137.135C258.616 136.332 259.592 136.263 260.159 136.839C260.48 137.167 260.471 137.73 260.513 138.203C260.999 137.897 261.481 137.442 261.623 136.729C261.946 135.018 261.155 133.083 259.874 132.458C258.833 131.943 257.598 132.052 256.631 132.78C255.763 133.445 255.265 134.766 255.325 136.056C255.406 137.79 256.076 139.342 256.383 141.009C256.795 143.084 257.135 145.198 257.213 147.342C257.292 149.014 256.965 150.686 256.381 152.172C255.545 154.36 253.982 156.061 252.146 156.679C253.203 157.123 254.212 157.804 255.012 158.811C256.658 160.881 257.568 163.944 257.289 166.907C257.037 169.694 256.481 172.431 255.722 175.06C255.445 176.209 255.158 177.453 255.438 178.649C255.693 179.87 256.512 180.812 257.449 181.122C258.465 181.462 259.632 181.369 260.501 180.554C261.433 179.709 261.938 178.066 261.587 176.645C261.428 175.985 260.98 175.562 260.532 175.239C260.472 175.737 260.466 176.337 260.112 176.657C259.56 177.159 258.671 177.103 258.234 176.397C257.743 175.463 258.033 173.996 258.827 173.501C259.549 173.049 260.434 173.135 261.122 173.649C262.143 174.368 262.802 175.832 262.822 177.325C262.88 178.75 262.494 180.232 261.677 181.218C260.95 182.135 259.921 182.543 258.924 182.616C257.886 182.681 256.795 182.464 255.917 181.704C254.845 180.807 254.271 179.114 254.302 177.492C254.329 176.349 254.717 175.303 254.981 174.23C254.613 174.476 254.341 174.89 254.037 175.244C252.422 177.245 250.756 179.185 249.287 181.373C248.444 182.658 247.648 184.082 247.371 185.76C247.144 187.146 247.203 188.716 247.874 189.893C248.684 191.385 250.341 191.783 251.611 191.148C252.425 190.743 252.834 189.526 252.712 188.453C252.657 188.114 252.425 187.894 252.252 187.648C251.954 188.551 251.031 188.815 250.41 188.322C249.771 187.789 249.636 186.558 250.068 185.772C250.509 184.901 251.412 184.65 252.164 184.835C253.213 185.123 254.003 186.408 254.074 187.771C254.123 188.775 254.019 189.819 253.639 190.71C253.251 191.646 252.544 192.322 251.763 192.625C250.386 193.196 248.8 192.834 247.659 191.685C246.852 190.866 246.397 189.573 246.279 188.274L246.279 188.275Z" fill="#28382D"/>
</svg>
