<svg width="85" height="18" viewBox="0 0 85 18" fill="none" xmlns="http://www.w3.org/2000/svg">
<g clip-path="url(#clip0_39_136)">
<path d="M38.0157 16.9751C36.4646 16.9969 34.2741 16.4095 34.2015 14.6564C34.0287 13.3684 34.4967 12.3057 35.5623 11.5656C36.151 11.1566 36.5707 11.1897 36.7115 11.6559C36.7926 11.9246 36.7364 12.0413 36.3106 12.4832C35.6354 13.184 35.3812 13.7333 35.4191 14.4129C35.4776 15.4662 36.4148 16.0001 38.0318 15.9015C39.9128 15.7868 41.1536 14.7097 41.3982 12.979C41.5323 12.0306 41.4813 11.6799 41.0512 10.5923C40.6961 9.6946 40.5867 9.5397 39.8688 8.91779C39.0277 8.1892 37.5544 7.45949 36.2637 7.04211C35.5545 6.81277 34.7959 6.71315 34.0498 6.71624C32.4756 6.72243 31.0313 6.99005 29.3845 7.43916C28.5621 7.66341 27.1672 8.23529 25.9088 8.83302C25.9439 8.8878 25.9778 8.94125 26.0124 8.99655C26.2934 9.43157 26.5159 9.82994 26.6451 10.2737C26.9351 11.2866 26.4627 11.7775 26.3894 11.7575C26.252 11.7199 26.3192 11.1592 25.9938 10.5124C25.8239 10.1645 25.6164 9.89789 25.3089 9.45837C25.2531 9.38099 25.195 9.29792 25.1366 9.21246C24.6602 9.455 24.2368 9.68851 23.9049 9.89541C23.905 9.89556 23.9052 9.89564 23.9053 9.8958C24.1863 10.3308 24.4087 10.7296 24.5379 11.1733C24.828 12.1863 24.3556 12.6772 24.2823 12.6571C24.1449 12.6195 24.2121 12.0589 23.8867 11.412C23.7168 11.0642 23.5093 10.7972 23.2018 10.3576C23.1981 10.3522 23.1941 10.3467 23.1905 10.3416C22.8198 10.574 22.4297 10.8154 22.0162 11.0689C22.2163 11.4018 22.3773 11.7236 22.4789 12.0725C22.769 13.0855 22.2962 13.5764 22.2229 13.5564C22.0855 13.5188 22.1531 12.9581 21.8277 12.3112C21.6942 12.038 21.522 11.7942 21.3119 11.498C18.9593 12.9261 16.3758 14.4307 15.732 14.7243C15.2098 14.9625 14.4311 15.3223 14.0014 15.524C10.6688 17.0686 5.26358 16.9689 2.55318 13.5632C1.91703 12.7785 1.29094 11.5773 1.09449 10.4504C0.994527 9.87692 1.00488 9.23168 1.25751 8.71224C1.73923 7.72178 2.53605 6.90649 3.64012 6.4883C5.1868 5.90247 6.23826 6.01888 7.50004 6.27719C8.41191 6.46386 9.15534 6.80329 9.99874 7.5123C10.9509 8.31276 11.402 9.21444 11.5379 9.90098C11.8494 11.4737 10.4616 13.0537 8.46036 13.1757C7.49584 13.2345 6.78275 12.7651 6.15259 12.2029C5.76432 11.8565 5.44698 11.3573 5.3662 10.8318C5.31919 10.526 5.47791 10.0781 5.56159 9.92536C5.98756 9.14783 7.30357 8.60817 7.90172 8.96574C8.82053 9.57729 6.84461 9.82482 6.58057 10.8942C6.60039 11.2462 6.88505 11.5429 7.55384 11.907C8.41225 12.3744 9.74628 11.9101 10.199 10.9862C10.6663 10.0326 10.3636 9.09038 9.30864 8.21403C8.53424 7.57075 7.90433 7.29574 6.81236 7.12365C5.09703 6.85334 3.93742 7.20424 2.92008 8.30121C2.04858 9.24092 1.97318 9.7872 2.52487 11.1653C3.32268 13.1582 4.97837 14.505 6.81195 15.007C7.57388 15.2156 8.41754 15.3773 9.29286 15.3233C12.712 15.1124 14.0194 14.4534 18.918 11.5967C19.445 11.2895 20.0607 10.9485 20.7015 10.5763C20.6064 10.4061 20.5194 10.231 20.4511 10.0449C20.2566 9.50439 20.297 8.96284 20.4754 8.53351C20.9229 7.55771 21.6548 7.42022 21.6493 7.41635C21.7684 7.50332 21.2754 8.065 21.1497 8.76062C21.0792 9.05178 21.1013 9.40428 21.2435 9.75144C21.2936 9.87789 21.3612 10.005 21.4365 10.1361C21.8323 9.89529 22.2274 9.64704 22.6116 9.38277C22.5761 9.30476 22.54 9.22708 22.5101 9.14567C22.3156 8.60514 22.356 8.06319 22.5344 7.63386C22.9819 6.65806 23.7138 6.52096 23.7083 6.5171C23.8274 6.60406 23.3348 7.16575 23.2091 7.86137C23.1386 8.15253 23.1607 8.50463 23.3029 8.85179C23.3101 8.86982 23.3203 8.88807 23.328 8.90618C23.7942 8.60147 24.1623 8.38019 24.5921 8.16407C24.4299 7.65113 24.4722 7.14214 24.6415 6.73462C25.0891 5.75882 25.821 5.62132 25.8154 5.61745C25.9345 5.70443 25.442 6.26652 25.3162 6.96214C25.2554 7.21331 25.2636 7.5098 25.3583 7.80941C25.8277 7.60416 26.4001 7.36906 27.2134 7.0405C28.5838 6.4869 28.9738 6.377 30.8221 6.02369C32.7039 5.66398 34.5901 5.61768 35.9769 5.89734C39.0455 6.15475 43.0175 8.94182 42.4443 13.2041C42.2864 14.2411 41.8698 15.3496 41.0973 16.025C40.277 16.7422 39.0869 16.9942 38.0157 16.9751H38.0157Z" fill="#28382D"/>
<path d="M46.9843 16.9751C48.5354 16.9969 50.7258 16.4096 50.7985 14.6564C50.9712 13.3684 50.5032 12.3057 49.4377 11.5656C48.8489 11.1566 48.4292 11.1897 48.2884 11.6559C48.2073 11.9246 48.2635 12.0413 48.6893 12.4832C49.3645 13.184 49.6187 13.7334 49.5809 14.4129C49.5223 15.4663 48.5851 16.0001 46.9681 15.9015C45.0871 15.7868 43.8463 14.7097 43.6017 12.979C43.4677 12.0307 43.5186 11.6799 43.9488 10.5923C44.3038 9.6946 44.4132 9.53971 45.1312 8.9178C45.9722 8.18921 47.4456 7.4595 48.7362 7.04212C49.4454 6.81279 50.204 6.71315 50.9502 6.71625C52.5243 6.72244 53.9687 6.99006 55.6155 7.43917C56.4378 7.66342 57.8327 8.23531 59.0911 8.83303C59.056 8.88781 59.0221 8.94127 58.9875 8.99657C58.7065 9.43159 58.4841 9.82995 58.3548 10.2737C58.0648 11.2866 58.5372 11.7775 58.6105 11.7575C58.7479 11.7199 58.6807 11.1593 59.0061 10.5124C59.176 10.1645 59.3835 9.89791 59.691 9.45839C59.7468 9.381 59.8049 9.29794 59.8633 9.21249C60.3398 9.45501 60.7632 9.68853 61.0951 9.89542C61.095 9.89558 61.0947 9.89567 61.0947 9.89582C60.8137 10.3308 60.5912 10.7296 60.462 11.1733C60.1719 12.1863 60.6443 12.6772 60.7176 12.6572C60.855 12.6195 60.7879 12.0589 61.1133 11.412C61.2831 11.0642 61.4907 10.7972 61.7981 10.3576C61.802 10.3522 61.8059 10.3467 61.8095 10.3416C62.1802 10.574 62.5702 10.8154 62.9838 11.0689C62.7836 11.4018 62.6226 11.7236 62.521 12.0726C62.231 13.0855 62.7037 13.5764 62.7771 13.5564C62.9144 13.5188 62.8469 12.9581 63.1723 12.3113C63.3057 12.038 63.478 11.7942 63.688 11.498C66.0406 12.9261 68.6242 14.4307 69.268 14.7243C69.7901 14.9625 70.5688 15.3223 70.9985 15.524C74.3311 17.0686 79.7363 16.9689 82.4468 13.5632C83.0829 12.7785 83.709 11.5773 83.9054 10.4504C84.0054 9.87693 83.995 9.23171 83.7424 8.71226C83.2607 7.7218 82.4639 6.9065 81.3598 6.48831C79.8131 5.90249 78.7617 6.01888 77.4999 6.27719C76.588 6.46386 75.8446 6.80331 75.0012 7.51232C74.049 8.31279 73.5979 9.21445 73.462 9.90099C73.1506 11.4737 74.5383 13.0537 76.5396 13.1757C77.5041 13.2345 78.2172 12.7651 78.8473 12.2029C79.2356 11.8565 79.5529 11.3573 79.6337 10.8318C79.6808 10.526 79.522 10.0781 79.4383 9.92538C79.0124 9.14785 77.6964 8.60818 77.0982 8.96576C76.1794 9.5773 78.1553 9.82483 78.4194 10.8942C78.3996 11.2463 78.1149 11.5429 77.4461 11.907C76.5877 12.3744 75.2536 11.9101 74.8009 10.9862C74.3336 10.0327 74.6363 9.0904 75.6913 8.21405C76.4657 7.57077 77.0956 7.29575 78.1876 7.12366C79.9029 6.85335 81.0625 7.20424 82.0798 8.3012C82.9513 9.24091 83.0267 9.78723 82.4751 11.1653C81.6772 13.1582 80.0216 14.505 78.188 15.007C77.426 15.2156 76.5824 15.3773 75.7071 15.3233C72.2879 15.1124 70.9805 14.4534 66.082 11.5967C65.5549 11.2895 64.9392 10.9486 64.2985 10.5763C64.3936 10.4061 64.4805 10.231 64.5489 10.0449C64.7433 9.5044 64.7029 8.96284 64.5246 8.53352C64.077 7.55772 63.3451 7.42021 63.3507 7.41635C63.2315 7.50332 63.7245 8.06503 63.8503 8.76064C63.9208 9.0518 63.8986 9.40429 63.7564 9.75145C63.7063 9.8779 63.6387 10.005 63.5635 10.1361C63.1676 9.8953 62.7726 9.64705 62.3883 9.3828C62.4239 9.30478 62.46 9.22709 62.4899 9.14569C62.6843 8.60515 62.6439 8.0632 62.4656 7.63387C62.018 6.65807 61.2861 6.52096 61.2917 6.51709C61.1725 6.60407 61.6651 7.16576 61.7909 7.86138C61.8614 8.15254 61.8392 8.50464 61.697 8.8518C61.69 8.86983 61.6796 8.88816 61.672 8.90619C61.2058 8.60148 60.8377 8.38019 60.4078 8.16407C60.57 7.65114 60.5278 7.14216 60.3584 6.73463C59.9109 5.75883 59.179 5.62134 59.1845 5.61747C59.0654 5.70444 59.558 6.26652 59.6837 6.96214C59.7445 7.21332 59.7363 7.50981 59.6417 7.80942C59.1723 7.60417 58.5999 7.36908 57.7866 7.04051C56.4162 6.48691 56.0262 6.37702 54.1779 6.0237C52.2961 5.66399 50.4099 5.61771 49.0231 5.89736C45.9544 6.15477 41.9825 8.94183 42.5557 13.2041C42.7135 14.2411 43.1302 15.3496 43.9027 16.025C44.7229 16.7423 45.913 16.9942 46.9843 16.9751L46.9843 16.9751Z" fill="#28382D"/>
<path d="M38.2252 4.52453C38.2647 3.91694 38.7426 3.58596 39.5811 3.58546C40.4289 3.58496 41.1084 4.10073 41.3325 4.915C41.5604 5.74296 41.5657 6.7778 41.342 6.77793C41.2263 6.778 41.1317 6.62389 41.1318 6.43546C41.1321 5.79442 40.3333 5.25239 39.4336 5.2832C38.5034 5.31506 38.1868 5.11629 38.2252 4.52453Z" fill="#28382D"/>
<path d="M42.1141 7.84215C42.3216 7.63709 42.3513 6.13936 42.1518 5.9422C42.0852 5.87632 42.0406 5.60194 42.0529 5.33246C42.0651 5.06299 41.9061 4.35856 41.6995 3.76706C41.1855 2.29544 41.1725 1.82853 41.6328 1.37348C42.1147 0.897175 42.9205 0.90807 43.4157 1.39758C43.8501 1.82697 43.8307 2.31042 43.3207 3.76611C43.1134 4.35785 42.9535 5.06246 42.9654 5.33192C42.9773 5.60138 42.9247 5.88349 42.8485 5.95882C42.6527 6.15233 42.7078 7.65059 42.9184 7.8587C43.0146 7.95381 42.9614 8.16199 42.8002 8.32132C42.6049 8.51445 42.4096 8.51456 42.2144 8.32166C42.0534 8.16252 42.0083 7.94674 42.1141 7.84215Z" fill="#28382D"/>
<path d="M43.498 6.0199C43.6569 4.33562 44.2564 3.58268 45.4392 3.58198C46.2981 3.58147 46.778 3.93035 46.7776 4.55504C46.7773 5.16226 46.5325 5.31088 45.5847 5.27954C44.7239 5.25108 43.7793 5.86038 43.8998 6.36626C43.967 6.64817 43.7282 6.92085 43.5598 6.75446C43.4939 6.68924 43.466 6.35869 43.498 6.0199Z" fill="#28382D"/>
<path fill-rule="evenodd" clip-rule="evenodd" d="M37.9274 10.75C38.2314 11.1681 38.9862 10.9193 38.8718 10.33C38.6881 9.38365 37.6243 8.86127 36.7376 8.61105C35.8501 8.36297 34.9004 8.49343 34.1502 8.92819C33.5726 9.2636 33.1201 9.77181 32.8611 10.3496C33.2047 9.8167 33.7126 9.40662 34.2779 9.18352C35.0101 8.89381 35.845 8.92297 36.5141 9.22685C37.184 9.52858 37.5283 10.201 37.9275 10.75L37.9274 10.75Z" fill="#28382D"/>
<path fill-rule="evenodd" clip-rule="evenodd" d="M47.0724 10.75C46.7685 11.1681 46.0136 10.9193 46.128 10.33C46.3118 9.38365 47.3756 8.86127 48.2623 8.61105C49.1498 8.36297 50.0995 8.49343 50.8497 8.92819C51.4273 9.2636 51.8798 9.77181 52.1388 10.3496C51.7952 9.8167 51.2873 9.40662 50.722 9.18352C49.9898 8.89381 49.1549 8.92297 48.4858 9.22685C47.8159 9.52858 47.4715 10.201 47.0724 10.75L47.0724 10.75Z" fill="#28382D"/>
<path fill-rule="evenodd" clip-rule="evenodd" d="M11.2605 5.2526C11.8014 5.36802 12.1437 5.89271 12.0269 6.42735C11.9102 6.96199 11.3794 7.30035 10.8385 7.18497C10.2976 7.06955 9.95054 6.54385 10.0673 6.00923C10.1841 5.47459 10.7196 5.13724 11.2605 5.25265L11.2605 5.2526ZM12.6908 7.27585C13.0965 7.36241 13.3551 7.75878 13.2675 8.15975C13.18 8.56072 12.7789 8.81634 12.3733 8.72978C11.9676 8.64322 11.7138 8.24785 11.8014 7.84688C11.889 7.44589 12.2852 7.18929 12.6909 7.27583L12.6908 7.27585ZM13.2051 9.30978C13.5093 9.3747 13.7023 9.67056 13.6367 9.97127C13.571 10.272 13.2717 10.4628 12.9675 10.3979C12.6632 10.333 12.4702 10.0371 12.5358 9.7364C12.6015 9.43567 12.9008 9.24489 13.2051 9.30978H13.2051ZM12.7038 10.9454C12.932 10.9941 13.0768 11.216 13.0275 11.4415C12.9783 11.6671 12.7538 11.8102 12.5256 11.7615C12.2974 11.7128 12.1527 11.4909 12.2019 11.2654C12.2512 11.0398 12.4756 10.8967 12.7038 10.9454L12.7038 10.9454Z" fill="#28382D"/>
<path fill-rule="evenodd" clip-rule="evenodd" d="M73.7393 5.2526C73.1984 5.36802 72.8561 5.89271 72.9729 6.42735C73.0897 6.96199 73.6205 7.30035 74.1614 7.18497C74.7023 7.06955 75.0493 6.54385 74.9326 6.00923C74.8158 5.47459 74.2802 5.13724 73.7394 5.25264L73.7393 5.2526ZM72.309 7.27585C71.9033 7.36241 71.6448 7.75878 71.7323 8.15975C71.8199 8.56072 72.2209 8.81634 72.6265 8.72978C73.0322 8.64322 73.2861 8.24785 73.1985 7.84688C73.1109 7.44589 72.7146 7.18929 72.309 7.27583L72.309 7.27585ZM71.7948 9.30978C71.4905 9.3747 71.2975 9.67056 71.3632 9.97127C71.4288 10.272 71.7282 10.4628 72.0324 10.3979C72.3366 10.333 72.5296 10.0371 72.464 9.7364C72.3983 9.43567 72.099 9.24489 71.7948 9.30978H71.7948ZM72.296 10.9454C72.0678 10.9941 71.923 11.216 71.9723 11.4415C72.0215 11.6671 72.2461 11.8102 72.4742 11.7615C72.7024 11.7128 72.8472 11.4909 72.7979 11.2654C72.7487 11.0398 72.5242 10.8967 72.296 10.9454V10.9454Z" fill="#28382D"/>
</g>
<defs>
<clipPath id="clip0_39_136">
<rect width="85" height="18" fill="white" transform="matrix(1 0 0 -1 0 18)"/>
</clipPath>
</defs>
</svg>
