<svg width="85" height="18" viewBox="0 0 85 18" fill="none" xmlns="http://www.w3.org/2000/svg">
<g clip-path="url(#clip0_42_8040)">
<path d="M38.0157 1.02493C36.4646 1.00311 34.2741 1.59046 34.2015 3.34363C34.0287 4.63161 34.4967 5.69432 35.5623 6.43444C36.151 6.84339 36.5707 6.81033 36.7115 6.34407C36.7926 6.07536 36.7364 5.95874 36.3106 5.5168C35.6354 4.816 35.3812 4.26667 35.4191 3.58714C35.4776 2.53377 36.4148 1.9999 38.0318 2.09851C39.9128 2.21321 41.1536 3.2903 41.3982 5.02099C41.5323 5.96936 41.4813 6.32011 41.0512 7.40766C40.6961 8.3054 40.5867 8.4603 39.8688 9.08221C39.0277 9.8108 37.5544 10.5405 36.2637 10.9579C35.5545 11.1872 34.7959 11.2869 34.0498 11.2838C32.4756 11.2776 31.0313 11.0099 29.3845 10.5608C28.5621 10.3366 27.1672 9.76471 25.9088 9.16698C25.9439 9.1122 25.9778 9.05875 26.0124 9.00345C26.2934 8.56843 26.5159 8.17006 26.6451 7.72634C26.9351 6.71338 26.4627 6.22247 26.3894 6.24251C26.252 6.28012 26.3192 6.84076 25.9938 7.48763C25.8239 7.83547 25.6164 8.10211 25.3089 8.54163C25.2531 8.61901 25.195 8.70208 25.1366 8.78754C24.6602 8.545 24.2368 8.31149 23.9049 8.10459C23.905 8.10444 23.9052 8.10436 23.9053 8.1042C24.1863 7.66918 24.4087 7.2704 24.5379 6.82668C24.828 5.81373 24.3556 5.32282 24.2823 5.34286C24.1449 5.38046 24.2121 5.9411 23.8867 6.58798C23.7168 6.93583 23.5093 7.20285 23.2018 7.64237C23.1981 7.64778 23.1941 7.65328 23.1905 7.65839C22.8198 7.42603 22.4297 7.18465 22.0162 6.93108C22.2163 6.59823 22.3773 6.27645 22.4789 5.92746C22.769 4.9145 22.2962 4.42359 22.2229 4.44363C22.0855 4.48124 22.1531 5.04188 21.8277 5.68875C21.6942 5.96201 21.522 6.20583 21.3119 6.50204C18.9593 5.07394 16.3758 3.56931 15.732 3.27568C15.2098 3.03753 14.4311 2.67774 14.0014 2.47599C10.6688 0.931364 5.26358 1.03112 2.55318 4.43683C1.91703 5.22147 1.29094 6.42273 1.09449 7.54963C0.994527 8.12308 1.00488 8.76832 1.25751 9.28776C1.73923 10.2782 2.53605 11.0935 3.64012 11.5117C5.1868 12.0975 6.23826 11.9811 7.50004 11.7228C8.41191 11.5361 9.15534 11.1967 9.99874 10.4877C10.9509 9.68724 11.402 8.78556 11.5379 8.09902C11.8494 6.52634 10.4616 4.94632 8.46036 4.82428C7.49584 4.76548 6.78275 5.23492 6.15259 5.79711C5.76432 6.14351 5.44698 6.64271 5.3662 7.16817C5.31919 7.47398 5.47791 7.92191 5.56159 8.07464C5.98756 8.85217 7.30357 9.39183 7.90172 9.03426C8.82053 8.42271 6.84461 8.17518 6.58057 7.1058C6.60039 6.75375 6.88505 6.45714 7.55384 6.09299C8.41225 5.6256 9.74628 6.0899 10.199 7.01384C10.6663 7.96735 10.3636 8.90962 9.30864 9.78597C8.53424 10.4293 7.90433 10.7043 6.81236 10.8763C5.09703 11.1467 3.93742 10.7958 2.92008 9.69879C2.04858 8.75908 1.97318 8.2128 2.52487 6.83471C3.32268 4.84184 4.97837 3.49503 6.81195 2.99299C7.57388 2.78438 8.41754 2.6227 9.29286 2.67671C12.712 2.88763 14.0194 3.54662 18.918 6.40328C19.445 6.71052 20.0607 7.05146 20.7015 7.42368C20.6064 7.59387 20.5194 7.76901 20.4511 7.95507C20.2566 8.49561 20.297 9.03716 20.4754 9.46649C20.9229 10.4423 21.6548 10.5798 21.6493 10.5837C21.7684 10.4967 21.2754 9.935 21.1497 9.23938C21.0792 8.94822 21.1013 8.59572 21.2435 8.24856C21.2936 8.12211 21.3612 7.99497 21.4365 7.8639C21.8323 8.10471 22.2274 8.35296 22.6116 8.61723C22.5761 8.69524 22.54 8.77292 22.5101 8.85433C22.3156 9.39486 22.356 9.93681 22.5344 10.3661C22.9819 11.3419 23.7138 11.479 23.7083 11.4829C23.8274 11.3959 23.3348 10.8342 23.2091 10.1386C23.1386 9.84747 23.1607 9.49537 23.3029 9.14821C23.3101 9.13018 23.3203 9.11193 23.328 9.09382C23.7942 9.39853 24.1623 9.61981 24.5921 9.83593C24.4299 10.3489 24.4722 10.8579 24.6415 11.2654C25.0891 12.2412 25.821 12.3787 25.8154 12.3825C25.9345 12.2956 25.442 11.7335 25.3162 11.0379C25.2554 10.7867 25.2636 10.4902 25.3583 10.1906C25.8277 10.3958 26.4001 10.6309 27.2134 10.9595C28.5838 11.5131 28.9738 11.623 30.8221 11.9763C32.7039 12.336 34.5901 12.3823 35.9769 12.1027C39.0455 11.8453 43.0175 9.05818 42.4443 4.79588C42.2864 3.75895 41.8698 2.65044 41.0973 1.97497C40.277 1.25775 39.0869 1.00582 38.0157 1.02493H38.0157Z" fill="#28382D"/>
<path d="M46.9843 1.02492C48.5354 1.0031 50.7258 1.59045 50.7985 3.34362C50.9712 4.6316 50.5032 5.69431 49.4377 6.43443C48.8489 6.84338 48.4292 6.81032 48.2884 6.34406C48.2073 6.07535 48.2635 5.95872 48.6893 5.51678C49.3645 4.81599 49.6187 4.26665 49.5809 3.58712C49.5223 2.53375 48.5851 1.99989 46.9681 2.0985C45.0871 2.2132 43.8463 3.29028 43.6017 5.02097C43.4677 5.96934 43.5186 6.32011 43.9488 7.40766C44.3038 8.3054 44.4132 8.46029 45.1312 9.0822C45.9722 9.81079 47.4456 10.5405 48.7362 10.9579C49.4454 11.1872 50.204 11.2868 50.9502 11.2838C52.5243 11.2776 53.9687 11.0099 55.6155 10.5608C56.4378 10.3366 57.8327 9.76469 59.0911 9.16697C59.056 9.11219 59.0221 9.05873 58.9875 9.00343C58.7065 8.56841 58.4841 8.17005 58.3548 7.72632C58.0648 6.71337 58.5372 6.22246 58.6105 6.2425C58.7479 6.2801 58.6807 6.84074 59.0061 7.48762C59.176 7.83547 59.3835 8.10209 59.691 8.54161C59.7468 8.619 59.8049 8.70206 59.8633 8.78751C60.3398 8.54499 60.7632 8.31147 61.0951 8.10458C61.095 8.10442 61.0947 8.10433 61.0947 8.10418C60.8137 7.66915 60.5912 7.27039 60.462 6.82667C60.1719 5.81372 60.6443 5.32281 60.7176 5.34285C60.855 5.38045 60.7879 5.94109 61.1133 6.58797C61.2831 6.93582 61.4907 7.20285 61.7981 7.64237C61.802 7.64778 61.8059 7.65327 61.8095 7.65838C62.1802 7.42601 62.5702 7.18463 62.9838 6.93105C62.7836 6.5982 62.6226 6.27644 62.521 5.92744C62.231 4.9145 62.7037 4.42358 62.7771 4.44362C62.9144 4.48122 62.8469 5.04186 63.1723 5.68874C63.3057 5.96199 63.478 6.20582 63.688 6.50203C66.0406 5.07393 68.6242 3.5693 69.268 3.27567C69.7901 3.03752 70.5688 2.67773 70.9985 2.47598C74.3311 0.931352 79.7363 1.03111 82.4468 4.43682C83.0829 5.22145 83.709 6.42271 83.9054 7.54962C84.0054 8.12307 83.995 8.76829 83.7424 9.28774C83.2607 10.2782 82.4639 11.0935 81.3598 11.5117C79.8131 12.0975 78.7617 11.9811 77.4999 11.7228C76.588 11.5361 75.8446 11.1967 75.0012 10.4877C74.049 9.68721 73.5979 8.78555 73.462 8.09901C73.1506 6.52632 74.5383 4.94631 76.5396 4.82427C77.5041 4.76547 78.2172 5.23492 78.8473 5.7971C79.2356 6.1435 79.5529 6.64269 79.6337 7.16816C79.6808 7.47397 79.522 7.92189 79.4383 8.07462C79.0124 8.85215 77.6964 9.39182 77.0982 9.03424C76.1794 8.4227 78.1553 8.17517 78.4194 7.10579C78.3996 6.75373 78.1149 6.45713 77.4461 6.09298C76.5877 5.62559 75.2536 6.0899 74.8009 7.01383C74.3336 7.96734 74.6363 8.9096 75.6913 9.78595C76.4657 10.4292 77.0956 10.7042 78.1876 10.8763C79.9029 11.1467 81.0625 10.7958 82.0798 9.6988C82.9513 8.75909 83.0267 8.21277 82.4751 6.83469C81.6772 4.84181 80.0216 3.49501 78.188 2.99298C77.426 2.78437 76.5824 2.62269 75.7071 2.6767C72.2879 2.88762 70.9805 3.5466 66.082 6.40326C65.5549 6.7105 64.9392 7.05144 64.2985 7.42367C64.3936 7.59385 64.4805 7.76899 64.5489 7.95506C64.7433 8.4956 64.7029 9.03716 64.5246 9.46648C64.077 10.4423 63.3451 10.5798 63.3507 10.5837C63.2315 10.4967 63.7245 9.93497 63.8503 9.23936C63.9208 8.9482 63.8986 8.59571 63.7564 8.24855C63.7063 8.1221 63.6387 7.99496 63.5635 7.86389C63.1676 8.1047 62.7726 8.35295 62.3883 8.6172C62.4239 8.69522 62.46 8.77291 62.4899 8.85431C62.6843 9.39485 62.6439 9.9368 62.4656 10.3661C62.018 11.3419 61.2861 11.479 61.2917 11.4829C61.1725 11.3959 61.6651 10.8342 61.7909 10.1386C61.8614 9.84746 61.8392 9.49536 61.697 9.1482C61.69 9.13017 61.6796 9.11184 61.672 9.09381C61.2058 9.39852 60.8377 9.61981 60.4078 9.83593C60.57 10.3489 60.5278 10.8578 60.3584 11.2654C59.9109 12.2412 59.179 12.3787 59.1845 12.3825C59.0654 12.2956 59.558 11.7335 59.6837 11.0379C59.7445 10.7867 59.7363 10.4902 59.6417 10.1906C59.1723 10.3958 58.5999 10.6309 57.7866 10.9595C56.4162 11.5131 56.0262 11.623 54.1779 11.9763C52.2961 12.336 50.4099 12.3823 49.0231 12.1026C45.9544 11.8452 41.9825 9.05817 42.5557 4.79587C42.7135 3.75893 43.1302 2.65042 43.9027 1.97496C44.7229 1.25773 45.913 1.00582 46.9843 1.02493L46.9843 1.02492Z" fill="#28382D"/>
<path d="M38.2252 13.4755C38.2647 14.0831 38.7426 14.414 39.5811 14.4145C40.4289 14.415 41.1084 13.8993 41.3325 13.085C41.5604 12.257 41.5657 11.2222 41.342 11.2221C41.2263 11.222 41.1317 11.3761 41.1318 11.5645C41.1321 12.2056 40.3333 12.7476 39.4336 12.7168C38.5034 12.6849 38.1868 12.8837 38.2252 13.4755Z" fill="#28382D"/>
<path d="M42.1141 10.1579C42.3216 10.3629 42.3513 11.8606 42.1518 12.0578C42.0852 12.1237 42.0406 12.3981 42.0529 12.6675C42.0651 12.937 41.9061 13.6414 41.6995 14.2329C41.1855 15.7046 41.1725 16.1715 41.6328 16.6265C42.1147 17.1028 42.9205 17.0919 43.4157 16.6024C43.8501 16.173 43.8307 15.6896 43.3207 14.2339C43.1134 13.6422 42.9535 12.9375 42.9654 12.6681C42.9773 12.3986 42.9247 12.1165 42.8485 12.0412C42.6527 11.8477 42.7078 10.3494 42.9184 10.1413C43.0146 10.0462 42.9614 9.83801 42.8002 9.67868C42.6049 9.48555 42.4096 9.48544 42.2144 9.67834C42.0534 9.83748 42.0083 10.0533 42.1141 10.1579Z" fill="#28382D"/>
<path d="M43.498 11.9801C43.6569 13.6644 44.2564 14.4173 45.4392 14.418C46.2981 14.4185 46.778 14.0696 46.7776 13.445C46.7773 12.8377 46.5325 12.6891 45.5847 12.7205C44.7239 12.7489 43.7793 12.1396 43.8998 11.6337C43.967 11.3518 43.7282 11.0792 43.5598 11.2455C43.4939 11.3108 43.466 11.6413 43.498 11.9801Z" fill="#28382D"/>
<path fill-rule="evenodd" clip-rule="evenodd" d="M37.9274 7.25002C38.2314 6.83191 38.9862 7.0807 38.8718 7.66999C38.6881 8.61635 37.6243 9.13873 36.7376 9.38895C35.8501 9.63703 34.9004 9.50657 34.1502 9.07181C33.5726 8.7364 33.1201 8.22819 32.8611 7.65045C33.2047 8.1833 33.7126 8.59338 34.2779 8.81648C35.0101 9.10619 35.845 9.07703 36.5141 8.77315C37.184 8.47142 37.5283 7.79903 37.9275 7.24999L37.9274 7.25002Z" fill="#28382D"/>
<path fill-rule="evenodd" clip-rule="evenodd" d="M47.0724 7.25002C46.7685 6.83191 46.0136 7.0807 46.128 7.66999C46.3118 8.61635 47.3756 9.13873 48.2623 9.38895C49.1498 9.63703 50.0995 9.50657 50.8497 9.07181C51.4273 8.7364 51.8798 8.22819 52.1388 7.65045C51.7952 8.1833 51.2873 8.59338 50.722 8.81648C49.9898 9.10619 49.1549 9.07703 48.4858 8.77315C47.8159 8.47142 47.4715 7.79903 47.0724 7.24999L47.0724 7.25002Z" fill="#28382D"/>
<path fill-rule="evenodd" clip-rule="evenodd" d="M11.2605 12.7474C11.8014 12.632 12.1437 12.1073 12.0269 11.5726C11.9102 11.038 11.3794 10.6996 10.8385 10.815C10.2976 10.9305 9.95054 11.4561 10.0673 11.9908C10.1841 12.5254 10.7196 12.8628 11.2605 12.7474L11.2605 12.7474ZM12.6908 10.7242C13.0965 10.6376 13.3551 10.2412 13.2675 9.84025C13.18 9.43928 12.7789 9.18366 12.3733 9.27022C11.9676 9.35678 11.7138 9.75215 11.8014 10.1531C11.889 10.5541 12.2852 10.8107 12.6909 10.7242L12.6908 10.7242ZM13.2051 8.69022C13.5093 8.6253 13.7023 8.32944 13.6367 8.02873C13.571 7.72799 13.2717 7.53722 12.9675 7.60211C12.6632 7.66703 12.4702 7.96289 12.5358 8.2636C12.6015 8.56433 12.9008 8.75511 13.2051 8.69022H13.2051ZM12.7038 7.0546C12.932 7.00591 13.0768 6.78404 13.0275 6.55847C12.9783 6.33293 12.7538 6.18984 12.5256 6.2385C12.2974 6.28719 12.1527 6.5091 12.2019 6.73462C12.2512 6.96018 12.4756 7.10328 12.7038 7.05459L12.7038 7.0546Z" fill="#28382D"/>
<path fill-rule="evenodd" clip-rule="evenodd" d="M73.7393 12.7474C73.1984 12.632 72.8561 12.1073 72.9729 11.5726C73.0897 11.038 73.6205 10.6997 74.1614 10.815C74.7023 10.9305 75.0493 11.4561 74.9326 11.9908C74.8158 12.5254 74.2802 12.8628 73.7394 12.7474L73.7393 12.7474ZM72.309 10.7242C71.9033 10.6376 71.6448 10.2412 71.7323 9.84025C71.8199 9.43928 72.2209 9.18366 72.6265 9.27022C73.0322 9.35678 73.2861 9.75215 73.1985 10.1531C73.1109 10.5541 72.7146 10.8107 72.309 10.7242L72.309 10.7242ZM71.7948 8.69022C71.4905 8.6253 71.2975 8.32944 71.3632 8.02873C71.4288 7.72799 71.7282 7.53722 72.0324 7.60211C72.3366 7.66703 72.5296 7.96289 72.464 8.2636C72.3983 8.56433 72.099 8.75511 71.7948 8.69022H71.7948ZM72.296 7.0546C72.0678 7.00591 71.923 6.78404 71.9723 6.55847C72.0215 6.33293 72.2461 6.18984 72.4742 6.2385C72.7024 6.28719 72.8472 6.5091 72.7979 6.73462C72.7487 6.96018 72.5242 7.10328 72.296 7.05459V7.0546Z" fill="#28382D"/>
</g>
<defs>
<clipPath id="clip0_42_8040">
<rect width="85" height="18" fill="white"/>
</clipPath>
</defs>
</svg>
