<svg width="82" height="27" viewBox="0 0 82 27" fill="none" xmlns="http://www.w3.org/2000/svg">
<path d="M36.8011 25.2941C36.9916 25.3665 37.0558 25.6892 36.8916 25.8314C36.815 25.8869 36.7157 25.9716 36.6255 25.902C36.2275 25.7337 36.4892 25.1471 36.8011 25.2941Z" fill="#28382D"/>
<path d="M37.3093 25.2137C37.5025 25.1834 37.6813 25.4013 37.647 25.6156C37.6212 25.8233 37.403 25.9539 37.2338 25.8734C36.9318 25.748 37.0151 25.2507 37.3093 25.2137Z" fill="#28382D"/>
<path d="M44.9975 25.1766C45.1758 25.1982 45.2998 25.4185 45.2545 25.6115C45.2138 25.804 45.0071 25.9123 44.8479 25.8354C44.5036 25.6891 44.6664 25.1261 44.9975 25.1766Z" fill="#28382D"/>
<path d="M45.4513 25.2821C45.6173 25.1452 45.8645 25.2989 45.8808 25.5207C45.9148 25.754 45.6682 25.9407 45.485 25.8377C45.2799 25.7515 45.2687 25.4043 45.4513 25.2821Z" fill="#28382D"/>
<path d="M35.8972 25.3113C36.0385 25.1456 36.308 25.266 36.3216 25.4911C36.3591 25.6949 36.1601 25.8723 35.9911 25.8024C35.8009 25.7501 35.7442 25.4479 35.8972 25.3113Z" fill="#28382D"/>
<path d="M46.1176 25.2183C46.2828 25.1039 46.5085 25.2801 46.4992 25.4902C46.4973 25.6896 46.2871 25.8267 46.1304 25.7412C45.935 25.658 45.9356 25.3188 46.1176 25.2183Z" fill="#28382D"/>
<path d="M37.8157 25.1603C37.982 25.0138 38.2473 25.1693 38.2577 25.4004C38.2801 25.621 38.056 25.8014 37.8764 25.718C37.6657 25.6453 37.6359 25.2927 37.8157 25.1603Z" fill="#28382D"/>
<path d="M44.3057 25.0746C44.479 25.047 44.632 25.2415 44.6085 25.4312C44.5865 25.7409 44.1861 25.807 44.0715 25.5201C43.9872 25.3319 44.124 25.089 44.3057 25.0746Z" fill="#28382D"/>
<path d="M35.5459 25.0819C35.6768 25.144 35.7266 25.3475 35.6481 25.4789C35.516 25.7086 35.1948 25.5631 35.2138 25.3114C35.2237 25.1398 35.4044 25.0071 35.5459 25.0819Z" fill="#28382D"/>
<path d="M46.7307 25.0423C46.8792 24.9303 47.0995 25.0846 47.0912 25.2812C47.0894 25.4685 46.8842 25.5994 46.7405 25.5075C46.5801 25.4229 46.5819 25.1402 46.7307 25.0423Z" fill="#28382D"/>
<path d="M38.4634 24.9309C38.6244 24.8292 38.8474 24.9835 38.8434 25.1909C38.8503 25.4013 38.6228 25.5511 38.4618 25.4502C38.2806 25.3554 38.2857 25.0273 38.4634 24.9309Z" fill="#28382D"/>
<path d="M43.964 25.0751C44.0375 25.2852 43.8427 25.5196 43.6524 25.4455C43.4722 25.4014 43.3945 25.1213 43.5286 24.9745C43.6489 24.8073 43.9145 24.8641 43.964 25.0751Z" fill="#28382D"/>
<path d="M35.0803 24.8504C35.1737 25.0197 35.0212 25.2685 34.8464 25.2046C34.7136 25.1692 34.629 24.9753 34.7136 24.8444C34.7934 24.7 35.0098 24.6916 35.0803 24.8504Z" fill="#28382D"/>
<path d="M47.618 24.863C47.6502 25.029 47.4935 25.1904 47.3501 25.1451C47.1954 25.1049 47.1412 24.8551 47.2583 24.7357C47.3695 24.6054 47.589 24.6883 47.618 24.863Z" fill="#28382D"/>
<path d="M38.9992 24.6698C39.1216 24.5354 39.3483 24.6212 39.3876 24.804C39.4403 24.9994 39.2405 25.199 39.0744 25.1192C38.9116 25.0598 38.8709 24.7935 38.9992 24.6698Z" fill="#28382D"/>
<path d="M43.2156 24.596C43.3471 24.6374 43.4181 24.8238 43.3577 24.9613C43.261 25.2318 42.8854 25.1189 42.9072 24.8307C42.9151 24.6678 43.0783 24.5432 43.2156 24.596Z" fill="#28382D"/>
<path d="M34.6292 24.3823C34.6809 24.5363 34.5366 24.7242 34.394 24.6629C34.278 24.6221 34.2141 24.4468 34.2897 24.3331C34.3706 24.1974 34.5845 24.2229 34.6292 24.3823Z" fill="#28382D"/>
<path d="M39.5686 24.2555C39.6952 24.1564 39.8919 24.2672 39.8985 24.4407C39.9145 24.6199 39.7208 24.764 39.5824 24.6712C39.4443 24.5929 39.4337 24.3441 39.5686 24.2555Z" fill="#28382D"/>
<path d="M42.8127 24.3578C42.8851 24.5412 42.6956 24.7589 42.5335 24.6649C42.4 24.6093 42.3518 24.3918 42.459 24.2798C42.5586 24.1543 42.7659 24.1939 42.8127 24.3578Z" fill="#28382D"/>
<path d="M48.0319 24.3208C48.0894 24.4952 47.8919 24.6867 47.7519 24.5763C47.6638 24.5123 47.6271 24.3662 47.6907 24.2668C47.7721 24.129 47.9893 24.1593 48.0319 24.3208Z" fill="#28382D"/>
<path d="M36.4533 9.1574C37.4246 9.09031 38.3913 9.53888 38.6553 10.6345C38.952 11.906 38.8216 13.2849 38.3439 14.479C38.3439 14.479 39.6866 13.1031 39.6866 13.103C40.1286 12.6239 40.6919 11.8764 40.5326 11.197C40.4043 11.4633 40.2543 11.7256 40.0422 11.9189C39.7095 12.2389 39.2481 12.4424 38.8114 12.3115C38.9811 11.8885 39.5822 11.199 39.7662 10.3899C39.9589 9.59446 39.4714 8.64986 38.7345 8.51782C39.6505 8.0414 41.1682 9.41652 40.5496 11.14C40.9356 12.2062 39.797 13.4499 39.3191 14.0729C38.4992 15.1102 36.4456 17.7779 35.8582 19.0802C35.4366 20.0342 35.2647 21.0346 35.64 22.0292C36.0698 23.1629 37.0511 23.4255 38.1108 23.1659C39.6749 22.7803 40.4765 21.3982 40.5937 21.2899C40.0222 23.5823 37.7705 24.6442 36.2305 24.0346C34.8319 23.5076 34.1899 21.5651 34.6296 19.8207C34.8713 18.8722 35.3651 18.0356 35.9277 17.2912C35.7877 17.3537 35.6531 17.4314 35.5112 17.489C32.5234 18.7779 29.6106 16.7667 29.5208 14.3274C29.4553 13.027 30.0747 11.8774 30.9492 11.4759C32.0021 10.9905 34.4544 11.1714 34.5575 12.9839C34.6284 12.903 34.7591 12.5228 35.2467 12.1789C36.3395 11.4327 37.0323 12.1823 37.1174 12.7687C37.1866 13.2265 36.9117 13.7214 36.5102 13.8355C36.0644 13.9664 35.5626 13.4663 35.6642 12.9482C35.6131 13.4042 35.9992 13.8406 36.4018 13.7941C36.8042 13.7382 37.0924 13.2502 37.0256 12.8083C36.9532 12.3479 36.5442 12.0075 36.1371 12.0177C35.4062 12.035 34.5178 12.8708 34.574 13.8469C34.5998 14.326 34.8452 14.8086 35.2419 15.0094C35.9117 15.3391 37.5521 14.8735 38.3236 13.5161C38.4395 13.3375 38.7001 12.1166 38.4617 10.8195C38.2921 9.69426 37.2096 9.21374 36.2816 9.35375C35.9394 9.74845 35.5487 10.088 35.1246 10.3623C34.9919 11.5345 37.2628 12.2435 37.1653 10.7555C37.319 11.524 36.4969 11.9382 35.6448 11.4294C35.3146 11.2283 35.0176 10.8636 35.0155 10.4181C33.8589 11.0856 32.6168 10.8393 31.5144 10.0867C29.9391 9.0303 29.0051 7.4916 27.1373 6.40888C26.2046 5.85747 25.1705 5.48708 24.1125 5.45705C22.9188 5.82916 22.6222 7.44982 23.335 8.26717C23.9535 8.97171 24.9641 8.75477 25.2421 8.04265C25.431 7.56849 25.3409 6.74753 24.3486 6.63761C23.6726 6.57427 23.3677 7.06427 23.4332 7.46815C23.5074 7.88459 24.0384 8.03111 24.4026 7.69478C24.5976 7.51437 24.7161 7.25715 24.819 7.00289C24.58 7.85527 24.033 8.08348 23.6323 7.86947C23.208 7.63691 23.2788 6.98109 23.6496 6.69255C24.0634 6.36255 24.8395 6.46461 25.2113 6.87146C25.6754 7.38229 25.5756 8.49011 24.6924 8.82762C24.0091 9.10193 23.1213 8.70626 22.8542 7.77914C22.6383 7.04268 22.8051 5.97275 23.7685 5.4538C21.8231 5.53523 19.8766 6.95878 19.4624 9.13228C19.2016 10.496 19.8507 12.1844 21.0146 12.9837C22.0038 13.6677 23.214 13.474 23.8635 12.6943C24.9697 11.3929 23.7784 8.62569 22.3792 8.62441C21.6753 8.60382 21.1054 9.17481 21.1157 9.79203C21.1384 10.3395 21.5665 10.8519 22.0652 10.8375C22.0151 10.7696 21.9547 10.7084 21.9263 10.6241C22.1506 10.6313 22.3323 10.3951 22.3392 10.1528C22.3315 10.0529 22.3158 9.95081 22.3411 9.85204C22.3983 9.60351 22.5053 9.36548 22.657 9.1731C23.2363 9.14861 23.5187 10.0698 23.033 10.6484C22.8107 10.9098 22.4406 11.0278 22.142 10.8705C22.0388 10.8312 21.9252 10.8843 21.8203 10.8438C21.2664 10.694 20.7692 9.92475 21.1588 9.1638C21.6316 8.26124 23.0131 7.9678 23.9971 9.40122C24.7501 10.5044 24.9531 12.0651 24.1413 13.0659C23.5376 13.8127 22.458 14.2059 21.3401 13.8253C19.4617 13.1949 17.835 10.2056 19.2544 7.43695C19.3805 7.17912 19.541 6.9462 19.6961 6.71025C17.0032 8.4212 15.146 10.1475 13.179 10.4476C13.3044 10.4512 13.4313 10.4794 13.5258 10.5793C13.2381 10.8017 12.9853 11.0926 12.8281 11.4465C13.0053 11.2315 13.0435 11.0492 13.5838 10.6994C13.7091 11.0094 13.6053 11.43 13.3345 11.596C13.0867 11.7499 12.8186 11.856 12.5833 12.4115C12.4555 11.9587 12.422 11.1303 12.6857 10.7678C12.7802 10.619 12.9223 10.5262 13.0721 10.4647C10.4258 10.7669 9.10079 8.51885 9.53962 6.84865C7.20125 5.38874 4.52738 5.54266 3.63885 6.15198C3.02468 6.57331 3.01435 7.19027 3.39057 7.62218C3.59068 7.85059 3.84534 8.028 4.12287 8.10513C4.40972 8.18499 4.67344 7.90464 4.73358 7.60477C4.8257 7.2495 4.60201 6.64398 3.77404 6.71779C4.12661 6.60762 4.55397 6.74842 4.74502 7.11549C5.01492 7.61979 4.62324 8.49165 3.91185 8.20297C3.29721 7.95239 2.78961 7.38598 2.94777 6.70367C3.28187 5.04048 7.09205 4.78147 9.74585 6.31376C10.8762 4.2573 13.0066 5.44486 12.7028 6.82946C12.5623 7.53443 11.7761 7.98936 10.9904 7.72545C10.7001 7.63601 10.4412 7.45861 10.1793 7.29772C10.0824 8.54841 11.2361 10.0397 13.3936 9.53273C13.3119 9.4838 13.2161 9.47211 13.1381 9.41356C12.7017 9.13049 12.5149 8.46534 12.7081 7.94485C12.938 7.28292 13.6874 6.79007 14.2906 7.12421C14.6755 7.3399 14.6915 7.84709 14.3803 8.08862C13.9837 8.40111 13.4151 8.24729 13.3183 7.90071C13.285 7.76084 13.3499 7.61496 13.4622 7.55012C13.4585 7.55823 13.4516 7.57414 13.4479 7.58225C13.2396 7.71866 13.3139 8.16333 13.8375 8.17806C14.3525 8.17062 14.6196 7.71548 14.3984 7.42104C14.2386 7.19899 13.8114 7.07538 13.3614 7.39402C12.5608 7.97238 12.7475 9.0392 13.3345 9.32916C14.5041 9.86148 18.099 6.31197 21.4908 5.1224C21.6636 5.05056 22.5479 4.48911 23.9232 4.45815C25.8659 4.4055 27.7888 5.37655 29.2848 6.71568C31.3237 8.5107 33.1114 11.2635 35.5789 8.7715C38.498 5.77572 37.1798 2.56379 35.5534 2.12262C34.6367 1.87259 33.531 2.4295 33.1819 3.46554C33.3008 3.31427 33.4267 3.15788 33.6037 3.09393C33.5057 3.4166 33.5558 3.79361 33.746 4.06073C33.8421 4.19821 33.9873 4.27056 34.114 4.36478C34.3216 4.51606 34.5262 4.67577 34.7527 4.78983C34.7314 5.10921 34.4592 5.32533 34.1971 5.37155C33.4424 5.52236 32.7502 4.58898 33.0898 3.68073C33.1306 3.55923 33.1272 2.89733 33.7628 2.28169C36.2621 -0.143055 40.2061 4.53046 36.4533 9.1574ZM34.995 15.1048C34.6347 14.8331 34.4088 14.355 34.392 13.8687C34.2933 13.9824 34.2071 14.1142 34.0772 14.1869C34.0634 14.168 34.0501 14.1491 34.0371 14.1301C33.7895 14.5525 32.8412 14.9962 32.1773 14.3805C31.5066 13.7333 31.7764 12.4445 32.8037 13.3743C32.9562 13.5034 33.0368 13.7099 33.1877 13.8414C33.4474 14.0908 33.8231 14.1619 34.1427 14.0305C34.1262 14.0436 34.0935 14.0698 34.0772 14.083C34.0911 14.1007 34.1055 14.1178 34.1206 14.1349C34.4286 13.7979 34.3794 13.6988 34.4035 13.5301C34.4184 13.3839 34.4905 13.2455 34.4618 13.0949C34.3162 11.239 31.733 11.3471 30.8963 11.8924C29.5996 12.7504 29.2295 15.6244 31.688 16.9711C33.2804 17.8549 35.4008 17.5382 36.8516 16.1478C36.9887 16.0034 37.1119 15.8428 37.2457 15.6949C37.5491 15.3746 37.7745 14.9739 37.9722 14.5651C38.0938 14.3051 38.1965 14.0344 38.2856 13.7582C37.5064 15.0847 35.7745 15.6874 34.995 15.1048ZM11.9899 6.89508C12.3546 6.49367 11.7819 5.83199 11.2011 5.9745C10.8416 6.05525 10.5436 6.34761 10.3632 6.69877C10.7472 6.94127 11.4832 7.45067 11.9899 6.89508Z" fill="#28382D"/>
<path d="M40.3403 23.9321C40.3669 24.0876 40.2088 24.2328 40.0808 24.165C39.9648 24.1146 39.9201 23.9285 40.0077 23.8243C40.1021 23.6884 40.3264 23.7577 40.3403 23.9321Z" fill="#28382D"/>
<path d="M42.026 23.7862C42.1338 23.6817 42.3219 23.7688 42.3309 23.929C42.3511 24.0785 42.2077 24.2148 42.0811 24.1584C41.943 24.1112 41.902 23.8789 42.026 23.7862Z" fill="#28382D"/>
<path d="M77.8859 7.89773C77.4715 7.8242 77.2153 7.25177 77.3885 6.82644C77.5937 6.30892 78.2145 6.23889 78.4204 6.38759C77.7414 6.1506 77.0876 6.94701 77.5798 7.56001C77.8636 7.9225 78.2549 7.72182 78.6096 7.42524C79.3965 6.74902 79.0664 5.68838 77.5939 5.44628C75.8882 5.19295 74.1104 5.58225 72.6179 6.54906C73.024 7.93454 72.0913 9.95176 69.9835 10.1933C69.6913 10.2296 69.3986 10.2107 69.1064 10.1945C69.7815 10.3921 69.7798 11.3662 69.6309 12.1318C69.5595 12.0414 69.4643 11.7066 69.1086 11.4733C68.9838 11.3838 68.8342 11.3355 68.7307 11.2118C68.5567 11.0107 68.5173 10.6947 68.5979 10.4347C69.0817 10.6873 69.2674 11.0623 69.3744 11.1752C69.2071 10.8306 68.9654 10.5289 68.669 10.3206C68.7421 10.2132 68.8646 10.1864 68.9769 10.1663C67.1547 9.95919 64.863 7.98459 62.4593 6.50198C64.5503 9.28264 63.0568 12.7625 60.9755 13.5954C59.9408 14.0034 58.8785 13.7386 58.2068 13.0548C56.8164 11.6531 57.796 8.90928 59.2339 8.32728C60.0422 7.98738 61.0191 8.49968 61.1543 9.37333C61.2608 10.0424 60.6681 10.7718 60.0897 10.6673C59.8518 10.8105 59.5543 10.7793 59.3281 10.6229C58.6997 10.2073 58.7793 9.03403 59.5202 8.98431C59.6746 9.19231 59.7973 9.43663 59.8499 9.70261C59.8808 9.8338 59.8199 9.97185 59.8691 10.0994C59.9239 10.2951 60.0857 10.4431 60.2709 10.4428C60.2294 10.5199 60.178 10.589 60.1203 10.6502C60.6075 10.6691 61.0255 10.1754 61.0662 9.64438C61.1195 8.80819 60.12 8.14894 59.2962 8.56802C58.358 9.02249 57.7407 10.493 57.9361 11.6282C58.073 12.51 58.7914 13.0902 59.5796 13.1992C61.9242 13.5368 64.0519 9.73296 61.8387 7.03541C61.0584 6.06381 59.8987 5.37994 58.3829 5.28067C58.472 5.34791 58.5745 5.38902 58.6615 5.46108C59.4475 6.04044 59.5928 7.25603 59.1338 8.02744C58.5858 8.95704 57.3317 8.97923 56.8494 8.1301C56.5634 7.62302 56.625 6.82808 57.2206 6.50262C57.6192 6.28429 58.2393 6.23589 58.5883 6.59206C58.9599 6.96799 58.8902 7.64912 58.3885 7.75728C57.8935 7.87971 57.4938 7.40501 57.3504 6.85439C57.4433 7.09092 57.5575 7.32383 57.7304 7.49852C58.0725 7.85354 58.6097 7.74738 58.7219 7.34725C58.8235 6.95026 58.5207 6.35281 57.7142 6.4885C56.6649 6.68539 56.7207 7.71049 57.0793 8.14419C57.6083 8.79257 58.631 8.60434 59.0253 7.8134C59.4586 6.95001 59.1372 5.6882 58.0896 5.30526C57.9393 5.27216 56.4405 5.29522 54.6149 6.53233C53.008 7.59704 52.0122 9.15721 50.463 10.1324C49.4193 10.7896 48.2504 10.97 47.1742 10.3588C47.1551 11.4795 45.4698 12.058 45.0742 11.1812C44.9976 11.0362 44.9938 10.8582 45.0351 10.6991C44.9616 11.0089 45.1306 11.3333 45.3794 11.4648C45.9675 11.7765 47.0943 11.2288 47.0718 10.3068C46.6661 10.0336 46.5479 9.98225 45.8901 9.30727C45.1094 9.19893 44.0014 9.55055 43.7583 10.6511C43.4971 11.9509 43.7478 13.1577 43.8552 13.4261C44.6137 14.8198 46.3085 15.299 46.9891 14.9497C47.6671 14.5937 47.9928 13.329 47.0873 12.4538C46.1828 11.6008 45.3438 12.012 45.1929 12.7116C45.0976 13.1529 45.3728 13.6595 45.773 13.7421C46.0729 13.8018 46.3722 13.5764 46.4944 13.2736C46.5511 13.1538 46.5383 13.0145 46.5412 12.8837C46.6538 13.4005 46.1695 13.9072 45.7214 13.7952C45.3113 13.695 45.0258 13.1973 45.0904 12.7336C45.1622 12.1842 45.7366 11.5589 46.6147 11.9333C47.0439 12.1185 47.4254 12.4667 47.6429 12.9281C47.6751 12.6606 47.7363 12.3923 47.8693 12.1641C48.1205 11.7241 48.5492 11.4524 48.9877 11.315C49.677 11.1035 51.0748 10.9771 51.8736 11.8241C52.8036 12.7917 53.1772 14.8278 51.7908 16.4063C50.523 17.8479 48.3001 18.2886 46.3142 17.2372C46.8254 17.911 47.2898 18.6509 47.5545 19.4935C48.3377 21.8595 47.0695 24.6209 44.5186 24.1052C43.1667 23.8305 42.0004 22.688 41.6873 21.2906C41.7927 21.3944 42.8874 23.1714 44.8121 23.2218C45.8492 23.2364 46.4978 22.6612 46.7368 21.6559C47.2623 19.4542 45.7057 17.6239 42.3578 13.375C41.8989 12.7646 41.3686 11.8766 41.6465 11.1374C41.0382 9.45654 42.4341 8.07009 43.4371 8.48484C43.3719 8.53077 43.2916 8.53228 43.2219 8.56498C42.7604 8.7604 42.4513 9.28446 42.3871 9.82415C42.2788 10.6679 42.9961 11.564 43.3959 12.265C43.3674 11.7188 43.4159 11.1674 43.5306 10.6358C43.7745 9.5335 44.7323 9.05326 45.728 9.11335C42.6356 5.38994 44.6798 1.58482 46.8092 1.57782C47.895 1.56888 48.8843 2.42094 49.0172 3.46284C49.0321 3.60751 49.1075 3.7339 49.1213 3.87946C49.1923 4.29428 49.055 4.73791 48.7769 5.01887C48.1927 5.62043 47.3757 5.20525 47.4026 4.7313C47.5899 4.61634 47.7743 4.49506 47.9491 4.35669C48.1085 4.22762 48.3036 4.14147 48.4188 3.95388C48.5883 3.68704 48.6234 3.32894 48.5306 3.02007C48.7104 3.08791 48.8419 3.24519 48.9617 3.40369C48.8701 3.15515 48.7437 2.92102 48.5764 2.72803C47.9443 2.00197 46.8764 1.75565 46.0756 2.30269C45.1839 2.89632 44.6856 4.24996 44.8736 5.49639C45.0744 6.92878 46.0266 8.28935 46.996 9.07671C49.3535 10.9784 51.1863 8.02923 53.111 6.39449C55.2734 4.52838 58.128 3.58095 60.6227 4.9171C63.5604 5.91844 66.2121 8.35816 68.2331 9.09412C68.4199 9.17365 68.6307 9.14817 68.8153 9.0731C69.2012 8.90142 69.4154 8.38515 69.3318 7.93608C69.1806 7.13338 68.2926 6.67795 67.8273 7.09203C67.624 7.27054 67.6242 7.66148 68.0178 7.84332C68.4176 8.0298 68.8546 7.81126 68.8268 7.51193C68.8321 7.41888 68.7607 7.35976 68.7123 7.29703C68.8931 7.38507 68.9532 7.70774 68.6274 7.90216C68.0661 8.20853 67.3488 7.6933 67.6237 7.13106C67.8007 6.75799 68.3006 6.67599 68.6535 6.81979C69.6373 7.21703 69.8329 8.54136 69.0894 9.10792C68.9981 9.18716 68.8842 9.21119 68.782 9.26248C71.0236 9.75902 72.0998 8.16535 71.9832 6.99205C71.6242 7.2373 71.24 7.47861 70.8118 7.50653C70.3784 7.54284 69.914 7.36426 69.6399 6.97196C69.1342 6.26477 69.5746 5.22126 70.4638 4.96357C71.0656 4.78517 71.8698 5.06391 72.4111 6.00305C75.0209 4.48902 78.7213 4.65309 79.1924 6.25337C79.49 7.23587 78.367 7.96875 77.8859 7.89773ZM48.2722 17.384C49.9117 17.5005 51.4196 16.6383 52.0567 15.2964C52.7239 13.9329 52.1626 12.0409 50.9598 11.6233C50.3836 11.4141 49.0367 11.3017 48.2725 11.9487C47.9399 12.2272 47.7419 12.6901 47.7454 13.1559C47.7651 13.2859 47.8124 13.4101 47.8188 13.5437C47.8234 13.7652 47.9724 13.9349 48.1081 14.0759C48.1222 14.0591 48.1365 14.0417 48.1517 14.024C48.1334 14.012 48.0966 13.9883 48.0783 13.9762C48.1365 13.9745 48.1919 13.9979 48.2488 14.0111C48.5485 14.0684 48.8673 13.9507 49.0825 13.7091C49.2433 13.5374 49.3211 13.2421 49.8417 13.0067C50.2453 12.8308 50.4197 13.1731 50.4026 13.5137C50.3417 14.4767 49.2225 14.9869 48.3747 14.2734C48.3082 14.2133 48.2307 14.1608 48.1919 14.072C48.1775 14.09 48.1642 14.108 48.1514 14.1257C48.0189 14.0482 47.9157 13.9249 47.8273 13.7916C47.8057 14.4591 47.3801 15.3797 46.3036 15.2675C45.3749 15.1663 44.4697 14.6246 43.9401 13.7463C44.5262 15.6699 46.1493 17.2431 48.2722 17.384ZM43.3954 12.2872C42.8425 12.4678 42.0583 12.0959 41.6669 11.1871C41.4921 11.8788 42.1184 12.6657 42.5817 13.1505C43.0179 13.58 43.4508 14.0143 43.8781 14.4547C43.5985 13.7749 43.4364 13.035 43.3954 12.2872ZM70.5647 5.70382C70.0737 5.87969 69.9006 6.3828 70.214 6.65504C70.7235 7.11108 71.3537 6.68467 71.7975 6.39932C71.4695 5.78007 70.9276 5.57156 70.5647 5.70382Z" fill="#28382D"/>
<path d="M34.0757 23.6498C34.172 23.5681 34.3303 23.6467 34.3439 23.7812C34.3593 23.9193 34.2119 24.0508 34.1004 23.9766C33.9932 23.9178 33.9756 23.726 34.0757 23.6498Z" fill="#28382D"/>
<path d="M47.971 23.6441C48.0309 23.5256 48.2062 23.5142 48.264 23.6417C48.3401 23.7795 48.2073 23.9815 48.0681 23.9182C47.9745 23.8825 47.9109 23.7432 47.971 23.6441Z" fill="#28382D"/>
<path d="M40.709 23.3317C40.7622 23.464 40.6372 23.6258 40.5137 23.5862C40.4041 23.558 40.3423 23.3953 40.4139 23.2914C40.4834 23.1714 40.6665 23.1963 40.709 23.3317Z" fill="#28382D"/>
<path d="M41.6477 23.2366C41.7485 23.1529 41.9093 23.248 41.9058 23.3891C41.914 23.5281 41.7615 23.6391 41.6559 23.559C41.5489 23.4968 41.5394 23.3035 41.6477 23.2366Z" fill="#28382D"/>
<path d="M34.0671 22.9439C34.1584 22.8776 34.2867 22.9727 34.2881 23.0895C34.2865 23.2044 34.16 23.2921 34.0703 23.233C33.9703 23.1799 33.9719 23.0022 34.0671 22.9439Z" fill="#28382D"/>
<path d="M48.0945 23.1698C48.012 23.1371 47.9692 23.0128 48.0261 22.932C48.083 22.8237 48.2408 22.8336 48.2805 22.9548C48.3366 23.0821 48.2094 23.2313 48.0945 23.1698Z" fill="#28382D"/>
<path d="M41.0151 22.7307C41.0545 22.8613 40.9119 22.9943 40.8062 22.921C40.7267 22.8736 40.6993 22.7406 40.7671 22.6671C40.8366 22.574 40.988 22.6119 41.0151 22.7307Z" fill="#28382D"/>
<path d="M41.5406 22.7005C41.6034 22.8212 41.4781 22.9824 41.3634 22.9289C41.2772 22.8965 41.2312 22.765 41.2905 22.681C41.3472 22.5807 41.4962 22.5928 41.5406 22.7005Z" fill="#28382D"/>
<path d="M34.3113 22.5395C34.2229 22.5035 34.2189 22.3567 34.2964 22.3036C34.3661 22.2346 34.4763 22.3045 34.4859 22.4002C34.505 22.5041 34.3908 22.592 34.3113 22.5395Z" fill="#28382D"/>
<path d="M48.035 22.3971C48.0107 22.4763 47.9202 22.5093 47.8572 22.4706C47.7728 22.4253 47.7786 22.2812 47.8558 22.2311C47.9447 22.1588 48.0762 22.2857 48.035 22.3971Z" fill="#28382D"/>
<path d="M41.0297 22.0025C41.1127 21.929 41.2888 21.9578 41.2926 22.101C41.2952 22.2303 41.1598 22.2685 41.0701 22.2352C40.9847 22.207 40.957 22.0641 41.0297 22.0025Z" fill="#28382D"/>
<path d="M39.5734 21.4613C40.3132 21.2763 40.5651 20.9952 40.7927 20.6017C40.6493 21.3102 39.3733 21.937 38.6968 21.5871C38.0976 21.2983 37.8691 20.3405 37.8871 19.6072C37.9534 17.7264 39.2331 16.6622 39.9638 15.5523C40.2802 15.0892 40.5516 14.59 40.8201 14.0906C40.7505 14.2872 40.3706 15.0509 39.9765 15.682C39.3016 16.7763 38.1437 17.8272 38.079 19.5781C38.0659 20.0224 38.1354 20.4771 38.3147 20.8754C38.5859 21.4579 39.0029 21.5993 39.5734 21.4613Z" fill="#28382D"/>
<path d="M44.1322 18.3655C44.5677 19.5926 44.3571 20.6895 43.9478 21.2443C43.5206 21.8326 42.8628 21.7285 42.2354 21.4334C41.9041 21.2731 41.5933 20.9889 41.472 20.596C41.6414 20.8669 41.8322 21.2406 42.7061 21.4469C43.2818 21.5779 43.6991 21.424 43.96 20.8385C44.3887 19.8532 44.1608 18.6522 43.6487 17.7069C43.073 16.6354 42.178 15.8927 41.4124 14.1161C41.7112 14.6567 42.0135 15.197 42.3709 15.6919C42.954 16.5237 43.7297 17.232 44.1322 18.3655Z" fill="#28382D"/>
<path d="M33.2904 19.1903C32.3839 20.0683 31.7805 20.958 31.0496 21.3448C30.2631 21.7636 29.6758 21.6182 29.9867 20.9579C30.5831 19.7671 32.0992 19.6927 33.2904 19.1903Z" fill="#28382D"/>
<path d="M51.9989 20.4483C52.7585 21.2794 52.2859 21.8292 51.1785 21.2212C50.4923 20.844 50.011 20.1335 48.9653 19.1102C50.117 19.5929 51.2052 19.587 51.9989 20.4483Z" fill="#28382D"/>
<path d="M33.9906 19.0765C34.2198 18.9291 34.4739 18.846 34.7227 18.7526C34.0211 19.6587 34.543 20.3244 33.9619 20.9951C33.4881 21.5419 32.9801 20.7293 33.2378 19.9671C33.3792 19.5768 33.6697 19.2788 33.9906 19.0765Z" fill="#28382D"/>
<path d="M47.5406 18.6983C47.7846 18.7773 48.0297 18.8625 48.254 18.9994C49.7333 19.9027 48.9454 21.6369 48.319 20.9357C47.7275 20.2811 48.2277 19.5703 47.5406 18.6983Z" fill="#28382D"/>
<path d="M40.9323 14.2011C41.1299 15.3279 40.9031 16.586 40.2354 17.3582C39.8927 17.7725 39.5948 17.934 39.5113 18.6525C39.432 19.4343 39.7438 19.9715 40.023 20.0149C40.3856 20.0117 40.7004 19.4568 40.8027 19.3087C40.9384 19.7817 40.7828 20.3349 40.4344 20.6372C39.973 21.0454 39.3325 20.8363 38.9509 20.3103C38.3447 19.4796 38.4523 18.1201 39.0549 17.3729C39.4706 16.8454 39.9101 16.8291 40.3796 15.9873C40.8702 15.1031 40.8936 14.302 40.9323 14.2011Z" fill="#28382D"/>
<path d="M42.0305 17.3743C41.3095 16.5808 41.0897 15.2205 41.2953 14.1989C41.3475 14.6608 41.4592 15.1159 41.6367 15.537C42.082 16.5949 42.5391 16.7384 42.94 17.0964C43.7183 17.7707 43.8778 19.0058 43.5451 19.8606C43.1905 20.7777 42.3599 21.0769 41.8453 20.6392C41.4877 20.3438 41.3222 19.7858 41.4568 19.3079C41.5609 19.4527 41.8423 19.9557 42.2067 20.0043C42.4541 20.0168 42.7771 19.5365 42.7569 18.8571C42.7337 18.0013 42.381 17.7825 42.0305 17.3743Z" fill="#28382D"/>
<path d="M31.8522 17.6014C32.4323 17.6582 32.6159 17.921 33.0225 18.0903C33.3333 18.2293 33.6836 18.2833 34.0098 18.181C33.8091 18.3998 33.575 18.5796 33.3243 18.7171C31.5765 19.6418 30.5879 17.5416 31.8522 17.6014Z" fill="#28382D"/>
<path d="M48.24 18.1116C49.0211 18.342 49.5943 17.7359 50.0061 17.5971C50.842 17.3144 51.1217 17.7401 50.8829 18.2296C50.4596 19.0744 49.1975 19.1224 48.24 18.1116Z" fill="#28382D"/>
<path d="M30.59 17.82C30.5442 17.7987 30.5107 17.7315 30.542 17.6804C30.571 17.6141 30.6594 17.6054 30.694 17.6714C30.7513 17.7453 30.6645 17.8611 30.59 17.82Z" fill="#28382D"/>
<path d="M30.9799 17.8331C30.8757 17.7917 30.9712 17.608 31.0531 17.6879C31.1321 17.7404 31.0592 17.8757 30.9799 17.8331Z" fill="#28382D"/>
<path d="M30.1878 17.7294C30.1159 17.6871 30.1231 17.5616 30.1973 17.5271C30.2777 17.4755 30.3812 17.5943 30.3338 17.6838C30.3088 17.7444 30.2362 17.7654 30.1878 17.7294Z" fill="#28382D"/>
<path d="M51.2102 17.7356C51.1066 17.7047 51.1803 17.5255 51.2698 17.5799C51.3549 17.6234 51.2942 17.7735 51.2102 17.7356Z" fill="#28382D"/>
<path d="M51.5798 17.7098C51.472 17.6552 51.5769 17.4595 51.6708 17.5378C51.7738 17.5978 51.6727 17.7813 51.5798 17.7098Z" fill="#28382D"/>
<path d="M51.9507 17.6262C51.8837 17.586 51.8855 17.4662 51.9526 17.4269C52.0189 17.3686 52.1163 17.4512 52.1091 17.5373C52.0987 17.6148 52.0122 17.6733 51.9507 17.6262Z" fill="#28382D"/>
<path d="M29.8154 17.3663C29.8784 17.3123 29.9729 17.3645 29.9899 17.4471C30.02 17.5533 29.8936 17.6587 29.8146 17.5867C29.7406 17.541 29.7411 17.4113 29.8154 17.3663Z" fill="#28382D"/>
<path d="M52.3294 17.4922C52.2474 17.464 52.2218 17.3316 52.2897 17.2704C52.3483 17.2001 52.4556 17.241 52.4803 17.3283C52.5133 17.4234 52.4119 17.53 52.3294 17.4922Z" fill="#28382D"/>
<path d="M29.6512 17.2028C29.706 17.3127 29.5953 17.4523 29.4923 17.4066C29.4189 17.3775 29.3715 17.2662 29.4226 17.1905C29.4705 17.0942 29.6129 17.0981 29.6512 17.2028Z" fill="#28382D"/>
<path d="M52.624 17.0417C52.6908 16.9661 52.814 17.0186 52.8361 17.1177C52.8673 17.2326 52.7379 17.3512 52.6461 17.2824C52.5665 17.238 52.5538 17.1041 52.624 17.0417Z" fill="#28382D"/>
<path d="M29.3516 16.9382C29.4069 17.0582 29.2893 17.2104 29.1768 17.1615C29.0845 17.1309 29.0379 16.9835 29.1098 16.9025C29.1734 16.8118 29.3109 16.8313 29.3516 16.9382Z" fill="#28382D"/>
<path d="M53.1608 16.8493C53.1911 16.9697 53.0701 17.0937 52.9671 17.0414C52.8727 17.0039 52.8452 16.8511 52.9174 16.774C52.9895 16.6867 53.1376 16.7326 53.1608 16.8493Z" fill="#28382D"/>
<path d="M29.0919 16.6402C29.1374 16.7759 29.003 16.9254 28.8838 16.8636C28.7855 16.8242 28.7467 16.6639 28.8233 16.5793C28.8992 16.4839 29.0583 16.5127 29.0919 16.6402Z" fill="#28382D"/>
<path d="M53.1882 16.4495C53.2718 16.3522 53.4389 16.4159 53.4535 16.5506C53.4746 16.6827 53.3415 16.8019 53.2326 16.7427C53.1326 16.6965 53.1041 16.5293 53.1882 16.4495Z" fill="#28382D"/>
<path d="M28.593 16.203C28.679 16.1186 28.8304 16.1577 28.8674 16.2822C28.9201 16.4257 28.7756 16.5959 28.6465 16.5305C28.5284 16.4876 28.4914 16.288 28.593 16.203Z" fill="#28382D"/>
<path d="M53.4066 16.0924C53.4984 15.9757 53.7041 16.054 53.6998 16.2158C53.7121 16.3476 53.5827 16.4595 53.4734 16.4115C53.3605 16.3692 53.3166 16.1858 53.4066 16.0924Z" fill="#28382D"/>
<path d="M28.4022 15.7994C28.4962 15.7163 28.6547 15.7583 28.693 15.8904C28.7574 16.056 28.568 16.247 28.431 16.1473C28.3174 16.0843 28.2961 15.8822 28.4022 15.7994Z" fill="#28382D"/>
<path d="M53.5697 15.7079C53.6578 15.5749 53.876 15.6299 53.8962 15.7983C53.9284 15.9471 53.7786 16.1023 53.6522 16.036C53.5383 15.9901 53.4835 15.8133 53.5697 15.7079Z" fill="#28382D"/>
<path d="M28.2795 15.3975C28.3695 15.3116 28.5249 15.369 28.5544 15.4972C28.6004 15.6527 28.4213 15.8084 28.3008 15.7169C28.2005 15.6533 28.1861 15.4761 28.2795 15.3975Z" fill="#28382D"/>
<path d="M53.7864 15.6054C53.6835 15.5688 53.6292 15.413 53.7005 15.3146C53.7721 15.1891 53.966 15.2125 54.0035 15.3599C54.0543 15.501 53.9134 15.673 53.7864 15.6054Z" fill="#28382D"/>
<path d="M28.22 14.9732C28.3121 14.8888 28.4686 14.9728 28.4718 15.1055C28.4851 15.2346 28.3432 15.3438 28.2429 15.2772C28.1397 15.2247 28.1269 15.0452 28.22 14.9732Z" fill="#28382D"/>
<path d="M53.8451 15.1514C53.7456 15.1058 53.7217 14.9404 53.8044 14.8629C53.8829 14.7729 54.0334 14.8152 54.0627 14.9383C54.1079 15.0761 53.9605 15.2303 53.8451 15.1514Z" fill="#28382D"/>
<path d="M21.3696 14.9298C22.7474 15.0726 25.0324 13.657 25.2738 11.7204C25.2775 11.7333 25.2818 11.7463 25.2864 11.7589C25.2195 13.6495 23.2594 14.9071 22.0636 15.1087C20.2626 15.4421 18.5419 13.6368 18.669 11.2969C18.7009 13.3684 19.9241 14.7832 21.3696 14.9298Z" fill="#28382D"/>
<path d="M59.4204 14.4759C60.5201 14.953 61.4682 14.7802 62.2624 14.1088C63.5256 13.0564 63.5015 11.3725 63.5354 11.084C63.5309 11.2935 63.5436 11.5037 63.5208 11.7117C63.3288 13.7403 61.921 14.9896 60.5127 14.9528C59.1214 14.9299 56.9315 13.4814 56.9155 11.5637C56.953 11.7012 56.9709 11.8443 57.0103 11.9812C57.3339 13.1674 58.404 14.0138 59.4204 14.4759Z" fill="#28382D"/>
<path d="M28.2167 14.5428C28.3005 14.4734 28.4299 14.5464 28.4405 14.6601C28.4581 14.7874 28.313 14.891 28.2191 14.8171C28.1326 14.7589 28.1278 14.6013 28.2167 14.5428Z" fill="#28382D"/>
<path d="M53.8701 14.7008C53.7668 14.6609 53.7514 14.4868 53.843 14.4223C53.9257 14.3448 54.0636 14.4163 54.0702 14.5357C54.0843 14.6543 53.9664 14.7548 53.8701 14.7008Z" fill="#28382D"/>
<path d="M28.462 14.2641C28.4516 14.3625 28.3444 14.4142 28.2699 14.3707C28.1847 14.3227 28.178 14.1728 28.2603 14.1173C28.3478 14.045 28.482 14.1455 28.462 14.2641Z" fill="#28382D"/>
<path d="M54.0103 14.0677C54.0483 14.1779 53.9424 14.3004 53.8442 14.2541C53.762 14.2277 53.7279 14.1038 53.7825 14.0293C53.8376 13.9351 53.9821 13.9579 54.0103 14.0677Z" fill="#28382D"/>
<path d="M28.3513 13.7072C28.4226 13.6384 28.5405 13.7126 28.5387 13.8143C28.5416 13.9152 28.4219 13.986 28.3521 13.9191C28.2877 13.8714 28.2877 13.7561 28.3513 13.7072Z" fill="#28382D"/>
<path d="M53.7162 13.5921C53.7782 13.5191 53.9014 13.5665 53.9097 13.6677C53.9297 13.7697 53.8158 13.8637 53.738 13.8022C53.6672 13.7646 53.6579 13.6479 53.7162 13.5921Z" fill="#28382D"/>
<path d="M28.5049 13.3049C28.5667 13.253 28.6596 13.313 28.6646 13.3955C28.6745 13.4823 28.5747 13.5543 28.5108 13.5027C28.4421 13.4658 28.4411 13.3484 28.5049 13.3049Z" fill="#28382D"/>
<path d="M53.6056 13.3833C53.533 13.35 53.5306 13.2308 53.5936 13.1846C53.654 13.1294 53.7524 13.1888 53.7532 13.2738C53.7639 13.3605 53.671 13.4242 53.6056 13.3833Z" fill="#28382D"/>
<path d="M27.7169 9.78411C28.6122 9.05484 29.749 9.10141 30.1578 9.82283C29.0958 10.1947 28.1027 10.8113 27.2539 11.6205C27.4258 11.5211 28.5482 10.616 30.2831 10.2887C30.2644 11.0936 29.6838 11.7332 29.0306 12.0311C28.3181 12.3591 27.274 12.108 25.7488 13.311C26.097 12.2838 26.937 10.4272 27.7169 9.78411Z" fill="#28382D"/>
<path d="M28.7858 12.9264C28.8899 12.9684 28.8295 13.1621 28.7243 13.1146C28.607 13.0816 28.6778 12.8673 28.7858 12.9264Z" fill="#28382D"/>
<path d="M51.9094 10.1807C52.9794 10.377 54.0089 10.8263 54.9267 11.475C54.8402 11.3721 53.7567 10.3211 52.0257 9.71095C52.4713 8.95491 53.5592 9.00642 54.3381 9.55639C55.195 10.138 56.0918 12.1002 56.4622 13.1577C54.9328 11.9931 53.9339 12.2199 53.2327 11.9391C52.457 11.6223 51.9016 10.8929 51.9094 10.1807Z" fill="#28382D"/>
<path d="M53.4187 12.9894C53.3676 12.963 53.3479 12.8811 53.3908 12.8343C53.4272 12.7778 53.5129 12.7913 53.5371 12.8556C53.5826 12.9351 53.4884 13.0339 53.4187 12.9894Z" fill="#28382D"/>
<path d="M28.9627 12.7517C28.8656 12.7133 28.9366 12.5455 29.0247 12.5959C29.1104 12.6413 29.0487 12.7983 28.9627 12.7517Z" fill="#28382D"/>
<path d="M15.0868 10.0179C15.0865 10.053 15.0601 10.0752 15.0437 10.1007C14.6835 10.561 14.4742 11.1974 14.4604 11.4157C14.6054 10.9235 14.8499 10.4639 15.1943 10.1166C15.2563 10.2364 15.2927 10.3739 15.2845 10.5135C15.237 11.4305 14.5031 11.5375 14.4151 12.7632C14.3252 12.5981 14.0899 11.9103 14.1078 11.1753C14.1109 10.4238 14.6917 9.84651 15.0868 10.0179Z" fill="#28382D"/>
<path d="M53.2569 12.4842C53.34 12.5376 53.2585 12.6841 53.1789 12.6289C53.0858 12.5809 53.1755 12.4142 53.2569 12.4842Z" fill="#28382D"/>
<path d="M67.7421 11.1715C67.6514 10.5182 67.1887 9.90466 67.0911 9.7635C67.466 9.62216 67.8401 10.0028 67.9946 10.4205C68.2073 10.9598 68.0302 11.9725 67.7903 12.5024C67.7073 11.3378 67.0658 11.255 66.9202 10.4046C66.8912 10.2212 66.8984 10.0174 66.999 9.86105C67.2174 10.1166 67.5038 10.4106 67.7421 11.1715Z" fill="#28382D"/>
<path d="M15.8986 9.54055C15.8408 9.90226 15.7913 10.2696 15.802 10.6379C15.8563 10.2813 15.906 9.91934 16.0204 9.57926C16.2674 9.6702 16.41 9.98897 16.3704 10.2708C16.3485 10.4626 16.2325 10.613 16.1479 10.7733C16.0093 11.0185 15.9169 11.2929 15.8523 11.5732C15.6857 11.2479 15.5449 10.9054 15.4233 10.556C15.2577 10.1015 15.4633 9.55381 15.8986 9.54055Z" fill="#28382D"/>
<path d="M66.1589 9.32344C66.272 9.66023 66.3341 10.015 66.3798 10.3701C66.4006 10.0102 66.3425 9.65 66.283 9.29702C66.6755 9.2843 66.951 9.81043 66.7598 10.3284C66.6401 10.6697 66.5084 11.0085 66.3437 11.3252C66.1538 10.4769 65.8022 10.3225 65.8123 9.94447C65.7986 9.67971 65.9485 9.4321 66.1589 9.32344Z" fill="#28382D"/>
<path d="M9.3928 9.31861C9.58065 9.31171 9.7789 9.31472 9.9479 9.42006C9.94736 9.42667 9.94577 9.44018 9.94498 9.44708C9.29383 9.82381 8.56178 10.024 7.83002 10.0216C8.06164 10.0716 9.05087 10.0581 10.0323 9.55153C10.0919 9.96916 9.45725 10.4498 8.7619 10.552C7.94052 10.6724 6.73805 10.1252 6.03943 9.61877C7.52428 10.0014 8.10838 9.39207 9.3928 9.31861Z" fill="#28382D"/>
<path d="M74.3117 9.7103C74.312 9.70669 74.3123 9.6995 74.3125 9.69557C73.5877 9.69646 72.8644 9.50287 72.218 9.13247C72.6009 8.83725 73.7537 9.14727 74.2452 9.28135C74.8647 9.44943 75.5225 9.45393 76.1396 9.26845C75.9113 9.47302 75.0354 10.0187 74.0847 10.2101C73.1068 10.4134 72.1157 9.80159 72.144 9.25072C72.2857 9.30441 73.1284 9.77174 74.3117 9.7103Z" fill="#28382D"/>
<path d="M18.4912 8.15299C18.5115 8.57983 18.5133 9.02614 18.3587 9.42506C18.1441 9.99896 17.6008 10.0977 17.3654 9.80986C17.1711 9.56672 17.1996 9.16752 17.3741 8.92019C17.5574 8.64996 18.1068 8.67655 18.4912 8.15299Z" fill="#28382D"/>
<path d="M43.5073 7.44016C42.9787 7.69445 41.8879 8.08353 41.0957 9.95068C40.6783 9.04572 40.2084 8.35098 39.3958 7.82674C39.1576 7.67125 38.8958 7.57281 38.642 7.45724C39.4972 6.50707 40.6383 5.40022 40.7596 3.95079C40.7641 3.9514 40.7734 3.95257 40.7779 3.95318C40.7791 5.29312 40.1088 6.30125 39.3011 7.29847C40.0527 7.62221 40.9512 8.57399 41.0941 9.82189C41.1941 8.78614 41.8876 7.75361 42.8684 7.27655C42.0831 6.3628 41.3117 5.18003 41.3716 3.91568C41.4074 4.07261 41.4113 4.52782 41.7681 5.21928C42.2117 6.07055 42.8796 6.72429 43.4983 7.40684C43.5004 7.41524 43.505 7.43176 43.5073 7.44016Z" fill="#28382D"/>
<path d="M64.7868 8.66655C65.1138 9.08272 64.9317 9.83079 64.398 9.7312C63.7405 9.63462 63.6444 8.6723 63.6828 7.93028C64.0276 8.41805 64.6052 8.43456 64.7868 8.66655Z" fill="#28382D"/>
<path d="M26.9038 7.66479C27.5942 7.49822 28.2356 7.83494 28.3714 8.37588C27.5936 8.41219 26.8195 8.55839 26.0765 8.8213C26.2662 8.81505 27.0491 8.595 28.3751 8.73937C28.3131 9.02183 28.138 9.25836 27.9227 9.41143C26.9491 10.1094 26.5125 9.16582 24.6438 9.41414C25.1192 8.91599 26.2657 7.8003 26.9038 7.66479Z" fill="#28382D"/>
<path d="M55.549 7.61885C56.1154 7.8849 57.0792 8.78048 57.5363 9.24935C55.976 9.06634 55.495 9.65696 54.8161 9.51201C54.3739 9.43938 53.9257 9.12539 53.7993 8.61812C55.0474 8.45308 55.9183 8.66777 56.0979 8.67095C55.3529 8.42152 54.5801 8.27593 53.8028 8.25251C53.946 7.63619 54.7579 7.27691 55.549 7.61885Z" fill="#28382D"/>
<path d="M39.719 7.19921C40.0098 7.08329 40.2389 7.10359 40.5157 6.23269C40.8715 5.09271 40.9361 4.52982 41.0189 4.24322C40.9487 4.92924 40.7312 6.30633 40.4646 6.84051C40.3864 7.00919 40.2679 7.14727 40.1341 7.26073C40.9098 7.86815 41.0498 8.68736 41.0958 8.77804C41.2238 8.1564 41.5817 7.61704 42.0341 7.24303C41.7382 7.03921 41.6006 6.65502 41.5037 6.29782C41.2773 5.44851 41.1422 4.52264 41.1306 4.24172C41.2762 4.9597 41.4548 5.67049 41.6865 6.35966C41.9512 7.09437 42.1711 7.08 42.4494 7.18659C42.1764 7.41504 41.5531 7.76527 41.1144 8.92453C41.1227 8.98365 41.1299 9.04309 41.1357 9.1025C41.1235 9.07938 41.0995 9.03287 41.0873 9.00974C41.0721 9.04156 41.0575 9.07276 41.0431 9.104C41.0463 9.03677 41.0676 8.96742 41.0532 8.90051C40.5974 7.70933 39.8621 7.33926 39.719 7.19921Z" fill="#28382D"/>
<path d="M1.42118 8.51222C0.748677 8.87207 0.165755 8.3726 0.572041 7.76482C1.03553 7.07683 1.73221 7.42299 2.46854 6.8067C2.26481 7.40851 1.95419 8.21772 1.42118 8.51222Z" fill="#28382D"/>
<path d="M37.8497 8.55379C37.7757 8.51807 37.7624 8.39198 37.8313 8.34125C37.8901 8.28691 37.9859 8.33135 38.0032 8.41211C38.0279 8.50517 37.9255 8.60545 37.8497 8.55379Z" fill="#28382D"/>
<path d="M44.3874 8.41428C44.3887 8.49563 44.2998 8.56855 44.2352 8.52412C44.1513 8.4878 44.1457 8.33921 44.2314 8.30171C44.2975 8.2531 44.3959 8.32695 44.3874 8.41428Z" fill="#28382D"/>
<path d="M33.3716 8.26529C33.4144 8.40996 33.2606 8.55856 33.1401 8.49103C33.0249 8.44302 32.9988 8.24938 33.0993 8.16713C33.1872 8.07498 33.3439 8.13621 33.3716 8.26529Z" fill="#28382D"/>
<path d="M48.8691 8.39399C48.7621 8.31836 48.7773 8.11967 48.8939 8.06506C49.0079 7.99243 49.1585 8.1206 49.1367 8.26346C49.1229 8.39939 48.9666 8.48042 48.8691 8.39399Z" fill="#28382D"/>
<path d="M17.1965 7.08215C16.2669 7.64657 16.077 8.45249 15.3436 8.26808C15.0246 8.17617 14.9012 7.86072 15.0738 7.49665C15.4917 6.63157 16.5907 6.99339 17.1965 7.08215Z" fill="#28382D"/>
<path d="M80.8375 8.21927C80.1438 8.08258 79.7689 7.11931 79.5177 6.42671C80.2603 7.04392 81.0557 6.67989 81.477 7.45596C81.7349 7.9342 81.3723 8.34156 80.8375 8.21927Z" fill="#28382D"/>
<path d="M38.147 8.03274C38.0709 7.98202 38.0624 7.84155 38.1406 7.78843C38.2172 7.71999 38.3482 7.79204 38.3439 7.90338C38.3508 8.01261 38.2284 8.10086 38.147 8.03274Z" fill="#28382D"/>
<path d="M43.8708 7.76881C43.9456 7.68806 44.0865 7.75501 44.085 7.87298C44.0929 7.98076 43.9735 8.0711 43.8918 8.00686C43.8168 7.96003 43.8005 7.82976 43.8708 7.76881Z" fill="#28382D"/>
<path d="M67.0993 7.25552C67.2686 7.62434 67.1333 7.93461 66.8215 8.01794C66.0989 8.2101 65.8625 7.36729 64.97 6.8503C65.5959 6.74375 66.6857 6.38686 67.0993 7.25552Z" fill="#28382D"/>
<path d="M32.4783 7.82144C32.3317 7.75392 32.3237 7.49577 32.4658 7.41713C32.596 7.32258 32.7828 7.46095 32.7663 7.63203C32.7596 7.78573 32.5999 7.88839 32.4783 7.82144Z" fill="#28382D"/>
<path d="M49.5311 7.74276C49.4084 7.69264 49.3584 7.50144 49.4475 7.38945C49.5359 7.2538 49.7469 7.29068 49.7935 7.45189C49.8622 7.62512 49.6825 7.82322 49.5311 7.74276Z" fill="#28382D"/>
<path d="M38.436 7.49834C38.3221 7.46624 38.2891 7.2726 38.3897 7.19997C38.4719 7.12672 38.6103 7.18524 38.6257 7.30352C38.6505 7.42242 38.539 7.53977 38.436 7.49834Z" fill="#28382D"/>
<path d="M43.6263 7.4656C43.5217 7.41906 43.5071 7.23535 43.6045 7.17054C43.6947 7.09551 43.8373 7.17715 43.8382 7.30291C43.8442 7.42295 43.7234 7.51962 43.6263 7.4656Z" fill="#28382D"/>
<path d="M31.8391 7.19294C31.5845 7.11448 31.6304 6.69445 31.8796 6.67848C32.0105 6.66107 32.1395 6.79103 32.1348 6.9408C32.1393 7.1074 31.9799 7.24187 31.8391 7.19294Z" fill="#28382D"/>
<path d="M50.2014 7.10298C50.0317 7.06066 49.9689 6.79109 50.099 6.66083C50.2126 6.52814 50.4348 6.5858 50.4822 6.76439C50.55 6.95317 50.3723 7.16421 50.2014 7.10298Z" fill="#28382D"/>
<path d="M38.5973 6.89988C38.488 6.83353 38.4861 6.63304 38.5997 6.5703C38.7146 6.48477 38.8799 6.61502 38.8512 6.76572C38.8398 6.89569 38.6929 6.97433 38.5973 6.89988Z" fill="#28382D"/>
<path d="M43.4393 6.89896C43.3238 6.87465 43.2679 6.70355 43.3401 6.59972C43.4101 6.47905 43.5958 6.50579 43.6371 6.64265C43.69 6.77711 43.5644 6.93945 43.4393 6.89896Z" fill="#28382D"/>
<path d="M18.2025 6.35383C17.325 6.65648 16.3639 6.89408 15.5048 6.38414C14.4293 5.74999 14.4123 4.35789 14.8262 4.27911C14.959 4.2602 15.0724 4.36136 15.1677 4.45262C15.5286 4.82311 16.1282 5.5501 16.6331 5.86005C17.1216 6.1617 17.678 6.32738 18.2353 6.3292C18.227 6.33553 18.2105 6.34786 18.2025 6.35383Z" fill="#28382D"/>
<path d="M31.1188 6.56818C30.9352 6.49705 30.895 6.19179 31.0491 6.06092C31.1954 5.91205 31.4605 6.02729 31.4786 6.24884C31.5158 6.4652 31.2965 6.6609 31.1188 6.56818Z" fill="#28382D"/>
<path d="M50.8616 6.47827C50.6684 6.42333 50.6101 6.10727 50.7676 5.9704C50.9007 5.83021 51.1433 5.90467 51.1923 6.10338C51.2681 6.32099 51.0539 6.56141 50.8616 6.47827Z" fill="#28382D"/>
<path d="M66.0451 6.37873C65.3296 6.54681 64.5995 6.35203 63.9148 6.11578C66.0974 6.0083 66.6612 4.14505 67.2455 4.02244C67.5273 3.95777 67.7616 4.60953 67.3573 5.38067C67.0803 5.91435 66.5768 6.26345 66.0451 6.37873Z" fill="#28382D"/>
<path d="M38.7306 6.296C38.617 6.22637 38.6021 6.02586 38.7109 5.94271C38.8144 5.84727 38.9917 5.9163 39.0124 6.06847C39.0547 6.2402 38.8618 6.39899 38.7306 6.296Z" fill="#28382D"/>
<path d="M43.5165 6.04109C43.5516 6.19208 43.4103 6.34396 43.2783 6.29624C43.1479 6.26021 43.0949 6.05942 43.1867 5.94865C43.278 5.81596 43.4893 5.87748 43.5165 6.04109Z" fill="#28382D"/>
<path d="M30.4009 5.99006C30.1226 5.87342 30.1671 5.41237 30.4445 5.3525C30.6292 5.30027 30.8267 5.49176 30.8038 5.7067C30.794 5.92221 30.5763 6.0717 30.4009 5.99006Z" fill="#28382D"/>
<path d="M17.9396 4.55861C18.7839 4.41119 18.6454 5.40766 19.4543 5.63468C19.3832 5.69173 19.297 5.71393 19.2169 5.74935C17.6202 6.38354 17.1153 4.72311 17.9396 4.55861Z" fill="#28382D"/>
<path d="M51.5271 5.88072C51.3917 5.81709 51.3113 5.6304 51.3635 5.47251C51.409 5.30502 51.583 5.20118 51.7312 5.25612C51.8898 5.30355 51.9808 5.51605 51.9246 5.68773C51.874 5.8657 51.6763 5.96146 51.5271 5.88072Z" fill="#28382D"/>
<path d="M38.8357 5.69721C38.6845 5.64798 38.6409 5.39582 38.7708 5.29137C38.8804 5.18241 39.0739 5.24843 39.1055 5.41205C39.1556 5.58585 38.9871 5.76656 38.8357 5.69721Z" fill="#28382D"/>
<path d="M43.169 5.67282C43.0322 5.6152 42.9936 5.39369 43.1017 5.28263C43.2103 5.14726 43.4327 5.2319 43.4564 5.40898C43.4918 5.58278 43.3125 5.74785 43.169 5.67282Z" fill="#28382D"/>
<path d="M62.6971 5.42418C63.0566 5.31852 63.3025 4.97633 63.502 4.64436C63.7592 4.17864 64.52 4.22225 64.5904 4.7224C64.6265 4.96611 64.5193 5.21014 64.3666 5.37643C63.9706 5.81252 63.2004 5.70042 62.6971 5.42418Z" fill="#28382D"/>
<path d="M29.656 5.45412C29.494 5.39078 29.4024 5.17138 29.462 4.99009C29.5118 4.80007 29.713 4.68784 29.8772 4.75958C30.0344 4.81541 30.135 5.01922 30.09 5.19902C30.0475 5.40519 29.8303 5.53515 29.656 5.45412Z" fill="#28382D"/>
<path d="M52.2451 5.33507C52.0958 5.26394 52.0083 5.05711 52.0658 4.88303C52.1179 4.68521 52.3335 4.57204 52.5011 4.65579C52.6701 4.72725 52.7531 4.97096 52.6746 5.15348C52.6065 5.33267 52.4011 5.41972 52.2451 5.33507Z" fill="#28382D"/>
<path d="M38.6777 4.81109C38.6841 4.64419 38.8592 4.51933 38.9951 4.58774C39.1176 4.64029 39.1764 4.82278 39.1114 4.95125C39.0018 5.20672 38.6538 5.07907 38.6777 4.81109Z" fill="#28382D"/>
<path d="M43.0909 4.60938C43.2261 4.46228 43.48 4.60127 43.4701 4.8102C43.4752 4.99122 43.2855 5.12477 43.1428 5.04645C42.9927 4.975 42.9624 4.72284 43.0909 4.60938Z" fill="#28382D"/>
<path d="M28.9336 4.98373C28.766 4.9477 28.6377 4.76461 28.6497 4.57162C28.6502 4.36089 28.82 4.17358 29.0079 4.18348C29.2032 4.17687 29.3772 4.37952 29.3674 4.59921C29.3671 4.84175 29.1417 5.03925 28.9336 4.98373Z" fill="#28382D"/>
<path d="M53.0206 4.85196C52.8641 4.79312 52.7542 4.60314 52.7805 4.41701C52.8018 4.2078 52.9854 4.0424 53.1717 4.06764C53.3862 4.07786 53.5448 4.34438 53.4841 4.5734C53.4402 4.79523 53.2082 4.93449 53.0206 4.85196Z" fill="#28382D"/>
<path d="M28.114 4.55176C27.9166 4.49833 27.7851 4.25279 27.8336 4.03038C27.8665 3.82299 28.0491 3.66717 28.2351 3.68551C28.4437 3.69241 28.623 3.91543 28.6044 4.15078C28.597 4.41729 28.3413 4.6259 28.114 4.55176Z" fill="#28382D"/>
<path d="M38.588 4.21155C38.5696 4.03598 38.7298 3.87928 38.8807 3.90959C39.0172 3.93629 39.1167 4.10561 39.0803 4.25806C39.0206 4.581 38.5939 4.51384 38.588 4.21155Z" fill="#28382D"/>
<path d="M43.556 4.18088C43.5555 4.36457 43.3737 4.49393 43.2237 4.43721C43.0411 4.37959 42.9959 4.07733 43.1467 3.95065C43.2974 3.78827 43.5733 3.95276 43.556 4.18088Z" fill="#28382D"/>
<path d="M53.7899 4.41003C53.6153 4.33739 53.4982 4.11348 53.5442 3.90605C53.5847 3.68093 53.7963 3.52036 53.9969 3.56536C54.2194 3.59896 54.3695 3.88082 54.3019 4.12006C54.2495 4.3617 53.9932 4.507 53.7899 4.41003Z" fill="#28382D"/>
<path d="M27.2872 4.18996C27.0653 4.13413 26.9258 3.85228 26.9849 3.60825C27.0253 3.39303 27.2175 3.23697 27.4109 3.25466C27.6587 3.25588 27.8671 3.54763 27.8082 3.82107C27.7622 4.07711 27.5134 4.2617 27.2872 4.18996Z" fill="#28382D"/>
<path d="M20.3681 4.10415C20.2616 4.03391 20.2675 3.84121 20.3797 3.78176C20.4934 3.69923 20.6565 3.82291 20.6317 3.97268C20.6203 4.10926 20.4654 4.19029 20.3681 4.10415Z" fill="#28382D"/>
<path d="M54.6136 4.04555C54.4247 3.97381 54.2889 3.743 54.3264 3.51756C54.3613 3.25343 54.616 3.06162 54.8459 3.13214C55.058 3.17958 55.2003 3.4347 55.1588 3.67215C55.1304 3.9519 54.847 4.147 54.6136 4.04555Z" fill="#28382D"/>
<path d="M61.6134 3.92412C61.4881 3.87669 61.4697 3.65968 61.5833 3.58465C61.6759 3.51319 61.8143 3.57564 61.8438 3.69632C61.8831 3.84037 61.7342 3.98232 61.6134 3.92412Z" fill="#28382D"/>
<path d="M26.4365 3.8347C26.2313 3.77587 26.1079 3.50664 26.1714 3.28152C26.2223 3.06029 26.4471 2.92371 26.6403 2.98498C26.8333 3.03598 26.9754 3.27012 26.9301 3.49166C26.8897 3.73473 26.6499 3.91484 26.4365 3.8347Z" fill="#28382D"/>
<path d="M38.414 3.57905C38.4108 3.39235 38.5806 3.22395 38.745 3.26899C38.8999 3.3086 38.9989 3.5112 38.9403 3.67993C38.8559 3.97662 38.4222 3.91949 38.414 3.57905Z" fill="#28382D"/>
<path d="M43.7218 3.54953C43.7274 3.73323 43.563 3.87699 43.4062 3.84518C43.1734 3.82627 43.1015 3.44359 43.2894 3.30189C43.4539 3.13865 43.729 3.31394 43.7218 3.54953Z" fill="#28382D"/>
<path d="M21.2186 3.74671C21.0938 3.70768 21.0235 3.52129 21.1076 3.4015C21.1912 3.2538 21.4166 3.28082 21.464 3.45073C21.5241 3.61613 21.3713 3.81095 21.2186 3.74671Z" fill="#28382D"/>
<path d="M55.4659 3.68635C55.2902 3.61822 55.1683 3.4006 55.2034 3.19227C55.2364 2.96686 55.4429 2.79874 55.6434 2.83449C55.8555 2.85551 56.0157 3.10133 55.9747 3.33608C55.9473 3.59692 55.6846 3.78333 55.4659 3.68635Z" fill="#28382D"/>
<path d="M25.5595 3.56396C25.4014 3.50662 25.2985 3.3142 25.3195 3.12994C25.3349 2.93001 25.5036 2.76705 25.6808 2.77724C25.8911 2.77363 26.0784 3.01376 26.03 3.24968C25.9951 3.48292 25.7596 3.654 25.5595 3.56396Z" fill="#28382D"/>
<path d="M60.7632 3.53602C60.6368 3.46339 60.6237 3.23798 60.7445 3.15091C60.86 3.05186 61.051 3.14401 61.0638 3.3079C61.0867 3.48169 60.8973 3.62813 60.7632 3.53602Z" fill="#28382D"/>
<path d="M22.0432 3.47819C21.8994 3.41997 21.842 3.19034 21.9516 3.06398C22.0618 2.91032 22.3095 2.96733 22.3526 3.16093C22.4133 3.35813 22.2134 3.57485 22.0432 3.47819Z" fill="#28382D"/>
<path d="M56.3449 3.41479C56.1778 3.35177 56.0666 3.14044 56.1054 2.94473C56.1437 2.71449 56.3813 2.56561 56.5758 2.64758C56.7493 2.70881 56.857 2.93394 56.8043 3.13082C56.7594 3.35027 56.5335 3.49586 56.3449 3.41479Z" fill="#28382D"/>
<path d="M24.7 3.39682C24.3779 3.2938 24.3878 2.75499 24.7197 2.68065C24.9124 2.62753 25.1292 2.81122 25.1183 3.03963C25.1239 3.27436 24.9009 3.47517 24.7 3.39682Z" fill="#28382D"/>
<path d="M22.9511 3.35234C22.771 3.31331 22.6768 3.04378 22.7955 2.88107C22.908 2.69704 23.192 2.74269 23.2561 2.9537C23.3343 3.16174 23.1475 3.41601 22.9511 3.35234Z" fill="#28382D"/>
<path d="M23.8295 3.32359C23.5266 3.23656 23.5354 2.75497 23.8186 2.67794C23.9916 2.61943 24.1933 2.77399 24.1959 2.98109C24.2079 3.19273 24.015 3.38751 23.8295 3.32359Z" fill="#28382D"/>
<path d="M59.9123 3.29355C59.763 3.22659 59.7239 2.97505 59.8471 2.85741C59.9679 2.72415 60.2017 2.79918 60.2342 2.98978C60.2821 3.18906 60.077 3.38148 59.9123 3.29355Z" fill="#28382D"/>
<path d="M40.5246 3.04526C39.8125 2.38088 40.6523 1.5803 41.1526 0.604681C41.3715 1.20069 41.9205 1.75338 42.0494 2.28286C42.2054 3.06628 41.1675 3.65947 40.5246 3.04526Z" fill="#28382D"/>
<path d="M38.3533 3.24059C38.175 3.16884 38.1529 2.87228 38.3057 2.7546C38.4568 2.60843 38.7093 2.76271 38.7032 2.98063C38.7165 3.18025 38.5092 3.32374 38.3533 3.24059Z" fill="#28382D"/>
<path d="M57.2474 3.23701C57.0792 3.18149 56.9712 2.95905 57.0273 2.77024C57.0781 2.57693 57.2841 2.46408 57.4512 2.53371C57.6085 2.59194 57.7078 2.79937 57.6564 2.97914C57.6138 3.17245 57.4161 3.30185 57.2474 3.23701Z" fill="#28382D"/>
<path d="M43.9278 3.00687C43.9057 3.18967 43.7096 3.29173 43.5672 3.20948C43.3802 3.12183 43.3919 2.78715 43.5744 2.7004C43.7474 2.59238 43.9653 2.79677 43.9278 3.00687Z" fill="#28382D"/>
<path d="M59.0577 3.17511C58.8685 3.12707 58.7903 2.82274 58.9372 2.67447C59.0662 2.5208 59.3251 2.58382 59.3773 2.79092C59.447 3.004 59.2496 3.23813 59.0577 3.17511Z" fill="#28382D"/>
<path d="M58.1276 3.14471C57.9381 3.06818 57.8689 2.7563 58.0214 2.59931C58.1613 2.4273 58.4488 2.48825 58.5121 2.71548C58.6066 2.9682 58.3503 3.25485 58.1276 3.14471Z" fill="#28382D"/>
<path d="M38.0677 2.69041C37.9644 2.65621 37.8942 2.52924 37.9123 2.40946C37.9285 2.2786 38.0392 2.16665 38.1595 2.18406C38.3005 2.19396 38.4035 2.36836 38.3623 2.51963C38.3303 2.65832 38.1847 2.73245 38.0677 2.69041Z" fill="#28382D"/>
<path d="M44.2054 2.5042C44.1676 2.63389 44.033 2.70291 43.9199 2.6612C43.659 2.5758 43.7367 2.14957 43.9883 2.153C44.1418 2.14792 44.2603 2.34424 44.2054 2.5042Z" fill="#28382D"/>
<path d="M37.6891 2.18669C37.5319 2.13118 37.5039 1.86525 37.6417 1.76649C37.7607 1.66355 37.948 1.76077 37.968 1.92465C38.0034 2.09726 37.8302 2.24523 37.6891 2.18669Z" fill="#28382D"/>
<path d="M44.2906 2.15133C44.1405 2.0991 44.1072 1.85807 44.2291 1.75062C44.3446 1.62694 44.5564 1.71791 44.5708 1.89621C44.602 2.06786 44.4335 2.22214 44.2906 2.15133Z" fill="#28382D"/>
<path d="M37.2158 1.72955C37.1016 1.6449 37.1083 1.43357 37.2301 1.36187C37.3456 1.28144 37.5047 1.38857 37.513 1.53595C37.531 1.70403 37.336 1.83189 37.2158 1.72955Z" fill="#28382D"/>
<path d="M44.7173 1.70512C44.5931 1.64868 44.571 1.44339 44.6772 1.35274C44.7788 1.23689 44.9728 1.32182 44.9871 1.48182C45.0143 1.64328 44.8469 1.79248 44.7173 1.70512Z" fill="#28382D"/>
<path d="M36.7885 1.40265C36.6592 1.36483 36.6201 1.15142 36.7307 1.06345C36.8244 0.972797 36.9803 1.04904 37.0027 1.18052C37.0303 1.31322 36.9018 1.44137 36.7885 1.40265Z" fill="#28382D"/>
<path d="M45.1962 1.33736C45.0876 1.27102 45.0878 1.08134 45.1956 1.01443C45.3106 0.915102 45.4871 1.05703 45.4506 1.21101C45.4312 1.33679 45.292 1.41692 45.1962 1.33736Z" fill="#28382D"/>
<path d="M36.2554 1.13303C36.1582 1.09371 36.1204 0.935815 36.1987 0.854172C36.2748 0.754834 36.4325 0.815136 36.4538 0.938817C36.4799 1.06071 36.358 1.18017 36.2554 1.13303Z" fill="#28382D"/>
<path d="M45.7309 1.06892C45.6668 1.02181 45.6335 0.915822 45.6822 0.8414C45.7384 0.729445 45.9057 0.730947 45.948 0.8567C46.0122 0.99718 45.8464 1.1698 45.7309 1.06892Z" fill="#28382D"/>
<path d="M35.6736 0.950927C35.5978 0.893589 35.6023 0.747421 35.6875 0.703882C35.7804 0.641754 35.9139 0.758217 35.8737 0.87468C35.8503 0.966513 35.7407 1.01906 35.6736 0.950927Z" fill="#28382D"/>
<path d="M35.1379 0.924863C35.0786 0.89455 35.0405 0.798787 35.0897 0.73784C35.1352 0.663095 35.2457 0.677823 35.2787 0.759145C35.326 0.851334 35.222 0.975301 35.1379 0.924863Z" fill="#28382D"/>
<path d="M46.3405 0.92677C46.2599 0.906359 46.2037 0.789006 46.2551 0.707363C46.3016 0.618214 46.4349 0.612208 46.4802 0.707077C46.5385 0.808202 46.4427 0.954366 46.3405 0.92677Z" fill="#28382D"/>
<path d="M46.8962 0.869437C46.8331 0.842127 46.7996 0.740678 46.8491 0.680623C46.8962 0.603768 47.0122 0.621175 47.041 0.70854C47.0734 0.802482 46.9798 0.910546 46.8962 0.869437Z" fill="#28382D"/>
</svg>
