<svg width="82" height="27" viewBox="0 0 82 27" fill="none" xmlns="http://www.w3.org/2000/svg">
<path d="M36.8011 1.23907C36.9916 1.16672 37.0558 0.844044 36.8916 0.701778C36.815 0.646266 36.7157 0.561621 36.6255 0.631253C36.2275 0.79947 36.4892 1.38612 36.8011 1.23907Z" fill="#28382D"/>
<path d="M37.3093 1.31953C37.5025 1.34984 37.6813 1.13193 37.647 0.917605C37.6212 0.709889 37.403 0.579312 37.2338 0.659774C36.9318 0.785169 37.0151 1.28253 37.3093 1.31953Z" fill="#28382D"/>
<path d="M44.9975 1.35662C45.1758 1.33499 45.2998 1.11469 45.2545 0.921669C45.2138 0.729252 45.0071 0.620908 44.8479 0.697761C44.5036 0.844102 44.6664 1.40713 44.9975 1.35662Z" fill="#28382D"/>
<path d="M45.4513 1.2511C45.6173 1.38797 45.8645 1.2343 45.8808 1.01246C45.9148 0.779223 45.6682 0.592526 45.485 0.695508C45.2799 0.781654 45.2687 1.12892 45.4513 1.2511Z" fill="#28382D"/>
<path d="M35.8972 1.22192C36.0385 1.3876 36.308 1.26725 36.3216 1.04212C36.3591 0.838301 36.1601 0.660932 35.9911 0.73085C35.8009 0.783074 35.7442 1.08534 35.8972 1.22192Z" fill="#28382D"/>
<path d="M46.1176 1.31491C46.2828 1.42926 46.5085 1.25307 46.4992 1.04296C46.4973 0.843646 46.2871 0.706492 46.1304 0.79203C45.935 0.875174 45.9356 1.21436 46.1176 1.31491Z" fill="#28382D"/>
<path d="M37.8157 1.37292C37.982 1.5194 38.2473 1.36391 38.2577 1.13278C38.2801 0.912163 38.056 0.731757 37.8764 0.815222C37.6657 0.887857 37.6359 1.24052 37.8157 1.37292Z" fill="#28382D"/>
<path d="M44.3057 1.45856C44.479 1.48615 44.632 1.29166 44.6085 1.10196C44.5865 0.792339 44.1861 0.726174 44.0715 1.0131C43.9872 1.2013 44.124 1.44415 44.3057 1.45856Z" fill="#28382D"/>
<path d="M35.5459 1.45135C35.6768 1.38922 35.7266 1.18573 35.6481 1.05426C35.516 0.824592 35.1948 0.970111 35.2138 1.22176C35.2237 1.39344 35.4044 1.52613 35.5459 1.45135Z" fill="#28382D"/>
<path d="M46.7307 1.4909C46.8792 1.60286 47.0995 1.44858 47.0912 1.25198C47.0894 1.06468 46.8842 0.933817 46.7405 1.02568C46.5801 1.11029 46.5819 1.39303 46.7307 1.4909Z" fill="#28382D"/>
<path d="M38.4634 1.60226C38.6244 1.70403 38.8474 1.54971 38.8434 1.34232C38.8503 1.13189 38.6228 0.982114 38.4618 1.08299C38.2806 1.17782 38.2857 1.50589 38.4634 1.60226Z" fill="#28382D"/>
<path d="M43.964 1.45812C44.0375 1.24801 43.8427 1.0136 43.6524 1.08773C43.4722 1.13184 43.3945 1.4119 43.5286 1.55867C43.6489 1.72585 43.9145 1.66913 43.964 1.45812Z" fill="#28382D"/>
<path d="M35.0803 1.68282C35.1737 1.51353 35.0212 1.26471 34.8464 1.32862C34.7136 1.36404 34.629 1.55792 34.7136 1.68882C34.7934 1.8332 35.0098 1.8416 35.0803 1.68282Z" fill="#28382D"/>
<path d="M47.618 1.67025C47.6502 1.50425 47.4935 1.34279 47.3501 1.38811C47.1954 1.42833 47.1412 1.67808 47.2583 1.79754C47.3695 1.9278 47.589 1.84494 47.618 1.67025Z" fill="#28382D"/>
<path d="M38.9992 1.86336C39.1216 1.99784 39.3483 1.91198 39.3876 1.72921C39.4403 1.53379 39.2405 1.33419 39.0744 1.41404C38.9116 1.47345 38.8709 1.73972 38.9992 1.86336Z" fill="#28382D"/>
<path d="M43.2156 1.93719C43.3471 1.89576 43.4181 1.70939 43.3577 1.57191C43.261 1.30136 42.8854 1.41428 42.9072 1.70249C42.9151 1.86545 43.0783 1.99002 43.2156 1.93719Z" fill="#28382D"/>
<path d="M34.6292 2.15091C34.6809 1.99692 34.5366 1.80904 34.394 1.87028C34.278 1.9111 34.2141 2.08639 34.2897 2.20014C34.3706 2.33583 34.5845 2.3103 34.6292 2.15091Z" fill="#28382D"/>
<path d="M39.5686 2.27771C39.6952 2.37676 39.8919 2.26599 39.8985 2.09252C39.9145 1.91333 39.7208 1.76924 39.5824 1.862C39.4443 1.94031 39.4337 2.18914 39.5686 2.27771Z" fill="#28382D"/>
<path d="M42.8127 2.17537C42.8851 1.99197 42.6956 1.77435 42.5335 1.86833C42.4 1.92387 42.3518 2.14145 42.459 2.25344C42.5586 2.37891 42.7659 2.33926 42.8127 2.17537Z" fill="#28382D"/>
<path d="M48.0319 2.21236C48.0894 2.03796 47.8919 1.84647 47.7519 1.95693C47.6638 2.02087 47.6271 2.16704 47.6907 2.26641C47.7721 2.40417 47.9893 2.37386 48.0319 2.21236Z" fill="#28382D"/>
<path d="M36.4533 17.3758C37.4246 17.4429 38.3913 16.9943 38.6553 15.8987C38.952 14.6272 38.8216 13.2483 38.3439 12.0542C38.3439 12.0542 39.6866 13.4301 39.6866 13.4302C40.1286 13.9093 40.6919 14.6568 40.5326 15.3362C40.4043 15.0699 40.2543 14.8076 40.0422 14.6143C39.7095 14.2943 39.2481 14.0908 38.8114 14.2217C38.9811 14.6447 39.5822 15.3342 39.7662 16.1433C39.9589 16.9387 39.4714 17.8833 38.7345 18.0154C39.6505 18.4918 41.1682 17.1167 40.5496 15.3932C40.9356 14.327 39.797 13.0833 39.3191 12.4603C38.4992 11.423 36.4456 8.75529 35.8582 7.45305C35.4366 6.49897 35.2647 5.49864 35.64 4.50396C36.0698 3.37026 37.0511 3.10767 38.1108 3.36726C39.6749 3.75288 40.4765 5.13504 40.5937 5.24328C40.0222 2.95086 37.7705 1.88905 36.2305 2.49861C34.8319 3.02557 34.1899 4.96814 34.6296 6.71255C34.8713 7.66105 35.3651 8.4976 35.9277 9.24199C35.7877 9.17955 35.6531 9.10184 35.5112 9.04418C32.5234 7.75531 29.6106 9.76652 29.5208 12.2058C29.4553 13.5062 30.0747 14.6558 30.9492 15.0573C32.0021 15.5427 34.4544 15.3618 34.5575 13.5493C34.6284 13.6302 34.7591 14.0105 35.2467 14.3543C36.3395 15.1005 37.0323 14.3509 37.1174 13.7645C37.1866 13.3067 36.9117 12.8118 36.5102 12.6977C36.0644 12.5668 35.5626 13.0669 35.6642 13.585C35.6131 13.129 35.9992 12.6926 36.4018 12.7391C36.8042 12.795 37.0924 13.283 37.0256 13.7249C36.9532 14.1853 36.5442 14.5257 36.1371 14.5155C35.4062 14.4982 34.5178 13.6624 34.574 12.6863C34.5998 12.2072 34.8452 11.7246 35.2419 11.5238C35.9117 11.1941 37.5521 11.6597 38.3236 13.0171C38.4395 13.1957 38.7001 14.4166 38.4617 15.7137C38.2921 16.8389 37.2096 17.3195 36.2816 17.1794C35.9394 16.7847 35.5487 16.4452 35.1246 16.1709C34.9919 14.9987 37.2628 14.2897 37.1653 15.7777C37.319 15.0092 36.4969 14.595 35.6448 15.1038C35.3146 15.3049 35.0176 15.6696 35.0155 16.1151C33.8589 15.4476 32.6168 15.6939 31.5144 16.4465C29.9391 17.5029 29.0051 19.0416 27.1373 20.1243C26.2046 20.6757 25.1705 21.0461 24.1125 21.0762C22.9188 20.704 22.6222 19.0834 23.335 18.266C23.9535 17.5615 24.9641 17.7784 25.2421 18.4906C25.431 18.9647 25.3409 19.7857 24.3486 19.8956C23.6726 19.9589 23.3677 19.4689 23.4332 19.065C23.5074 18.6486 24.0384 18.5021 24.4026 18.8384C24.5976 19.0188 24.7161 19.2761 24.819 19.5303C24.58 18.6779 24.033 18.4497 23.6323 18.6637C23.208 18.8963 23.2788 19.5521 23.6496 19.8406C24.0634 20.1707 24.8395 20.0686 25.2113 19.6617C25.6754 19.1509 25.5756 18.0431 24.6924 17.7056C24.0091 17.4313 23.1213 17.8269 22.8542 18.7541C22.6383 19.4905 22.8051 20.5605 23.7685 21.0794C21.8231 20.998 19.8766 19.5744 19.4624 17.4009C19.2016 16.0372 19.8507 14.3488 21.0146 13.5496C22.0038 12.8655 23.214 13.0592 23.8635 13.8389C24.9697 15.1403 23.7784 17.9075 22.3792 17.9088C21.6753 17.9294 21.1054 17.3584 21.1157 16.7412C21.1384 16.1937 21.5665 15.6813 22.0652 15.6957C22.0151 15.7636 21.9547 15.8248 21.9263 15.9091C22.1506 15.9019 22.3323 16.1382 22.3392 16.3804C22.3315 16.4803 22.3158 16.5824 22.3411 16.6812C22.3983 16.9297 22.5053 17.1677 22.657 17.3601C23.2363 17.3846 23.5187 16.4634 23.033 15.8848C22.8107 15.6234 22.4406 15.5054 22.142 15.6627C22.0388 15.702 21.9252 15.6489 21.8203 15.6894C21.2664 15.8392 20.7692 16.6085 21.1588 17.3694C21.6316 18.272 23.0131 18.5654 23.9971 17.132C24.7501 16.0288 24.9531 14.4681 24.1413 13.4673C23.5376 12.7205 22.458 12.3273 21.3401 12.7079C19.4617 13.3383 17.835 16.3276 19.2544 19.0963C19.3805 19.3541 19.541 19.587 19.6961 19.823C17.0032 18.112 15.146 16.3857 13.179 16.0856C13.3044 16.082 13.4313 16.0538 13.5258 15.9539C13.2381 15.7315 12.9853 15.4406 12.8281 15.0867C13.0053 15.3017 13.0435 15.4841 13.5838 15.8338C13.7091 15.5238 13.6053 15.1032 13.3345 14.9372C13.0867 14.7833 12.8186 14.6772 12.5833 14.1217C12.4555 14.5745 12.422 15.4029 12.6857 15.7654C12.7802 15.9142 12.9223 16.007 13.0721 16.0685C10.4258 15.7663 9.10079 18.0144 9.53962 19.6846C7.20125 21.1445 4.52738 20.9905 3.63885 20.3812C3.02468 19.9599 3.01435 19.3429 3.39057 18.911C3.59068 18.6826 3.84534 18.5052 4.12287 18.4281C4.40972 18.3482 4.67344 18.6286 4.73358 18.9284C4.8257 19.2837 4.60201 19.8892 3.77404 19.8154C4.12661 19.9256 4.55397 19.7848 4.74502 19.4177C5.01492 18.9134 4.62324 18.0416 3.91185 18.3302C3.29721 18.5808 2.78961 19.1472 2.94777 19.8295C3.28187 21.4927 7.09205 21.7517 9.74585 20.2194C10.8762 22.2759 13.0066 21.0883 12.7028 19.7037C12.5623 18.9988 11.7761 18.5438 10.9904 18.8078C10.7001 18.8972 10.4412 19.0746 10.1793 19.2355C10.0824 17.9848 11.2361 16.4935 13.3936 17.0005C13.3119 17.0494 13.2161 17.0611 13.1381 17.1196C12.7017 17.4027 12.5149 18.0679 12.7081 18.5883C12.938 19.2503 13.6874 19.7431 14.2906 19.409C14.6755 19.1933 14.6915 18.6861 14.3803 18.4446C13.9837 18.1321 13.4151 18.2859 13.3183 18.6325C13.285 18.7724 13.3499 18.9182 13.4622 18.9831C13.4585 18.975 13.4516 18.9591 13.4479 18.951C13.2396 18.8145 13.3139 18.3699 13.8375 18.3551C14.3525 18.3626 14.6196 18.8177 14.3984 19.1122C14.2386 19.3342 13.8114 19.4578 13.3614 19.1392C12.5608 18.5608 12.7475 17.494 13.3345 17.204C14.5041 16.6717 18.099 20.2212 21.4908 21.4108C21.6636 21.4826 22.5479 22.0441 23.9232 22.0751C25.8659 22.1277 27.7888 21.1566 29.2848 19.8175C31.3237 18.0225 33.1114 15.2697 35.5789 17.7617C38.498 20.7575 37.1798 23.9694 35.5534 24.4106C34.6367 24.6606 33.531 24.1037 33.1819 23.0677C33.3008 23.2189 33.4267 23.3753 33.6037 23.4393C33.5057 23.1166 33.5558 22.7396 33.746 22.4725C33.8421 22.335 33.9873 22.2626 34.114 22.1684C34.3216 22.0171 34.5262 21.8574 34.7527 21.7434C34.7314 21.424 34.4592 21.2079 34.1971 21.1617C33.4424 21.0108 32.7502 21.9442 33.0898 22.8525C33.1306 22.974 33.1272 23.6359 33.7628 24.2515C36.2621 26.6763 40.2061 22.0027 36.4533 17.3758ZM34.995 11.4284C34.6347 11.7001 34.4088 12.1782 34.392 12.6645C34.2933 12.5508 34.2071 12.419 34.0772 12.3463C34.0634 12.3652 34.0501 12.3841 34.0371 12.4031C33.7895 11.9807 32.8412 11.537 32.1773 12.1527C31.5066 12.7999 31.7764 14.0887 32.8037 13.1589C32.9562 13.0298 33.0368 12.8233 33.1877 12.6918C33.4474 12.4424 33.8231 12.3713 34.1427 12.5028C34.1262 12.4896 34.0935 12.4634 34.0772 12.4502C34.0911 12.4325 34.1055 12.4154 34.1206 12.3983C34.4286 12.7353 34.3794 12.8344 34.4035 13.0031C34.4184 13.1493 34.4905 13.2877 34.4618 13.4383C34.3162 15.2942 31.733 15.1861 30.8963 14.6408C29.5996 13.7828 29.2295 10.9088 31.688 9.56206C33.2804 8.67826 35.4008 8.99503 36.8516 10.3854C36.9887 10.5298 37.1119 10.6904 37.2457 10.8383C37.5491 11.1586 37.7745 11.5593 37.9722 11.9681C38.0938 12.2281 38.1965 12.4988 38.2856 12.775C37.5064 11.4485 35.7745 10.8458 34.995 11.4284ZM11.9899 19.6381C12.3546 20.0395 11.7819 20.7012 11.2011 20.5587C10.8416 20.478 10.5436 20.1856 10.3632 19.8344C10.7472 19.5919 11.4832 19.0825 11.9899 19.6381Z" fill="#28382D"/>
<path d="M40.3403 2.60112C40.3669 2.44563 40.2088 2.30036 40.0808 2.3682C39.9648 2.41864 39.9201 2.60473 40.0077 2.70889C40.1021 2.84483 40.3264 2.77552 40.3403 2.60112Z" fill="#28382D"/>
<path d="M42.026 2.74704C42.1338 2.85149 42.3219 2.76445 42.3309 2.60417C42.3511 2.45469 42.2077 2.31843 42.0811 2.37483C41.943 2.42198 41.902 2.65429 42.026 2.74704Z" fill="#28382D"/>
<path d="M77.8859 18.6355C77.4715 18.709 77.2153 19.2814 77.3885 19.7068C77.5937 20.2243 78.2145 20.2943 78.4204 20.1456C77.7414 20.3826 77.0876 19.5862 77.5798 18.9732C77.8636 18.6107 78.2549 18.8114 78.6096 19.108C79.3965 19.7842 79.0664 20.8448 77.5939 21.0869C75.8882 21.3403 74.1104 20.951 72.6179 19.9841C73.024 18.5987 72.0913 16.5814 69.9835 16.3399C69.6913 16.3036 69.3986 16.3225 69.1064 16.3387C69.7815 16.1411 69.7798 15.167 69.6309 14.4014C69.5595 14.4918 69.4643 14.8266 69.1086 15.0599C68.9838 15.1494 68.8342 15.1977 68.7307 15.3214C68.5567 15.5225 68.5173 15.8386 68.5979 16.0985C69.0817 15.8459 69.2674 15.4709 69.3744 15.358C69.2071 15.7026 68.9654 16.0043 68.669 16.2126C68.7421 16.32 68.8646 16.3468 68.9769 16.3669C67.1547 16.574 64.863 18.5486 62.4593 20.0312C64.5503 17.2506 63.0568 13.7707 60.9755 12.9378C59.9408 12.5298 58.8785 12.7946 58.2068 13.4784C56.8164 14.8801 57.796 17.6239 59.2339 18.2059C60.0422 18.5458 61.0191 18.0335 61.1543 17.1599C61.2608 16.4908 60.6681 15.7614 60.0897 15.8659C59.8518 15.7227 59.5543 15.7539 59.3281 15.9103C58.6997 16.3259 58.7793 17.4992 59.5202 17.5489C59.6746 17.3409 59.7973 17.0966 59.8499 16.8306C59.8808 16.6994 59.8199 16.5614 59.8691 16.4338C59.9239 16.2381 60.0857 16.0901 60.2709 16.0904C60.2294 16.0133 60.178 15.9443 60.1203 15.883C60.6075 15.8641 61.0255 16.3578 61.0662 16.8888C61.1195 17.725 60.12 18.3843 59.2962 17.9652C58.358 17.5107 57.7407 16.0402 57.9361 14.905C58.073 14.0232 58.7914 13.443 59.5796 13.334C61.9242 12.9964 64.0519 16.8002 61.8387 19.4978C61.0584 20.4694 59.8987 21.1533 58.3829 21.2525C58.472 21.1853 58.5745 21.1442 58.6615 21.0721C59.4475 20.4928 59.5928 19.2772 59.1338 18.5058C58.5858 17.5762 57.3317 17.554 56.8494 18.4031C56.5634 18.9102 56.625 19.7051 57.2206 20.0306C57.6192 20.2489 58.2393 20.2973 58.5883 19.9411C58.9599 19.5652 58.8902 18.8841 58.3885 18.7759C57.8935 18.6535 57.4938 19.1282 57.3504 19.6788C57.4433 19.4423 57.5575 19.2094 57.7304 19.0347C58.0725 18.6797 58.6097 18.7858 58.7219 19.186C58.8235 19.5829 58.5207 20.1804 57.7142 20.0447C56.6649 19.8478 56.7207 18.8227 57.0793 18.389C57.6083 17.7406 58.631 17.9289 59.0253 18.7198C59.4586 19.5832 59.1372 20.845 58.0896 21.2279C57.9393 21.261 56.4405 21.238 54.6149 20.0009C53.008 18.9362 52.0122 17.376 50.463 16.4008C49.4193 15.7436 48.2504 15.5632 47.1742 16.1745C47.1551 15.0537 45.4698 14.4752 45.0742 15.352C44.9976 15.497 44.9938 15.675 45.0351 15.8341C44.9616 15.5243 45.1306 15.1999 45.3794 15.0684C45.9675 14.7567 47.0943 15.3044 47.0718 16.2264C46.6661 16.4996 46.5479 16.551 45.8901 17.2259C45.1094 17.3343 44.0014 16.9827 43.7583 15.8821C43.4971 14.5823 43.7478 13.3755 43.8552 13.1071C44.6137 11.7134 46.3085 11.2342 46.9891 11.5835C47.6671 11.9395 47.9928 13.2042 47.0873 14.0794C46.1828 14.9324 45.3438 14.5212 45.1929 13.8216C45.0976 13.3803 45.3728 12.8737 45.773 12.7911C46.0729 12.7314 46.3722 12.9568 46.4944 13.2596C46.5511 13.3794 46.5383 13.5187 46.5412 13.6495C46.6538 13.1327 46.1695 12.626 45.7214 12.738C45.3113 12.8382 45.0258 13.3359 45.0904 13.7996C45.1622 14.349 45.7366 14.9743 46.6147 14.5999C47.0439 14.4147 47.4254 14.0665 47.6429 13.6052C47.6751 13.8726 47.7363 14.1409 47.8693 14.3691C48.1205 14.8091 48.5492 15.0808 48.9877 15.2182C49.677 15.4297 51.0748 15.5561 51.8736 14.7091C52.8036 13.7415 53.1772 11.7054 51.7908 10.1269C50.523 8.68528 48.3001 8.24465 46.3142 9.29602C46.8254 8.62215 47.2898 7.88226 47.5545 7.03971C48.3377 4.67369 47.0695 1.91226 44.5186 2.42803C43.1667 2.70266 42.0004 3.84515 41.6873 5.24265C41.7927 5.13885 42.8874 3.36181 44.8121 3.31141C45.8492 3.29679 46.4978 3.872 46.7368 4.87734C47.2623 7.07899 45.7057 8.90926 42.3578 13.1582C41.8989 13.7686 41.3686 14.6566 41.6465 15.3958C41.0382 17.0767 42.4341 18.4631 43.4371 18.0484C43.3719 18.0024 43.2916 18.0009 43.2219 17.9682C42.7604 17.7728 42.4513 17.2487 42.3871 16.7091C42.2788 15.8653 42.9961 14.9692 43.3959 14.2682C43.3674 14.8145 43.4159 15.3658 43.5306 15.8974C43.7745 16.9997 44.7323 17.4799 45.728 17.4199C42.6356 21.1433 44.6798 24.9484 46.8092 24.9554C47.895 24.9643 48.8843 24.1123 49.0172 23.0704C49.0321 22.9257 49.1075 22.7993 49.1213 22.6537C49.1923 22.2389 49.055 21.7953 48.7769 21.5143C48.1927 20.9128 47.3757 21.328 47.4026 21.8019C47.5899 21.9169 47.7743 22.0381 47.9491 22.1765C48.1085 22.3056 48.3036 22.3917 48.4188 22.5793C48.5883 22.8462 48.6234 23.2043 48.5306 23.5131C48.7104 23.4453 48.8419 23.288 48.9617 23.1295C48.8701 23.3781 48.7437 23.6122 48.5764 23.8052C47.9443 24.5312 46.8764 24.7776 46.0756 24.2305C45.1839 23.6369 44.6856 22.2832 44.8736 21.0368C45.0744 19.6044 46.0266 18.2439 46.996 17.4565C49.3535 15.5548 51.1863 18.504 53.111 20.1387C55.2734 22.0048 58.128 22.9523 60.6227 21.6161C63.5604 20.6148 66.2121 18.175 68.2331 17.4391C68.4199 17.3596 68.6307 17.385 68.8153 17.4601C69.2012 17.6318 69.4154 18.1481 69.3318 18.5971C69.1806 19.3998 68.2926 19.8553 67.8273 19.4412C67.624 19.2627 67.6242 18.8717 68.0178 18.6899C68.4176 18.5034 68.8546 18.7219 68.8268 19.0213C68.8321 19.1143 68.7607 19.1734 68.7123 19.2362C68.8931 19.1481 68.9532 18.8255 68.6274 18.631C68.0661 18.3247 67.3488 18.8399 67.6237 19.4021C67.8007 19.7752 68.3006 19.8572 68.6535 19.7134C69.6373 19.3162 69.8329 17.9918 69.0894 17.4253C68.9981 17.346 68.8842 17.322 68.782 17.2707C71.0236 16.7742 72.0998 18.3679 71.9832 19.5412C71.6242 19.2959 71.24 19.0546 70.8118 19.0267C70.3784 18.9904 69.914 19.1689 69.6399 19.5612C69.1342 20.2684 69.5746 21.3119 70.4638 21.5696C71.0656 21.748 71.8698 21.4693 72.4111 20.5302C75.0209 22.0442 78.7213 21.8801 79.1924 20.2798C79.49 19.2973 78.367 18.5645 77.8859 18.6355ZM48.2722 9.14922C49.9117 9.03272 51.4196 9.89486 52.0567 11.2368C52.7239 12.6003 52.1626 14.4923 50.9598 14.9099C50.3836 15.1191 49.0367 15.2315 48.2725 14.5845C47.9399 14.306 47.7419 13.8431 47.7454 13.3773C47.7651 13.2473 47.8124 13.1231 47.8188 12.9895C47.8234 12.768 47.9724 12.5984 48.1081 12.4573C48.1222 12.4741 48.1365 12.4915 48.1517 12.5092C48.1334 12.5212 48.0966 12.5449 48.0783 12.557C48.1365 12.5587 48.1919 12.5353 48.2488 12.5221C48.5485 12.4648 48.8673 12.5825 49.0825 12.8241C49.2433 12.9958 49.3211 13.2911 49.8417 13.5265C50.2453 13.7025 50.4197 13.3601 50.4026 13.0195C50.3417 12.0565 49.2225 11.5463 48.3747 12.2598C48.3082 12.3199 48.2307 12.3724 48.1919 12.4612C48.1775 12.4432 48.1642 12.4252 48.1514 12.4075C48.0189 12.485 47.9157 12.6083 47.8273 12.7416C47.8057 12.0741 47.3801 11.1535 46.3036 11.2657C45.3749 11.3669 44.4697 11.9086 43.9401 12.7869C44.5262 10.8633 46.1493 9.29013 48.2722 9.14922ZM43.3954 14.246C42.8425 14.0654 42.0583 14.4373 41.6669 15.3461C41.4921 14.6544 42.1184 13.8675 42.5817 13.3827C43.0179 12.9532 43.4508 12.5189 43.8781 12.0785C43.5985 12.7583 43.4364 13.4982 43.3954 14.246ZM70.5647 20.8294C70.0737 20.6535 69.9006 20.1504 70.214 19.8782C70.7235 19.4221 71.3537 19.8485 71.7975 20.1339C71.4695 20.7531 70.9276 20.9616 70.5647 20.8294Z" fill="#28382D"/>
<path d="M34.0757 2.88345C34.172 2.96509 34.3303 2.88645 34.3439 2.75198C34.3593 2.61389 34.2119 2.48242 34.1004 2.55656C33.9932 2.61539 33.9756 2.80721 34.0757 2.88345Z" fill="#28382D"/>
<path d="M47.971 2.88906C48.0309 3.00763 48.2062 3.01903 48.264 2.89146C48.3401 2.75369 48.2073 2.55166 48.0681 2.615C47.9745 2.65075 47.9109 2.79001 47.971 2.88906Z" fill="#28382D"/>
<path d="M40.709 3.20154C40.7622 3.06918 40.6372 2.90739 40.5137 2.947C40.4041 2.9752 40.3423 3.13791 40.4139 3.24175C40.4834 3.36182 40.6665 3.33691 40.709 3.20154Z" fill="#28382D"/>
<path d="M41.6477 3.2966C41.7485 3.38035 41.9093 3.2852 41.9058 3.14411C41.914 3.00513 41.7615 2.89407 41.6559 2.97421C41.5489 3.03637 41.5394 3.22968 41.6477 3.2966Z" fill="#28382D"/>
<path d="M34.0671 3.58931C34.1584 3.65565 34.2867 3.5605 34.2881 3.44372C34.2865 3.32876 34.16 3.24111 34.0703 3.30023C33.9703 3.35335 33.9719 3.53104 34.0671 3.58931Z" fill="#28382D"/>
<path d="M48.0945 3.36343C48.012 3.39614 47.9692 3.52043 48.0261 3.60118C48.083 3.70952 48.2408 3.69962 48.2805 3.57837C48.3366 3.45108 48.2094 3.30188 48.0945 3.36343Z" fill="#28382D"/>
<path d="M41.0151 3.80249C41.0545 3.67191 40.9119 3.53894 40.8062 3.61218C40.7267 3.65961 40.6993 3.79258 40.7671 3.86611C40.8366 3.95915 40.988 3.92134 41.0151 3.80249Z" fill="#28382D"/>
<path d="M41.5406 3.83271C41.6034 3.71203 41.4781 3.55085 41.3634 3.60429C41.2772 3.63671 41.2312 3.76819 41.2905 3.85223C41.3472 3.95246 41.4962 3.94045 41.5406 3.83271Z" fill="#28382D"/>
<path d="M34.3113 3.9937C34.2229 4.02973 34.2189 4.17651 34.2964 4.22962C34.3661 4.29865 34.4763 4.22873 34.4859 4.13297C34.505 4.02913 34.3908 3.94116 34.3113 3.9937Z" fill="#28382D"/>
<path d="M48.035 4.13614C48.0107 4.0569 47.9202 4.02387 47.8572 4.06262C47.7728 4.10794 47.7786 4.25203 47.8558 4.30214C47.9447 4.37445 48.0762 4.24749 48.035 4.13614Z" fill="#28382D"/>
<path d="M41.0297 4.53066C41.1127 4.60419 41.2888 4.57538 41.2926 4.43222C41.2952 4.30286 41.1598 4.26472 41.0701 4.29803C40.9847 4.32623 40.957 4.46911 41.0297 4.53066Z" fill="#28382D"/>
<path d="M39.5734 5.07187C40.3132 5.25692 40.5651 5.53802 40.7927 5.93154C40.6493 5.223 39.3733 4.59621 38.6968 4.94612C38.0976 5.2349 37.8691 6.19273 37.8871 6.92598C37.9534 8.80675 39.2331 9.87097 39.9638 10.9809C40.2802 11.444 40.5516 11.9432 40.8201 12.4426C40.7505 12.246 40.3706 11.4823 39.9765 10.8512C39.3016 9.7569 38.1437 8.70599 38.079 6.95508C38.0659 6.51083 38.1354 6.05608 38.3147 5.65777C38.5859 5.0753 39.0029 4.93389 39.5734 5.07187Z" fill="#28382D"/>
<path d="M44.1322 8.16773C44.5677 6.94063 44.3571 5.84375 43.9478 5.28888C43.5206 4.70062 42.8628 4.80471 42.2354 5.09978C41.9041 5.26007 41.5933 5.54431 41.472 5.93722C41.6414 5.66628 41.8322 5.29259 42.7061 5.08627C43.2818 4.95534 43.6991 5.10922 43.96 5.69469C44.3887 6.67998 44.1608 7.88102 43.6487 8.82627C43.073 9.89784 42.178 10.6406 41.4124 12.4171C41.7112 11.8765 42.0135 11.3362 42.3709 10.8413C42.954 10.0095 43.7297 9.30125 44.1322 8.16773Z" fill="#28382D"/>
<path d="M33.2904 7.34291C32.3839 6.46493 31.7805 5.57523 31.0496 5.18836C30.2631 4.76956 29.6758 4.91501 29.9867 5.57526C30.5831 6.76608 32.0992 6.84054 33.2904 7.34291Z" fill="#28382D"/>
<path d="M51.9989 6.08492C52.7585 5.25381 52.2859 4.70404 51.1785 5.312C50.4923 5.68919 50.011 6.39973 48.9653 7.42305C50.117 6.94035 51.2052 6.94617 51.9989 6.08492Z" fill="#28382D"/>
<path d="M33.9906 7.45673C34.2198 7.60411 34.4739 7.68725 34.7227 7.78062C34.0211 6.87455 34.543 6.20879 33.9619 5.53811C33.4881 4.99128 32.9801 5.80391 33.2378 6.56614C33.3792 6.95637 33.6697 7.25445 33.9906 7.45673Z" fill="#28382D"/>
<path d="M47.5406 7.83487C47.7846 7.75595 48.0297 7.6707 48.254 7.53383C49.7333 6.63054 48.9454 4.89628 48.319 5.5975C47.7275 6.25214 48.2277 6.9629 47.5406 7.83487Z" fill="#28382D"/>
<path d="M40.9323 12.3321C41.1299 11.2053 40.9031 9.9472 40.2354 9.17499C39.8927 8.76067 39.5948 8.59917 39.5113 7.88069C39.432 7.09894 39.7438 6.56166 40.023 6.51826C40.3856 6.52148 40.7004 7.07639 40.8027 7.22455C40.9384 6.7515 40.7828 6.1983 40.4344 5.89604C39.973 5.48783 39.3325 5.69691 38.9509 6.22293C38.3447 7.05358 38.4523 8.41312 39.0549 9.1603C39.4706 9.68776 39.9101 9.70413 40.3796 10.5459C40.8702 11.4301 40.8936 12.2312 40.9323 12.3321Z" fill="#28382D"/>
<path d="M42.0305 9.15891C41.3095 9.95245 41.0897 11.3127 41.2953 12.3343C41.3475 11.8724 41.4592 11.4173 41.6367 10.9962C42.082 9.93826 42.5391 9.79482 42.94 9.43683C43.7183 8.76245 43.8778 7.52742 43.5451 6.67264C43.1905 5.75548 42.3599 5.45633 41.8453 5.89403C41.4877 6.1894 41.3222 6.74738 41.4568 7.22526C41.5609 7.08053 41.8423 6.57748 42.2067 6.52891C42.4541 6.51643 42.7771 6.99671 42.7569 7.67612C42.7337 8.53193 42.381 8.75073 42.0305 9.15891Z" fill="#28382D"/>
<path d="M31.8522 8.93182C32.4323 8.87495 32.6159 8.61219 33.0225 8.44287C33.3333 8.30389 33.6836 8.24988 34.0098 8.35222C33.8091 8.13339 33.575 7.95363 33.3243 7.81615C31.5765 6.89139 30.5879 8.99163 31.8522 8.93182Z" fill="#28382D"/>
<path d="M48.24 8.42158C49.0211 8.19117 49.5943 8.79726 50.0061 8.93606C50.842 9.21881 51.1217 8.79312 50.8829 8.30362C50.4596 7.45882 49.1975 7.41078 48.24 8.42158Z" fill="#28382D"/>
<path d="M30.59 8.71318C30.5442 8.73448 30.5107 8.80172 30.542 8.85276C30.571 8.9191 30.6594 8.92779 30.694 8.86177C30.7513 8.78792 30.6645 8.67207 30.59 8.71318Z" fill="#28382D"/>
<path d="M30.9799 8.70006C30.8757 8.74149 30.9712 8.92518 31.0531 8.84533C31.1321 8.79282 31.0592 8.65746 30.9799 8.70006Z" fill="#28382D"/>
<path d="M30.1878 8.80379C30.1159 8.84611 30.1231 8.97158 30.1973 9.00611C30.2777 9.05773 30.3812 8.93887 30.3338 8.84944C30.3088 8.78878 30.2362 8.76776 30.1878 8.80379Z" fill="#28382D"/>
<path d="M51.2102 8.79757C51.1066 8.82848 51.1803 9.00767 51.2698 8.95334C51.3549 8.9098 51.2942 8.75971 51.2102 8.79757Z" fill="#28382D"/>
<path d="M51.5798 8.8234C51.472 8.87802 51.5769 9.07374 51.6708 8.99542C51.7738 8.93536 51.6727 8.75195 51.5798 8.8234Z" fill="#28382D"/>
<path d="M51.9507 8.90702C51.8837 8.94723 51.8855 9.06701 51.9526 9.10633C52.0189 9.16456 52.1163 9.08203 52.1091 8.99588C52.0987 8.91842 52.0122 8.85991 51.9507 8.90702Z" fill="#28382D"/>
<path d="M29.8154 9.16687C29.8784 9.22092 29.9729 9.1687 29.9899 9.08613C30.02 8.97986 29.8936 8.87452 29.8146 8.94655C29.7406 8.99219 29.7411 9.12187 29.8154 9.16687Z" fill="#28382D"/>
<path d="M52.3294 9.04103C52.2474 9.06923 52.2218 9.2016 52.2897 9.26283C52.3483 9.33307 52.4556 9.29225 52.4803 9.20488C52.5133 9.10977 52.4119 9.00321 52.3294 9.04103Z" fill="#28382D"/>
<path d="M29.6512 9.33039C29.706 9.22053 29.5953 9.08094 29.4923 9.12655C29.4189 9.15569 29.3715 9.26704 29.4226 9.34269C29.4705 9.43903 29.6129 9.43513 29.6512 9.33039Z" fill="#28382D"/>
<path d="M52.624 9.49151C52.6908 9.56714 52.814 9.51463 52.8361 9.41555C52.8673 9.3006 52.7379 9.18204 52.6461 9.25077C52.5665 9.2952 52.5538 9.42906 52.624 9.49151Z" fill="#28382D"/>
<path d="M29.3516 9.59503C29.4069 9.47496 29.2893 9.3228 29.1768 9.3717C29.0845 9.40233 29.0379 9.54971 29.1098 9.63074C29.1734 9.72143 29.3109 9.70191 29.3516 9.59503Z" fill="#28382D"/>
<path d="M53.1608 9.68386C53.1911 9.56351 53.0701 9.43954 52.9671 9.49177C52.8727 9.5293 52.8452 9.68207 52.9174 9.75921C52.9895 9.84653 53.1376 9.8006 53.1608 9.68386Z" fill="#28382D"/>
<path d="M29.0919 9.89295C29.1374 9.75726 29.003 9.60781 28.8838 9.66965C28.7855 9.70897 28.7467 9.86926 28.8233 9.9539C28.8992 10.0493 29.0583 10.0205 29.0919 9.89295Z" fill="#28382D"/>
<path d="M53.1882 10.0837C53.2718 10.181 53.4389 10.1173 53.4535 9.98257C53.4746 9.85048 53.3415 9.73134 53.2326 9.79047C53.1326 9.83669 53.1041 10.0039 53.1882 10.0837Z" fill="#28382D"/>
<path d="M28.593 10.3302C28.679 10.4146 28.8304 10.3755 28.8674 10.251C28.9201 10.1075 28.7756 9.93729 28.6465 10.0027C28.5284 10.0456 28.4914 10.2452 28.593 10.3302Z" fill="#28382D"/>
<path d="M53.4066 10.4408C53.4984 10.5575 53.7041 10.4792 53.6998 10.3174C53.7121 10.1856 53.5827 10.0737 53.4734 10.1217C53.3605 10.164 53.3166 10.3474 53.4066 10.4408Z" fill="#28382D"/>
<path d="M28.4022 10.7338C28.4962 10.8169 28.6547 10.7749 28.693 10.6429C28.7574 10.4772 28.568 10.2862 28.431 10.3859C28.3174 10.4489 28.2961 10.651 28.4022 10.7338Z" fill="#28382D"/>
<path d="M53.5697 10.8253C53.6578 10.9583 53.876 10.9033 53.8962 10.7349C53.9284 10.5861 53.7786 10.4309 53.6522 10.4972C53.5383 10.5431 53.4835 10.7199 53.5697 10.8253Z" fill="#28382D"/>
<path d="M28.2795 11.1357C28.3695 11.2216 28.5249 11.1642 28.5544 11.036C28.6004 10.8805 28.4213 10.7248 28.3008 10.8163C28.2005 10.8799 28.1861 11.0571 28.2795 11.1357Z" fill="#28382D"/>
<path d="M53.7864 10.9278C53.6835 10.9644 53.6292 11.1202 53.7005 11.2186C53.7721 11.3441 53.966 11.3207 54.0035 11.1733C54.0543 11.0322 53.9134 10.8602 53.7864 10.9278Z" fill="#28382D"/>
<path d="M28.22 11.56C28.3121 11.6444 28.4686 11.5604 28.4718 11.4277C28.4851 11.2986 28.3432 11.1894 28.2429 11.256C28.1397 11.3085 28.1269 11.488 28.22 11.56Z" fill="#28382D"/>
<path d="M53.8451 11.3818C53.7456 11.4274 53.7217 11.5928 53.8044 11.6703C53.8829 11.7603 54.0334 11.718 54.0627 11.5949C54.1079 11.4572 53.9605 11.3029 53.8451 11.3818Z" fill="#28382D"/>
<path d="M21.3696 11.6034C22.7474 11.4606 25.0324 12.8762 25.2738 14.8128C25.2775 14.7999 25.2818 14.7869 25.2864 14.7743C25.2195 12.8837 23.2594 11.6261 22.0636 11.4245C20.2626 11.0911 18.5419 12.8964 18.669 15.2363C18.7009 13.1648 19.9241 11.75 21.3696 11.6034Z" fill="#28382D"/>
<path d="M59.4204 12.0573C60.5201 11.5802 61.4682 11.753 62.2624 12.4244C63.5256 13.4768 63.5015 15.1607 63.5354 15.4492C63.5309 15.2397 63.5436 15.0296 63.5208 14.8215C63.3288 12.7929 61.921 11.5436 60.5127 11.5804C59.1214 11.6033 56.9315 13.0518 56.9155 14.9695C56.953 14.832 56.9709 14.6889 57.0103 14.552C57.3339 13.3658 58.404 12.5194 59.4204 12.0573Z" fill="#28382D"/>
<path d="M28.2167 11.9904C28.3005 12.0598 28.4299 11.9868 28.4405 11.8731C28.4581 11.7458 28.313 11.6422 28.2191 11.7161C28.1326 11.7743 28.1278 11.9319 28.2167 11.9904Z" fill="#28382D"/>
<path d="M53.8701 11.8324C53.7668 11.8723 53.7514 12.0464 53.843 12.1109C53.9257 12.1884 54.0636 12.1169 54.0702 11.9975C54.0843 11.8789 53.9664 11.7784 53.8701 11.8324Z" fill="#28382D"/>
<path d="M28.462 12.2691C28.4516 12.1707 28.3444 12.119 28.2699 12.1625C28.1847 12.2106 28.178 12.3604 28.2603 12.4159C28.3478 12.4882 28.482 12.3877 28.462 12.2691Z" fill="#28382D"/>
<path d="M54.0103 12.4655C54.0483 12.3553 53.9424 12.2328 53.8442 12.2791C53.762 12.3055 53.7279 12.4294 53.7825 12.5039C53.8376 12.5982 53.9821 12.5753 54.0103 12.4655Z" fill="#28382D"/>
<path d="M28.3513 12.826C28.4226 12.8948 28.5405 12.8206 28.5387 12.7189C28.5416 12.618 28.4219 12.5472 28.3521 12.6141C28.2877 12.6618 28.2877 12.7771 28.3513 12.826Z" fill="#28382D"/>
<path d="M53.7162 12.9411C53.7782 13.0141 53.9014 12.9667 53.9097 12.8655C53.9297 12.7635 53.8158 12.6695 53.738 12.731C53.6672 12.7686 53.6579 12.8853 53.7162 12.9411Z" fill="#28382D"/>
<path d="M28.5049 13.2283C28.5667 13.2802 28.6596 13.2202 28.6646 13.1377C28.6745 13.0509 28.5747 12.9789 28.5108 13.0305C28.4421 13.0674 28.4411 13.1848 28.5049 13.2283Z" fill="#28382D"/>
<path d="M53.6056 13.1499C53.533 13.1832 53.5306 13.3024 53.5936 13.3486C53.654 13.4038 53.7524 13.3444 53.7532 13.2594C53.7639 13.1727 53.671 13.109 53.6056 13.1499Z" fill="#28382D"/>
<path d="M27.7169 16.7491C28.6122 17.4784 29.749 17.4318 30.1578 16.7104C29.0958 16.3385 28.1027 15.7219 27.2539 14.9127C27.4258 15.0122 28.5482 15.9172 30.2831 16.2445C30.2644 15.4396 29.6838 14.8 29.0306 14.5021C28.3181 14.1741 27.274 14.4252 25.7488 13.2222C26.097 14.2494 26.937 16.106 27.7169 16.7491Z" fill="#28382D"/>
<path d="M28.7858 13.6068C28.8899 13.5648 28.8295 13.3711 28.7243 13.4186C28.607 13.4516 28.6778 13.6659 28.7858 13.6068Z" fill="#28382D"/>
<path d="M51.9094 16.3525C52.9794 16.1562 54.0089 15.7069 54.9267 15.0582C54.8402 15.1611 53.7567 16.2121 52.0257 16.8223C52.4713 17.5783 53.5592 17.5268 54.3381 16.9768C55.195 16.3952 56.0918 14.433 56.4622 13.3755C54.9328 14.5401 53.9339 14.3133 53.2327 14.5941C52.457 14.9109 51.9016 15.6403 51.9094 16.3525Z" fill="#28382D"/>
<path d="M53.4187 13.5438C53.3676 13.5702 53.3479 13.6521 53.3908 13.6989C53.4272 13.7554 53.5129 13.7419 53.5371 13.6776C53.5826 13.5981 53.4884 13.4993 53.4187 13.5438Z" fill="#28382D"/>
<path d="M28.9627 13.7815C28.8656 13.8199 28.9366 13.9877 29.0247 13.9373C29.1104 13.8919 29.0487 13.7349 28.9627 13.7815Z" fill="#28382D"/>
<path d="M15.0868 16.5153C15.0865 16.4802 15.0601 16.458 15.0437 16.4325C14.6835 15.9722 14.4742 15.3358 14.4604 15.1175C14.6054 15.6097 14.8499 16.0693 15.1943 16.4166C15.2563 16.2968 15.2927 16.1593 15.2845 16.0197C15.237 15.1027 14.5031 14.9957 14.4151 13.77C14.3252 13.9351 14.0899 14.6229 14.1078 15.3579C14.1109 16.1094 14.6917 16.6867 15.0868 16.5153Z" fill="#28382D"/>
<path d="M53.2569 14.049C53.34 13.9956 53.2585 13.8491 53.1789 13.9043C53.0858 13.9523 53.1755 14.119 53.2569 14.049Z" fill="#28382D"/>
<path d="M67.7421 15.3617C67.6514 16.015 67.1887 16.6285 67.0911 16.7697C67.466 16.911 67.8401 16.5304 67.9946 16.1127C68.2073 15.5734 68.0302 14.5607 67.7903 14.0308C67.7073 15.1954 67.0658 15.2782 66.9202 16.1286C66.8912 16.312 66.8984 16.5158 66.999 16.6722C67.2174 16.4166 67.5038 16.1226 67.7421 15.3617Z" fill="#28382D"/>
<path d="M15.8986 16.9927C15.8408 16.6309 15.7913 16.2636 15.802 15.8953C15.8563 16.2519 15.906 16.6139 16.0204 16.9539C16.2674 16.863 16.41 16.5442 16.3704 16.2624C16.3485 16.0706 16.2325 15.9202 16.1479 15.7599C16.0093 15.5147 15.9169 15.2403 15.8523 14.96C15.6857 15.2854 15.5449 15.6278 15.4233 15.9772C15.2577 16.4317 15.4633 16.9794 15.8986 16.9927Z" fill="#28382D"/>
<path d="M66.1589 17.2098C66.272 16.873 66.3341 16.5182 66.3798 16.1631C66.4006 16.523 66.3425 16.8832 66.283 17.2362C66.6755 17.2489 66.951 16.7228 66.7598 16.2048C66.6401 15.8635 66.5084 15.5247 66.3437 15.208C66.1538 16.0563 65.8022 16.2107 65.8123 16.5887C65.7986 16.8535 65.9485 17.1011 66.1589 17.2098Z" fill="#28382D"/>
<path d="M9.3928 17.2146C9.58065 17.2215 9.7789 17.2185 9.9479 17.1131C9.94736 17.1065 9.94577 17.093 9.94498 17.0861C9.29383 16.7094 8.56178 16.5092 7.83002 16.5116C8.06164 16.4616 9.05087 16.4751 10.0323 16.9817C10.0919 16.564 9.45725 16.0834 8.7619 15.9812C7.94052 15.8608 6.73805 16.408 6.03943 16.9144C7.52428 16.5318 8.10838 17.1411 9.3928 17.2146Z" fill="#28382D"/>
<path d="M74.3117 16.8229C74.312 16.8265 74.3123 16.8337 74.3125 16.8376C73.5877 16.8367 72.8644 17.0303 72.218 17.4007C72.6009 17.696 73.7537 17.3859 74.2452 17.2519C74.8647 17.0838 75.5225 17.0793 76.1396 17.2648C75.9113 17.0602 75.0354 16.5145 74.0847 16.3231C73.1068 16.1198 72.1157 16.7316 72.144 17.2825C72.2857 17.2288 73.1284 16.7615 74.3117 16.8229Z" fill="#28382D"/>
<path d="M18.4912 18.3802C18.5115 17.9534 18.5133 17.5071 18.3587 17.1081C18.1441 16.5342 17.6008 16.4355 17.3654 16.7233C17.1711 16.9665 17.1996 17.3657 17.3741 17.613C17.5574 17.8832 18.1068 17.8566 18.4912 18.3802Z" fill="#28382D"/>
<path d="M43.5073 19.093C42.9787 18.8388 41.8879 18.4497 41.0957 16.5825C40.6783 17.4875 40.2084 18.1822 39.3958 18.7065C39.1576 18.862 38.8958 18.9604 38.642 19.076C39.4972 20.0261 40.6383 21.133 40.7596 22.5824C40.7641 22.5818 40.7734 22.5806 40.7779 22.58C40.7791 21.2401 40.1088 20.232 39.3011 19.2347C40.0527 18.911 40.9512 17.9592 41.0941 16.7113C41.1941 17.7471 41.8876 18.7796 42.8684 19.2567C42.0831 20.1704 41.3117 21.3532 41.3716 22.6175C41.4074 22.4606 41.4113 22.0054 41.7681 21.3139C42.2117 20.4627 42.8796 19.8089 43.4983 19.1264C43.5004 19.118 43.505 19.1014 43.5073 19.093Z" fill="#28382D"/>
<path d="M64.7868 17.8667C65.1138 17.4505 64.9317 16.7024 64.398 16.802C63.7405 16.8986 63.6444 17.8609 63.6828 18.6029C64.0276 18.1152 64.6052 18.0986 64.7868 17.8667Z" fill="#28382D"/>
<path d="M26.9038 18.8684C27.5942 19.035 28.2356 18.6983 28.3714 18.1573C27.5936 18.121 26.8195 17.9748 26.0765 17.7119C26.2662 17.7182 27.0491 17.9382 28.3751 17.7938C28.3131 17.5114 28.138 17.2748 27.9227 17.1218C26.9491 16.4238 26.5125 17.3674 24.6438 17.1191C25.1192 17.6172 26.2657 18.7329 26.9038 18.8684Z" fill="#28382D"/>
<path d="M55.549 18.9144C56.1154 18.6483 57.0792 17.7527 57.5363 17.2838C55.976 17.4669 55.495 16.8762 54.8161 17.0212C54.3739 17.0938 53.9257 17.4078 53.7993 17.9151C55.0474 18.0801 55.9183 17.8654 56.0979 17.8623C55.3529 18.1117 54.5801 18.2573 53.8028 18.2807C53.946 18.897 54.7579 19.2563 55.549 18.9144Z" fill="#28382D"/>
<path d="M39.719 19.334C40.0098 19.4499 40.2389 19.4296 40.5157 20.3005C40.8715 21.4405 40.9361 22.0034 41.0189 22.29C40.9487 21.604 40.7312 20.2269 40.4646 19.6927C40.3864 19.524 40.2679 19.3859 40.1341 19.2725C40.9098 18.6651 41.0498 17.8458 41.0958 17.7552C41.2238 18.3768 41.5817 18.9162 42.0341 19.2902C41.7382 19.494 41.6006 19.8782 41.5037 20.2354C41.2773 21.0847 41.1422 22.0106 41.1306 22.2915C41.2762 21.5735 41.4548 20.8627 41.6865 20.1735C41.9512 19.4388 42.1711 19.4532 42.4494 19.3466C42.1764 19.1182 41.5531 18.7679 41.1144 17.6087C41.1227 17.5496 41.1299 17.4901 41.1357 17.4307C41.1235 17.4538 41.0995 17.5003 41.0873 17.5235C41.0721 17.4916 41.0575 17.4604 41.0431 17.4292C41.0463 17.4964 41.0676 17.5658 41.0532 17.6327C40.5974 18.8239 39.8621 19.1939 39.719 19.334Z" fill="#28382D"/>
<path d="M1.42118 18.021C0.748677 17.6611 0.165755 18.1606 0.572041 18.7684C1.03553 19.4564 1.73221 19.1102 2.46854 19.7265C2.26481 19.1247 1.95419 18.3155 1.42118 18.021Z" fill="#28382D"/>
<path d="M37.8497 17.9794C37.7757 18.0151 37.7624 18.1412 37.8313 18.192C37.8901 18.2463 37.9859 18.2019 38.0032 18.1211C38.0279 18.028 37.9255 17.9278 37.8497 17.9794Z" fill="#28382D"/>
<path d="M44.3874 18.1189C44.3887 18.0376 44.2998 17.9646 44.2352 18.0091C44.1513 18.0454 44.1457 18.194 44.2314 18.2315C44.2975 18.2801 44.3959 18.2063 44.3874 18.1189Z" fill="#28382D"/>
<path d="M33.3716 18.2679C33.4144 18.1232 33.2606 17.9746 33.1401 18.0422C33.0249 18.0902 32.9988 18.2838 33.0993 18.3661C33.1872 18.4582 33.3439 18.397 33.3716 18.2679Z" fill="#28382D"/>
<path d="M48.8691 18.1392C48.7621 18.2148 48.7773 18.4135 48.8939 18.4681C49.0079 18.5408 49.1585 18.4126 49.1367 18.2697C49.1229 18.1338 48.9666 18.0528 48.8691 18.1392Z" fill="#28382D"/>
<path d="M17.1965 19.4511C16.2669 18.8866 16.077 18.0807 15.3436 18.2651C15.0246 18.357 14.9012 18.6725 15.0738 19.0366C15.4917 19.9016 16.5907 19.5398 17.1965 19.4511Z" fill="#28382D"/>
<path d="M80.8375 18.3139C80.1438 18.4506 79.7689 19.4139 79.5177 20.1065C80.2603 19.4893 81.0557 19.8533 81.477 19.0772C81.7349 18.599 81.3723 18.1916 80.8375 18.3139Z" fill="#28382D"/>
<path d="M38.147 18.5005C38.0709 18.5512 38.0624 18.6917 38.1406 18.7448C38.2172 18.8132 38.3482 18.7412 38.3439 18.6298C38.3508 18.5206 38.2284 18.4323 38.147 18.5005Z" fill="#28382D"/>
<path d="M43.8708 18.7644C43.9456 18.8451 44.0865 18.7782 44.085 18.6602C44.0929 18.5524 43.9735 18.4621 43.8918 18.5263C43.8168 18.5732 43.8005 18.7034 43.8708 18.7644Z" fill="#28382D"/>
<path d="M67.0993 19.2777C67.2686 18.9089 67.1333 18.5986 66.8215 18.5153C66.0989 18.3231 65.8625 19.1659 64.97 19.6829C65.5959 19.7895 66.6857 20.1463 67.0993 19.2777Z" fill="#28382D"/>
<path d="M32.4783 18.7118C32.3317 18.7793 32.3237 19.0374 32.4658 19.1161C32.596 19.2106 32.7828 19.0723 32.7663 18.9012C32.7596 18.7475 32.5999 18.6448 32.4783 18.7118Z" fill="#28382D"/>
<path d="M49.5311 18.7904C49.4084 18.8406 49.3584 19.0318 49.4475 19.1438C49.5359 19.2794 49.7469 19.2425 49.7935 19.0813C49.8622 18.9081 49.6825 18.71 49.5311 18.7904Z" fill="#28382D"/>
<path d="M38.436 19.0349C38.3221 19.067 38.2891 19.2606 38.3897 19.3332C38.4719 19.4065 38.6103 19.348 38.6257 19.2297C38.6505 19.1108 38.539 18.9934 38.436 19.0349Z" fill="#28382D"/>
<path d="M43.6263 19.0676C43.5217 19.1141 43.5071 19.2979 43.6045 19.3627C43.6947 19.4377 43.8373 19.356 43.8382 19.2303C43.8442 19.1102 43.7234 19.0136 43.6263 19.0676Z" fill="#28382D"/>
<path d="M31.8391 19.3403C31.5845 19.4187 31.6304 19.8387 31.8796 19.8547C32.0105 19.8721 32.1395 19.7422 32.1348 19.5924C32.1393 19.4258 31.9799 19.2913 31.8391 19.3403Z" fill="#28382D"/>
<path d="M50.2014 19.4302C50.0317 19.4725 49.9689 19.7421 50.099 19.8724C50.2126 20.0051 50.4348 19.9474 50.4822 19.7688C50.55 19.58 50.3723 19.369 50.2014 19.4302Z" fill="#28382D"/>
<path d="M38.5973 19.6333C38.488 19.6997 38.4861 19.9002 38.5997 19.9629C38.7146 20.0484 38.8799 19.9182 38.8512 19.7675C38.8398 19.6375 38.6929 19.5589 38.5973 19.6333Z" fill="#28382D"/>
<path d="M43.4393 19.6342C43.3238 19.6586 43.2679 19.8297 43.3401 19.9335C43.4101 20.0542 43.5958 20.0274 43.6371 19.8906C43.69 19.7561 43.5644 19.5937 43.4393 19.6342Z" fill="#28382D"/>
<path d="M18.2025 20.1794C17.325 19.8767 16.3639 19.6391 15.5048 20.1491C14.4293 20.7832 14.4123 22.1753 14.8262 22.2541C14.959 22.273 15.0724 22.1718 15.1677 22.0806C15.5286 21.7101 16.1282 20.9831 16.6331 20.6732C17.1216 20.3715 17.678 20.2058 18.2353 20.204C18.227 20.1977 18.2105 20.1853 18.2025 20.1794Z" fill="#28382D"/>
<path d="M31.1188 19.965C30.9352 20.0362 30.895 20.3414 31.0491 20.4723C31.1954 20.6212 31.4605 20.5059 31.4786 20.2844C31.5158 20.068 31.2965 19.8723 31.1188 19.965Z" fill="#28382D"/>
<path d="M50.8616 20.0549C50.6684 20.1099 50.6101 20.4259 50.7676 20.5628C50.9007 20.703 51.1433 20.6285 51.1923 20.4298C51.2681 20.2122 51.0539 19.9718 50.8616 20.0549Z" fill="#28382D"/>
<path d="M66.0451 20.1545C65.3296 19.9864 64.5995 20.1812 63.9148 20.4174C66.0974 20.5249 66.6612 22.3882 67.2455 22.5108C67.5273 22.5754 67.7616 21.9237 67.3573 21.1525C67.0803 20.6188 66.5768 20.2698 66.0451 20.1545Z" fill="#28382D"/>
<path d="M38.7306 20.2372C38.617 20.3068 38.6021 20.5073 38.7109 20.5905C38.8144 20.6859 38.9917 20.6169 39.0124 20.4647C39.0547 20.293 38.8618 20.1342 38.7306 20.2372Z" fill="#28382D"/>
<path d="M43.5165 20.4921C43.5516 20.3411 43.4103 20.1892 43.2783 20.237C43.1479 20.273 43.0949 20.4738 43.1867 20.5846C43.278 20.7172 43.4893 20.6557 43.5165 20.4921Z" fill="#28382D"/>
<path d="M30.4009 20.5431C30.1226 20.6598 30.1671 21.1208 30.4445 21.1807C30.6292 21.2329 30.8267 21.0414 30.8038 20.8265C30.794 20.611 30.5763 20.4615 30.4009 20.5431Z" fill="#28382D"/>
<path d="M17.9396 21.9746C18.7839 22.122 18.6454 21.1255 19.4543 20.8985C19.3832 20.8415 19.297 20.8193 19.2169 20.7839C17.6202 20.1497 17.1153 21.8101 17.9396 21.9746Z" fill="#28382D"/>
<path d="M51.5271 20.6525C51.3917 20.7161 51.3113 20.9028 51.3635 21.0607C51.409 21.2282 51.583 21.332 51.7312 21.2771C51.8898 21.2297 51.9808 21.0172 51.9246 20.8455C51.874 20.6675 51.6763 20.5717 51.5271 20.6525Z" fill="#28382D"/>
<path d="M38.8357 20.836C38.6845 20.8852 38.6409 21.1374 38.7708 21.2418C38.8804 21.3508 39.0739 21.2848 39.1055 21.1212C39.1556 20.9473 38.9871 20.7666 38.8357 20.836Z" fill="#28382D"/>
<path d="M43.169 20.8604C43.0322 20.918 42.9936 21.1395 43.1017 21.2506C43.2103 21.3859 43.4327 21.3013 43.4564 21.1242C43.4918 20.9504 43.3125 20.7854 43.169 20.8604Z" fill="#28382D"/>
<path d="M62.6971 21.109C63.0566 21.2147 63.3025 21.5569 63.502 21.8888C63.7592 22.3546 64.52 22.311 64.5904 21.8108C64.6265 21.5671 64.5193 21.3231 64.3666 21.1568C63.9706 20.7207 63.2004 20.8328 62.6971 21.109Z" fill="#28382D"/>
<path d="M29.656 21.0791C29.494 21.1424 29.4024 21.3618 29.462 21.5431C29.5118 21.7331 29.713 21.8454 29.8772 21.7736C30.0344 21.7178 30.135 21.514 30.09 21.3342C30.0475 21.128 29.8303 20.9981 29.656 21.0791Z" fill="#28382D"/>
<path d="M52.2451 21.1981C52.0958 21.2693 52.0083 21.4761 52.0658 21.6502C52.1179 21.848 52.3335 21.9612 52.5011 21.8774C52.6701 21.806 52.7531 21.5622 52.6746 21.3797C52.6065 21.2005 52.4011 21.1135 52.2451 21.1981Z" fill="#28382D"/>
<path d="M38.6777 21.7221C38.6841 21.889 38.8592 22.0139 38.9951 21.9455C39.1176 21.8929 39.1764 21.7104 39.1114 21.582C39.0018 21.3265 38.6538 21.4541 38.6777 21.7221Z" fill="#28382D"/>
<path d="M43.0909 21.9238C43.2261 22.0709 43.48 21.9319 43.4701 21.723C43.4752 21.542 43.2855 21.4084 43.1428 21.4868C42.9927 21.5582 42.9624 21.8104 43.0909 21.9238Z" fill="#28382D"/>
<path d="M28.9336 21.5495C28.766 21.5855 28.6377 21.7686 28.6497 21.9616C28.6502 22.1723 28.82 22.3596 29.0079 22.3497C29.2032 22.3563 29.3772 22.1537 29.3674 21.934C29.3671 21.6915 29.1417 21.494 28.9336 21.5495Z" fill="#28382D"/>
<path d="M53.0206 21.6812C52.8641 21.7401 52.7542 21.9301 52.7805 22.1162C52.8018 22.3254 52.9854 22.4908 53.1717 22.4656C53.3862 22.4553 53.5448 22.1888 53.4841 21.9598C53.4402 21.738 53.2082 21.5987 53.0206 21.6812Z" fill="#28382D"/>
<path d="M28.114 21.9814C27.9166 22.0349 27.7851 22.2804 27.8336 22.5028C27.8665 22.7102 28.0491 22.866 28.2351 22.8477C28.4437 22.8408 28.623 22.6178 28.6044 22.3824C28.597 22.1159 28.3413 21.9073 28.114 21.9814Z" fill="#28382D"/>
<path d="M38.588 22.3217C38.5696 22.4972 38.7298 22.6539 38.8807 22.6236C39.0172 22.5969 39.1167 22.4276 39.0803 22.2751C39.0206 21.9522 38.5939 22.0194 38.588 22.3217Z" fill="#28382D"/>
<path d="M43.556 22.3523C43.5555 22.1686 43.3737 22.0393 43.2237 22.096C43.0411 22.1536 42.9959 22.4559 43.1467 22.5826C43.2974 22.7449 43.5733 22.5804 43.556 22.3523Z" fill="#28382D"/>
<path d="M53.7899 22.1232C53.6153 22.1958 53.4982 22.4197 53.5442 22.6272C53.5847 22.8523 53.7963 23.0128 53.9969 22.9678C54.2194 22.9342 54.3695 22.6524 54.3019 22.4131C54.2495 22.1715 53.9932 22.0262 53.7899 22.1232Z" fill="#28382D"/>
<path d="M27.2872 22.3432C27.0653 22.3991 26.9258 22.6809 26.9849 22.925C27.0253 23.1402 27.2175 23.2962 27.4109 23.2785C27.6587 23.2773 27.8671 22.9856 27.8082 22.7121C27.7622 22.4561 27.5134 22.2715 27.2872 22.3432Z" fill="#28382D"/>
<path d="M20.3681 22.4291C20.2616 22.4993 20.2675 22.692 20.3797 22.7514C20.4934 22.834 20.6565 22.7103 20.6317 22.5605C20.6203 22.4239 20.4654 22.3429 20.3681 22.4291Z" fill="#28382D"/>
<path d="M54.6136 22.4876C54.4247 22.5594 54.2889 22.7902 54.3264 23.0156C54.3613 23.2798 54.616 23.4716 54.8459 23.4011C55.058 23.3536 55.2003 23.0985 55.1588 22.861C55.1304 22.5813 54.847 22.3862 54.6136 22.4876Z" fill="#28382D"/>
<path d="M61.6134 22.6091C61.4881 22.6565 61.4697 22.8735 61.5833 22.9486C61.6759 23.02 61.8143 22.9576 61.8438 22.8369C61.8831 22.6928 61.7342 22.5509 61.6134 22.6091Z" fill="#28382D"/>
<path d="M26.4365 22.6985C26.2313 22.7573 26.1079 23.0266 26.1714 23.2517C26.2223 23.4729 26.4471 23.6095 26.6403 23.5482C26.8333 23.4972 26.9754 23.2631 26.9301 23.0415C26.8897 22.7985 26.6499 22.6184 26.4365 22.6985Z" fill="#28382D"/>
<path d="M38.414 22.9542C38.4108 23.1409 38.5806 23.3093 38.745 23.2642C38.8999 23.2246 38.9989 23.022 38.9403 22.8533C38.8559 22.5566 38.4222 22.6137 38.414 22.9542Z" fill="#28382D"/>
<path d="M43.7218 22.9837C43.7274 22.8 43.563 22.6562 43.4062 22.688C43.1734 22.7069 43.1015 23.0896 43.2894 23.2313C43.4539 23.3946 43.729 23.2193 43.7218 22.9837Z" fill="#28382D"/>
<path d="M21.2186 22.7865C21.0938 22.8255 21.0235 23.0119 21.1076 23.1317C21.1912 23.2794 21.4166 23.2524 21.464 23.0825C21.5241 22.9171 21.3713 22.7223 21.2186 22.7865Z" fill="#28382D"/>
<path d="M55.4659 22.8469C55.2902 22.915 55.1683 23.1326 55.2034 23.3409C55.2364 23.5663 55.4429 23.7345 55.6434 23.6987C55.8555 23.6777 56.0157 23.4319 55.9747 23.1971C55.9473 22.9363 55.6846 22.7499 55.4659 22.8469Z" fill="#28382D"/>
<path d="M25.5595 22.9692C25.4014 23.0266 25.2985 23.219 25.3195 23.4033C25.3349 23.6032 25.5036 23.7662 25.6808 23.756C25.8911 23.7596 26.0784 23.5194 26.03 23.2835C25.9951 23.0503 25.7596 22.8792 25.5595 22.9692Z" fill="#28382D"/>
<path d="M60.7632 22.9972C60.6368 23.0698 60.6237 23.2952 60.7445 23.3823C60.86 23.4813 61.051 23.3892 61.0638 23.2253C61.0867 23.0515 60.8973 22.9051 60.7632 22.9972Z" fill="#28382D"/>
<path d="M22.0432 23.055C21.8994 23.1132 21.842 23.3429 21.9516 23.4692C22.0618 23.6229 22.3095 23.5659 22.3526 23.3723C22.4133 23.1751 22.2134 22.9584 22.0432 23.055Z" fill="#28382D"/>
<path d="M56.3449 23.1184C56.1778 23.1814 56.0666 23.3928 56.1054 23.5885C56.1437 23.8187 56.3813 23.9676 56.5758 23.8856C56.7493 23.8244 56.857 23.5993 56.8043 23.4024C56.7594 23.1829 56.5335 23.0373 56.3449 23.1184Z" fill="#28382D"/>
<path d="M24.7 23.1364C24.3779 23.2394 24.3878 23.7782 24.7197 23.8526C24.9124 23.9057 25.1292 23.722 25.1183 23.4936C25.1239 23.2588 24.9009 23.058 24.7 23.1364Z" fill="#28382D"/>
<path d="M22.9511 23.1809C22.771 23.2199 22.6768 23.4894 22.7955 23.6521C22.908 23.8362 23.192 23.7905 23.2561 23.5795C23.3343 23.3715 23.1475 23.1172 22.9511 23.1809Z" fill="#28382D"/>
<path d="M23.8295 23.2096C23.5266 23.2966 23.5354 23.7782 23.8186 23.8553C23.9916 23.9138 24.1933 23.7592 24.1959 23.5521C24.2079 23.3405 24.015 23.1457 23.8295 23.2096Z" fill="#28382D"/>
<path d="M59.9123 23.2397C59.763 23.3066 59.7239 23.5582 59.8471 23.6758C59.9679 23.809 60.2017 23.734 60.2342 23.5434C60.2821 23.3441 60.077 23.1517 59.9123 23.2397Z" fill="#28382D"/>
<path d="M40.5246 23.4879C39.8125 24.1523 40.6523 24.9529 41.1526 25.9285C41.3715 25.3325 41.9205 24.7798 42.0494 24.2503C42.2054 23.4669 41.1675 22.8737 40.5246 23.4879Z" fill="#28382D"/>
<path d="M38.3533 23.2926C38.175 23.3644 38.1529 23.6609 38.3057 23.7786C38.4568 23.9248 38.7093 23.7705 38.7032 23.5526C38.7165 23.353 38.5092 23.2095 38.3533 23.2926Z" fill="#28382D"/>
<path d="M57.2474 23.2962C57.0792 23.3517 56.9712 23.5742 57.0273 23.763C57.0781 23.9563 57.2841 24.0691 57.4512 23.9995C57.6085 23.9413 57.7078 23.7338 57.6564 23.5541C57.6138 23.3608 57.4161 23.2314 57.2474 23.2962Z" fill="#28382D"/>
<path d="M43.9278 23.5263C43.9057 23.3435 43.7096 23.2415 43.5672 23.3237C43.3802 23.4114 43.3919 23.7461 43.5744 23.8328C43.7474 23.9408 43.9653 23.7364 43.9278 23.5263Z" fill="#28382D"/>
<path d="M59.0577 23.3581C58.8685 23.4061 58.7903 23.7105 58.9372 23.8587C59.0662 24.0124 59.3251 23.9494 59.3773 23.7423C59.447 23.5292 59.2496 23.2951 59.0577 23.3581Z" fill="#28382D"/>
<path d="M58.1276 23.3885C57.9381 23.465 57.8689 23.7769 58.0214 23.9339C58.1613 24.1059 58.4488 24.045 58.5121 23.8177C58.6066 23.565 58.3503 23.2784 58.1276 23.3885Z" fill="#28382D"/>
<path d="M38.0677 23.8428C37.9644 23.877 37.8942 24.004 37.9123 24.1237C37.9285 24.2546 38.0392 24.3666 38.1595 24.3491C38.3005 24.3392 38.4035 24.1648 38.3623 24.0136C38.3303 23.8749 38.1847 23.8008 38.0677 23.8428Z" fill="#28382D"/>
<path d="M44.2054 24.029C44.1676 23.8993 44.033 23.8303 43.9199 23.872C43.659 23.9574 43.7367 24.3836 43.9883 24.3802C44.1418 24.3853 44.2603 24.189 44.2054 24.029Z" fill="#28382D"/>
<path d="M37.6891 24.3465C37.5319 24.402 37.5039 24.668 37.6417 24.7667C37.7607 24.8697 37.948 24.7724 37.968 24.6086C38.0034 24.4359 37.8302 24.288 37.6891 24.3465Z" fill="#28382D"/>
<path d="M44.2906 24.3819C44.1405 24.4341 44.1072 24.6751 44.2291 24.7826C44.3446 24.9063 44.5564 24.8153 44.5708 24.637C44.602 24.4653 44.4335 24.3111 44.2906 24.3819Z" fill="#28382D"/>
<path d="M37.2158 24.8037C37.1016 24.8883 37.1083 25.0996 37.2301 25.1713C37.3456 25.2518 37.5047 25.1446 37.513 24.9973C37.531 24.8292 37.336 24.7013 37.2158 24.8037Z" fill="#28382D"/>
<path d="M44.7173 24.8281C44.5931 24.8845 44.571 25.0898 44.6772 25.1805C44.7788 25.2963 44.9728 25.2114 44.9871 25.0514C45.0143 24.8899 44.8469 24.7407 44.7173 24.8281Z" fill="#28382D"/>
<path d="M36.7885 25.1305C36.6592 25.1684 36.6201 25.3818 36.7307 25.4698C36.8244 25.5604 36.9803 25.4842 37.0027 25.3527C37.0303 25.22 36.9018 25.0918 36.7885 25.1305Z" fill="#28382D"/>
<path d="M45.1962 25.1958C45.0876 25.2622 45.0878 25.4519 45.1956 25.5188C45.3106 25.6181 45.4871 25.4762 45.4506 25.3222C45.4312 25.1964 45.292 25.1163 45.1962 25.1958Z" fill="#28382D"/>
<path d="M36.2554 25.4002C36.1582 25.4395 36.1204 25.5974 36.1987 25.679C36.2748 25.7784 36.4325 25.7181 36.4538 25.5944C36.4799 25.4725 36.358 25.353 36.2554 25.4002Z" fill="#28382D"/>
<path d="M45.7309 25.4643C45.6668 25.5114 45.6335 25.6174 45.6822 25.6918C45.7384 25.8038 45.9057 25.8023 45.948 25.6765C46.0122 25.536 45.8464 25.3634 45.7309 25.4643Z" fill="#28382D"/>
<path d="M35.6736 25.5823C35.5978 25.6396 35.6023 25.7858 35.6875 25.8293C35.7804 25.8914 35.9139 25.775 35.8737 25.6585C35.8503 25.5667 35.7407 25.5141 35.6736 25.5823Z" fill="#28382D"/>
<path d="M35.1379 25.6083C35.0786 25.6387 35.0405 25.7344 35.0897 25.7954C35.1352 25.8701 35.2457 25.8554 35.2787 25.7741C35.326 25.6819 35.222 25.5579 35.1379 25.6083Z" fill="#28382D"/>
<path d="M46.3405 25.6064C46.2599 25.6268 46.2037 25.7442 46.2551 25.8258C46.3016 25.915 46.4349 25.921 46.4802 25.8261C46.5385 25.725 46.4427 25.5788 46.3405 25.6064Z" fill="#28382D"/>
<path d="M46.8962 25.6638C46.8331 25.6911 46.7996 25.7925 46.8491 25.8526C46.8962 25.9294 47.0122 25.912 47.041 25.8247C47.0734 25.7307 46.9798 25.6227 46.8962 25.6638Z" fill="#28382D"/>
</svg>
