<svg width="550" height="550" viewBox="0 0 550 550" fill="none" xmlns="http://www.w3.org/2000/svg">
<path d="M274.999 91.7334C275.102 91.7712 275.205 91.809 275.309 91.8472C277.721 90.9631 279.802 90.1556 280.95 89.63C285.419 87.5844 284.968 88.2196 284.668 89.4038C284.093 91.6681 280.588 98.4441 285.218 103.255H285.22C291.35 109.623 297.818 102.817 296.456 100.013C295.108 97.2365 290.519 102.971 285.78 98.5111C284.677 97.4751 284.326 96.7845 284.408 95.4572C284.552 93.094 285.609 89.6366 287.35 87.7129C287.91 87.0945 288.217 86.7642 293.852 83.767C293.589 95.3235 307.086 110.287 314.92 102.318C321.399 95.7271 309.973 82.874 305.588 87.9429C303.636 90.1986 305.19 93.9537 307.556 95.7876H307.557C309.924 97.6225 311.688 94.9303 310.94 94.2359C310.473 93.8011 310.341 95.0355 309.861 95.0905C308.95 95.195 308.34 95.7573 306.871 94.0448C304.442 91.3642 305.433 86.3991 310.108 88.484H310.109C310.609 88.7071 311.103 88.9931 311.566 89.3203H311.568C316.013 92.4618 316.545 98.8301 313.909 101.512C308.753 106.756 293.849 96.197 296.978 82.1277C301.406 79.8218 307.169 76.8938 314.175 73.4078C316.404 72.2986 319.667 70.0353 320.818 70.9349H320.82C321.361 71.3577 321.268 72.3683 321.15 73.0483C320.342 77.7009 323.962 84.1651 328.216 83.1301C332.265 82.1449 321.629 76.9436 325.119 70.4702C329.621 62.1185 347.671 60.9353 357.177 60.6462C344.816 67.4754 342.81 70.741 345.158 77.6466C338.833 79.1763 336.471 80.5733 334.673 82.7196V82.721C332.525 85.285 332.256 87.3472 333.178 91.2281C341.624 92.4539 344.136 87.1186 345.54 78.7002C346.876 82.1662 348.811 85.3524 349.774 87.2832C352.672 94.4947 343.849 96.8979 342.87 93.8557C342.428 92.4763 343.366 91.2759 344.457 91.377C344.25 91.3092 343.438 91.3343 342.906 91.7582C342.094 92.4065 341.989 94.13 342.986 95.064H342.988C344.396 96.3833 347.168 95.9237 348.904 94.724H348.905C353.982 91.2154 349.988 84.8416 349.339 83.4559C352.492 88.386 356.552 88.9068 361.249 87.1114C361.362 78.4121 355.333 76.6401 346.636 76.4837C345.205 70.8294 346.707 68.7799 362.266 60.6149C365.334 60.6761 368.084 60.8885 370.128 61.3048C386.979 64.8482 406.195 74.1772 403.772 96.7305C402.272 105.499 393.838 106.876 388.41 107.1C380.502 107.409 377.612 106.618 375.574 103.589C373.735 100.857 373.642 95.8082 375.369 92.424C378.033 87.2025 382.991 85.2122 385.823 88.2275C389.125 91.7898 384.084 92.6182 386.863 94.6113C388.241 94.2222 389.551 90.3278 389.29 88.7139C386.061 68.7102 357.132 97.8752 375.697 109.691C376.662 110.188 377.476 110.538 378.408 110.791H378.409C391.772 114.42 410.631 108.705 409.566 89.5733C415.488 91.0916 420.362 95.0836 422.748 100.632C417.807 109.793 415.146 118.058 423.083 124.793C426.404 121.975 427.942 119.734 428.038 114.797H428.037C428.042 114.517 428.042 114.236 428.034 113.956C427.924 109.637 425.788 105.036 423.442 100.676C421.582 93.0685 415.164 86.7133 408.927 84.6175C406.584 73.5061 398.428 67.4582 386.085 61.6448C383.955 60.6771 382.212 59.7132 382.212 59.5022C382.212 59.2911 384.063 58.7776 386.326 58.3606C390.869 57.5236 394.301 55.9987 396.086 54.0249C398.667 51.1711 407.684 49.222 410.74 50.8573C411.387 51.2037 412.246 52.5877 412.649 53.9331C413.329 56.2019 413.262 56.536 411.725 58.551C410.661 59.9453 409.157 60.9961 407.525 61.4853C405.344 62.1387 404.748 62.3756 403.355 60.1684C402.411 58.6744 402.504 57.329 403.645 56.382C404.841 55.3896 406.739 56.3662 406.606 57.9058C406.558 58.4551 406.907 58.9044 407.381 58.9044C408.632 58.9044 408.443 56.1799 407.108 54.9716C405.51 53.5244 403.733 53.697 402.077 55.4607C400.536 57.1008 400.641 59.1124 402.411 61.8483C404.808 65.5553 414.122 61.8252 414.321 56.2634C414.344 55.6312 414.257 55.2696 414.257 55.0891C413.492 48.4421 409.982 48.3001 404.441 48.9412C397.613 49.7311 398.571 50.496 397.488 47.5648V47.5634C397.357 47.2084 397.18 46.8705 396.965 46.5515V46.5501C395.005 43.6396 389.263 41.8387 386.652 44.6533C383.881 47.6415 385.885 52.8998 390.179 52.8998C395.307 52.0353 394.308 49.7916 394.308 48.5301C393.976 47.1846 393.134 46.8344 391.569 46.4892C390.889 46.3394 390.25 46.3968 389.724 46.8656V46.867C389.541 47.0303 389.371 47.2448 389.216 47.5219C389.546 49.2657 392.516 47.5115 392.973 49.1086C393.574 50.0831 391.612 51.1312 389.535 50.9277C388.191 50.7961 387.101 50.5544 386.863 47.9863C386.626 45.5828 390.315 42.7688 394.213 45.9819C394.727 46.4054 396.263 47.6569 396.263 48.3348C396.452 49.0818 396.152 50.8982 395.177 52.2446C393.1 55.1098 386.856 56.7649 383.676 56.9412C380.373 57.1248 376.369 56.6587 367.03 56.3723C376.876 50.2485 378.374 46.4487 376.061 39.407C373.176 30.6259 368.031 26.7381 370.265 21.8411C371.483 19.1729 374.519 18.0702 376.059 18.2242C376.293 25.9595 377.649 32.2625 385.296 33.6729C386.983 28.9942 386.737 24.5261 377.435 18.4421C378.257 18.4421 378.449 18.4579 379.398 17.8127C388.807 17.8983 396.514 16.5305 398.526 7.37753C389.836 3.90189 384.433 9.4304 379.198 17.2462C375.579 18.1994 377.424 17.2318 375.388 17.348C380.503 11.8026 384.026 6.40438 379.572 0C372.572 3.33745 372.849 9.7683 374.681 17.4229C372.35 17.7904 370.238 19.23 369.179 21.3155C366.934 25.7413 369.917 29.4702 372.483 35.5876C376.738 45.7354 375.951 48.3534 361.724 56.2424C358.003 56.1809 349.364 56.2661 349.364 55.9894C349.364 55.8419 350.017 54.8341 350.814 53.7489C354.66 48.518 354.805 39.7841 354.552 38.5181C354.058 36.0479 357.588 31.6091 360.989 30.4214C363.473 29.5545 363.638 29.5772 365.146 30.9941C367.06 32.7915 367.189 35.3535 365.452 36.9251C364.242 38.0203 364.109 38.0224 362.354 36.9856C360.319 35.7835 360.026 36.2307 361.485 38.3135C363.072 40.5802 364.834 39.5716 366.653 37.5002C368.885 34.9589 369.138 32.9999 367.4 30.838V30.8366C363.875 26.4521 361.083 27.3407 357.417 30.77C355.739 32.3395 354.198 34.1524 353.992 34.7983C353.489 36.3827 352.68 36.2648 350.453 34.3903C346.568 31.1209 342.41 34.3793 344.373 36.073H344.374C344.997 36.6099 346.09 37.175 346.738 36.9262C347.753 36.5367 349.394 37.5913 351.224 38.4706C351.407 38.5586 351.554 38.6906 351.668 38.8955V38.8969C352.012 39.5135 352.063 40.7895 351.933 43.488C351.677 48.815 350.914 50.9043 348.046 54.1191C346.071 56.3339 345.571 56.5343 339.153 57.7346C331.342 59.1956 326.674 62.0703 320.606 64.668C316.971 66.2242 310.401 70.3444 309.908 69.8511C309.361 69.3035 310.623 66.1582 311.273 62.0016C313.702 49.3523 324.671 46.2022 326.44 51.9005V51.9019C326.849 53.2219 326.767 55.0156 325.976 57.2774C325.72 58.011 326.802 59.595 327.299 58.2434C327.77 56.9633 329.164 53.5467 328.027 51.2615V51.2601C325.587 46.3559 320.076 46.1434 315.959 49.781C317.694 40.5252 317.274 33.1759 308.662 29.1853C302.943 37.5913 307.22 44.3886 314.078 51.8132C306.535 61.5269 312.733 63.3573 301.443 72.5626C302.259 68.7222 301.911 64.611 299.946 60.4777V60.4764C296.056 52.2948 286.952 44.3185 280.764 50.6139C278.267 53.1538 278.001 56.8962 280.608 60.9487V60.95C285.536 68.6081 290.437 66.5611 290.906 63.2487C291.498 59.0873 286.921 55.1527 285.224 56.9835C284.806 57.4345 284.268 58.2551 284.744 58.6975C285.212 59.1323 285.344 57.8965 285.824 57.8415C286.47 57.7673 287.69 57.0079 289.268 59.495V59.4963C291.224 62.5801 289.663 66.6415 285.083 64.2074C283.588 63.4127 282.357 62.2295 281.475 60.7008V60.6995C281.203 60.2275 280.975 59.7411 280.79 59.2481V59.2468C279.683 56.2878 280.129 53.0992 281.778 51.4213C285.318 47.8192 292.959 51.7269 296.563 57.8463V57.8477C297.229 58.9797 297.758 60.166 298.157 61.3725V61.3739C301.445 71.3306 295.59 76.713 295.487 76.8952C290.228 80.3357 281.898 84.1352 275.311 86.7903C275.208 86.7487 275.104 86.7071 275.001 86.6648C274.897 86.7068 274.793 86.7487 274.69 86.7903C268.103 84.1349 259.773 80.3357 254.514 76.8952C254.411 76.7126 248.556 71.3306 251.844 61.3739V61.3725C252.242 60.166 252.771 58.9797 253.438 57.8477V57.8463C257.042 51.7269 264.683 47.8192 268.224 51.4213C269.873 53.0992 270.318 56.2878 269.211 59.2468V59.2481C269.026 59.7411 268.798 60.2275 268.526 60.6995V60.7008C267.644 62.2295 266.413 63.4127 264.918 64.2074C260.338 66.6415 258.777 62.5801 260.733 59.4963V59.495C262.311 57.0079 263.531 57.7673 264.177 57.8415C264.657 57.8965 264.789 59.1323 265.257 58.6975C265.733 58.2551 265.195 57.4342 264.777 56.9835C263.08 55.1527 258.503 59.0873 259.095 63.2487C259.564 66.5614 264.465 68.6081 269.393 60.95V60.9487C272 56.8962 271.734 53.1542 269.237 50.6139C263.049 44.3188 253.946 52.2951 250.055 60.4764V60.4777C248.09 64.611 247.742 68.7225 248.558 72.5626C237.268 63.3577 243.466 61.5269 235.923 51.8132C242.781 44.3889 247.059 37.5913 241.339 29.1853C232.727 33.1755 232.307 40.5252 234.042 49.781C229.925 46.1434 224.414 46.3559 221.974 51.2601V51.2615C220.837 53.5467 222.231 56.9633 222.702 58.2434C223.199 59.595 224.281 58.011 224.025 57.2774C223.235 55.0156 223.153 53.2219 223.561 51.9019V51.9005C225.331 46.2022 236.299 49.3523 238.728 62.0016C239.378 66.1582 240.64 69.3035 240.093 69.8511C239.6 70.3444 233.03 66.2242 229.395 64.668C223.327 62.0707 218.659 59.1956 210.848 57.7346C204.43 56.5343 203.93 56.3339 201.955 54.1191C199.087 50.904 198.324 48.815 198.068 43.488C197.938 40.7895 197.989 39.5135 198.333 38.8969V38.8955C198.447 38.691 198.594 38.5586 198.777 38.4706C200.607 37.591 202.247 36.5367 203.263 36.9262C203.911 37.175 205.004 36.6099 205.627 36.073H205.628C207.591 34.3797 203.434 31.1209 199.548 34.3903C197.32 36.2648 196.511 36.3827 196.009 34.7983C195.804 34.1524 194.262 32.3399 192.584 30.77C188.918 27.3407 186.126 26.4521 182.6 30.8366V30.838C180.863 33.0002 181.116 34.9589 183.347 37.5002C185.166 39.5716 186.928 40.5802 188.516 38.3135C189.975 36.2311 189.682 35.7835 187.647 36.9856C185.892 38.0224 185.758 38.0203 184.548 36.9251C182.812 35.3532 182.941 32.7915 184.855 30.9941C186.363 29.5772 186.528 29.5545 189.011 30.4214C192.413 31.6091 195.942 36.0479 195.448 38.5181C195.195 39.7841 195.34 48.518 199.186 53.7489C199.984 54.8337 200.637 55.8419 200.637 55.9894C200.637 56.2661 191.998 56.1809 188.277 56.2424C174.05 48.3534 173.263 45.7351 177.518 35.5876C180.084 29.4699 183.066 25.7413 180.822 21.3155C179.763 19.2296 177.652 17.79 175.32 17.4229C177.152 9.7683 177.429 3.33745 170.429 0C165.975 6.40438 169.498 11.8026 174.613 17.348C172.577 17.2318 174.422 18.1994 170.803 17.2462C165.568 9.4304 160.165 3.90189 151.475 7.37753C153.487 16.5305 161.194 17.8983 170.603 17.8127C171.552 18.4579 171.744 18.4421 172.566 18.4421C163.265 24.5261 163.018 28.9942 164.705 33.6729C172.352 32.2625 173.708 25.9595 173.942 18.2242C175.482 18.0698 178.518 19.1729 179.736 21.8411C181.97 26.7381 176.825 30.6259 173.94 39.407C171.627 46.4487 173.125 50.2488 182.971 56.3723C173.632 56.6587 169.629 57.1248 166.325 56.9412C163.145 56.7649 156.901 55.1098 154.825 52.2446C153.849 50.8985 153.549 49.0818 153.738 48.3348C153.738 47.6569 155.274 46.4054 155.788 45.9819C159.686 42.7688 163.375 45.5831 163.138 47.9863C162.9 50.5544 161.81 50.7961 160.466 50.9277C158.389 51.1309 156.427 50.0831 157.028 49.1086C157.485 47.5115 160.455 49.2657 160.785 47.5219C160.63 47.2448 160.46 47.0303 160.277 46.867V46.8656C159.751 46.3968 159.111 46.339 158.432 46.4892C156.867 46.8344 156.025 47.1846 155.693 48.5301C155.693 49.7916 154.694 52.0349 159.822 52.8998C164.116 52.8998 166.12 47.6415 163.349 44.6533C160.738 41.8387 154.996 43.6392 153.036 46.5501V46.5515C152.821 46.8705 152.644 47.2084 152.513 47.5634V47.5648C151.43 50.496 152.388 49.7311 145.56 48.9412C140.019 48.3001 136.509 48.4421 135.744 55.0891C135.744 55.2696 135.657 55.6312 135.68 56.2634C135.879 61.8256 145.193 65.5553 147.59 61.8483C149.36 59.1124 149.465 57.1011 147.924 55.4607C146.268 53.697 144.492 53.5247 142.893 54.9716C141.558 56.1799 141.369 58.9044 142.62 58.9044C143.094 58.9044 143.442 58.4551 143.395 57.9058C143.263 56.3662 145.16 55.3892 146.356 56.382C147.497 57.329 147.59 58.6744 146.646 60.1684C145.253 62.3756 144.657 62.1387 142.476 61.4853C140.844 60.9961 139.34 59.9453 138.276 58.551C136.739 56.536 136.673 56.2019 137.352 53.9331C137.755 52.588 138.614 51.2037 139.261 50.8573C142.317 49.222 151.334 51.1714 153.915 54.0249C155.7 55.9987 159.132 57.5236 163.675 58.3606C165.938 58.7776 167.789 59.2911 167.789 59.5022C167.789 59.7132 166.046 60.6771 163.916 61.6448C151.573 67.4586 143.417 73.5061 141.074 84.6175C134.837 86.7133 128.419 93.0682 126.559 100.676C124.213 105.036 122.077 109.637 121.967 113.956C121.96 114.236 121.96 114.517 121.964 114.797H121.963C122.059 119.734 123.597 121.975 126.918 124.793C134.855 118.058 132.195 109.793 127.253 100.632C129.639 95.0833 134.513 91.0916 140.436 89.5733C139.371 108.705 158.23 114.42 171.592 110.791H171.593C172.525 110.538 173.339 110.188 174.304 109.691C192.869 97.8752 163.94 68.7102 160.711 88.7139C160.451 90.3278 161.761 94.2222 163.138 94.6113C165.917 92.6179 160.877 91.7898 164.178 88.2275C167.011 85.2122 171.969 87.2025 174.632 92.424C176.359 95.8082 176.266 100.857 174.428 103.589C172.389 106.618 169.5 107.409 161.591 107.1C156.163 106.876 147.729 105.499 146.23 96.7305C143.807 74.1772 163.023 64.8482 179.874 61.3048C181.917 60.8885 184.667 60.6757 187.736 60.6149C203.294 68.7799 204.797 70.8294 203.365 76.4837C194.668 76.6398 188.639 78.4118 188.753 87.1114C193.45 88.9068 197.51 88.386 200.662 83.4559C200.013 84.8413 196.019 91.215 201.096 94.724H201.097C202.834 95.9241 205.606 96.3833 207.014 95.064H207.015C208.012 94.13 207.908 92.4065 207.095 91.7582C206.564 91.3343 205.751 91.3092 205.545 91.377C206.635 91.2762 207.574 92.4766 207.132 93.8557C206.153 96.8979 197.33 94.4944 200.228 87.2832C201.19 85.3524 203.126 82.1659 204.462 78.7002C205.866 87.1189 208.378 92.4539 216.824 91.2281C217.746 87.3472 217.477 85.2854 215.329 82.721V82.7196C213.53 80.5733 211.169 79.1763 204.844 77.6466C207.191 70.741 205.185 67.4751 192.825 60.6462C202.331 60.9349 220.381 62.1181 224.883 70.4702C228.372 76.9436 217.736 82.1449 221.785 83.1301C226.04 84.1655 229.66 77.7013 228.852 73.0483C228.734 72.3683 228.641 71.3574 229.182 70.9349H229.184C230.335 70.0353 233.597 72.2986 235.827 73.4078C242.833 76.8941 248.595 79.8218 253.023 82.1277C256.153 96.197 241.248 106.756 236.093 101.512C233.457 98.8298 233.989 92.4618 238.434 89.3203H238.435C238.898 88.9931 239.392 88.7071 239.893 88.484H239.894C244.568 86.3988 245.56 91.3639 243.131 94.0448C241.662 95.7577 241.052 95.195 240.141 95.0905C239.661 95.0355 239.529 93.8011 239.061 94.2359C238.314 94.9303 240.077 97.6225 242.444 95.7876H242.446C244.811 93.9533 246.366 90.1986 244.414 87.9429C240.029 82.874 228.603 95.7267 235.082 102.318C242.915 110.287 256.413 95.3235 256.149 83.767C261.785 86.7645 262.092 87.0945 262.652 87.7129C264.392 89.6366 265.45 93.094 265.594 95.4572C265.676 96.7845 265.325 97.4751 264.222 98.5111C259.483 102.971 254.894 97.2365 253.545 100.013C252.184 102.817 258.652 109.623 264.782 103.255H264.783C269.414 98.4441 265.909 91.6681 265.334 89.4038C265.033 88.22 264.583 87.5847 269.051 89.63C270.2 90.156 272.28 90.9634 274.693 91.8472C274.793 91.809 274.896 91.7712 274.999 91.7334ZM458.265 275C458.228 275.102 458.19 275.206 458.152 275.31C459.036 277.722 459.843 279.802 460.369 280.951C462.415 285.419 461.78 284.969 460.595 284.668C458.331 284.093 451.555 280.588 446.744 285.219V285.22C440.376 291.35 447.182 297.818 449.986 296.457C452.763 295.108 447.028 290.519 451.488 285.78C452.524 284.677 453.215 284.326 454.542 284.408C456.905 284.552 460.363 285.61 462.286 287.35C462.905 287.91 463.235 288.217 466.232 293.853C454.676 293.589 439.712 307.087 447.681 314.92C454.272 321.399 467.125 309.974 462.056 305.588C459.801 303.636 456.046 305.191 454.212 307.556V307.558C452.377 309.925 455.069 311.688 455.763 310.941C456.198 310.473 454.964 310.341 454.909 309.861C454.805 308.95 454.242 308.34 455.954 306.871C458.635 304.442 463.6 305.434 461.515 310.108V310.109C461.292 310.61 461.006 311.104 460.679 311.567V311.568C457.537 316.014 451.169 316.545 448.487 313.909C443.243 308.754 453.802 293.849 467.871 296.979C470.177 301.407 473.105 307.169 476.591 314.175C477.701 316.405 479.964 319.667 479.064 320.818V320.82C478.642 321.361 477.631 321.268 476.951 321.15C472.298 320.342 465.834 323.962 466.869 328.217C467.854 332.266 473.056 321.63 479.529 325.119C487.881 329.621 489.064 347.671 489.353 357.177C482.524 344.816 479.258 342.811 472.353 345.158C470.823 338.833 469.426 336.472 467.28 334.673H467.278C464.714 332.525 462.652 332.256 458.771 333.178C457.545 341.624 462.881 344.136 471.299 345.54C467.833 346.876 464.647 348.812 462.716 349.774C455.504 352.672 453.101 343.849 456.143 342.87C457.523 342.428 458.723 343.367 458.622 344.457C458.69 344.251 458.665 343.438 458.241 342.907C457.593 342.094 455.869 341.99 454.935 342.987V342.988C453.616 344.396 454.076 347.168 455.276 348.905V348.906C458.784 353.982 465.158 349.988 466.544 349.34C461.614 352.492 461.093 356.552 462.888 361.249C471.587 361.363 473.359 355.334 473.516 346.637C479.17 345.205 481.22 346.707 489.385 362.266C489.323 365.335 489.111 368.085 488.695 370.128C485.151 386.979 475.822 406.195 453.269 403.772C444.501 402.272 443.124 393.838 442.899 388.41C442.59 380.502 443.381 377.613 446.411 375.574C449.143 373.735 454.191 373.643 457.576 375.369C462.797 378.033 464.787 382.991 461.772 385.824C458.21 389.125 457.381 384.084 455.388 386.863C455.777 388.241 459.672 389.551 461.286 389.29C481.289 386.061 452.124 357.133 440.309 375.697C439.812 376.662 439.462 377.476 439.208 378.409V378.41C435.579 391.772 441.295 410.631 460.426 409.566C458.908 415.488 454.916 420.362 449.368 422.748C440.206 417.807 431.941 415.146 425.206 423.084C428.024 426.404 430.265 427.942 435.202 428.038V428.037C435.483 428.042 435.764 428.042 436.043 428.035C440.363 427.925 444.963 425.788 449.323 423.442C456.931 421.582 463.286 415.165 465.382 408.928C476.493 406.584 482.541 398.428 488.355 386.086C489.322 383.955 490.286 382.212 490.497 382.212C490.708 382.212 491.222 384.064 491.639 386.327C492.476 390.869 494.001 394.301 495.975 396.086C498.828 398.667 500.778 407.684 499.142 410.74C498.796 411.387 497.412 412.246 496.066 412.649C493.798 413.329 493.464 413.262 491.449 411.725C490.054 410.662 489.003 409.158 488.514 407.525C487.861 405.344 487.624 404.748 489.831 403.355C491.325 402.411 492.671 402.504 493.618 403.645C494.61 404.841 493.633 406.739 492.094 406.606C491.544 406.559 491.095 406.907 491.095 407.381C491.095 408.632 493.82 408.444 495.028 407.109C496.475 405.51 496.303 403.734 494.539 402.077C492.899 400.536 490.887 400.641 488.151 402.411C484.444 404.809 488.174 414.122 493.736 414.321C494.368 414.344 494.73 414.257 494.91 414.257C501.558 413.492 501.699 409.982 501.058 404.441C500.268 397.613 499.504 398.571 502.435 397.488H502.436C502.791 397.357 503.129 397.18 503.448 396.965H503.45C506.36 395.005 508.161 389.264 505.346 386.652C502.358 383.882 497.1 385.886 497.1 390.18C497.964 395.308 500.208 394.308 501.47 394.308C502.815 393.976 503.165 393.134 503.51 391.569C503.661 390.889 503.603 390.25 503.134 389.724H503.133C502.969 389.541 502.755 389.371 502.478 389.216C500.734 389.546 502.488 392.516 500.891 392.973C499.916 393.574 498.868 391.612 499.072 389.535C499.204 388.191 499.445 387.101 502.013 386.863C504.417 386.626 507.231 390.315 504.018 394.213C503.594 394.727 502.343 396.264 501.665 396.264C500.918 396.452 499.101 396.152 497.755 395.177C494.89 393.1 493.235 386.857 493.059 383.676C492.875 380.373 493.341 376.369 493.628 367.03C499.751 376.876 503.551 378.375 510.593 376.061C519.374 373.176 523.262 368.032 528.159 370.266C530.827 371.483 531.93 374.519 531.776 376.059C524.04 376.294 517.737 377.649 516.327 385.297C521.006 386.983 525.474 386.737 531.558 377.435C531.558 378.257 531.542 378.449 532.187 379.398C532.102 388.807 533.469 396.515 542.622 398.527C546.098 389.837 540.57 384.433 532.754 379.198C531.801 375.579 532.768 377.424 532.652 375.388C538.197 380.503 543.596 384.026 550 379.572C546.663 372.572 540.232 372.849 532.577 374.681C532.21 372.35 530.77 370.238 528.684 369.18C524.259 366.935 520.53 369.917 514.412 372.483C504.265 376.738 501.647 375.951 493.758 361.724C493.819 358.003 493.734 349.365 494.01 349.365C494.158 349.365 495.166 350.017 496.251 350.815C501.482 354.66 510.216 354.806 511.482 354.552C513.952 354.059 518.391 357.588 519.579 360.99C520.445 363.473 520.423 363.638 519.006 365.146C517.208 367.06 514.646 367.189 513.075 365.452C511.98 364.242 511.978 364.109 513.014 362.354C514.216 360.319 513.769 360.026 511.686 361.485C509.42 363.073 510.428 364.835 512.5 366.653C515.041 368.885 517 369.138 519.162 367.4H519.163C523.548 363.875 522.659 361.083 519.23 357.417C517.66 355.739 515.847 354.198 515.202 353.993C513.617 353.49 513.735 352.68 515.61 350.453C518.879 346.568 515.621 342.411 513.927 344.373V344.374C513.39 344.997 512.825 346.09 513.074 346.738C513.463 347.754 512.409 349.395 511.529 351.224C511.441 351.408 511.309 351.554 511.104 351.668H511.103C510.486 352.012 509.21 352.063 506.512 351.934C501.185 351.677 499.096 350.914 495.881 348.047C493.666 346.072 493.466 345.572 492.265 339.154C490.804 331.343 487.93 326.674 485.332 320.606C483.776 316.971 479.656 310.401 480.149 309.908C480.696 309.361 483.842 310.624 487.998 311.274C500.648 313.702 503.798 324.671 498.099 326.44H498.098C496.778 326.849 494.985 326.767 492.723 325.977C491.989 325.72 490.405 326.802 491.757 327.3C493.037 327.771 496.454 329.164 498.739 328.027H498.74C503.644 325.587 503.857 320.076 500.219 315.959C509.475 317.694 516.825 317.274 520.815 308.663C512.409 302.943 505.612 307.221 498.187 314.078C488.473 306.535 486.643 312.733 477.438 301.444C481.278 302.259 485.389 301.912 489.523 299.946H489.524C497.705 296.056 505.682 286.953 499.386 280.764C496.846 278.268 493.104 278.001 489.052 280.608H489.05C481.392 285.536 483.439 290.437 486.752 290.907C490.913 291.498 494.848 286.921 493.017 285.224C492.566 284.806 491.745 284.268 491.303 284.745C490.868 285.213 492.104 285.345 492.159 285.824C492.233 286.471 492.992 287.69 490.505 289.268H490.504C487.421 291.224 483.359 289.663 485.793 285.084C486.588 283.589 487.771 282.357 489.3 281.475H489.301C489.773 281.203 490.26 280.975 490.752 280.79H490.754C493.713 279.683 496.901 280.129 498.579 281.778C502.181 285.319 498.274 292.959 492.154 296.563H492.153C491.021 297.23 489.835 297.759 488.628 298.158H488.627C478.67 301.446 473.288 295.59 473.105 295.487C469.665 290.228 465.865 281.899 463.21 275.311C463.252 275.208 463.293 275.105 463.336 275.001C463.294 274.897 463.252 274.794 463.21 274.691C465.866 268.103 469.665 259.774 473.105 254.514C473.288 254.412 478.67 248.556 488.627 251.844H488.628C489.835 252.243 491.021 252.772 492.153 253.439H492.154C498.274 257.043 502.181 264.683 498.579 268.224C496.901 269.873 493.713 270.319 490.754 269.211H490.752C490.26 269.027 489.773 268.799 489.301 268.526H489.3C487.771 267.645 486.588 266.413 485.793 264.918C483.359 260.339 487.421 258.778 490.504 260.734H490.505C492.992 262.312 492.233 263.531 492.159 264.177C492.104 264.657 490.868 264.789 491.303 265.257C491.745 265.733 492.566 265.195 493.017 264.778C494.848 263.08 490.913 258.503 486.752 259.095C483.439 259.565 481.392 264.465 489.05 269.393H489.052C493.104 272.001 496.846 271.734 499.386 269.237C505.681 263.049 497.705 253.946 489.524 250.055H489.523C485.389 248.09 481.278 247.742 477.438 248.558C486.643 237.269 488.473 243.467 498.187 235.924C505.611 242.781 512.409 247.059 520.815 241.339C516.825 232.728 509.475 232.307 500.219 234.043C503.857 229.925 503.644 224.415 498.74 221.975H498.739C496.454 220.838 493.037 222.231 491.757 222.702C490.405 223.199 491.989 224.281 492.723 224.025C494.985 223.235 496.778 223.153 498.098 223.561H498.099C503.798 225.331 500.648 236.299 487.998 238.728C483.842 239.378 480.696 240.641 480.149 240.094C479.656 239.6 483.776 233.031 485.332 229.396C487.929 223.328 490.804 218.659 492.265 210.848C493.466 204.43 493.666 203.93 495.881 201.955C499.096 199.088 501.185 198.325 506.512 198.068C509.21 197.939 510.486 197.99 511.103 198.333H511.104C511.309 198.448 511.441 198.595 511.529 198.777C512.409 200.607 513.463 202.248 513.074 203.263C512.825 203.912 513.39 205.005 513.927 205.627V205.629C515.62 207.591 518.879 203.434 515.61 199.548C513.735 197.321 513.617 196.512 515.202 196.009C515.847 195.804 517.66 194.263 519.23 192.585C522.659 188.919 523.548 186.126 519.163 182.601H519.162C517 180.863 515.041 181.117 512.5 183.348C510.428 185.167 509.42 186.929 511.686 188.516C513.769 189.975 514.216 189.682 513.014 187.647C511.978 185.892 511.98 185.759 513.075 184.549C514.647 182.812 517.208 182.942 519.006 184.855C520.423 186.364 520.445 186.529 519.579 189.012C518.391 192.414 513.952 195.943 511.482 195.449C510.216 195.196 501.482 195.341 496.251 199.187C495.166 199.984 494.158 200.637 494.01 200.637C493.734 200.637 493.819 191.999 493.758 188.277C501.647 174.051 504.265 173.263 514.412 177.519C520.53 180.084 524.259 183.067 528.684 180.822C530.77 179.763 532.21 177.652 532.577 175.321C540.232 177.153 546.663 177.429 550 170.429C543.596 165.976 538.197 169.499 532.652 174.614C532.768 172.578 531.801 174.422 532.754 170.803C540.57 165.569 546.098 160.165 542.622 151.475C533.469 153.487 532.102 161.194 532.187 170.604C531.542 171.553 531.558 171.745 531.558 172.567C525.474 163.265 521.006 163.019 516.327 164.705C517.737 172.353 524.04 173.708 531.776 173.943C531.93 175.483 530.827 178.519 528.159 179.736C523.262 181.971 519.374 176.825 510.593 173.941C503.551 171.627 499.751 173.126 493.628 182.971C493.341 173.633 492.875 169.629 493.059 166.325C493.235 163.145 494.89 156.902 497.755 154.825C499.101 153.849 500.918 153.549 501.665 153.738C502.343 153.738 503.594 155.275 504.018 155.789C507.231 159.687 504.416 163.375 502.013 163.139C499.445 162.901 499.204 161.81 499.072 160.466C498.869 158.39 499.916 156.428 500.891 157.028C502.488 157.485 500.734 160.456 502.478 160.786C502.755 160.631 502.969 160.46 503.133 160.277H503.134C503.603 159.752 503.661 159.112 503.51 158.433C503.165 156.868 502.815 156.025 501.47 155.693C500.208 155.693 497.965 154.694 497.1 159.822C497.1 164.116 502.358 166.12 505.346 163.349C508.161 160.738 506.36 154.997 503.45 153.036H503.448C503.129 152.822 502.791 152.645 502.436 152.514H502.435C499.504 151.43 500.268 152.389 501.058 145.561C501.699 140.019 501.558 136.509 494.91 135.745C494.73 135.745 494.368 135.658 493.736 135.68C488.174 135.88 484.444 145.193 488.151 147.591C490.887 149.36 492.898 149.466 494.539 147.925C496.303 146.268 496.475 144.492 495.028 142.893C493.82 141.558 491.095 141.369 491.095 142.621C491.095 143.094 491.544 143.443 492.094 143.396C493.633 143.263 494.61 145.161 493.618 146.356C492.671 147.497 491.325 147.59 489.831 146.647C487.624 145.254 487.861 144.658 488.514 142.477C489.003 140.844 490.054 139.34 491.449 138.277C493.464 136.74 493.798 136.673 496.066 137.353C497.412 137.756 498.796 138.615 499.142 139.262C500.778 142.317 498.828 151.335 495.975 153.915C494.001 155.701 492.476 159.133 491.639 163.675C491.222 165.938 490.708 167.789 490.497 167.789C490.286 167.789 489.322 166.046 488.355 163.916C482.541 151.574 476.493 143.418 465.382 141.074C463.286 134.837 456.931 128.42 449.323 126.56C444.963 124.214 440.363 122.077 436.043 121.967C435.764 121.96 435.483 121.96 435.202 121.965V121.964C430.265 122.06 428.024 123.598 425.206 126.918C431.941 134.856 440.206 132.195 449.368 127.254C454.916 129.64 458.908 134.514 460.426 140.436C441.295 139.371 435.58 158.23 439.208 171.592V171.593C439.462 172.525 439.812 173.34 440.309 174.305C452.124 192.869 481.289 163.941 461.286 160.712C459.672 160.451 455.777 161.761 455.388 163.139C457.382 165.917 458.21 160.877 461.772 164.178C464.787 167.011 462.797 171.969 457.576 174.633C454.191 176.359 449.143 176.267 446.411 174.428C443.381 172.39 442.59 169.5 442.899 161.592C443.124 156.164 444.501 147.729 453.269 146.23C475.822 143.807 485.151 163.023 488.695 179.874C489.111 181.917 489.324 184.668 489.385 187.736C481.22 203.295 479.17 204.797 473.516 203.365C473.36 194.669 471.588 188.64 462.888 188.753C461.093 193.45 461.614 197.51 466.544 200.663C465.158 200.014 458.785 196.02 455.276 201.096V201.098C454.076 202.834 453.616 205.606 454.935 207.014V207.016C455.869 208.013 457.593 207.908 458.241 207.096C458.665 206.564 458.69 205.752 458.622 205.545C458.723 206.636 457.523 207.574 456.143 207.132C453.101 206.153 455.505 197.33 462.716 200.228C464.647 201.191 467.833 203.127 471.299 204.462C462.88 205.867 457.545 208.378 458.771 216.824C462.652 217.747 464.714 217.477 467.278 215.329H467.28C469.426 213.531 470.823 211.17 472.353 204.845C479.258 207.192 482.524 205.186 489.353 192.825C489.064 202.331 487.881 220.381 479.529 224.883C473.056 228.373 467.854 217.737 466.869 221.786C465.834 226.04 472.298 229.66 476.951 228.852C477.631 228.734 478.642 228.642 479.064 229.183V229.184C479.964 230.336 477.701 233.598 476.591 235.827C473.105 242.833 470.177 248.595 467.871 253.024C453.802 256.153 443.243 241.249 448.487 236.093C451.169 233.457 457.537 233.989 460.679 238.434V238.436C461.006 238.899 461.292 239.393 461.515 239.893V239.895C463.6 244.569 458.635 245.561 455.954 243.131C454.242 241.662 454.804 241.052 454.909 240.141C454.964 239.661 456.198 239.529 455.763 239.062C455.069 238.314 452.377 240.078 454.212 242.445V242.446C456.046 244.812 459.801 246.366 462.056 244.414C467.125 240.029 454.272 228.603 447.681 235.082C439.712 242.916 454.676 256.413 466.232 256.15C463.235 261.785 462.905 262.092 462.286 262.652C460.363 264.393 456.905 265.45 454.542 265.595C453.215 265.676 452.524 265.325 451.488 264.222C447.028 259.483 452.763 254.894 449.986 253.546C447.182 252.185 440.376 258.652 446.744 264.782V264.784C451.555 269.414 458.331 265.909 460.595 265.334C461.779 265.034 462.414 264.583 460.369 269.052C459.843 270.2 459.036 272.281 458.152 274.693C458.19 274.793 458.228 274.897 458.265 275ZM274.999 458.266C274.896 458.228 274.793 458.19 274.689 458.152C272.277 459.036 270.196 459.843 269.048 460.369C264.58 462.415 265.03 461.78 265.331 460.595C265.905 458.331 269.41 451.555 264.78 446.745H264.778C258.648 440.376 252.181 447.182 253.542 449.986C254.891 452.763 259.48 447.028 264.218 451.488C265.321 452.524 265.673 453.215 265.591 454.542C265.446 456.905 264.389 460.363 262.648 462.286C262.089 462.905 261.781 463.235 256.146 466.232C256.409 454.676 242.912 439.712 235.078 447.681C228.599 454.272 240.025 467.125 244.411 462.056C246.362 459.801 244.808 456.046 242.442 454.212H242.441C240.074 452.377 238.31 455.069 239.058 455.763C239.526 456.198 239.658 454.964 240.137 454.909C241.048 454.805 241.658 454.242 243.127 455.955C245.557 458.635 244.565 463.6 239.891 461.515H239.889C239.389 461.292 238.895 461.006 238.432 460.679H238.43C233.985 457.538 233.453 451.169 236.09 448.488C241.245 443.243 256.149 453.802 253.02 467.872C248.592 470.177 242.829 473.106 235.823 476.591C233.594 477.701 230.332 479.964 229.18 479.064H229.179C228.638 478.642 228.73 477.631 228.848 476.951C229.656 472.298 226.037 465.834 221.782 466.869C217.733 467.854 228.369 473.056 224.88 479.529C220.377 487.881 202.327 489.064 192.821 489.353C205.182 482.524 207.188 479.258 204.841 472.353C211.166 470.823 213.527 469.426 215.325 467.28V467.278C217.473 464.714 217.743 462.652 216.82 458.771C208.374 457.545 205.862 462.881 204.458 471.299C203.123 467.833 201.187 464.647 200.224 462.716C197.326 455.505 206.15 453.101 207.128 456.144C207.571 457.523 206.632 458.723 205.541 458.622C205.748 458.69 206.56 458.665 207.092 458.241C207.905 457.593 208.009 455.869 207.012 454.935H207.01C205.602 453.616 202.83 454.076 201.094 455.276H201.092C196.016 458.784 200.01 465.158 200.659 466.544C197.506 461.614 193.446 461.093 188.749 462.888C188.636 471.588 194.665 473.36 203.362 473.516C204.793 479.17 203.291 481.22 187.732 489.385C184.664 489.324 181.914 489.111 179.87 488.695C163.019 485.151 143.803 475.823 146.226 453.269C147.726 444.501 156.16 443.124 161.588 442.899C169.496 442.59 172.386 443.381 174.424 446.411C176.263 449.143 176.356 454.191 174.629 457.576C171.965 462.797 167.007 464.787 164.174 461.772C160.873 458.21 165.914 457.381 163.135 455.388C161.757 455.778 160.447 459.672 160.708 461.286C163.937 481.289 192.865 452.124 174.301 440.309C173.336 439.812 172.522 439.462 171.59 439.208H171.588C158.226 435.58 139.367 441.295 140.432 460.426C134.51 458.908 129.636 454.916 127.25 449.368C132.191 440.206 134.852 431.942 126.915 425.207C123.594 428.024 122.056 430.266 121.96 435.202H121.961C121.956 435.483 121.956 435.764 121.963 436.044C122.073 440.363 124.21 444.964 126.556 449.323C128.416 456.931 134.833 463.286 141.07 465.382C143.414 476.494 151.57 482.541 163.912 488.355C166.042 489.323 167.786 490.286 167.786 490.497C167.786 490.709 165.934 491.222 163.671 491.639C159.129 492.476 155.697 494.001 153.912 495.975C151.331 498.829 142.313 500.778 139.258 499.142C138.611 498.796 137.752 497.412 137.349 496.067C136.669 493.798 136.736 493.464 138.273 491.449C139.336 490.054 140.84 489.004 142.473 488.514C144.654 487.861 145.25 487.624 146.643 489.831C147.587 491.325 147.493 492.671 146.352 493.618C145.157 494.61 143.259 493.634 143.392 492.094C143.439 491.545 143.091 491.095 142.617 491.095C141.366 491.095 141.554 493.82 142.889 495.028C144.488 496.475 146.264 496.303 147.921 494.539C149.462 492.899 149.357 490.887 147.587 488.151C145.189 484.444 135.876 488.174 135.676 493.736C135.653 494.368 135.741 494.73 135.741 494.911C136.505 501.558 140.016 501.7 145.557 501.058C152.385 500.269 151.427 499.504 152.51 502.435V502.436C152.641 502.791 152.818 503.129 153.033 503.448V503.45C154.993 506.36 160.734 508.161 163.345 505.346C166.116 502.358 164.112 497.1 159.818 497.1C154.69 497.964 155.689 500.208 155.689 501.47C156.021 502.815 156.864 503.165 158.429 503.51C159.108 503.661 159.748 503.603 160.273 503.134V503.133C160.456 502.969 160.627 502.755 160.782 502.478C160.452 500.734 157.481 502.488 157.025 500.891C156.424 499.917 158.386 498.868 160.462 499.072C161.806 499.204 162.897 499.445 163.135 502.013C163.371 504.417 159.683 507.231 155.785 504.018C155.271 503.594 153.734 502.343 153.734 501.665C153.545 500.918 153.846 499.102 154.821 497.755C156.898 494.89 163.141 493.235 166.322 493.059C169.625 492.875 173.629 493.341 182.968 493.628C173.122 499.752 171.623 503.551 173.937 510.593C176.821 519.374 181.966 523.262 179.732 528.159C178.515 530.827 175.479 531.93 173.939 531.776C173.704 524.04 172.349 517.737 164.701 516.327C163.014 521.006 163.261 525.474 172.563 531.558C171.741 531.558 171.549 531.542 170.6 532.187C161.19 532.102 153.483 533.469 151.471 542.622C160.161 546.098 165.565 540.57 170.8 532.754C174.419 531.801 172.574 532.768 174.61 532.652C169.495 538.197 165.972 543.596 170.426 550C177.426 546.663 177.149 540.232 175.317 532.577C177.648 532.21 179.76 530.77 180.818 528.685C183.063 524.259 180.08 520.53 177.515 514.412C173.259 504.265 174.047 501.647 188.273 493.758C191.995 493.819 200.633 493.734 200.633 494.011C200.633 494.158 199.981 495.166 199.183 496.251C195.337 501.482 195.192 510.216 195.445 511.482C195.939 513.952 192.41 518.391 189.008 519.579C186.525 520.446 186.36 520.423 184.851 519.006C182.938 517.208 182.808 514.647 184.545 513.075C185.755 511.98 185.888 511.978 187.644 513.014C189.679 514.216 189.971 513.769 188.513 511.686C186.925 509.42 185.163 510.428 183.344 512.5C181.113 515.041 180.859 517 182.597 519.162V519.163C186.122 523.548 188.914 522.659 192.581 519.23C194.259 517.66 195.8 515.848 196.005 515.202C196.508 513.617 197.317 513.735 199.545 515.61C203.43 518.879 207.587 515.621 205.625 513.927H205.623C205.001 513.39 203.908 512.825 203.259 513.074C202.244 513.463 200.603 512.409 198.774 511.529C198.59 511.441 198.444 511.309 198.329 511.105V511.103C197.985 510.486 197.934 509.21 198.064 506.512C198.321 501.185 199.084 499.096 201.951 495.881C203.926 493.666 204.426 493.466 210.844 492.265C218.655 490.804 223.324 487.93 229.392 485.332C233.027 483.776 239.596 479.656 240.09 480.149C240.637 480.697 239.374 483.842 238.724 487.998C236.295 500.648 225.327 503.798 223.557 498.099V498.098C223.149 496.778 223.231 494.985 224.021 492.723C224.278 491.989 223.195 490.405 222.698 491.757C222.227 493.037 220.834 496.454 221.971 498.739V498.74C224.411 503.645 229.922 503.857 234.039 500.219C232.303 509.475 232.724 516.825 241.335 520.815C247.055 512.409 242.777 505.612 235.92 498.187C243.463 488.473 237.265 486.643 248.554 477.438C247.738 481.278 248.086 485.389 250.052 489.523V489.524C253.942 497.706 263.045 505.682 269.233 499.386C271.73 496.847 271.997 493.104 269.39 489.052V489.05C264.462 481.392 259.561 483.439 259.091 486.752C258.5 490.913 263.077 494.848 264.774 493.017C265.192 492.566 265.73 491.745 265.253 491.303C264.785 490.868 264.653 492.104 264.173 492.159C263.527 492.233 262.308 492.992 260.73 490.505V490.504C258.774 487.421 260.335 483.359 264.914 485.793C266.409 486.588 267.641 487.771 268.523 489.3V489.301C268.795 489.774 269.023 490.26 269.208 490.753V490.754C270.315 493.713 269.869 496.902 268.22 498.579C264.679 502.181 257.039 498.274 253.435 492.154V492.153C252.768 491.021 252.239 489.835 251.84 488.628V488.627C248.552 478.67 254.408 473.288 254.511 473.106C259.77 469.665 268.099 465.866 274.687 463.21C274.79 463.252 274.893 463.294 274.997 463.336C275.101 463.294 275.204 463.252 275.307 463.21C281.895 465.866 290.224 469.665 295.483 473.106C295.586 473.288 301.442 478.67 298.154 488.627V488.628C297.755 489.835 297.226 491.021 296.559 492.153V492.154C292.955 498.274 285.315 502.181 281.774 498.579C280.125 496.902 279.679 493.713 280.786 490.754V490.753C280.971 490.26 281.199 489.773 281.472 489.301V489.3C282.353 487.771 283.585 486.588 285.08 485.793C289.659 483.359 291.22 487.421 289.264 490.504V490.505C287.686 492.992 286.467 492.233 285.821 492.159C285.341 492.104 285.209 490.868 284.741 491.303C284.265 491.745 284.803 492.566 285.22 493.017C286.918 494.848 291.495 490.913 290.903 486.752C290.433 483.439 285.533 481.392 280.605 489.05V489.052C277.997 493.104 278.264 496.847 280.761 499.386C286.949 505.682 296.052 497.705 299.943 489.524V489.523C301.908 485.389 302.256 481.278 301.44 477.438C312.729 486.643 306.531 488.473 314.074 498.187C307.217 505.611 302.939 512.409 308.659 520.815C317.27 516.825 317.691 509.475 315.955 500.219C320.073 503.857 325.584 503.645 328.023 498.74V498.739C329.16 496.454 327.767 493.037 327.296 491.757C326.799 490.405 325.717 491.989 325.973 492.723C326.763 494.985 326.845 496.778 326.437 498.098V498.099C324.667 503.798 313.699 500.648 311.27 487.998C310.62 483.842 309.357 480.697 309.904 480.149C310.398 479.656 316.967 483.776 320.602 485.332C326.67 487.929 331.339 490.804 339.15 492.265C345.568 493.466 346.068 493.666 348.043 495.881C350.91 499.096 351.673 501.185 351.93 506.512C352.059 509.21 352.009 510.486 351.665 511.103V511.105C351.55 511.309 351.404 511.441 351.221 511.529C349.391 512.409 347.75 513.463 346.735 513.074C346.086 512.825 344.993 513.39 344.371 513.927H344.369C342.407 515.62 346.564 518.879 350.45 515.61C352.677 513.735 353.486 513.617 353.989 515.202C354.194 515.848 355.735 517.66 357.413 519.23C361.079 522.659 363.872 523.548 367.397 519.163V519.162C369.134 517 368.881 515.041 366.65 512.5C364.831 510.428 363.069 509.42 361.481 511.686C360.023 513.769 360.315 514.216 362.35 513.014C364.105 511.978 364.239 511.98 365.449 513.075C367.186 514.647 367.056 517.208 365.142 519.006C363.634 520.423 363.469 520.446 360.986 519.579C357.584 518.391 354.055 513.952 354.549 511.482C354.802 510.216 354.657 501.482 350.811 496.251C350.013 495.166 349.361 494.158 349.361 494.011C349.361 493.734 357.999 493.819 361.721 493.758C375.948 501.647 376.735 504.265 372.479 514.412C369.914 520.53 366.931 524.259 369.176 528.685C370.235 530.77 372.346 532.21 374.677 532.577C372.846 540.232 372.569 546.663 379.569 550C384.022 543.596 380.499 538.197 375.384 532.652C377.421 532.768 375.576 531.801 379.195 532.754C384.43 540.57 389.833 546.098 398.523 542.622C396.511 533.469 388.804 532.102 379.394 532.187C378.446 531.542 378.253 531.558 377.431 531.558C386.733 525.474 386.979 521.006 385.293 516.327C377.645 517.737 376.29 524.04 376.055 531.776C374.515 531.93 371.479 530.827 370.262 528.159C368.028 523.262 373.173 519.374 376.058 510.593C378.371 503.551 376.872 499.751 367.027 493.628C376.366 493.341 380.369 492.875 383.673 493.059C386.853 493.235 393.096 494.89 395.173 497.755C396.149 499.101 396.449 500.918 396.26 501.665C396.26 502.343 394.723 503.594 394.21 504.018C390.311 507.231 386.623 504.417 386.859 502.013C387.097 499.445 388.188 499.204 389.532 499.072C391.608 498.869 393.571 499.917 392.97 500.891C392.513 502.488 389.542 500.734 389.212 502.478C389.367 502.755 389.538 502.969 389.721 503.133V503.134C390.246 503.603 390.886 503.661 391.565 503.51C393.13 503.165 393.972 502.815 394.305 501.47C394.305 500.208 395.304 497.965 390.176 497.1C385.882 497.1 383.878 502.358 386.649 505.346C389.26 508.161 395.001 506.36 396.962 503.45V503.448C397.176 503.129 397.353 502.791 397.484 502.436V502.435C398.568 499.504 397.61 500.269 404.437 501.058C409.979 501.7 413.489 501.558 414.254 494.911C414.254 494.73 414.341 494.368 414.318 493.736C414.118 488.174 404.805 484.444 402.407 488.151C400.638 490.887 400.532 492.899 402.073 494.539C403.73 496.303 405.506 496.475 407.105 495.028C408.44 493.82 408.629 491.095 407.377 491.095C406.904 491.095 406.555 491.545 406.602 492.094C406.735 493.634 404.838 494.61 403.642 493.618C402.501 492.671 402.408 491.325 403.351 489.831C404.744 487.624 405.34 487.861 407.521 488.514C409.154 489.004 410.658 490.054 411.721 491.449C413.258 493.464 413.325 493.798 412.645 496.067C412.242 497.412 411.384 498.796 410.736 499.142C407.681 500.778 398.664 498.828 396.083 495.975C394.298 494.001 390.866 492.476 386.323 491.639C384.06 491.222 382.209 490.709 382.209 490.497C382.209 490.286 383.952 489.323 386.082 488.355C398.424 482.541 406.581 476.494 408.924 465.382C415.161 463.286 421.578 456.931 423.439 449.323C425.785 444.964 427.921 440.363 428.031 436.044C428.038 435.764 428.038 435.483 428.033 435.202H428.034C427.939 430.266 426.401 428.024 423.08 425.207C415.142 431.942 417.803 440.206 422.745 449.368C420.359 454.916 415.485 458.908 409.562 460.426C410.627 441.295 391.768 435.58 378.406 439.208H378.405C377.473 439.462 376.659 439.812 375.694 440.309C357.129 452.124 386.058 481.289 389.287 461.286C389.547 459.672 388.237 455.778 386.86 455.388C384.081 457.382 389.121 458.21 385.82 461.772C382.988 464.787 378.029 462.797 375.366 457.576C373.639 454.191 373.732 449.143 375.57 446.411C377.609 443.381 380.498 442.59 388.407 442.899C393.835 443.124 402.269 444.501 403.768 453.269C406.191 475.823 386.975 485.151 370.124 488.695C368.081 489.111 365.331 489.324 362.262 489.385C346.703 481.22 345.201 479.17 346.633 473.516C355.329 473.36 361.359 471.588 361.245 462.888C356.549 461.093 352.488 461.614 349.336 466.544C349.985 465.158 353.978 458.785 348.902 455.276H348.901C347.165 454.076 344.392 453.616 342.984 454.935H342.983C341.986 455.869 342.091 457.593 342.903 458.241C343.434 458.665 344.247 458.69 344.454 458.622C343.363 458.723 342.424 457.523 342.867 456.144C343.846 453.101 352.669 455.505 349.771 462.716C348.808 464.647 346.872 467.833 345.537 471.299C344.132 462.88 341.621 457.545 333.174 458.771C332.252 462.652 332.521 464.714 334.669 467.278V467.28C336.468 469.426 338.829 470.823 345.154 472.353C342.807 479.258 344.813 482.524 357.174 489.353C347.668 489.064 329.617 487.881 325.115 479.529C321.626 473.056 332.262 467.854 328.213 466.869C323.958 465.834 320.338 472.298 321.146 476.951C321.264 477.631 321.357 478.642 320.816 479.064H320.815C319.663 479.964 316.401 477.701 314.172 476.591C307.165 473.105 301.403 470.177 296.975 467.872C293.846 453.802 308.75 443.243 313.905 448.488C316.542 451.17 316.01 457.538 311.564 460.679H311.563C311.1 461.006 310.606 461.292 310.106 461.515H310.104C305.43 463.601 304.438 458.635 306.867 455.955C308.336 454.242 308.946 454.804 309.857 454.909C310.337 454.964 310.469 456.198 310.937 455.763C311.684 455.069 309.921 452.377 307.554 454.212H307.552C305.187 456.046 303.633 459.801 305.584 462.056C309.97 467.125 321.396 454.273 314.917 447.681C307.083 439.712 293.586 454.676 293.849 466.232C288.214 463.235 287.906 462.905 287.347 462.286C285.606 460.363 284.548 456.905 284.404 454.542C284.322 453.215 284.674 452.524 285.777 451.488C290.515 447.028 295.104 452.763 296.453 449.986C297.814 447.182 291.346 440.376 285.216 446.745H285.215C280.584 451.555 284.089 458.331 284.664 460.595C284.965 461.779 285.415 462.415 280.947 460.369C279.798 459.843 277.718 459.036 275.306 458.152C275.205 458.19 275.102 458.228 274.999 458.266ZM91.7328 275C91.7706 274.897 91.8085 274.793 91.8466 274.689C90.9625 272.277 90.155 270.197 89.6294 269.048C87.5838 264.58 88.219 265.03 89.4033 265.331C91.6675 265.906 98.4435 269.411 103.254 264.78V264.779C109.623 258.649 102.816 252.181 100.013 253.542C97.2359 254.891 102.971 259.48 98.5105 264.219C97.4745 265.322 96.7839 265.673 95.4567 265.591C93.0934 265.447 89.636 264.389 87.7123 262.649C87.0939 262.089 86.7636 261.782 83.7665 256.146C95.323 256.41 110.287 242.912 102.318 235.079C95.7265 228.6 82.8734 240.025 87.9423 244.411C90.198 246.363 93.9531 244.808 95.787 242.443V242.441C97.6219 240.074 94.9297 238.311 94.2353 239.058C93.8005 239.526 95.0349 239.658 95.0899 240.138C95.1944 241.049 95.7568 241.659 94.0442 243.128C91.3637 245.557 86.3985 244.565 88.4834 239.891V239.89C88.7065 239.389 88.9925 238.895 89.3197 238.432V238.431C92.4612 233.985 98.8295 233.454 101.511 236.09C106.756 241.245 96.1964 256.15 82.1271 253.02C79.8212 248.592 76.8932 242.83 73.4072 235.824C72.298 233.594 70.0347 230.332 70.9343 229.181V229.179C71.3571 228.638 72.3677 228.731 73.0477 228.849C77.7003 229.657 84.1645 226.037 83.1295 221.782C82.1443 217.733 76.943 228.369 70.4696 224.88C62.1178 220.378 60.9347 202.328 60.6456 192.822C67.4748 205.182 70.7404 207.188 77.646 204.841C79.1757 211.166 80.5727 213.528 82.7191 215.326H82.7204C85.2845 217.474 87.3466 217.743 91.2275 216.821C92.4533 208.375 87.118 205.863 78.6996 204.459C82.1656 203.123 85.3518 201.187 87.2827 200.225C94.4942 197.327 96.8973 206.15 93.8551 207.129C92.4757 207.571 91.2753 206.632 91.3764 205.542C91.3087 205.748 91.3337 206.561 91.7576 207.092C92.4059 207.905 94.1295 208.009 95.0634 207.012V207.011C96.3827 205.603 95.9231 202.831 94.7234 201.094V201.093C91.2148 196.017 84.841 200.011 83.4554 200.659C88.3854 197.507 88.9062 193.447 87.1108 188.75C78.4115 188.636 76.6395 194.665 76.4831 203.362C70.8288 204.794 68.7793 203.292 60.6143 187.733C60.6755 184.664 60.8879 181.914 61.3042 179.871C64.8475 163.02 74.1766 143.804 96.7299 146.227C105.498 147.726 106.875 156.161 107.1 161.588C107.409 169.497 106.618 172.386 103.588 174.425C100.856 176.263 95.8076 176.356 92.4234 174.629C87.2019 171.966 85.2116 167.007 88.2269 164.175C91.7892 160.874 92.6176 165.914 94.6107 163.135C94.2216 161.758 90.3272 160.448 88.7133 160.708C68.7096 163.937 97.8746 192.866 109.69 174.301C110.187 173.336 110.537 172.522 110.791 171.59V171.589C114.42 158.227 108.704 139.368 89.5727 140.433C91.0911 134.51 95.083 129.636 100.631 127.25C109.793 132.192 118.057 134.853 124.793 126.915C121.975 123.594 119.734 122.056 114.797 121.961V121.961C114.516 121.956 114.235 121.956 113.956 121.964C109.636 122.074 105.036 124.21 100.676 126.556C93.068 128.417 86.7127 134.834 84.6169 141.071C73.5055 143.414 67.4576 151.57 61.6441 163.913C60.6765 166.043 59.7126 167.786 59.5016 167.786C59.2905 167.786 58.7769 165.935 58.36 163.672C57.5229 159.129 55.9981 155.697 54.0243 153.912C51.1705 151.331 49.2214 142.314 50.8566 139.258C51.2031 138.611 52.5871 137.752 53.9325 137.35C56.2012 136.67 56.5354 136.736 58.5504 138.273C59.9447 139.336 60.9955 140.841 61.4847 142.473C62.1381 144.655 62.375 145.25 60.1677 146.643C58.6738 147.587 57.3284 147.494 56.3814 146.353C55.389 145.157 56.3655 143.26 57.9052 143.392C58.4545 143.44 58.9038 143.091 58.9038 142.617C58.9038 141.366 56.1792 141.555 54.971 142.89C53.5238 144.489 53.6963 146.265 55.4601 147.922C57.1001 149.463 59.1118 149.357 61.8477 147.587C65.5546 145.19 61.8246 135.876 56.2628 135.677C55.6306 135.654 55.269 135.741 55.0885 135.741C48.4414 136.506 48.2995 140.016 48.9406 145.558C49.7305 152.385 50.4953 151.427 47.5642 152.51H47.5628C47.2077 152.642 46.8698 152.818 46.5508 153.033H46.5494C43.6389 154.993 41.838 160.735 44.6526 163.346C47.6409 166.117 52.8992 164.113 52.8992 159.819C52.0347 154.691 49.791 155.69 48.5294 155.69C47.184 156.022 46.8337 156.864 46.4886 158.429C46.3387 159.109 46.3961 159.749 46.865 160.274H46.8664C47.0297 160.457 47.2442 160.628 47.5212 160.782C49.2651 160.452 47.5109 157.482 49.108 157.025C50.0825 156.424 51.1306 158.387 50.9271 160.463C50.7954 161.807 50.5538 162.897 47.9856 163.135C45.5821 163.372 42.7682 159.683 45.9812 155.785C46.4047 155.271 47.6563 153.735 48.3342 153.735C49.0812 153.546 50.8975 153.846 52.244 154.822C55.1091 156.899 56.7643 163.142 56.9406 166.322C57.1242 169.625 56.6581 173.629 56.3717 182.968C50.2478 173.122 46.448 171.624 39.4063 173.937C30.6253 176.822 26.7375 181.967 21.8404 179.733C19.1723 178.515 18.0695 175.479 18.2235 173.939C25.9589 173.705 32.2619 172.349 33.6723 164.702C28.9935 163.015 24.5255 163.262 18.4414 172.563C18.4414 171.741 18.4573 171.549 17.812 170.6C17.8976 161.191 16.5299 153.484 7.37685 151.472C3.90121 160.161 9.42972 165.565 17.2455 170.8C18.1988 174.419 17.2311 172.574 17.3473 174.611C11.8026 169.497 6.40439 165.974 0 170.427C3.33746 177.427 9.76831 177.15 17.4229 175.318C17.7904 177.65 19.23 179.761 21.3155 180.82C25.7413 183.065 29.4703 180.082 35.5876 177.517C45.7355 173.261 48.3534 174.048 56.2425 188.275C56.181 191.996 56.2662 200.635 55.9895 200.635C55.842 200.635 54.8341 199.982 53.7489 199.184C48.5181 195.339 39.7841 195.193 38.5181 195.446C36.0479 195.94 31.6091 192.411 30.4214 189.009C29.5545 186.526 29.5772 186.361 30.9941 184.853C32.7916 182.939 35.3535 182.81 36.9252 184.547C38.0204 185.757 38.0224 185.89 36.9857 187.645C35.7836 189.68 36.2308 189.973 38.3136 188.514C40.5802 186.926 39.5717 185.164 37.5003 183.346C34.9589 181.114 32.9999 180.861 30.8381 182.599H30.8367C26.4522 186.124 27.3408 188.916 30.77 192.582C32.3396 194.261 34.1525 195.802 34.7984 196.007C36.3827 196.51 36.2648 197.319 34.3904 199.546C31.121 203.431 34.3794 207.589 36.073 205.626V205.625C36.6099 205.002 37.1751 203.909 36.9262 203.261C36.5367 202.246 37.5914 200.605 38.4707 198.775C38.5587 198.592 38.6907 198.445 38.8955 198.331H38.8969C39.5136 197.987 40.7896 197.936 43.488 198.066C48.8151 198.322 50.9044 199.085 54.1191 201.953C56.3339 203.928 56.5343 204.428 57.7347 210.846C59.1956 218.657 62.0704 223.326 64.6681 229.393C66.2243 233.029 70.3444 239.598 69.8512 240.091C69.3036 240.638 66.1583 239.376 62.0017 238.726C49.3524 236.297 46.2023 225.329 51.9006 223.559H51.902C53.222 223.151 55.0156 223.232 57.2775 224.023C58.0111 224.279 59.5951 223.197 58.2434 222.7C56.9633 222.229 53.5468 220.835 51.2616 221.972H51.2602C46.3559 224.412 46.1435 229.923 49.781 234.04C40.5252 232.305 33.1759 232.725 29.1853 241.337C37.5914 247.057 44.3886 242.779 51.8133 235.921C61.5269 243.464 63.3574 237.266 72.5626 248.556C68.7223 247.74 64.6111 248.088 60.4778 250.053H60.4764C52.2949 253.943 44.3185 263.047 50.6139 269.235C53.1539 271.732 56.8963 271.998 60.9487 269.391H60.9501C68.6082 264.463 66.5611 259.562 63.2488 259.093C59.0873 258.501 55.1528 263.078 56.9836 264.775C57.4346 265.193 58.2551 265.731 58.6975 265.255C59.1324 264.787 57.8966 264.655 57.8416 264.175C57.7673 263.529 57.008 262.309 59.495 260.731H59.4964C62.5802 258.775 66.6416 260.336 64.2075 264.916C63.4127 266.411 62.2296 267.642 60.7009 268.524H60.6995C60.2276 268.796 59.7412 269.024 59.2482 269.209H59.2468C56.2879 270.316 53.0992 269.87 51.4214 268.221C47.8193 264.681 51.727 257.04 57.8464 253.436H57.8478C58.9798 252.77 60.166 252.241 61.3726 251.842H61.374C71.3307 248.554 76.7131 254.409 76.8953 254.512C80.3358 259.771 84.1353 268.101 86.7904 274.688C86.7488 274.791 86.7072 274.895 86.6649 274.998C86.7069 275.102 86.7488 275.206 86.7904 275.309C84.135 281.896 80.3358 290.225 76.8953 295.485C76.7127 295.588 71.3307 301.443 61.374 298.155H61.3726C60.166 297.757 58.9798 297.228 57.8478 296.561H57.8464C51.727 292.957 47.8193 285.316 51.4214 281.775C53.0992 280.126 56.2879 279.681 59.2468 280.788H59.2482C59.7412 280.972 60.2276 281.201 60.6995 281.473H60.7009C62.2296 282.355 63.4127 283.586 64.2075 285.081C66.6416 289.661 62.5802 291.222 59.4964 289.266H59.495C57.008 287.688 57.7673 286.468 57.8416 285.822C57.8966 285.342 59.1324 285.21 58.6975 284.742C58.2551 284.266 57.4343 284.804 56.9836 285.222C55.1528 286.919 59.0873 291.496 63.2488 290.904C66.5615 290.434 68.6082 285.534 60.9501 280.606H60.9487C56.8963 277.999 53.1542 278.265 50.6139 280.762C44.3189 286.95 52.2952 296.053 60.4764 299.944H60.4778C64.6111 301.909 68.7226 302.257 72.5626 301.441C63.3577 312.731 61.5269 306.533 51.8133 314.076C44.389 307.218 37.5914 302.94 29.1853 308.66C33.1756 317.272 40.5252 317.692 49.781 315.957C46.1435 320.074 46.3559 325.585 51.2602 328.025H51.2616C53.5468 329.162 56.9633 327.768 58.2434 327.297C59.5951 326.8 58.0111 325.718 57.2775 325.974C55.0156 326.764 53.222 326.846 51.902 326.438H51.9006C46.2023 324.668 49.3524 313.7 62.0017 311.271C66.1583 310.621 69.3036 309.359 69.8512 309.906C70.3444 310.399 66.2243 316.968 64.6681 320.604C62.0707 326.671 59.1956 331.34 57.7347 339.151C56.5343 345.569 56.3339 346.069 54.1191 348.044C50.9041 350.912 48.8151 351.675 43.488 351.931C40.7896 352.061 39.5136 352.01 38.8969 351.666H38.8955C38.691 351.552 38.5587 351.405 38.4707 351.222C37.591 349.392 36.5367 347.751 36.9262 346.736C37.1751 346.088 36.6099 344.995 36.073 344.372V344.371C34.3797 342.408 31.121 346.565 34.3904 350.451C36.2648 352.678 36.3827 353.487 34.7984 353.99C34.1525 354.195 32.3399 355.736 30.77 357.415C27.3408 361.081 26.4522 363.873 30.8367 367.398H30.8381C33.0002 369.136 34.9589 368.882 37.5003 366.651C39.5717 364.832 40.5802 363.07 38.3136 361.482C36.2311 360.024 35.7836 360.316 36.9857 362.351C38.0224 364.107 38.0204 364.24 36.9252 365.45C35.3532 367.187 32.7916 367.057 30.9941 365.144C29.5772 363.635 29.5545 363.47 30.4214 360.987C31.6091 357.585 36.0479 354.056 38.5181 354.55C39.7841 354.803 48.5181 354.658 53.7489 350.812C54.8338 350.015 55.842 349.362 55.9895 349.362C56.2662 349.362 56.181 358.001 56.2425 361.722C48.3534 375.949 45.7351 376.736 35.5876 372.48C29.4699 369.915 25.7413 366.933 21.3155 369.177C19.2297 370.236 17.79 372.347 17.4229 374.679C9.76831 372.847 3.33746 372.57 0 379.57C6.40439 384.023 11.8026 380.501 17.348 375.385C17.2318 377.422 18.1994 375.577 17.2462 379.196C9.43041 384.431 3.90189 389.834 7.37754 398.524C16.5305 396.512 17.8983 388.805 17.8127 379.396C18.4579 378.447 18.4421 378.255 18.4421 377.432C24.5261 386.734 28.9942 386.981 33.673 385.294C32.2626 377.647 25.9596 376.291 18.2242 376.056C18.0698 374.516 19.1729 371.481 21.8411 370.263C26.7382 368.029 30.626 373.174 39.407 376.059C46.4487 378.372 50.2489 376.873 56.3724 367.028C56.6588 376.367 57.1249 380.37 56.9413 383.674C56.765 386.854 55.1098 393.097 52.2447 395.174C50.8986 396.15 49.0818 396.45 48.3349 396.261C47.657 396.261 46.4054 394.725 45.9819 394.211C42.7689 390.313 45.5832 386.624 47.9863 386.86C50.5545 387.099 50.7961 388.189 50.9278 389.533C51.1309 391.61 50.0832 393.572 49.1087 392.971C47.5116 392.514 49.2658 389.544 47.5219 389.214C47.2449 389.368 47.0304 389.539 46.8671 389.722H46.8657C46.3968 390.248 46.3391 390.887 46.4893 391.567C46.8344 393.131 47.1847 393.974 48.5301 394.306C49.7917 394.306 52.035 395.305 52.8999 390.177C52.8999 385.883 47.6415 383.879 44.6533 386.65C41.8387 389.261 43.6393 395.002 46.5501 396.963H46.5515C46.8705 397.178 47.2084 397.355 47.5635 397.486H47.5649C50.496 398.569 49.7312 397.611 48.9413 404.438C48.3002 409.98 48.4421 413.49 55.0892 414.255C55.2697 414.255 55.6313 414.342 56.2634 414.319C61.8256 414.12 65.5553 404.806 61.8483 402.408C59.1124 400.639 57.1012 400.534 55.4608 402.074C53.697 403.731 53.5248 405.507 54.9716 407.106C56.1799 408.441 58.9045 408.63 58.9045 407.378C58.9045 406.905 58.4552 406.556 57.9059 406.604C56.3662 406.736 55.3893 404.839 56.382 403.643C57.3291 402.502 58.6745 402.409 60.1684 403.352C62.3756 404.746 62.1388 405.341 61.4853 407.522C60.9962 409.155 59.9453 410.659 58.5511 411.723C56.536 413.26 56.2019 413.326 53.9332 412.646C52.5881 412.243 51.2038 411.385 50.8573 410.738C49.2221 407.682 51.1715 398.665 54.025 396.084C55.9988 394.299 57.5236 390.867 58.3607 386.324C58.7776 384.061 59.2912 382.21 59.5023 382.21C59.7133 382.21 60.6772 383.953 61.6448 386.083C67.4587 398.426 73.5062 406.582 84.6176 408.925C86.7134 415.162 93.0683 421.579 100.676 423.44C105.036 425.786 109.637 427.922 113.956 428.032C114.236 428.039 114.517 428.039 114.797 428.035V428.035C119.734 427.94 121.976 426.402 124.793 423.081C118.058 415.144 109.793 417.804 100.632 422.746C95.0834 420.36 91.0918 415.486 89.5734 409.563C108.705 410.629 114.42 391.769 110.791 378.407V378.406C110.538 377.474 110.188 376.66 109.691 375.695C97.8753 357.13 68.7103 386.059 88.714 389.288C90.3279 389.549 94.2223 388.238 94.6114 386.861C92.618 384.082 91.7899 389.123 88.2276 385.821C85.2123 382.989 87.2026 378.031 92.4241 375.367C95.8083 373.64 100.857 373.733 103.589 375.571C106.619 377.61 107.41 380.499 107.1 388.408C106.876 393.836 105.499 402.27 96.7306 403.769C74.1772 406.192 64.8482 386.977 61.3049 370.125C60.8886 368.082 60.6758 365.332 60.615 362.263C68.78 346.705 70.8295 345.203 76.4838 346.634C76.6399 355.331 78.4119 361.36 87.1115 361.247C88.9069 356.55 88.3861 352.49 83.4561 349.337C84.8414 349.986 91.2152 353.98 94.7241 348.903V348.902C95.9242 347.166 96.3834 344.394 95.0641 342.986V342.984C94.1301 341.987 92.4066 342.092 91.7583 342.904C91.3344 343.436 91.3093 344.248 91.3771 344.455C91.2763 343.364 92.4767 342.426 93.8558 342.868C96.898 343.847 94.4945 352.67 87.2833 349.772C85.3525 348.809 82.166 346.874 78.7003 345.538C87.119 344.134 92.454 341.622 91.2282 333.176C87.3473 332.253 85.2855 332.523 82.7211 334.671H82.7197C80.5734 336.469 79.1764 338.83 77.6467 345.155C70.7411 342.808 67.4752 344.814 60.6462 357.175C60.935 347.669 62.1182 329.619 70.4703 325.117C76.9437 321.627 82.145 332.263 83.1302 328.214C84.1656 323.96 77.7014 320.34 73.0484 321.148C72.3684 321.266 71.3575 321.358 70.935 320.817V320.816C70.0354 319.664 72.2986 316.402 73.4079 314.173C76.8942 307.167 79.8219 301.405 82.1278 296.976C96.1971 293.847 106.756 308.751 101.512 313.907C98.8299 316.543 92.4619 316.011 89.3204 311.566V311.564C88.9932 311.101 88.7072 310.607 88.4841 310.107V310.105C86.3989 305.431 91.364 304.439 94.0449 306.869C95.7578 308.338 95.1951 308.948 95.0906 309.859C95.0356 310.339 93.8012 310.471 94.236 310.938C94.9304 311.686 97.6226 309.922 95.7877 307.555V307.554C93.9535 305.189 90.1987 303.634 87.943 305.586C82.8741 309.971 95.7269 321.397 102.318 314.918C110.287 307.084 95.3236 293.587 83.7672 293.85C86.7646 288.215 87.0946 287.908 87.713 287.348C89.6367 285.607 93.0941 284.55 95.4574 284.405C96.7846 284.324 97.4752 284.675 98.5112 285.778C102.971 290.517 97.2366 295.106 100.013 296.454C102.817 297.815 109.623 291.348 103.255 285.218V285.216C98.4442 280.586 91.6682 284.091 89.4039 284.666C88.2201 284.966 87.5848 285.417 89.6301 280.948C90.1561 279.8 90.9635 277.719 91.8473 275.307C91.8085 275.206 91.7706 275.102 91.7328 275ZM274.999 73.7753C275.101 73.766 275.204 73.7585 275.309 73.753C276.45 73.8128 277.418 74.0823 278.183 75.0197V75.021C278.372 75.2534 278.549 75.5264 278.713 75.8478C280.696 79.7359 283.489 78.8514 284.811 77.2386C287.653 73.7691 281.7 69.5073 275.309 70.1773C275.206 70.1663 275.102 70.157 274.999 70.1488C274.896 70.157 274.793 70.1666 274.689 70.1773C268.298 69.5073 262.345 73.7688 265.188 77.2386C266.509 78.8514 269.302 79.7359 271.286 75.8478C271.45 75.5264 271.626 75.2534 271.816 75.021V75.0197C272.58 74.0823 273.548 73.8128 274.689 73.753C274.794 73.7585 274.897 73.7657 274.999 73.7753ZM476.224 275C476.233 275.101 476.24 275.205 476.246 275.31C476.186 276.45 475.917 277.418 474.979 278.183H474.978C474.745 278.372 474.473 278.549 474.151 278.713C470.263 280.696 471.147 283.49 472.76 284.811C476.23 287.653 480.491 281.701 479.822 275.31C479.833 275.206 479.842 275.103 479.85 275C479.842 274.896 479.832 274.793 479.822 274.689C480.492 268.298 476.23 262.346 472.76 265.188C471.147 266.509 470.263 269.303 474.151 271.286C474.473 271.45 474.745 271.627 474.978 271.816H474.979C475.917 272.581 476.186 273.549 476.246 274.689C476.24 274.794 476.233 274.898 476.224 275ZM274.999 476.224C274.897 476.233 274.794 476.241 274.689 476.246C273.548 476.186 272.58 475.917 271.816 474.979V474.978C271.626 474.746 271.45 474.473 271.286 474.151C269.302 470.263 266.509 471.148 265.188 472.76C262.345 476.23 268.298 480.491 274.689 479.822C274.793 479.833 274.896 479.842 274.999 479.85C275.102 479.842 275.206 479.832 275.309 479.822C281.7 480.492 287.653 476.23 284.811 472.76C283.489 471.148 280.696 470.263 278.713 474.151C278.549 474.473 278.372 474.746 278.183 474.978V474.979C277.418 475.917 276.45 476.186 275.309 476.246C275.204 476.241 275.101 476.233 274.999 476.224ZM73.7747 275C73.7654 274.898 73.7579 274.794 73.7524 274.689C73.8122 273.549 74.0817 272.581 75.0191 271.816H75.0205C75.2528 271.627 75.5258 271.45 75.8472 271.286C79.7353 269.303 78.8508 266.509 77.238 265.188C73.7685 262.346 69.5067 268.298 70.1767 274.689C70.1657 274.793 70.1564 274.896 70.1482 275C70.1564 275.103 70.166 275.206 70.1767 275.31C69.5067 281.701 73.7682 287.653 77.238 284.811C78.8508 283.49 79.7353 280.696 75.8472 278.713C75.5258 278.549 75.2528 278.372 75.0205 278.183H75.0191C74.0817 277.418 73.8122 276.45 73.7524 275.31C73.7579 275.205 73.7651 275.101 73.7747 275ZM423.988 118.776C423.975 119.697 423.77 123.196 423.238 123.711C423.238 123.711 423.078 120.61 422.44 116.916C421.91 113.848 421.251 109.675 421.939 105.615C422.097 104.687 422.545 102.144 423.048 101.321H423.047C423.195 101.08 423.197 101.181 423.054 102.075C421.845 109.683 424.043 114.622 423.988 118.776ZM118.775 126.011C119.696 126.023 123.195 126.229 123.71 126.761C123.71 126.761 120.61 126.921 116.916 127.559C113.847 128.089 109.675 128.748 105.614 128.059C104.687 127.902 102.143 127.454 101.321 126.95V126.951C101.08 126.803 101.18 126.802 102.075 126.945C109.682 128.154 114.621 125.956 118.775 126.011ZM126.01 431.223C126.023 430.302 126.229 426.803 126.761 426.288C126.761 426.288 126.921 429.389 127.558 433.083C128.088 436.151 128.747 440.324 128.059 444.384C127.902 445.312 127.454 447.855 126.95 448.678H126.951C126.803 448.919 126.801 448.818 126.944 447.924C128.154 440.316 125.955 435.377 126.01 431.223ZM431.223 423.988C430.302 423.976 426.803 423.77 426.288 423.238C426.288 423.238 429.388 423.078 433.082 422.44C436.151 421.91 440.323 421.251 444.384 421.94C445.312 422.097 447.855 422.545 448.678 423.048V423.047C448.919 423.195 448.818 423.197 447.923 423.054C440.316 421.845 435.377 424.043 431.223 423.988ZM431.223 126.011C435.377 125.955 440.316 128.154 447.923 126.945C448.818 126.803 448.919 126.804 448.678 126.952V126.951C447.855 127.454 445.312 127.903 444.384 128.06C440.323 128.748 436.151 128.089 433.082 127.559C429.388 126.922 426.288 126.761 426.288 126.761C426.803 126.23 430.302 126.023 431.223 126.011ZM126.01 118.776C125.955 114.622 128.153 109.683 126.944 102.075C126.802 101.181 126.803 101.08 126.951 101.321H126.95C127.454 102.144 127.902 104.687 128.059 105.615C128.747 109.676 128.088 113.848 127.558 116.916C126.921 120.61 126.761 123.711 126.761 123.711C126.229 123.196 126.023 119.697 126.01 118.776ZM118.775 423.988C114.621 424.044 109.682 421.845 102.075 423.054C101.18 423.196 101.08 423.195 101.321 423.047V423.048C102.143 422.545 104.687 422.096 105.614 421.939C109.675 421.251 113.847 421.91 116.916 422.44C120.61 423.077 123.71 423.238 123.71 423.238C123.195 423.769 119.696 423.976 118.775 423.988ZM423.988 431.223C424.044 435.377 421.845 440.316 423.054 447.924C423.196 448.818 423.195 448.919 423.047 448.678H423.048C422.544 447.855 422.096 445.312 421.939 444.384C421.251 440.323 421.91 436.151 422.44 433.083C423.077 429.389 423.237 426.288 423.237 426.288C423.769 426.803 423.975 430.302 423.988 431.223ZM396.925 8.9409C392.648 12.4372 388.245 11.915 382.19 15.6746C379.9 17.0967 379.137 17.955 379.408 17.4648C379.813 16.7326 382.515 14.093 386.455 12.1704C390.161 10.3599 393.143 10.0368 397.239 8.11796C398.032 7.7474 398.06 7.73675 398.046 7.79484C398.015 7.91859 397.37 8.57756 396.925 8.9409ZM8.94022 153.074C12.4365 157.351 11.9143 161.753 15.6739 167.808C17.096 170.099 17.9543 170.862 17.4642 170.591C16.732 170.186 14.0923 167.484 12.1697 163.544C10.3592 159.838 10.0361 156.856 8.11729 152.76C7.74673 151.967 7.73607 151.939 7.79416 151.953C7.91791 151.984 8.57688 152.629 8.94022 153.074ZM153.073 541.058C157.35 537.562 161.753 538.084 167.808 534.324C170.099 532.902 170.862 532.044 170.591 532.534C170.186 533.266 167.483 535.906 163.543 537.829C159.837 539.639 156.856 539.962 152.76 541.881C151.966 542.252 151.938 542.262 151.952 542.204C151.984 542.08 152.629 541.421 153.073 541.058ZM541.058 396.925C537.562 392.648 538.084 388.246 534.324 382.191C532.902 379.9 532.044 379.137 532.534 379.408C533.266 379.813 535.906 382.515 537.829 386.455C539.639 390.161 539.962 393.143 541.881 397.239C542.252 398.032 542.262 398.06 542.204 398.046C542.08 398.015 541.421 397.37 541.058 396.925ZM542.204 151.953C542.263 151.939 542.252 151.967 541.881 152.76C539.963 156.856 539.639 159.838 537.829 163.544C535.906 167.484 533.267 170.186 532.534 170.591C532.044 170.862 532.903 170.099 534.325 167.808C538.084 161.754 537.562 157.351 541.058 153.074C541.421 152.629 542.08 151.984 542.204 151.953ZM151.952 7.7945C151.938 7.7364 151.966 7.74706 152.76 8.11762C156.856 10.0364 159.837 10.3595 163.543 12.1701C167.483 14.0927 170.186 16.7323 170.591 17.4645C170.862 17.9547 170.098 17.0963 167.808 15.6742C161.753 11.9147 157.35 12.4368 153.073 8.94056C152.629 8.57756 151.984 7.91859 151.952 7.7945ZM7.79382 398.046C7.73573 398.06 7.74638 398.032 8.11694 397.239C10.0357 393.143 10.3589 390.161 12.1694 386.455C14.092 382.515 16.7316 379.813 17.4638 379.408C17.954 379.137 17.0957 379.9 15.6736 382.191C11.914 388.245 12.4361 392.648 8.93988 396.925C8.57688 397.37 7.91791 398.015 7.79382 398.046ZM398.046 542.204C398.06 542.263 398.032 542.252 397.239 541.881C393.143 539.963 390.161 539.639 386.455 537.829C382.515 535.906 379.813 533.267 379.408 532.534C379.137 532.044 379.9 532.903 382.19 534.325C388.245 538.084 392.648 537.562 396.925 541.058C397.37 541.421 398.015 542.08 398.046 542.204ZM385.161 32.9717C385.149 33.0167 385.133 32.9974 384.743 32.4052C382.331 28.7319 379.904 27.0657 377.766 22.6781C376.613 20.3148 375.919 17.0406 376.663 18.9075C378.997 24.7585 382.214 26.4466 384.232 30.3956C384.436 30.794 385.278 32.5372 385.161 32.9717ZM32.971 164.838C33.0161 164.85 32.9968 164.866 32.4045 165.256C28.7312 167.668 27.0651 170.095 22.6775 172.233C20.3142 173.385 17.04 174.079 18.9069 173.336C24.7578 171.002 26.446 167.784 30.395 165.767C30.7934 165.563 32.5365 164.721 32.971 164.838ZM164.838 517.027C164.85 516.982 164.865 517.002 165.255 517.594C167.667 521.267 170.094 522.933 172.232 527.321C173.385 529.684 174.079 532.958 173.335 531.091C171.001 525.24 167.784 523.552 165.766 519.603C165.562 519.205 164.721 517.462 164.838 517.027ZM517.027 385.161C516.982 385.149 517.002 385.133 517.594 384.743C521.267 382.331 522.933 379.904 527.321 377.766C529.684 376.614 532.958 375.92 531.091 376.663C525.24 378.997 523.552 382.215 519.603 384.232C519.205 384.436 517.462 385.278 517.027 385.161ZM517.027 164.838C517.462 164.721 519.205 165.563 519.603 165.767C523.552 167.784 525.24 171.001 531.091 173.335C532.958 174.079 529.684 173.385 527.32 172.232C522.933 170.094 521.267 167.667 517.593 165.255C517.001 164.866 516.982 164.85 517.027 164.838ZM164.838 32.9717C164.721 32.5372 165.562 30.794 165.766 30.396C167.784 26.4466 171.001 24.7585 173.335 18.9079C174.079 17.041 173.385 20.3152 172.232 22.6785C170.094 27.0661 167.667 28.7322 165.255 32.4055C164.865 32.9974 164.85 33.0167 164.838 32.9717ZM32.971 385.161C32.5365 385.278 30.7934 384.437 30.3953 384.233C26.446 382.215 24.7578 378.998 18.9072 376.664C17.0403 375.92 20.3145 376.614 22.6778 377.767C27.0654 379.905 28.7316 382.332 32.4049 384.744C32.9968 385.133 33.0161 385.149 32.971 385.161ZM385.161 517.027C385.278 517.462 384.436 519.205 384.233 519.603C382.215 523.552 378.998 525.24 376.664 531.091C375.92 532.958 376.614 529.684 377.767 527.32C379.905 522.933 382.332 521.267 384.744 517.593C385.133 517.002 385.149 516.982 385.161 517.027ZM379.666 1.21824C379.733 5.77738 376.673 8.54043 375.424 14.424C374.967 16.5714 375.023 17.4755 374.905 17.0506C374.71 16.349 374.908 14.3914 374.984 13.6867C375.36 10.1822 377.063 6.77941 377.657 5.52232C379.685 1.23131 379.64 -0.178405 379.666 1.21824ZM1.21756 170.333C5.7767 170.266 8.53975 173.326 14.4234 174.574C16.5708 175.032 17.4748 174.976 17.0499 175.094C16.3484 175.289 14.3907 175.091 13.686 175.015C10.1815 174.639 6.77873 172.936 5.52164 172.341C1.23062 170.314 -0.179093 170.359 1.21756 170.333ZM170.333 548.781C170.265 544.222 173.325 541.459 174.574 535.575C175.031 533.428 174.975 532.523 175.093 532.948C175.289 533.65 175.09 535.608 175.015 536.312C174.638 539.817 172.935 543.22 172.341 544.477C170.313 548.768 170.359 550.177 170.333 548.781ZM548.781 379.666C544.222 379.733 541.459 376.673 535.575 375.425C533.428 374.967 532.523 375.023 532.948 374.905C533.65 374.71 535.608 374.908 536.312 374.984C539.817 375.36 543.22 377.063 544.477 377.658C548.768 379.685 550.177 379.64 548.781 379.666ZM548.781 170.333C550.178 170.359 548.768 170.314 544.476 172.341C543.219 172.936 539.816 174.639 536.312 175.015C535.607 175.091 533.65 175.289 532.948 175.094C532.523 174.976 533.427 175.032 535.575 174.574C541.459 173.326 544.221 170.266 548.781 170.333ZM170.333 1.21824C170.359 -0.178749 170.313 1.23131 172.341 5.52266C172.935 6.77975 174.639 10.1825 175.015 13.687C175.09 14.3917 175.289 16.3494 175.093 17.051C174.975 17.4758 175.031 16.5718 174.574 14.4244C173.325 8.54043 170.265 5.77773 170.333 1.21824ZM1.21756 379.666C-0.179437 379.64 1.23062 379.685 5.52198 377.658C6.77907 377.063 10.1818 375.36 13.6864 374.984C14.391 374.908 16.3487 374.71 17.0503 374.905C17.4752 375.023 16.5711 374.967 14.4237 375.425C8.53975 376.673 5.77704 379.733 1.21756 379.666ZM379.666 548.781C379.64 550.178 379.685 548.768 377.657 544.476C377.063 543.219 375.36 539.816 374.984 536.312C374.908 535.607 374.71 533.65 374.905 532.948C375.023 532.523 374.967 533.427 375.424 535.575C376.673 541.459 379.733 544.221 379.666 548.781ZM360.165 86.4981C360.237 86.8213 357.78 85.9003 356.228 84.6051C353.945 82.6966 352.862 80.4684 349.21 78.3496C347.409 77.3022 346.52 77.1389 346.976 77.109C347.896 77.109 351.228 77.9962 354.398 80.8854C355.855 82.2181 356.633 83.3013 358.282 84.8822C358.862 85.4363 360.164 86.4981 360.164 86.4981H360.165ZM86.4975 189.834C86.8207 189.762 85.8998 192.219 84.6045 193.771C82.696 196.054 80.4678 197.136 78.349 200.789C77.3016 202.59 77.1383 203.479 77.1084 203.022C77.1084 202.103 77.9956 198.771 80.8848 195.601C82.2175 194.144 83.3007 193.366 84.8816 191.717C85.4357 191.137 86.4975 189.834 86.4975 189.834V189.834ZM189.834 463.501C189.762 463.178 192.218 464.099 193.771 465.394C196.053 467.302 197.136 469.531 200.789 471.649C202.589 472.697 203.478 472.86 203.022 472.89C202.103 472.89 198.771 472.003 195.601 469.114C194.143 467.781 193.365 466.698 191.716 465.117C191.136 464.563 189.834 463.501 189.834 463.501H189.834ZM463.501 360.165C463.178 360.237 464.099 357.78 465.394 356.228C467.302 353.945 469.53 352.863 471.649 349.21C472.697 347.409 472.86 346.52 472.89 346.977C472.89 347.896 472.003 351.228 469.113 354.398C467.781 355.855 466.698 356.633 465.117 358.282C464.563 358.862 463.501 360.164 463.501 360.164V360.165ZM463.501 189.834C463.501 189.834 464.563 191.137 465.117 191.717C466.698 193.366 467.781 194.143 469.113 195.601C472.003 198.771 472.89 202.103 472.89 203.022C472.86 203.479 472.696 202.59 471.649 200.789C469.53 197.136 467.302 196.053 465.394 193.771C464.099 192.219 463.178 189.763 463.501 189.834V189.834ZM189.834 86.4981C189.834 86.4981 191.136 85.4363 191.716 84.8822C193.365 83.3013 194.143 82.2181 195.601 80.8854C198.771 77.9958 202.103 77.109 203.022 77.109C203.479 77.1392 202.589 77.3025 200.789 78.3496C197.136 80.4684 196.053 82.6966 193.771 84.6051C192.218 85.9003 189.762 86.8213 189.834 86.4981H189.834ZM86.4975 360.165C86.4975 360.165 85.4357 358.863 84.8816 358.283C83.3007 356.634 82.2175 355.856 80.8848 354.398C77.9953 351.228 77.1084 347.896 77.1084 346.977C77.1386 346.52 77.3019 347.41 78.349 349.21C80.4678 352.863 82.696 353.946 84.6045 356.228C85.8998 357.781 86.8207 360.237 86.4975 360.165V360.165ZM360.164 463.501C360.164 463.501 358.863 464.563 358.282 465.117C356.633 466.698 355.855 467.781 354.398 469.114C351.228 472.003 347.896 472.89 346.977 472.89C346.52 472.86 347.409 472.696 349.21 471.649C352.863 469.531 353.946 467.302 356.228 465.394C357.78 464.099 360.236 463.178 360.165 463.501H360.164ZM345.031 78.3688C345 78.4193 344.853 78.5324 344.552 78.75C340.364 81.7829 339.447 85.1802 337.529 87.683C336.716 88.7428 334.726 90.4664 334.126 90.4065C334.126 90.4065 335.531 88.6448 336.888 86.2778C341 79.1055 345.131 78.1887 345.031 78.3688ZM78.3682 204.967C78.4188 204.999 78.5318 205.146 78.7494 205.446C81.7823 209.635 85.1796 210.552 87.6824 212.469C88.7422 213.283 90.4658 215.273 90.406 215.873C90.406 215.873 88.6443 214.468 86.2772 213.111C79.1049 208.999 78.1881 204.867 78.3682 204.967ZM204.967 471.63C204.998 471.58 205.145 471.467 205.446 471.249C209.634 468.216 210.551 464.819 212.469 462.316C213.282 461.256 215.273 459.533 215.873 459.592C215.873 459.592 214.468 461.354 213.11 463.721C208.999 470.893 204.867 471.81 204.967 471.63ZM471.63 345.032C471.58 345 471.466 344.853 471.249 344.553C468.216 340.364 464.819 339.447 462.316 337.53C461.256 336.716 459.533 334.726 459.592 334.126C459.592 334.126 461.354 335.531 463.721 336.888C470.893 341 471.81 345.132 471.63 345.032ZM471.63 204.967C471.81 204.867 470.894 208.999 463.721 213.111C461.354 214.468 459.592 215.873 459.592 215.873C459.533 215.273 461.256 213.283 462.316 212.469C464.819 210.552 468.216 209.635 471.249 205.446C471.466 205.146 471.579 204.999 471.63 204.967ZM204.967 78.3688C204.867 78.1887 208.999 79.1051 213.11 86.2778C214.468 88.6448 215.873 90.4065 215.873 90.4065C215.273 90.4664 213.282 88.7428 212.469 87.683C210.551 85.1802 209.634 81.7829 205.446 78.75C205.145 78.5328 204.998 78.4197 204.967 78.3688ZM78.3682 345.032C78.1881 345.132 79.1045 341 86.2772 336.888C88.6443 335.531 90.406 334.126 90.406 334.126C90.4658 334.726 88.7422 336.716 87.6824 337.53C85.1796 339.447 81.7823 340.364 78.7494 344.553C78.5322 344.853 78.4191 345 78.3682 345.032ZM345.031 471.63C345.131 471.81 341 470.894 336.888 463.721C335.531 461.354 334.126 459.592 334.126 459.592C334.726 459.533 336.716 461.256 337.529 462.316C339.447 464.819 340.364 468.216 344.552 471.249C344.853 471.466 345 471.579 345.031 471.63ZM315.187 50.3244C315.221 51.3691 315.102 53.534 314.872 51.5276C313.917 43.2051 310.364 39.8745 309.149 34.0974C309.025 33.5117 308.551 30.979 308.854 30.4578C308.866 30.4362 310.044 33.6798 310.056 33.708C312.023 38.5187 314.941 42.861 315.187 50.3244ZM50.3238 234.812C51.3685 234.778 53.5334 234.897 51.5269 235.127C43.2044 236.081 39.8738 239.635 34.0968 240.85C33.5111 240.973 30.9783 241.447 30.4572 241.145C30.4355 241.133 33.6791 239.955 33.7073 239.943C38.5181 237.975 42.8603 235.057 50.3238 234.812ZM234.811 499.675C234.778 498.63 234.897 496.465 235.126 498.471C236.081 506.794 239.635 510.124 240.849 515.901C240.973 516.487 241.447 519.02 241.145 519.541C241.132 519.563 239.954 516.32 239.943 516.291C237.975 511.48 235.057 507.138 234.811 499.675ZM499.674 315.187C498.63 315.221 496.465 315.102 498.471 314.872C506.794 313.918 510.124 310.364 515.901 309.149C516.487 309.026 519.02 308.552 519.541 308.854C519.563 308.866 516.319 310.044 516.291 310.056C511.48 312.024 507.138 314.942 499.674 315.187ZM499.674 234.812C507.138 235.057 511.48 237.975 516.291 239.943C516.319 239.954 519.563 241.132 519.541 241.145C519.02 241.447 516.487 240.973 515.901 240.85C510.124 239.635 506.794 236.081 498.471 235.127C496.465 234.897 498.63 234.778 499.674 234.812ZM234.811 50.3244C235.057 42.861 237.975 38.5187 239.943 33.7076C239.954 33.6794 241.132 30.4362 241.145 30.4575C241.447 30.979 240.973 33.5117 240.849 34.0971C239.635 39.8741 236.081 43.2051 235.126 51.5272C234.897 53.534 234.778 51.3691 234.811 50.3244ZM50.3238 315.187C42.8603 314.942 38.5181 312.024 33.707 310.056C33.6788 310.045 30.4355 308.867 30.4568 308.854C30.9783 308.552 33.5111 309.026 34.0965 309.149C39.8735 310.364 43.2044 313.918 51.5266 314.872C53.5334 315.102 51.3685 315.221 50.3238 315.187ZM315.187 499.675C314.941 507.138 312.023 511.48 310.056 516.291C310.044 516.32 308.866 519.563 308.854 519.541C308.551 519.02 309.025 516.487 309.149 515.901C310.364 510.124 313.917 506.794 314.872 498.471C315.102 496.465 315.221 498.63 315.187 499.675Z" fill="#28382D"/>
</svg>
