<svg width="183" height="52" viewBox="0 0 183 52" fill="none" xmlns="http://www.w3.org/2000/svg">
<path d="M82.0763 1.98944C82.5059 1.84483 82.6505 1.19984 82.2803 0.915471C82.1075 0.804509 81.8837 0.635314 81.6803 0.7745C80.7829 1.11075 81.3731 2.28339 82.0763 1.98944Z" fill="#633A1C"/>
<path d="M83.2223 2.14962C83.6579 2.21021 84.061 1.77465 83.9837 1.34623C83.9255 0.931032 83.4335 0.670024 83.0519 0.830859C82.371 1.08151 82.5589 2.07567 83.2223 2.14962Z" fill="#633A1C"/>
<path d="M100.557 2.2241C100.959 2.18087 101.239 1.74052 101.137 1.35469C101.045 0.970069 100.579 0.753502 100.22 0.907121C99.4434 1.19964 99.8104 2.32506 100.557 2.2241Z" fill="#633A1C"/>
<path d="M101.58 2.01287C101.954 2.28646 102.512 1.97929 102.548 1.53587C102.625 1.06966 102.069 0.696472 101.656 0.90232C101.194 1.07452 101.168 1.76866 101.58 2.01287Z" fill="#633A1C"/>
<path d="M80.0381 1.95529C80.3567 2.28647 80.9645 2.04589 80.9952 1.5959C81.0798 1.18849 80.631 0.83395 80.25 0.973707C79.821 1.0781 79.6932 1.68228 80.0381 1.95529Z" fill="#633A1C"/>
<path d="M103.082 2.14062C103.455 2.36919 103.964 2.01701 103.943 1.59703C103.939 1.19862 103.465 0.924464 103.111 1.09544C102.671 1.26164 102.672 1.93963 103.082 2.14062Z" fill="#633A1C"/>
<path d="M84.3639 2.25708C84.7389 2.54988 85.3371 2.23907 85.3605 1.77707C85.4109 1.33608 84.9058 0.975471 84.5008 1.14231C84.0256 1.28749 83.9584 1.99243 84.3639 2.25708Z" fill="#633A1C"/>
<path d="M98.9969 2.42806C99.3875 2.48322 99.7325 2.09445 99.6797 1.71527C99.63 1.09636 98.7273 0.964107 98.4689 1.53764C98.2788 1.91383 98.5871 2.39926 98.9969 2.42806Z" fill="#633A1C"/>
<path d="M79.2462 2.41421C79.5414 2.29003 79.6537 1.88326 79.4766 1.62047C79.1789 1.1614 78.4544 1.45227 78.4974 1.95528C78.5197 2.29846 78.9271 2.56369 79.2462 2.41421Z" fill="#633A1C"/>
<path d="M104.465 2.4929C104.8 2.71668 105.296 2.4083 105.278 2.01533C105.274 1.64092 104.811 1.37934 104.487 1.56297C104.125 1.7321 104.129 2.29727 104.465 2.4929Z" fill="#633A1C"/>
<path d="M85.8244 2.71487C86.1874 2.91829 86.6901 2.60984 86.6811 2.19528C86.6967 1.77465 86.1838 1.47528 85.8207 1.67691C85.4122 1.86647 85.4236 2.52224 85.8244 2.71487Z" fill="#633A1C"/>
<path d="M98.2268 2.42809C98.3924 2.0081 97.9532 1.53953 97.5242 1.68772C97.118 1.77589 96.9428 2.3357 97.2452 2.62908C97.5164 2.96325 98.1152 2.84986 98.2268 2.42809Z" fill="#633A1C"/>
<path d="M78.1962 2.87564C78.4068 2.53725 78.063 2.03988 77.6689 2.16764C77.3695 2.23844 77.1787 2.62599 77.3695 2.88764C77.5495 3.17623 78.0373 3.19302 78.1962 2.87564Z" fill="#633A1C"/>
<path d="M106.466 2.85163C106.538 2.51982 106.185 2.19708 105.862 2.28768C105.513 2.36806 105.391 2.86728 105.655 3.10607C105.905 3.36643 106.4 3.20081 106.466 2.85163Z" fill="#633A1C"/>
<path d="M87.0323 3.23682C87.3083 3.50562 87.8194 3.33399 87.9083 2.96866C88.0271 2.57804 87.5764 2.17907 87.202 2.33869C86.8349 2.45744 86.743 2.98967 87.0323 3.23682Z" fill="#633A1C"/>
<path d="M96.5389 3.38502C96.8353 3.30221 96.9955 2.92967 96.8593 2.65487C96.6412 2.11406 95.7944 2.33977 95.8435 2.91588C95.8615 3.24162 96.2293 3.49062 96.5389 3.38502Z" fill="#633A1C"/>
<path d="M77.1791 3.81219C77.2955 3.50438 76.9703 3.12884 76.6487 3.25124C76.3871 3.33283 76.2431 3.68323 76.4135 3.91058C76.5959 4.18181 77.0783 4.13079 77.1791 3.81219Z" fill="#633A1C"/>
<path d="M88.3162 4.06545C88.6018 4.26343 89.0452 4.04201 89.0602 3.69526C89.0962 3.33708 88.6594 3.04906 88.3474 3.23448C88.036 3.39102 88.012 3.88839 88.3162 4.06545Z" fill="#633A1C"/>
<path d="M95.6306 3.86081C95.7938 3.49419 95.3666 3.0592 95.0012 3.24705C94.7 3.35808 94.5914 3.793 94.8332 4.01685C95.0576 4.26765 95.525 4.18841 95.6306 3.86081Z" fill="#633A1C"/>
<path d="M107.399 3.93462C107.528 3.58602 107.083 3.20326 106.768 3.42404C106.569 3.55186 106.486 3.84403 106.63 4.04266C106.813 4.31803 107.303 4.25744 107.399 3.93462Z" fill="#633A1C"/>
<path d="M81.2921 34.244C83.4823 34.3782 85.662 33.4815 86.257 31.2915C86.926 28.7499 86.632 25.9937 85.555 23.6068C85.555 23.6068 88.5824 26.357 88.5825 26.3572C89.5791 27.315 90.8492 28.809 90.4899 30.1671C90.2007 29.6349 89.8623 29.1105 89.3841 28.7241C88.6342 28.0846 87.5938 27.6777 86.6092 27.9393C86.9917 28.7849 88.3471 30.1632 88.7619 31.7804C89.1963 33.3704 88.0971 35.2586 86.4358 35.5225C88.5011 36.4748 91.9231 33.7261 90.5282 30.281C91.3985 28.1498 88.8314 25.6638 87.7539 24.4186C85.9052 22.3452 81.2749 17.0127 79.9505 14.4097C78.9998 12.5026 78.6122 10.503 79.4585 8.5148C80.4276 6.24867 82.6402 5.7238 85.0293 6.24267C88.556 7.01348 90.3634 9.77625 90.6278 9.99261C89.339 5.41034 84.2621 3.28791 80.7898 4.50635C77.6364 5.55968 76.1888 9.44265 77.1803 12.9295C77.7251 14.8254 78.8387 16.4976 80.107 17.9856C79.7914 17.8607 79.4879 17.7054 79.168 17.5901C72.4313 15.0139 65.8637 19.034 65.6612 23.9098C65.5136 26.5091 66.9101 28.807 68.8819 29.6096C71.2558 30.5798 76.7853 30.2183 77.0177 26.5953C77.1776 26.7571 77.4722 27.5171 78.5716 28.2044C81.0356 29.696 82.5976 28.1977 82.7895 27.0255C82.9455 26.1105 82.3257 25.1211 81.4204 24.8931C80.4154 24.6315 79.2839 25.6311 79.513 26.6666C79.3978 25.7553 80.2684 24.8829 81.1762 24.9759C82.0834 25.0875 82.7331 26.0631 82.5825 26.9463C82.4193 27.8667 81.4971 28.5471 80.5792 28.5266C78.9313 28.4921 76.9282 26.8214 77.0549 24.8703C77.1131 23.9127 77.6663 22.9479 78.5609 22.5466C80.0711 21.8875 83.7697 22.8182 85.5093 25.5315C85.7706 25.8885 86.3581 28.3289 85.8206 30.9218C85.4382 33.1709 82.9974 34.1314 80.905 33.8516C80.1334 33.0626 79.2526 32.384 78.2963 31.8356C77.9972 29.4924 83.1173 28.0754 82.8975 31.0496C83.244 29.5135 81.3905 28.6856 79.4692 29.7026C78.7246 30.1046 78.0551 30.8336 78.0503 31.724C75.4425 30.3899 72.6419 30.8821 70.1563 32.3864C66.6044 34.4981 64.4985 37.5738 60.2871 39.738C58.1842 40.8402 55.8526 41.5806 53.4671 41.6406C50.7756 40.8968 50.1068 37.6573 51.7139 36.0235C53.1086 34.6152 55.387 35.0489 56.014 36.4723C56.4399 37.4201 56.2367 39.0611 53.9993 39.2808C52.4751 39.4074 51.7877 38.428 51.9353 37.6206C52.1027 36.7882 53.3 36.4954 54.1211 37.1676C54.5609 37.5283 54.8279 38.0424 55.0601 38.5506C54.5211 36.8468 53.2877 36.3907 52.3842 36.8185C51.4276 37.2833 51.5872 38.5942 52.4232 39.171C53.3564 39.8306 55.1061 39.6266 55.9445 38.8134C56.991 37.7923 56.7659 35.5779 54.7745 34.9032C53.2338 34.3549 51.232 35.1458 50.6298 36.999C50.1431 38.4711 50.5193 40.6098 52.6914 41.6471C48.305 41.4843 43.9162 38.6388 42.9824 34.2943C42.3943 31.5683 43.8579 28.1935 46.4821 26.5958C48.7125 25.2285 51.4411 25.6156 52.9056 27.1742C55.3998 29.7756 52.7137 35.3069 49.5588 35.3094C47.9718 35.3506 46.6867 34.2092 46.7101 32.9755C46.7611 31.8811 47.7265 30.8569 48.8508 30.8858C48.738 31.0214 48.6018 31.1438 48.5377 31.3124C49.0434 31.2979 49.4532 31.7701 49.4688 32.2544C49.4514 32.4541 49.416 32.6581 49.473 32.8555C49.602 33.3523 49.8432 33.8281 50.1852 34.2127C51.4914 34.2616 52.1282 32.4203 51.0329 31.2638C50.5319 30.7412 49.6974 30.5054 49.0242 30.8198C48.7914 30.8984 48.5351 30.7922 48.2988 30.8731C47.0499 31.1725 45.9288 32.7102 46.8073 34.2312C47.8732 36.0354 50.988 36.6219 53.2067 33.7567C54.9046 31.5516 55.3622 28.4318 53.5319 26.4315C52.1708 24.9387 49.7365 24.1527 47.2159 24.9135C42.9807 26.1736 39.313 32.1489 42.5132 37.683C42.7976 38.1984 43.1594 38.664 43.5092 39.1356C37.4375 35.7156 33.25 32.2649 28.815 31.6652C29.0975 31.658 29.3838 31.6016 29.5968 31.4018C28.9482 30.9572 28.3782 30.3759 28.0236 29.6684C28.4232 30.0981 28.5094 30.4627 29.7276 31.1618C30.0102 30.542 29.7762 29.7014 29.1654 29.3696C28.6069 29.0619 28.0024 28.8499 27.4717 27.7395C27.1835 28.6446 27.1081 30.3005 27.7027 31.025C27.9157 31.3226 28.2361 31.508 28.5739 31.6309C22.6072 31.0268 19.6196 35.5204 20.6091 38.859C15.3367 41.7771 9.30784 41.4695 7.30444 40.2515C5.91966 39.4093 5.89636 38.1761 6.74462 37.3128C7.19583 36.8562 7.77001 36.5016 8.39577 36.3474C9.04254 36.1878 9.63715 36.7482 9.77277 37.3476C9.98047 38.0577 9.4761 39.2681 7.60924 39.1205C8.4042 39.3407 9.36778 39.0593 9.79856 38.3256C10.4071 37.3176 9.52397 35.5748 7.91998 36.1518C6.53413 36.6527 5.38964 37.7849 5.74625 39.1488C6.49955 42.4733 15.0905 42.991 21.0741 39.9281C23.6228 44.0388 28.4263 41.665 27.7411 38.8973C27.4245 37.4882 25.6517 36.5788 23.8802 37.1063C23.2257 37.2851 22.6419 37.6397 22.0515 37.9613C21.8329 35.4613 24.4343 32.4805 29.2987 33.4938C29.1145 33.5916 28.8985 33.615 28.7227 33.732C27.7388 34.2978 27.3176 35.6274 27.7531 36.6678C28.2715 37.9909 29.9612 38.9761 31.3212 38.3081C32.1891 37.877 32.2253 36.8632 31.5234 36.3804C30.6292 35.7558 29.3472 36.0632 29.1289 36.756C29.0539 37.0356 29.2003 37.3272 29.4535 37.4568C29.4451 37.4406 29.4295 37.4088 29.4211 37.3926C28.9516 37.1199 29.119 36.2311 30.2996 36.2016C31.4608 36.2165 32.0631 37.1263 31.5643 37.7148C31.204 38.1587 30.2408 38.4057 29.2262 37.7688C27.4211 36.6128 27.8419 34.4803 29.1656 33.9007C31.8026 32.8367 39.9082 39.9317 47.5557 42.3095C47.9454 42.4531 49.9393 43.5754 53.0402 43.6373C57.4204 43.7425 61.7561 41.8015 65.1292 39.1247C69.7263 35.5367 73.757 30.0342 79.3207 35.0154C85.9025 41.0036 82.9303 47.4239 79.2631 48.3057C77.1963 48.8055 74.7032 47.6923 73.916 45.6214C74.1842 45.9238 74.468 46.2364 74.867 46.3642C74.6462 45.7192 74.759 44.9656 75.188 44.4317C75.4045 44.1569 75.7321 44.0122 76.0178 43.8239C76.4858 43.5215 76.9471 43.2023 77.4577 42.9743C77.4097 42.3359 76.796 41.9039 76.205 41.8115C74.5034 41.5101 72.9426 43.3758 73.7084 45.1913C73.8004 45.4341 73.7927 46.7572 75.2258 47.9878C80.861 52.8345 89.7537 43.4927 81.2921 34.244ZM78.0042 22.356C77.1918 22.899 76.6824 23.8547 76.6446 24.8267C76.4221 24.5994 76.2276 24.3359 75.9348 24.1907C75.9036 24.2285 75.8736 24.2663 75.8442 24.3041C75.286 23.4599 73.1479 22.573 71.6509 23.8038C70.1387 25.0974 70.7471 27.6735 73.0633 25.815C73.4071 25.5569 73.5889 25.1442 73.9291 24.8814C74.5147 24.3828 75.3618 24.2406 76.0824 24.5034C76.0452 24.477 75.9714 24.4248 75.9348 24.3984C75.966 24.363 75.9984 24.3288 76.0326 24.2946C76.7269 24.9682 76.616 25.1663 76.6704 25.5036C76.704 25.7957 76.8666 26.0724 76.8018 26.3736C76.4736 30.0831 70.6492 29.8672 68.7626 28.7771C65.839 27.062 65.0044 21.3173 70.5476 18.6253C74.1381 16.8587 78.9192 17.4919 82.1903 20.2711C82.4993 20.5597 82.7771 20.8807 83.0789 21.1765C83.7629 21.8167 84.271 22.6176 84.7168 23.4348C84.991 23.9544 85.2226 24.4956 85.4236 25.0476C83.6666 22.3961 79.7617 21.1913 78.0042 22.356ZM26.1337 38.7661C26.9561 39.5685 25.6649 40.8911 24.3554 40.6063C23.5448 40.4449 22.8729 39.8605 22.466 39.1585C23.3318 38.6738 24.9914 37.6556 26.1337 38.7661Z" fill="#633A1C"/>
<path d="M90.0561 4.71219C90.1162 4.40138 89.7598 4.11101 89.4712 4.24662C89.2096 4.34744 89.1088 4.71941 89.3062 4.92762C89.5191 5.19934 90.0249 5.0608 90.0561 4.71219Z" fill="#633A1C"/>
<path d="M93.8569 5.00379C94.0999 5.21257 94.5241 5.03859 94.5445 4.71821C94.5901 4.4194 94.2667 4.14703 93.9811 4.25978C93.6697 4.35402 93.5773 4.81838 93.8569 5.00379Z" fill="#633A1C"/>
<path d="M174.711 36.764C173.777 36.9109 173.2 38.0552 173.59 38.9053C174.053 39.9398 175.452 40.0798 175.917 39.7825C174.386 40.2563 172.912 38.6643 174.021 37.439C174.661 36.7145 175.544 37.1156 176.343 37.7084C178.117 39.0601 177.373 41.1802 174.053 41.6641C170.207 42.1705 166.199 41.3923 162.833 39.4598C163.749 36.6904 161.646 32.6582 156.894 32.1753C156.235 32.1028 155.575 32.1406 154.916 32.1729C156.438 31.7779 156.434 29.8308 156.099 28.3006C155.938 28.4813 155.723 29.1504 154.921 29.6169C154.64 29.7957 154.302 29.8923 154.069 30.1395C153.677 30.5415 153.588 31.1733 153.77 31.6929C154.86 31.1879 155.279 30.4384 155.52 30.2127C155.143 30.9015 154.598 31.5045 153.93 31.9209C154.095 32.1357 154.371 32.1891 154.624 32.2293C150.516 32.6433 145.348 36.5903 139.929 39.5539C144.643 33.9957 141.276 27.0398 136.583 25.375C134.25 24.5595 131.855 25.0887 130.34 26.4556C127.205 29.2575 129.414 34.742 132.656 35.9053C134.479 36.5848 136.681 35.5607 136.986 33.8144C137.226 32.4769 135.89 31.0191 134.586 31.2279C134.049 30.9417 133.379 31.0041 132.869 31.3167C131.452 32.1474 131.631 34.4926 133.302 34.592C133.65 34.1762 133.926 33.6879 134.045 33.1562C134.115 32.894 133.977 32.6181 134.088 32.363C134.212 31.9719 134.577 31.6761 134.994 31.6767C134.901 31.5225 134.785 31.3845 134.655 31.2621C135.753 31.2243 136.696 32.2112 136.788 33.2726C136.908 34.9441 134.654 36.2618 132.796 35.4241C130.681 34.5157 129.289 31.5762 129.73 29.3073C130.039 27.5446 131.658 26.3848 133.435 26.1669C138.722 25.4921 143.519 33.0956 138.529 38.4876C136.77 40.4297 134.155 41.7967 130.737 41.9951C130.938 41.8607 131.169 41.7786 131.365 41.6345C133.138 40.4765 133.465 38.0466 132.43 36.5047C131.195 34.6465 128.367 34.6022 127.28 36.2995C126.635 37.3131 126.774 38.9021 128.117 39.5526C129.015 39.989 130.414 40.0858 131.201 39.3738C132.038 38.6224 131.881 37.2609 130.75 37.0447C129.634 36.8 128.733 37.7488 128.409 38.8495C128.619 38.3767 128.876 37.9111 129.266 37.5619C130.037 36.8523 131.249 37.0645 131.502 37.8643C131.731 38.6578 131.048 39.8521 129.23 39.5808C126.864 39.1873 126.99 37.1382 127.798 36.2713C128.991 34.9753 131.297 35.3515 132.186 36.9325C133.163 38.6583 132.438 41.1805 130.076 41.946C129.737 42.0121 126.358 41.9661 122.241 39.4932C118.618 37.365 116.373 34.2464 112.88 32.297C110.527 30.9834 107.891 30.6228 105.465 31.8447C105.421 29.6043 101.622 28.4481 100.73 30.2007C100.557 30.4905 100.548 30.8463 100.641 31.1643C100.476 30.5451 100.857 29.8966 101.418 29.6338C102.744 29.0107 105.284 30.1056 105.234 31.9485C104.319 32.4945 104.052 32.5973 102.569 33.9465C100.809 34.163 98.3108 33.4602 97.7627 31.2604C97.1737 28.6621 97.739 26.2499 97.9811 25.7135C99.6913 22.9277 103.513 21.9698 105.047 22.668C106.576 23.3796 107.31 25.9075 105.269 27.6569C103.229 29.362 101.338 28.5399 100.997 27.1415C100.782 26.2595 101.403 25.2468 102.305 25.0817C102.981 24.9624 103.656 25.4129 103.932 26.0183C104.06 26.2577 104.031 26.5361 104.037 26.7977C104.291 25.7645 103.199 24.7517 102.189 24.9756C101.264 25.176 100.62 26.1707 100.766 27.0977C100.928 28.1958 102.223 29.4457 104.203 28.6973C105.171 28.3271 106.031 27.6311 106.521 26.709C106.594 27.2436 106.732 27.7799 107.032 28.2359C107.598 29.1155 108.565 29.6585 109.554 29.9333C111.108 30.3559 114.259 30.6086 116.06 28.9157C118.157 26.9815 119 22.9116 115.874 19.7563C113.015 16.8747 108.003 15.994 103.526 18.0955C104.678 16.7486 105.725 15.2696 106.322 13.5854C108.088 8.85606 105.228 3.3363 99.4768 4.36726C96.4288 4.91621 93.7989 7.19991 93.093 9.99334C93.3307 9.78585 95.7989 6.23376 100.139 6.13301C102.477 6.10379 103.94 7.25357 104.478 9.26311C105.663 13.664 102.154 17.3224 94.6049 25.8155C93.57 27.0357 92.3745 28.8107 93.0011 30.2883C91.6296 33.6481 94.7769 36.4194 97.0385 35.5904C96.8915 35.4986 96.7103 35.4956 96.5531 35.4302C95.5127 35.0396 94.8156 33.992 94.6709 32.9133C94.4267 31.2266 96.044 29.4354 96.9455 28.0342C96.8813 29.1262 96.9905 30.2283 97.2491 31.2909C97.7991 33.4943 99.9587 34.4542 102.204 34.3341C95.2313 41.7767 99.8402 49.3827 104.641 49.3967C107.09 49.4146 109.32 47.7114 109.62 45.6288C109.654 45.3396 109.824 45.0869 109.855 44.796C110.015 43.9668 109.705 43.08 109.078 42.5184C107.761 41.316 105.919 42.1459 105.979 43.0933C106.402 43.323 106.818 43.5655 107.212 43.8421C107.571 44.1001 108.011 44.2723 108.271 44.6472C108.653 45.1806 108.732 45.8964 108.523 46.5138C108.928 46.3782 109.225 46.0638 109.495 45.747C109.288 46.2438 109.003 46.7118 108.626 47.0976C107.201 48.5489 104.793 49.0412 102.987 47.9478C100.977 46.7612 99.8534 44.0554 100.277 41.5639C100.73 38.7008 102.877 35.9812 105.063 34.4073C110.378 30.6061 114.511 36.5011 118.85 39.7687C123.726 43.4989 130.162 45.3927 135.787 42.7219C142.411 40.7203 148.39 35.8436 152.947 34.3725C153.368 34.2135 153.843 34.2645 154.26 34.4145C155.13 34.7577 155.613 35.7897 155.424 36.6873C155.083 38.2918 153.081 39.2021 152.032 38.3745C151.574 38.0176 151.574 37.2362 152.462 36.8727C153.363 36.5 154.348 36.9368 154.286 37.5351C154.298 37.7211 154.137 37.8393 154.027 37.9647C154.435 37.7887 154.571 37.1437 153.836 36.7551C152.57 36.1427 150.953 37.1726 151.573 38.2964C151.972 39.0422 153.099 39.2061 153.895 38.9186C156.113 38.1246 156.554 35.4774 154.878 34.3449C154.672 34.1865 154.415 34.1385 154.185 34.036C159.239 33.0435 161.665 36.229 161.402 38.5743C160.593 38.0841 159.727 37.6017 158.761 37.5459C157.784 37.4733 156.737 37.8303 156.119 38.6145C154.979 40.028 155.972 42.1139 157.977 42.629C159.333 42.9856 161.147 42.4284 162.367 40.5512C168.252 43.5776 176.595 43.2496 177.657 40.0508C178.328 38.0869 175.796 36.622 174.711 36.764ZM107.94 17.8021C111.637 17.5692 115.037 19.2925 116.473 21.975C117.978 24.7004 116.712 28.4822 114 29.317C112.701 29.7352 109.664 29.9598 107.941 28.6666C107.191 28.1098 106.745 27.1847 106.752 26.2535C106.797 25.9937 106.904 25.7453 106.918 25.4783C106.928 25.0355 107.264 24.6965 107.57 24.4145C107.602 24.4481 107.634 24.4829 107.669 24.5184C107.627 24.5424 107.544 24.5897 107.503 24.6137C107.634 24.6173 107.759 24.5705 107.888 24.5442C108.563 24.4295 109.282 24.6648 109.767 25.1478C110.13 25.4909 110.305 26.0811 111.479 26.5518C112.389 26.9034 112.782 26.2192 112.744 25.5384C112.606 23.6134 110.083 22.5936 108.171 24.0198C108.021 24.1398 107.847 24.2448 107.759 24.4224C107.727 24.3864 107.697 24.3504 107.668 24.315C107.369 24.4698 107.136 24.7164 106.937 24.9828C106.888 23.6486 105.929 21.8084 103.502 22.0327C101.408 22.2349 99.3665 23.3178 98.1726 25.0734C99.4941 21.2283 103.154 18.0837 107.94 17.8021ZM96.9444 27.9899C95.6976 27.629 93.9295 28.3723 93.0469 30.1888C92.6528 28.8063 94.0651 27.2333 95.1097 26.2643C96.0931 25.4058 97.0693 24.5376 98.0328 23.6574C97.4022 25.0163 97.0368 26.4953 96.9444 27.9899ZM158.204 41.1493C157.097 40.7978 156.707 39.7921 157.413 39.2479C158.562 38.3364 159.983 39.1887 160.984 39.7591C160.244 40.9969 159.022 41.4137 158.204 41.1493Z" fill="#633A1C"/>
<path d="M75.9313 5.27557C76.1485 5.43876 76.5055 5.28157 76.536 5.01277C76.5708 4.73676 76.2384 4.47397 75.9871 4.62215C75.7453 4.73976 75.7057 5.12316 75.9313 5.27557Z" fill="#633A1C"/>
<path d="M107.261 5.28817C107.396 5.52517 107.792 5.54797 107.922 5.29296C108.094 5.01759 107.794 4.61375 107.48 4.74036C107.269 4.81181 107.126 5.09018 107.261 5.28817Z" fill="#633A1C"/>
<path d="M90.8877 5.9128C91.0077 5.64822 90.7258 5.32484 90.4474 5.404C90.2002 5.46038 90.061 5.78562 90.2224 5.99318C90.3789 6.23319 90.7918 6.18338 90.8877 5.9128Z" fill="#633A1C"/>
<path d="M93.0037 6.10235C93.2311 6.26976 93.5935 6.07956 93.5857 5.79754C93.6042 5.51974 93.2605 5.29775 93.0223 5.45794C92.7811 5.58219 92.7596 5.9686 93.0037 6.10235Z" fill="#633A1C"/>
<path d="M75.9119 6.68739C76.1177 6.82 76.4069 6.6298 76.4099 6.39637C76.4064 6.16659 76.1213 5.99139 75.9191 6.10957C75.6935 6.21574 75.6971 6.57092 75.9119 6.68739Z" fill="#633A1C"/>
<path d="M107.54 6.23617C107.354 6.30155 107.257 6.54999 107.385 6.71139C107.514 6.92796 107.87 6.90817 107.959 6.66581C108.086 6.41137 107.799 6.11314 107.54 6.23617Z" fill="#633A1C"/>
<path d="M91.5776 7.11394C91.6664 6.85293 91.3448 6.58714 91.1066 6.73354C90.9272 6.82835 90.8654 7.09415 91.0184 7.24112C91.1751 7.42711 91.5164 7.35151 91.5776 7.11394Z" fill="#633A1C"/>
<path d="M92.7626 7.17396C92.9042 6.93275 92.6216 6.61058 92.363 6.7174C92.1686 6.7822 92.0648 7.045 92.1986 7.21298C92.3264 7.41332 92.6624 7.38932 92.7626 7.17396Z" fill="#633A1C"/>
<path d="M76.4624 7.49613C76.2632 7.56815 76.2542 7.86153 76.4288 7.9677C76.586 8.10567 76.8344 7.96592 76.856 7.7745C76.8991 7.56694 76.6418 7.3911 76.4624 7.49613Z" fill="#633A1C"/>
<path d="M107.405 7.78115C107.351 7.62274 107.147 7.55672 107.005 7.63417C106.814 7.72477 106.828 8.01279 107.002 8.11296C107.202 8.25751 107.498 8.00372 107.405 7.78115Z" fill="#633A1C"/>
<path d="M91.6108 8.56953C91.798 8.71651 92.1951 8.65892 92.2036 8.37276C92.2096 8.11418 91.9042 8.03794 91.702 8.10453C91.5094 8.16091 91.4469 8.4465 91.6108 8.56953Z" fill="#633A1C"/>
<path d="M88.327 9.65064C89.9951 10.0205 90.563 10.5824 91.0761 11.369C90.7529 9.95273 87.8759 8.69985 86.3507 9.39928C84.9995 9.97652 84.4844 11.8911 84.5249 13.3568C84.6745 17.1162 87.5598 19.2434 89.2072 21.462C89.9206 22.3878 90.5325 23.3855 91.1379 24.3839C90.9811 23.9908 90.1244 22.4642 89.236 21.2028C87.7142 19.0154 85.1034 16.9148 84.9575 13.4149C84.9282 12.527 85.0847 11.618 85.4891 10.8218C86.1005 9.6575 87.0408 9.37484 88.327 9.65064Z" fill="#633A1C"/>
<path d="M98.6058 15.8389C99.5878 13.3861 99.1129 11.1935 98.1901 10.0844C97.2269 8.90855 95.7437 9.11662 94.3292 9.70644C93.5822 10.0268 92.8814 10.595 92.6078 11.3804C92.9898 10.8388 93.42 10.0918 95.3905 9.67943C96.6885 9.41771 97.6294 9.72531 98.2177 10.8956C99.1842 12.8651 98.6704 15.2658 97.5157 17.1552C96.2177 19.2972 94.1997 20.7818 92.4734 24.3329C93.1472 23.2523 93.8287 22.1723 94.6346 21.183C95.9492 19.5203 97.6983 18.1047 98.6058 15.8389Z" fill="#633A1C"/>
<path d="M74.1606 14.1902C72.1167 12.4352 70.7561 10.6568 69.1081 9.88349C67.3348 9.04638 66.0108 9.33711 66.7118 10.6569C68.0564 13.0372 71.4747 13.186 74.1606 14.1902Z" fill="#633A1C"/>
<path d="M116.343 11.6756C118.056 10.0143 116.99 8.91541 114.493 10.1306C112.946 10.8846 111.861 12.3049 109.503 14.3504C112.1 13.3855 114.554 13.3971 116.343 11.6756Z" fill="#633A1C"/>
<path d="M75.7393 14.4176C76.2559 14.7121 76.8288 14.8783 77.3899 15.065C75.808 13.2538 76.9848 11.9231 75.6745 10.5825C74.6063 9.4894 73.4608 11.1138 74.0419 12.6374C74.3606 13.4174 75.0157 14.0132 75.7393 14.4176Z" fill="#633A1C"/>
<path d="M106.291 15.1736C106.841 15.0158 107.394 14.8454 107.9 14.5718C111.235 12.7663 109.458 9.29969 108.046 10.7013C106.712 12.0099 107.84 13.4306 106.291 15.1736Z" fill="#633A1C"/>
<path d="M91.3912 24.1631C91.8367 21.9107 91.3253 19.396 89.8198 17.8524C89.0472 17.0243 88.3756 16.7014 88.1873 15.2653C88.0084 13.7027 88.7115 12.6287 89.341 12.542C90.1585 12.5484 90.8684 13.6576 91.099 13.9538C91.405 13.0082 91.054 11.9024 90.2686 11.2982C89.2281 10.4823 87.7841 10.9002 86.9237 11.9516C85.5568 13.612 85.7996 16.3296 87.1583 17.8231C88.0956 18.8774 89.0865 18.9101 90.145 20.5926C91.2511 22.36 91.304 23.9614 91.3912 24.1631Z" fill="#633A1C"/>
<path d="M93.8671 17.8201C92.2412 19.4063 91.7457 22.1253 92.2093 24.1673C92.3269 23.244 92.5789 22.3343 92.9791 21.4926C93.9833 19.3779 95.0139 19.0912 95.9178 18.3756C97.6728 17.0276 98.0324 14.5589 97.2822 12.8503C96.4827 11.0171 94.6099 10.4191 93.4495 11.294C92.6431 11.8844 92.2699 12.9997 92.5735 13.955C92.8081 13.6657 93.4427 12.6601 94.2643 12.563C94.8223 12.5381 95.5506 13.4981 95.505 14.8562C95.4526 16.5668 94.6574 17.0042 93.8671 17.8201Z" fill="#633A1C"/>
<path d="M70.9178 17.3665C72.2257 17.2528 72.6397 16.7276 73.5566 16.3891C74.2574 16.1113 75.047 16.0034 75.7825 16.2079C75.3301 15.7705 74.8022 15.4112 74.237 15.1364C70.2961 13.2879 68.0672 17.4861 70.9178 17.3665Z" fill="#633A1C"/>
<path d="M107.868 16.3459C109.629 15.8854 110.921 17.0969 111.85 17.3743C113.735 17.9395 114.365 17.0886 113.827 16.1101C112.872 14.4215 110.027 14.3254 107.868 16.3459Z" fill="#633A1C"/>
<path d="M68.0721 16.9297C67.9689 16.9723 67.8933 17.1067 67.964 17.2087C68.0294 17.3413 68.2286 17.3587 68.3066 17.2267C68.4357 17.0791 68.2401 16.8475 68.0721 16.9297Z" fill="#633A1C"/>
<path d="M68.951 16.9039C68.7157 16.9867 68.9312 17.3539 69.1159 17.1942C69.2942 17.0893 69.1298 16.8187 68.951 16.9039Z" fill="#633A1C"/>
<path d="M67.1649 17.1103C67.0029 17.1949 67.0191 17.4457 67.1865 17.5147C67.3677 17.6179 67.6011 17.3803 67.4943 17.2015C67.4379 17.0803 67.2741 17.0383 67.1649 17.1103Z" fill="#633A1C"/>
<path d="M114.565 17.0977C114.331 17.1595 114.498 17.5177 114.699 17.4091C114.891 17.3221 114.754 17.0221 114.565 17.0977Z" fill="#633A1C"/>
<path d="M115.398 17.1493C115.155 17.2585 115.392 17.6497 115.603 17.4931C115.836 17.3731 115.608 17.0065 115.398 17.1493Z" fill="#633A1C"/>
<path d="M116.235 17.3173C116.083 17.3977 116.088 17.6371 116.239 17.7157C116.388 17.8321 116.608 17.6671 116.592 17.4949C116.568 17.3401 116.373 17.2231 116.235 17.3173Z" fill="#633A1C"/>
<path d="M66.3253 17.8356C66.4675 17.9437 66.6805 17.8393 66.7189 17.6742C66.7867 17.4618 66.5017 17.2512 66.3235 17.3952C66.1567 17.4865 66.1579 17.7457 66.3253 17.8356Z" fill="#633A1C"/>
<path d="M117.088 17.5849C116.903 17.6413 116.846 17.9058 116.999 18.0282C117.131 18.1686 117.373 18.087 117.428 17.9124C117.503 17.7223 117.274 17.5093 117.088 17.5849Z" fill="#633A1C"/>
<path d="M65.9553 18.1627C66.0789 17.9431 65.8294 17.6641 65.5971 17.7553C65.4315 17.8135 65.3247 18.0361 65.4399 18.1873C65.5479 18.3798 65.8689 18.372 65.9553 18.1627Z" fill="#633A1C"/>
<path d="M117.753 18.4848C117.903 18.636 118.181 18.5311 118.231 18.333C118.301 18.1032 118.009 17.8662 117.802 18.0036C117.623 18.0924 117.594 18.36 117.753 18.4848Z" fill="#633A1C"/>
<path d="M65.2797 18.6924C65.4046 18.4524 65.1393 18.1483 64.8855 18.246C64.6773 18.3072 64.5724 18.6018 64.7344 18.7638C64.8778 18.9451 65.1879 18.9061 65.2797 18.6924Z" fill="#633A1C"/>
<path d="M118.963 18.8695C119.032 18.6289 118.759 18.3811 118.527 18.4855C118.314 18.5605 118.252 18.8659 118.414 19.0201C118.577 19.1946 118.911 19.1028 118.963 18.8695Z" fill="#633A1C"/>
<path d="M64.6941 19.2876C64.7967 19.0164 64.4937 18.7176 64.2249 18.8412C64.0035 18.9198 63.9159 19.2402 64.0888 19.4094C64.2597 19.6002 64.6185 19.5426 64.6941 19.2876Z" fill="#633A1C"/>
<path d="M119.025 19.6686C119.213 19.8631 119.59 19.7358 119.623 19.4664C119.67 19.2024 119.37 18.9643 119.125 19.0825C118.899 19.1748 118.835 19.509 119.025 19.6686Z" fill="#633A1C"/>
<path d="M63.569 20.1612C63.7628 20.3299 64.1042 20.2518 64.1877 20.0028C64.3065 19.716 63.9807 19.3759 63.6896 19.5066C63.4233 19.5924 63.3399 19.9914 63.569 20.1612Z" fill="#633A1C"/>
<path d="M119.517 20.382C119.724 20.6154 120.188 20.4588 120.178 20.1354C120.206 19.8721 119.914 19.6482 119.668 19.7442C119.413 19.8288 119.314 20.1954 119.517 20.382Z" fill="#633A1C"/>
<path d="M63.1391 20.967C63.3509 21.1332 63.7085 21.0491 63.7949 20.7852C63.9401 20.454 63.5129 20.0724 63.2039 20.2716C62.9477 20.3976 62.8997 20.8014 63.1391 20.967Z" fill="#633A1C"/>
<path d="M119.885 21.1506C120.084 21.4164 120.576 21.3066 120.621 20.97C120.694 20.6724 120.356 20.3622 120.071 20.4948C119.814 20.5866 119.691 20.94 119.885 21.1506Z" fill="#633A1C"/>
<path d="M62.8622 21.7716C63.065 21.9432 63.4154 21.8286 63.482 21.5724C63.5858 21.2615 63.182 20.9502 62.9102 21.1331C62.684 21.2603 62.6517 21.6144 62.8622 21.7716Z" fill="#633A1C"/>
<path d="M120.374 21.3558C120.142 21.429 120.019 21.7404 120.18 21.9372C120.342 22.188 120.779 22.1412 120.864 21.8466C120.978 21.5646 120.66 21.2208 120.374 21.3558Z" fill="#633A1C"/>
<path d="M62.7285 22.6199C62.9361 22.7885 63.2889 22.6205 63.2961 22.3553C63.3261 22.0973 63.0063 21.879 62.7801 22.0122C62.5473 22.1172 62.5185 22.4759 62.7285 22.6199Z" fill="#633A1C"/>
<path d="M120.506 22.2629C120.282 22.3541 120.228 22.6847 120.414 22.8395C120.591 23.0195 120.931 22.9349 120.997 22.6889C121.099 22.4135 120.766 22.1052 120.506 22.2629Z" fill="#633A1C"/>
<path d="M47.2824 22.7064C50.389 22.4209 55.5409 25.2504 56.0854 29.1214C56.0937 29.0956 56.1034 29.0698 56.1136 29.0446C55.9628 25.2655 51.5433 22.7517 48.8472 22.3488C44.7863 21.6823 40.9067 25.2909 41.1932 29.968C41.2651 25.8274 44.0232 22.9994 47.2824 22.7064Z" fill="#633A1C"/>
<path d="M133.077 23.6141C135.556 22.6604 137.694 23.0058 139.485 24.3479C142.333 26.4514 142.278 29.8173 142.355 30.394C142.345 29.9752 142.373 29.5552 142.322 29.1394C141.889 25.0844 138.715 22.5872 135.54 22.6608C132.403 22.7066 127.465 25.602 127.429 29.4352C127.514 29.1604 127.554 28.8743 127.643 28.6006C128.372 26.2296 130.785 24.5378 133.077 23.6141Z" fill="#633A1C"/>
<path d="M62.7207 23.4803C62.9097 23.6189 63.2013 23.4731 63.2253 23.2457C63.2649 22.9914 62.9379 22.7844 62.7262 22.9319C62.5311 23.0483 62.5203 23.3633 62.7207 23.4803Z" fill="#633A1C"/>
<path d="M120.562 23.1635C120.329 23.2433 120.295 23.5913 120.501 23.7203C120.688 23.8751 120.998 23.7323 121.013 23.4935C121.045 23.2565 120.779 23.0555 120.562 23.1635Z" fill="#633A1C"/>
<path d="M63.274 24.0371C63.2505 23.8404 63.0087 23.7371 62.8408 23.8241C62.6488 23.9201 62.6338 24.2195 62.8192 24.3305C63.0165 24.4751 63.319 24.2741 63.274 24.0371Z" fill="#633A1C"/>
<path d="M120.879 24.4301C120.964 24.2099 120.726 23.9651 120.504 24.0575C120.319 24.1103 120.242 24.3581 120.365 24.5068C120.489 24.6953 120.815 24.6497 120.879 24.4301Z" fill="#633A1C"/>
<path d="M63.0243 25.1507C63.1851 25.2881 63.4509 25.1399 63.4467 24.9365C63.4533 24.7349 63.1834 24.5933 63.0262 24.7271C62.8809 24.8225 62.8809 25.0529 63.0243 25.1507Z" fill="#633A1C"/>
<path d="M120.216 25.3805C120.355 25.5263 120.633 25.4315 120.652 25.2293C120.697 25.0253 120.44 24.8374 120.265 24.9605C120.105 25.0355 120.084 25.2689 120.216 25.3805Z" fill="#633A1C"/>
<path d="M63.3707 25.9546C63.5099 26.0585 63.7193 25.9384 63.7306 25.7734C63.7529 25.6 63.5279 25.4561 63.3838 25.5592C63.229 25.633 63.2267 25.8677 63.3707 25.9546Z" fill="#633A1C"/>
<path d="M119.966 25.7981C119.802 25.8647 119.797 26.1029 119.939 26.1953C120.075 26.3057 120.297 26.1869 120.299 26.0171C120.323 25.8437 120.113 25.7165 119.966 25.7981Z" fill="#633A1C"/>
<path d="M61.5941 32.9925C63.6128 34.4502 66.176 34.3572 67.0978 32.9151C64.7033 32.1718 62.4641 30.9394 60.5502 29.3218C60.9378 29.5206 63.4686 31.3297 67.3804 31.9839C67.338 30.3749 66.029 29.0965 64.5562 28.501C62.9497 27.8454 60.5956 28.3475 57.1566 25.9426C57.9419 27.9959 59.8358 31.7071 61.5941 32.9925Z" fill="#633A1C"/>
<path d="M64.0041 26.7106C64.2387 26.6266 64.1025 26.2396 63.8655 26.3345C63.6009 26.4004 63.7605 26.8288 64.0041 26.7106Z" fill="#633A1C"/>
<path d="M116.142 32.1999C118.554 31.8075 120.875 30.9094 122.945 29.6128C122.75 29.8184 120.307 31.9193 116.404 33.1389C117.409 34.6501 119.861 34.5472 121.618 33.4478C123.55 32.2852 125.572 28.363 126.407 26.2492C122.958 28.5772 120.706 28.1237 119.125 28.6852C117.376 29.3183 116.124 30.7762 116.142 32.1999Z" fill="#633A1C"/>
<path d="M119.544 26.5853C119.429 26.6381 119.384 26.8018 119.481 26.8954C119.563 27.0083 119.757 26.9813 119.811 26.8529C119.914 26.6939 119.701 26.4965 119.544 26.5853Z" fill="#633A1C"/>
<path d="M64.4031 27.0611C64.1841 27.1379 64.3443 27.4733 64.5429 27.3724C64.7361 27.2818 64.597 26.968 64.4031 27.0611Z" fill="#633A1C"/>
<path d="M33.1164 32.5245C33.1158 32.4544 33.0563 32.4099 33.0192 32.3589C32.2071 31.4388 31.7353 30.1669 31.704 29.7304C32.031 30.7144 32.5824 31.633 33.3588 32.3271C33.4986 32.0877 33.5808 31.8129 33.5622 31.5339C33.4552 29.7009 31.8003 29.487 31.602 27.037C31.3992 27.3669 30.8687 28.7419 30.909 30.2109C30.9162 31.7131 32.2255 32.867 33.1164 32.5245Z" fill="#633A1C"/>
<path d="M119.18 27.595C119.367 27.4882 119.184 27.1954 119.004 27.3059C118.794 27.4018 118.996 27.7349 119.18 27.595Z" fill="#633A1C"/>
<path d="M151.84 30.2182C151.635 31.5241 150.592 32.7505 150.372 33.0327C151.217 33.3152 152.061 32.5542 152.409 31.7193C152.889 30.6414 152.49 28.6171 151.949 27.5578C151.761 29.8858 150.315 30.0514 149.987 31.7511C149.921 32.1177 149.938 32.5251 150.164 32.8377C150.657 32.3268 151.303 31.7392 151.84 30.2182Z" fill="#633A1C"/>
<path d="M34.9469 33.4784C34.8167 32.7554 34.7051 32.0211 34.7291 31.2849C34.8515 31.9977 34.9637 32.7213 35.2217 33.4011C35.7785 33.2193 36.1 32.5821 36.0107 32.0187C35.9614 31.6353 35.6998 31.3347 35.5091 31.0143C35.1965 30.5241 34.9883 29.9757 34.8425 29.4153C34.4669 30.0658 34.1495 30.7503 33.8754 31.4487C33.5019 32.3572 33.9654 33.4519 34.9469 33.4784Z" fill="#633A1C"/>
<path d="M148.27 33.9134C148.525 33.2402 148.665 32.5311 148.768 31.8213C148.815 32.5407 148.684 33.2607 148.55 33.9662C149.435 33.9917 150.056 32.94 149.625 31.9047C149.355 31.2225 149.058 30.5451 148.687 29.9121C148.259 31.6079 147.466 31.9165 147.489 32.6721C147.458 33.2013 147.796 33.6962 148.27 33.9134Z" fill="#633A1C"/>
<path d="M20.2778 33.9224C20.7013 33.9362 21.1483 33.9302 21.5294 33.7197C21.5281 33.7064 21.5246 33.6794 21.5228 33.6657C20.0546 32.9126 18.404 32.5125 16.7541 32.5173C17.2763 32.4173 19.5068 32.4443 21.7196 33.4569C21.854 32.6221 20.4231 31.6615 18.8553 31.4571C17.0033 31.2164 14.292 32.3102 12.7168 33.3225C16.0648 32.5576 17.3817 33.7756 20.2778 33.9224Z" fill="#633A1C"/>
<path d="M166.653 33.1395C166.653 33.1467 166.654 33.1611 166.654 33.1689C165.02 33.1671 163.389 33.5541 161.932 34.2945C162.795 34.8846 165.394 34.2649 166.503 33.9969C167.899 33.6609 169.383 33.6519 170.774 34.0227C170.259 33.6138 168.284 32.5229 166.141 32.1405C163.936 31.734 161.701 32.957 161.765 34.0581C162.085 33.9508 163.985 33.0167 166.653 33.1395Z" fill="#633A1C"/>
<path d="M40.7926 36.2528C40.8382 35.3996 40.8424 34.5075 40.4938 33.7101C40.01 32.563 38.785 32.3655 38.254 32.9409C37.8161 33.4269 37.8802 34.2249 38.2738 34.7193C38.687 35.2594 39.9259 35.2063 40.7926 36.2528Z" fill="#633A1C"/>
<path d="M97.197 37.6772C96.0051 37.1689 93.5455 36.3911 91.7593 32.6589C90.8183 34.4678 89.7587 35.8565 87.9267 36.9044C87.3896 37.2152 86.7993 37.412 86.2269 37.643C88.1552 39.5423 90.728 41.7548 91.0016 44.652C91.0118 44.6508 91.0328 44.6485 91.043 44.6472C91.0456 41.9688 89.5343 39.9537 87.7131 37.9604C89.4078 37.3133 91.4337 35.4108 91.7558 32.9164C91.9814 34.9867 93.545 37.0506 95.7565 38.0042C93.9857 39.8307 92.2463 42.1949 92.3816 44.7222C92.4623 44.4085 92.4711 43.4986 93.2756 42.1165C94.2758 40.4149 95.7817 39.1081 97.1767 37.7438C97.1814 37.727 97.1917 37.694 97.197 37.6772Z" fill="#633A1C"/>
<path d="M145.177 35.2262C145.914 34.3943 145.503 32.899 144.3 33.0981C142.817 33.2911 142.601 35.2147 142.687 36.6979C143.465 35.7229 144.767 35.6899 145.177 35.2262Z" fill="#633A1C"/>
<path d="M59.7604 37.229C61.317 37.5619 62.7631 36.8889 63.0694 35.8076C61.3156 35.735 59.5702 35.4428 57.8951 34.9173C58.3228 34.9298 60.0881 35.3696 63.0777 35.081C62.938 34.5164 62.5431 34.0436 62.0578 33.7377C59.8626 32.3425 58.8781 34.2286 54.6648 33.7323C55.7366 34.728 58.3216 36.9581 59.7604 37.229Z" fill="#633A1C"/>
<path d="M124.348 37.3196C125.625 36.7877 127.798 34.9976 128.828 34.0604C125.31 34.4262 124.226 33.2457 122.695 33.5354C121.698 33.6806 120.688 34.3082 120.403 35.3222C123.217 35.652 125.18 35.2229 125.585 35.2166C123.905 35.7151 122.163 36.0062 120.41 36.053C120.733 37.2849 122.564 38.003 124.348 37.3196Z" fill="#633A1C"/>
<path d="M88.655 38.159C89.3107 38.3907 89.8272 38.3501 90.4514 40.0909C91.2536 42.3696 91.3992 43.4947 91.5859 44.0676C91.4277 42.6963 90.9372 39.9437 90.3362 38.876C90.1598 38.5388 89.8928 38.2628 89.591 38.036C91.3401 36.8218 91.6556 35.1843 91.7593 35.0031C92.0479 36.2457 92.8549 37.3238 93.8749 38.0714C93.2077 38.4788 92.8975 39.2467 92.6791 39.9607C92.1686 41.6584 91.864 43.5091 91.8379 44.0706C92.1661 42.6355 92.5687 41.2147 93.0913 39.8371C93.6881 38.3685 94.1839 38.3972 94.8115 38.1842C94.1959 37.7275 92.7904 37.0275 91.8014 34.7103C91.8199 34.5921 91.8361 34.4733 91.8494 34.3545C91.8218 34.4007 91.7678 34.4937 91.7402 34.5399C91.706 34.4763 91.673 34.4139 91.6406 34.3515C91.6478 34.4859 91.6957 34.6245 91.6634 34.7583C90.6355 37.1393 88.9776 37.879 88.655 38.159Z" fill="#633A1C"/>
<path d="M2.30406 35.534C0.787739 34.8147 -0.526592 35.8131 0.389474 37.028C1.43451 38.4032 3.00535 37.7113 4.66557 38.9431C4.20622 37.7402 3.50586 36.1227 2.30406 35.534Z" fill="#633A1C"/>
<path d="M84.4403 35.4519C84.2736 35.5232 84.2436 35.7752 84.399 35.8766C84.5316 35.9852 84.7476 35.8964 84.7866 35.735C84.8423 35.549 84.6113 35.3486 84.4403 35.4519Z" fill="#633A1C"/>
<path d="M99.1813 35.7314C99.1843 35.5688 98.9838 35.423 98.8381 35.5119C98.6491 35.5845 98.6364 35.8815 98.8296 35.9564C98.9785 36.0536 99.2005 35.906 99.1813 35.7314Z" fill="#633A1C"/>
<path d="M74.3437 36.0284C74.4403 35.7392 74.0935 35.4422 73.8217 35.5772C73.5619 35.6731 73.5031 36.0602 73.7299 36.2246C73.9279 36.4088 74.2813 36.2864 74.3437 36.0284Z" fill="#633A1C"/>
<path d="M109.287 35.771C109.046 35.9222 109.08 36.3194 109.343 36.4286C109.599 36.5737 109.939 36.3175 109.89 36.0319C109.859 35.7602 109.506 35.5982 109.287 35.771Z" fill="#633A1C"/>
<path d="M37.8731 38.3935C35.7771 37.2653 35.3488 35.6544 33.6954 36.023C32.976 36.2067 32.6977 36.8373 33.087 37.565C34.0291 39.2942 36.5071 38.5709 37.8731 38.3935Z" fill="#633A1C"/>
<path d="M181.367 36.1196C179.802 36.3929 178.957 38.3183 178.391 39.7027C180.065 38.469 181.859 39.1966 182.808 37.6454C183.39 36.6894 182.573 35.8752 181.367 36.1196Z" fill="#633A1C"/>
<path d="M85.1111 36.4928C84.9396 36.5942 84.9204 36.875 85.0967 36.9812C85.2695 37.118 85.5647 36.974 85.5551 36.7514C85.5707 36.533 85.2947 36.3566 85.1111 36.4928Z" fill="#633A1C"/>
<path d="M98.0166 37.0202C98.1852 37.1816 98.5031 37.0478 98.4996 36.812C98.5176 36.5966 98.2481 36.416 98.0639 36.5444C97.8947 36.638 97.8582 36.8984 98.0166 37.0202Z" fill="#633A1C"/>
<path d="M150.39 38.0468C150.772 37.3096 150.467 36.6894 149.764 36.5228C148.135 36.1387 147.602 37.8234 145.589 38.8568C147.001 39.0698 149.458 39.7831 150.39 38.0468Z" fill="#633A1C"/>
<path d="M72.3296 36.9152C71.999 37.0502 71.981 37.5662 72.3014 37.7234C72.5948 37.9124 73.016 37.6358 72.9788 37.2938C72.9638 36.9866 72.6038 36.7814 72.3296 36.9152Z" fill="#633A1C"/>
<path d="M110.779 37.0724C110.502 37.1726 110.389 37.5548 110.59 37.7786C110.79 38.0498 111.265 37.976 111.37 37.6538C111.525 37.3075 111.12 36.9116 110.779 37.0724Z" fill="#633A1C"/>
<path d="M85.7627 37.5608C85.5059 37.625 85.4315 38.012 85.6583 38.1572C85.8437 38.3036 86.1557 38.1866 86.1905 37.9502C86.2463 37.7125 85.9949 37.478 85.7627 37.5608Z" fill="#633A1C"/>
<path d="M97.4653 37.6262C97.2295 37.7192 97.1965 38.0864 97.4161 38.2159C97.6196 38.3659 97.9411 38.2027 97.943 37.9514C97.9567 37.7114 97.6843 37.5182 97.4653 37.6262Z" fill="#633A1C"/>
<path d="M70.8885 38.1722C70.3146 38.329 70.418 39.1686 70.9797 39.2006C71.2749 39.2354 71.5659 38.9756 71.5551 38.6762C71.5653 38.3432 71.2059 38.0744 70.8885 38.1722Z" fill="#633A1C"/>
<path d="M112.29 38.3515C111.908 38.4361 111.766 38.9749 112.059 39.2353C112.316 39.5005 112.817 39.3853 112.923 39.0283C113.076 38.651 112.676 38.2291 112.29 38.3515Z" fill="#633A1C"/>
<path d="M86.1261 38.7584C85.8796 38.891 85.8754 39.2917 86.1315 39.4171C86.3907 39.5881 86.7633 39.3278 86.6985 39.0265C86.6727 38.7667 86.3416 38.6095 86.1261 38.7584Z" fill="#633A1C"/>
<path d="M97.0436 38.7589C96.7832 38.8075 96.6572 39.1496 96.8198 39.3571C96.9776 39.5983 97.3964 39.5449 97.4894 39.2713C97.6088 39.0025 97.3255 38.678 97.0436 38.7589Z" fill="#633A1C"/>
<path d="M40.1415 39.8485C38.1629 39.2436 35.9958 38.7686 34.0589 39.788C31.6338 41.0556 31.5955 43.8382 32.5289 43.9957C32.8283 44.0335 33.0838 43.8313 33.2987 43.6489C34.1124 42.9083 35.4644 41.4551 36.6028 40.8356C37.7043 40.2326 38.9589 39.9014 40.2153 39.8978C40.1967 39.8851 40.1595 39.8605 40.1415 39.8485Z" fill="#633A1C"/>
<path d="M69.2642 39.4207C68.8502 39.5629 68.7596 40.1731 69.107 40.4347C69.437 40.7323 70.0346 40.5019 70.0754 40.059C70.1593 39.6266 69.665 39.2354 69.2642 39.4207Z" fill="#633A1C"/>
<path d="M113.779 39.6001C113.343 39.7099 113.212 40.3417 113.567 40.6153C113.867 40.8955 114.414 40.7467 114.525 40.3495C114.696 39.9145 114.213 39.4339 113.779 39.6001Z" fill="#633A1C"/>
<path d="M148.014 39.7987C146.401 39.4627 144.754 39.852 143.21 40.3243C148.132 40.5391 149.403 44.2635 150.72 44.5085C151.356 44.6378 151.884 43.335 150.972 41.7936C150.348 40.7269 149.213 40.0291 148.014 39.7987Z" fill="#633A1C"/>
<path d="M86.4268 39.9649C86.1705 40.1041 86.137 40.5049 86.3824 40.6711C86.6158 40.8619 87.0154 40.7239 87.0622 40.4197C87.1576 40.0765 86.7226 39.7591 86.4268 39.9649Z" fill="#633A1C"/>
<path d="M97.2175 40.4731C97.2967 40.1713 96.9781 39.8677 96.6805 39.9631C96.3864 40.0351 96.267 40.4365 96.474 40.6579C96.6799 40.9231 97.1563 40.8002 97.2175 40.4731Z" fill="#633A1C"/>
<path d="M67.6453 40.5757C67.0178 40.8088 67.1182 41.7304 67.7437 41.8501C68.1601 41.9545 68.6053 41.5717 68.5537 41.1421C68.5315 40.7113 68.0407 40.4125 67.6453 40.5757Z" fill="#633A1C"/>
<path d="M39.5487 43.437C41.4525 43.7317 41.14 41.7399 42.9638 41.2861C42.8037 41.172 42.6092 41.1277 42.4287 41.0569C38.8284 39.7892 37.6902 43.1082 39.5487 43.437Z" fill="#633A1C"/>
<path d="M115.28 40.7947C114.974 40.9219 114.793 41.2951 114.911 41.6107C115.013 41.9455 115.406 42.153 115.74 42.0432C116.097 41.9484 116.303 41.5236 116.176 41.1804C116.062 40.8247 115.616 40.6333 115.28 40.7947Z" fill="#633A1C"/>
<path d="M86.6639 41.1613C86.3231 41.2597 86.2247 41.7637 86.5175 41.9725C86.7647 42.1903 87.2009 42.0583 87.2722 41.7313C87.3851 41.3839 87.0053 41.0227 86.6639 41.1613Z" fill="#633A1C"/>
<path d="M96.4345 41.2099C96.1262 41.3251 96.0391 41.7678 96.2827 41.9898C96.5275 42.2604 97.0291 42.0912 97.0825 41.7373C97.1623 41.3899 96.758 41.0599 96.4345 41.2099Z" fill="#633A1C"/>
<path d="M140.465 41.7073C141.275 41.9185 141.83 42.6025 142.28 43.266C142.86 44.197 144.575 44.1098 144.734 43.1101C144.815 42.6229 144.574 42.1351 144.229 41.8027C143.336 40.931 141.6 41.1551 140.465 41.7073Z" fill="#633A1C"/>
<path d="M65.966 41.6467C65.6006 41.7733 65.3942 42.2119 65.5286 42.5742C65.6407 42.9541 66.0944 43.1784 66.4646 43.035C66.8192 42.9234 67.046 42.516 66.9446 42.1566C66.8485 41.7445 66.359 41.4847 65.966 41.6467Z" fill="#633A1C"/>
<path d="M116.898 41.8855C116.562 42.0277 116.364 42.4411 116.494 42.789C116.611 43.1844 117.097 43.4107 117.475 43.2432C117.856 43.1004 118.044 42.6133 117.867 42.2484C117.713 41.8903 117.25 41.7163 116.898 41.8855Z" fill="#633A1C"/>
<path d="M86.3074 42.9324C86.3219 43.266 86.7166 43.5156 87.0232 43.3788C87.2992 43.2738 87.4319 42.9091 87.2855 42.6523C87.0382 42.1416 86.2537 42.3968 86.3074 42.9324Z" fill="#633A1C"/>
<path d="M96.2582 43.3356C96.563 43.6296 97.1354 43.3518 97.1132 42.9342C97.1246 42.5724 96.6968 42.3054 96.3753 42.462C96.0368 42.6048 95.9684 43.1088 96.2582 43.3356Z" fill="#633A1C"/>
<path d="M64.3371 42.5868C63.9592 42.6588 63.6699 43.0248 63.6969 43.4106C63.6982 43.8318 64.0809 44.2062 64.5045 44.1864C64.9449 44.1996 65.3373 43.7945 65.3151 43.3554C65.3145 42.8706 64.8063 42.4758 64.3371 42.5868Z" fill="#633A1C"/>
<path d="M118.647 42.852C118.294 42.9696 118.046 43.3494 118.105 43.7214C118.153 44.1396 118.567 44.4702 118.987 44.4198C119.471 44.3994 119.829 43.8666 119.692 43.4088C119.593 42.9654 119.07 42.6871 118.647 42.852Z" fill="#633A1C"/>
<path d="M62.4892 43.4508C62.044 43.5576 61.7476 44.0484 61.8568 44.493C61.9312 44.9075 62.3428 45.219 62.7622 45.1823C63.2325 45.1685 63.6369 44.7227 63.5949 44.2523C63.5782 43.7196 63.0017 43.3026 62.4892 43.4508Z" fill="#633A1C"/>
<path d="M86.1052 44.1306C86.0637 44.4815 86.425 44.7948 86.7652 44.7342C87.073 44.6808 87.2973 44.3423 87.2152 44.0376C87.0805 43.392 86.1184 43.5263 86.1052 44.1306Z" fill="#633A1C"/>
<path d="M97.3069 44.1924C97.3057 43.8252 96.8959 43.5666 96.5575 43.68C96.146 43.7952 96.0439 44.3994 96.3841 44.6526C96.7237 44.9772 97.3459 44.6484 97.3069 44.1924Z" fill="#633A1C"/>
<path d="M120.381 43.734C119.988 43.8792 119.724 44.3268 119.827 44.7414C119.919 45.1914 120.396 45.5124 120.848 45.4224C121.35 45.3552 121.688 44.7918 121.536 44.3136C121.417 43.8306 120.84 43.5402 120.381 43.734Z" fill="#633A1C"/>
<path d="M60.6251 44.1732C60.1247 44.2848 59.8103 44.8482 59.9435 45.336C60.0347 45.7662 60.4679 46.0782 60.9041 46.0428C61.4627 46.0404 61.9325 45.4572 61.7998 44.9106C61.696 44.3988 61.1351 44.0298 60.6251 44.1732Z" fill="#633A1C"/>
<path d="M45.0242 44.346C44.7842 44.4864 44.7974 44.8716 45.0506 44.9904C45.3068 45.1554 45.6746 44.9082 45.6188 44.6088C45.593 44.3358 45.2438 44.1738 45.0242 44.346Z" fill="#633A1C"/>
<path d="M122.239 44.4624C121.813 44.6058 121.507 45.0671 121.591 45.5178C121.67 46.0457 122.244 46.4291 122.762 46.2882C123.241 46.1933 123.562 45.6834 123.468 45.2088C123.404 44.6496 122.765 44.2596 122.239 44.4624Z" fill="#633A1C"/>
<path d="M138.021 44.7047C137.739 44.7996 137.697 45.2333 137.954 45.3833C138.162 45.5261 138.474 45.4013 138.541 45.1601C138.63 44.8722 138.294 44.5884 138.021 44.7047Z" fill="#633A1C"/>
<path d="M58.7069 44.8841C58.2444 45.0018 57.966 45.5399 58.1093 45.9899C58.2239 46.4321 58.7309 46.7051 59.1665 46.5827C59.6015 46.4807 59.9219 46.0127 59.8199 45.5699C59.7288 45.084 59.1882 44.724 58.7069 44.8841Z" fill="#633A1C"/>
<path d="M85.7127 45.396C85.7055 45.7692 86.0884 46.1058 86.4591 46.0157C86.8083 45.9366 87.0315 45.5316 86.8995 45.1943C86.7092 44.6013 85.7313 44.7155 85.7127 45.396Z" fill="#633A1C"/>
<path d="M97.6807 45.4542C97.6933 45.087 97.3225 44.7997 96.9691 44.8633C96.4441 44.9011 96.2821 45.666 96.7057 45.9492C97.0766 46.2755 97.6969 45.9252 97.6807 45.4542Z" fill="#633A1C"/>
<path d="M46.9417 45.0606C46.6603 45.1386 46.5019 45.5111 46.6915 45.7506C46.8799 46.0458 47.3881 45.9918 47.4949 45.6522C47.6305 45.3216 47.2861 44.9322 46.9417 45.0606Z" fill="#633A1C"/>
<path d="M124.16 45.1806C123.764 45.3168 123.49 45.7518 123.569 46.1682C123.643 46.6188 124.109 46.9548 124.561 46.8833C125.039 46.8413 125.4 46.35 125.308 45.8808C125.246 45.3594 124.654 44.9868 124.16 45.1806Z" fill="#633A1C"/>
<path d="M56.7294 45.4247C56.373 45.5394 56.1408 45.924 56.1883 46.2923C56.2231 46.6919 56.6035 47.0177 57.003 46.9973C57.477 47.0045 57.8994 46.5245 57.7902 46.0529C57.7116 45.5867 57.1806 45.2448 56.7294 45.4247Z" fill="#633A1C"/>
<path d="M136.104 45.4811C135.819 45.6263 135.79 46.0769 136.062 46.2509C136.323 46.4489 136.754 46.2647 136.782 45.9371C136.834 45.5897 136.407 45.297 136.104 45.4811Z" fill="#633A1C"/>
<path d="M48.8011 45.597C48.4771 45.7134 48.3475 46.1724 48.5947 46.4249C48.8431 46.7321 49.4016 46.6181 49.4989 46.2312C49.6357 45.837 49.1851 45.4038 48.8011 45.597Z" fill="#633A1C"/>
<path d="M126.142 45.723C125.765 45.849 125.515 46.2714 125.602 46.6626C125.689 47.1228 126.224 47.4204 126.663 47.2565C127.054 47.1341 127.297 46.6841 127.178 46.2906C127.077 45.852 126.568 45.5609 126.142 45.723Z" fill="#633A1C"/>
<path d="M54.792 45.7596C54.0656 45.9655 54.0881 47.0425 54.8364 47.1911C55.2708 47.2973 55.7597 46.9301 55.7351 46.4736C55.7478 46.0044 55.245 45.6029 54.792 45.7596Z" fill="#633A1C"/>
<path d="M50.8481 45.8484C50.4419 45.9264 50.2295 46.4652 50.4971 46.7904C50.7509 47.1582 51.3911 47.067 51.5357 46.6452C51.712 46.2294 51.2909 45.7211 50.8481 45.8484Z" fill="#633A1C"/>
<path d="M52.8288 45.9065C52.1458 46.0805 52.1657 47.0431 52.8042 47.1971C53.1942 47.3141 53.649 47.0051 53.655 46.5911C53.682 46.1681 53.247 45.7788 52.8288 45.9065Z" fill="#633A1C"/>
<path d="M134.186 45.9659C133.849 46.0998 133.761 46.6025 134.039 46.8377C134.311 47.1041 134.838 46.9541 134.912 46.5731C135.019 46.1748 134.557 45.7902 134.186 45.9659Z" fill="#633A1C"/>
<path d="M90.4719 46.4616C88.8663 47.7896 90.7596 49.3899 91.8879 51.3401C92.3812 50.1487 93.6192 49.0439 93.9098 47.9855C94.2616 46.4195 91.9214 45.2338 90.4719 46.4616Z" fill="#633A1C"/>
<path d="M85.5759 46.0715C85.174 46.2149 85.1242 46.8077 85.4685 47.0429C85.8094 47.3351 86.3788 47.0267 86.365 46.5911C86.3949 46.1921 85.9275 45.9053 85.5759 46.0715Z" fill="#633A1C"/>
<path d="M128.177 46.0787C127.798 46.1897 127.555 46.6343 127.681 47.0117C127.796 47.3981 128.26 47.6237 128.637 47.4845C128.992 47.3681 129.215 46.9535 129.1 46.5942C129.004 46.2078 128.558 45.9491 128.177 46.0787Z" fill="#633A1C"/>
<path d="M98.1453 46.5389C98.0955 46.1735 97.6533 45.9696 97.3323 46.134C96.9106 46.3092 96.9369 46.9781 97.3485 47.1516C97.7385 47.3675 98.2299 46.9589 98.1453 46.5389Z" fill="#633A1C"/>
<path d="M132.259 46.2029C131.832 46.2989 131.656 46.9073 131.987 47.2037C132.278 47.5108 132.862 47.3849 132.98 46.9709C133.137 46.545 132.692 46.077 132.259 46.2029Z" fill="#633A1C"/>
<path d="M130.162 46.2635C129.734 46.4165 129.578 47.0399 129.922 47.3537C130.238 47.6975 130.886 47.5757 131.028 47.1215C131.241 46.6163 130.664 46.0434 130.162 46.2635Z" fill="#633A1C"/>
<path d="M84.9322 47.1719C84.6995 47.2403 84.541 47.4941 84.5818 47.7335C84.6184 47.9951 84.868 48.2189 85.1392 48.1841C85.4573 48.1643 85.6894 47.8157 85.5964 47.5133C85.5244 47.2361 85.1962 47.0879 84.9322 47.1719Z" fill="#633A1C"/>
<path d="M98.7708 47.5433C98.6856 47.2841 98.3821 47.1461 98.1271 47.2295C97.5388 47.4002 97.7141 48.2522 98.2812 48.2453C98.6274 48.2555 98.8944 47.8631 98.7708 47.5433Z" fill="#633A1C"/>
<path d="M84.0785 48.1775C83.7239 48.2885 83.6608 48.8201 83.9716 49.0175C84.2399 49.2233 84.6622 49.0289 84.7072 48.7013C84.787 48.3563 84.3965 48.0605 84.0785 48.1775Z" fill="#633A1C"/>
<path d="M98.9628 48.2495C98.6244 48.3539 98.5494 48.8357 98.8242 49.0504C99.0845 49.2977 99.5621 49.1158 99.5946 48.7594C99.6648 48.4163 99.285 48.1079 98.9628 48.2495Z" fill="#633A1C"/>
<path d="M83.011 49.0925C82.7536 49.2617 82.7687 49.6841 83.0435 49.8274C83.3038 49.9882 83.6626 49.774 83.6812 49.4794C83.7219 49.1435 83.2822 48.8879 83.011 49.0925Z" fill="#633A1C"/>
<path d="M99.9254 49.1417C99.6451 49.2545 99.5953 49.6648 99.8347 49.846C100.064 50.0776 100.501 49.9078 100.534 49.588C100.595 49.2653 100.218 48.9671 99.9254 49.1417Z" fill="#633A1C"/>
<path d="M82.048 49.7459C81.7564 49.8215 81.6682 50.248 81.9178 50.4239C82.129 50.605 82.4806 50.4526 82.531 50.1899C82.5934 49.9246 82.3036 49.6685 82.048 49.7459Z" fill="#633A1C"/>
<path d="M101.005 49.8767C100.76 50.0093 100.761 50.3885 101.004 50.5222C101.263 50.7208 101.661 50.4371 101.579 50.1293C101.535 49.8778 101.221 49.7176 101.005 49.8767Z" fill="#633A1C"/>
<path d="M80.8457 50.2847C80.6267 50.3633 80.5415 50.6789 80.7179 50.8421C80.8895 51.0406 81.2453 50.9201 81.2933 50.6729C81.3521 50.4292 81.0773 50.1904 80.8457 50.2847Z" fill="#633A1C"/>
<path d="M102.21 50.4131C102.066 50.5073 101.991 50.7191 102.101 50.8679C102.227 51.0917 102.605 51.0887 102.7 50.8373C102.845 50.5565 102.471 50.2115 102.21 50.4131Z" fill="#633A1C"/>
<path d="M79.5342 50.6482C79.3632 50.7628 79.3734 51.055 79.5654 51.142C79.7748 51.2662 80.076 51.0334 79.9854 50.8006C79.9326 50.6171 79.6853 50.512 79.5342 50.6482Z" fill="#633A1C"/>
<path d="M78.3264 50.7004C78.1926 50.761 78.1069 50.9524 78.2178 51.0743C78.3204 51.2237 78.5694 51.1942 78.6438 51.0317C78.7506 50.8474 78.5161 50.5996 78.3264 50.7004Z" fill="#633A1C"/>
<path d="M103.585 50.6962C103.403 50.737 103.277 50.9716 103.393 51.1348C103.498 51.313 103.798 51.325 103.9 51.1354C104.032 50.9332 103.816 50.6411 103.585 50.6962Z" fill="#633A1C"/>
<path d="M104.838 50.8114C104.696 50.866 104.62 51.0688 104.732 51.1888C104.838 51.3424 105.099 51.3076 105.164 51.133C105.237 50.9452 105.026 50.7292 104.838 50.8114Z" fill="#633A1C"/>
</svg>
