<svg width="347" height="146" viewBox="0 0 347 146" fill="none" xmlns="http://www.w3.org/2000/svg">
<path d="M173.5 60.5172C170.23 61.9818 167.312 63.761 164.279 66.9428C147.792 84.4621 137.392 103.17 148.442 124.439C151.55 125.929 154.663 127.591 157.117 130.057C159.072 131.943 160.495 137.713 160.521 141.135H160.316C159.887 140.379 159.59 139.533 158.985 138.888C155.518 135.147 146.768 133.884 148.482 124.574C145.217 119.169 143.043 113.052 142.549 106.738C140.896 86.5515 155.203 74.9643 168.995 61.5201C164.158 62.6658 159.124 62.5417 154.207 62.1032C153.872 62.075 153.595 62.2966 153.318 62.4427C145.886 66.9892 138.601 70.1807 129.012 76.2051C135.312 71.7776 144.043 66.5325 153.302 62.0215C141.99 59.8848 130.833 54.0451 118.784 51.8915C125.469 52.5564 131.996 54.3135 138.363 56.4072C123.814 46.5404 113.411 25.6616 129.024 12.6855C142.89 1.12726 169.632 1.57094 173.5 19.4916C177.368 1.57094 204.11 1.12714 217.976 12.6855C233.589 25.6615 223.186 46.5404 208.637 56.4072C215.004 54.3135 221.531 52.5564 228.216 51.8915C216.167 54.0451 205.01 59.8847 193.698 62.0215C202.957 66.5325 211.688 71.7777 217.988 76.2051C208.399 70.1807 201.114 66.9892 193.682 62.4427C193.405 62.2966 193.128 62.0749 192.793 62.1032C187.876 62.5417 182.843 62.666 178.006 61.5201C191.797 74.9643 206.104 86.5513 204.451 106.738C203.957 113.052 201.783 119.169 198.518 124.574C200.232 133.884 191.481 135.147 188.015 138.888C187.411 139.533 187.113 140.378 186.684 141.135H186.479C186.505 137.713 187.928 131.943 189.883 130.057C192.337 127.591 195.45 125.929 198.558 124.439C209.608 103.17 199.209 84.4621 182.721 66.9428C179.688 63.761 176.77 61.9818 173.5 60.5172ZM173.5 24.3454C173.477 24.0853 173.447 23.8254 173.41 23.5654C171.213 5.99893 146.278 -1.16792 130.901 13.9478C115.782 29.4832 126.576 50.3963 144.991 57.3251C142.437 53.3372 139.32 46.681 138.706 41.9486C138.039 37.1906 141.606 27.8622 144.445 23.7131C144.55 23.3547 144.958 23.6078 144.91 23.8829C144.827 25.0899 144.506 26.2814 144.605 27.4995C145.316 36.3156 156.85 46.1297 146.032 57.6772C154.725 60.6546 164.146 60.0311 173.5 57.2335C182.854 60.0311 192.275 60.6546 200.968 57.6772C190.15 46.1296 201.684 36.3155 202.395 27.4995C202.494 26.2814 202.173 25.0899 202.09 23.8829C202.043 23.6078 202.45 23.3547 202.556 23.7131C205.394 27.8622 208.962 37.1906 208.294 41.9486C207.68 46.681 204.563 53.3372 202.01 57.3251C220.424 50.3961 231.219 29.4832 216.099 13.9478C200.722 -1.16792 175.788 5.99893 173.59 23.5654C173.553 23.8254 173.523 24.0853 173.5 24.3454Z" fill="#F2F2EC"/>
<path d="M145.513 121.668C145.49 124.319 144.801 129.671 143.071 132.358C141.254 135.272 136.553 138.336 134.253 138.876C134.841 138.123 135.571 137.461 135.969 136.575C138.495 131.053 136.216 123.619 145.513 121.668Z" fill="#F2F2EC"/>
<path d="M201.487 121.668C201.51 124.319 202.199 129.671 203.929 132.358C205.746 135.272 210.447 138.336 212.747 138.876C212.159 138.123 211.429 137.461 211.031 136.575C208.505 131.053 210.784 123.619 201.487 121.668Z" fill="#F2F2EC"/>
<path d="M147.865 120.136C149.833 118.865 154.484 118.048 156.895 117.937C160.696 117.817 165.271 121.271 168.18 123.689C160.907 129.006 157.038 122.999 150.639 120.493C149.758 120.112 148.761 120.452 147.865 120.136Z" fill="#F2F2EC"/>
<path d="M199.136 120.136C197.167 118.865 192.516 118.048 190.105 117.937C186.304 117.817 181.729 121.271 178.82 123.689C186.093 129.006 189.962 122.999 196.361 120.493C197.242 120.112 198.239 120.452 199.136 120.136Z" fill="#F2F2EC"/>
<path d="M97.0215 113.402C97.2905 113.138 97.5642 112.877 97.8331 112.612C97.5311 112.043 97.7922 111.466 98.1335 110.99C98.0471 110.778 97.9636 110.562 97.8818 110.349C98.0706 109.88 98.3002 109.379 98.1099 108.871C97.8834 108.323 98.3585 107.854 98.4749 107.34C98.3663 107.092 98.2059 106.873 98.055 106.652C98.2312 106.312 98.4498 105.988 98.5552 105.616C98.5158 105.338 98.4105 105.075 98.3223 104.811C98.5834 104.473 98.8776 104.161 99.134 103.818C99.3228 103.588 99.1622 103.266 99.2708 103.01C99.6798 102.554 100.391 102.26 100.303 101.529C101.846 100.734 103.582 100.365 105.048 99.4091C105.789 99.0192 106.483 98.3859 107.365 98.3812C110.026 99.243 110.14 107.05 107.995 109.563C107.159 110.309 106.129 110.775 105.13 111.254C105.042 111.53 105.061 111.875 104.856 112.09C104.411 112.265 103.921 112.287 103.479 112.469C103.379 112.719 103.394 113.055 103.148 113.22C102.73 113.281 102.307 113.173 101.888 113.157C101.857 113.291 101.791 113.558 101.759 113.692C101.199 113.626 100.644 113.525 100.087 113.442C99.922 113.743 99.793 114.07 99.5806 114.342C99.1558 114.528 98.6683 114.391 98.2215 114.394C98.264 114.797 98.4544 115.26 98.1995 115.625C97.8912 116.009 97.3486 115.977 96.9144 116.078C97.2353 115.221 97.3785 114.275 97.0215 113.402ZM107.646 99.4153C106.407 102.895 108.211 100.356 99.9409 111.934C102.621 108.987 107.346 103.384 107.646 99.4153Z" fill="#F2F2EC"/>
<path d="M249.979 113.402C249.71 113.138 249.436 112.877 249.167 112.612C249.469 112.043 249.208 111.466 248.867 110.99C248.953 110.778 249.037 110.562 249.118 110.349C248.929 109.88 248.7 109.379 248.89 108.871C249.117 108.323 248.642 107.854 248.525 107.34C248.634 107.092 248.794 106.873 248.945 106.652C248.769 106.312 248.55 105.988 248.445 105.616C248.484 105.338 248.59 105.075 248.678 104.811C248.417 104.473 248.123 104.161 247.866 103.818C247.677 103.588 247.838 103.266 247.729 103.01C247.32 102.554 246.609 102.26 246.698 101.529C245.155 100.734 243.418 100.365 241.952 99.4091C241.211 99.0192 240.517 98.3859 239.635 98.3812C236.974 99.243 236.86 107.05 239.006 109.563C239.841 110.309 240.871 110.775 241.87 111.254C241.958 111.53 241.939 111.875 242.144 112.09C242.589 112.265 243.08 112.287 243.522 112.469C243.621 112.719 243.607 113.055 243.852 113.22C244.27 113.281 244.694 113.173 245.112 113.157C245.143 113.291 245.21 113.558 245.241 113.692C245.801 113.626 246.356 113.525 246.913 113.442C247.078 113.743 247.207 114.07 247.42 114.342C247.844 114.528 248.332 114.391 248.779 114.394C248.736 114.797 248.546 115.26 248.801 115.625C249.109 116.009 249.652 115.977 250.086 116.078C249.765 115.221 249.621 114.275 249.979 113.402ZM239.354 99.4153C240.593 102.895 238.788 100.356 247.059 111.934C244.379 108.987 239.654 103.384 239.354 99.4153Z" fill="#F2F2EC"/>
<path d="M122.783 99.2928C123.511 100.373 123.84 101.646 124.228 102.872C124.515 102.949 124.804 103.024 125.09 103.104C125.127 103.67 125.147 104.238 125.219 104.8C125.482 104.934 125.745 105.072 126.004 105.22C125.852 105.728 125.746 106.251 125.783 106.782C125.968 106.917 126.154 107.056 126.338 107.196C126.099 107.743 125.883 108.299 125.734 108.877C126.022 109.178 126.388 109.387 126.673 109.688C126.652 110.188 126.525 110.675 126.479 111.172C126.899 111.219 127.376 111.078 127.761 111.292C128.155 111.73 128.052 112.384 128.125 112.926C127.186 112.436 126.13 112.313 125.089 112.282C124.895 111.983 124.733 111.658 124.479 111.406C124.241 111.367 124 111.369 123.766 111.334C123.395 111.178 123.11 110.87 122.74 110.716C122.42 110.641 122.089 110.727 121.77 110.749C121.285 110.531 120.793 110.268 120.244 110.311C119.552 110.389 119.077 109.792 118.49 109.538C118.187 109.622 117.888 109.832 117.565 109.772C117.246 109.607 116.985 109.351 116.667 109.187C115.597 109.135 116.021 109.762 114.565 108C114.233 107.928 113.851 107.933 113.582 107.699C113.4 107.395 113.329 107.037 113.126 106.745C112.919 106.573 112.629 106.561 112.384 106.474C111.81 104.698 111.657 102.806 110.938 101.072C110.575 100.116 110.134 99.1561 110.052 98.1251C111.233 94.8986 120.593 96.6574 122.783 99.2928ZM123.497 108.211C120.209 104.112 115.973 99.2932 111.212 97.7635C113.752 99.2304 113.398 97.9584 123.497 108.211Z" fill="#F2F2EC"/>
<path d="M224.217 99.2928C223.489 100.373 223.16 101.646 222.772 102.872C222.485 102.949 222.196 103.024 221.91 103.104C221.874 103.67 221.853 104.238 221.781 104.8C221.518 104.934 221.255 105.072 220.996 105.22C221.148 105.728 221.254 106.251 221.218 106.782C221.032 106.917 220.846 107.056 220.662 107.196C220.901 107.743 221.117 108.299 221.266 108.877C220.978 109.178 220.612 109.387 220.327 109.688C220.348 110.188 220.475 110.675 220.521 111.172C220.101 111.219 219.624 111.078 219.239 111.292C218.846 111.73 218.948 112.384 218.875 112.926C219.814 112.436 220.87 112.313 221.911 112.282C222.105 111.983 222.267 111.658 222.522 111.406C222.759 111.367 223 111.369 223.234 111.334C223.605 111.178 223.89 110.87 224.26 110.716C224.581 110.641 224.911 110.727 225.23 110.749C225.715 110.531 226.207 110.268 226.756 110.311C227.448 110.389 227.923 109.792 228.51 109.538C228.813 109.622 229.112 109.832 229.435 109.772C229.754 109.607 230.015 109.351 230.333 109.187C231.403 109.135 230.979 109.762 232.435 108C232.767 107.928 233.149 107.933 233.418 107.699C233.6 107.395 233.671 107.037 233.874 106.745C234.081 106.573 234.371 106.561 234.616 106.474C235.19 104.698 235.343 102.806 236.062 101.072C236.425 100.116 236.866 99.1561 236.948 98.1251C235.767 94.8986 226.408 96.6574 224.217 99.2928ZM223.503 108.211C226.791 104.112 231.027 99.2932 235.789 97.7635C233.249 99.2304 233.602 97.9584 223.503 108.211Z" fill="#F2F2EC"/>
<path d="M84.5003 90.846C84.7252 91.1368 84.9423 91.4354 85.1578 91.734C85.6785 91.4559 86.0151 90.9544 86.4775 90.6008C86.7968 90.6998 87.1539 91.0015 87.4984 90.8223C87.9468 90.4656 87.9908 89.7787 88.4642 89.4502C88.6671 89.4659 88.8684 89.5068 89.0699 89.543C89.4505 89.1611 89.8233 88.7697 90.2166 88.4003C90.4698 88.5009 90.7199 88.6125 90.9842 88.6816C91.5065 88.5276 91.8793 88.0953 92.2946 87.7652C92.5981 87.924 92.8955 88.0984 93.1897 88.2761C94.8728 87.6835 96.6959 86.6273 98.4986 87.4147C101.547 88.9496 106.849 92.7833 105.901 96.0296C105.267 96.8956 104.146 97.1345 103.163 97.3813C101.255 97.8764 99.6076 99.0097 97.8002 99.7578C97.5643 99.5707 97.3488 99.3398 97.0624 99.2344C96.6425 99.2202 96.2681 99.4843 95.8496 99.4984C95.5539 99.3836 95.3226 99.1573 95.0725 98.9718C94.599 98.9907 94.116 99.0677 93.6521 98.9529C93.3328 98.7187 93.1817 98.318 92.8577 98.0885C92.5085 97.9329 92.1106 97.9187 91.7755 97.7317C91.6433 97.4771 91.5867 97.1942 91.5049 96.9207C90.9717 96.795 90.4384 96.6363 89.9885 96.314C89.6775 95.1204 89.128 96.2263 88.145 94.4295C87.7077 94.3038 87.2704 94.1811 86.8346 94.0569C86.6899 93.8478 86.5451 93.6373 86.3989 93.4282C86.0041 93.4864 85.6077 93.5273 85.2113 93.5461C84.6923 92.6313 83.8051 92.0545 82.8833 91.6065C83.2986 91.1353 83.8663 90.8523 84.5003 90.846ZM104.864 94.9483C99.8476 91.6367 87.6421 92.1551 87.4842 92.1647C102.857 93.0836 103.271 94.2902 104.864 94.9483Z" fill="#F2F2EC"/>
<path d="M262.5 90.846C262.275 91.1368 262.058 91.4354 261.842 91.734C261.322 91.4559 260.985 90.9544 260.523 90.6008C260.203 90.6998 259.846 91.0015 259.502 90.8223C259.053 90.4656 259.009 89.7787 258.536 89.4502C258.333 89.4659 258.132 89.5068 257.93 89.543C257.55 89.1611 257.177 88.7697 256.784 88.4003C256.53 88.5009 256.28 88.6125 256.016 88.6816C255.494 88.5276 255.121 88.0953 254.706 87.7652C254.402 87.924 254.105 88.0984 253.811 88.2761C252.127 87.6835 250.304 86.6273 248.502 87.4147C245.453 88.9496 240.151 92.7833 241.099 96.0296C241.733 96.8956 242.854 97.1345 243.837 97.3813C245.746 97.8764 247.393 99.0097 249.2 99.7578C249.436 99.5707 249.651 99.3398 249.938 99.2344C250.358 99.2202 250.732 99.4843 251.151 99.4984C251.446 99.3836 251.678 99.1573 251.928 98.9718C252.401 98.9907 252.884 99.0677 253.348 98.9529C253.667 98.7187 253.818 98.318 254.142 98.0885C254.492 97.9329 254.89 97.9187 255.225 97.7317C255.357 97.4771 255.413 97.1942 255.495 96.9207C256.028 96.795 256.562 96.6363 257.012 96.314C257.323 95.1204 257.872 96.2263 258.855 94.4295C259.292 94.3038 259.73 94.1811 260.166 94.0569C260.31 93.8478 260.455 93.6373 260.601 93.4282C260.996 93.4864 261.393 93.5273 261.789 93.5461C262.308 92.6313 263.195 92.0545 264.117 91.6065C263.702 91.1353 263.134 90.8523 262.5 90.846ZM242.136 94.9483C247.153 91.6367 259.358 92.1551 259.516 92.1647C244.143 93.0836 243.73 94.2902 242.136 94.9483Z" fill="#F2F2EC"/>
<path d="M119.179 83.4791C114.977 87.4934 111.819 92.4162 107.94 96.7134C113.328 88.4784 116.477 85.7126 119.179 83.4791Z" fill="#F2F2EC"/>
<path d="M227.821 83.4791C232.023 87.4934 235.181 92.4162 239.06 96.7134C233.672 88.4784 230.523 85.7126 227.821 83.4791Z" fill="#F2F2EC"/>
<path d="M97.0686 52.0582C97.085 52.0738 97.102 52.0887 97.1186 52.1042C95.1249 52.0079 92.9719 52.3316 88.9858 52.1117C91.3787 52.1263 94.0239 52.0962 97.0686 52.0582Z" fill="#F2F2EC"/>
<path d="M249.931 52.0582C249.915 52.0738 249.898 52.0887 249.881 52.1042C251.875 52.0079 254.028 52.3316 258.014 52.1117C255.621 52.1263 252.976 52.0962 249.931 52.0582Z" fill="#F2F2EC"/>
<path d="M61.5437 46.8574C64.3169 47.5018 67.0808 48.1902 69.8476 48.8692C67.9631 45.5527 66.6418 41.9221 65.8286 38.2001C64.9003 34.7414 68.7697 24.9747 70.7191 23.8059C70.6562 25.0302 70.1953 26.2531 70.4879 27.4791C71.9087 34.5681 78.2969 41.634 71.1328 49.1631C79.7181 51.1979 85.1853 51.9021 88.9859 52.1118C78.9541 52.0507 73.3729 51.2034 61.5437 46.8574Z" fill="#F2F2EC"/>
<path d="M285.456 46.8574C282.683 47.5018 279.919 48.1902 277.152 48.8692C279.037 45.5527 280.358 41.9221 281.172 38.2001C282.1 34.7414 278.231 24.9747 276.281 23.8059C276.344 25.0302 276.805 26.2531 276.512 27.4791C275.091 34.5681 268.703 41.634 275.867 49.1631C267.282 51.1979 261.815 51.9021 258.014 52.1118C268.046 52.0507 273.627 51.2034 285.456 46.8574Z" fill="#F2F2EC"/>
<path d="M97.0151 51.8431C99.1513 52.0946 101.291 51.7172 103.427 51.6481C95.5606 53.3747 86.7765 57.4865 81.6814 63.7664C84.3914 65.5971 83.7088 71.2585 83.0184 74.4717C81.2303 83.4861 77.6417 81.612 75.103 83.3112C75.0447 83.6948 74.9819 84.0783 74.8843 84.4554C74.0569 84.5293 73.2295 84.5938 72.4084 84.7148C72.2967 85.0542 72.2007 85.3985 72.0985 85.7395C71.3371 85.7537 70.579 85.6672 69.8349 85.5164C69.6887 85.7726 69.5612 86.0366 69.4385 86.3023C68.6001 86.2771 67.8593 85.8763 67.0728 85.6469C66.4593 85.6736 66.3649 86.461 66.0708 86.8776C65.2905 86.8257 64.5135 86.7346 63.7332 86.7111C63.631 87.233 63.9157 87.7453 63.837 88.2498C63.2958 89.0121 62.2373 89.0168 61.3942 88.9901C62.0469 87.7233 62.5157 86.2742 62.1524 84.8454C62.5819 84.4839 63.06 84.19 63.5272 83.8803C63.2797 82.3079 63.524 82.9225 64.4286 81.1313C64.3326 80.9113 64.2367 80.6897 64.1423 80.468C64.3436 79.8676 64.5859 79.2797 64.7808 78.6762C64.9523 78.233 64.6409 77.7725 64.7604 77.3229C64.9664 76.7681 65.4525 76.3437 65.558 75.7465C65.5658 75.3285 65.2938 74.9717 65.116 74.6101C65.4039 74.0443 65.7861 73.5366 66.1794 73.0399C66.085 72.5951 65.8112 72.1095 66.0221 71.6599C66.4106 71.0643 67.1861 70.8536 67.5495 70.2359C67.7383 69.9246 67.6564 69.549 67.6439 69.2048C68.2951 68.7868 69.0092 68.4505 69.5598 67.8924C69.5598 67.6425 69.5629 67.3927 69.5676 67.1411C71.1217 66.4434 72.8395 66.3002 74.4644 65.8318C77.2543 65.0881 79.9328 63.2125 81.5382 63.658C87.4412 56.3534 95.9778 52.7031 97.3612 52.3272C97.2791 52.2542 97.1987 52.1795 97.1186 52.1043C97.4103 52.1184 97.6987 52.1411 97.9889 52.1763C97.745 52.0929 97.259 51.9263 97.0151 51.8431ZM79.0372 69.9261C74.7354 75.7262 68.6039 81.3346 67.1578 83.0345C71.8909 79.0005 80.4935 71.2139 81.5304 65.1793C80.9139 66.4149 81.0765 67.18 79.0372 69.9261Z" fill="#F2F2EC"/>
<path d="M249.985 51.8431C247.849 52.0946 245.71 51.7172 243.573 51.6481C251.439 53.3747 260.224 57.4865 265.319 63.7664C262.609 65.5971 263.291 71.2585 263.982 74.4717C265.77 83.4861 269.358 81.612 271.897 83.3112C271.955 83.6948 272.018 84.0783 272.116 84.4554C272.943 84.5293 273.77 84.5938 274.592 84.7148C274.703 85.0542 274.799 85.3985 274.901 85.7395C275.663 85.7537 276.421 85.6672 277.165 85.5164C277.311 85.7726 277.439 86.0366 277.561 86.3023C278.4 86.2771 279.141 85.8763 279.927 85.6469C280.541 85.6736 280.635 86.461 280.929 86.8776C281.709 86.8257 282.486 86.7346 283.267 86.7111C283.369 87.233 283.084 87.7453 283.163 88.2498C283.704 89.0121 284.763 89.0168 285.606 88.9901C284.953 87.7233 284.484 86.2742 284.848 84.8454C284.418 84.4839 283.94 84.19 283.473 83.8803C283.72 82.3079 283.476 82.9225 282.571 81.1313C282.667 80.9113 282.763 80.6897 282.858 80.468C282.656 79.8676 282.414 79.2797 282.219 78.6762C282.047 78.233 282.359 77.7725 282.239 77.3229C282.033 76.7681 281.547 76.3437 281.442 75.7465C281.434 75.3285 281.706 74.9717 281.884 74.6101C281.596 74.0443 281.214 73.5366 280.82 73.0399C280.915 72.5951 281.189 72.1095 280.978 71.6599C280.589 71.0643 279.814 70.8536 279.45 70.2359C279.262 69.9246 279.343 69.549 279.356 69.2048C278.705 68.7868 277.991 68.4505 277.44 67.8924C277.44 67.6425 277.437 67.3927 277.432 67.1411C275.878 66.4434 274.16 66.3002 272.535 65.8318C269.746 65.0881 267.067 63.2125 265.462 63.658C259.559 56.3534 251.022 52.7031 249.639 52.3272C249.721 52.2542 249.801 52.1795 249.881 52.1043C249.589 52.1184 249.301 52.1411 249.011 52.1763C249.255 52.0929 249.741 51.9263 249.985 51.8431ZM267.963 69.9261C272.265 75.7262 278.396 81.3346 279.842 83.0345C275.109 79.0005 266.507 71.2139 265.47 65.1793C266.086 66.4149 265.924 67.18 267.963 69.9261Z" fill="#F2F2EC"/>
<path d="M21.3641 65.1368C20.4454 66.3674 17.9274 66.7978 17.3529 67.0921C17.0053 67.2604 17.0683 67.7255 16.9486 68.0367C16.3902 68.1231 15.8208 68.0855 15.2623 68.1672C15.0264 68.348 14.9713 68.6765 14.8344 68.9264C14.2745 68.9626 13.7176 68.8982 13.1701 68.7959C13.0301 68.9562 12.9011 69.1245 12.7422 69.2643C12.1052 69.1606 11.509 68.8918 10.8846 68.73C10.6564 69.0333 10.4409 69.3461 10.2334 69.6637C9.73944 69.6275 9.2329 69.5269 8.74368 69.6574C8.65084 70.0095 8.64927 70.3789 8.54237 70.7262C8.09559 71.1726 7.40662 71.1506 6.82312 71.2244V71.0985C7.78776 68.6402 7.3337 68.9168 7.57186 68.0226C7.81563 67.7821 8.11929 67.6092 8.35993 67.3608C8.3977 67.114 8.38663 66.8626 8.38988 66.6127C8.64628 66.2448 8.94825 65.9038 9.14488 65.4982C9.17483 65.2012 9.07091 64.9088 9.01909 64.618C9.32432 63.9642 9.73476 63.2789 9.47992 62.5323C9.76145 62.1095 10.0336 61.6805 10.2711 61.2294C10.161 60.9104 9.78346 60.5676 10.021 60.2235C10.5822 59.133 10.64 59.7572 10.5322 58.2855C10.9301 57.9334 11.388 57.6536 11.7639 57.278C11.8253 57.0312 11.8268 56.7751 11.8504 56.5204C12.305 56.1809 12.7816 55.8712 13.263 55.5726C13.3338 55.3369 13.403 55.1011 13.4754 54.8653C15.0279 54.5054 16.6309 54.3121 18.1173 53.7085C19.3159 53.2731 20.4895 52.712 21.7572 52.5139C24.3179 51.9287 24.666 61.1552 21.3641 65.1368ZM10.1659 67.7286C13.829 64.5919 20.7106 59.2548 22.2623 54.0088C19.486 59.8122 11.3537 66.3558 10.1659 67.7286Z" fill="#F2F2EC"/>
<path d="M325.636 65.1368C326.555 66.3674 329.073 66.7978 329.647 67.0921C329.995 67.2604 329.932 67.7255 330.051 68.0367C330.61 68.1231 331.179 68.0855 331.738 68.1672C331.974 68.348 332.029 68.6765 332.166 68.9264C332.726 68.9626 333.282 68.8982 333.83 68.7959C333.97 68.9562 334.099 69.1245 334.258 69.2643C334.895 69.1606 335.491 68.8918 336.116 68.73C336.344 69.0333 336.559 69.3461 336.767 69.6637C337.261 69.6275 337.767 69.5269 338.256 69.6574C338.349 70.0095 338.351 70.3789 338.458 70.7262C338.905 71.1726 339.594 71.1506 340.177 71.2244V71.0985C339.212 68.6402 339.666 68.9168 339.428 68.0226C339.184 67.7821 338.881 67.6092 338.64 67.3608C338.602 67.114 338.613 66.8626 338.61 66.6127C338.354 66.2448 338.052 65.9038 337.855 65.4982C337.825 65.2012 337.929 64.9088 337.981 64.618C337.676 63.9642 337.265 63.2789 337.52 62.5323C337.239 62.1095 336.967 61.6805 336.729 61.2294C336.839 60.9104 337.217 60.5676 336.979 60.2235C336.418 59.133 336.36 59.7572 336.468 58.2855C336.07 57.9334 335.612 57.6536 335.236 57.278C335.175 57.0312 335.173 56.7751 335.15 56.5204C334.695 56.1809 334.219 55.8712 333.737 55.5726C333.666 55.3369 333.597 55.1011 333.525 54.8653C331.972 54.5054 330.369 54.3121 328.883 53.7085C327.684 53.2731 326.511 52.712 325.243 52.5139C322.682 51.9287 322.334 61.1552 325.636 65.1368ZM336.834 67.7286C333.171 64.5919 326.29 59.2548 324.738 54.0088C327.514 59.8122 335.646 66.3558 336.834 67.7286Z" fill="#F2F2EC"/>
<path d="M103.527 51.64C108.446 50.6922 113.543 50.8761 118.447 51.8145C116.13 51.6906 112.86 51.1082 103.527 51.64Z" fill="#F2F2EC"/>
<path d="M243.473 51.64C238.554 50.6922 233.457 50.8761 228.553 51.8145C230.871 51.6906 234.14 51.1082 243.473 51.64Z" fill="#F2F2EC"/>
<path d="M23.5538 51.3257C27.9968 46.5848 34.7214 42.4536 41.2566 42.1404C38.9079 40.3385 40.2598 41.0485 35.9052 38.6574C36.1129 37.9015 35.4034 37.4346 34.9661 36.9458C35.0086 36.6661 35.2383 36.3486 35.0275 36.0845C34.2783 34.7827 34.1861 35.408 34.6782 34.3225C34.6138 33.8667 34.4643 33.4298 34.3038 32.9991C34.4847 32.8372 34.6688 32.6754 34.8513 32.5118C34.7664 32.0922 34.6231 31.6835 34.5493 31.2607C34.6075 31.0343 34.7177 30.8269 34.8152 30.6131C34.7019 29.9733 34.5477 29.2629 34.9961 28.7066C34.9001 28.2932 34.7743 27.8876 34.6532 27.479C34.8069 26.5861 34.9212 26.913 34.2553 26.0298C34.5416 25.126 34.6816 24.1703 34.4723 23.2321C35.0198 23.3673 35.531 23.6235 35.8425 24.1107C35.8298 24.422 35.5876 24.8118 35.8283 25.0789C36.1727 25.2456 36.5708 25.2503 36.9183 25.4043C37.1276 25.692 37.2078 26.0472 37.3431 26.3694C37.9252 26.3583 38.5071 26.3505 39.0892 26.3647C39.097 26.4888 39.1112 26.7403 39.1191 26.8644C39.6272 26.9792 40.14 27.072 40.6497 27.1757C40.6812 27.4099 40.6764 27.6488 40.733 27.8752C41.1405 28.2226 41.6879 28.3043 42.1787 28.4708C42.2431 28.8795 42.1614 29.4092 42.5955 29.637C43.4229 30.2044 44.2754 30.7718 44.9251 31.5482C46.5886 34.2133 45.6644 39.43 43.8586 42.1434C49.9258 42.4719 55.6515 44.7132 61.2986 46.7738C45.1518 43.0205 34.8795 41.9547 23.5538 51.3257ZM37.2531 28.3387C39.337 32.3431 42.6119 37.2899 43.0622 41.8998C43.56 39.9498 41.2359 34.0136 37.2531 28.3387Z" fill="#F2F2EC"/>
<path d="M323.446 51.3257C319.003 46.5848 312.279 42.4536 305.744 42.1404C308.092 40.3385 306.741 41.0485 311.095 38.6574C310.888 37.9015 311.597 37.4346 312.034 36.9458C311.992 36.6661 311.762 36.3486 311.973 36.0845C312.722 34.7827 312.814 35.408 312.322 34.3225C312.387 33.8667 312.536 33.4298 312.697 32.9991C312.516 32.8372 312.332 32.6754 312.149 32.5118C312.234 32.0922 312.377 31.6835 312.451 31.2607C312.393 31.0343 312.283 30.8269 312.185 30.6131C312.299 29.9733 312.453 29.2629 312.004 28.7066C312.1 28.2932 312.226 27.8876 312.347 27.479C312.194 26.5861 312.079 26.913 312.745 26.0298C312.459 25.126 312.319 24.1703 312.528 23.2321C311.981 23.3673 311.47 23.6235 311.158 24.1107C311.171 24.422 311.413 24.8118 311.172 25.0789C310.828 25.2456 310.43 25.2503 310.082 25.4043C309.873 25.692 309.793 26.0472 309.658 26.3694C309.076 26.3583 308.494 26.3505 307.911 26.3647C307.903 26.4888 307.889 26.7403 307.882 26.8644C307.374 26.9792 306.861 27.072 306.351 27.1757C306.32 27.4099 306.324 27.6488 306.268 27.8752C305.86 28.2226 305.313 28.3043 304.822 28.4708C304.758 28.8795 304.84 29.4092 304.405 29.637C303.578 30.2044 302.725 30.7718 302.076 31.5482C300.412 34.2133 301.336 39.43 303.142 42.1434C297.075 42.4719 291.349 44.7132 285.702 46.7738C301.848 43.0205 312.121 41.9547 323.446 51.3257ZM309.747 28.3387C307.663 32.3431 304.388 37.2899 303.938 41.8998C303.44 39.9498 305.764 34.0136 309.747 28.3387Z" fill="#F2F2EC"/>
<path d="M106.696 49.3596C105.904 48.7356 105.192 48.011 104.333 47.4782C99.5163 44.2567 98.9111 45.495 99.0224 43.6588C98.5945 43.1951 98.1619 42.7362 97.7451 42.2616C97.8049 41.9535 97.948 41.6424 97.8835 41.3232C97.5941 40.7904 97.0294 40.3959 96.9271 39.7703C96.9775 39.349 97.1426 38.9545 97.2716 38.5537C97.1081 38.1326 96.8564 37.7113 96.8768 37.2461C96.9837 36.9396 97.2088 36.6944 97.3943 36.4319C97.2512 35.9132 97.0089 35.4244 96.9177 34.8916C96.8626 34.3777 97.3581 33.9674 97.2072 33.4488C97.0248 32.6567 97.2434 31.8692 97.492 31.1194C96.7191 29.3313 97.0046 29.6909 97.2969 28.8308C96.9178 28.5118 96.5624 28.1613 96.3011 27.7369C97.1834 25.8937 96.627 25.9664 96.7117 24.2648C97.2858 24.2444 97.9466 24.4566 98.2328 24.9894C98.3507 25.4924 98.1668 26.0032 98.1022 26.4999C98.6794 26.6256 99.2882 26.6146 99.8434 26.83C100.377 26.9856 100.186 27.641 100.309 28.0512C101.14 28.1392 101.975 28.0921 102.805 28.0434C102.865 28.2745 102.916 28.5071 102.993 28.7303C103.639 28.9598 104.339 28.9707 105.006 29.1216C105.019 29.4109 105.027 29.6969 105.031 29.983C105.634 30.4058 106.373 30.5049 107.032 30.7988C107.059 31.1116 107.024 31.4244 107.051 31.734C107.312 32.2024 107.847 32.3942 108.276 32.6708C109.164 33.2288 110.024 33.8559 110.724 34.6418C113.546 38.0688 111.487 53.1325 106.696 49.3596ZM99.757 29.6796C101.373 32.5959 100.744 30.8826 106.318 41.4238C108.909 46.2556 108.438 47.3405 108.696 48.6334C109.461 43.6992 102.584 33.7592 99.757 29.6796Z" fill="#F2F2EC"/>
<path d="M240.305 49.3596C241.096 48.7356 241.808 48.011 242.667 47.4782C247.484 44.2567 248.089 45.495 247.978 43.6588C248.406 43.1951 248.838 42.7362 249.255 42.2616C249.195 41.9535 249.052 41.6424 249.117 41.3232C249.406 40.7904 249.971 40.3959 250.073 39.7703C250.023 39.349 249.857 38.9545 249.728 38.5537C249.892 38.1326 250.144 37.7113 250.123 37.2461C250.016 36.9396 249.791 36.6944 249.606 36.4319C249.749 35.9132 249.991 35.4244 250.082 34.8916C250.137 34.3777 249.642 33.9674 249.793 33.4488C249.975 32.6567 249.757 31.8692 249.508 31.1194C250.281 29.3313 249.996 29.6909 249.703 28.8308C250.082 28.5118 250.438 28.1613 250.699 27.7369C249.817 25.8937 250.373 25.9664 250.288 24.2648C249.714 24.2444 249.054 24.4566 248.767 24.9894C248.649 25.4924 248.833 26.0032 248.898 26.4999C248.321 26.6256 247.712 26.6146 247.157 26.83C246.623 26.9856 246.814 27.641 246.691 28.0512C245.861 28.1392 245.025 28.0921 244.195 28.0434C244.135 28.2745 244.085 28.5071 244.007 28.7303C243.361 28.9598 242.661 28.9707 241.994 29.1216C241.981 29.4109 241.974 29.6969 241.969 29.983C241.366 30.4058 240.627 30.5049 239.968 30.7988C239.941 31.1116 239.976 31.4244 239.949 31.734C239.688 32.2024 239.153 32.3942 238.724 32.6708C237.837 33.2288 236.976 33.8559 236.276 34.6418C233.454 38.0688 235.513 53.1325 240.305 49.3596ZM247.243 29.6796C245.627 32.5959 246.256 30.8826 240.682 41.4238C238.091 46.2556 238.562 47.3405 238.304 48.6334C237.539 43.6992 244.416 33.7592 247.243 29.6796Z" fill="#F2F2EC"/>
<path d="M157.818 23.8969C158.963 20.2542 163.466 19.799 167.258 20.1341C168.773 20.2598 170.236 20.6904 171.711 21.0332C172.041 23.5525 172.952 24.8451 171.779 29.0602C170.845 32.1825 169.606 33.3617 168.38 33.9484C167.661 34.0411 166.925 34.0616 166.243 34.3335C165.979 33.8227 165.69 33.3165 165.263 32.9205C163.877 34.0802 164.496 33.3199 159.714 33.1955C159.363 33.5021 159.067 33.8713 158.669 34.1228C158.202 33.9044 157.779 33.612 157.329 33.3669C156.585 33.2082 155.816 33.2601 155.063 33.216C155.24 32.5826 155.56 32.0041 155.936 31.4666C154.651 30.8592 154.842 30.9694 154.823 29.9122C155.309 29.7832 155.83 29.6795 156.239 29.3636C156.7 28.8983 156.495 28.0558 157.066 27.6629C157.479 27.3139 158.04 27.4649 158.531 27.4664C157.234 26.6534 156.946 26.746 157.818 23.8969Z" fill="#F2F2EC"/>
<path d="M189.182 23.8969C188.037 20.2542 183.534 19.799 179.742 20.1341C178.227 20.2598 176.764 20.6904 175.289 21.0332C174.959 23.5525 174.048 24.8451 175.221 29.0602C176.155 32.1825 177.394 33.3617 178.62 33.9484C179.339 34.0411 180.075 34.0616 180.757 34.3335C181.021 33.8227 181.31 33.3165 181.737 32.9205C183.123 34.0802 182.504 33.3199 187.286 33.1955C187.637 33.5021 187.933 33.8713 188.331 34.1228C188.798 33.9044 189.221 33.612 189.671 33.3669C190.415 33.2082 191.184 33.2601 191.937 33.216C191.76 32.5826 191.44 32.0041 191.065 31.4666C192.349 30.8592 192.158 30.9694 192.177 29.9122C191.691 29.7832 191.17 29.6795 190.761 29.3636C190.3 28.8983 190.505 28.0558 189.934 27.6629C189.521 27.3139 188.96 27.4649 188.469 27.4664C189.767 26.6534 190.054 26.746 189.182 23.8969Z" fill="#F2F2EC"/>
</svg>
