<svg width="173" height="304" viewBox="0 0 173 304" fill="none" xmlns="http://www.w3.org/2000/svg">
<path fill-rule="evenodd" clip-rule="evenodd" d="M61.6929 206.845C57.4969 209.709 58.8219 219.117 58.6559 223.929C58.3849 231.792 55.7939 239.27 54.6639 247.004C53.6269 248.08 53.5569 250.045 52.9179 251.364C52.1509 252.95 51.4109 254.521 50.8179 256.181C49.5649 259.687 48.7229 263.369 47.3839 266.831C45.0229 272.997 43.1739 279.201 42.2519 286.019C41.7979 289.376 41.6479 293.051 43.1169 296.198C43.9889 298.06 46.6149 302.361 43.2349 302.938C36.6429 304.065 35.4409 291.814 35.7349 287.265C35.9829 283.422 37.0319 279.694 38.1599 276.032C39.0929 273.002 39.6099 268.945 41.3179 266.453C42.0329 265.41 42.6509 263.249 43.0569 262.01C43.6159 260.301 43.7779 258.491 44.3739 256.792C44.7459 255.733 46.8149 250.493 47.1359 250.769C47.3489 248.354 48.7429 246.294 49.4719 244.034C50.4239 241.079 48.6259 238.597 49.1429 235.71C47.0569 235.481 45.0189 236.47 42.8679 236.212C41.9249 234.618 39.7979 234.476 38.5889 233.175C37.8439 232.373 34.5409 232.57 33.0779 232.696C32.5769 231.914 31.4919 232.145 30.8189 231.693C29.7819 230.995 29.3699 229.761 28.2139 229.11C27.0099 228.432 26.1309 227.266 25.5489 226.172C24.7379 224.634 23.5559 222.28 23.0389 220.649C22.2889 218.276 22.8329 215.684 21.7849 213.372C21.6359 212.735 20.8039 213.084 20.3969 212.882C19.4999 212.437 19.1039 210.938 18.2699 210.359C16.1639 208.901 7.83391 210.821 7.50691 207.26C7.20491 203.971 7.97991 205.338 10.3169 203.848C12.1759 202.663 8.64991 200.788 7.74091 200.045C6.42991 198.976 4.50791 197.735 5.95891 195.841C7.36491 194.007 8.73691 194.557 6.47391 192.788C4.78691 191.474 2.00591 191.856 2.19091 189.536C2.31991 187.922 4.59191 187.538 2.31991 186.507C0.414906 185.643 -0.575094 184.51 0.351906 182.392C1.44991 179.881 3.56591 181.427 5.75891 180.363C8.18491 179.184 9.43791 178.259 10.9809 176.13C11.7819 175.025 12.6909 173.996 13.7059 173.083C15.0509 171.872 15.0419 170.555 15.9329 168.992C17.1789 166.804 17.3959 165.628 19.9819 166.623C21.9429 167.378 22.1259 163.848 21.7519 162.824C20.7899 160.195 24.5049 151.33 28.0599 154.639C29.0849 154.19 30.3759 153.806 30.8199 152.631C31.9189 152.706 32.8849 152.333 33.9539 152.208C35.4389 152.035 35.3369 152.625 36.7829 152.034C37.7009 151.659 38.6859 151.165 39.6909 151.507C42.2179 152.366 41.5509 150.319 43.3189 150.162C43.8859 150.112 44.1429 149.547 44.5759 149.224C45.9779 148.178 46.5549 149.695 47.3409 147.706C48.2029 145.525 49.1379 143.212 50.9009 141.586C52.9269 141.213 54.9399 141.337 56.7769 140.735C61.3609 139.235 62.8729 133.29 66.5729 130.452C69.7179 128.039 73.0309 126.489 75.9269 124.029C80.1149 120.472 85.6769 115.863 88.4389 111.201C90.5079 107.707 94.4149 105.684 96.2349 102C96.9509 100.551 96.8809 101.447 97.5659 100.404C97.9889 99.7632 98.5839 98.6772 99.1759 97.9492C100.426 96.4152 101.967 95.0862 102.983 93.5302C103.541 92.6762 104.085 91.7392 105.116 91.3862C105.135 90.5162 105.546 89.8812 106.157 89.3082C106.709 88.7912 107.298 88.3122 107.522 87.5532C108.001 85.9322 107.805 87.1442 108.88 86.1152C109.291 83.9482 111.254 82.2442 112.412 80.4582C113.877 78.1972 115.243 76.4702 116.683 74.1232C119.586 69.3932 123.244 65.1392 125.613 60.0872C127.427 56.2162 131.122 53.2682 132.313 49.0202C132.667 47.7582 132.414 48.1782 133.153 47.4752C133.688 46.9662 133.763 46.4772 134.334 45.5602C134.979 44.5252 135.323 42.7402 136.193 42.1482C137.632 41.1682 139.147 37.6802 140.168 35.7572C141.502 33.2422 143.016 31.5512 144.408 29.2812C145.301 27.8272 146.112 25.9322 147.209 24.8852C148.478 23.6762 149.57 20.8922 150.717 19.0232C153.605 14.3152 155.922 9.27517 158.882 4.57317C160.047 2.72117 162.786 1.82217 164.351 0.0271719C167.078 0.263172 168.194 -0.701828 170.247 1.34517C171.781 2.87417 173.056 4.31117 172.972 6.62717C172.849 10.0252 171.364 11.5912 169.774 14.2342C165.038 22.1072 159.628 29.9002 155.363 38.2882C151.828 45.2412 146.509 53.3692 141.676 60.2812C141.075 61.1402 140.548 61.9342 140.506 63.0272C139.444 62.9502 139.4 63.6352 139.04 64.4832C138.087 66.7332 136.678 68.7312 135.254 70.7012C133.832 72.6682 132.413 74.6542 131.439 76.8902C130.537 78.9612 128.168 80.1922 127.957 82.6042C125.804 83.6792 125.077 86.2792 123.864 88.1702C122.423 90.4182 120.667 92.4412 119.172 94.6512C116.651 98.3792 113.862 101.627 111.29 105.455C109.98 107.404 108.572 109.215 107.068 111.017C106.268 111.975 105.495 113.022 105.116 114.23C104.154 114.276 103.827 115.057 103.489 115.803C102.903 117.096 101.524 117.147 100.875 118.356C100.305 119.418 98.1179 123.18 96.9549 123.456C95.5999 123.777 93.4039 127.507 92.1379 128.861C90.1969 130.936 88.1339 132.893 86.2269 134.999C82.5069 139.109 81.2879 143.932 79.9209 149.327C78.6289 154.427 77.0009 159.626 73.9819 163.995C72.4589 166.199 72.3789 168.241 71.2539 170.664C70.2359 172.855 69.3189 174.978 68.6649 177.32C67.2529 182.382 67.7029 187.424 67.4669 192.541C67.1869 198.456 68.7129 204.272 68.1079 210.215C68.0039 211.238 65.3379 221.319 63.0519 217.277C61.3299 214.257 62.6759 210.097 61.6779 206.847L61.6929 206.845ZM82.2589 131.547C82.8719 130.23 84.0369 129.307 85.0189 128.283C85.4119 127.599 85.9979 127.265 86.7769 127.28C87.0109 126.271 87.5729 125.432 88.2729 124.69C89.1719 123.736 92.5059 121.118 92.2979 119.75C93.3129 120.68 99.8439 110.857 100.64 109.619C101.293 108.604 101.642 109.384 102.505 108.152C103.444 106.81 104.596 105.64 105.623 104.367C107.489 102.054 108.907 100.036 110.72 97.6992C111.749 96.3722 113.033 93.0442 114.887 92.3912C115.371 89.3132 118.353 87.1342 119.939 84.6552C123.169 79.6092 126.403 75.0342 129.799 70.2582C130.697 68.9952 131.624 67.7442 132.32 66.3532C132.957 65.0782 133.59 64.3802 134.169 63.3602C135.479 61.0522 137.963 58.6872 138.935 55.9182C139.463 54.4152 140.303 54.2732 140.977 52.7602C141.635 51.2832 142.532 49.9412 143.473 48.6332C144.411 47.3292 145.371 46.0392 146.151 44.6302C146.585 43.8472 146.958 43.0352 147.268 42.1942C147.951 42.3252 148.531 41.4322 148.773 40.9402C151.858 34.7412 155.666 29.0652 158.975 22.9812C159.5 22.0172 159.63 21.8722 160.569 21.6132C161.128 20.0212 161.907 18.5212 162.798 17.0922C163.851 15.4032 166.795 9.74917 168.101 9.56617C168.763 6.92317 171.443 5.10317 169.074 2.45517C168.159 1.43217 167.783 1.18817 166.366 1.57417C165.706 1.80017 165.029 1.95317 164.337 2.03717C164.207 2.70017 163.834 3.16317 163.218 3.42817C159.122 5.47117 155.806 12.3492 154.296 16.5952C155.426 16.3582 155.448 17.5532 154.798 18.1002C154.404 17.6332 154.808 16.4812 153.795 17.0952C153.093 18.0272 152.475 19.0202 151.881 20.0232C150.575 22.2302 149.402 24.5132 148.057 26.6982C146.836 28.6812 145.443 30.4972 144.455 32.6232C143.312 35.0812 141.277 36.6142 140.492 39.4352C138.638 40.3742 138.36 42.7632 137.195 44.4712C135.883 46.3962 134.396 48.2082 133.715 50.4792C131.896 51.1292 132.611 53.5662 131.34 54.6142C129.972 55.7422 130.038 57.2182 128.914 58.4642C126.567 61.0652 124.663 64.2082 122.927 67.7662C121.944 69.7822 120.168 71.2002 119.329 73.1132C118.354 75.3342 115.999 76.5332 115.643 79.0922C114.555 79.1722 114.846 81.0912 113.635 81.1002C113.14 83.2182 111.405 84.4652 110.246 86.1832C108.1 89.3702 104.848 92.6152 103.045 95.9442C102.651 96.6692 102.585 96.9922 101.808 97.4682C100.784 98.0942 100.71 98.7302 99.9379 99.7802C98.6179 101.574 96.7809 103.313 95.9389 104.962C95.0129 106.777 92.9909 107.739 92.2999 109.712C89.7769 111.224 88.2929 114.282 86.2059 116.318C84.0909 118.381 82.3369 121.238 79.9219 122.937C78.9279 123.636 77.9849 124.491 77.2389 125.526C75.6559 125.931 72.7069 127.952 71.7809 129.019C70.0519 131.01 67.4209 131.469 65.8059 133.519C63.9479 135.879 62.1169 137.439 61.2809 140.37C60.5999 142.757 60.0989 145.154 60.2639 147.652C60.4499 150.47 62.2919 153.561 63.0559 156.357C63.4049 157.633 63.7539 158.911 64.1869 160.162C65.3019 160.127 66.1089 159.58 67.0419 159.062C68.7189 158.131 70.1429 156.085 71.3439 154.517C74.4379 150.476 74.3429 146.035 75.3559 141.1C75.8369 138.759 77.8509 137.856 78.2439 135.564C80.3459 135.219 81.0029 133.554 81.0029 131.8C81.5319 132.31 81.5499 131.29 82.2719 131.53L82.2589 131.547ZM160.078 25.6102C158.547 26.8282 157.631 28.6192 156.762 30.3262C155.66 32.4882 153.993 34.3022 153.049 36.4582C151.265 40.5342 147.894 43.9452 146.166 47.5912C144.414 51.2892 140.329 54.4372 139.245 58.4912C138.166 62.5232 133.571 65.5572 132.134 69.4242C131.501 71.1282 130.3 72.4812 129.253 73.9332C128.611 74.8232 128.047 75.7662 127.698 76.8132C126.784 76.9202 126.372 77.8602 126.057 78.5832C124.368 82.4752 120.992 85.5222 118.792 89.2412C117.977 90.6212 116.836 91.1062 116.199 92.5232C115.359 94.3922 113.953 95.2302 113.141 96.7992C112.037 98.9352 110.144 100.505 108.929 102.566C107.984 104.17 107.995 103.172 107.136 104.837C106.589 105.894 105.806 106.788 105.013 107.663C102.911 109.985 100.242 112.018 98.8759 114.734C98.4909 115.498 98.1679 116.498 97.3979 116.985C96.3589 117.642 96.4519 118.087 95.6009 119.078C94.3049 120.588 93.0249 122.157 91.5519 123.5C87.9079 126.823 85.4529 130.966 81.2609 133.791C81.0539 136.116 79.1189 136.835 78.2509 138.883C77.7769 140.001 76.8549 145.199 76.6389 145.205C76.4219 145.211 74.1919 154.654 73.3709 155.768C72.0399 157.575 71.6739 160.101 70.5089 162.148C69.3789 164.133 67.9019 165.903 66.2009 167.424C66.3059 168.16 65.8719 172.236 67.8499 170.187C69.4879 168.49 70.6099 165.816 71.8399 163.81C73.3149 161.404 74.7659 159.17 75.7529 156.5C75.8249 156.304 77.3289 152.702 76.6219 153.172C78.1109 152.183 78.1119 148.163 78.5019 146.591C79.0499 144.362 79.9899 142.905 80.8509 140.771C83.8509 133.331 90.9339 128.973 95.5139 122.477C96.9049 120.505 96.2799 121.883 97.3259 120.99C98.0919 119.275 99.2849 117.822 100.484 116.399C102.307 114.239 104.94 112.027 106.251 109.721C108.249 106.206 111.267 103.405 113.253 99.8832C114.104 98.3772 115.034 97.7982 116.01 96.1562C117.071 94.3712 118.406 92.7732 119.726 91.1792C125.112 84.6792 129.787 76.9332 134.002 69.6252C135.593 66.8662 137.711 64.8942 138.783 61.9852C139.328 60.5072 140.447 59.5512 141.19 58.0812C141.508 57.4512 143.013 55.4022 143.006 55.2272C143.775 53.8322 144.753 52.5742 145.617 51.2402C146.382 50.0592 147.551 48.4942 147.951 47.8112C149.74 44.7532 151.096 41.0342 153.44 38.3232C154.432 37.1772 162.788 23.1922 161.579 22.3462C161.369 23.6352 160.109 24.2982 160.049 25.6282L160.078 25.6102ZM51.1189 143.598C51.6489 146.178 55.1359 147.223 56.0489 149.986C57.0419 152.99 57.5569 156.154 58.3909 159.205C60.1729 165.726 61.9679 173.795 65.6759 179.491C65.2159 171.718 63.9199 163.998 61.6339 156.55C61.1009 154.813 60.5159 153.092 59.8819 151.388C59.3799 150.038 58.4619 149.346 57.8179 148.045C57.0359 146.466 58.3549 145.566 56.7049 144.416C55.0329 143.236 53.0379 142.406 51.1189 143.586V143.598ZM49.8629 150.606C50.1699 149.636 50.8209 148.834 51.0389 147.828C51.2259 146.968 50.3219 144.992 49.5529 146.325C48.8869 147.485 47.7579 150.205 49.8629 150.605V150.606ZM53.8789 158.895C53.5099 158.797 53.1759 158.629 52.8769 158.393C52.4029 157.537 51.9099 156.691 51.3949 155.859C50.3739 154.207 49.0889 151.327 47.1339 150.798C46.0789 150.513 44.6299 150.331 43.9369 151.421C43.1449 152.666 46.0319 154.445 47.0039 155.38C49.9789 158.237 52.1899 162.404 54.6599 165.749C57.2919 169.312 59.9059 172.898 62.1619 176.716C60.9909 170.006 56.1649 165.106 53.8789 158.886V158.895ZM38.3179 153.106C38.0529 154.566 39.4049 153.216 38.3179 153.106V153.106ZM64.4209 192.266C64.2449 190.695 63.2529 189.583 63.1449 187.962C62.9909 185.656 63.3119 183.686 62.4729 181.463C60.9769 177.5 58.3939 173.237 55.7969 169.903C53.1789 166.543 50.5239 163.104 48.3409 159.612C46.9519 157.389 42.5229 151.182 39.0709 153.36C39.0369 154.515 42.2049 156.772 42.9829 157.74C44.2539 159.321 45.4739 161.229 47.2669 162.267C50.1129 163.914 52.4909 169.884 54.1309 172.687C56.5739 176.855 58.2879 181.746 60.3459 186.133C61.2749 188.113 61.8669 190.172 62.3759 192.293C62.6599 193.475 62.2549 195.786 63.6699 196.28C64.4079 195.09 64.5719 193.6 64.4209 192.25V192.266ZM28.0279 160.88C29.5809 161.467 30.3939 161.402 30.8919 159.855C31.5299 157.87 32.5349 156.038 33.2979 154.103C29.7509 154.603 27.8069 157.343 28.0279 160.873V160.88ZM40.5769 157.353C38.6669 155.341 35.9979 154.426 33.7999 156.601C36.9089 160.458 40.7739 163.243 43.5879 167.394C43.4219 163.764 41.0509 160.874 40.5769 157.354V157.353ZM23.0069 159.364V162.88C26.1069 163.405 26.5299 157.903 27.2739 155.851C24.9909 155.331 24.3239 158.171 23.0069 159.361V159.364ZM45.5959 173.671C44.0009 171.869 42.9069 169.686 41.9289 167.506C41.1569 165.785 39.6839 165.257 38.4999 163.782C37.7959 162.905 31.8429 155.915 32.3909 160.666C32.6099 162.561 34.5719 162.733 35.5549 163.884C36.4969 164.986 37.6479 165.914 38.7099 167.003C40.9399 169.291 42.7929 173.315 45.5969 175.176C45.5959 174.666 45.5959 174.166 45.5959 173.666V173.671ZM45.3449 166.386C45.7429 167.698 45.8429 169.062 46.0929 170.404C46.3349 171.707 47.1409 172.053 47.4139 173.391C48.0669 176.599 47.1119 179.423 50.1149 181.698C49.7369 177.893 49.4089 174.039 48.4289 170.332C47.6789 167.493 46.7399 162.965 44.0909 161.366C43.4859 163.036 44.8829 164.856 45.3449 166.386V166.386ZM51.3709 195.246C51.7989 190.521 51.2209 187.814 48.8719 183.544C47.9199 181.815 46.6989 180.493 45.8089 178.79C44.8229 176.901 43.0909 175.906 42.1139 174.015C41.4569 172.743 39.9619 171.219 39.0709 170.147C38.3179 169.233 37.8389 169.751 37.3179 168.372C36.8819 167.216 35.9999 166.546 34.9779 165.92C34.0259 165.337 33.0039 164.865 32.1249 164.166C31.0539 163.315 30.1079 163.539 29.0309 162.87C28.5999 163.682 26.0399 162.427 26.0199 163.872C28.8419 162.47 34.6919 167.935 36.4759 169.745C39.6819 172.996 43.3569 176.654 45.2199 180.882C46.9489 184.804 48.6879 188.516 49.6949 192.858C50.1989 195.031 50.5249 197.279 50.3659 199.514C50.2129 201.681 48.6109 203.584 48.8609 205.789C52.5949 204.059 51.0749 198.419 51.3709 195.229V195.246ZM28.0279 170.889C30.6149 173.723 31.1609 178.166 34.0519 180.677C34.2409 179.254 34.0019 177.988 33.0489 177.036C31.7609 175.75 31.6209 173.821 30.4949 172.337C29.2849 170.742 26.3759 165.485 23.7609 165.868C23.2949 168.928 26.4259 169.138 28.0279 170.888V170.889ZM34.8029 185.688C33.3569 182.938 31.5819 180.384 29.9989 177.715C28.2449 174.757 27.1919 171.775 23.9689 170.361C22.4139 169.678 20.9059 168.771 19.2419 168.369C17.9669 169.188 17.2649 170.574 16.2289 171.634C16.6619 172.27 15.9259 174.207 16.9819 174.393C17.8159 174.518 18.8079 172.637 19.2409 172.134C18.4229 172.012 17.7819 170.773 18.4879 170.126C18.8739 170.764 19.5589 170.143 20.3469 170.878C21.2929 171.763 22.6359 172.268 23.0059 173.642C25.8159 173.957 27.2859 178.308 28.7779 180.165C29.1249 181.488 29.9729 182.169 30.3689 183.458C30.8519 185.03 31.5899 186.498 32.3379 187.958C33.0869 189.418 33.8219 190.89 34.3009 192.466C35.6389 192.644 35.8759 194.723 36.1159 195.864C36.5839 198.091 36.6409 203.784 33.2959 201.249C32.2449 201.67 31.3799 202.585 32.0419 203.76C33.6759 204.078 35.4439 203.95 36.8119 202.916C39.6649 200.756 39.3969 197.369 38.3489 194.477C37.7679 192.873 37.3249 191.225 36.7539 189.618C36.0129 187.528 34.8029 188.418 34.8029 185.688V185.688ZM50.8679 176.408C51.3609 177.546 52.4149 178.329 53.2089 179.235C54.3619 180.55 54.9449 182.437 55.4759 184.071C56.5109 187.25 57.1329 190.549 58.2529 193.703C59.3249 196.721 60.0729 199.711 60.7789 202.855C61.6209 206.612 64.0199 203.826 63.5979 201.278C63.2059 198.91 61.9029 197.191 61.2559 194.883C60.3479 191.648 59.7759 188.697 58.2889 185.672C55.5829 180.168 53.7159 174.684 50.1139 169.633C50.6289 171.843 49.9399 174.253 50.8679 176.403V176.408ZM38.8209 189.703C38.6209 182.57 37.8669 173.888 34.8029 171.13C35.9199 176.55 35.3929 185.75 38.8209 189.7V189.703ZM16.9829 177.153C12.6059 178.339 8.98291 181.428 4.52191 182.413C3.31091 182.681 2.46191 182.214 1.98291 183.362C1.40691 184.741 3.16591 184.508 3.90891 184.303C5.81591 183.778 7.50191 182.863 9.39791 182.53C13.1109 181.879 16.3229 180.586 19.3669 178.378C20.1299 177.825 23.8639 176.436 22.3889 174.926C20.4959 172.976 18.5759 175.636 16.9829 177.146V177.153ZM40.5769 187.686C40.6389 188.784 39.3619 197.334 41.8169 195.84C44.4429 194.241 44.8849 192.759 44.7419 189.88C44.6099 187.227 44.3619 184.477 43.7219 181.891C43.4569 180.818 40.7039 175.648 39.3209 175.89C38.6529 179.8 40.3589 183.81 40.5769 187.69V187.686ZM63.1669 178.91C63.2079 178.734 63.0789 177.449 62.9159 178.156C62.6949 179.106 63.0499 179.406 63.1669 178.906V178.91ZM6.94391 185.18C6.81691 187.526 10.5489 185.499 11.1799 185.29C12.1779 184.961 13.4099 184.674 13.9699 183.674C15.8049 183.874 17.5469 182.514 19.0499 181.674C19.5199 181.411 22.8999 180.196 20.8729 179.657C19.6919 179.344 18.6019 181.002 17.4649 181.665C14.2429 183.545 10.4639 184.105 6.94391 185.185V185.18ZM23.0069 181.425C21.9039 182.288 20.7569 182.563 19.9949 183.349C18.6899 184.698 16.5779 185.157 14.8859 185.868C12.7679 186.758 10.7969 188.062 8.55191 188.032C7.59091 188.019 4.52091 188.511 4.43291 189.708C9.61891 189.946 15.7479 187.997 20.0649 185.468C20.4509 185.172 20.8459 185.163 21.2499 185.442C21.5869 184.884 22.0759 184.537 22.7169 184.399C24.0369 184.021 24.6849 183.115 25.9729 182.484C27.5259 181.723 27.7819 181.243 26.5249 179.917C25.6569 178.997 23.8829 180.737 23.0069 181.427V181.425ZM63.6689 180.667C64.0959 180.724 64.2899 180.385 63.6689 180.416C63.7529 178.986 63.0869 180.256 63.6689 180.666V180.667ZM65.1749 189.207C65.2939 189.878 65.1629 191.122 66.1779 191.215C65.9119 188.34 66.0349 185.063 64.6729 182.43C65.1509 184.67 64.7759 186.97 65.1749 189.21V189.207ZM21.2499 186.7C21.1559 187.087 21.2399 187.422 21.5009 187.705C21.7779 187.356 23.0999 186.818 22.2519 186.2C21.9179 186.99 22.3429 186.8 21.2499 186.69V186.7ZM20.7479 187.94C20.7849 187.642 21.1949 187.371 20.7479 187.187C20.7109 187.477 20.3009 187.757 20.7479 187.937V187.94ZM20.4969 187.19C19.8619 186.926 19.3859 188.038 19.9969 188.195C19.8119 187.505 20.4949 187.685 20.4969 187.185V187.19ZM28.2789 187.94C25.3869 189.408 22.2419 190.301 19.2229 191.461C18.6359 191.687 16.8759 193.116 16.2289 192.708C15.9049 193.83 14.2349 194.473 13.2179 193.965C11.9869 195.481 8.26791 195.033 7.51491 196.635C6.30091 199.214 12.0499 197.145 12.5979 197.355C13.3159 197.629 15.4349 196.5 16.2049 196.015C17.9719 194.905 20.6829 194.732 22.4759 193.727C24.6169 192.527 26.9669 191.953 29.1319 190.804C30.5079 190.074 31.2329 189.842 30.6319 188.097C30.1879 186.807 29.1199 187.507 28.2789 187.937V187.94ZM46.0979 189.447C46.1879 192.632 46.4819 195.888 45.9419 199.05C45.5719 201.218 42.2889 204.857 43.8389 206.767C46.0139 204.546 48.5289 203.136 48.8129 199.712C49.0209 197.198 48.2489 189.941 46.3489 188.693C46.4199 188.993 46.3359 189.253 46.0979 189.443V189.447ZM28.7799 193.203C24.6829 193.978 21.0709 196.684 17.5029 197.51C16.7949 197.673 11.2119 199.465 11.2119 199.729C13.2319 200.693 16.2089 197.831 17.2349 198.727C18.5439 196.93 20.9849 197.012 22.9589 196.71C24.5089 196.473 33.0649 193.727 31.7929 191.195C30.8259 191.925 29.6139 192.305 28.7799 193.205V193.203ZM53.3789 196.725C54.4639 198.065 55.7899 199.18 57.1429 200.238C56.8599 197.329 56.2599 193.639 54.1299 191.453C53.3439 193.033 53.5399 195.013 53.3789 196.723V196.725ZM29.7839 197.473C29.1749 197.062 26.4249 199.483 27.5249 199.732C27.8359 198.925 28.5009 198.882 29.2539 198.832C30.5689 198.744 30.5289 198.229 31.5679 197.585C31.9739 197.334 35.3709 194.188 33.2969 194.463C32.5869 195.953 30.7279 196.203 29.7839 197.473V197.473ZM65.1749 204.503C64.9089 205.74 63.6859 206.506 63.4179 207.766C63.1179 209.17 63.3669 210.619 63.4179 212.033C63.4629 213.287 63.1089 214.83 64.1699 215.798C65.2769 215.652 65.8319 214.621 66.1159 213.657C66.6719 211.778 66.7649 195.291 65.9279 195.468C63.7299 197.968 65.7939 201.598 65.1749 204.508V204.503ZM42.3339 202.998C43.5959 201.951 44.1219 200.286 44.4359 198.74C44.5809 198.028 45.5139 194.634 43.7929 196.167C42.0349 197.737 39.5989 201.127 42.3339 202.997V202.998ZM33.5489 198.477C33.7319 198.531 33.8989 198.615 34.0509 198.729C34.0199 198.229 33.5489 197.449 33.5489 198.479V198.477ZM27.0229 199.989V199.235C24.2139 199.331 21.3549 200.815 18.6449 202.095C17.3389 202.711 11.8119 204.514 11.7119 206.012C14.2259 206.202 26.6709 199.512 27.0229 199.982V199.989ZM32.0439 199.732C30.8769 199.677 31.9029 199.627 31.2899 199.984C30.2159 200.614 32.7179 199.764 32.0439 199.734V199.732ZM59.4019 206.002C61.2029 203.628 56.4429 201.299 54.6319 200.23C54.3019 202.87 56.5809 206.07 59.4019 206V206.002ZM42.0829 207.51C42.2469 205.568 41.6069 203.6 39.5729 202.993C39.0779 204.403 40.1139 207.783 42.0829 207.513V207.51ZM41.8319 296.613C38.5679 289.235 41.5239 280.296 43.4569 272.937C45.0269 266.961 47.7229 261.639 49.5469 255.8C50.8049 251.776 53.2119 247.687 54.1299 243.652C55.1509 239.167 56.0379 234.25 56.5999 229.637C57.2019 224.693 57.3219 219.68 56.9299 214.714C56.8399 213.568 55.2249 201.796 53.1279 203.24C53.5429 203.2 54.5959 212.887 54.6389 213.922C54.8039 217.898 53.7109 222 54.5199 225.873C55.2519 229.381 53.5919 233.625 52.5609 236.929C50.9509 242.088 49.5979 247.272 47.7819 252.375C44.3449 262.029 40.4399 271.723 38.1709 281.738C37.0249 286.797 37.2729 291.405 38.5549 296.415C39.1329 298.675 39.5769 300.107 41.9109 301.028C44.9019 302.208 42.0979 297.208 41.8319 296.608V296.613ZM29.5329 211.018C30.7569 211.85 31.5939 216.123 32.0439 217.544C33.0289 220.66 33.5099 224.181 35.3059 227.081C36.1799 227.568 36.8559 228.316 37.3539 229.175C38.1459 230.535 39.4989 231.23 40.3269 232.602C42.8059 232.86 43.4519 234.821 46.1409 234.186C52.1409 232.771 52.4889 224.285 52.9139 219.087C53.1929 215.673 53.6099 209.431 51.6199 206.5C49.8899 208.472 50.9929 211.947 51.2549 214.229C51.6089 217.307 51.8099 220.807 51.2199 223.867C50.7169 226.477 49.3849 229.724 47.0629 231.239C44.4979 232.911 42.7359 230.568 40.3269 230.094C35.8199 225.152 33.7869 218.413 32.1509 212.076C31.7109 210.373 31.4239 204.37 29.7849 203.486C29.3709 203.593 28.9519 203.677 28.5289 203.738C28.3619 204.52 28.3689 205.3 28.5489 206.08C28.8789 207.75 29.5749 209.32 29.5329 211.03V211.018ZM37.3129 204.51C36.1669 205.264 34.5039 206.6 33.0459 205.765C32.5879 208.385 33.0839 212.767 34.5669 215.041C36.0069 217.252 35.7439 222.789 38.5689 224.087C40.5099 220.457 42.1339 216.633 42.1009 212.44C42.0929 211.462 42.0029 210.493 41.8309 209.53C40.9749 209.496 40.2449 209.137 39.7289 208.453C38.8129 207.233 38.6679 205.393 37.3129 204.513V204.51ZM23.0069 206.013C22.5699 211.728 24.0339 218.107 26.2709 223.332C27.7239 226.733 31.8379 231.912 36.0589 230.861C36.4219 228.598 33.7439 228.714 32.2939 228.35C28.8709 227.496 28.5909 225.108 26.5199 222.578C25.7459 219.937 25.3869 217.187 25.1029 214.458C24.9339 212.837 25.2519 206.011 23.7609 205.259C23.9329 205.939 23.2889 205.689 23.0069 206.009V206.013ZM16.4809 207.019C16.7769 207.068 17.0639 205.797 16.4809 206.768C16.4609 206.798 16.0989 206.948 16.4809 207.018V207.019ZM15.4779 207.769C15.4079 207.459 15.4919 207.208 15.7289 207.017C15.6999 207.245 15.7829 207.412 15.9779 207.518C15.9779 205.658 14.6079 207.618 15.4779 207.768V207.769ZM13.9699 208.018C14.4029 208.033 14.6139 207.824 14.7239 207.516C14.3299 207.536 13.8539 207.486 13.9699 208.016V208.018ZM43.5879 213.788C43.3509 216.222 42.8549 219.903 41.6439 222.032C41.0299 223.11 39.9959 224.024 39.6499 225.245C39.2459 226.671 40.0649 227.815 41.3449 226.549C43.1609 224.753 47.1349 208.956 44.3419 208.519C43.2439 210.029 43.7549 212.089 43.5879 213.799V213.788ZM43.3369 226.349C42.6019 227.686 41.2389 228.812 43.3869 229.563C45.5139 230.306 45.3109 229.883 46.8199 228.955C49.8199 227.109 48.7819 221.984 48.2909 218.96C48.1089 217.842 46.4439 209.356 46.3889 214.027C46.3389 218.307 44.9959 222.467 43.3369 226.357V226.349ZM29.2819 224.357C30.7189 225.047 30.8489 226.832 32.7949 226.616C32.7899 223.637 30.8769 220.904 30.2899 218.027C29.7459 215.36 28.7589 215.443 27.0229 213.566C26.9239 217.356 28.0299 220.816 29.2819 224.356" fill="#7E3F15"/>
</svg>
