<svg width="347" height="146" viewBox="0 0 347 146" fill="none" xmlns="http://www.w3.org/2000/svg">
<path d="M173.5 85.4829C170.23 84.0183 167.312 82.2391 164.279 79.0574C147.792 61.538 137.392 42.8304 148.442 21.5608C151.55 20.0708 154.663 18.4095 157.117 15.9434C159.072 14.0573 160.495 8.28756 160.521 4.8656H160.316C159.887 5.62155 159.59 6.46728 158.985 7.11173C155.518 10.8532 146.768 12.1165 148.482 21.4258C145.217 26.831 143.043 32.9484 142.549 39.2621C140.896 59.4486 155.203 71.0358 168.995 84.48C164.158 83.3343 159.124 83.4584 154.207 83.8969C153.872 83.9251 153.595 83.7035 153.318 83.5574C145.886 79.0109 138.601 75.8194 129.012 69.7951C135.312 74.2225 144.043 79.4676 153.302 83.9786C141.99 86.1153 130.833 91.955 118.784 94.1086C125.469 93.4437 131.996 91.6866 138.363 89.5929C123.814 99.4597 113.411 120.338 129.024 133.315C142.89 144.873 169.632 144.429 173.5 126.509C177.368 144.429 204.11 144.873 217.976 133.315C233.589 120.339 223.186 99.4597 208.637 89.5929C215.004 91.6866 221.531 93.4437 228.216 94.1086C216.167 91.955 205.01 86.1154 193.698 83.9786C202.957 79.4676 211.688 74.2224 217.988 69.7951C208.399 75.8194 201.114 79.0109 193.682 83.5574C193.405 83.7035 193.128 83.9252 192.793 83.8969C187.876 83.4584 182.843 83.3341 178.006 84.48C191.797 71.0358 206.104 59.4488 204.451 39.2621C203.957 32.9484 201.783 26.831 198.518 21.4258C200.232 12.1165 191.481 10.8532 188.015 7.11173C187.411 6.46728 187.113 5.62168 186.684 4.8656H186.479C186.505 8.28756 187.928 14.0573 189.883 15.9434C192.337 18.4095 195.45 20.0708 198.558 21.5608C209.608 42.8304 199.209 61.538 182.721 79.0574C179.688 82.2391 176.77 84.0183 173.5 85.4829ZM173.5 121.655C173.477 121.915 173.447 122.175 173.41 122.435C171.213 140.001 146.278 147.168 130.901 132.052C115.782 116.517 126.576 95.6039 144.991 88.675C142.437 92.6629 139.32 99.3191 138.706 104.052C138.039 108.809 141.606 118.138 144.445 122.287C144.55 122.645 144.958 122.392 144.91 122.117C144.827 120.91 144.506 119.719 144.605 118.501C145.316 109.684 156.85 99.8704 146.032 88.3229C154.725 85.3456 164.146 85.969 173.5 88.7666C182.854 85.969 192.275 85.3456 200.968 88.3229C190.15 99.8705 201.684 109.685 202.395 118.501C202.494 119.719 202.173 120.91 202.09 122.117C202.043 122.392 202.45 122.645 202.556 122.287C205.394 118.138 208.962 108.809 208.294 104.052C207.68 99.3191 204.563 92.6629 202.01 88.675C220.424 95.604 231.219 116.517 216.099 132.052C200.722 147.168 175.788 140.001 173.59 122.435C173.553 122.175 173.523 121.915 173.5 121.655Z" fill="#F2F2EC"/>
<path d="M145.513 24.3318C145.49 21.6812 144.801 16.3296 143.071 13.6423C141.254 10.7277 136.553 7.66411 134.253 7.12415C134.841 7.87698 135.571 8.53873 135.969 9.42518C138.495 14.9466 136.216 22.3809 145.513 24.3318Z" fill="#F2F2EC"/>
<path d="M201.487 24.3318C201.51 21.6812 202.199 16.3296 203.929 13.6423C205.746 10.7277 210.447 7.66411 212.747 7.12415C212.159 7.87698 211.429 8.53873 211.031 9.42518C208.505 14.9466 210.784 22.3809 201.487 24.3318Z" fill="#F2F2EC"/>
<path d="M147.865 25.8643C149.833 27.1351 154.484 27.9515 156.895 28.0632C160.696 28.1833 165.271 24.7293 168.18 22.3105C160.907 16.9944 157.038 23.0009 150.639 25.5075C149.758 25.8878 148.761 25.5483 147.865 25.8643Z" fill="#F2F2EC"/>
<path d="M199.136 25.8643C197.167 27.1351 192.516 27.9515 190.105 28.0632C186.304 28.1833 181.729 24.7293 178.82 22.3105C186.093 16.9944 189.962 23.0009 196.361 25.5075C197.242 25.8878 198.239 25.5483 199.136 25.8643Z" fill="#F2F2EC"/>
<path d="M97.0215 32.5977C97.2905 32.8617 97.5642 33.1227 97.8331 33.3883C97.5311 33.9573 97.7922 34.5341 98.1335 35.0103C98.0471 35.2225 97.9636 35.4378 97.8818 35.6516C98.0706 36.12 98.3002 36.6213 98.1099 37.129C97.8834 37.6776 98.3585 38.146 98.4749 38.6599C98.3663 38.9083 98.2059 39.1268 98.055 39.3483C98.2312 39.6878 98.4498 40.0117 98.5552 40.3842C98.5158 40.6624 98.4105 40.9249 98.3223 41.1889C98.5834 41.5268 98.8776 41.8396 99.134 42.1823C99.3228 42.4118 99.1622 42.734 99.2708 42.9902C99.6798 43.446 100.391 43.7399 100.303 44.4707C101.846 45.266 103.582 45.6354 105.048 46.5911C105.789 46.9809 106.483 47.6143 107.365 47.6189C110.026 46.7571 110.14 38.9497 107.995 36.4375C107.159 35.6909 106.129 35.2256 105.13 34.7463C105.042 34.4697 105.061 34.1254 104.856 33.91C104.411 33.7356 103.921 33.7136 103.479 33.5313C103.379 33.2813 103.394 32.945 103.148 32.78C102.73 32.7187 102.307 32.8271 101.888 32.8429C101.857 32.7092 101.791 32.4421 101.759 32.3085C101.199 32.3745 100.644 32.475 100.087 32.5584C99.922 32.2567 99.793 31.9297 99.5806 31.6578C99.1558 31.4724 98.6683 31.6091 98.2215 31.6059C98.264 31.2036 98.4544 30.7399 98.1995 30.3751C97.8912 29.9916 97.3486 30.0231 96.9144 29.9225C97.2353 30.7791 97.3785 31.7253 97.0215 32.5977ZM107.646 46.5848C106.407 43.1048 108.211 45.6446 99.9409 34.0658C102.621 37.0135 107.346 42.6159 107.646 46.5848Z" fill="#F2F2EC"/>
<path d="M249.979 32.5977C249.71 32.8617 249.436 33.1227 249.167 33.3883C249.469 33.9573 249.208 34.5341 248.867 35.0103C248.953 35.2225 249.037 35.4378 249.118 35.6516C248.929 36.12 248.7 36.6213 248.89 37.129C249.117 37.6776 248.642 38.146 248.525 38.6599C248.634 38.9083 248.794 39.1268 248.945 39.3483C248.769 39.6878 248.55 40.0117 248.445 40.3842C248.484 40.6624 248.59 40.9249 248.678 41.1889C248.417 41.5268 248.123 41.8396 247.866 42.1823C247.677 42.4118 247.838 42.734 247.729 42.9902C247.32 43.446 246.609 43.7399 246.698 44.4707C245.155 45.266 243.418 45.6354 241.952 46.5911C241.211 46.9809 240.517 47.6143 239.635 47.6189C236.974 46.7571 236.86 38.9497 239.006 36.4375C239.841 35.6909 240.871 35.2256 241.87 34.7463C241.958 34.4697 241.939 34.1254 242.144 33.91C242.589 33.7356 243.08 33.7136 243.522 33.5313C243.621 33.2813 243.607 32.945 243.852 32.78C244.27 32.7187 244.694 32.8271 245.112 32.8429C245.143 32.7092 245.21 32.4421 245.241 32.3085C245.801 32.3745 246.356 32.475 246.913 32.5584C247.078 32.2567 247.207 31.9297 247.42 31.6578C247.844 31.4724 248.332 31.6091 248.779 31.6059C248.736 31.2036 248.546 30.7399 248.801 30.3751C249.109 29.9916 249.652 30.0231 250.086 29.9225C249.765 30.7791 249.621 31.7253 249.979 32.5977ZM239.354 46.5848C240.593 43.1048 238.788 45.6446 247.059 34.0658C244.379 37.0135 239.654 42.6159 239.354 46.5848Z" fill="#F2F2EC"/>
<path d="M122.783 46.7074C123.511 45.6276 123.84 44.3544 124.228 43.1285C124.515 43.0515 124.804 42.976 125.09 42.8959C125.127 42.33 125.147 41.7626 125.219 41.2C125.482 41.0664 125.745 40.9281 126.004 40.7804C125.852 40.2727 125.746 39.7494 125.783 39.218C125.968 39.0828 126.154 38.9445 126.338 38.8046C126.099 38.2576 125.883 37.7013 125.734 37.1228C126.022 36.8226 126.388 36.6135 126.673 36.3118C126.652 35.8121 126.525 35.3248 126.479 34.828C126.899 34.7809 127.376 34.9223 127.761 34.7086C128.155 34.2701 128.052 33.6162 128.125 33.074C127.186 33.5644 126.13 33.6869 125.089 33.7184C124.895 34.017 124.733 34.3424 124.479 34.5939C124.241 34.6332 124 34.6317 123.766 34.6663C123.395 34.8219 123.11 35.13 122.74 35.2839C122.42 35.3594 122.089 35.2729 121.77 35.2509C121.285 35.4693 120.793 35.7318 120.244 35.6894C119.552 35.6108 119.077 36.208 118.49 36.4626C118.187 36.3778 117.888 36.1687 117.565 36.2284C117.246 36.3934 116.985 36.6496 116.667 36.8131C115.597 36.8654 116.021 36.2386 114.565 37.9998C114.233 38.0721 113.851 38.0673 113.582 38.3015C113.4 38.6048 113.329 38.9632 113.126 39.2556C112.919 39.427 112.629 39.4395 112.384 39.526C111.81 41.302 111.657 43.1945 110.938 44.9281C110.575 45.8838 110.134 46.8441 110.052 47.8752C111.233 51.1017 120.593 49.3428 122.783 46.7074ZM123.497 37.7892C120.209 41.8883 115.973 46.707 111.212 48.2367C113.752 46.7698 113.398 48.0418 123.497 37.7892Z" fill="#F2F2EC"/>
<path d="M224.217 46.7074C223.489 45.6276 223.16 44.3544 222.772 43.1285C222.485 43.0515 222.196 42.976 221.91 42.8959C221.874 42.33 221.853 41.7626 221.781 41.2C221.518 41.0664 221.255 40.9281 220.996 40.7804C221.148 40.2727 221.254 39.7494 221.218 39.218C221.032 39.0828 220.846 38.9445 220.662 38.8046C220.901 38.2576 221.117 37.7013 221.266 37.1228C220.978 36.8226 220.612 36.6135 220.327 36.3118C220.348 35.8121 220.475 35.3248 220.521 34.828C220.101 34.7809 219.624 34.9223 219.239 34.7086C218.846 34.2701 218.948 33.6162 218.875 33.074C219.814 33.5644 220.87 33.6869 221.911 33.7184C222.105 34.017 222.267 34.3424 222.522 34.5939C222.759 34.6332 223 34.6317 223.234 34.6663C223.605 34.8219 223.89 35.13 224.26 35.2839C224.581 35.3594 224.911 35.2729 225.23 35.2509C225.715 35.4693 226.207 35.7318 226.756 35.6894C227.448 35.6108 227.923 36.208 228.51 36.4626C228.813 36.3778 229.112 36.1687 229.435 36.2284C229.754 36.3934 230.015 36.6496 230.333 36.8131C231.403 36.8654 230.979 36.2386 232.435 37.9998C232.767 38.0721 233.149 38.0673 233.418 38.3015C233.6 38.6048 233.671 38.9632 233.874 39.2556C234.081 39.427 234.371 39.4395 234.616 39.526C235.19 41.302 235.343 43.1945 236.062 44.9281C236.425 45.8838 236.866 46.8441 236.948 47.8752C235.767 51.1017 226.408 49.3428 224.217 46.7074ZM223.503 37.7892C226.791 41.8883 231.027 46.707 235.789 48.2367C233.249 46.7698 233.602 48.0418 223.503 37.7892Z" fill="#F2F2EC"/>
<path d="M84.5003 55.1541C84.7252 54.8633 84.9423 54.5647 85.1578 54.2661C85.6785 54.5443 86.0151 55.0457 86.4775 55.3994C86.7968 55.3003 87.1539 54.9986 87.4984 55.1778C87.9468 55.5345 87.9908 56.2214 88.4642 56.5499C88.6671 56.5342 88.8684 56.4933 89.0699 56.4572C89.4505 56.839 89.8233 57.2304 90.2166 57.5998C90.4698 57.4992 90.7199 57.3876 90.9842 57.3185C91.5065 57.4726 91.8793 57.9048 92.2946 58.2349C92.5981 58.0762 92.8955 57.9017 93.1897 57.7241C94.8728 58.3166 96.6959 59.3729 98.4986 58.5854C101.547 57.0505 106.849 53.2169 105.901 49.9705C105.267 49.1045 104.146 48.8656 103.163 48.6188C101.255 48.1237 99.6076 46.9905 97.8002 46.2423C97.5643 46.4294 97.3488 46.6604 97.0624 46.7657C96.6425 46.7799 96.2681 46.5158 95.8496 46.5018C95.5539 46.6165 95.3226 46.8428 95.0725 47.0283C94.599 47.0094 94.116 46.9324 93.6521 47.0472C93.3328 47.2814 93.1817 47.6821 92.8577 47.9116C92.5085 48.0673 92.1106 48.0814 91.7755 48.2684C91.6433 48.523 91.5867 48.8059 91.5049 49.0794C90.9717 49.2051 90.4384 49.3638 89.9885 49.6861C89.6775 50.8798 89.128 49.7738 88.145 51.5707C87.7077 51.6964 87.2704 51.8191 86.8346 51.9432C86.6899 52.1523 86.5451 52.3628 86.3989 52.5719C86.0041 52.5137 85.6077 52.4729 85.2113 52.454C84.6923 53.3688 83.8051 53.9456 82.8833 54.3936C83.2986 54.8649 83.8663 55.1478 84.5003 55.1541ZM104.864 51.0518C99.8476 54.3634 87.6421 53.845 87.4842 53.8354C102.857 52.9166 103.271 51.7099 104.864 51.0518Z" fill="#F2F2EC"/>
<path d="M262.5 55.1541C262.275 54.8633 262.058 54.5647 261.842 54.2661C261.322 54.5443 260.985 55.0457 260.523 55.3994C260.203 55.3003 259.846 54.9986 259.502 55.1778C259.053 55.5345 259.009 56.2214 258.536 56.5499C258.333 56.5342 258.132 56.4933 257.93 56.4572C257.55 56.839 257.177 57.2304 256.784 57.5998C256.53 57.4992 256.28 57.3876 256.016 57.3185C255.494 57.4726 255.121 57.9048 254.706 58.2349C254.402 58.0762 254.105 57.9017 253.811 57.7241C252.127 58.3166 250.304 59.3729 248.502 58.5854C245.453 57.0505 240.151 53.2169 241.099 49.9705C241.733 49.1045 242.854 48.8656 243.837 48.6188C245.746 48.1237 247.393 46.9905 249.2 46.2423C249.436 46.4294 249.651 46.6604 249.938 46.7657C250.358 46.7799 250.732 46.5158 251.151 46.5018C251.446 46.6165 251.678 46.8428 251.928 47.0283C252.401 47.0094 252.884 46.9324 253.348 47.0472C253.667 47.2814 253.818 47.6821 254.142 47.9116C254.492 48.0673 254.89 48.0814 255.225 48.2684C255.357 48.523 255.413 48.8059 255.495 49.0794C256.028 49.2051 256.562 49.3638 257.012 49.6861C257.323 50.8798 257.872 49.7738 258.855 51.5707C259.292 51.6964 259.73 51.8191 260.166 51.9432C260.31 52.1523 260.455 52.3628 260.601 52.5719C260.996 52.5137 261.393 52.4729 261.789 52.454C262.308 53.3688 263.195 53.9456 264.117 54.3936C263.702 54.8649 263.134 55.1478 262.5 55.1541ZM242.136 51.0518C247.153 54.3634 259.358 53.845 259.516 53.8354C244.143 52.9166 243.73 51.7099 242.136 51.0518Z" fill="#F2F2EC"/>
<path d="M119.179 62.5209C114.977 58.5066 111.819 53.5838 107.94 49.2866C113.328 57.5216 116.477 60.2874 119.179 62.5209Z" fill="#F2F2EC"/>
<path d="M227.821 62.5209C232.023 58.5066 235.181 53.5838 239.06 49.2866C233.672 57.5216 230.523 60.2874 227.821 62.5209Z" fill="#F2F2EC"/>
<path d="M97.0686 93.9418C97.085 93.9262 97.102 93.9113 97.1186 93.8958C95.1249 93.9921 92.9719 93.6684 88.9858 93.8883C91.3787 93.8737 94.0239 93.9038 97.0686 93.9418Z" fill="#F2F2EC"/>
<path d="M249.931 93.9418C249.915 93.9262 249.898 93.9113 249.881 93.8958C251.875 93.9921 254.028 93.6684 258.014 93.8883C255.621 93.8737 252.976 93.9038 249.931 93.9418Z" fill="#F2F2EC"/>
<path d="M61.5437 99.1428C64.3169 98.4983 67.0808 97.8099 69.8476 97.131C67.9631 100.447 66.6418 104.078 65.8286 107.8C64.9003 111.259 68.7697 121.025 70.7191 122.194C70.6562 120.97 70.1953 119.747 70.4879 118.521C71.9087 111.432 78.2969 104.366 71.1328 96.837C79.7181 94.8022 85.1853 94.098 88.9859 93.8883C78.9541 93.9495 73.3729 94.7968 61.5437 99.1428Z" fill="#F2F2EC"/>
<path d="M285.456 99.1428C282.683 98.4983 279.919 97.8099 277.152 97.131C279.037 100.447 280.358 104.078 281.172 107.8C282.1 111.259 278.231 121.025 276.281 122.194C276.344 120.97 276.805 119.747 276.512 118.521C275.091 111.432 268.703 104.366 275.867 96.837C267.282 94.8022 261.815 94.098 258.014 93.8883C268.046 93.9495 273.627 94.7968 285.456 99.1428Z" fill="#F2F2EC"/>
<path d="M97.0151 94.1572C99.1513 93.9057 101.291 94.283 103.427 94.3521C95.5606 92.6255 86.7765 88.5137 81.6814 82.2338C84.3914 80.4031 83.7088 74.7417 83.0184 71.5286C81.2303 62.5141 77.6417 64.3883 75.103 62.689C75.0447 62.3054 74.9819 61.922 74.8843 61.5448C74.0569 61.4709 73.2295 61.4065 72.4084 61.2855C72.2967 60.946 72.2007 60.6017 72.0985 60.2607C71.3371 60.2465 70.579 60.3331 69.8349 60.4839C69.6887 60.2277 69.5612 59.9637 69.4385 59.698C68.6001 59.7231 67.8593 60.124 67.0728 60.3534C66.4593 60.3267 66.3649 59.5392 66.0708 59.1226C65.2905 59.1745 64.5135 59.2656 63.7332 59.2892C63.631 58.7673 63.9157 58.2549 63.837 57.7505C63.2958 56.9881 62.2373 56.9835 61.3942 57.0101C62.0469 58.2769 62.5157 59.7261 62.1524 61.1549C62.5819 61.5163 63.06 61.8102 63.5272 62.1199C63.2797 63.6923 63.524 63.0778 64.4286 64.8689C64.3326 65.0889 64.2367 65.3105 64.1423 65.5322C64.3436 66.1327 64.5859 66.7205 64.7808 67.324C64.9523 67.7673 64.6409 68.2278 64.7604 68.6773C64.9664 69.2321 65.4525 69.6565 65.558 70.2537C65.5658 70.6718 65.2938 71.0286 65.116 71.3901C65.4039 71.956 65.7861 72.4637 66.1794 72.9603C66.085 73.4052 65.8112 73.8908 66.0221 74.3403C66.4106 74.936 67.1861 75.1466 67.5495 75.7644C67.7383 76.0756 67.6564 76.4512 67.6439 76.7954C68.2951 77.2134 69.0092 77.5498 69.5598 78.1078C69.5598 78.3578 69.5629 78.6076 69.5676 78.8591C71.1217 79.5569 72.8395 79.7 74.4644 80.1684C77.2543 80.9121 79.9328 82.7877 81.5382 82.3422C87.4412 89.6468 95.9778 93.2971 97.3612 93.673C97.2791 93.746 97.1987 93.8207 97.1186 93.8959C97.4103 93.8819 97.6987 93.8591 97.9889 93.824C97.745 93.9074 97.259 94.0739 97.0151 94.1572ZM79.0372 76.0742C74.7354 70.274 68.6039 64.6657 67.1578 62.9658C71.8909 66.9998 80.4935 74.7863 81.5304 80.8209C80.9139 79.5854 81.0765 78.8202 79.0372 76.0742Z" fill="#F2F2EC"/>
<path d="M249.985 94.1572C247.849 93.9057 245.71 94.283 243.573 94.3521C251.439 92.6255 260.224 88.5137 265.319 82.2338C262.609 80.4031 263.291 74.7417 263.982 71.5286C265.77 62.5141 269.358 64.3883 271.897 62.689C271.955 62.3054 272.018 61.922 272.116 61.5448C272.943 61.4709 273.77 61.4065 274.592 61.2855C274.703 60.946 274.799 60.6017 274.901 60.2607C275.663 60.2465 276.421 60.3331 277.165 60.4839C277.311 60.2277 277.439 59.9637 277.561 59.698C278.4 59.7231 279.141 60.124 279.927 60.3534C280.541 60.3267 280.635 59.5392 280.929 59.1226C281.709 59.1745 282.486 59.2656 283.267 59.2892C283.369 58.7673 283.084 58.2549 283.163 57.7505C283.704 56.9881 284.763 56.9835 285.606 57.0101C284.953 58.2769 284.484 59.7261 284.848 61.1549C284.418 61.5163 283.94 61.8102 283.473 62.1199C283.72 63.6923 283.476 63.0778 282.571 64.8689C282.667 65.0889 282.763 65.3105 282.858 65.5322C282.656 66.1327 282.414 66.7205 282.219 67.324C282.047 67.7673 282.359 68.2278 282.239 68.6773C282.033 69.2321 281.547 69.6565 281.442 70.2537C281.434 70.6718 281.706 71.0286 281.884 71.3901C281.596 71.956 281.214 72.4637 280.82 72.9603C280.915 73.4052 281.189 73.8908 280.978 74.3403C280.589 74.936 279.814 75.1466 279.45 75.7644C279.262 76.0756 279.343 76.4512 279.356 76.7954C278.705 77.2134 277.991 77.5498 277.44 78.1078C277.44 78.3578 277.437 78.6076 277.432 78.8591C275.878 79.5569 274.16 79.7 272.535 80.1684C269.746 80.9121 267.067 82.7877 265.462 82.3422C259.559 89.6468 251.022 93.2971 249.639 93.673C249.721 93.746 249.801 93.8207 249.881 93.8959C249.589 93.8819 249.301 93.8591 249.011 93.824C249.255 93.9074 249.741 94.0739 249.985 94.1572ZM267.963 76.0742C272.265 70.274 278.396 64.6657 279.842 62.9658C275.109 66.9998 266.507 74.7863 265.47 80.8209C266.086 79.5854 265.924 78.8202 267.963 76.0742Z" fill="#F2F2EC"/>
<path d="M21.3641 80.8633C20.4454 79.6327 17.9274 79.2023 17.3529 78.908C17.0053 78.7398 17.0683 78.2746 16.9486 77.9634C16.3902 77.877 15.8208 77.9146 15.2623 77.8329C15.0264 77.6522 14.9713 77.3236 14.8344 77.0737C14.2745 77.0375 13.7176 77.1019 13.1701 77.2042C13.0301 77.0439 12.9011 76.8756 12.7422 76.7358C12.1052 76.8395 11.509 77.1083 10.8846 77.2701C10.6564 76.9669 10.4409 76.6541 10.2334 76.3365C9.73944 76.3726 9.2329 76.4732 8.74368 76.3427C8.65084 75.9906 8.64927 75.6212 8.54237 75.274C8.09559 74.8275 7.40662 74.8495 6.82312 74.7758V74.9016C7.78776 77.3599 7.3337 77.0833 7.57186 77.9776C7.81563 78.218 8.11929 78.3909 8.35993 78.6393C8.3977 78.8861 8.38663 79.1375 8.38988 79.3875C8.64628 79.7553 8.94825 80.0963 9.14488 80.5019C9.17483 80.7989 9.07091 81.0913 9.01909 81.3821C9.32432 82.0359 9.73476 82.7212 9.47992 83.4678C9.76145 83.8907 10.0336 84.3196 10.2711 84.7707C10.161 85.0898 9.78346 85.4325 10.021 85.7766C10.5822 86.8671 10.64 86.243 10.5322 87.7147C10.9301 88.0667 11.388 88.3465 11.7639 88.7221C11.8253 88.9689 11.8268 89.225 11.8504 89.4798C12.305 89.8192 12.7816 90.1289 13.263 90.4275C13.3338 90.6633 13.403 90.899 13.4754 91.1348C15.0279 91.4947 16.6309 91.688 18.1173 92.2916C19.3159 92.727 20.4895 93.2881 21.7572 93.4862C24.3179 94.0714 24.666 84.8449 21.3641 80.8633ZM10.1659 78.2715C13.829 81.4082 20.7106 86.7453 22.2623 91.9913C19.486 86.1879 11.3537 79.6443 10.1659 78.2715Z" fill="#F2F2EC"/>
<path d="M325.636 80.8633C326.555 79.6327 329.073 79.2023 329.647 78.908C329.995 78.7398 329.932 78.2746 330.051 77.9634C330.61 77.877 331.179 77.9146 331.738 77.8329C331.974 77.6522 332.029 77.3236 332.166 77.0737C332.726 77.0375 333.282 77.1019 333.83 77.2042C333.97 77.0439 334.099 76.8756 334.258 76.7358C334.895 76.8395 335.491 77.1083 336.116 77.2701C336.344 76.9669 336.559 76.6541 336.767 76.3365C337.261 76.3726 337.767 76.4732 338.256 76.3427C338.349 75.9906 338.351 75.6212 338.458 75.274C338.905 74.8275 339.594 74.8495 340.177 74.7758V74.9016C339.212 77.3599 339.666 77.0833 339.428 77.9776C339.184 78.218 338.881 78.3909 338.64 78.6393C338.602 78.8861 338.613 79.1375 338.61 79.3875C338.354 79.7553 338.052 80.0963 337.855 80.5019C337.825 80.7989 337.929 81.0913 337.981 81.3821C337.676 82.0359 337.265 82.7212 337.52 83.4678C337.239 83.8907 336.967 84.3196 336.729 84.7707C336.839 85.0898 337.217 85.4325 336.979 85.7766C336.418 86.8671 336.36 86.243 336.468 87.7147C336.07 88.0667 335.612 88.3465 335.236 88.7221C335.175 88.9689 335.173 89.225 335.15 89.4798C334.695 89.8192 334.219 90.1289 333.737 90.4275C333.666 90.6633 333.597 90.899 333.525 91.1348C331.972 91.4947 330.369 91.688 328.883 92.2916C327.684 92.727 326.511 93.2881 325.243 93.4862C322.682 94.0714 322.334 84.8449 325.636 80.8633ZM336.834 78.2715C333.171 81.4082 326.29 86.7453 324.738 91.9913C327.514 86.1879 335.646 79.6443 336.834 78.2715Z" fill="#F2F2EC"/>
<path d="M103.527 94.36C108.446 95.3078 113.543 95.1239 118.447 94.1855C116.13 94.3094 112.86 94.8918 103.527 94.36Z" fill="#F2F2EC"/>
<path d="M243.473 94.36C238.554 95.3078 233.457 95.1239 228.553 94.1855C230.871 94.3094 234.14 94.8918 243.473 94.36Z" fill="#F2F2EC"/>
<path d="M23.5538 94.6743C27.9968 99.4152 34.7214 103.546 41.2566 103.86C38.9079 105.662 40.2598 104.952 35.9052 107.343C36.1129 108.099 35.4034 108.565 34.9661 109.054C35.0086 109.334 35.2383 109.651 35.0275 109.916C34.2783 111.217 34.1861 110.592 34.6782 111.678C34.6138 112.133 34.4643 112.57 34.3038 113.001C34.4847 113.163 34.6688 113.325 34.8513 113.488C34.7664 113.908 34.6231 114.316 34.5493 114.739C34.6075 114.966 34.7177 115.173 34.8152 115.387C34.7019 116.027 34.5477 116.737 34.9961 117.293C34.9001 117.707 34.7743 118.112 34.6532 118.521C34.8069 119.414 34.9212 119.087 34.2553 119.97C34.5416 120.874 34.6816 121.83 34.4723 122.768C35.0198 122.633 35.531 122.377 35.8425 121.889C35.8298 121.578 35.5876 121.188 35.8283 120.921C36.1727 120.754 36.5708 120.75 36.9183 120.596C37.1276 120.308 37.2078 119.953 37.3431 119.631C37.9252 119.642 38.5071 119.65 39.0892 119.635C39.097 119.511 39.1112 119.26 39.1191 119.136C39.6272 119.021 40.14 118.928 40.6497 118.824C40.6812 118.59 40.6764 118.351 40.733 118.125C41.1405 117.777 41.6879 117.696 42.1787 117.529C42.2431 117.121 42.1614 116.591 42.5955 116.363C43.4229 115.796 44.2754 115.228 44.9251 114.452C46.5886 111.787 45.6644 106.57 43.8586 103.857C49.9258 103.528 55.6515 101.287 61.2986 99.2262C45.1518 102.98 34.8795 104.045 23.5538 94.6743ZM37.2531 117.661C39.337 113.657 42.6119 108.71 43.0622 104.1C43.56 106.05 41.2359 111.986 37.2531 117.661Z" fill="#F2F2EC"/>
<path d="M323.446 94.6743C319.003 99.4152 312.279 103.546 305.744 103.86C308.092 105.662 306.741 104.952 311.095 107.343C310.888 108.099 311.597 108.565 312.034 109.054C311.992 109.334 311.762 109.651 311.973 109.916C312.722 111.217 312.814 110.592 312.322 111.678C312.387 112.133 312.536 112.57 312.697 113.001C312.516 113.163 312.332 113.325 312.149 113.488C312.234 113.908 312.377 114.316 312.451 114.739C312.393 114.966 312.283 115.173 312.185 115.387C312.299 116.027 312.453 116.737 312.004 117.293C312.1 117.707 312.226 118.112 312.347 118.521C312.194 119.414 312.079 119.087 312.745 119.97C312.459 120.874 312.319 121.83 312.528 122.768C311.981 122.633 311.47 122.377 311.158 121.889C311.171 121.578 311.413 121.188 311.172 120.921C310.828 120.754 310.43 120.75 310.082 120.596C309.873 120.308 309.793 119.953 309.658 119.631C309.076 119.642 308.494 119.65 307.911 119.635C307.903 119.511 307.889 119.26 307.882 119.136C307.374 119.021 306.861 118.928 306.351 118.824C306.32 118.59 306.324 118.351 306.268 118.125C305.86 117.777 305.313 117.696 304.822 117.529C304.758 117.121 304.84 116.591 304.405 116.363C303.578 115.796 302.725 115.228 302.076 114.452C300.412 111.787 301.336 106.57 303.142 103.857C297.075 103.528 291.349 101.287 285.702 99.2262C301.848 102.98 312.121 104.045 323.446 94.6743ZM309.747 117.661C307.663 113.657 304.388 108.71 303.938 104.1C303.44 106.05 305.764 111.986 309.747 117.661Z" fill="#F2F2EC"/>
<path d="M106.696 96.6407C105.904 97.2647 105.192 97.9893 104.333 98.5221C99.5163 101.744 98.9111 100.505 99.0224 102.341C98.5945 102.805 98.1619 103.264 97.7451 103.739C97.8049 104.047 97.948 104.358 97.8835 104.677C97.5941 105.21 97.0294 105.604 96.9271 106.23C96.9775 106.651 97.1426 107.046 97.2716 107.446C97.1081 107.868 96.8564 108.289 96.8768 108.754C96.9837 109.061 97.2088 109.306 97.3943 109.568C97.2512 110.087 97.0089 110.576 96.9177 111.109C96.8626 111.623 97.3581 112.033 97.2072 112.551C97.0248 113.344 97.2434 114.131 97.492 114.881C96.7191 116.669 97.0046 116.309 97.2969 117.169C96.9178 117.488 96.5624 117.839 96.3011 118.263C97.1834 120.107 96.627 120.034 96.7117 121.735C97.2858 121.756 97.9466 121.544 98.2328 121.011C98.3507 120.508 98.1668 119.997 98.1022 119.5C98.6794 119.375 99.2882 119.386 99.8434 119.17C100.377 119.015 100.186 118.359 100.309 117.949C101.14 117.861 101.975 117.908 102.805 117.957C102.865 117.726 102.916 117.493 102.993 117.27C103.639 117.04 104.339 117.03 105.006 116.879C105.019 116.589 105.027 116.303 105.031 116.017C105.634 115.594 106.373 115.495 107.032 115.201C107.059 114.889 107.024 114.576 107.051 114.266C107.312 113.798 107.847 113.606 108.276 113.329C109.164 112.771 110.024 112.144 110.724 111.358C113.546 107.931 111.487 92.8678 106.696 96.6407ZM99.757 116.321C101.373 113.404 100.744 115.118 106.318 104.576C108.909 99.7446 108.438 98.6597 108.696 97.3668C109.461 102.301 102.584 112.241 99.757 116.321Z" fill="#F2F2EC"/>
<path d="M240.305 96.6407C241.096 97.2647 241.808 97.9893 242.667 98.5221C247.484 101.744 248.089 100.505 247.978 102.341C248.406 102.805 248.838 103.264 249.255 103.739C249.195 104.047 249.052 104.358 249.117 104.677C249.406 105.21 249.971 105.604 250.073 106.23C250.023 106.651 249.857 107.046 249.728 107.446C249.892 107.868 250.144 108.289 250.123 108.754C250.016 109.061 249.791 109.306 249.606 109.568C249.749 110.087 249.991 110.576 250.082 111.109C250.137 111.623 249.642 112.033 249.793 112.551C249.975 113.344 249.757 114.131 249.508 114.881C250.281 116.669 249.996 116.309 249.703 117.169C250.082 117.488 250.438 117.839 250.699 118.263C249.817 120.107 250.373 120.034 250.288 121.735C249.714 121.756 249.054 121.544 248.767 121.011C248.649 120.508 248.833 119.997 248.898 119.5C248.321 119.375 247.712 119.386 247.157 119.17C246.623 119.015 246.814 118.359 246.691 117.949C245.861 117.861 245.025 117.908 244.195 117.957C244.135 117.726 244.085 117.493 244.007 117.27C243.361 117.04 242.661 117.03 241.994 116.879C241.981 116.589 241.974 116.303 241.969 116.017C241.366 115.594 240.627 115.495 239.968 115.201C239.941 114.889 239.976 114.576 239.949 114.266C239.688 113.798 239.153 113.606 238.724 113.329C237.837 112.771 236.976 112.144 236.276 111.358C233.454 107.931 235.513 92.8678 240.305 96.6407ZM247.243 116.321C245.627 113.404 246.256 115.118 240.682 104.576C238.091 99.7446 238.562 98.6597 238.304 97.3668C237.539 102.301 244.416 112.241 247.243 116.321Z" fill="#F2F2EC"/>
<path d="M157.818 122.103C158.963 125.746 163.466 126.201 167.258 125.866C168.773 125.74 170.236 125.31 171.711 124.967C172.041 122.447 172.952 121.155 171.779 116.94C170.845 113.818 169.606 112.638 168.38 112.052C167.661 111.959 166.925 111.938 166.243 111.667C165.979 112.177 165.69 112.683 165.263 113.08C163.877 111.92 164.496 112.68 159.714 112.804C159.363 112.498 159.067 112.129 158.669 111.877C158.202 112.096 157.779 112.388 157.329 112.633C156.585 112.792 155.816 112.74 155.063 112.784C155.24 113.417 155.56 113.996 155.936 114.533C154.651 115.141 154.842 115.031 154.823 116.088C155.309 116.217 155.83 116.32 156.239 116.636C156.7 117.102 156.495 117.944 157.066 118.337C157.479 118.686 158.04 118.535 158.531 118.534C157.234 119.347 156.946 119.254 157.818 122.103Z" fill="#F2F2EC"/>
<path d="M189.182 122.103C188.037 125.746 183.534 126.201 179.742 125.866C178.227 125.74 176.764 125.31 175.289 124.967C174.959 122.447 174.048 121.155 175.221 116.94C176.155 113.818 177.394 112.638 178.62 112.052C179.339 111.959 180.075 111.938 180.757 111.667C181.021 112.177 181.31 112.683 181.737 113.08C183.123 111.92 182.504 112.68 187.286 112.804C187.637 112.498 187.933 112.129 188.331 111.877C188.798 112.096 189.221 112.388 189.671 112.633C190.415 112.792 191.184 112.74 191.937 112.784C191.76 113.417 191.44 113.996 191.065 114.533C192.349 115.141 192.158 115.031 192.177 116.088C191.691 116.217 191.17 116.32 190.761 116.636C190.3 117.102 190.505 117.944 189.934 118.337C189.521 118.686 188.96 118.535 188.469 118.534C189.767 119.347 190.054 119.254 189.182 122.103Z" fill="#F2F2EC"/>
</svg>
