<svg width="36" height="47" viewBox="0 0 36 47" fill="none" xmlns="http://www.w3.org/2000/svg">
<path d="M2.49023 35.8164C2.49023 37.3984 2.80273 38.9219 3.42773 40.3867C4.48242 42.8477 6.04492 44.0781 8.11523 44.0781C9.73633 44.0781 11.0938 43.6582 12.1875 42.8184C13.3008 41.998 14.6094 40.6406 16.1133 38.7461C16.582 38.1406 17.0703 37.9355 17.5781 38.1309C18.0859 38.3066 18.3398 38.707 18.3398 39.332C18.3398 41.168 17.2461 42.7402 15.0586 44.0488C12.8906 45.3574 10.8203 46.0117 8.84766 46.0117C3.00781 46.0117 0.0878906 42.5547 0.0878906 35.6406C0.0878906 32.6133 0.654297 29.459 1.78711 26.1777L2.08008 25.3281C5.73242 14.8594 8.56445 7.83789 10.5762 4.26367C11.9824 1.68555 13.5059 0.396484 15.1465 0.396484C17.4707 0.416016 18.6523 1.25586 18.6914 2.91602C18.6914 3.95117 17.998 5.5918 16.6113 7.83789C15.2246 10.0645 12.4414 13.9609 8.26172 19.5273C7.20703 20.7188 6.26953 22.0664 5.44922 23.5703C3.47656 27.2812 2.49023 31.3633 2.49023 35.8164ZM7.88086 16.2461C8.17383 16.2266 9.52148 14.1172 11.9238 9.91797C14.3457 5.69922 15.5469 3.52148 15.5273 3.38477C15.5078 3.22852 15.4297 3.15039 15.293 3.15039C15.1563 3.13086 15.0684 3.14063 15.0293 3.17969C14.3848 3.57031 13.0176 5.65039 10.9277 9.41992C8.85742 13.1699 7.82227 15.3965 7.82227 16.0996C7.82227 16.1582 7.8418 16.207 7.88086 16.2461ZM35.8594 23.043C35.8594 24.0195 34.7461 25.8164 32.5195 28.4336C30.293 31.0508 28.623 32.7793 27.5098 33.6191C26.416 34.4395 25.3125 34.8496 24.1992 34.8496C22.1289 34.8301 21.0938 33.1895 21.0938 29.9277C21.0938 28.3848 21.4062 25.9727 22.0312 22.6914C22.6562 19.3906 22.9883 17.5938 23.0273 17.3008C20.957 17.9844 18.9746 20.582 17.0801 25.0938C16.6895 26.0508 16.0645 27.6816 15.2051 29.9863C14.3652 32.2715 13.7695 33.6289 13.418 34.0586C12.9883 34.5664 12.4219 34.8203 11.7188 34.8203C11.0156 34.8203 10.6543 34.5664 10.6348 34.0586C10.6348 33.1211 13.7695 25.3477 20.0391 10.7383C21.0156 8.43359 21.582 7.14453 21.7383 6.87109C22.0703 6.22656 22.7637 6.25586 23.8184 6.95898C24.1309 7.17383 24.2871 7.38867 24.2871 7.60352C24.3066 7.81836 24.1602 8.16016 23.8477 8.62891C23.125 9.76172 22.4805 11.0801 21.9141 12.584L20.8008 15.4844L21.7383 14.3418C22.5781 13.3066 23.252 12.5254 23.7598 11.998C24.2676 11.4512 24.6875 11.1484 25.0195 11.0898C25.3711 11.0117 25.7324 10.9727 26.1035 10.9727C26.9043 11.0312 27.3242 11.4609 27.3633 12.2617C27.3633 12.6523 27.2266 13.1797 26.9531 13.8438C25.7227 16.6758 24.7754 20.9629 24.1113 26.7051C23.9355 28.3457 23.8477 29.791 23.8477 31.041C23.8672 32.2715 24.1699 32.8965 24.7559 32.916C25.5762 32.916 27.0703 31.6465 29.2383 29.1074C31.4062 26.5488 32.9688 24.4297 33.9258 22.75C34.1797 22.3398 34.541 22.125 35.0098 22.1055C35.498 22.2227 35.7812 22.5352 35.8594 23.043Z" fill="#633A1C"/>
</svg>
