<svg width="548" height="569" viewBox="0 0 548 569" fill="none" xmlns="http://www.w3.org/2000/svg">
<path d="M277.765 566.797C276.613 564.322 275.661 561.541 275.648 560.617C275.61 557.653 268.708 531.074 262.711 510.797C262.016 508.444 254.563 507.533 251.441 509.42C250.282 510.121 251.869 517.232 253.444 518.396C254.262 519 254.611 520.012 254.219 520.646C253.828 521.279 253.984 521.798 254.567 521.798C255.149 521.798 255.626 521.321 255.626 520.739C255.626 520.156 256.076 519.958 256.626 520.298C257.176 520.637 257.626 521.987 257.626 523.298C257.626 524.608 258.076 525.958 258.626 526.298C259.176 526.637 259.626 528.14 259.626 529.637C259.626 531.761 260.305 532.615 262.717 533.526C265.808 534.693 265.808 534.694 265.296 540.995C264.636 549.065 263.406 559.795 263.136 559.795C263.021 559.795 260.09 557.095 256.622 553.795C253.154 550.495 249.926 547.795 249.449 547.795C248.972 547.795 245.156 544.425 240.97 540.305C232.952 532.417 226.313 528.543 218.641 527.279C212.76 526.31 210.325 523.491 205.774 512.387L202.124 503.477L196.624 501.697C193.599 500.716 189.013 499.931 186.433 499.951C183.853 499.971 181.291 499.708 180.741 499.368C179.722 498.739 155.23 495.111 146.124 494.24C143.374 493.977 139.738 493.539 138.044 493.266C130.763 492.091 105.582 489.834 99.5642 489.815C93.5386 489.797 88.1512 487.935 89.6852 486.4C92.1592 483.926 122.396 483.052 141.377 484.905C153.896 486.127 154.585 485.962 152.576 482.208C149.209 475.916 147.714 475.169 137.101 474.472C127.788 473.86 115.641 471.665 111.123 469.777C110.023 469.317 104.623 467.496 99.1232 465.729C90.4308 462.937 76.2192 456.781 74.6512 455.129C73.3328 453.74 110.827 457.058 128.983 459.937C142.541 462.087 146.651 461.544 140.988 458.351C133.547 454.155 132.101 452.993 131.804 450.971C131.624 449.781 131.074 448.801 130.564 448.801C130.059 448.801 128.989 447.226 128.184 445.301C127.179 442.894 126.073 441.801 124.646 441.801C123.139 441.801 122.405 440.978 121.97 438.801C121.313 435.513 120.972 435.413 115.12 436.788C110.434 437.889 92.384 432.338 81.316 426.392C77.9084 424.562 72.2837 421.55 68.817 419.7C59.698 414.834 60.437 414.826 101.12 419.328C115.957 420.97 115.971 420.955 109.974 410.129L105.084 401.301L98.6018 400.225C89.5762 398.726 83.0268 396.384 73.9338 391.403C69.6365 389.049 62.6308 385.21 58.3668 382.873C48.8898 377.673 49.2258 376.793 60.7008 376.793C70.4368 376.793 79.6248 378.798 92.9588 383.834C102.148 387.304 104.156 387.544 103.094 385.043C102.685 384.08 101.531 380.593 100.529 377.293C99.5275 373.993 96.9126 365.443 94.7183 358.293L90.7288 345.293L79.9258 335.05C73.9842 329.416 66.7618 323.566 63.8758 322.05C56.969 318.421 57.1223 317.154 64.095 320.238C70.1569 322.919 76.162 326.852 84.239 333.43C87.1852 335.83 89.827 337.793 90.1098 337.793C90.3926 337.793 90.6305 333.406 90.6386 328.043C90.6859 296.6 87.4524 279.565 82.3968 284.62C78.8447 288.172 75.7573 284.024 74.8764 274.514C74.0975 266.107 69.7875 266.299 62.4914 275.065C56.7223 281.996 55.411 284.533 53.5426 292.375C50.7596 304.055 42.6236 314.775 42.6236 306.765C42.6236 306.126 41.7016 304.308 40.5747 302.725C38.7108 300.108 38.6248 299.302 39.6221 293.802C41.154 285.354 38.2374 284.581 30.5448 291.396C29.6768 292.166 28.4908 292.796 27.9098 292.796C27.3289 292.796 26.0441 294.033 25.0547 295.546C22.6604 299.206 13.5587 308.796 12.4787 308.796C10.4283 308.796 11.9241 305.519 15.4138 302.366C17.4983 300.483 23.3417 293.144 28.3988 286.057C33.4562 278.97 38.7258 272.109 40.1088 270.809C41.4918 269.509 42.6238 267.769 42.6238 266.949C42.6238 254.942 55.5498 241.43 62.7688 245.892C64.2857 246.83 63.2535 247.296 57.5892 248.23C49.2456 249.605 45.3752 258.582 43.6462 280.566C43.0953 287.571 42.3559 294.991 42.0031 297.053C41.0791 302.454 43.5356 301.99 47.2908 296.053C50.5393 290.916 51.5169 288.512 54.1026 279.303C57.4574 267.354 61.0599 256.588 62.247 254.965C64.2704 252.197 64.9945 254.501 63.2542 258.168C59.7695 265.512 63.2746 265.721 71.4081 258.656C73.2161 257.076 75.3641 255.796 76.1811 255.796C76.9988 255.796 78.1803 254.671 78.8068 253.296C79.4333 251.921 80.5578 250.796 81.3057 250.796C82.3104 250.796 82.0745 251.906 80.4023 255.046C78.4062 258.795 78.1687 260.525 78.3902 269.703C78.7369 284.071 80.9457 286.052 85.8144 276.363C86.9383 274.126 88.5126 271.55 89.3129 270.638C90.853 268.883 90.7315 264.402 88.6693 246.905C87.6319 238.103 87.0248 236.933 80.6249 231.396C78.6999 229.731 74.4736 225.772 71.2332 222.6C60.0302 211.632 42.9692 212.427 28.2332 224.604C19.0151 232.221 14.6792 243.447 14.1972 260.94C14.1571 262.395 13.3369 264.455 12.3744 265.519C7.8367 270.533 11.3567 269.339 17.1844 263.888C26.2914 255.369 27.2174 257.246 18.2689 266.086C6.6089 277.606 3.6249 282.756 3.6249 291.346C3.6249 303.776 7.3634 305.286 9.6809 293.796C12.0109 282.246 28.9709 256.176 35.5939 253.976C37.8049 253.236 36.2669 255.636 28.9819 264.296C20.2239 274.706 15.7519 282.966 12.6479 294.476C9.7299 305.306 8.7865 306.606 5.4457 304.416C-1.0839 300.136 -1.971 280.896 4.0342 273.796C7.878 269.254 9.5186 264.429 11.1754 252.796C13.6372 235.51 20.5316 224.236 32.3074 218.24C34.407 217.171 36.3682 215.972 36.6656 215.576C41.211 209.52 66.1756 210.73 71.6036 217.27C73.0746 219.04 82.5436 223.79 84.6006 223.79C85.6175 223.79 85.701 221.668 85.0041 213.54C82.4109 183.295 84.7464 177.455 110.11 150.764C115.05 145.565 117.533 140.653 121.56 128.11C125.457 115.973 136.386 98.9073 136.579 104.658C136.604 105.411 135.211 107.637 133.483 109.605C129.602 114.025 126.725 120.461 123.117 132.791C120.133 142.99 119.968 143.244 104.483 161.429C99.7301 167.01 93.8801 174.879 91.4831 178.914L87.1251 186.244L87.1651 197.264C87.1871 203.324 87.7641 212.784 88.4471 218.284C89.1304 223.784 90.1103 232.559 90.6247 237.784C91.1391 243.009 92.0229 250.884 92.5887 255.284C93.1545 259.684 94.0733 268.684 94.6303 275.284C96.1405 293.176 100.521 325.56 104.098 345.284C106.204 356.892 107.687 364.335 108.614 367.946C110.388 374.858 115.628 391.786 117.851 397.784C118.972 400.809 120.25 404.859 120.691 406.784C122.194 413.351 123.463 417.282 126.664 425.284C129.855 433.263 135.308 447.795 136.292 450.944C137.42 454.553 151.486 460.211 172.125 465.36C175.425 466.183 179.705 467.276 181.636 467.788C186.173 468.993 208.694 473.485 219.625 475.365C224.3 476.17 231.05 477.482 234.625 478.281C238.2 479.08 245.4 480.684 250.625 481.845C255.85 483.006 267.55 485.673 276.625 487.771C298.08 492.731 303.373 493.745 313.625 494.859C318.3 495.367 326.625 496.686 332.125 497.79C342.886 499.951 361.042 501.945 363.024 501.184C368.351 499.14 366.658 461.036 360.32 440.284C355.303 423.858 353.692 421.845 345.586 421.873C338.408 421.898 326.492 420.217 319.626 418.21C316.601 417.326 311.481 416.192 308.249 415.69C305.017 415.188 300.388 414.103 297.964 413.28C295.539 412.457 292.086 411.784 290.291 411.784C288.495 411.784 286.598 411.395 286.076 410.92C284.352 409.352 267.056 405.871 246.126 402.879C230.264 400.611 217.048 397.611 205.126 393.572C185.146 386.792 183.156 383.552 168.046 333.272C160.446 307.952 158.296 301.622 151.586 284.772C120.446 206.482 117.806 194.632 129.916 187.792C141.516 181.252 146.616 173.582 146.616 162.662C146.616 145.245 159.285 118.188 169.103 114.638C173.602 113.011 177.692 96.4781 174.729 91.8911C173.669 90.2431 171.619 91.2601 171.619 93.4411C171.619 96.7807 164.794 107.602 158.485 114.265C154.228 118.761 150.149 124.496 147.099 130.272C142.085 139.768 139.159 143.646 137.934 142.421C137.527 142.014 137.812 140.692 138.568 139.482C147.87 124.587 151.533 114.812 156.073 92.7722C159.028 78.4242 158.178 77.7192 150.979 88.5436C142.491 101.305 141.483 103.419 138.575 114.569C137.039 120.456 135.307 126.511 134.725 128.023C133.439 131.37 131.066 131.817 132.074 128.523C132.452 127.285 134.034 121.323 135.59 115.273C139.205 101.211 141.724 95.6286 147.097 89.7726C148.358 88.3976 150.185 85.6976 151.157 83.7726C152.128 81.8476 156.455 76.8328 160.771 72.6286C166.891 66.6706 168.621 64.3656 168.621 62.1786C168.621 55.8337 171.992 47.6626 175.95 44.4146C183.032 38.6031 195.796 23.9156 196.997 20.1976C197.339 19.1388 199.299 17.1476 201.353 15.7726C203.407 14.3976 206.671 11.8783 208.605 10.1742C215.934 3.71682 241.177 0.388621 246.503 5.17762C248.43 6.91082 248.779 6.94212 250.371 5.52421C252.39 3.72641 266.282 0.664411 275.254 0.0395115C282.618 -0.473369 291.682 4.01691 301.259 12.9225C303.127 14.6588 303.9 14.7748 307.374 13.8394C317.149 11.2073 326.138 16.4806 329.672 26.9204L331.438 32.1371L338.681 34.4227C345.611 36.6097 350.621 39.8797 350.621 42.2137C350.621 42.8147 352.469 43.3548 354.727 43.414C363.169 43.6354 365.96 49.3164 364.729 63.772C364.565 65.697 364.586 68.172 364.776 69.272C365.057 70.8998 364.49 71.3322 361.732 71.5957C354.827 72.2553 354.017 71.5262 352.72 63.4855C351.59 56.4955 348.67 49.7725 346.75 49.7725C346.256 49.7725 345.617 48.8748 345.33 47.7775C344.795 45.7334 342.007 44.0509 340.933 45.1247C340.603 45.4544 340.886 46.3902 341.562 47.2044C342.238 48.0186 342.502 49.1512 342.15 49.7213C341.798 50.2914 342.884 53.638 344.564 57.1581C348.244 64.8601 348.234 64.7721 345.184 64.7721C343.841 64.7721 342.442 65.2584 342.075 65.8528C341.284 67.1326 334.981 66.5686 331.951 64.9467C326.38 61.9653 324.562 51.8727 327.854 42.1967C328.699 39.7131 328.563 38.607 327.147 36.4467C324.881 32.9871 323.427 33.0238 324.175 36.5218L324.764 39.2718L322.834 37.0827C321.413 35.4723 320.608 35.1885 319.788 36.0091C318.967 36.8297 318.203 36.7216 316.898 35.6002C314.557 33.5874 311.535 32.4137 309.382 32.6799C308.35 32.8073 307.159 31.8433 306.464 30.3192C305.635 28.4986 304.764 27.9102 303.496 28.3129C301.836 28.8409 297.776 27.3569 296.626 25.7959C295.836 24.7249 288.246 19.7719 287.396 19.7719C285.465 19.7719 286.988 22.0206 290.778 24.7656C295.309 28.0478 293.76 28.9134 288.328 26.1351L285.128 24.4981L286.961 26.5553C290.379 30.3919 273.424 33.8339 268.145 30.375C266.805 29.493 264.765 28.772 263.615 28.772C260.455 28.772 256.837 20.3125 258.983 17.942C259.814 17.0237 260.526 15.9348 260.565 15.5223C260.604 15.1098 260.974 14.7279 261.386 14.6737C264.732 14.2337 266.702 11.3955 264.301 10.4741C258.896 8.39978 252.27 14.7397 255.973 18.4429C257.688 20.1574 256.334 20.6673 253.693 19.3016C251.84 18.3433 250.522 18.1486 250.134 18.7759C249.794 19.3249 248.684 19.7729 247.654 19.7729C246.632 19.7729 245.611 20.3302 245.384 21.0111C245.055 21.9955 244.414 21.9955 242.253 21.0111C239.083 19.5651 235.633 19.3861 235.633 20.6661C235.633 21.1573 236.308 21.8181 237.133 22.1347C237.958 22.4513 238.633 23.1671 238.633 23.7255C238.633 24.2886 237.08 24.0001 235.146 23.0777C230.182 20.7104 229.637 22.2182 234.009 26.223C237.412 29.34 238.475 29.7091 245.922 30.3587L254.098 31.0719L259.187 36.2843C261.986 39.1511 264.861 42.9089 265.576 44.6349C267.392 49.0187 269.591 48.7005 269.804 44.0231C269.898 41.9606 270.017 39.3731 270.068 38.2731C270.177 35.9241 274.91 34.928 277.146 36.7835C278.817 38.1707 282.229 37.2699 283.01 35.2351C284.735 30.74 289.517 37.0654 291.166 46.0231C291.58 48.2731 292.424 49.7731 293.277 49.7731C294.058 49.7731 295.059 50.75 295.501 51.9441C296.033 53.3826 296.548 53.72 297.028 52.9441C298.329 50.8383 299.398 51.7076 300.099 55.4408C302.361 67.4978 305.07 70.9888 309.576 67.6568C313.168 65.0009 315.477 65.4899 312.818 68.3436C308.431 73.0533 307.665 81.9396 311.3 85.9566C313.468 88.3523 316.115 88.398 315.099 86.0222C312.672 80.3485 313.369 75.4282 317.252 70.8132C319.967 67.5866 325.411 64.2159 326.365 65.1703C326.665 65.4705 325.796 66.1399 324.433 66.6579C321.462 67.7877 316.383 73.5582 317.199 74.878C317.517 75.3932 319.834 74.0051 322.346 71.7933C327.52 67.2392 329.798 66.4117 326.061 70.444C319.911 77.061 326.961 90.771 336.491 90.771C341.773 90.771 337.857 81.1138 332.36 80.583L329.12 80.271L334.119 77.4524C338.907 74.7526 339.234 74.7023 341.869 76.2589C345.073 78.1513 345.644 76.6775 343.11 73.0592C341.415 70.639 342.731 68.9946 344.58 71.2226C345.233 72.0088 346.343 72.4308 347.048 72.1603C351.428 70.4783 354.858 93.8893 350.618 96.5393C348.348 97.9583 347.928 100.771 349.988 100.771C350.739 100.771 352.539 101.704 353.988 102.844C356.173 104.562 356.623 104.648 356.623 103.344C356.623 102.479 357.272 101.771 358.064 101.771C360.263 101.771 360.772 100.191 359.483 97.3629C358.549 95.3132 358.67 93.5016 360.091 88.2506C361.969 81.3144 360.556 76.8156 356.936 78.2046C356.206 78.4816 355.616 78.2586 355.616 77.7086C355.616 73.5666 367.089 76.8812 369.676 81.7703C370.695 83.6959 371.548 84.6823 371.573 83.9623C371.593 83.2423 372.063 82.9313 372.613 83.2713C377.489 86.2851 365.993 106.771 359.426 106.771C356.06 106.771 355.707 109.106 358.556 112.521C361.014 115.467 360.762 115.58 365.38 109.463C375.091 96.6012 378.344 85.5542 373.613 81.5032C372.513 80.5614 371.613 79.0413 371.613 78.1254C371.613 77.2094 370.448 74.933 369.024 73.0667C366.684 69.9979 366.327 66.7613 368.331 66.7776C369.142 66.7842 372.424 71.7943 373.883 75.2507C374.342 76.3394 375.454 78.0431 376.353 79.0366C380.648 83.7831 376.953 99.2016 369.322 108.373C366.128 112.211 364.132 115.973 364.453 117.55C364.596 118.254 364.008 121.583 363.145 124.95C361.343 131.987 361.698 132.98 364.931 129.942C366.202 128.749 367.991 127.772 368.908 127.772C370.31 127.772 370.475 127.051 369.95 123.219C366.832 100.47 402.716 87.0762 420.363 104.402C422.159 106.165 430.33 108.323 444.112 110.673C462.409 113.793 462.727 113.872 468.699 116.85C474.224 119.605 478.813 123.922 482.073 129.431C483.071 131.118 486.164 133.44 489.687 135.148C494.063 137.269 496.342 139.161 498.367 142.35C500.708 146.038 504.653 148.771 507.634 148.771C508.032 148.771 508.582 146.437 508.856 143.585C510.539 126.069 526.085 133.55 529.705 153.618C530.236 156.559 532.232 161.857 534.141 165.393C536.05 168.929 537.627 172.373 537.646 173.046C537.665 173.72 538.549 176.071 539.612 178.271C540.675 180.471 541.559 182.959 541.578 183.799C541.597 184.639 542.252 186.241 543.035 187.358C546.17 191.834 547.637 201.125 547.071 212.922C546.277 229.48 546.278 230.862 547.097 235.393C547.795 239.262 547.618 239.717 544.215 242.815C540.765 245.954 540.619 246.345 541.217 250.854C542.417 259.898 531.895 273.415 516.508 282.596C512.093 285.231 511.485 288.324 513.987 295.416C514.743 297.559 515.666 301.778 516.039 304.792C516.411 307.806 517.563 313.872 518.597 318.272C519.632 322.672 522.129 333.472 524.147 342.272C526.165 351.072 528.891 362.097 530.205 366.772C536.796 390.227 538.383 405.146 535.31 414.772C531.2 427.646 530.174 430.53 528.017 435.272C525.464 440.884 516.244 450.844 506.883 458.101C503.457 460.757 499.303 464.193 497.65 465.736C492.765 470.3 487.845 470.687 487.214 466.557C481.4 428.54 481.936 430.08 470.613 418.896C458.871 407.298 457.592 406.407 454.486 407.66C451.198 408.986 426.451 410.557 406.311 410.718C388.749 410.858 386.193 411.169 373.113 414.76C368.713 415.967 363.87 417.191 362.351 417.479C358.876 418.138 358.093 419.379 359.427 422.118C367.907 439.532 375.142 461.112 377.582 476.273C378.648 482.899 381.273 499.874 383.607 515.234C385.446 527.332 381.749 529.401 379.491 517.538L378.114 510.303L369.286 509.259C358.3 507.959 358.536 510.879 370.882 528.974C371.52 529.91 371.834 530.82 371.578 530.997C371.323 531.173 367.986 532.834 364.164 534.687L357.214 538.056L355.726 535.664C353.396 531.917 341.918 520.822 339.391 519.873C323.297 513.832 271.56 527.504 274.113 537.122C274.427 538.304 275.1 540.846 275.608 542.771C280.012 559.454 281.358 574.515 277.753 566.771L277.765 566.797ZM256.611 544.547C256.587 540.999 253.93 530.606 252.873 529.919C252.346 529.577 251.585 527.497 251.182 525.297C250.778 523.097 250.045 520.81 249.553 520.214C249.061 519.618 248.314 516.774 247.893 513.893L247.123 508.653L241.783 506.843C238.848 505.851 235.159 504.087 233.586 502.923C229.229 499.702 228.908 502.217 233.033 507.25C235.005 509.657 236.618 511.919 236.618 512.277C236.618 512.636 237.987 514.918 239.659 517.349C241.332 519.78 243.807 524.709 245.16 528.303C249.395 539.555 256.64 549.834 256.603 544.54L256.611 544.547ZM240.621 529.227C240.621 527.839 235.308 521.87 234.51 522.363C232.732 523.462 233.686 526.371 236.371 528.036C239.228 529.807 240.621 530.198 240.621 529.227ZM225.621 521.415C225.621 520.465 220.421 509.795 219.951 509.795C218.96 509.795 220.865 520.298 221.99 521.03C223.178 521.803 225.619 522.063 225.619 521.416L225.621 521.415ZM269.621 501.911C269.621 487.552 269.78 487.841 261.871 487.808C258.479 487.793 257.962 488.644 259.593 491.558C260.128 492.513 261.94 497.569 263.621 502.794C265.301 508.019 266.875 512.856 267.117 513.544C268.667 517.944 269.617 513.534 269.617 501.914L269.621 501.911ZM219.621 506.341C219.621 505.061 217.191 500.791 216.461 500.791C215.322 500.791 215.405 502.518 216.657 504.857C217.565 506.553 219.622 507.581 219.622 506.338L219.621 506.341ZM158.621 490.853C158.621 488.845 136.59 485.766 123.121 485.892C116.182 485.957 122.086 487.496 134.434 488.84C140.657 489.518 147.181 490.414 148.934 490.831C153.557 491.931 158.621 491.943 158.621 490.853ZM495.041 460.931C495.335 460.456 498.761 457.911 502.656 455.274C521.008 442.849 533.981 419.639 532.269 402.294C531.073 390.186 527.459 372.941 522.628 356.294C522.149 354.644 520.83 349.694 519.696 345.294C518.561 340.894 516.998 335.494 516.222 333.294C514.418 328.183 511.962 313.371 510.585 299.294C509.992 293.244 509.108 285.144 508.619 281.294C508.129 277.444 507.706 268.389 507.678 261.171C507.624 247.478 507.4 246.489 501.536 234.112C500.446 231.812 499.631 228.437 499.723 226.612C499.816 224.787 499.37 221.995 498.733 220.408C497.794 218.073 497.864 217.08 499.1 215.194C501.938 210.862 499.719 210.373 495.511 214.404C494.013 215.839 492.188 216.793 491.457 216.523C490.642 216.222 491.233 215.592 492.978 214.899C494.792 214.178 495.632 213.252 495.287 212.353C494.989 211.576 495.393 210.402 496.186 209.744C498.078 208.174 498.038 206.422 496.126 207.155C495.301 207.472 494.626 207.295 494.626 206.762C494.626 206.229 495.076 205.794 495.626 205.794C496.176 205.794 496.626 203.824 496.626 201.416C496.626 198.745 497.211 196.553 498.126 195.794C500.371 193.931 500.01 192.721 495.626 187.416C491.187 182.044 491.128 181.81 492.923 176.659C495.669 168.776 497.456 168.494 506.423 174.533C510.307 177.15 512.015 177.804 512.83 176.989C514.005 175.814 502.565 163.798 500.262 163.788C495.435 163.768 491.405 155.639 495.042 153.256C500.353 149.776 498.278 146.044 487.474 139.642C484.312 137.769 479.825 133.825 477.29 130.692C472.124 124.307 463.955 119.556 454.176 117.249C446.511 115.441 442.892 115.409 446.9 117.184C449.828 118.481 449.577 119.793 446.4 119.793C445.36 119.793 444.786 120.243 445.126 120.793C445.466 121.343 448.08 121.808 450.935 121.826C455.531 121.855 460.626 124.095 460.626 126.086C460.626 126.347 459.614 126.871 458.376 127.251C455.152 128.242 460.723 129.923 464.636 129.141C466.147 128.838 467.67 129.054 468.019 129.62C468.645 130.632 467.839 131.003 462.376 132.219C458.038 133.184 459.169 134.793 464.185 134.793C466.97 134.793 468.504 135.182 468.126 135.793C467.206 137.281 461.694 137.004 455.558 135.162C451.159 133.841 450.507 133.385 452.127 132.765C453.817 132.117 453.276 131.605 448.627 129.453C445.602 128.053 443.689 126.882 444.377 126.85C446.711 126.743 445.639 125.169 442.073 123.469C440.119 122.537 438.784 121.348 439.106 120.826C439.428 120.305 438.439 119.23 436.907 118.438C435.375 117.646 433.266 116.051 432.219 114.895C431.169 113.735 429.699 112.785 428.969 112.785C426.74 112.785 427.455 115.628 430.124 117.377C432.901 119.197 433.393 120.785 431.18 120.785C430.386 120.785 426.223 117.155 421.93 112.717C417.637 108.28 412.8 103.949 411.183 103.093C406.858 100.803 402.738 99.7924 402.079 100.859C401.759 101.369 399.759 101.789 397.619 101.789C395.484 101.789 393.459 102.239 393.119 102.789C392.779 103.339 393.401 103.789 394.501 103.789C395.601 103.789 396.762 104.212 397.082 104.729C397.655 105.657 397.043 106.378 393.119 109.395C391.213 110.86 391.268 110.907 394.279 110.404C399.258 109.57 399.39 112.253 394.604 117.039C389.44 122.203 388.282 121.274 393.158 115.878C395.189 113.629 396.462 111.792 395.985 111.795C394.694 111.805 389.766 115.215 388.353 117.076C386.43 119.609 379.752 113.407 381.459 110.673C382.863 108.426 382.913 107.789 381.686 107.789C381.173 107.789 380.484 108.64 380.153 109.681C379.823 110.721 378.668 111.804 377.586 112.087C374.272 112.954 375.37 121.384 379.933 130.113C381.622 133.346 382.124 132.889 383.053 127.268C384.245 120.055 385.338 120.471 384.884 127.965C384.64 131.993 384.902 136.414 385.466 137.789C386.444 140.17 386.495 140.117 386.556 136.664C386.642 131.7 387.699 126.789 388.681 126.789C389.128 126.789 389.242 128.339 388.934 130.233C388.261 134.379 389.391 142.788 390.62 142.788C391.103 142.788 391.675 141.101 391.89 139.038C392.108 136.96 392.358 138.52 392.451 142.538C392.603 149.083 393.723 151.83 394.899 148.538C395.669 146.38 396.319 148.089 396.989 154.039L397.637 159.791L395.128 157.609C393.748 156.409 392.618 154.669 392.618 153.729C392.618 152.796 391.945 151.473 391.122 150.791C390.3 150.108 389.104 147.803 388.464 145.668C387.824 143.538 386.764 141.788 386.114 141.788C385.464 141.788 384.42 140.663 383.794 139.288C383.167 137.913 381.918 136.788 381.018 136.788C380.118 136.788 377.903 135.174 376.095 133.201C372.312 129.07 371.776 129.184 363.231 135.933C360.547 138.054 357.959 139.788 357.481 139.788C356.113 139.788 356.464 142.632 358.149 145.204C359.485 147.244 359.732 154.289 358.496 155.108C351.481 159.753 349.105 161.632 347.876 163.508C347.054 164.762 345.745 165.788 344.966 165.788C342.548 165.788 342.323 162.972 344.516 160.183C346.706 157.399 347.296 153.329 345.656 152.315C343.868 151.21 337.726 154.631 330.16 160.945C321.927 167.816 319.941 170.824 325.658 167.764C328.348 166.324 333.651 167.628 331.042 169.088C324.299 172.861 317.763 168.588 323.234 163.983C324.817 162.651 328.197 159.7 330.745 157.425C335.836 152.878 349.975 142.676 352.643 141.623C354.126 141.038 356.354 133.198 355.329 132.172C355.137 131.98 353.614 132.339 351.943 132.969C347.693 134.579 345.613 133.509 345.613 129.709C345.613 127.107 345.315 126.697 343.863 127.307C338.888 129.398 337.267 128.853 341.315 126.451C355.406 118.085 359.798 101.033 347.341 103.055C344.324 103.544 343.724 103.316 343.249 101.5C342.588 98.9727 341.347 99.8629 341.114 103.032C340.782 107.535 323.691 107.626 319.484 103.147C316.694 100.178 315.382 100.137 315.794 103.031C316.204 105.914 321.443 108.414 329.783 109.706L336.113 110.686L328.422 110.39C323.221 110.189 319.875 109.532 318.085 108.359C312.95 104.995 313.672 109.247 318.898 113.149C322.45 115.801 330.86 116.405 336.579 114.42C341.107 112.849 342.557 113.344 342.597 116.478C342.632 119.233 338.366 124.785 336.213 124.785C335.003 124.785 333.491 125.306 332.855 125.943C331.978 126.82 331.321 126.788 330.145 125.812C329.146 124.983 327.109 124.723 324.428 125.083C317.217 126.05 308.971 120.741 309.984 115.785C310.6 112.773 311.516 107.192 312.012 103.432L312.519 99.5795L309.316 100.164C298.616 102.118 292.365 81.5495 301.677 75.0265C304.375 73.1369 304.259 70.4444 301.518 71.3145C300.01 71.7931 298.621 71.2097 296.554 69.2294C294.217 66.9903 293.411 66.7062 292.215 67.6991C291.012 68.6974 290.435 68.4449 289.034 66.3061C288.093 64.8693 286.6 63.8378 285.717 64.0138C284.834 64.1898 281.637 62.6864 278.612 60.6729C273.705 57.407 273.078 57.2145 272.794 58.8887C272.501 60.6154 272.251 60.6494 269.671 59.3149C268.128 58.5171 266.596 58.1339 266.267 58.4632C265.937 58.7925 265.256 57.9775 264.752 56.6521C263.782 54.101 259.083 50.9807 257.937 52.1268C257.563 52.5 258.125 53.4613 259.185 54.2632C260.774 55.4652 260.832 55.7266 259.517 55.7529C257.78 55.7875 255.272 53.2906 254.307 50.5645C253.972 49.6184 252.441 48.5825 250.905 48.2626C245.805 47.2086 233.485 41.5206 226.945 37.2036C224.105 35.3276 221.285 33.7936 220.695 33.7936C218.548 33.7936 219.686 35.675 223.114 37.7936C227.649 40.596 227.528 41.1238 222.547 40.2822C218.897 39.6655 218.419 39.8239 217.896 41.8244C217.004 45.2368 205.647 50.2099 203.953 47.9301C202.428 45.8776 198.952 48.6249 199.912 51.1248C200.536 52.7512 204.51 52.1982 212.852 49.3242C218.476 47.3864 219.657 48.8969 215.185 52.3082C212.195 54.5883 211.795 55.3057 212.821 56.5419C213.838 57.768 213.577 58.4125 211.336 60.1996C209.836 61.3926 208.616 63.3206 208.616 64.4826C208.616 66.3324 207.834 66.6871 202.366 67.3188C190.855 68.6484 189.484 70.1549 196.52 73.7443C200.484 75.7669 201.395 81.1734 197.99 82.4797C194.65 83.7616 196.569 86.0563 200.462 85.4339C205.357 84.6511 206.224 85.5272 203.035 88.0355C199.91 90.4934 200.004 90.7204 206.046 95.3101C211.387 99.367 214.43 99.1768 213.786 94.8264C213.438 92.4722 213.589 92.4663 222.366 94.491C227.829 95.7514 223.607 91.2042 216.616 88.2981C208.314 84.8476 203.898 78.7908 208.595 77.3001C209.684 76.9546 211.356 75.3492 212.311 73.7327C214.428 70.1491 216.22 70.0665 222.365 73.2696C224.977 74.6314 229.703 76.493 232.866 77.4065C236.028 78.32 238.616 79.3558 238.616 79.7083C238.616 81.1443 234.436 83.7933 232.166 83.7933C224.038 83.7933 229.423 86.2626 239.892 87.3365C245.841 87.9468 246.51 88.2191 245.392 89.5745C244.261 90.9443 244.764 91.0514 249.868 90.5277C255.876 89.9113 257.81 91.153 252.618 92.2932C248.74 93.145 248.74 94.7932 252.618 94.7932C259.793 94.7932 255.444 97.1173 245.954 98.3547C242.149 98.8508 240.664 99.5079 240.313 100.851C239.95 102.241 238.679 102.748 234.977 102.984C230.522 103.268 230.145 103.488 230.447 105.64C230.75 107.799 230.52 107.931 227.572 107.283C225.46 106.819 224.113 106.993 223.618 107.793C223.206 108.46 220.792 109.088 218.254 109.189C213.177 109.391 209.123 111.793 213.859 111.793C216.665 111.793 218.821 113.892 216.73 114.589C216.048 114.817 215.076 116.089 214.571 117.416C214.067 118.743 212.408 120.314 210.886 120.907L208.118 121.985L210.368 123.511C214.639 126.408 212.884 128.574 203.684 131.758C197.062 134.051 196.943 136.27 203.483 135.496C208.868 134.858 210.163 135.896 206.458 137.879C204.521 138.916 204.47 139.131 205.966 139.968C206.883 140.482 208.049 140.645 208.557 140.331C209.064 140.017 209.762 140.218 210.108 140.777C210.453 141.336 210.09 141.793 209.299 141.793C208.509 141.793 207.286 142.488 206.581 143.338C205.703 144.396 204.405 144.686 202.459 144.258C199.699 143.652 198.496 144.982 200.618 146.293C202.325 147.348 201.719 148.793 199.57 148.793C197.53 148.793 192.62 144.373 192.62 142.543C192.62 142.014 193.745 141.863 195.12 142.209C197.954 142.92 198.211 142.164 196.088 139.357C195.281 138.289 194.617 136.264 194.613 134.857C194.605 132.114 186.278 122.924 185.274 124.55C184.688 125.497 186.393 130.888 188.435 134.548C189.492 136.443 189.452 136.798 188.178 136.798C186.407 136.798 184.035 133.437 183.088 129.584C182.098 125.564 174.338 118.794 170.728 118.794C160.011 118.794 147.524 158.17 153.708 172.461C154.859 175.119 156.706 180.219 157.813 183.794C160.698 193.109 163.96 195.271 169.176 191.326C172.47 188.835 172.842 189.55 172.159 197.044C171.007 209.669 169.473 211.383 161.736 208.686C157.28 207.133 155.228 202.788 156.044 196.635C156.449 193.58 156.243 190.965 155.486 189.549C154.826 188.316 153.776 185.309 153.153 182.868C151.701 177.176 150.12 176.697 148.607 181.493C147.034 186.48 143.387 192.057 137.777 198.055L133.228 202.918L135.173 206.572C140.243 216.112 176.613 257.812 176.613 254.092C176.613 253.468 175.975 250.333 175.196 247.126C171.91 233.604 172.45 229.729 176.529 237.545C181.563 247.19 198.985 266.104 212.22 276.292C223.701 285.13 236.92 293.265 241.399 294.248C243.091 294.62 245.011 295.57 245.666 296.359C246.322 297.149 247.732 297.795 248.801 297.795C249.87 297.795 251.598 298.252 252.641 298.81C257.155 301.226 276.832 300.337 281.676 297.499C291.681 291.635 307.431 266.327 316.963 240.795C318.913 235.57 322.951 226.345 325.934 220.295C331.612 208.781 333.039 204.919 334.064 198.295C335.298 190.312 335.798 188.795 337.193 188.795C338.916 188.795 338.924 187.999 337.114 197.457C336.289 201.767 335.614 205.596 335.614 205.964C335.614 206.332 337.918 207.399 340.735 208.335C351.215 211.816 359.974 217.739 357.949 219.976C356.429 221.656 356.034 221.723 355.11 220.458C354.519 219.65 352.703 218.898 351.075 218.786C346.654 218.482 346.253 218.655 347.604 220.282C348.605 221.489 348.528 221.89 347.192 222.403C344.693 223.361 336.715 220.776 335.113 218.489C333.453 216.119 334.015 214.627 336.247 215.484C337.62 216.01 339.554 214.406 339.598 212.705C339.606 212.38 338.455 211.587 337.039 210.942C334.389 209.732 332.619 210.132 332.619 211.952C332.619 212.522 330.397 217.558 327.682 223.143C324.967 228.728 321.795 236.222 320.634 239.797C317.924 248.136 303.126 278.089 299.167 283.246C291.199 293.627 297.649 324.337 309.895 334.321C312.577 336.508 315.301 338.781 315.949 339.372C316.597 339.963 320.95 341.939 325.623 343.762C330.296 345.585 335.095 347.52 336.287 348.062C345.289 352.152 389.888 343.787 405.619 335.058C409.194 333.074 413.694 330.583 415.619 329.523C417.544 328.462 419.829 326.965 420.698 326.196C423.735 323.505 428.252 324.764 425.486 327.53C421.292 331.725 427.878 332.87 434.734 329.138C440.642 325.922 441.399 323.241 436.119 324.231C432.65 324.882 431.181 323.563 434.119 322.436C434.944 322.119 435.619 321.224 435.619 320.446C435.619 319.669 438.512 317.147 442.049 314.843C465.911 299.296 480.963 263.223 459.191 273.763C453.798 276.374 452.399 276.068 456.381 273.149C470.119 263.08 478.1 272.769 469.869 289.525C466.289 296.795 450.379 314.805 447.539 314.805C445.878 314.805 442.62 321.175 442.616 324.433C442.614 326.153 441.937 328.12 441.112 328.805C440.287 329.49 439.612 330.714 439.612 331.526C439.612 332.338 438.991 334.421 438.232 336.154C432.558 349.106 432.365 349.925 433.071 358.022C434.084 369.634 439.921 386.059 444.51 390.212C445.666 391.258 446.612 392.636 446.612 393.273C446.612 395.109 451.761 399.552 455.885 401.275C457.961 402.142 460.494 403.628 461.515 404.578C462.536 405.527 466.833 409.418 471.063 413.224C481.372 422.498 486.835 433.371 490.194 451.305C492.212 462.08 493.159 463.967 495.028 460.942L495.041 460.931ZM511.621 442.941C511.621 442.476 512.521 441.282 513.621 440.286C515.573 438.52 516.457 436.151 514.778 437.189C514.314 437.476 514.549 435.365 515.301 432.498C517.467 424.236 516.47 422.295 513.393 428.786C511.959 431.811 510.748 433.472 510.703 432.477C510.658 431.482 510.229 430.911 509.749 431.207C508.194 432.168 507.784 425.362 509.089 420.256C510.162 416.059 510.691 415.334 512.491 415.599C513.89 415.804 514.621 415.375 514.621 414.349C514.621 412.09 515.695 412.398 519.894 415.859C524.066 419.298 524.55 421.903 522.236 428.463C519.626 435.893 511.626 446.803 511.626 442.943L511.621 442.941ZM520.014 430.204C521.422 426.537 520.705 424.102 519.115 427.15C518.294 428.726 517.621 430.413 517.621 430.9C517.621 432.392 519.37 431.883 520.014 430.204H520.014ZM495.643 424.595C495.631 423.665 496.058 422.634 496.593 422.303C501.233 419.435 504.282 402.044 502.668 387.65C502.029 381.95 500.879 371.661 500.112 364.786C499.346 357.911 498.3 350.9 497.788 349.206C497.277 347.512 496.542 342.978 496.156 339.129C495.149 329.11 493.303 327.179 494.014 336.889C494.32 341.07 494.873 345.345 495.243 346.389C495.704 347.689 495.588 347.972 494.875 347.287C491.028 343.589 491.249 292.826 495.128 288.947C495.399 288.675 495.629 297.191 495.639 307.871C495.656 327.598 496.579 336.226 500.444 352.788C505.178 373.075 505.83 376.843 506.335 386.788C507.181 403.458 504.485 414.874 497.597 423.788C496.093 425.735 495.661 425.914 495.643 424.597V424.595ZM493.598 412.866C494.732 408.912 493.15 407.898 491.314 411.402L489.913 414.077L487.767 411.932C486.587 410.752 485.607 408.998 485.589 408.036C485.572 407.073 484.914 405.436 484.128 404.398C483.159 403.117 482.994 401.957 483.617 400.794C484.122 399.85 484.843 396.076 485.219 392.407L485.902 385.736L488.298 389.261C490.989 393.222 494.496 393.982 495.331 390.786C495.959 388.385 497.18 388.194 498.014 390.368C499.889 395.254 496.743 414.593 493.922 415.524C493.042 415.814 492.956 415.107 493.598 412.866V412.866ZM476.6 394.86C477.53 391.616 479.543 387.787 479.591 389.17C479.656 391.051 477.265 397.786 476.533 397.786C476.108 397.786 476.139 396.469 476.6 394.86L476.6 394.86ZM473.479 391.458C474.085 390.727 474.995 388.365 475.501 386.208C476.244 383.04 476.44 382.802 476.521 384.971C476.651 388.452 474.989 392.786 473.524 392.786C472.683 392.786 472.671 392.431 473.479 391.458V391.458ZM466.269 389.048C467.202 385.288 469.656 379.497 470.12 379.96C470.748 380.588 467.184 391.794 466.355 391.796C465.932 391.797 465.893 390.56 466.269 389.048V389.048ZM470.087 390.048C470.46 389.085 471.016 387.051 471.323 385.527C471.631 384.003 472.293 382.503 472.793 382.193C473.318 381.869 473.413 382.833 473.018 384.464C471.976 388.766 470.745 391.798 470.042 391.798C469.695 391.798 469.715 391.01 470.087 390.048V390.048ZM458.378 388.024C451.569 380.255 453.205 371.64 463.036 363.498C469.208 358.387 468.823 359.622 462.124 366.43C458.868 369.738 456.632 372.891 456.644 374.158C456.66 375.958 457.23 375.622 460.227 372.048C462.186 369.711 464.428 367.798 465.207 367.798C467.068 367.798 466.997 368.729 464.964 370.975C462.992 373.153 463.908 374.638 466.1 372.818C468.121 371.141 468.029 372.25 465.877 375.535C464.195 378.101 464.2 378.175 465.988 377.489C467.477 376.917 467.711 377.126 467.165 378.537C466.79 379.506 465.988 382.436 465.382 385.048C464.776 387.661 463.859 389.798 463.344 389.798C462.829 389.798 462.683 388.701 463.019 387.359C463.356 386.018 463.18 384.641 462.628 384.3C462.058 383.949 461.624 384.762 461.624 386.18C461.624 389.428 460.279 390.193 458.378 388.024L458.378 388.024ZM445.378 384.914C442.969 374.071 445.078 367.738 453.287 361.165C472.277 345.965 481.627 326.445 481.627 301.985C481.627 297.644 482.133 292.641 482.751 290.867C483.486 288.76 483.535 287.302 482.895 286.662C482.254 286.021 481.691 287.173 481.271 289.987C479.732 300.284 477.801 309.07 477.717 306.15C477.497 298.481 482.941 278.251 484.9 279.462C485.533 279.854 485.726 279.094 485.412 277.449C485.096 275.796 485.47 274.339 486.411 273.558C487.681 272.503 487.822 272.619 487.315 274.302C486.033 278.556 483.621 294.811 482.696 305.424C480.422 331.52 473.21 347.611 457.042 362.662C447.158 371.862 447.231 371.736 446.627 380.794C446.205 387.118 446.009 387.765 445.377 384.919L445.378 384.914ZM519.208 363.794C518.22 360.494 516.894 357.794 516.263 357.794C514.264 357.794 512.058 349.198 508.173 326.269C505.401 309.91 503.735 286.262 505.532 288.794C506.117 289.619 506.607 292.094 506.62 294.294C506.674 303.616 511.078 331.309 514.332 342.794C515.8 347.974 521.377 365.818 522.381 368.544C522.634 369.232 522.428 369.794 521.923 369.794C521.418 369.794 520.197 367.094 519.208 363.794H519.208ZM442.878 359.084C441.201 355.472 441.313 351.915 443.218 348.291C444.086 346.641 444.82 343.266 444.85 340.791C444.918 335.146 447.527 329.899 453.925 322.544C459.822 315.764 462.448 314.735 457.054 321.317C453.504 325.65 452.909 328.463 456.104 325.812C459.662 322.859 457.215 326.044 452.389 330.648C449.507 333.397 447.484 335.981 447.893 336.39C448.302 336.798 449.676 336.156 450.947 334.962C454.727 331.411 455.303 332.5 451.643 336.277C447.538 340.512 448.432 342.312 452.639 338.282C454.283 336.706 455.628 335.85 455.628 336.379C455.628 336.909 453.567 339.281 451.047 341.652C448.528 344.023 446.73 346.226 447.051 346.548C447.373 346.87 448.759 346.078 450.132 344.788C453.846 341.299 453.15 343.471 449.128 347.923C444.518 353.027 444.618 355.143 449.261 350.738L452.895 347.292L449.261 352.654C447.263 355.603 445.628 358.866 445.628 359.904C445.628 362.605 444.334 362.22 442.878 359.085L442.878 359.084ZM488.108 342.544C487.858 341.857 487.242 339.494 486.74 337.294L485.827 333.294L485.617 338.294L485.407 343.294L484.488 338.794C483.225 332.605 485.114 305.896 488.093 287.817C489.41 279.829 490.788 271.351 491.156 268.976C491.524 266.602 492.013 264.848 492.244 265.079C492.608 265.443 489.87 286.078 488.003 297.044C487.352 300.865 488.985 302.515 489.982 299.044C490.258 298.081 490.179 301.119 489.805 305.794C489.431 310.469 489.144 320.932 489.167 329.044C489.208 343.354 489.065 345.173 488.108 342.544L488.108 342.544ZM488.526 305.485C488.587 303.179 488.231 301.92 487.626 302.294C487.076 302.634 486.671 305.473 486.726 308.603C486.838 315.027 488.345 312.418 488.526 305.485H488.526ZM507.126 341.795C506.751 340.612 506.669 339.42 506.944 339.145C507.219 338.87 507.751 339.612 508.126 340.795C508.502 341.978 508.584 343.171 508.309 343.446C508.034 343.721 507.502 342.978 507.126 341.795ZM504.702 328.955C504.003 323.841 503.65 319.437 503.918 319.17C504.58 318.508 506.929 335.387 506.397 336.983C506.164 337.682 505.401 334.07 504.702 328.956L504.702 328.955ZM500.117 324.731C499.167 317.82 500.055 317.489 501.289 324.295C501.837 327.32 501.954 329.795 501.55 329.795C501.145 329.795 500.5 327.516 500.117 324.731H500.117ZM448.627 323.041C448.634 322.628 451.109 319.223 454.127 315.474C461.058 306.864 461.363 308.262 454.495 317.159C449.466 323.673 448.602 324.539 448.627 323.041H448.627ZM502.221 313.068C501.852 310.44 501.392 303.341 501.199 297.291C501.007 291.241 501.017 288.091 501.223 290.291C501.428 292.491 502.087 299.392 502.686 305.627C503.782 317.03 503.474 321.965 502.221 313.068L502.221 313.068ZM345.121 312.858C327.243 308.51 309.927 287.517 322.948 285.976C326.161 285.595 326.256 285.127 323.563 282.946C316.497 277.225 333.86 272.493 342.913 277.673C345.911 279.388 349.396 280.792 350.655 280.792C357.504 280.792 366.326 290.065 366.829 297.792C367.163 302.923 368.201 302.65 354.622 301.007C349.232 300.355 345.552 299.213 341.541 296.946C335.855 293.733 332.236 292.989 331.115 294.804C330.767 295.367 331.861 296.09 333.581 296.434C335.318 296.781 337.525 298.251 338.621 299.79C340.573 302.531 347.464 304.436 353.37 303.866C354.984 303.711 355.9 304.393 356.62 306.286C358.026 309.985 357.98 310.09 354.056 312.042C350.28 313.922 349.71 313.974 345.122 312.858L345.121 312.858ZM353.621 296.968C353.621 294.022 346.285 287.86 342.017 287.22C333.289 285.911 334.416 289.095 344.683 294.754C350.024 297.697 353.622 298.589 353.622 296.968H353.621ZM436.621 306.877C436.621 305.826 438.084 303.817 439.871 302.413C446.285 297.376 446.621 296.894 446.621 292.737C446.621 286.42 462.942 273.586 465.631 277.788C468.29 281.943 464.355 288.731 458.089 290.799C455.014 291.814 454.622 292.338 454.622 295.431C454.622 302.238 447.482 309.121 442.942 306.691C440.758 305.523 440.323 305.57 439.483 307.071C438.203 309.361 436.623 309.261 436.623 306.881L436.621 306.877ZM474.212 300.772C475.203 292.869 476.653 288.353 476 295.2C475.691 298.452 475.034 302.052 474.542 303.2C473.923 304.643 473.821 303.893 474.212 300.772H474.212ZM490.542 292.037C491.02 288.586 491.09 288.516 491.42 291.16C491.617 292.739 491.383 294.426 490.901 294.909C490.397 295.412 490.245 294.187 490.542 292.037V292.037ZM444.622 276.297C444.622 272.854 447.719 268.919 452.095 266.801C454.585 265.595 456.622 264.169 456.622 263.631C456.622 262.558 452.702 263.471 451.172 264.9C450.65 265.388 449.75 265.773 449.172 265.754C447.612 265.704 452.612 261.784 454.232 261.784C454.992 261.784 455.622 261.374 455.622 260.874C455.622 260.376 454.61 260.221 453.372 260.531C451.142 261.09 451.139 261.076 453.027 258.938C454.927 256.787 454.924 256.781 452.027 256.734C449.47 256.693 449.704 256.46 453.985 254.788C460.514 252.237 461.056 251.367 455.622 252.156C452.478 252.612 451.574 252.508 452.622 251.81C453.447 251.261 455.472 250.757 457.122 250.691C460.006 250.576 459.967 250.522 456.122 249.308L452.122 248.046L458.122 247.611C465.963 247.043 470.015 249.566 465.622 252.281C465.072 252.621 464.622 253.617 464.622 254.495C464.622 255.373 463.474 257.597 462.071 259.436L459.521 262.786H461.953C464.44 262.786 475.571 258.898 480.744 256.223C484.189 254.442 484.48 252.816 481.373 252.707C479.295 252.634 479.327 252.554 481.798 251.649C483.92 250.872 484.415 250.113 484.187 247.981C483.96 245.849 484.71 244.697 487.808 242.419C492.285 239.126 492.261 237.888 487.765 240.212C486.092 241.078 484.137 241.769 483.422 241.747C482.708 241.726 483.473 241.119 485.123 240.4C486.773 239.681 488.741 238.349 489.496 237.439C493.379 232.76 494.82 242.622 491.096 248.395C490.011 250.078 488.106 253.035 486.864 254.968C483.643 259.978 474.74 264.051 463.123 265.831C455.203 267.043 446.623 271.724 446.623 274.832C446.623 275.842 446.173 276.947 445.623 277.287C445.073 277.627 444.623 277.181 444.623 276.296L444.622 276.297ZM362.314 269.254C360.77 267.895 359.784 266.335 360.123 265.786C361.871 262.957 369.518 267.012 368.32 270.132C367.441 272.423 365.613 272.156 362.314 269.254V269.254ZM340.675 268.351C339.217 266.595 340.676 263.364 343.645 261.775C344.994 261.053 345.622 259.681 345.622 257.455C345.622 254.954 346.572 253.272 349.695 250.24C354.708 245.374 362.647 234.738 365.521 229.037C366.699 226.7 367.879 224.787 368.143 224.787C371.06 224.787 360.053 242.923 353.448 249L348.325 253.713L350.563 259C351.793 261.908 353.015 264.802 353.278 265.431C354.531 268.431 342.966 271.111 340.677 268.352L340.675 268.351ZM273.125 265.981C267.185 263.931 262.215 260.781 264.905 260.781C267.247 260.781 267.073 259.207 264.535 257.429C263.201 256.495 262.385 254.752 262.285 252.622C262.199 250.785 261.736 248.996 261.256 248.647C255.58 244.517 263.637 246.71 278.128 253.239C285.909 256.745 290.522 258.024 293.703 257.557C297.792 256.957 297.43 257.627 290.743 263.031C284.091 268.407 281.417 268.855 273.128 265.984L273.125 265.981ZM421.055 255.444C414.906 250.228 407.551 248.169 413.375 253.295L416.125 255.715L411.497 255.747C405.332 255.789 400.934 253.789 396.25 248.811C391.469 243.73 392.086 242.871 398.53 245.642C404.97 248.413 405.705 248.336 402.365 245.238C400.855 243.848 399.625 242.348 399.625 241.898C399.625 241.454 397.825 240.383 395.625 239.519C391.743 237.994 389.855 235.159 393.375 236.14C394.337 236.409 396.25 236.92 397.625 237.276C400.736 238.082 410.349 241.612 413.41 243.072C414.666 243.672 415.468 244.753 415.191 245.475C414.858 246.342 415.535 246.787 417.187 246.787C425.929 246.787 413.756 234.01 402.374 231.24C400.204 230.71 398.334 228.79 399.994 228.79C406.104 228.79 422.624 240.19 422.624 244.41C422.624 245.939 423.341 246.794 424.874 247.096L427.124 247.539L424.874 248.282C421.475 249.406 422.175 251.486 426.208 252.242C428.764 252.722 429.633 253.327 429.239 254.353C428.717 255.714 429.15 255.955 432.542 256.199C433.322 256.255 434.147 256.862 434.376 257.547C435.386 260.579 425.209 258.983 421.055 255.458L421.055 255.444ZM296.125 247.874C293.375 246.344 287.525 244.073 283.125 242.828C278.725 241.582 273.1 239.976 270.625 239.257C262.963 237.034 252.15 236.451 250.712 238.184C249.203 240.002 246.626 239.19 246.626 236.897C246.626 234.079 252.372 231.261 254.442 233.065C255.566 234.044 259.452 234.719 266.126 235.094C275.605 235.627 283.425 237.287 290.126 240.189C300.234 244.567 303.14 246.388 303.446 248.538C303.862 251.471 302.341 251.333 296.126 247.874L296.125 247.874ZM458.355 245.066C460.131 244.845 463.281 244.842 465.355 245.058C467.43 245.275 465.978 245.455 462.128 245.46C458.278 245.464 456.58 245.287 458.355 245.066V245.066ZM461.128 241.826C466.775 241.237 466.892 241.173 463.128 240.744C456.566 239.996 457.846 237.412 465.128 236.706C469.536 236.278 470.199 236.048 467.628 235.838C464.355 235.571 464.45 235.499 469.096 234.722C474.943 233.744 475.176 233.864 473.447 236.941C470.331 242.485 469.714 242.797 462.223 242.62L455.128 242.452L461.128 241.826L461.128 241.826ZM487.126 235.213C488.774 234.353 490.912 232.936 491.876 232.064C492.839 231.192 493.625 230.885 493.621 231.383C493.612 232.604 487.367 236.789 485.566 236.782C484.775 236.779 485.477 236.072 487.126 235.213V235.213ZM485.626 232.723C487.001 231.51 488.031 230.181 487.915 229.769C487.606 228.668 491.529 225.352 492.267 226.09C493.342 227.165 490.027 231.193 486.494 233.105L483.126 234.928L485.626 232.723V232.723ZM302.746 231.489C300.842 230.508 297.709 224.476 297.641 221.661C297.633 221.319 299.821 220.748 302.505 220.392C310.988 219.267 314.194 216.232 313.78 209.717C313.14 199.637 317.14 171.777 319.22 171.777C320.036 171.777 320.63 172.774 320.63 174.143C320.63 176.828 327.001 179.642 338.734 182.14C342.251 182.888 344.454 183.75 343.629 184.054C339.949 185.41 334.538 185.51 330.988 184.286C326.55 182.756 325.419 183.15 328.203 185.256C330.087 186.681 330.082 186.714 328.014 186.745C326.851 186.763 324.755 185.877 323.357 184.777C318.337 180.829 317.955 181.877 316.989 202.277L316.326 216.277L312.754 219.672C310.137 222.157 309.255 223.77 309.457 225.698C309.873 229.66 305.884 233.101 302.75 231.485L302.746 231.489ZM440.266 231.088C439.916 230.728 439.626 229.448 439.626 228.238C439.626 224.292 437.774 223.646 416.917 220.314C400.925 217.76 393.772 213.027 407.875 214.332C426.882 216.091 440.94 220.1 442.003 224.064C443.264 228.764 442.208 233.031 440.265 231.088L440.266 231.088ZM459.895 228.456C457.037 227.418 457.847 227.274 466.895 227.211C475.626 227.151 478.068 226.748 483.545 224.463C490.315 221.639 492.459 221.535 488.343 224.232C480.881 229.121 467.284 231.14 459.895 228.456L459.895 228.456ZM382.87 224.553C383.418 222.907 391.646 217.959 394 217.861C395.553 217.795 395.66 218.038 394.627 219.282C393.943 220.107 392.917 220.782 392.349 220.782C391.781 220.782 389.841 221.907 388.038 223.282C384.513 225.971 382.209 226.538 382.87 224.553H382.87ZM461.13 224.063C460.03 223.799 458.702 223.176 458.18 222.679C457.66 222.179 456.22 221.769 454.99 221.769C453.757 221.769 452.43 221.254 452.04 220.623C451.549 219.828 452.079 219.665 453.773 220.09C459.133 221.436 467.268 221.887 469.63 220.971C471.907 220.088 471.684 219.941 467.13 219.322C458.997 218.216 458.792 218.011 465.63 217.815C473.1 217.601 478.553 216.007 472.63 215.769C467.088 215.547 464.179 213.93 469.13 213.824C474.09 213.718 477.758 211.808 473.047 211.785C468.219 211.761 468.047 210.385 472.729 209.245C476.977 208.211 479.623 205.419 475.991 205.803C471.018 206.329 470.608 205.476 475.13 204.013L480.13 202.395L476.678 201.832L473.225 201.269L478.178 199.82L483.13 198.371L477.63 197.812L472.13 197.253L479.13 196.591C487.2 195.828 488.297 196.419 486.797 200.722C486.202 202.429 485.931 204.39 486.196 205.079C486.482 205.825 484.542 207.437 481.404 209.061L476.13 211.788L480.63 211.247L485.13 210.707L482.13 212.403C480.42 213.37 479.668 214.279 480.38 214.518C482.152 215.111 481.934 216.769 480.085 216.769C479.235 216.769 477.414 217.894 476.039 219.269C474.664 220.644 472.997 221.784 472.335 221.801C471.672 221.819 470.257 222.494 469.189 223.301C467.26 224.761 464.956 224.977 461.13 224.056L461.13 224.063ZM368.778 213.185C368.738 208.46 368.417 203.682 368.063 202.567C367.605 201.124 367.81 200.67 368.775 200.99C370.365 201.518 371.34 221.777 369.774 221.777C369.265 221.777 368.817 217.911 368.778 213.185V213.185ZM294.268 216.632C293.243 216.038 290.86 215.802 288.971 216.109C286.143 216.568 284.973 216.154 282.334 213.764L279.13 210.863L286.853 211.295C294.878 211.743 298.87 213.264 298.402 215.694C298.036 217.598 296.524 217.941 294.267 216.632L294.268 216.632ZM356.297 211.11C355.927 210.74 355.627 209.63 355.627 208.65C355.627 206.91 344.917 200.77 341.887 200.77C341.197 200.77 340.627 200.32 340.627 199.77C340.627 198.169 342.774 198.611 348.127 201.316C356.543 205.568 358.627 206.844 358.627 207.743C358.627 208.218 358.9 209.318 359.234 210.188C359.844 211.778 357.65 212.46 356.293 211.103L356.297 211.11ZM291.877 204.78C287.957 202.39 287.775 201.2 291.197 200.341C294.428 199.53 299.148 203.436 297.433 205.502C296.056 207.162 295.71 207.117 291.877 204.78V204.78ZM358.03 192.984C348.63 187.264 346.32 184.774 350.38 184.774C353.7 184.774 368.63 193.154 368.63 195.014C368.63 197.824 364.758 197.082 358.033 192.985L358.03 192.984ZM474.63 193.794C472.705 193.377 471.58 192.971 472.13 192.89C472.68 192.809 472.538 192.368 471.815 191.909C471.058 191.429 473.141 191.207 476.725 191.385C482.049 191.649 488.03 193.745 483.58 193.787C482.782 193.795 481.23 193.97 480.13 194.176C479.03 194.382 476.555 194.211 474.63 193.794L474.63 193.794ZM472.361 189.117C473.038 188.844 474.388 188.827 475.361 189.08C476.334 189.334 475.78 189.558 474.13 189.578C472.48 189.599 471.684 189.391 472.361 189.117V189.117ZM466.361 186.117C467.038 185.844 468.388 185.827 469.361 186.08C470.334 186.334 469.78 186.558 468.13 186.578C466.48 186.599 465.684 186.391 466.361 186.117V186.117ZM333.631 175.967C333.631 173.463 336.095 170.327 337.42 171.146C338.172 171.611 337.985 172.747 336.821 174.792C334.901 178.172 333.631 178.642 333.631 175.972L333.631 175.967ZM460.631 177.107C450.625 176.396 440.631 173.766 440.631 171.845C440.631 170.144 457.145 168.481 467.242 169.165C484.484 170.332 486.631 170.743 486.631 172.877C486.631 174.944 485.952 175.163 480.521 174.844C478.536 174.727 475.219 175.339 473.149 176.204C471.08 177.069 468.429 177.698 467.259 177.602C466.088 177.506 463.106 177.283 460.631 177.107V177.107ZM161.521 168.967C155.484 163.573 156.469 151.841 163.297 147.812C167.921 145.084 169.06 145.229 171.941 148.909C176.502 154.738 178.758 147.521 174.383 141.095C171.932 137.494 169.599 137.009 165.633 139.276C160.841 142.016 160.316 140.134 163.88 132.997C168.237 124.272 172.7 124.131 176.678 132.593C181.392 142.623 181.397 151.813 176.689 154.247C173.176 156.064 171.97 161.74 174.163 166.135C176.656 171.132 174.761 172.784 171.134 168.776C170.138 167.676 168.493 166.776 167.479 166.776C165.497 166.776 164.995 168.263 166.634 169.276C167.184 169.616 167.634 170.317 167.634 170.835C167.634 172.661 164.628 171.742 161.521 168.966L161.521 168.967ZM167.631 158.927C167.631 157.589 164.04 154.696 163.299 155.436C161.599 157.146 162.709 159.776 165.129 159.776C166.504 159.776 167.629 159.396 167.629 158.931L167.631 158.927ZM417.281 169.002C417.04 168.601 418.864 166.022 421.334 163.272C424.941 159.257 425.697 158.765 425.174 160.772C424.548 163.176 424.583 163.197 426.074 161.331C427.262 159.846 427.626 159.743 427.626 160.894C427.626 163.405 418.306 170.709 417.28 169.002L417.281 169.002ZM270.631 166.132C266.008 163.433 257.631 155.982 257.631 154.57C257.631 153.322 259.82 153.645 261.552 155.149C262.42 155.903 265.755 157.485 268.962 158.665C272.169 159.845 275.994 161.415 277.462 162.154C284.036 165.463 285.631 165.205 285.631 160.832C285.631 156.973 287.419 154.778 290.565 154.778C292.357 154.778 291.751 157.222 289.631 158.546C287.266 160.023 287.061 162.642 289.099 165.337C291.897 169.036 288.695 170.173 283.631 167.278C280.372 165.415 278.631 165.415 278.631 167.278C278.631 169.507 275.691 169.086 270.631 166.132L270.631 166.132ZM424.631 168.155C424.631 167.839 425.9 166.388 427.452 164.93C429.003 163.471 430.769 161.382 431.377 160.287C431.984 159.191 432.775 158.59 433.136 158.95C433.496 159.31 433.028 160.769 432.096 162.192C430.073 165.278 431.379 165.551 434.904 162.778C437.662 160.608 439.779 160.03 437.831 161.978C435.186 164.623 436.853 164.847 440.196 162.296C445 158.632 445.619 159.703 441.028 163.734C438.334 166.099 437.152 166.621 436.58 165.696C435.966 164.703 435.308 164.756 433.466 165.947C430.996 167.547 424.626 169.137 424.626 168.167L424.631 168.155ZM410.591 167.035C410.567 166.622 410.132 164.26 409.624 161.785C406.863 148.333 417.929 128.785 428.305 128.785C430.713 128.785 429.692 130.386 426.233 132.036C418.672 135.642 413.303 147.664 416.18 154.549C417.643 158.051 417.536 159.582 415.446 165.035C414.499 167.504 410.709 169.065 410.591 167.035L410.591 167.035ZM399.415 158.741C399.169 157.066 399.343 155.465 399.801 155.182C400.259 154.898 400.641 155.256 400.648 155.976C400.656 156.696 400.933 158.297 401.265 159.535C401.597 160.773 401.417 161.785 400.865 161.785C400.313 161.785 399.66 160.415 399.415 158.741V158.741ZM468.305 158.62C467.394 158.11 466.083 157.785 465.392 157.897C464.7 158.009 463.459 157.845 462.634 157.533C460.328 156.66 450.627 154.67 445.884 154.097C443.547 153.814 441.634 153.222 441.634 152.781C441.634 151.285 450.555 142.275 450.595 143.73C450.616 144.525 449.43 146.433 447.957 147.969C443.964 152.137 445.677 152.296 450.462 148.2C454.57 144.683 456.53 144.759 452.634 148.285C451.534 149.28 450.634 150.475 450.634 150.94C450.634 152.59 452.765 151.747 455.182 149.139C456.531 147.683 457.634 146.918 457.634 147.439C457.634 147.959 457.102 148.917 456.451 149.568C454.478 151.541 456.402 152.167 459.068 150.42C464.136 147.099 466.416 148.751 461.884 152.461C458.578 155.169 461.683 155.971 465.193 153.316C466.261 152.509 467.584 151.844 468.134 151.839C468.684 151.834 468.016 152.688 466.649 153.738C463.254 156.347 464.685 157.327 468.791 155.204C472.016 153.537 472.081 153.54 470.634 155.299C469.054 157.22 471.623 157.184 477.134 155.207C480.596 153.966 477.475 156.459 473.547 158.073C471.167 159.051 469.403 159.235 468.305 158.62L468.305 158.62ZM263.135 151.78C261.803 149.625 264.056 148.78 271.135 148.78C275.195 148.78 278.795 149.23 279.135 149.78C279.515 150.396 277.713 150.807 274.444 150.85C270.555 150.902 269.67 151.15 271.135 151.78C272.644 152.429 271.984 152.657 268.444 152.71C265.864 152.75 263.474 152.33 263.134 151.78L263.135 151.78ZM434.155 151.62C432.553 147.593 438.445 141.314 443.889 141.246C447.622 141.2 447.31 142.431 442.121 148.223C437.502 153.378 434.994 153.955 438.366 149.087C441.942 143.926 442.092 143.48 439.759 144.937C438.609 145.655 437.027 147.826 436.242 149.761C435.139 152.48 434.665 152.902 434.155 151.62L434.155 151.62ZM425.906 149.814C419.431 143.781 426.133 133.833 437.737 132.253C441.466 131.745 441.833 131.838 440.139 132.864C437.236 134.622 437.246 134.601 438.552 136.175C439.527 137.35 438.911 138.455 435.229 142.138C432.742 144.625 430.419 147.811 430.065 149.219C429.293 152.296 428.667 152.386 425.906 149.814V149.814ZM478.636 146.344C477.261 145.58 474.561 144.513 472.636 143.973C469.145 142.992 469.149 142.989 474.279 142.887C477.997 142.813 479.581 143.2 479.998 144.285C480.337 145.17 481.839 145.785 483.664 145.785C485.469 145.785 486.497 146.201 486.136 146.785C485.264 148.196 481.583 147.98 478.636 146.344V146.344ZM294.066 141.934C289.626 139.374 283.626 135.934 280.726 134.284C277.834 132.634 272.917 129.775 269.8 127.93C263.941 124.464 264.086 124.472 257.383 127.268C256.351 127.698 255.633 127.558 255.633 126.927C255.633 125.145 262.907 120.784 265.879 120.784C267.409 120.784 269.516 120.25 270.561 119.597C272.641 118.298 286.015 124.2 300.921 132.996C304.888 135.336 309.859 138.041 311.969 139.007C316.784 141.212 316.369 142.515 310.094 144.898C303.587 147.369 303.458 147.345 294.058 141.933L294.066 141.934ZM461.736 139.865C460.856 139.308 462.672 139.102 466.587 139.314C470.027 139.5 473.097 139.908 473.409 140.219C474.349 141.159 463.249 140.822 461.736 139.865H461.736ZM407.636 130.594C407.636 129.257 408.297 127.29 409.104 126.222C410.497 124.381 410.574 124.442 410.604 127.409C410.622 129.129 409.961 131.096 409.136 131.781C407.873 132.829 407.636 132.642 407.636 130.594V130.594ZM404.676 127.035C404.629 124.333 403.804 124.174 402.079 126.533C401.376 127.495 400.469 127.95 400.065 127.546C399.66 127.141 401.006 125.23 403.054 123.298C405.103 121.365 406.363 119.785 405.854 119.785C405.345 119.785 403.715 120.91 402.231 122.285C397.632 126.547 394.751 124.922 398.194 120.007C400.461 116.77 398.903 117.288 395.538 120.89C393.015 123.591 392.637 123.737 392.637 122.005C392.637 118.683 397.38 116.422 404.751 116.231L411.365 116.059L410.333 119.422C409.765 121.271 408.905 122.785 408.421 122.785C407.936 122.785 406.904 124.247 406.127 126.035C404.942 128.761 404.709 128.922 404.676 127.035H404.676ZM346.046 118.785C346.954 117.41 348.386 114.773 349.227 112.926C350.069 111.079 350.99 109.8 351.273 110.083C351.937 110.747 349.318 115.573 346.55 118.785L344.395 121.285L346.046 118.785V118.785ZM231.736 72.7715C223.665 69.8686 222.298 68.2716 222.976 62.5345C223.792 55.6302 229.947 49.0065 233.505 51.2055C234.052 51.5434 237.287 52.0521 240.695 52.3359C249.195 53.0449 257.635 58.3499 257.635 62.9809C257.635 64.9281 256.139 65.4091 255.135 63.7847C254.065 62.0544 251.47 62.6974 250.912 64.831C250.618 65.9564 248.298 67.9605 245.756 69.2844C241.544 71.4785 241.378 71.6957 243.885 71.7381C246.888 71.789 247.57 73.2119 245.053 74.1777C242.202 75.2716 237.229 74.7464 231.739 72.7719L231.736 72.7715ZM349.766 417.892C352.002 414.812 368.746 409.703 380.501 408.515C389.592 407.595 391.333 407.111 394.036 404.754C395.742 403.265 399.838 400.347 403.138 398.268C406.438 396.189 411.5 392.494 414.388 390.057L419.638 385.626L419.642 376.953C419.652 367.273 421.822 361.773 425.632 361.773C428.746 361.773 428.114 358.395 424.201 354.124L420.756 350.363L414.951 356.013C404.786 365.908 390.581 375.118 382.063 377.337C378.872 378.169 375.786 379.222 375.204 379.678C370.752 383.171 340.128 390.964 331.866 390.707C326.268 390.533 313.34 392.228 311.475 393.38C309.885 394.35 305.645 392.82 305.645 391.27C305.645 388.869 309.752 387.042 316.645 386.377C328.071 385.274 340.645 377.122 340.645 370.817C340.645 365.163 334.194 366.868 319.569 376.387C304.375 386.276 298.057 393.595 303.489 395.015C304.989 395.407 305.446 396.843 305.938 402.718C306.709 411.918 306.674 411.884 318.331 414.616C323.729 415.88 329.945 417.502 332.145 418.22C338.631 420.336 348.121 420.151 349.773 417.877L349.766 417.892ZM301.636 409.341C301.636 407.485 299.964 406.442 299.136 407.783C297.871 409.829 296.636 407.576 296.636 403.224C296.636 397.965 295.726 397.698 292.177 401.916C288.601 406.166 289.214 408.038 294.645 409.452C300.724 411.035 301.636 411.021 301.636 409.342L301.636 409.341ZM428.056 406.904C428.355 406.421 427.959 404.733 427.177 403.154C426.395 401.575 424.828 398.11 423.695 395.455L421.635 390.627L418.883 392.758C410.871 398.963 408.447 400.605 405.912 401.544C397.823 404.542 396.63 405.087 396.63 405.787C396.63 406.206 402.749 406.57 410.227 406.596C417.706 406.622 424.081 406.9 424.394 407.213C425.259 408.078 427.444 407.893 428.055 406.904L428.056 406.904ZM283.566 403.534C284.049 402.296 286.063 399.733 288.041 397.838C290.019 395.942 291.638 394.03 291.638 393.588C291.638 391.927 287.748 392.862 287.178 394.659C286.85 395.691 283.895 397.967 280.61 399.718C274.201 403.134 273.327 404.392 276.888 405.078C281.597 405.985 282.709 405.728 283.566 403.534V403.534ZM264.2 397.864C264.158 395.195 263.393 393.152 261.806 391.462C260.495 390.068 259.234 387.192 258.926 384.897C258.39 380.904 256.25 377.839 254.923 379.165C254.557 379.531 255.696 384.208 257.456 389.557C259.215 394.907 260.65 399.846 260.646 400.533C260.642 401.221 261.453 401.783 262.45 401.783C263.902 401.783 264.25 401.004 264.2 397.863V397.864ZM257.64 399.384C257.64 397.285 250.947 378.385 247.053 369.489C245.183 365.199 243.643 360.619 243.643 359.299C243.643 356.973 241.796 347.889 239.473 338.785C235.793 324.368 230.648 319.567 230.63 330.535C230.622 335.681 229.782 341.306 228.13 347.278C224.912 358.914 224.913 358.927 229.833 365.941C233.964 371.83 234.006 371.977 232.833 376.364C231.106 382.822 231.254 395.699 233.064 396.393C234.678 397.012 253.223 400.483 255.893 400.665C256.856 400.731 257.643 400.153 257.643 399.382L257.64 399.384ZM104.11 397.837C104.964 396.455 101.425 394.852 95.9312 394.133C90.2171 393.385 90.8789 394.607 97.4616 396.96C103.164 398.998 103.376 399.026 104.11 397.837V397.837ZM228.84 389.774C230.385 377.63 230.157 372.321 227.957 369.221C226.812 367.607 225.71 365.419 225.508 364.358C224.526 359.193 221.265 364.186 218.928 374.433C217.496 380.709 217.501 380.742 220.463 386.506C222.096 389.685 223.704 393.107 224.034 394.11C225.325 398.024 228.11 395.511 228.84 389.773V389.774ZM103.91 393.189C105.366 391.734 103.043 389.686 98.36 388.295C92.491 386.545 88.64 386.345 88.64 387.775C88.64 388.325 89.2025 388.781 89.89 388.788C90.5775 388.795 93.39 389.885 96.14 391.209C101.44 393.762 102.94 394.142 103.904 393.177L103.91 393.189ZM220.64 392.639C220.64 391.637 214.644 379.902 208.959 369.779C195.752 346.259 195.154 345.316 169.5 307.529C163.782 299.107 160.381 296.935 163.236 303.529C164.939 307.46 165.917 310.675 168.179 319.779C168.931 322.804 170.461 327.979 171.579 331.279C172.697 334.579 175.455 343.354 177.707 350.779C185.517 376.522 190.059 384.665 198.346 387.783C209.899 392.129 220.639 394.469 220.639 392.64L220.64 392.639ZM280.64 391.743C281.915 390.889 281.765 390.424 279.64 388.647C273.569 383.571 272.35 378.815 275.407 372.137C280.057 361.979 282.383 360.857 288.201 365.966L291.831 369.153L291.139 363.616C290.298 356.883 292.303 348.09 296.77 338.925C299.394 333.543 299.695 332.194 298.741 330.101C296.504 325.19 292.693 304.049 292.658 296.35L292.638 292.43L288.214 297.048C282.961 302.529 276.633 304.8 266.707 304.764C259.831 304.739 257.815 304.338 245.774 300.603L238.409 298.318L235.038 302.303C233.184 304.495 231.661 306.742 231.653 307.297C231.625 309.148 227.301 311.278 226.775 309.7C226.526 308.951 218.63 300.912 209.23 291.834C190.938 274.17 177.986 261.137 173.138 255.517C171.488 253.604 165.599 247.327 160.052 241.57C149.611 230.732 140.308 219.157 134.657 209.973C132.458 206.399 130.917 204.851 129.934 205.228C129.132 205.536 128.287 205.788 128.057 205.788C125.667 205.788 133.105 230.205 140.851 247.788C143.636 254.111 144.998 257.407 147.669 264.288C153.055 278.164 158.007 287.145 166.327 298.123C175.751 310.558 175.978 310.869 180.328 317.288C193.506 336.735 203.943 354.162 211.319 369.038C215.19 376.846 216.14 377.303 217.023 371.785C217.375 369.583 218.878 365.305 220.363 362.276C223.047 356.804 223.053 356.743 221.359 352.171C220.421 349.642 219.978 347.058 220.375 346.43C220.799 345.759 221.311 346.491 221.617 348.206C222.594 353.675 224.288 351.967 226.613 343.167C228.908 334.479 229.002 328.245 227.014 316.538C225.2 305.859 238.565 321.721 241.154 333.32C242.382 338.822 244.794 345.788 245.469 345.779C246.845 345.762 249.675 334.078 249.657 328.488C249.637 322.328 251.737 316.788 254.087 316.788C254.858 316.788 256.121 316.157 256.893 315.385C260.155 312.123 275.048 308.809 286.505 308.796C296.445 308.784 292.967 311.315 281.883 312.16C277.07 312.527 271.333 313.462 269.133 314.238C266.933 315.014 263.884 315.917 262.357 316.244C258.027 317.174 255.637 320.204 255.637 324.784C255.637 329.565 255.6 329.555 259.573 325.844C262.747 322.879 267.296 322.177 270.461 324.163C271.308 324.694 272.593 324.235 274.026 322.889C276.677 320.398 278.09 320.163 277.25 322.353C276.801 323.521 277.323 323.39 279.295 321.839C282.391 319.404 283.265 319.743 281.654 322.754C281.023 323.932 280.669 325.38 280.867 325.974C281.404 327.583 284.637 323.979 284.637 321.772C284.637 320.744 285.087 319.624 285.637 319.284C286.187 318.944 286.637 319.609 286.637 320.76C286.637 322.521 286.946 322.69 288.572 321.819C292.888 319.51 293.836 320.857 289.901 323.708C270.983 337.412 255.538 377.419 264.944 388.354C267.963 391.864 277.414 393.908 280.637 391.748L280.64 391.743ZM218.64 356.219C218.64 355.141 217.74 353.697 216.64 353.01C215.54 352.323 214.64 351.106 214.64 350.305C214.64 349.504 213.74 348.367 212.64 347.778C211.54 347.19 210.633 345.711 210.625 344.493C210.604 341.515 209.121 339.191 208.196 340.688C207.066 342.508 205.636 340.888 205.636 337.778C205.636 336.193 205.186 334.618 204.636 334.278C204.086 333.938 203.636 334.361 203.636 335.219C203.636 336.076 203.227 336.778 202.727 336.778C201.635 336.778 199.156 323.672 199.871 321.678C200.147 320.908 200.708 322.415 201.118 325.028C201.873 329.843 203.149 331.218 203.902 328.028C204.192 326.803 204.535 327.178 205.047 329.278C206.57 335.524 207.488 336.576 207.666 332.278L207.832 328.278L209.031 332.773C209.779 335.58 210.869 337.392 211.933 337.596C212.869 337.777 213.636 338.762 213.636 339.786C213.636 343.49 215.761 347.533 216.567 345.362C217.091 343.95 217.696 345.133 218.867 349.862C219.825 353.732 220.094 356.655 219.546 357.228C218.996 357.808 218.646 357.428 218.646 356.218L218.64 356.219ZM196.139 325.774C195.742 323.427 195.039 322.031 194.439 322.402C193.055 323.257 191.651 320.839 191.755 317.778L191.839 315.278L192.517 317.704C192.89 319.038 193.808 320.334 194.556 320.584C195.377 320.857 195.64 320.589 195.22 319.908C194.836 319.286 194.939 318.778 195.449 318.778C195.959 318.778 196.616 320.466 196.909 322.528C197.203 324.591 197.76 327.066 198.148 328.028C198.545 329.012 198.407 329.778 197.835 329.778C197.274 329.778 196.511 327.976 196.139 325.774L196.139 325.774ZM302.009 383.438C315.992 372.338 336.574 362.101 341.353 363.869C349.588 366.915 346.086 378.393 335.035 384.578C328.993 387.959 342.638 386.425 358.64 381.924C371.755 378.235 389.003 371.765 393.14 368.983C395.34 367.503 398.335 365.767 399.796 365.124C408.376 361.348 418.491 348.019 417.071 342.361C416.709 340.92 416.975 338.385 417.661 336.728C419.266 332.853 418.262 331.915 414.849 334.1C398.499 344.571 373.715 351.121 350.139 351.202C333.704 351.259 326.658 349.192 310.936 339.704C302.352 334.524 302.139 334.886 302.139 354.685C302.139 363.262 301.76 370.865 301.298 371.582C299.517 374.338 298.261 372.073 298.516 366.567C298.658 363.495 298.342 360.714 297.812 360.386C296.287 359.444 295.631 362.439 296.298 367.303C296.714 370.338 296.545 371.78 295.775 371.78C294.192 371.78 294.359 373.91 296.236 377.673C297.803 380.814 297.502 385.78 295.745 385.78C295.274 385.78 294.597 384.317 294.24 382.53C292.196 372.309 283.369 365.536 280.165 371.73C273.975 383.7 290.513 392.565 302.009 383.439L302.009 383.438ZM250.62 359.337C251.245 357.444 254.866 351.707 258.668 346.587C268.065 333.933 267.888 332.514 257.43 336.631C251.86 338.831 243.28 362.781 248.06 362.781C248.842 362.781 249.994 361.233 250.618 359.34L250.62 359.337ZM264.84 351.027C267.235 345.584 273.717 335.573 277.471 331.52C279.197 329.656 279.696 328.435 279.01 327.749C276.09 324.829 265.366 338.646 262.611 348.875C262.014 351.09 261.278 353.549 260.975 354.339C259.502 358.178 263.02 355.162 264.84 351.027L264.84 351.027ZM228.461 302.444C228.701 301.224 228.081 300.774 226.181 300.774C223.857 300.774 223.693 300.998 224.675 302.835C225.921 305.163 227.98 304.949 228.466 302.441L228.461 302.444ZM233.255 298.245L235.601 295.713L233.321 294.846C228.891 293.156 217.141 293.106 217.141 294.776C217.141 295.952 218.604 296.298 223.907 296.376C227.628 296.431 230.966 296.768 231.324 297.126C231.682 297.484 229.424 297.776 226.308 297.776C219.712 297.776 218.647 299.482 224.891 300.044C227.228 300.255 229.539 300.506 230.026 300.602C230.513 300.698 231.967 299.637 233.258 298.245L233.255 298.245ZM218.067 291.891C218.368 291.404 217.484 290.789 216.102 290.525C213.603 290.048 212.11 290.916 213.331 292.137C214.273 293.079 217.434 292.915 218.067 291.891L218.067 291.891ZM221.647 288.771C221.647 288.221 221.008 287.771 220.228 287.771C219.448 287.771 218.098 287.498 217.228 287.164C216.358 286.834 215.648 287.024 215.648 287.594C215.648 288.566 217.556 289.395 220.398 289.658C221.086 289.722 221.648 289.324 221.648 288.774L221.647 288.771ZM212.647 282.839C212.647 281.672 208.725 280.36 207.85 281.234C207.101 281.984 209.562 283.733 211.397 283.756C212.084 283.764 212.647 283.351 212.647 282.839V282.839ZM526.267 269.536C530.501 266.257 532.047 264.74 535.988 259.993L539.539 255.716L538.026 250.993C537.194 248.396 536.267 245.483 535.966 244.521C535.578 243.281 535.966 242.771 537.295 242.771C540.73 242.771 544.727 238.1 543.67 235.32C541.991 230.904 537.706 222.922 536.67 222.282C536.11 221.936 535.665 220.892 535.681 219.961C535.702 218.731 536.557 219.202 538.819 221.691C541.768 224.936 541.999 225.016 543.29 223.25C545.397 220.369 545.066 219.219 538.651 207.11C532.021 194.61 532.081 194.76 533.981 194.76C534.719 194.76 536.518 196.898 537.978 199.51C541.611 206.007 543.329 208.071 544.501 207.346C545.466 206.75 532.599 167.268 530.926 165.692C530.494 165.285 524.29 161.94 517.14 158.26C509.99 154.579 503.649 151.165 503.048 150.673C501.354 149.284 500.64 150.703 500.64 155.459C500.64 158.705 501.088 159.987 502.39 160.462C508.679 162.758 527.758 181.592 526.945 184.701C526.624 185.931 527.181 186.98 528.546 187.71C531.493 189.287 531.216 191.122 528.146 190.351C525.504 189.688 509.971 180.541 502.972 175.526C492.403 167.953 495.319 181.311 506.599 192.14C508.821 194.274 510.64 196.391 510.64 196.844C510.64 197.297 512.752 198.602 515.335 199.744C520.621 202.082 526.64 206.378 526.64 207.812C526.64 209.402 525.552 208.978 513.638 202.755C496.485 193.794 494.241 202.159 510.131 215.828C512.326 217.716 514.998 220.048 516.069 221.011C517.141 221.973 518.381 222.761 518.826 222.761C521.526 222.761 532.74 235.994 531.279 237.456C530.376 238.359 527.986 236.009 526.725 232.977C526.104 231.483 523.693 229.173 521.368 227.843C519.043 226.514 514.166 223.026 510.53 220.093C502.251 213.414 499.454 213.283 501.825 219.683C502.318 221.015 502.467 222.77 502.155 223.583C501.327 225.741 505.04 230.524 512.277 236.622C515.777 239.571 518.642 242.496 518.645 243.122C518.647 243.748 519.973 246.256 521.59 248.694C523.208 251.133 524.305 253.495 524.027 253.944C522.925 255.727 520.981 254.594 519.851 251.511C515.701 240.181 510.641 240.171 510.641 251.491C510.641 260.116 514.263 267.752 519.641 270.469C522.915 272.122 522.902 272.124 526.256 269.527L526.267 269.536ZM128.037 195.506C129.304 193.497 128.497 192.503 126.287 193.351C125.383 193.698 124.643 194.871 124.643 195.958C124.643 198.204 126.49 197.958 128.037 195.507V195.506ZM525.667 153.597C522.314 138.016 511.013 131.909 511.841 146.126L512.139 151.244L519.123 155.438C527.327 160.366 527.135 160.42 525.667 153.597H525.667ZM324.887 100.517C325.138 98.73 325.699 96.4441 326.134 95.4378C326.809 93.8733 326.508 93.6559 324.054 93.9378C320.115 94.3905 318.458 98.7948 321.121 101.737C323.646 104.527 324.355 104.297 324.887 100.517ZM338.106 93.8366C338.422 93.3246 338.194 92.605 337.6 92.2375C336.14 91.3325 329.65 92.6185 329.65 93.8125C329.65 95.0433 337.348 95.0649 338.107 93.8363L338.106 93.8366ZM323.206 84.2656C321.796 82.1876 320.646 79.8496 320.646 79.0686C320.646 78.2886 320.196 77.9276 319.646 78.2676C317.677 79.4841 318.593 84.8057 321.223 87.4358C325.05 91.2631 326.446 89.0351 323.209 84.2652L323.206 84.2656ZM307.021 79.9065C306.677 78.1905 307.088 75.8085 308.046 73.9562C309.856 70.4532 309.986 69.7672 308.826 69.7672C307.053 69.7672 303.574 77.651 304.217 80.2122C305.14 83.8916 307.759 83.6054 307.019 79.9059L307.021 79.9065ZM361.641 54.3145C361.641 49.0805 353.511 43.4965 350.411 46.5995C349.521 47.4905 349.861 47.7675 351.851 47.7675C354.341 47.7675 359.641 52.5865 359.641 54.8445C359.641 55.3525 360.091 55.7675 360.641 55.7675C361.191 55.7675 361.641 55.1137 361.641 54.3146V54.3145ZM335.928 46.7793C336.681 43.8967 332.898 39.3095 331.039 40.8522C329.076 42.4815 329.162 47.1652 331.141 46.4058C332.055 46.0552 332.641 46.4042 332.641 47.2988C332.641 49.4952 335.329 49.0704 335.928 46.7793V46.7793ZM244.94 42.1359C245.287 41.7886 245.069 40.567 244.456 39.4214C243.843 38.2757 243.297 35.9724 243.242 34.3029C243.143 31.3054 238.642 28.861 238.642 31.8049C238.642 32.452 237.967 32.7224 237.142 32.4058C234.693 31.4661 235.402 34.434 238.142 36.5888C239.517 37.6704 240.642 39.2405 240.642 40.078C240.642 42.03 243.62 43.4559 244.94 42.1359L244.94 42.1359ZM316.14 21.7669C316.48 21.2169 317.856 20.7669 319.199 20.7669C322.734 20.7669 322.193 18.896 318.172 17.2159C311.866 14.581 304.838 15.8909 307.577 19.1907C308.297 20.0577 309.697 20.7667 310.697 20.7667C311.697 20.7667 312.793 21.2167 313.133 21.7667C313.473 22.3167 314.148 22.7667 314.633 22.7667C315.118 22.7667 315.793 22.3167 316.133 21.7667L316.14 21.7669ZM280.059 16.8972C280.354 16.4189 282.406 16.3585 284.618 16.7629C287.709 17.3282 288.639 17.1824 288.639 16.1326C288.639 15.3814 289.089 14.7106 289.639 14.6419C290.189 14.5731 291.089 14.4044 291.639 14.2669C292.189 14.1294 292.919 13.9606 293.262 13.8919C293.604 13.8231 293.36 13.1357 292.72 12.3643C290.87 10.1393 274.19 8.33408 267.39 9.62488C266.55 9.78528 266.34 13.7673 267.18 13.7673C267.474 13.7673 268.824 13.0405 270.18 12.1523C272.449 10.6656 272.645 10.6656 272.645 12.1523C272.645 13.0819 273.465 13.7673 274.577 13.7673C275.64 13.7673 276.796 14.6673 277.145 15.7673C277.809 17.8601 279.149 18.3789 280.064 16.8976L280.059 16.8972ZM159.139 526.807L146.139 526.267L157.139 525.51C163.189 525.093 170.614 525.149 173.639 525.635C176.664 526.12 178.163 526.574 176.97 526.642C175.778 526.711 174.203 526.896 173.47 527.054C172.738 527.212 166.289 527.099 159.138 526.804L159.139 526.807ZM132.556 521.386C132.326 521.166 127.856 520.736 122.636 520.426C107.491 519.518 108.327 518.195 123.887 518.446C130.074 518.546 143.799 518.741 154.386 518.878C164.974 519.015 173.636 519.428 173.636 519.796C173.636 521.128 133.938 522.658 132.553 521.38L132.556 521.386ZM112.136 514.036C98.0816 513.212 86.0916 510.842 88.4866 509.362C89.0959 508.986 90.5152 509.17 91.6406 509.773C92.7661 510.375 98.5129 511.017 104.412 511.201C153.874 512.736 163.789 513.208 164.31 514.052C164.821 514.88 126.336 514.868 112.136 514.036V514.036ZM395.126 509.872C394.583 508.827 392.633 505.871 390.792 503.301C388.952 500.732 387.632 498.443 387.86 498.215C388.3 497.765 397.64 510.125 397.64 511.155C397.64 512.472 396.062 511.661 395.127 509.865L395.126 509.872ZM395.636 502.072C388.256 491.102 388.066 490.762 389.556 490.762C390.151 490.762 390.647 491.324 390.657 492.012C390.667 492.699 391.766 494.612 393.098 496.262C397.902 502.21 403.639 510.224 403.639 510.985C403.639 513.173 401.539 510.832 395.639 502.068L395.636 502.072ZM401.577 502.015C393.487 489.55 390.597 484.47 391.255 483.865C391.615 483.535 392.099 483.794 392.331 484.442C393.209 486.888 402.729 499.765 403.661 499.765C405.156 499.765 404.906 499.063 401.093 492.559C395.953 483.788 397.349 483.355 403.163 491.916C405.898 495.943 409.148 500.364 410.385 501.741C413.094 504.755 413.172 505.637 410.885 507.373C407.684 509.803 406.004 508.836 401.577 502.015L401.577 502.015ZM413.348 485.476C398.794 460.786 391.406 449.863 384.604 442.976C381.731 440.067 379.637 437.43 379.951 437.116C381.525 435.541 409.369 466.457 413.271 474.113C415.828 479.131 422.635 496.745 422.635 498.345C422.635 500.401 419.964 496.701 413.348 485.476L413.348 485.476ZM305.878 61.5161C305.323 60.8286 303.439 56.8095 301.691 52.5849C299.943 48.3602 297.867 44.3676 297.078 43.7125C296.288 43.0575 295.638 41.8465 295.638 41.0215C295.638 39.791 295.911 39.7487 297.162 40.7864C299.296 42.5574 300.177 41.2458 298.834 38.2982C298.213 36.936 296.565 35.5354 295.172 35.1856C293.782 34.8356 292.642 34.0966 292.642 33.5416C292.642 31.9353 302.824 35.0127 305.868 37.5391C306.67 38.2047 307.627 38.4486 307.994 38.081C308.362 37.7134 309.265 38.2361 310 39.2425C310.736 40.2489 311.829 40.7691 312.429 40.3985C313.028 40.0279 313.953 40.5004 314.484 41.4485C315.257 42.8301 315.738 42.9321 316.906 41.9622C318.123 40.9529 318.644 41.4849 320.051 45.1691C322.371 51.2561 323.191 56.7661 321.771 56.7661C321.151 56.7661 320.641 57.6361 320.641 58.6991C320.641 61.0285 317.645 62.1459 313.714 61.2825C312.068 60.9209 310.551 61.1034 310.177 61.7079C309.292 63.1409 307.11 63.0438 305.877 61.5165L305.878 61.5161Z" fill="#8B542F"/>
</svg>
