<svg width="359" height="514" viewBox="0 0 359 514" fill="none" xmlns="http://www.w3.org/2000/svg">
<path d="M13.6643 0.000675345C13.3843 0.0340003 13.5252 1.15938 14.3068 3.05457C15.0004 4.73706 15.7477 7.7415 15.9662 9.7312C16.4811 14.4211 17.5125 16.7618 21.2451 21.7111C25.1711 26.9162 22.9215 27.8423 18.5181 22.8336C16.5461 20.5911 15.3388 19.8546 13.7667 19.9364C12.4239 20.0053 12.1397 20.1776 12.9845 20.4119C13.7143 20.6144 15.1576 22.2107 16.192 23.9578C20.1125 30.5784 22.4 33.5212 24.0222 34.0312C25.7882 34.586 27.0515 40.6613 26.9901 48.3096L26.9666 51.2541L26.1363 48.6697C25.2379 45.8715 16.9339 33.9502 17.5408 36.3297C20.8634 49.358 23.2322 54.2693 26.1917 54.2693C27.4742 54.2693 27.6157 54.6475 27.6157 58.0754C27.6157 60.1688 27.7795 62.4923 27.9794 63.2374C28.2094 64.0963 27.9336 64.7993 27.2267 65.156C26.6126 65.4653 25.2668 66.8505 24.2359 68.2332L22.3615 70.7488L20.9549 67.4631C19.9186 65.0405 19.4544 62.3475 19.1883 57.2105C18.8264 50.2255 18.5319 49.196 14.5031 40.7965C13.0218 37.7089 13.9635 51.8546 15.4851 55.5435L16.7906 58.7077L14.9757 56.8607C13.978 55.8441 12.46 53.6947 11.602 52.0855C9.72995 48.5749 5.43072 44.973 2.23821 44.2425C-0.356438 43.6489 -0.63101 44.2761 1.08206 46.8915C1.72279 47.8693 2.87437 49.9765 3.64112 51.572C5.11581 54.6415 8.43537 56.8194 11.676 56.8417C13.7973 56.8573 15.6212 58.4889 17.3138 61.8901L18.518 64.3109L15.2346 63.9206C12.1312 63.5527 7.76453 66.0399 7.74888 68.1841C7.74045 69.348 14.8263 69.8993 17.3421 68.9302C21.0205 67.513 23.3995 73.1928 22.5517 81.3709L22.191 84.8522L23.9276 81.8895L25.6635 78.9243L27.5886 81.2434C28.6477 82.5176 29.858 83.56 30.2771 83.56C30.6968 83.56 31.6018 86.1755 32.2894 89.3716C32.977 92.5763 33.9778 96.8838 34.5119 98.9513C35.4325 102.509 35.4211 102.854 34.3132 105.542C31.8089 111.615 31.2724 123.323 33.3829 125.83C33.8537 126.39 34.2391 128.001 34.2391 129.414V131.981L31.9811 129.155C29.9814 126.648 29.681 125.744 29.3576 121.229C29.0307 116.672 28.7224 115.759 26.4234 112.554C24.1745 109.418 23.9113 109.246 24.3099 111.124C24.5604 112.313 24.9368 116.379 25.1463 120.17C25.6702 129.646 28.2822 133.523 34.1404 133.523C35.1267 133.523 35.5277 136.538 34.8708 139.011C34.5113 140.363 33.8062 141.276 33.1234 141.276C31.3073 141.276 30.4391 143.464 30.8888 146.893C31.1947 149.228 30.9984 150.52 30.0513 152.424C29.2414 154.052 28.7206 156.74 28.5411 160.229C28.1076 168.654 26.9846 171.601 26.1609 166.475C25.952 165.174 25.0753 160.936 24.2124 157.05L22.6432 149.995L24.2262 146.126C26.0278 141.733 26.0615 141.199 25.1204 132.145L24.4322 125.52L23.0129 130.921C22.2326 133.893 21.5738 138.313 21.5498 140.742L21.5064 145.153L20.3443 140.467C19.7048 137.891 18.6011 134.901 17.8912 133.816C15.3424 129.939 17.9026 115.01 21.9393 110.22C23.9914 107.782 25.911 97.8142 24.0029 99.4941C23.6717 99.787 23.4007 100.743 23.4007 101.622C23.4007 102.57 22.3235 104.189 20.7537 105.611C16.6502 109.324 15.9132 111.796 15.9415 121.738C15.971 132.282 15.3574 130.93 14.176 117.835C13.1247 106.196 13.2704 104.809 15.8963 101.51C16.9615 100.166 18.1218 98.0123 18.4747 96.7029C19.3508 93.4637 19.7404 80.2364 18.9004 82.2626C18.5608 83.0819 17.5137 85.4475 16.5749 87.5194C15.6362 89.5956 14.4867 93.9116 14.0195 97.1164C13.5528 100.321 13.0139 103.526 12.8212 104.232C12.3179 106.093 9.60525 96.7632 9.57514 93.0674L9.55166 90.0866L8.34739 93.4637C5.98107 100.106 7.32618 111.15 11.0781 115.862C12.764 117.99 13.2873 119.506 13.9912 124.348C14.4633 127.596 15.1473 130.68 15.5122 131.197C16.469 132.567 16.3275 134.419 15.3087 133.859C14.8318 133.6 13.8352 131.292 13.094 128.733C10.7433 120.618 6.10866 117.249 7.4466 124.632C8.90798 132.687 9.76301 133.997 14.3687 135.246C18.3163 136.323 19.0587 137.176 19.5103 141.156C19.8487 144.128 20.2461 145.816 22.7871 155.06C24.4912 161.271 25.0777 164.528 25.8056 171.859C26.1826 175.65 26.5818 179.432 26.695 180.259C27.1508 183.61 25.1054 181.499 23.7746 177.243C22.3428 172.669 20.9296 170.395 17.7244 167.474C15.9879 165.889 15.9668 165.889 16.322 167.569C18.4693 177.735 21.3396 182.938 25.445 184.118L27.1887 184.618L26.8088 194.715C26.2578 209.377 25.4323 211.798 24.3172 202.011C24.101 200.116 22.7902 195.705 21.404 192.199L18.8847 185.833L18.3603 190.734C17.6823 197.075 19.0202 202.468 22.3885 206.965C25.3583 210.936 25.0277 212.039 21.9249 208.507C19.4844 205.733 18.2856 205.311 11.3581 204.742C7.03956 204.389 6.90408 204.432 8.25226 205.776C9.02781 206.551 10.4904 208.249 11.5032 209.549C13.4565 212.065 13.8346 212.186 19.4869 212.005C24.8784 211.841 25.952 213.366 23.4712 217.673C22.4391 219.465 21.5943 221.378 21.5943 221.92C21.5943 225.142 13.5811 232.663 8.799 233.921C6.40973 234.55 6.16105 235.144 7.1642 237.823C7.95541 239.934 8.4901 239.917 9.86959 237.737C10.4783 236.781 12.4853 234.774 14.329 233.283C16.1721 231.793 18.3368 229.855 19.1388 228.976C20.5839 227.391 20.6147 227.399 22.4506 229.889C25.6557 234.222 29.8953 235.833 35.1285 234.713C40.865 233.482 35.503 228.528 29.4883 229.501C27.1454 229.881 25.4028 229.717 24.3039 228.993L22.6493 227.916L25.5835 226.788C27.1978 226.159 31.214 224.875 34.5089 223.928C41.4876 221.92 41.5008 221.912 39.2621 220.275C34.6293 216.889 29.696 217.846 26.3518 222.782C20.3762 231.603 21.843 223.187 27.9438 213.641C29.0042 211.987 31.2429 208.162 32.9174 205.147C35.6662 200.202 36.2021 199.642 38.4245 199.401C39.8299 199.255 42.5756 197.816 44.8204 196.05L48.7529 192.957L52.4964 194.198C55.2963 195.128 57.2972 195.24 60.4421 194.663C62.7543 194.232 64.8498 193.879 65.0966 193.862C66.2286 193.793 65.3736 191.467 63.6997 190.054C61.6825 188.348 58.8453 188.65 55.816 190.889C54.9103 191.561 53.275 192.104 52.1821 192.104L50.1956 192.096L52.002 190.347C58.4804 184.058 65.6807 180.612 66.6923 183.317C67.7099 186.057 73.3278 189.33 77.7414 189.778L81.7998 190.183L79.9452 186.84C78.0726 183.455 77.3922 183.127 73.0026 183.463C71.2685 183.593 66.7525 181.525 66.7525 180.595C66.7525 178.501 75.2907 175.615 77.344 177.011C81.294 179.69 84.6659 179.656 91.7109 176.847C93.4571 176.149 85.7377 172.324 82.5464 172.307C81.1314 172.299 78.4279 173.065 76.5432 174.013C72.2861 176.158 71.979 176.167 74.3996 174.056C75.4593 173.134 76.7961 171.291 77.3681 169.964C77.9461 168.637 78.9758 166.621 79.6622 165.476C80.6437 163.839 80.6979 163.511 79.9151 163.908C79.3672 164.192 77.8257 164.89 76.483 165.467C73.6349 166.682 71.4853 169.628 69.6066 174.874C68.4023 178.226 67.9206 178.742 65.0966 179.75C63.3504 180.371 61.243 181.516 60.406 182.3C58.5978 183.998 57.4911 183.033 59.2288 181.275C62.1462 178.312 63.8201 174.892 66.6381 166.113C67.0114 164.941 60.9299 169.904 58.6893 172.591C56.6282 175.073 56.3464 175.9 56.0008 180.5L55.6148 185.626L50.1956 190.174C43.6125 195.697 42.4251 196.455 39.4114 197.066L37.0571 197.54L40.8018 189.718C42.8605 185.419 45.5646 180.224 46.8111 178.174C48.4946 175.409 53.5688 165.855 54.3672 163.951C54.4046 163.856 58.6972 161.952 63.9044 159.712C73.9239 155.405 74.4899 154.931 71.4792 153.423C66.897 151.14 63.7478 152.321 59.7358 157.851C55.2469 164.028 55.6191 160.987 60.5505 151.158C65.5904 141.138 66.7766 139.975 69.4621 142.491C71.69 144.584 76.3686 145.765 79.9211 145.144L83.1546 144.576L80.8544 141.207C78.5061 137.77 72.9424 136.211 71.8706 138.692C71.6659 139.166 70.4978 139.545 69.2754 139.527C65.7951 139.476 69.0406 137.262 73.677 136.521C77.916 135.84 81.4506 133.79 83.7627 130.671C88.2848 124.572 77.1453 126.941 72.0513 133.161C68.0651 138.037 67.6918 137.417 71.136 131.628C72.6293 129.121 75.1884 124.279 76.8262 120.876C80.0054 114.26 85.7618 108.746 90.9522 107.359C92.1745 107.032 94.8601 105.145 96.9254 103.173L100.683 99.5888L98.9245 98.8738C95.0588 97.3059 92.2588 98.7877 88.5557 104.37C85.3825 109.16 82.0467 112.623 81.4445 111.753C80.5534 110.478 91.9999 89.9919 94.8239 87.8123C97.9851 85.3674 97.7864 85.376 104.085 87.416C104.916 87.6831 107.204 87.2006 109.179 86.3391L112.767 84.7712L109.859 82.4426C105.084 78.6254 97.8165 80.4423 95.3899 86.06C95.1671 86.5804 94.7035 87.0025 94.3543 87.0025C93.7702 87.0025 95.5826 83.8744 103.182 71.7584C105.879 67.4613 112.43 59.695 112.725 60.4393C112.792 60.6004 113.707 63.2848 114.767 66.406C116.639 71.9368 117.428 73.0524 122.883 77.8225C125.075 79.7436 125.358 79.6273 124.268 77.247C123.762 76.1434 122.944 73.2816 122.45 70.8883C121.432 65.9934 121.149 65.5574 116.724 62.0951L113.556 59.6166L118.705 60.031C125.171 60.5513 132.03 57.6998 130.296 55.2135C128.567 52.7411 121.649 53.3363 118.753 56.2077C117.44 57.5111 115.911 58.5768 115.357 58.5768C113.683 58.5768 121.703 48.5861 125.695 45.7053L129.344 43.0683L133.186 46.0369C136.787 48.8204 143.976 49.7948 143.783 47.473C143.555 44.6758 139.171 41.7846 135.311 41.8803C130.512 42 130.85 41.1859 137.636 36.2944C142.248 32.9707 141.58 32.7579 143.729 38.2077C146.035 44.0598 147.161 45.6544 148.986 45.6544C151.328 45.6544 150.816 42.8219 148.083 40.6216C140.52 34.5421 142.308 28.5608 150.015 34.1493C154.02 37.0508 162.823 37.3066 161.601 34.4852C160.998 33.0836 156.404 30.1476 154.796 30.1347C151.768 30.1097 151.364 28.7201 154.164 27.9534C156.765 27.2418 156.771 27.2401 154.772 26.9119C153.67 26.7318 151.527 27.1919 150.003 27.9336C146.354 29.7126 146.138 29.0958 148.956 24.9641C151.984 20.5239 153.911 20.4386 157.452 24.5902C159.379 26.8516 160.962 27.8595 163.533 28.4617C168.104 29.5334 168.049 29.5455 167.333 27.6209C166.484 25.35 166.55 24.0836 167.489 24.6005C167.917 24.8357 170.289 24.4041 172.758 23.6391C175.227 22.8749 178.617 22.1151 180.291 21.9514C181.965 21.7886 184.403 21.0684 185.71 20.3534C187.017 19.6383 188.624 18.9164 189.287 18.7501C190.118 18.5416 189.564 17.9869 187.528 16.9746C183.133 14.795 180.953 15.0612 178.557 18.0687C176.738 20.3559 169.368 23.9036 168.633 22.8482C168.501 22.663 169.771 21.5129 171.457 20.2931C173.137 19.0723 174.974 17.0108 175.54 15.7108C176.1 14.4117 177.238 12.2829 178.069 10.9795C179.827 8.21601 179.863 8.23221 175.985 9.87937C172.728 11.2629 169.506 15.3946 168.91 18.9483C168.326 22.4192 165.978 23.4297 163.256 21.3794C161.39 19.9786 160.204 19.7529 156.585 20.1113C151.244 20.6402 151.449 18.9707 157 16.6688C160.402 15.2602 162.606 12.7154 165.55 6.79524L166.887 4.11127L164.84 4.74223C160.185 6.18091 158.156 7.98427 155.597 12.9532C154.2 15.6686 152.008 19.1947 150.726 20.7893L148.39 23.6865L150.262 19.8098C152.159 15.8719 153.845 2.46712 152.267 3.86532C151.93 4.16227 151.653 4.92228 151.653 5.55496C151.653 6.18755 150.828 7.97204 149.817 9.51927C146.824 14.1058 145.662 21.2312 147.486 23.8398C147.95 24.5023 147.565 25.3405 146.132 26.7706C145.03 27.8724 143.994 29.0277 143.826 29.3404C143.663 29.6523 141.628 31.3735 139.31 33.1646C136.991 34.9556 132.656 38.4179 129.675 40.8577C126.695 43.2965 123.461 45.8578 122.486 46.5495C121.51 47.2422 118.771 50.328 116.398 53.4078C104.115 69.3428 101.514 69.6805 108.426 54.4425C110.907 48.9815 113.382 46.5159 116.386 46.5159C117.825 46.5159 123.353 41.8441 123.353 40.6251C123.353 40.2072 124.569 38.9409 126.057 37.814C129.886 34.9065 129.826 33.9985 125.804 34.0243C121.745 34.051 119.788 35.5991 117.633 40.4855C116.236 43.6558 113.382 47.1827 112.846 46.41C111.949 45.1324 119.77 31.2546 122.492 29.2861C126.4 26.4622 131.897 21.2614 135.865 16.6352C137.624 14.5909 139.388 12.9058 139.785 12.8911C140.189 12.8756 139.99 12.2941 139.346 11.5989C136.058 8.04182 132.481 10.4876 129.742 18.166C128.164 22.5803 127.285 23.9561 124.69 26.0521C121.053 28.9941 120.589 27.9896 123.72 23.9242C126.087 20.8427 128.17 15.7151 128.17 12.9618C128.17 12.0004 128.688 9.27202 129.32 6.89767L130.464 2.58178L128.676 4.08767C124.876 7.28586 121.029 18.0128 120.926 25.6671C120.914 26.4735 120.523 27.8605 120.053 28.7495C119.295 30.1796 119.234 29.6834 119.541 24.4421C119.909 18.1808 119.602 16.5999 116.453 8.62427L114.923 4.76083L114.803 10.778C114.61 20.4155 114.7 21.152 116.663 26.7862C118.909 33.2077 118.921 31.9146 116.579 35.9257C115.507 37.771 114.207 40.1798 113.701 41.2782C112.84 43.1398 112.78 42.685 112.798 34.5594C112.822 24.2224 112.743 24.1345 110.239 31.7242C107.932 38.7333 107.854 40.4374 109.703 43.6507L111.106 46.0853L107.378 54.8328L103.651 63.5813L102.718 60.7728C101.911 58.3512 101.893 57.6835 102.616 55.9037C105.006 50.0102 105.325 48.1012 105.157 40.9637C105.066 37.0043 104.759 33.9676 104.476 34.2148C103.513 35.0617 100.478 45.2229 100.412 47.8083C100.37 49.6139 100.105 48.8351 99.5326 45.2238C98.232 36.9449 98.4126 35.4321 101.393 29.7824C103.465 25.8532 104.079 23.9708 104.043 21.5983C103.988 18.1506 102.405 11.3233 102.327 14.2205C102.302 15.1733 101.339 19.05 100.183 22.8354L98.0875 29.717L98.226 24.4102C98.3404 20.0183 98.1236 18.6348 96.9675 16.394C96.2028 14.9054 95.1732 11.7704 94.6854 9.42632C93.6257 4.3213 93.3607 4.10671 93.3909 8.3952C93.4089 10.1724 93.2102 13.7846 92.9573 16.4225L92.4997 21.2201L94.8962 24.1759C96.9013 26.657 97.3408 27.7915 97.6058 31.2246C97.9189 35.3158 97.2746 36.8131 96.5701 33.6325C96.0041 31.1014 93.1982 28.087 90.1995 26.7948C88.7303 26.1616 86.9179 25.2364 86.1773 24.7367C83.7868 23.1369 84.1541 24.542 87.3876 29.3741C89.7901 32.9691 91.4399 34.5551 94.3482 36.0636C96.7748 37.3239 98.0514 38.4318 97.8707 39.1158C97.7081 39.7068 97.7924 41.9062 98.0514 44.0005C99.5988 56.5489 99.5386 56.7152 94.7517 53.4079C90.6511 50.5736 82.1551 51.442 81.3843 54.7743C80.9086 56.8548 87.6887 57.9618 93.6859 56.7832C100.153 55.5126 99.5567 55.0017 101.646 63.6062L103.103 69.6384L100.96 73.3686C92.2348 88.536 89.2241 90.6639 94.3543 78.0327C96.3293 73.1671 96.4858 72.2487 96.546 65.1862C96.5822 61.0028 96.4557 58.2021 96.2691 58.962C96.0824 59.7227 94.9624 61.7876 93.7762 63.5528C90.3561 68.6442 90.1634 69.6177 90.4826 80.3226L90.7716 90.0006L88.5015 94.3166C87.2551 96.6943 85.2199 100.907 83.9855 103.681C81.1073 110.151 80.5654 109.453 83.0342 102.458C84.7924 97.4611 84.9068 96.634 84.5214 91.4823L84.0999 85.9093L82.2454 88.5705C80.433 91.1636 80.3788 91.4823 79.9031 102.225C79.4214 113.132 78.3917 117.361 75.2125 121.462C75.0318 121.703 73.6891 124.133 72.2379 126.872C69.1068 132.765 68.6613 132.825 70.6904 127.096C72.4366 122.151 72.5089 120.265 71.1902 113.554L70.2087 108.54L68.5047 113.063C67.1379 116.698 66.7946 118.714 66.7766 123.306L66.7525 129.026L62.4954 129.371C58.2612 129.715 58.2215 129.741 55.2114 134.204C53.5471 136.676 52.0936 138.692 51.9798 138.692C51.6811 138.692 54.4569 127.2 55.3011 124.943C55.6931 123.9 55.8689 122.832 55.6913 122.582C55.5143 122.324 54.7466 123.96 53.9861 126.209L52.6042 130.292L52.2032 126.528C51.9828 124.452 51.2981 120.342 50.6816 117.396L49.5598 112.029L48.8541 116.534C48.4657 119.007 47.9641 122.522 47.7401 124.34C47.3903 127.174 47.1531 127.57 46.0548 127.148C45.3521 126.881 44.2273 126.657 43.5559 126.648C41.8693 126.631 42.8587 109.703 45.1552 99.2788C46.0096 95.4107 49.5213 95.807 52.7547 100.14C54.6827 102.725 54.4401 103.466 51.8515 102.914C49.5086 102.415 45.26 105.154 45.9386 106.722C46.5768 108.204 49.9072 108.462 52.3573 107.222C55.7877 105.49 55.9159 105.55 55.9159 108.936C55.9159 110.573 56.2302 112.899 56.6144 114.105C57.1485 115.776 57.1431 116.827 56.5921 118.559C54.767 124.296 56.7155 120.85 58.9187 114.45C60.2796 110.487 60.8456 108.221 60.1712 109.401C59.4974 110.59 58.7863 112.244 58.5918 113.08C57.9632 115.776 57.1202 113.726 57.1202 109.513C57.1202 100.605 54.92 94.8077 50.0168 90.7931C47.6601 88.8634 47.7034 88.2604 50.9405 77.9604C55.492 63.4727 56.5813 61.9039 62.2786 61.6188C63.9586 61.5352 66.5357 60.6582 67.9989 59.671C69.4681 58.6837 71.3046 57.6077 72.0814 57.2795C74.1888 56.393 72.9123 55.2696 69.0526 54.6209C64.6631 53.8835 63.218 54.4546 60.1357 58.141C58.7459 59.8028 57.5152 61.1613 57.4014 61.1613C57.2876 61.1613 58.0956 58.3805 59.1963 54.981C61.3333 48.3717 61.3694 48.3381 66.6802 47.7936C70.1305 47.4387 72.0272 45.9457 76.9888 39.6767L79.6983 36.2522L76.9888 36.2341C73.5566 36.2109 70.0702 38.4757 65.7108 43.5534C63.8261 45.7527 62.1883 47.1544 62.0739 46.6676C61.2068 42.9589 71.8646 26.6725 78.0304 22.2685C82.432 19.1301 82.3778 18.0869 77.8257 18.0869C74.0443 18.0869 71.5816 20.8979 70.3051 26.6733C69.4199 30.6836 68.2217 33.3326 66.8127 34.413C65.7831 35.1995 65.8493 34.6033 67.4148 28.7883C68.3722 25.2114 69.1671 20.6627 69.1671 18.6796C69.1671 16.6956 69.5343 14.0766 69.9739 12.8611C71.1962 9.52539 71.6478 6.19642 70.9734 5.59708C70.6302 5.29737 70.3653 5.95219 70.3653 7.08789C70.3653 8.35014 69.3477 10.5471 67.6557 12.9179L64.9461 16.7223V25.494C64.9461 35.2391 63.513 40.9913 55.9466 61.5921C54.2065 66.3303 51.9924 72.4546 51.0272 75.2028C48.9932 80.9937 48.4085 80.9118 47.5288 74.7151C46.1933 65.3163 46.4883 61.2294 48.9071 55.597C51.6335 49.2469 52.3013 45.9199 52.2808 38.7626C52.2543 29.2759 48.5855 38.5085 47.2934 51.3145L46.5455 58.7319L45.8079 52.5766C45.26 48.0038 45.2431 45.9612 45.7435 44.6233C46.6178 42.2844 46.1523 37.5703 44.5494 32.5375C43.8317 30.2821 43.2621 26.7035 43.25 24.3801C43.2097 16.5595 41.7959 15.4843 41.5707 23.1025C41.0577 40.483 41.0848 41.0852 42.5233 43.6559C44.544 47.2664 44.9041 48.9127 45.1726 55.777C45.4695 63.3495 45.0444 63.6226 43.344 56.9512C42.2511 52.6627 41.425 51.1422 37.9976 47.1105C33.3148 41.6004 32.8343 41.4996 35.3988 46.5651C36.417 48.575 37.2498 51.2025 37.2498 52.4034C37.2498 55.5608 39.447 61.5783 41.0191 62.7267C41.761 63.2677 43.0724 64.0749 43.9335 64.5203C45.381 65.2681 45.5243 65.8125 45.8386 71.7602C46.0253 75.2975 46.6346 79.4533 47.1922 80.9963C48.8968 85.7121 46.6479 89.9919 44.2604 86.5718C42.3462 83.8366 42.3631 85.9361 44.3038 91.9389C45.0336 94.2046 45.0691 95.2556 44.491 97.5386C43.1778 102.733 42.1644 108.927 41.7309 114.415C41.4942 117.405 41.1107 119.541 40.8782 119.153C39.8709 117.482 37.9031 107.627 37.4702 102.079C37.2106 98.7619 36.8999 96.9269 36.7807 97.9866C36.3165 102.139 34.38 97.7281 33.1089 89.6387L32.5796 86.2703L35.4777 84.4819C37.0715 83.5015 39.2747 82.6934 40.3724 82.6865C44.4368 82.6633 45.1612 81.9853 44.1406 79.1604C42.6431 75.0175 39.2922 75.9505 35.6638 81.5226C32.4393 86.4771 29.9911 80.6172 30.0164 68.011C30.0206 65.8556 29.7297 63.6691 29.3691 63.154C27.8011 60.9098 28.0022 49.7535 29.6737 46.2507C32.7813 39.7387 33.5491 36.6227 33.9748 28.7866L34.3921 21.1021L31.0508 30.4897L27.709 39.8748L27.0936 36.5202C25.6003 28.3782 25.5901 28.6384 27.5627 25.0744C30.3331 20.07 31.1887 16.4268 31.152 9.78987C31.1201 3.91718 31.1134 3.89176 30.1994 6.45685C29.693 7.87831 28.6664 10.0104 27.9179 11.195C25.8761 14.4281 25.2143 16.724 25.1379 20.8316L25.0686 24.548L24.6393 21.3915C24.1076 17.4864 23.1219 15.3043 19.0624 9.03951C17.3089 6.33279 15.4724 3.19034 14.9817 2.05688C14.3555 0.610179 13.8829 -0.0252555 13.6643 0.000675345ZM327.875 0.227824C327.562 0.171948 327.026 0.700188 326.225 1.77239C325.545 2.68919 324.07 4.33678 322.956 5.43372C320.806 7.54368 319.289 12.2932 319.271 16.9286C319.259 19.9645 318.121 22.5713 315.742 24.9938L314.05 26.7185L314.321 22.0208C314.58 17.5799 312.84 11.3332 311.341 11.3108C310.528 11.2987 310.143 21.4367 310.823 25.036C311.81 30.2989 307.842 33.7018 302.128 32.4897L299.696 31.9728L301.767 34.4582L303.838 36.9418L302.218 39.696C301.327 41.2114 300.599 42.9421 300.599 43.5426C300.599 44.1422 298.768 45.4378 296.534 46.4217C294.294 47.4055 291.284 48.8373 289.845 49.6014C287.352 50.9186 287.111 50.9023 285.232 49.3171C280.987 45.7333 272.804 44.9657 271.052 47.9861C270.661 48.6598 269.535 49.2112 268.547 49.2112H266.753L268.728 45.9806C270.48 43.1196 271.112 42.6897 274.267 42.2271C277.453 41.7593 278.091 41.3182 280.331 38.029C282.523 34.8114 282.643 34.434 281.33 35.0052C280.5 35.3636 277.657 35.9012 275.008 36.201C268.385 36.9504 265.675 40.6884 265.675 49.0699C265.675 50.481 263.568 51.0547 261.839 50.1149C260.894 49.6006 260.256 48.5918 260.256 47.6148C260.256 45.0166 258.726 43.7734 256.33 44.4178C254.698 44.8555 253.795 44.5746 252.464 43.2195C251.326 42.0608 249.448 41.3156 247.009 41.0589C241.12 40.4378 239.061 38.8311 242.643 37.6534C243.553 37.3536 246.515 36.0993 249.231 34.8656L254.162 32.6206L256.866 34.8855C259.937 37.463 260.31 37.5113 266.638 36.1648L271.269 35.1801L267.493 33.1496C265.416 32.0322 262.333 31.0906 260.635 31.0561L257.546 30.9941L260.822 29.3314C262.622 28.4165 264.712 26.8374 265.47 25.8217C268.18 22.1742 278.615 25.8372 281.969 31.6127C283.673 34.5495 290.639 37.2959 289.459 34.5658C289.255 34.092 288.586 33.7044 287.972 33.7044C287.31 33.7044 286.178 32.1632 285.184 29.9172C282.589 24.0462 280.861 22.9909 273.912 23.0314C266.542 23.0744 267.487 22.1966 276.64 20.5063C284.775 19.0022 285.744 19.2098 288.05 22.9676C288.99 24.4907 290.501 26.1508 291.41 26.6556C293.674 27.9091 302.917 28.4674 301.502 27.2647C300.93 26.7788 299.28 25.2816 297.829 23.9385C296.378 22.5954 293.361 20.95 291.121 20.2824C288.881 19.6138 286.641 18.8428 286.148 18.568C284.847 17.8478 291.368 13.9668 293.951 13.9237L296.035 13.8901L293.674 12.1671C289.032 8.78147 281.318 10.706 278.019 16.074C276.531 18.4861 275.472 19.2348 272.088 20.2419C269.818 20.9164 267.662 21.8959 267.301 22.4171C266.343 23.7869 265.049 23.5844 265.44 22.1268C265.627 21.4445 267.235 20.0187 269.029 18.9582C274.695 15.595 277.049 8.9641 271.889 10.8783C266.259 12.9683 265.344 14.1925 264.471 20.782C263.718 26.4299 263.122 27.4913 260.346 28.1383C258.263 28.6224 257.083 29.191 250.622 32.8265C246.286 35.2636 244.004 36.1027 238.88 37.1451C236.231 37.6836 233.587 38.2556 233.009 38.4176C230.667 39.0688 232.142 36.1432 235.117 34.2393C238.314 32.1899 239.91 30.1688 241.945 25.5822C243.053 23.0986 243.053 23.0684 241.879 23.5767C234.774 26.6488 231.137 30.7546 230.312 36.6291L229.963 39.124L222.906 38.5804C212.657 37.7921 210.965 36.611 217.805 35.0155C219.13 34.7063 222.213 32.8299 224.664 30.8477L229.113 27.2432L225.687 26.4928C221.256 25.5219 217.486 27.437 214.343 32.2553C211.567 36.5051 210.797 36.0304 213.265 31.5911C215.204 28.0986 215.505 26.3851 215.897 16.4746C216.15 10.296 216.113 10.1021 215.174 12.031C214.632 13.1406 213.446 15.2314 212.537 16.6796C210.779 19.4751 210.694 20.0179 210.821 28.1047C210.935 35.8185 209.869 37.3545 206.859 33.8051C205.606 32.3286 204.27 31.1199 203.896 31.1199C201.638 31.1199 196.388 19.6552 195.502 12.8132C195.063 9.39485 194.647 9.03905 192.775 10.4743C191.3 11.6054 191.312 12.3704 192.835 14.3441C193.509 15.2159 194.906 18.0873 195.948 20.7252C196.99 23.3622 198.345 26.4592 198.959 27.6067C200.067 29.6743 200.061 29.7182 198.326 32.3449C195.292 36.9298 194.166 42.9964 194.955 50.4836C195.81 58.6901 199.272 51.0194 198.591 42.4132C198.326 39.0611 198.441 36.5688 198.947 34.9966L199.699 32.6292L200.488 36.8273C200.928 39.1369 201.825 44.883 202.487 49.5962C203.89 59.5818 203.896 59.6007 205.04 56.3977C207.407 49.7694 206.738 42.7104 203.288 37.9257C197.122 29.3771 203.005 31.4757 209.677 40.2043C210.833 41.7214 213.506 44.9235 215.614 47.3202C219.07 51.252 219.461 52.0196 219.63 55.1994C219.732 57.2101 220.744 61.1385 221.972 64.3493L224.14 69.9765L223.267 75.3315C222.623 79.3383 222.538 82.201 222.942 86.7006C223.243 90.0087 223.496 93.0067 223.502 93.3599C223.556 94.9795 225.176 93.7562 226.163 91.3613C227.355 88.4753 227.145 84.4151 225.579 80.0818C225.109 78.7861 224.73 76.4463 224.73 74.8827L224.736 72.0406L225.958 74.6251C230.354 83.8939 232.762 94.1869 230.872 95.6429C228.963 97.0988 226.669 105.136 226.356 111.451L226.073 117.258L228.409 114.604C230.775 111.925 231.004 110.952 230.769 104.671C230.679 102.19 232.124 95.729 232.774 95.729C234.238 95.729 236.255 107.945 235.279 110.883C233.407 116.534 233.431 121.358 235.394 131.438C235.882 133.936 238.555 122.892 238.567 118.326C238.573 116.301 238.037 112.433 237.375 109.737C235.875 103.646 235.869 103.207 237.345 106.67C237.989 108.186 239.278 110.099 240.205 110.917C241.132 111.744 242.541 113.217 243.342 114.199C244.486 115.604 244.715 115.681 244.438 114.561C244.239 113.777 243.751 111.572 243.348 109.651C242.499 105.576 240.446 102.5 236.773 99.8125C234.43 98.0895 234.069 97.4003 233.365 93.3599C232.931 90.8616 232.13 87.8464 231.582 86.6489C230.396 84.061 231.07 82.4759 232.299 84.963C234.37 89.1386 236.761 91.5336 242.896 95.5653C243.715 96.0994 240.247 87.3984 238.368 84.1928C236.634 81.2439 236.056 80.8399 232.847 80.3463L229.258 79.794L226.079 72.0406C222.219 62.6211 221.689 60.9231 221.262 56.6114L220.931 53.2429L226.398 58.5997C229.403 61.546 233.033 65.4149 234.466 67.1982C236.399 69.6069 243.077 76.8667 244.408 78.009C244.474 78.0624 245.805 84.2031 247.37 91.6542C250.381 105.989 250.718 106.799 251.766 102.492C253.361 95.9358 252.536 91.4302 248.671 85.6901C244.353 79.2677 246.479 79.7992 253.349 86.8557C260.352 94.0577 261.165 95.7635 259.407 99.6057C257.95 102.793 257.119 109.487 257.552 114.57L257.95 119.196L260.304 115.905C262.707 112.545 263.796 104.585 262.062 103.052C261.731 102.759 261.466 101.087 261.478 99.3387C261.514 94.3592 263.062 99.0027 263.58 105.636C264.055 111.701 265.488 116.758 267.668 120.066C271.931 126.536 270.275 110.598 265.928 103.31C262.52 97.6071 262.953 97.0729 267 102.001C268.752 104.137 272.136 107.798 274.514 110.142C279.139 114.69 282.992 122.926 283.962 130.352C284.191 132.101 285.509 135.943 286.888 138.898L289.393 144.274L289.893 141.75C290.995 136.228 289.953 132.222 286.051 126.924C282.703 122.383 280.283 117.611 280.891 116.749C281.782 115.474 296.101 131.851 297.624 135.892C299.334 140.414 299.328 140.13 297.901 149.141C297.715 150.33 298.052 153.604 298.654 156.43L299.75 161.564L301.375 157.403C304.043 150.571 302.778 140.173 298.847 136.701C298.485 136.383 298.19 135.719 298.19 135.22C298.19 134.384 300.376 136.977 308.848 147.849C311.847 151.709 317.278 161.073 316.754 161.504C316.646 161.598 314.767 162.908 312.587 164.424C308.721 167.103 307.939 168.232 304.609 176.037C303.266 179.173 303.344 179.578 305.006 178.018C305.783 177.295 307.782 176.123 309.456 175.417C312.876 173.961 313.177 173.556 315.598 167.224L317.332 162.693L317.043 170.058C316.676 179.311 318.675 189.123 320.409 186.642C322.137 184.169 321.722 174.271 319.716 170.127C318.801 168.249 318.061 166.061 318.061 165.268C318.061 162.873 325.039 174.349 327.056 180.06L328.899 185.281L326.822 190.777C324.877 195.929 324.196 206.215 325.822 205.939C327.773 205.612 329.796 199.34 329.73 193.818C329.646 186.952 330.218 187.435 333.632 197.144C335.956 203.743 336.107 202.778 332.295 205.853C328.207 209.161 327.093 210.772 327.093 213.383C327.093 216.734 329.074 216.002 330.609 212.09C334.86 201.27 339.039 203.829 335.131 214.856C333.102 220.585 332.927 233.18 334.896 231.431C335.878 230.569 337.931 223.996 337.937 221.696C337.955 217.363 338.924 216.786 339.46 220.791C339.96 224.513 339.96 224.522 340.189 221.662C340.315 220.085 339.996 217.018 339.478 214.839C338.232 209.618 338.666 209.308 341.55 213.34C344.657 217.673 344.717 220.43 341.815 225.495C340.231 228.252 339.527 230.518 339.105 234.196C338.358 240.735 338.352 240.657 339.695 239.632C341.285 238.418 342.17 238.512 341.809 239.856C341.64 240.468 341.941 243.862 342.477 247.394C343.013 250.926 343.543 255.777 343.657 258.171C343.772 260.566 344.277 264.055 344.777 265.925C345.277 267.794 345.777 270.094 345.897 271.042C346.042 272.231 346.427 271.438 347.138 268.518C348.661 262.238 348.474 259.119 346.373 255.69C344.771 253.089 342.29 242.544 343.031 241.493C343.163 241.303 343.964 243.121 344.819 245.533C345.668 247.937 347.114 250.565 348.017 251.374C348.926 252.175 350.413 253.804 351.328 254.993C353.255 257.508 353.249 257.56 352.093 252.012C351.13 247.351 348.24 242.734 345.759 241.889C343.332 241.054 342.628 237.694 344.061 233.8C345.036 231.129 345.193 229.432 344.946 224.255C344.573 216.613 345.741 216.906 347.348 224.849C348.336 229.716 350.112 232.87 354.249 237.082L356.127 238.995L355.688 236.066C354.682 229.406 353.418 226.503 349.95 222.842C348.047 220.843 345.584 217.707 344.47 215.872L342.447 212.53L345.157 215.209C347.908 217.923 357.278 220.335 356.296 218.069C356.091 217.595 355.561 217.199 355.116 217.199C354.676 217.199 353.43 216.019 352.346 214.571C349.143 210.29 344.163 208.627 342.339 211.237C341.875 211.901 341.291 211.349 340.291 209.299C339.521 207.723 338.714 206.241 338.491 206C338.274 205.767 337.07 202.855 335.817 199.538C334.571 196.222 332.151 190.019 330.446 185.755C328.736 181.49 326.948 176.864 326.466 175.468C325.979 174.073 323.823 170.153 321.673 166.759C310.534 149.184 310.299 145.454 320.951 155.353C324.768 158.902 326.49 162.443 326.49 166.742C326.49 168.801 329.754 176.709 330.603 176.709C330.898 176.709 331.783 178.449 332.572 180.577C334.601 186.056 335.239 185.97 335.221 180.215C335.203 174.409 334.119 171.609 330.705 168.525C328.49 166.526 326.021 162.443 326.563 161.676C327.454 160.392 337.154 171.583 338.533 175.477C340.502 181.068 344.139 188.934 347.372 194.611C348.806 197.126 349.98 199.65 349.992 200.219C350.004 200.796 350.407 200.512 350.895 199.59C353.382 194.886 351.672 189.769 346.301 185.849C343.218 183.592 342.254 182.335 340.791 178.622C338.738 173.41 339.436 172.755 342.278 177.235C344.434 180.62 348.017 183.601 349.944 183.601C350.612 183.601 352.521 184.342 354.183 185.246L357.199 186.883L356.146 184.325C353.906 178.889 346.409 173.384 341.062 173.237C340.496 173.22 339.527 172.66 338.906 171.988C337.907 170.903 338.256 170.816 341.917 171.256C346.295 171.781 347.397 171.342 352.972 166.836L355.676 164.648L351.467 164.476C344.729 164.2 344.217 164.329 340.279 167.138C335.787 170.351 336.697 170.368 333.891 167.017C332.602 165.484 330.916 163.623 330.151 162.899C328.851 161.667 329.17 161.581 334.848 161.607C342.074 161.642 342.134 161.53 336.829 157.946C331.928 154.646 330.736 154.534 328.49 157.179L326.792 159.186L320.674 153.854L314.562 148.521L316.525 147.186C318.217 146.031 318.681 146.006 319.927 147.039C324.046 150.459 325.383 150.916 330.368 150.675C333.138 150.546 335.258 150.106 335.089 149.701C334.493 148.323 327.394 143.972 325.587 143.886C324.323 143.826 324.871 143.447 327.394 142.628C333.18 140.768 334.234 141.026 338.184 145.29C340.93 148.254 342.248 149.133 343.904 149.081C346.313 149.004 351.088 146.738 349.064 146.626C348.396 146.591 345.686 145.213 343.043 143.559L338.232 140.561L341.941 140.759C345.006 140.923 345.975 140.613 347.541 138.959C348.583 137.864 350.774 136.391 352.412 135.693C355.983 134.177 356.127 133.798 353.135 133.841C351.888 133.867 349.365 133.583 347.523 133.221L344.169 132.566L342.104 135.995C340.37 138.864 339.575 139.493 337.178 139.872C334.318 140.32 333.27 139.398 335.492 138.39C337.263 137.58 339.37 133.566 340.273 129.275C340.713 127.173 341.363 124.58 341.712 123.512C342.832 120.101 341.845 120.626 338.473 125.252C335.956 128.69 334.848 131.05 333.794 135.211C332.915 138.683 332.138 140.509 331.663 140.242C331.247 140.018 329.712 140.139 328.249 140.509C319.476 142.723 319.361 142.637 321.673 135.788C323.654 129.922 323.046 117.766 320.716 116.663C319.265 115.983 318.488 125.683 319.313 134.263C320.198 143.516 320.559 142.663 314.544 145.652L310.329 147.737L307.722 144.67C297.118 132.187 295.631 127.871 304.458 135.211C307.86 138.045 308.505 138.269 313.436 138.355C316.363 138.399 318.32 138.226 317.79 137.959C317.26 137.692 315.815 136.09 314.58 134.393C311.022 129.491 310.341 129.224 302.857 129.68L296.095 130.085L293.078 126.846C291.416 125.063 288.472 122.151 286.533 120.385C282.011 116.267 282.499 115.492 287.388 119.024C290.88 121.539 291.458 121.703 295.059 121.152L298.955 120.549L297.094 117.895C295.282 115.302 295.059 115.225 287.557 114.544C279.928 113.855 276.971 112.382 274.105 107.833C273.936 107.574 272.238 105.653 270.323 103.577C266.205 99.0974 266.163 98.4599 270.173 101.363C273.623 103.861 274.942 103.965 279.632 102.078L283.137 100.674L279.976 98.2359C277.435 96.2804 276.026 95.7893 272.816 95.7635L268.818 95.729L268.577 89.6383C268.342 83.5794 268.318 83.5234 265.199 79.2168C263.471 76.8357 262.062 74.7561 262.062 74.5932C262.062 74.1659 270.095 78.1374 271.672 79.3452C272.401 79.9052 273.147 80.1567 273.322 79.9035C273.503 79.6502 272.359 78.5518 270.787 77.4637L267.933 75.4866L270.564 74.9128C272.015 74.5975 274.888 73.618 276.953 72.7359L280.698 71.13L277.555 70.1212C275.821 69.5656 273.364 68.848 272.094 68.5275C270.113 68.0261 269.836 67.6875 270.131 66.1162C270.317 65.1099 270.48 63.5007 270.48 62.541C270.492 60.128 282.324 61.5434 289.61 64.8291C292.313 66.0507 292.042 71.0758 289.008 75.702C287.207 78.4604 286.683 78.1133 287.069 74.4097C287.418 71.0568 285.503 64.979 284.407 65.9499C283.372 66.8631 283.191 71.628 284.058 75.1334C285.268 80.0413 285.226 80.2248 282.86 80.2248C281.716 80.2248 280.09 80.6745 279.247 81.2241C278.079 81.9883 277.344 81.9805 276.134 81.1922C272.124 78.5802 274.532 81.3688 279.006 84.5202C281.776 86.468 283.36 87.2778 282.535 86.3129C281.704 85.3489 280.548 84.3315 279.964 84.0524C278.079 83.1538 279.512 81.9478 282.456 81.9478C288.683 81.9478 292.735 78.7999 295.541 71.7848C296.89 68.4129 297.311 68.4749 304.513 73.1054C314.634 79.6183 315.736 81.1759 315.935 89.3281C315.989 91.7317 316.603 95.4189 317.296 97.5123C317.982 99.6143 318.735 102.242 318.964 103.353C319.584 106.368 320.373 104.533 320.824 99.0199C321.336 92.7396 320.939 90.6721 318.362 86.2612C317.2 84.2729 316.254 82.5129 316.254 82.3501C316.254 82.1872 318.193 83.3434 320.571 84.9173C325.19 87.9756 325.214 88.0273 325.593 95.6256C325.846 100.562 326.888 103.276 331.271 110.374L333.662 114.251L333.674 110.374C333.692 105.464 332.108 100.476 328.562 94.2386C327.02 91.5422 326.045 89.1989 326.382 89.0352C328.977 87.7947 340.358 103.043 343.434 111.865C345.632 118.162 346.361 118.085 346.361 111.572C346.361 106.162 344.392 102.638 340.358 100.812C337.552 99.5454 335.703 97.831 334.95 95.8065C334.396 94.342 334.812 94.4368 338.876 96.668C341.381 98.0464 344.56 99.1836 345.945 99.1836C347.33 99.1836 349.161 99.7091 350.01 100.338C352.346 102.087 354.67 102.733 355.086 101.768C355.296 101.277 354.839 100.898 354.044 100.898C353.165 100.898 351.629 99.442 349.974 97.0212L347.312 93.1445H341.182C334.372 93.1445 330.35 91.0942 315.953 80.2687C312.641 77.779 308.36 74.6113 306.439 73.2304C302.393 70.3202 302.447 69.4837 306.777 68.2242C313.346 66.3143 316.206 66.7364 320.144 70.1962C324.582 74.0979 326.906 75.0524 331.91 75.024C338.539 74.9861 332.084 69.737 323.137 67.8883L317.952 66.8183L322.251 65.763C325.449 64.979 326.876 64.954 327.809 65.6708C329.447 66.9217 332.741 66.2557 336.257 63.9624C337.835 62.9347 340.333 62.1206 341.959 62.1034C347.427 62.0456 348.179 60.022 342.85 59.7007C330.705 58.9658 330.284 59.0046 328.49 61.0635C325.967 63.9547 324.817 64.4699 320.018 64.8541C314.725 65.2788 314.532 64.6706 319.193 62.2377C322.191 60.6741 323.257 59.4922 326.075 54.5886C329.923 47.8879 329.995 47.2004 326.454 50.8704C325.051 52.3263 323.215 53.5186 322.372 53.5186C320.168 53.5186 315.959 56.6622 315.158 58.9115C314.779 59.9729 314.213 61.8492 313.906 63.0811C313.382 65.1522 313.003 65.3572 308.842 65.8069C306.373 66.074 303.471 66.9458 302.393 67.7435C299.093 70.1824 296.101 66.9647 298.491 63.5489C300.406 60.8103 298.937 60.8335 294.74 63.611C293.156 64.6551 292.422 64.7059 290.826 63.878C287.195 62 282.866 60.5492 279.03 59.929C276.941 59.5912 275.448 59.0416 275.719 58.7091C276.887 57.2687 283.775 54.4533 287.653 53.8331C289.971 53.4626 291.254 53.0181 290.513 52.8475C287.617 52.1824 290.694 49.4128 296.348 47.5942L298.708 46.8369L299.954 50.9832C300.641 53.2636 301.201 56.4158 301.207 57.9863C301.225 63.8013 301.695 64.8377 303.67 63.3766C306.566 61.235 305.916 56.4399 302.02 51.2486C298.564 46.6362 302.652 43.1334 311.467 43.1687C312.973 43.1747 314.502 42.7595 314.857 42.2434C316.429 40.0001 324.226 40.287 326.677 42.6794C331.223 47.1255 333.403 48.2239 338.882 48.833L344.253 49.43L337.69 44.6496L331.133 39.8675L333.475 38.9879C339.165 36.8514 338.985 36.835 341.478 39.6572C344.97 43.621 347.517 44.846 352.159 44.7943C356.26 44.7486 356.278 44.7392 354.49 43.4314C353.496 42.7069 352.003 41.2372 351.178 40.1672C348.914 37.2459 347.312 36.2992 344.44 36.1898L341.845 36.0907L344.049 35.4764C346.776 34.7157 348.306 33.3046 352.683 27.4973C354.574 24.9878 356.772 22.3611 357.56 21.659C359.873 19.6104 359.222 18.705 356.868 20.6933C355.688 21.6857 353.592 22.754 352.202 23.0667C348.92 23.8041 347.282 25.2799 343.826 30.6202C340.189 36.2371 339.539 33.0186 343.043 26.7185C344.609 23.8972 345.12 22.169 345.066 19.9205C345.018 17.9994 344.898 17.5928 344.735 18.8014C344.591 19.8447 343.477 21.9097 342.254 23.3897C337.63 28.9998 335.571 32.2726 335.215 34.5925C334.824 37.1202 330.579 38.9276 325.232 38.8397L323.179 38.8061L324.985 37.6181C326.936 36.3328 335.27 24.452 333.608 25.3203C324.503 30.074 321.071 33.4631 321.071 37.6974C321.071 39.5323 320.806 39.7348 318.41 39.7348C316.947 39.7348 315.321 39.9691 314.803 40.2551C314.201 40.5842 313.707 40.1896 313.46 39.1783C313.244 38.2995 312.274 36.3741 311.311 34.8992L309.552 32.2157L311.847 30.205C313.539 28.7215 315.423 28.0582 319.012 27.6774C323.895 27.1596 324.618 26.7383 330.489 20.9741C332.644 18.8549 322.757 20.2022 320.18 22.3792L317.964 24.2469L319.259 21.6504C319.969 20.222 321.469 18.0502 322.595 16.8226C325.051 14.1451 327.568 7.99406 328.08 3.42645C328.309 1.33803 328.273 0.299672 327.875 0.227824ZM246.581 10.3934C245.979 10.5002 244.667 13.8402 244.004 17.3292C243.595 19.4907 243.685 20.6856 244.6 25.5203C244.871 26.9417 245.269 29.2187 245.48 30.5815L245.865 33.0583L247.34 30.1999C249.068 26.841 249.321 20.9854 247.948 15.8458C247.473 14.059 246.979 11.8226 246.864 10.875C246.816 10.5166 246.72 10.3693 246.581 10.3934ZM258.714 11.59C257.498 11.7063 252.085 18.9359 251.615 21.2619C251.332 22.6558 250.628 25.5418 250.05 27.674C249.478 29.8062 249.146 31.9177 249.321 32.3683C249.496 32.8292 249.743 32.743 249.875 32.1719C250.002 31.6127 251.17 30.3007 252.47 29.2557C254.963 27.2536 256.89 22.7756 257.618 17.3146C257.835 15.6674 258.287 13.8256 258.618 13.2225C258.949 12.6186 259.076 11.9191 258.901 11.6658C258.859 11.6064 258.799 11.5823 258.714 11.59ZM58.3546 13.7558C58.1156 13.8195 57.9975 14.5285 58.1372 16.037C58.3377 18.2071 58.2041 19.8172 57.794 20.1799C56.1044 21.6737 57.5911 30.6117 60.2465 34.9433C64.329 41.5888 65.6296 31.655 61.7639 23.4157C60.945 21.6694 60.1176 19.271 59.928 18.0865C59.4884 15.334 58.7532 13.6498 58.3546 13.7558ZM54.9453 32.0452C54.7689 31.9651 54.7846 32.4131 54.9923 33.3969C55.2283 34.5117 54.9748 37.2073 54.4034 39.6694C52.98 45.8006 53.0883 50.5552 54.7563 55.0883L56.1671 58.9228L57.3364 55.0883C58.3474 51.7733 58.419 50.612 57.8669 46.5157C56.7294 38.0825 55.8052 33.1815 55.1856 32.3011C55.0838 32.1572 55.0043 32.0728 54.9453 32.0452ZM305.812 38.1161C306.33 38.1644 306.854 38.6795 307.468 39.6487C308.678 41.5647 308.395 41.9136 304.963 42.7268C302.019 43.4229 301.97 43.335 303.65 40.2819C304.481 38.7666 305.144 38.055 305.812 38.1161ZM212.355 38.919C212.873 38.9397 213.571 39.0353 214.426 39.1628C216.546 39.4773 219.587 39.7349 221.182 39.7349C223.729 39.7349 224.355 40.1268 226.361 42.981C230.28 48.5591 231.196 49.3818 236.169 51.7957C240.932 54.1054 241.004 54.1148 240.619 52.3238C239.168 45.5784 235.862 42.371 230.335 42.3383C226.168 42.3124 225.758 40.9694 229.708 40.2905C234.682 39.4351 238.042 39.6522 241.227 41.0357C242.853 41.7413 245.177 42.3193 246.394 42.3193C251.451 42.3193 254.968 46.277 256.564 53.7711C258.225 61.584 258.358 61.1661 253.836 62.2111C249.079 63.3087 237.651 64.0392 240.228 63.0812C241.299 62.6815 242.684 61.8191 243.299 61.1661C243.913 60.5131 245.599 58.704 247.044 57.1447L249.663 54.3095L244.569 54.8816C238.999 55.507 235.802 57.118 235.26 59.5775C234.285 63.9634 227.39 59.071 216.197 46.0513C211.096 40.1131 210.091 38.8277 212.355 38.919ZM89.9172 41.7172C89.02 41.7094 88.0687 41.9067 87.0571 42.3107C85.6601 42.8681 83.9742 43.4281 83.3118 43.5564C82.6495 43.6839 81.9811 43.8209 81.8306 43.8605C80.4095 44.2275 87.322 47.6313 90.7903 48.2705C93.241 48.7236 95.3846 49.2888 95.5532 49.5274C96.7635 51.2607 97.3174 49.6627 96.3179 47.3134C94.7463 43.6142 92.5967 41.7404 89.9172 41.7172ZM308.058 46.0444C305.824 46.0031 303.56 46.3761 301.639 47.1721C298.297 48.5565 306.553 52.2807 311.087 51.4356C316.416 50.4432 320.203 49.4447 319.095 49.3258C318.505 49.2621 316.337 48.3997 314.284 47.409C312.49 46.5441 310.286 46.0866 308.058 46.0444ZM268.48 50.4699C269.69 50.4751 271.201 50.7361 272.803 51.3297C274.808 52.074 276.669 52.5943 276.934 52.4875C277.199 52.3798 278.361 52.5823 279.523 52.9363L281.63 53.579L279.029 55.2555C277.596 56.1773 275.091 57.5005 273.459 58.1949L270.485 59.4569L269.558 56.8802C269.046 55.4639 267.962 53.871 267.149 53.3421C264.608 51.6855 265.812 50.4587 268.48 50.4699ZM262.772 51.3012C263.332 51.309 263.904 52.0085 264.445 53.4618C266.228 58.2181 264.897 61.2264 261.007 61.26C260.261 61.2669 259.683 60.9818 259.719 60.626C260.381 54.6128 261.549 51.2831 262.772 51.3012ZM34.3765 56.8199C34.3482 56.8087 34.3277 56.8975 34.3175 57.0956C34.2735 57.9399 33.6708 61.0386 32.9777 63.9798C31.7686 69.1168 31.7 76.5704 32.8121 82.0659C33.7797 86.8471 36.3834 75.0413 35.7921 68.5491C35.1851 61.8803 34.5752 56.8975 34.3765 56.8199ZM83.2612 60.6225C83.1528 60.6854 82.9602 61.1997 82.6651 62.2999C82.4604 63.0623 80.8768 65.0325 79.1426 66.6779C75.3191 70.3117 74.8374 71.1069 73.7234 75.6176C72.6516 79.9613 68.5572 88.8286 68.5572 86.8127C68.5572 86.0055 69.1171 83.3142 69.8036 80.8305C70.8453 77.0477 70.9777 75.2894 70.6345 69.9861L70.219 63.6567L68.8763 66.5013C66.1125 72.3595 64.6072 84.3962 66.6303 84.4281C69.5446 84.4746 68.0333 91.637 64.9022 92.6191C61.8795 93.5667 58.8604 100.424 60.7294 102.078C61.0606 102.371 61.3316 103.638 61.3316 104.878C61.3316 107.015 61.3857 107.049 62.1565 105.541C62.9392 103.999 63.1319 103.991 66.2209 105.326C68.0032 106.093 70.0023 106.894 70.6646 107.101C71.327 107.308 71.9893 107.531 72.1278 107.583C72.7119 107.807 76.3849 105.567 76.3849 104.99C76.3849 101.217 70.6646 99.8039 64.9444 102.164C63.4631 102.776 63.4571 102.759 64.5409 100.993C65.2273 99.8901 67.2806 98.6754 69.9601 97.8053C72.3686 97.0299 75.0361 95.5223 75.9935 94.411L77.7035 92.4124L72.8323 91.8007L67.961 91.1977L69.5868 88.0274C72.471 82.4217 74.2353 80.1732 76.1862 79.6244C78.9439 78.8473 80.365 76.1922 82.1112 68.556C83.0806 64.3028 83.5743 60.4339 83.2612 60.6225ZM264.774 62.2413C265.419 62.1965 265.671 62.4894 265.671 63.1837C265.671 63.8798 266.213 65.1531 266.876 66.0103C268.363 67.9357 268.411 69.0255 267.014 69.0255C266.43 69.0255 264.919 69.8172 263.66 70.7855C261.101 72.7454 260.62 72.6386 255.074 68.9092C253.057 67.5515 251.106 66.441 250.745 66.441C247.33 66.441 250.811 64.7284 255.881 63.9126C259.427 63.3414 263.076 62.6591 263.997 62.3964C264.299 62.3085 264.557 62.2559 264.774 62.2413ZM234.583 64.9524L240.039 65.322C243.043 65.5253 246.445 66.23 247.607 66.8873C251.895 69.3184 257.585 72.3345 259.042 72.9496C261.095 73.8145 261.932 75.6495 262.372 80.2249C262.914 85.865 263.69 88.26 266.009 91.4819C271.091 98.5203 265.997 98.796 259.903 91.8093C257.609 89.1732 252.214 83.6837 247.908 79.6072C243.603 75.5306 238.84 70.5667 237.329 68.575L234.583 64.9524ZM28.5334 72.8049C29.0783 72.6911 29.3161 73.9377 29.7069 77.3139C30.194 81.5249 30.1326 81.592 27.9981 79.1902C26.1158 77.0718 26.0074 75.7348 27.5561 73.7301C27.9746 73.1882 28.2853 72.8565 28.5334 72.8049ZM58.7574 75.9476C58.6894 75.9476 58.5756 76.0148 58.4178 76.1543C58.0355 76.4929 57.7157 77.6206 57.7085 78.6587C57.7013 79.6968 57.1594 82.2347 56.5042 84.3006C55.1657 88.5184 54.9682 93.5926 56.0123 96.8749C56.9089 99.6833 56.8643 99.7092 58.407 95.4017C59.6432 91.9558 59.6763 91.3355 58.9995 84.603C58.6051 80.6754 58.4696 77.0296 58.6972 76.5015C58.855 76.1371 58.8706 75.9476 58.7574 75.9476ZM326.135 76.6445C324.111 76.5816 322.281 77.2191 320.499 78.5605L317.813 80.5781L320.499 82.2528C322.811 83.6993 323.624 83.8018 326.49 83.0109C332.385 81.3844 335.805 80.062 336.425 79.1747C336.828 78.5932 336.576 78.5028 335.66 78.899C334.878 79.2359 332.993 78.8741 331.271 78.0556C329.398 77.1649 327.706 76.6928 326.135 76.6445ZM294.3 79.4237C293.186 79.4917 292.15 79.8027 291.289 80.3627C289.326 81.6446 289.308 81.5817 292.319 83.7888C294.733 85.5575 295.161 85.6049 299.87 84.6366C302.615 84.0723 305.162 83.8776 305.53 84.2041C305.939 84.5642 306.035 84.4074 305.77 83.8035C305.536 83.2565 304.747 82.7999 304.024 82.7895C303.296 82.7792 301.519 82.0038 300.08 81.0665C298.238 79.8699 296.16 79.3108 294.3 79.4237ZM342.651 81.8858C340.261 81.984 336.66 83.8052 334.576 86.4164C329.934 92.2573 336.877 94.1181 342.633 88.5873C343.855 87.4157 345.529 86.2355 346.36 85.9607C349.437 84.9536 350.605 82.8662 347.793 83.3986C346.276 83.6855 345.15 83.4942 344.897 82.9067C344.572 82.152 343.735 81.841 342.651 81.8858ZM288.634 86.3044C288.212 86.3561 287.869 86.6145 287.652 87.1142C287.448 87.588 286.562 87.9757 285.695 87.9757C284.208 87.9757 284.178 88.0532 285.232 89.1559C286.31 90.2759 286.316 90.5515 285.382 94.971C284.846 97.521 284.286 100.381 284.142 101.329C283.997 102.276 283.847 103.215 283.805 103.422C283.648 104.258 285.214 109.513 285.623 109.513C288.254 109.513 289.242 101.329 287.592 93.1446C287.165 91.0254 287.177 91.0167 288.411 92.5674C289.188 93.5495 290.031 96.4872 290.639 100.321C291.181 103.767 292.235 107.583 293.011 108.953L294.408 111.4L294.836 104.43L295.257 97.4521L297.479 99.7867C301.393 103.913 302.965 106.437 303.35 109.229C303.892 113.174 305.746 115.207 311.081 117.706C315.049 119.558 318.536 120.187 315.453 118.498C314.923 118.205 313.544 115.94 312.394 113.459C309.859 107.988 309.299 107.299 306.15 105.705C303.109 104.172 296.913 98.3136 298.322 98.3136C298.888 98.3136 300.767 99.1147 302.501 100.097C305.15 101.587 306.379 101.777 310.082 101.286L314.507 100.691L312.52 98.7702C308.426 94.8159 300.014 92.6622 299.99 95.5568C299.96 99.7264 294.95 97.5641 294.264 93.0757C293.722 89.5694 290.458 86.0606 288.634 86.3044ZM37.2914 110.693L38.4625 114.415C39.1068 116.465 40.0317 120.049 40.517 122.384L41.3991 126.639L39.5988 127.966C38.6083 128.707 37.4955 130.249 37.1252 131.412C35.4416 136.702 34.3909 130.654 35.7186 123.323C36.2389 120.454 36.6032 117.792 36.5279 117.413C36.4526 117.034 36.5947 115.371 36.8422 113.708L37.2914 110.693ZM328.218 117.034C327.658 117.077 325.665 125.623 325.261 130.12C324.942 133.626 324.551 136.693 324.382 136.934C323.172 138.666 324.286 139.458 325.93 138.028C329.38 135.03 330.554 130.559 329.428 124.77C329.037 122.78 328.645 120.368 328.555 119.42C328.465 118.472 328.368 117.516 328.344 117.301C328.32 117.111 328.278 117.025 328.218 117.034ZM66.808 130.068C68.4096 129.982 67.5245 135.513 64.0141 141.776C62.1715 145.058 58.3359 152.777 55.4866 158.937C52.6374 165.096 49.1667 171.911 47.7745 174.073L45.2426 178.001L45.5009 170.196C45.6436 165.897 46.1355 161.03 46.5949 159.367C48.2948 153.234 50.4022 145.092 50.8322 143.008C51.4367 140.07 52.7192 138.872 55.9172 138.244C59.8593 137.468 61.5333 136.357 63.7852 133.04C65.1701 130.998 66.1757 130.103 66.808 130.068ZM47.5403 130.154C47.8992 130.12 48.0894 130.602 48.0894 131.602C48.0894 132.437 48.6434 134.599 49.3196 136.409C50.6894 140.061 50.6148 140.751 48.0088 148.685C47.0592 151.579 46.283 154.362 46.283 154.879C46.283 159.764 45.086 154.784 44.5158 147.53C44.1172 142.456 43.6403 137.236 43.456 135.918C43.2116 134.169 43.3597 133.523 44.0064 133.523C44.4935 133.523 45.3829 132.747 45.982 131.8C46.6552 130.74 47.182 130.189 47.5403 130.154ZM39.9444 134.169C41.6472 134.281 42.6462 136.374 42.6624 140.199C42.6666 141.267 42.4673 142.094 42.2186 142.043C36.1058 140.664 33.9622 137.77 37.2113 135.28C38.25 134.487 39.17 134.126 39.9444 134.169ZM8.18307 143.111C8.1054 143.12 8.04278 143.154 7.99822 143.214C7.33768 144.162 12.9718 152.915 14.7054 153.638C15.6802 154.052 17.6968 155.051 19.1871 155.878C20.6773 156.697 22.155 157.171 22.4693 156.921C22.7914 156.671 22.7306 156.326 22.3308 156.128C21.94 155.947 21.023 154.276 20.2926 152.415C18.8932 148.849 15.7639 146.092 11.9464 145.058C10.7951 144.739 9.50837 144.093 9.08627 143.619C8.76955 143.266 8.4149 143.077 8.18307 143.111ZM41.5015 145.041C42.813 144.972 42.8702 146.419 43.3266 150.46C44.0943 157.265 44.6049 173.616 43.9347 169.929C43.6553 168.396 43.0526 166.414 42.5962 165.536C42.1398 164.657 40.8753 162.245 39.7854 160.186L37.8038 156.43L38.2036 163.718C38.6408 171.687 39.7674 176.261 41.4858 177.045C44.5513 178.432 41.133 188.296 32.033 204.311C26.9245 213.297 26.7414 213.391 27.2171 206.844C27.4375 203.812 27.6169 199.461 27.6169 197.178C27.6169 193.534 27.8921 192.638 29.887 189.769C33.7858 184.17 34.3608 182.852 36.048 175.736C37.6623 168.921 37.6677 168.818 36.4165 169.369C31.7012 171.445 29.46 176.175 29.4366 184.092C29.4191 190.045 28.4798 190.631 28.0053 184.979C27.408 177.863 27.5597 173.056 28.5261 168.499C29.0193 166.173 29.4233 162.848 29.4233 161.116C29.4233 153.871 32.1895 148.84 37.4275 146.557C39.4753 145.67 40.7145 145.084 41.5015 145.041ZM15.7344 157.627C14.1592 157.618 12.4913 158.032 10.9198 158.893C9.67094 159.574 8.10781 160.272 7.44546 160.436C6.11053 160.78 8.95561 163.365 11.9566 164.528C13.4674 165.113 14.3026 164.984 17.6817 163.675C18.6752 163.287 20.2673 162.727 21.2193 162.417L22.9504 161.866L20.9525 159.755C19.632 158.368 17.7594 157.644 15.7344 157.627ZM12.8966 242.432C12.687 242.475 12.3516 243.475 11.8651 245.482C10.3417 251.762 10.5278 254.889 12.6298 258.309C14.2285 260.92 16.7081 271.456 15.9705 272.507C15.841 272.696 15.0372 270.879 14.1845 268.466C13.3313 266.063 11.8904 263.435 10.9818 262.625C10.0738 261.824 8.5859 260.196 7.67487 259.007C5.74335 256.492 5.75467 256.449 6.90595 261.988C7.87297 266.649 10.7608 271.266 13.2446 272.11C15.6706 272.946 16.3769 276.306 14.9438 280.2C13.9648 282.87 13.807 284.568 14.0575 289.745C14.4272 297.387 13.2603 297.094 11.6514 289.151C10.6669 284.283 8.88817 281.13 4.75031 276.918L2.87437 275.005L3.31537 277.934C4.32093 284.593 5.58138 287.497 9.05436 291.158C10.9523 293.157 13.4168 296.292 14.5314 298.127L16.5563 301.47L13.8467 298.791C11.0944 296.077 1.7252 293.665 2.70246 295.931C2.91001 296.404 3.44122 296.801 3.88342 296.801C4.32557 296.801 5.57283 297.981 6.65426 299.428C9.86001 303.71 14.8403 305.373 16.6635 302.762C17.1266 302.099 17.7124 302.65 18.712 304.701C19.4821 306.277 20.2896 307.759 20.5081 308C20.7261 308.233 21.9292 311.145 23.181 314.461C24.4328 317.778 26.8528 323.981 28.5581 328.245C30.2627 332.509 32.0528 337.136 32.5363 338.531C33.0205 339.927 35.1773 343.847 37.3299 347.241C48.4676 364.824 48.7036 368.546 38.0531 358.647C34.2362 355.098 32.5129 351.557 32.5129 347.258C32.5129 345.199 29.2475 337.291 28.3955 337.291C28.1034 337.291 27.2183 335.551 26.4307 333.423C24.3985 327.944 23.7639 328.03 23.7819 333.793C23.8006 339.591 24.8826 342.391 28.2979 345.475C30.5138 347.474 32.9789 351.557 32.4388 352.324C31.5458 353.607 21.8461 342.417 20.4702 338.523C18.4964 332.932 14.8613 325.066 11.6279 319.389C10.199 316.873 9.02124 314.349 9.01101 313.781C9.00017 313.203 8.59373 313.488 8.10781 314.41C5.6216 319.113 7.33105 324.231 12.6979 328.15C15.7832 330.407 16.7448 331.665 18.2098 335.378C20.2661 340.59 19.564 341.245 16.7225 336.765C14.5687 333.38 10.9848 330.399 9.06038 330.399C8.3884 330.399 6.48145 329.658 4.82191 328.762L1.80534 327.117L2.85787 329.675C5.09323 335.111 12.5907 340.616 17.9407 340.763C18.5043 340.78 19.4737 341.34 20.0951 342.012C21.0947 343.097 20.7478 343.183 17.0845 342.744C12.7082 342.218 11.6032 342.666 6.0287 347.172L3.32838 349.352L7.53403 349.524C14.2701 349.8 14.7849 349.67 18.7229 346.862C23.2112 343.649 22.3074 343.631 25.1109 346.982C26.4007 348.525 28.0842 350.377 28.852 351.1C30.1532 352.332 29.8352 352.427 24.1559 352.393C16.9309 352.358 16.8695 352.47 22.1743 356.054C27.0732 359.353 28.2643 359.465 30.5102 356.821L32.2119 354.813L38.3259 360.146L44.4406 365.479L42.4776 366.814C40.785 367.968 40.3184 367.994 39.0744 366.96C34.9552 363.549 33.6208 363.084 28.6322 363.325C25.8648 363.454 23.7422 363.893 23.9151 364.298C24.507 365.677 31.6091 370.027 33.4161 370.113C34.6782 370.174 34.1339 370.553 31.6097 371.371C25.8232 373.232 24.7659 372.974 20.8171 368.709C18.0708 365.746 16.7551 364.876 15.0968 364.919C12.6871 364.996 7.91518 367.262 9.94016 367.374C10.6061 367.408 13.3157 368.787 15.9615 370.441L20.7713 373.439L17.0622 373.241C13.9925 373.077 13.0255 373.387 11.4593 375.041C10.4189 376.135 8.22769 377.608 6.58929 378.306C3.02117 379.822 2.87118 380.202 5.86859 380.158C7.11073 380.133 9.63548 380.417 11.4792 380.779L14.8325 381.433L16.8984 378.005C18.6325 375.136 19.4256 374.507 21.8251 374.137C24.6846 373.68 25.7311 374.602 23.508 375.61C21.739 376.42 19.6321 380.434 18.7289 384.724C18.2863 386.826 17.6396 389.419 17.2904 390.488C16.1722 393.899 17.1543 393.374 20.5317 388.747C23.0444 385.31 24.1529 382.95 25.2072 378.789C26.0882 375.317 26.8625 373.491 27.3406 373.758C27.7537 373.982 29.2909 373.861 30.7547 373.491C39.5254 371.276 39.6416 371.363 37.33 378.211C35.349 384.078 35.9559 396.234 38.285 397.337C39.7391 398.017 40.5129 388.317 39.6891 379.736C38.801 370.484 38.4439 371.337 44.458 368.347L48.6742 366.263L51.2814 369.329C61.8826 381.812 63.3698 386.129 54.5414 378.789C51.1405 375.963 50.4986 375.73 45.5623 375.644C42.6384 375.601 40.6809 375.773 41.2119 376.04C41.7436 376.308 43.1869 377.91 44.4207 379.607C47.9793 384.509 48.6597 384.776 56.1418 384.328L62.9062 383.915L65.9229 387.154C67.5848 388.937 70.5292 391.849 72.4681 393.615C76.9901 397.733 76.5023 398.508 71.613 394.976C68.1207 392.46 67.5426 392.297 63.9419 392.848L60.0467 393.451L61.9066 396.105C63.7191 398.698 63.9419 398.775 71.4505 399.456C79.0735 400.145 82.0299 401.618 84.8961 406.167C85.0647 406.425 86.7627 408.346 88.6775 410.423C92.7961 414.902 92.8382 415.54 88.834 412.637C85.3778 410.138 84.0591 410.043 79.3685 411.922L75.8641 413.326L79.0253 415.764C81.5663 417.719 82.9753 418.21 86.1846 418.236L90.1828 418.271L90.4237 424.361C90.6645 430.418 90.6826 430.478 93.8016 434.785C95.5298 437.163 96.9387 439.248 96.9387 439.412C96.9387 439.834 88.9063 435.862 87.3287 434.656C86.6001 434.096 85.8535 433.846 85.6789 434.096C85.4982 434.355 86.6423 435.449 88.2138 436.534L91.0679 438.516L88.4366 439.084C86.9855 439.403 84.1133 440.385 82.054 441.264L78.3027 442.866L81.4519 443.883C83.18 444.434 85.6367 445.149 86.9072 445.477C88.8882 445.976 89.1652 446.312 88.8702 447.88C88.6835 448.888 88.5269 450.499 88.5209 451.455C88.5089 453.876 76.677 452.455 69.3912 449.172C66.6876 447.949 66.9646 442.927 69.9933 438.3C71.7997 435.544 72.3175 435.888 71.9322 439.593C71.5829 442.944 73.4977 449.026 74.5936 448.052C75.6293 447.139 75.8099 442.375 74.9428 438.869C73.7325 433.958 73.7747 433.778 76.1411 433.778C77.2851 433.778 78.9109 433.33 79.7539 432.778C80.922 432.011 81.6566 432.02 82.8669 432.804C86.8771 435.423 84.4686 432.632 79.9947 429.479C77.2249 427.532 75.6413 426.722 76.4662 427.687C77.2972 428.652 78.4533 429.668 79.0373 429.944C80.922 430.848 79.4889 432.055 76.5445 432.055C70.3184 432.055 66.2661 435.199 63.4601 442.22C62.1114 445.589 61.6899 445.528 54.4908 440.893C44.3647 434.381 43.2682 432.821 43.0689 424.672C43.0105 422.268 42.3975 418.59 41.7075 416.487C41.0174 414.385 40.2654 411.758 40.036 410.647C39.4164 407.631 38.6312 409.466 38.1778 414.98C37.6624 421.26 38.0616 423.328 40.6381 427.738C41.7996 429.729 42.7492 431.486 42.7492 431.65C42.7492 431.813 40.8055 430.659 38.4295 429.082C33.8099 426.024 33.7864 425.972 33.4059 418.374C33.1578 413.438 32.1143 410.724 27.7326 403.625L25.3391 399.749L25.3265 403.625C25.3102 408.536 26.8932 413.524 30.4422 419.761C31.9794 422.458 32.9591 424.801 32.6189 424.965C30.0267 426.205 18.6434 410.965 15.5653 402.135C13.3717 395.838 12.6425 395.915 12.6425 402.428C12.6425 407.838 14.6073 411.362 18.644 413.188C21.4469 414.463 23.2985 416.169 24.0536 418.193C24.6033 419.658 24.1866 419.572 20.1222 417.332C17.6222 415.953 14.4429 414.816 13.0568 414.816C11.6701 414.816 9.8396 414.291 8.98999 413.662C6.65853 411.922 4.33177 411.267 3.91287 412.232C3.70338 412.723 4.16107 413.102 4.95486 413.102C5.8371 413.102 7.37266 414.558 9.02973 416.979L11.69 420.855H17.8197C24.631 420.855 28.6514 422.906 43.0503 433.734C46.362 436.224 50.6425 439.386 52.5633 440.773C56.6109 443.676 56.5537 444.52 52.2225 445.778C45.6533 447.682 42.7968 447.26 38.86 443.805C34.4217 439.903 32.0962 438.946 27.0937 438.972C20.463 439.015 26.9161 444.262 35.8668 446.114L41.0512 447.182L36.7489 448.233C33.5528 449.026 32.1251 449.043 31.19 448.328C29.5552 447.079 26.2604 447.742 22.7427 450.034C21.1663 451.068 18.6651 451.877 17.0411 451.895C11.5749 451.955 10.8235 453.979 16.1481 454.298C28.2962 455.03 28.7171 454.996 30.5138 452.937C33.0374 450.042 34.1881 449.534 38.9859 449.147C44.2786 448.724 44.4695 449.327 39.8066 451.765C36.8091 453.325 35.7464 454.505 32.9284 459.415C29.0771 466.109 29.0067 466.798 32.5472 463.128C33.952 461.673 35.7885 460.484 36.6279 460.484C38.8347 460.484 43.0406 457.339 43.8433 455.091C44.2214 454.031 44.7856 452.153 45.0969 450.921C45.6196 448.845 46.0001 448.647 50.1572 448.19C52.6296 447.923 55.5343 447.053 56.6127 446.26C59.9088 443.814 62.9002 447.036 60.5097 450.456C58.5979 453.187 60.0653 453.17 64.261 450.387C65.8446 449.345 66.5792 449.293 68.1749 450.12C71.8057 451.998 76.135 453.454 79.9706 454.074C82.06 454.41 83.5533 454.962 83.2824 455.289C82.1142 456.728 75.2258 459.545 71.3481 460.165C69.0299 460.535 67.7473 460.983 68.488 461.156C71.3902 461.819 68.3073 464.584 62.6533 466.402L60.299 467.16L59.0489 463.016C58.3637 460.734 57.7989 457.589 57.7941 456.013C57.7778 450.198 57.3039 449.164 55.3295 450.62C52.4339 452.765 53.086 457.563 56.9806 462.749C60.4435 467.367 56.3478 470.865 47.5367 470.83C46.0302 470.822 44.502 471.244 44.1419 471.761C42.5734 474 34.7757 473.716 32.3275 471.321C27.7759 466.876 25.598 465.773 20.121 465.17L14.75 464.567L21.3114 469.348L27.8711 474.13L25.5264 475.008C19.8356 477.145 20.0175 477.162 17.5264 474.345C14.0286 470.382 11.4822 469.15 6.84339 469.202C2.73871 469.254 2.72094 469.262 4.51379 470.572C5.50731 471.295 6.99753 472.76 7.82547 473.837C10.0853 476.757 11.69 477.705 14.5609 477.808L17.1585 477.912L14.9523 478.523C12.2228 479.281 10.6976 480.694 6.31893 486.501C4.42709 489.016 2.23069 491.644 1.43846 492.342C-0.872827 494.392 -0.219031 495.296 2.13585 493.306C3.31182 492.316 5.41176 491.247 6.80244 490.937C10.0805 490.196 11.7164 488.723 15.1757 483.382C18.8138 477.765 19.4611 480.979 15.9603 487.285C14.3929 490.102 13.8781 491.833 13.9353 494.082C13.9835 496.003 14.1039 496.408 14.2677 495.202C14.4092 494.159 15.5249 492.092 16.7461 490.61C21.3735 485.002 23.4303 481.728 23.7868 479.411C24.1746 476.878 28.4208 475.069 33.7666 475.163L35.8246 475.198L34.0183 476.378C32.0625 477.67 23.7302 489.55 25.3933 488.68C34.4994 483.925 37.9321 480.539 37.9321 476.301C37.9321 474.466 38.1965 474.268 40.5923 474.268C42.0555 474.268 43.6795 474.035 44.2003 473.742C44.8006 473.415 45.292 473.811 45.5413 474.819C45.7574 475.698 46.7257 477.627 47.6921 479.101L49.4503 481.788L47.1538 483.796C45.4606 485.277 43.5783 485.941 39.9878 486.32C35.1057 486.845 34.3862 487.259 28.5154 493.022C26.3573 495.141 36.2443 493.797 38.8227 491.618L41.0343 489.757L39.7433 492.35C39.0328 493.78 37.5305 495.951 36.4057 497.175C33.952 499.854 31.4345 506.005 30.9239 510.571C30.509 514.284 30.9474 514.68 32.7754 512.225C33.4589 511.312 34.9317 509.666 36.0468 508.563C38.1922 506.453 39.7144 501.706 39.7301 497.071C39.7409 494.039 40.8814 491.428 43.2586 489.008L44.9506 487.285L44.6778 491.98C44.4207 496.416 46.1591 502.671 47.6578 502.688C48.4713 502.705 48.8566 492.566 48.1792 488.965C47.1887 483.701 51.1586 480.298 56.8746 481.513L59.3078 482.03L57.2371 479.54L55.1646 477.059L56.7855 474.302C57.6761 472.786 58.4046 471.054 58.4046 470.46C58.4046 469.857 60.2327 468.564 62.4666 467.582C64.7066 466.592 67.7172 465.162 69.1624 464.395C71.6492 463.085 71.89 463.094 73.7687 464.679C78.0137 468.263 86.1967 469.038 87.9489 466.014C88.3403 465.342 89.4663 464.791 90.4538 464.791H92.2481L90.2731 468.022C88.5209 470.882 87.8887 471.313 84.7335 471.769C81.5482 472.243 80.91 472.682 78.67 475.973C76.4783 479.187 76.3578 479.566 77.6705 478.997C78.5014 478.635 81.3435 478.101 83.9929 477.8C90.6163 477.05 93.3259 473.311 93.3259 464.929C93.3259 463.516 95.4334 462.948 97.1615 463.887C98.1069 464.403 98.7451 465.411 98.7451 466.385C98.7451 468.987 100.275 470.227 102.671 469.581C104.303 469.142 105.206 469.426 106.537 470.779C107.675 471.942 109.553 472.682 111.992 472.941C117.881 473.561 119.94 475.172 116.358 476.344C115.448 476.645 112.486 477.903 109.77 479.135L104.839 481.383L102.135 479.118C99.0643 476.542 98.691 476.49 92.3625 477.834L87.7321 478.816L91.5075 480.849C93.5849 481.969 96.6738 482.908 98.3718 482.943L101.455 483.003L98.1791 484.674C96.3788 485.588 94.2894 487.164 93.5307 488.181C90.8211 491.825 80.3861 488.163 77.0382 482.391C75.3342 479.454 68.3675 476.706 69.5417 479.436C69.7464 479.91 70.4208 480.298 71.029 480.298C71.6913 480.298 72.8233 481.84 73.8168 484.08C76.412 489.955 78.1402 491.006 85.0888 490.972C92.4589 490.929 91.5135 491.807 82.3611 493.496C74.2263 494.995 73.2569 494.788 70.9507 491.032C70.0114 489.507 68.506 487.853 67.5908 487.345C65.3268 486.087 56.0816 485.536 57.4978 486.733C58.0705 487.224 59.7239 488.715 61.172 490.059C62.6232 491.403 65.6399 493.048 67.8798 493.72C70.1197 494.383 72.3597 495.159 72.8534 495.434C74.154 496.158 67.6329 500.035 65.0498 500.078L62.9664 500.112L65.3268 501.835C69.9692 505.221 77.6885 503.291 80.9822 497.924C82.4695 495.512 83.5292 494.771 86.9132 493.763C89.1833 493.082 91.3389 492.1 91.7002 491.583C92.6576 490.214 93.9522 490.412 93.5608 491.876C93.3801 492.557 91.7664 493.978 89.9781 495.038C84.306 498.406 81.9517 505.04 87.1119 503.119C92.7419 501.034 93.6571 499.811 94.5302 493.22C95.2829 487.569 95.879 486.509 98.6608 485.863C100.738 485.381 101.918 484.812 108.379 481.177C112.721 478.739 114.997 477.894 120.121 476.852C122.77 476.318 125.414 475.741 125.992 475.586C128.334 474.931 126.859 477.86 123.884 479.764C120.687 481.814 119.097 483.83 117.056 488.422C115.948 490.903 115.948 490.929 117.122 490.42C124.227 487.354 127.864 483.244 128.689 477.369L129.038 474.879L136.095 475.422C146.344 476.206 148.036 477.386 141.196 478.989C139.871 479.29 136.788 481.168 134.337 483.15L129.887 486.759L133.314 487.509C137.745 488.482 141.515 486.561 144.658 481.745C147.434 477.498 148.204 477.972 145.736 482.409C143.797 485.898 143.502 487.612 143.104 497.528C142.857 503.705 142.888 503.903 143.827 501.973C144.369 500.862 145.555 498.768 146.464 497.321C148.222 494.53 148.307 493.978 148.18 485.898C148.066 478.179 149.132 476.645 152.142 480.195C153.395 481.668 154.731 482.882 155.111 482.882C157.363 482.882 162.619 494.349 163.499 501.189C163.938 504.609 164.354 504.962 166.226 503.524C167.701 502.395 167.689 501.628 166.166 499.656C165.498 498.786 164.095 495.917 163.053 493.272C162.011 490.636 160.656 487.543 160.042 486.397C158.934 484.33 158.94 484.287 160.681 481.659C163.709 477.067 164.835 471.003 164.052 463.516C163.191 455.306 159.729 462.982 160.41 471.588C160.675 474.939 160.56 477.429 160.054 479.006L159.302 481.375L158.513 477.171C158.073 474.862 157.176 469.116 156.514 464.403C155.111 454.419 155.105 454.402 153.961 457.606C151.594 464.231 152.263 471.287 155.713 476.077C161.879 484.623 155.996 482.521 149.33 473.794C148.168 472.277 145.495 469.073 143.387 466.678C139.931 462.749 139.54 461.983 139.371 458.804C139.269 456.788 138.263 452.859 137.029 449.655L134.867 444.021L135.734 438.671C136.384 434.665 136.463 431.796 136.059 427.299C135.758 423.991 135.511 420.993 135.499 420.64C135.451 419.02 133.825 420.244 132.838 422.638C131.646 425.524 131.856 429.582 133.422 433.915C133.892 435.216 134.271 437.551 134.271 439.119L134.265 441.962L133.043 439.377C128.647 430.108 126.239 419.813 128.129 418.357C130.044 416.901 132.332 408.863 132.645 402.557L132.928 396.742L130.592 399.395C128.226 402.075 127.997 403.048 128.232 409.328C128.322 411.81 126.877 418.271 126.226 418.271C124.763 418.271 122.746 406.063 123.722 403.117C125.594 397.466 125.57 392.641 123.607 382.562C123.119 380.064 120.446 391.108 120.434 395.674C120.428 397.698 120.964 401.566 121.626 404.263C123.126 410.354 123.132 410.793 121.656 407.33C121.012 405.814 119.723 403.91 118.796 403.083C117.869 402.256 116.46 400.783 115.659 399.8C114.515 398.396 114.286 398.319 114.563 399.439C114.762 400.223 115.25 402.437 115.653 404.358C116.502 408.424 118.561 411.499 122.228 414.196C124.571 415.91 124.932 416.599 125.636 420.648C126.07 423.138 126.871 426.153 127.419 427.351C128.605 429.935 127.931 431.52 126.702 429.039C124.631 424.861 122.24 422.466 116.105 418.434C115.286 417.9 118.754 426.601 120.633 429.806C122.367 432.752 122.945 433.157 126.16 433.657L129.743 434.208L132.922 441.962C136.782 451.378 137.312 453.075 137.739 457.391L138.07 460.759L132.603 455.401C129.598 452.455 125.968 448.586 124.534 446.803C122.602 444.391 115.924 437.137 114.593 435.992C114.527 435.94 113.196 429.797 111.631 422.346C108.62 408.01 108.289 407.201 107.235 411.508C105.64 418.064 106.464 422.57 110.33 428.307C114.647 434.734 112.522 434.2 105.652 427.144C98.6488 419.942 97.8359 418.236 99.5941 414.394C101.057 411.207 101.882 404.513 101.449 399.43L101.051 394.804L98.697 398.095C96.2945 401.454 95.2046 409.415 96.9387 410.948C97.2699 411.241 97.5349 412.912 97.5228 414.661C97.4867 419.641 95.9392 415.006 95.4214 408.364C94.9457 402.299 93.5126 397.242 91.3329 393.934C87.0698 387.464 88.7256 403.401 93.073 410.69C96.4811 416.401 96.0476 416.927 92.0013 411.999C90.249 409.863 86.8651 406.201 84.4866 403.858C79.8623 399.309 76.0086 391.074 75.0392 383.647C74.8104 381.899 73.4917 378.056 72.1128 375.101L69.6079 369.726L69.1082 372.25C68.0123 377.772 69.0479 381.778 72.9498 387.076C76.2976 391.616 78.7182 396.389 78.11 397.25C77.2189 398.525 62.9002 382.148 61.3768 378.108C59.6679 373.585 59.6739 373.87 61.0998 364.858C61.2864 363.67 60.9493 360.396 60.3471 357.57L59.2512 352.436L57.6237 356.605C54.9556 363.428 56.2255 373.826 60.152 377.298C60.5157 377.617 60.8108 378.289 60.8108 378.78C60.8108 379.616 58.6244 377.023 50.156 366.151C47.1526 362.291 41.7244 352.927 42.2446 352.496C42.3572 352.401 44.2334 351.092 46.415 349.576C50.2807 346.905 51.0604 345.768 54.3944 337.963C55.7372 334.827 55.6559 334.422 53.9922 335.981C53.2209 336.705 51.2206 337.877 49.5479 338.592C46.1265 340.039 45.8219 340.444 43.4019 346.776L41.6696 351.307L41.9592 343.941C42.3229 334.689 40.3298 324.877 38.5921 327.366C36.8639 329.839 37.28 339.729 39.2869 343.872C40.1979 345.751 40.9428 347.939 40.9428 348.731C40.9428 351.126 33.9598 339.651 31.9463 333.94L30.1032 328.719L32.1781 323.223C34.1236 318.071 34.8046 307.785 33.1819 308.06C31.2268 308.388 29.206 314.659 29.2728 320.182C29.3565 327.048 28.7875 326.565 25.3686 316.856C23.0456 310.257 22.8969 311.222 26.7059 308.147C30.7962 304.838 31.9108 303.227 31.9108 300.617C31.9108 297.266 29.931 297.998 28.3931 301.909C24.1439 312.73 19.9633 310.171 23.8693 299.144C25.8973 293.415 26.0761 280.82 24.1041 282.569C23.1245 283.43 21.0724 290.004 21.0634 292.304C21.0459 296.637 20.0747 297.214 19.5388 293.208C19.0414 289.487 19.0402 289.487 18.8108 292.338C18.6849 293.915 19.0065 296.982 19.5249 299.161C20.7683 304.382 20.3372 304.692 17.4494 300.66C14.346 296.327 14.2864 293.57 17.188 288.505C18.7686 285.748 19.4731 283.482 19.894 279.804C20.6431 273.265 20.6515 273.342 19.3063 274.368C17.7191 275.582 16.834 275.487 17.1953 274.144C17.3596 273.532 17.058 270.138 16.5233 266.605C15.9892 263.073 15.4581 258.223 15.3437 255.828C15.2299 253.433 14.7265 249.944 14.2267 248.075C13.727 246.205 13.2224 243.905 13.1062 242.958C13.0604 242.587 12.9917 242.406 12.8966 242.432ZM350.699 274.609C350.296 274.617 349.82 275.169 349.128 276.263C348.52 277.228 346.514 279.226 344.666 280.717C342.823 282.207 340.662 284.145 339.861 285.024C338.416 286.609 338.386 286.601 336.549 284.111C333.34 279.778 329.101 278.167 323.868 279.295C318.136 280.519 323.495 285.472 329.51 284.499C331.852 284.12 333.593 284.283 334.695 285.007L336.35 286.084L333.412 287.212C331.798 287.841 327.782 289.125 324.488 290.072C317.51 292.08 317.498 292.088 319.738 293.725C324.368 297.111 329.305 296.155 332.647 291.218C338.62 282.397 337.157 290.813 331.052 300.359C329.992 302.013 327.752 305.838 326.078 308.853C323.332 313.798 322.796 314.358 320.574 314.599C319.165 314.746 316.42 316.193 314.18 317.95L310.242 321.052L306.503 319.802C303.703 318.872 301.698 318.76 298.555 319.337C296.242 319.768 294.147 320.13 293.9 320.138C292.768 320.207 293.623 322.533 295.297 323.946C297.314 325.652 300.15 325.35 303.179 323.111C304.088 322.439 305.72 321.896 306.816 321.896L308.803 321.905L306.996 323.653C300.517 329.942 293.322 333.388 292.31 330.683C291.287 327.952 285.669 324.67 281.261 324.222L277.197 323.817L279.051 327.16C280.924 330.545 281.604 330.873 285.994 330.537C287.728 330.407 292.244 332.475 292.244 333.405C292.244 335.499 283.712 338.385 281.653 336.989C277.703 334.31 274.331 334.344 267.286 337.153C265.54 337.851 273.259 341.676 276.45 341.693C277.865 341.702 280.569 340.935 282.453 339.987C286.711 337.842 287.018 337.833 284.597 339.944C283.537 340.866 282.207 342.71 281.629 344.036C281.05 345.363 280.021 347.379 279.334 348.525C278.353 350.161 278.299 350.489 279.082 350.092C279.629 349.808 281.177 349.11 282.52 348.533C285.362 347.318 287.511 344.381 289.396 339.126C290.594 335.775 291.076 335.258 293.906 334.25C295.646 333.629 297.754 332.484 298.591 331.7C300.397 330.003 301.505 330.967 299.771 332.725C296.85 335.688 295.177 339.108 292.359 347.887C291.985 349.059 298.067 344.096 300.307 341.409C302.366 338.928 302.649 338.101 302.998 333.5L303.384 328.374L308.803 323.826C315.384 318.303 316.57 317.545 319.587 316.934L321.941 316.46L318.196 324.282C316.137 328.581 313.433 333.776 312.187 335.826C310.501 338.592 305.431 348.146 304.63 350.049C304.594 350.144 300.301 352.048 295.092 354.288C285.073 358.595 284.507 359.078 287.517 360.577C292.1 362.86 295.249 361.679 299.259 356.149C303.751 349.972 303.378 353.013 298.446 362.842C293.412 372.862 292.22 374.025 289.535 371.509C287.307 369.424 282.628 368.235 279.075 368.856L275.842 369.424L278.142 372.793C280.491 376.23 286.054 377.789 287.126 375.308C287.331 374.834 288.499 374.455 289.721 374.473C293.202 374.524 289.962 376.738 285.32 377.479C281.081 378.16 277.546 380.21 275.234 383.329C270.712 389.428 281.851 387.059 286.945 380.839C290.938 375.963 291.305 376.583 287.861 382.372C286.367 384.879 283.808 389.721 282.17 393.124C278.991 399.74 273.235 405.254 268.044 406.641C266.822 406.968 264.137 408.855 262.071 410.827L258.314 414.411L260.078 415.126C263.938 416.703 266.738 415.212 270.441 409.63C273.614 404.84 276.95 401.377 277.552 402.247C278.443 403.522 266.997 424.008 264.173 426.188C261.012 428.634 261.21 428.626 254.912 426.584C254.081 426.317 251.793 426.799 249.818 427.661L246.229 429.229L249.143 431.555C253.912 435.371 261.18 433.562 263.607 427.937C263.829 427.42 264.299 426.998 264.642 426.998C265.226 426.998 263.414 430.125 255.815 442.246C253.118 446.536 246.572 454.307 246.271 453.557C246.205 453.402 245.29 450.714 244.23 447.596C242.363 442.065 241.569 440.945 236.113 436.181C233.922 434.26 233.639 434.372 234.728 436.75C235.234 437.861 236.053 440.721 236.553 443.116C237.564 448.009 237.847 448.44 242.273 451.903L245.44 454.384L240.292 453.971C233.825 453.445 226.967 456.297 228.707 458.787C230.435 461.259 237.348 460.665 240.244 457.796C241.557 456.486 243.086 455.427 243.64 455.427C245.314 455.427 237.294 465.411 233.301 468.297L229.652 470.934L225.811 467.961C222.21 465.179 215.021 464.205 215.213 466.531C215.442 469.323 219.826 472.217 223.685 472.122C228.484 472.002 228.147 472.812 221.361 477.705C216.749 481.03 217.423 481.246 215.273 475.792C212.961 469.943 211.835 468.349 210.011 468.349C207.669 468.349 208.18 471.183 210.914 473.38C218.477 479.462 216.688 485.441 208.981 479.85C204.977 476.947 196.174 476.697 197.396 479.514C197.998 480.918 202.593 483.856 204.2 483.865C207.229 483.89 207.632 485.277 204.833 486.044C202.231 486.759 202.231 486.759 204.224 487.086C205.326 487.267 207.47 486.811 208.993 486.07C212.642 484.287 212.859 484.907 210.041 489.033C207.012 493.479 205.085 493.565 201.545 489.413C199.618 487.147 198.034 486.139 195.463 485.536C190.893 484.468 190.947 484.459 191.664 486.38C192.513 488.654 192.447 489.921 191.507 489.404C191.08 489.163 188.707 489.593 186.239 490.36C183.77 491.127 180.38 491.885 178.706 492.049C177.032 492.212 174.593 492.936 173.287 493.651C171.98 494.366 170.372 495.081 169.71 495.253C168.879 495.46 169.433 496.012 171.474 497.028C175.864 499.208 178.05 498.941 180.44 495.934C182.265 493.642 189.629 490.093 190.363 491.153C190.496 491.334 189.225 492.488 187.545 493.711C185.859 494.926 184.023 496.994 183.457 498.286C182.897 499.587 181.759 501.715 180.928 503.024C179.17 505.781 179.139 505.772 183.011 504.118C186.269 502.74 189.496 498.605 190.086 495.055C190.67 491.583 193.019 490.576 195.74 492.617C197.607 494.021 198.793 494.245 202.412 493.892C207.753 493.358 207.548 495.029 201.996 497.33C198.594 498.742 196.391 501.284 193.446 507.202L192.109 509.89L194.157 509.261C198.811 507.823 200.84 506.013 203.399 501.051C204.796 498.329 206.988 494.805 208.271 493.212L210.607 490.317L208.734 494.194C206.838 498.131 205.152 511.536 206.735 510.131C207.066 509.838 207.343 509.08 207.343 508.443C207.343 507.814 208.168 506.031 209.18 504.48C212.173 499.897 213.335 492.772 211.51 490.162C211.047 489.499 211.432 488.663 212.865 487.233C213.967 486.13 215.003 484.976 215.171 484.657C215.334 484.347 217.369 482.624 219.687 480.832C222.005 479.049 226.341 475.586 229.321 473.139C232.302 470.701 235.535 468.142 236.511 467.453C237.486 466.755 240.226 463.671 242.598 460.596C254.888 444.658 257.489 444.322 250.571 459.562C248.09 465.015 245.615 467.488 242.61 467.488C241.171 467.488 235.644 472.157 235.644 473.372C235.644 473.794 234.427 475.06 232.94 476.189C229.111 479.092 229.171 480.005 233.199 479.979C237.251 479.953 239.208 478.403 241.364 473.518C242.761 470.348 245.615 466.816 246.151 467.591C247.048 468.866 239.226 482.745 236.505 484.717C232.597 487.534 227.099 492.738 223.131 497.364C221.373 499.414 219.609 501.094 219.211 501.112C218.808 501.129 219.007 501.706 219.651 502.404C222.939 505.962 226.515 503.515 229.255 495.831C230.833 491.42 231.712 490.041 234.307 487.948C237.95 485.01 238.407 486.01 235.276 490.076C232.91 493.16 230.827 498.286 230.827 501.043C230.827 501.999 230.309 504.73 229.683 507.099L228.532 511.415L230.321 509.916C234.12 506.711 237.968 495.986 238.07 488.336C238.082 487.526 238.474 486.139 238.943 485.252C239.702 483.821 239.762 484.321 239.455 489.559C239.088 495.822 239.401 497.399 242.55 505.376L244.074 509.244L244.194 503.222C244.387 493.582 244.302 492.85 242.333 487.216C240.087 480.789 240.075 482.09 242.418 478.075C243.495 476.232 244.79 473.82 245.296 472.725C246.157 470.865 246.223 471.313 246.199 479.445C246.175 489.774 246.253 489.869 248.758 482.279C251.064 475.267 251.143 473.561 249.294 470.348L247.891 467.918L251.618 459.166L255.345 450.422L256.279 453.23C257.086 455.651 257.104 456.314 256.381 458.097C253.997 463.99 253.671 465.902 253.84 473.036C253.93 476.998 254.238 480.031 254.521 479.79C255.484 478.937 258.525 468.78 258.585 466.195C258.627 464.386 258.892 465.17 259.464 468.78C260.771 477.059 260.584 478.566 257.603 484.218C255.532 488.146 254.924 490.033 254.954 492.402C255.008 495.848 256.592 502.679 256.67 499.776C256.694 498.829 257.658 494.952 258.814 491.161L260.909 484.287L260.771 489.593C260.656 493.978 260.873 495.365 262.029 497.605C262.794 499.096 263.823 502.231 264.311 504.575C265.371 509.683 265.636 509.89 265.606 505.609C265.588 503.825 265.786 500.216 266.039 497.579L266.497 492.781L264.1 489.826C262.095 487.345 261.656 486.208 261.397 482.779C261.078 478.687 261.722 477.188 262.427 480.367C262.993 482.9 265.798 485.915 268.797 487.207C270.266 487.836 272.079 488.766 272.825 489.266C275.21 490.868 274.842 489.456 271.609 484.623C269.207 481.03 267.557 479.445 264.648 477.938C262.222 476.68 260.945 475.568 261.132 474.888C261.288 474.293 261.204 472.097 260.945 470.003C259.398 457.451 259.458 457.288 264.245 460.596C268.345 463.43 276.842 462.56 277.612 459.226C278.088 457.15 271.308 456.038 265.311 457.219C258.844 458.485 259.44 459.002 257.351 450.396L255.893 444.365L258.037 440.635C266.762 425.464 269.779 423.336 264.648 435.966C262.673 440.833 262.511 441.755 262.457 448.811C262.421 452.997 262.541 455.797 262.728 455.039C262.914 454.281 264.034 452.213 265.22 450.447C268.647 445.356 268.833 444.382 268.52 433.674L268.231 424L270.495 419.684C271.742 417.306 273.777 413.093 275.011 410.319C277.889 403.849 278.431 404.547 275.962 411.542C274.204 416.539 274.09 417.366 274.475 422.518L274.897 428.092L276.751 425.43C278.564 422.837 278.618 422.518 279.094 411.775C279.575 400.869 280.605 396.639 283.784 392.538C283.965 392.297 285.308 389.867 286.759 387.128C289.89 381.235 290.335 381.175 288.306 386.913C286.56 391.849 286.494 393.736 287.806 400.447L288.788 405.46L290.492 400.938C291.859 397.302 292.202 395.286 292.22 390.694L292.244 384.974L296.501 384.63C300.734 384.294 300.776 384.259 303.787 379.797C305.449 377.324 306.906 375.308 307.021 375.308C307.316 375.308 304.54 386.801 303.697 389.058C303.305 390.1 303.131 391.168 303.305 391.418C303.486 391.677 304.251 390.04 305.009 387.791L306.394 383.708L306.792 387.473C307.014 389.549 307.701 393.658 308.315 396.613L309.435 401.971L310.146 397.474C310.531 394.993 311.031 391.478 311.259 389.661C311.609 386.826 311.844 386.43 312.939 386.852C313.644 387.119 314.77 387.343 315.444 387.352C317.13 387.369 316.137 404.297 313.843 414.721C312.988 418.589 309.477 418.202 306.244 413.86C304.317 411.284 304.558 410.535 307.147 411.086C309.489 411.586 313.74 408.846 313.06 407.278C312.422 405.796 309.092 405.538 306.641 406.778C303.209 408.51 303.083 408.45 303.083 405.064C303.083 403.427 302.769 401.101 302.384 399.895C301.848 398.224 301.854 397.173 302.402 395.441C304.233 389.704 302.282 393.15 300.078 399.551C298.717 403.513 298.151 405.779 298.825 404.599C299.5 403.41 300.21 401.756 300.403 400.92C301.035 398.224 301.878 400.274 301.878 404.487C301.878 413.395 304.076 419.193 308.983 423.207C311.338 425.137 311.296 425.74 308.056 436.043C303.504 450.525 302.414 452.101 296.718 452.386C295.038 452.463 292.467 453.342 290.998 454.333C289.529 455.315 287.692 456.392 286.915 456.719C284.808 457.606 286.09 458.735 289.944 459.381C294.334 460.113 295.779 459.545 298.862 455.858C300.253 454.195 301.481 452.842 301.595 452.842C301.71 452.842 300.903 455.616 299.801 459.019C297.663 465.627 297.627 465.661 292.316 466.204C288.866 466.566 286.969 468.056 282.008 474.328L279.298 477.748L282.008 477.765C285.44 477.791 288.932 475.525 293.286 470.451C295.177 468.246 296.808 466.85 296.923 467.333C297.79 471.046 287.138 487.328 280.966 491.73C276.571 494.874 276.619 495.917 281.171 495.917C284.952 495.917 287.415 493.1 288.692 487.328C289.583 483.313 290.775 480.668 292.19 479.592C293.214 478.799 293.153 479.393 291.588 485.208C290.624 488.792 289.83 493.341 289.83 495.322C289.83 497.304 289.462 499.923 289.023 501.137C287.806 504.471 287.349 507.805 288.023 508.4C288.366 508.701 288.631 508.047 288.631 506.909C288.631 505.652 289.649 503.455 291.341 501.086L294.051 497.278V488.508C294.051 478.764 295.484 473.01 303.052 452.412C304.793 447.673 307.002 441.548 307.972 438.8C310.001 433.011 310.591 433.088 311.47 439.282C312.801 448.681 312.512 452.773 310.091 458.408C307.364 464.757 306.695 468.082 306.719 475.241C306.743 484.726 310.41 475.491 311.705 462.689L312.452 455.272L313.186 461.423C313.74 465.997 313.752 468.039 313.253 469.374C312.379 471.717 312.843 476.43 314.445 481.461C315.167 483.718 315.733 487.293 315.745 489.619C315.788 497.442 317.203 498.518 317.425 490.894C317.937 473.518 317.913 472.915 316.474 470.348C314.451 466.738 314.096 465.084 313.825 458.227C313.53 450.654 313.951 450.378 315.655 457.046C316.745 461.337 317.57 462.861 321.002 466.893C325.681 472.398 326.162 472.501 323.597 467.436C322.58 465.429 321.749 462.801 321.749 461.595C321.749 458.442 319.551 452.42 317.979 451.274C317.239 450.732 315.926 449.922 315.065 449.482C313.614 448.733 313.475 448.19 313.156 442.237C312.97 438.705 312.361 434.544 311.807 433.002C310.103 428.29 312.349 424.008 314.74 427.428C316.649 430.168 316.637 428.066 314.692 422.061C313.963 419.796 313.927 418.745 314.505 416.462C315.818 411.267 316.835 405.073 317.269 399.585C317.504 396.596 317.889 394.459 318.118 394.847C319.123 396.518 321.092 406.374 321.526 411.922C321.785 415.238 322.098 417.073 322.218 416.014C322.682 411.87 324.615 416.272 325.885 424.361L326.415 427.73L323.519 429.522C321.923 430.495 319.725 431.305 318.624 431.314C314.559 431.34 313.837 432.011 314.854 434.837C316.354 438.981 319.707 438.051 323.332 432.477C326.56 427.523 329.004 433.381 328.98 445.993C328.974 448.147 329.269 450.335 329.631 450.844C331.196 453.092 330.997 464.248 329.323 467.755C326.216 474.259 325.446 477.378 325.024 485.217L324.603 492.902L327.945 483.511L331.286 474.13L331.901 477.481C333.394 485.622 333.406 485.364 331.437 488.93C328.667 493.927 327.806 497.571 327.842 504.213C327.878 510.08 327.884 510.105 328.8 507.547C329.305 506.125 330.329 503.989 331.082 502.809C333.123 499.569 333.785 497.278 333.858 493.169L333.93 489.456L334.357 492.609C334.893 496.511 335.875 498.699 339.933 504.962C341.691 507.667 343.528 510.812 344.016 511.94C345.449 515.249 346.081 514.318 344.69 510.95C343.997 509.261 343.251 506.263 343.034 504.273C342.516 499.578 341.487 497.235 337.753 492.29C333.827 487.087 336.073 486.156 340.481 491.17C342.45 493.41 343.66 494.142 345.232 494.065C346.575 493.996 346.858 493.823 346.015 493.591C345.286 493.384 343.841 491.79 342.805 490.041C338.885 483.425 336.597 480.479 334.978 479.971C333.207 479.411 331.949 473.337 332.009 465.687L332.033 462.749L332.858 465.334C333.761 468.125 342.065 480.048 341.456 477.67C338.133 464.645 335.766 459.734 332.804 459.734C331.521 459.734 331.383 459.355 331.383 455.926C331.383 453.833 331.22 451.507 331.015 450.766C330.787 449.905 331.064 449.198 331.768 448.845C332.382 448.535 333.731 447.148 334.761 445.769L336.639 443.254L338.042 446.536C339.078 448.957 339.542 451.653 339.807 456.788C340.174 463.775 340.463 464.808 344.491 473.208C345.972 476.292 345.033 462.146 343.51 458.459L342.209 455.289L344.022 457.141C345.021 458.158 346.538 460.303 347.393 461.914C349.266 465.429 353.565 469.03 356.763 469.762C359.352 470.348 359.629 469.727 357.913 467.109C357.275 466.135 356.124 464.024 355.354 462.431C353.878 459.355 350.561 457.184 347.321 457.158C345.202 457.141 343.377 455.513 341.685 452.11L340.481 449.689L343.763 450.077C346.864 450.447 351.235 447.958 351.247 445.813C351.259 444.65 344.172 444.098 341.655 445.072C337.976 446.485 335.598 440.807 336.447 432.632L336.808 429.151L335.068 432.115L333.334 435.078L331.407 432.761C330.347 431.486 329.137 430.444 328.721 430.444C328.3 430.444 327.397 427.825 326.71 424.629C326.018 421.424 325.018 417.116 324.482 415.057C323.567 411.491 323.573 411.146 324.681 408.458C327.186 402.385 327.728 390.677 325.614 388.17C325.145 387.61 324.759 385.999 324.759 384.586V382.019L327.017 384.845C329.016 387.352 329.317 388.256 329.643 392.771C329.968 397.328 330.275 398.241 332.575 401.446C334.821 404.582 335.086 404.754 334.689 402.876C334.436 401.687 334.062 397.621 333.852 393.83C333.328 384.354 330.714 380.477 324.856 380.477C323.868 380.477 323.471 377.462 324.127 374.989C324.488 373.637 325.193 372.724 325.873 372.724C327.692 372.724 328.559 370.536 328.107 367.107C327.8 364.772 327.999 363.48 328.944 361.576C329.757 359.948 330.275 357.26 330.455 353.771C330.889 345.346 332.015 342.399 332.834 347.525C333.045 348.826 333.924 353.065 334.785 356.95L336.356 364.005L334.773 367.874C332.972 372.267 332.936 372.801 333.876 381.856L334.562 388.48L335.983 383.079C336.766 380.107 337.422 375.687 337.446 373.258L337.488 368.847L338.657 373.534C339.295 376.109 340.397 379.099 341.107 380.184C343.654 384.061 341.095 398.991 337.061 403.789C335.008 406.218 333.087 416.186 334.996 414.506C335.327 414.213 335.598 413.257 335.598 412.378C335.598 411.43 336.676 409.811 338.241 408.389C342.348 404.676 343.082 402.204 343.058 392.262C343.028 381.718 343.642 383.07 344.822 396.165C345.876 407.804 345.726 409.191 343.1 412.49C342.035 413.834 340.878 415.996 340.523 417.297C339.644 420.536 339.259 433.76 340.096 431.736C340.439 430.917 341.481 428.557 342.42 426.481C343.359 424.405 344.509 420.088 344.979 416.884C345.443 413.679 345.984 410.474 346.177 409.768C346.683 407.907 349.393 417.237 349.423 420.933L349.447 423.914L350.651 420.536C353.017 413.894 351.669 402.859 347.917 398.138C346.231 396.01 345.714 394.494 345.009 389.652C344.533 386.404 343.853 383.32 343.486 382.803C342.528 381.433 342.667 379.581 343.69 380.141C344.166 380.408 345.16 382.708 345.9 385.267C348.255 393.382 352.891 396.751 351.548 389.368C350.091 381.313 349.236 380.003 344.63 378.754C340.68 377.677 339.939 376.824 339.487 372.844C339.15 369.872 338.753 368.184 336.212 358.94C334.508 352.737 333.918 349.472 333.189 342.141C332.816 338.35 332.412 334.568 332.304 333.741C331.846 330.39 333.894 332.501 335.224 336.757C336.657 341.331 338.066 343.614 341.276 346.526C343.01 348.111 343.028 348.111 342.673 346.431C340.529 336.266 337.657 331.062 333.55 329.882L331.81 329.382L332.19 319.286C332.738 304.623 333.562 302.202 334.682 311.989C334.893 313.884 336.206 318.295 337.591 321.801L340.114 328.168L340.638 323.266C341.318 316.925 339.975 311.532 336.609 307.035C333.641 303.064 333.972 301.961 337.073 305.493C339.512 308.267 340.71 308.689 347.64 309.258C351.958 309.62 352.096 309.568 350.747 308.224C349.971 307.449 348.507 305.752 347.496 304.451C345.545 301.935 345.166 301.815 339.512 301.996C334.116 302.159 333.045 300.634 335.525 296.327C336.555 294.535 337.404 292.622 337.404 292.08C337.404 288.858 345.419 281.346 350.199 280.079C352.59 279.45 352.837 278.856 351.831 276.177C351.44 275.117 351.109 274.6 350.699 274.609ZM331.672 302.564C332.069 302.702 331.991 304.296 331.78 307.156C331.563 310.188 331.383 314.539 331.383 316.822C331.383 320.466 331.106 321.362 329.113 324.231C325.217 329.839 324.639 331.148 322.953 338.264C321.339 345.079 321.333 345.182 322.58 344.631C327.294 342.554 329.54 337.825 329.564 329.916C329.582 323.955 330.522 323.369 330.991 329.02C331.594 336.136 331.437 340.943 330.474 345.501C329.98 347.827 329.576 351.152 329.576 352.884C329.576 360.129 326.807 365.16 321.568 367.443C316.113 369.821 316.402 370.01 315.673 363.54C314.902 356.735 314.397 340.383 315.065 344.071C315.342 345.604 315.944 347.586 316.402 348.464C316.859 349.343 318.124 351.755 319.214 353.823L321.195 357.57L320.797 350.282C320.358 342.313 319.232 337.739 317.51 336.955C314.445 335.568 317.865 325.704 326.969 309.689C329.841 304.632 331.154 302.392 331.672 302.564ZM313.758 335.999L313.499 343.804C313.355 348.102 312.861 352.97 312.404 354.632C310.706 360.766 308.598 368.907 308.165 370.992C307.562 373.93 306.28 375.127 303.083 375.756C299.139 376.532 297.465 377.643 295.213 380.96C290.293 388.231 290.101 380.942 294.984 372.224C296.826 368.942 300.662 361.223 303.51 355.063C306.364 348.904 309.832 342.089 311.223 339.927L313.758 335.999ZM345.455 349.145C344.545 349.153 343.431 349.507 341.318 350.325C340.324 350.713 338.729 351.281 337.777 351.583L336.049 352.134L338.048 354.245C340.397 356.717 344.485 357.079 348.08 355.115C349.326 354.434 350.892 353.728 351.554 353.564C352.885 353.22 350.043 350.635 347.044 349.472C346.472 349.257 346.003 349.136 345.455 349.145ZM336.7 357.019C336.627 357.027 336.567 357.045 336.531 357.079C336.206 357.329 336.266 357.682 336.669 357.872C337.061 358.053 337.976 359.724 338.705 361.585C340.108 365.151 343.233 367.908 347.05 368.95C348.2 369.261 349.489 369.907 349.91 370.381C350.332 370.854 350.826 371.035 351 370.785C351.663 369.838 346.027 361.085 344.293 360.361C343.317 359.957 341.3 358.949 339.813 358.122C338.506 357.407 337.211 356.959 336.7 357.019ZM312.957 357.174C313.337 357.217 314.071 361.257 314.481 366.469C314.884 371.544 315.36 376.764 315.541 378.082C315.788 379.831 315.637 380.477 314.993 380.477C314.505 380.477 313.614 381.253 313.018 382.2C311.669 384.328 310.91 384.397 310.91 382.398C310.91 381.563 310.356 379.4 309.676 377.591C308.309 373.939 308.381 373.249 310.989 365.315C311.94 362.429 312.717 359.638 312.717 359.121C312.717 357.742 312.807 357.157 312.957 357.174ZM316.781 371.957C322.893 373.335 325.036 376.23 321.785 378.72C318.461 381.27 316.36 379.366 316.335 373.801C316.329 372.732 316.534 371.905 316.781 371.957ZM34.5974 375.231C34.2241 375.213 33.6828 375.438 33.0674 375.972C29.6202 378.97 28.4418 383.441 29.5708 389.23C29.9604 391.22 30.3518 393.632 30.4415 394.58C30.5306 395.527 30.6264 396.484 30.6541 396.699C30.9106 398.732 33.2896 388.842 33.7364 383.889C34.0531 380.374 34.4481 377.307 34.6149 377.066C35.3724 375.98 35.2194 375.265 34.5974 375.231ZM322.989 380.589C323.934 380.4 324.272 385.181 323.278 390.677C322.754 393.546 322.393 396.208 322.465 396.587C322.543 396.966 322.399 398.629 322.152 400.291L321.707 403.307L320.532 399.585C319.888 397.535 318.967 393.951 318.479 391.616L317.6 387.361L319.4 386.034C320.388 385.302 321.502 383.751 321.869 382.588C322.291 381.261 322.676 380.649 322.989 380.589ZM42.5275 394.519C42.1566 394.563 42.3872 394.864 43.5409 395.502C44.0738 395.794 45.4509 398.06 46.601 400.541C49.1408 406.012 49.6965 406.701 52.8493 408.295C55.8853 409.828 62.083 415.686 60.674 415.686C60.1098 415.686 58.2288 414.885 56.4928 413.903C53.8488 412.413 52.6199 412.223 48.9132 412.714L44.4893 413.309L46.4775 415.23C50.572 419.184 58.985 421.338 59.0073 418.443C59.0398 414.273 64.046 416.444 64.7324 420.924C65.3947 425.24 70.1877 429.556 71.3438 426.886C71.5485 426.412 72.4337 426.024 73.3008 426.024C74.794 426.024 74.8181 425.947 73.7644 424.844C72.6866 423.724 72.6805 423.448 73.6139 419.029C74.1497 416.479 74.7097 413.619 74.8543 412.671C74.9988 411.723 75.1553 410.784 75.1914 410.578C75.348 409.742 73.7825 404.487 73.379 404.487C70.7417 404.487 69.7542 412.671 71.404 420.855C71.8316 422.974 71.8195 422.983 70.5851 421.432C69.8144 420.45 68.9654 417.513 68.3572 413.679C67.8153 410.233 66.7616 406.417 65.9848 405.047L64.5879 402.6L64.1604 409.57L63.7389 416.548L61.523 414.213C57.6049 410.087 56.0334 407.562 55.6498 404.771C55.1067 400.826 53.2509 398.792 47.9136 396.294C45.4364 395.14 43.1459 394.459 42.5275 394.519ZM286.723 406.408C285.837 406.468 282.61 408.467 282.61 409.018C282.61 412.783 288.33 414.196 294.051 411.835C295.532 411.224 295.538 411.241 294.454 413.007C293.768 414.118 291.714 415.324 289.035 416.195C286.626 416.97 283.959 418.478 283.001 419.589L281.291 421.587L286.163 422.199L291.04 422.802L289.408 425.972C286.524 431.581 284.76 433.829 282.809 434.372C280.051 435.156 278.63 437.809 276.884 445.442C275.589 451.119 275.15 456.107 276.33 451.696C276.534 450.938 278.118 448.966 279.852 447.32C283.676 443.685 284.158 442.892 285.271 438.386C286.343 434.036 290.438 425.171 290.438 427.187C290.438 427.997 289.878 430.685 289.191 433.166C288.15 436.956 288.017 438.714 288.36 444.012L288.776 450.344L290.119 447.501C292.882 441.643 294.388 429.608 292.365 429.573C289.45 429.53 290.968 422.363 294.099 421.381C297.115 420.433 300.132 413.576 298.265 411.922C297.934 411.629 297.663 410.362 297.663 409.122C297.663 406.994 297.609 406.951 296.838 408.458C296.056 410 295.863 410.009 292.774 408.674C290.992 407.907 288.993 407.106 288.33 406.899C287.668 406.692 287.012 406.477 286.867 406.417C286.831 406.408 286.783 406.399 286.723 406.408ZM302.137 415.161C301.824 415.118 301.457 416.169 300.59 418.598C299.355 422.044 299.319 422.664 300 429.401C300.391 433.321 300.529 436.974 300.301 437.499C300.048 438.085 300.156 438.223 300.578 437.844C300.963 437.508 301.282 436.379 301.288 435.345C301.294 434.303 301.836 431.762 302.492 429.703C303.829 425.481 304.028 420.407 302.986 417.125C302.595 415.893 302.378 415.195 302.137 415.161ZM91.8482 417.099C93.2512 417.022 96.0451 418.701 99.0919 422.191C101.386 424.827 106.781 430.314 111.086 434.389C115.392 438.473 120.155 443.435 121.666 445.425L124.412 449.052L118.956 448.681C115.952 448.474 112.55 447.768 111.387 447.113C107.1 444.684 101.41 441.669 99.953 441.048C97.8997 440.187 97.0627 438.352 96.6232 433.778C96.0812 428.135 95.3045 425.74 92.9863 422.518C90.4453 419.003 90.4513 417.168 91.8482 417.099ZM23.5302 422.113C21.6269 421.984 18.8818 422.992 16.3624 425.412C15.1419 426.584 13.4656 427.764 12.6377 428.04C9.55955 429.048 8.39262 431.133 11.2052 430.599C12.722 430.314 13.8473 430.504 14.1008 431.09C15.1449 433.51 21.3921 431.383 24.4196 427.583C27.0322 424.301 25.9773 422.268 23.5302 422.113ZM62.9495 428.738C62.0583 428.781 60.8962 429.005 59.1289 429.367C56.3838 429.927 53.8356 430.125 53.4665 429.797C53.0588 429.436 52.9631 429.591 53.2238 430.194C53.4605 430.745 54.2487 431.202 54.9742 431.21C55.6998 431.219 57.4737 431.994 58.9176 432.933C61.8656 434.846 65.4122 435.13 67.7063 433.64C69.6693 432.356 69.6874 432.416 66.6767 430.211C65.1714 429.108 64.4367 428.669 62.9495 428.738ZM35.0521 430.504C34.3674 430.521 33.5816 430.693 32.508 430.986C26.6138 432.615 23.1882 433.941 22.5728 434.829C22.1694 435.406 22.4223 435.501 23.3388 435.104C24.1179 434.768 26.002 435.13 27.7229 435.948C32.0083 437.982 35.3314 437.827 38.4999 435.44L41.18 433.424L38.4999 431.744C37.0517 430.84 36.1925 430.469 35.0521 430.504ZM325.623 430.823C324.479 430.711 322.703 439.972 323.203 445.451C323.895 453.075 324.594 458.494 324.672 456.909C324.72 456.064 325.322 452.963 326.015 450.025C327.225 444.882 327.291 437.43 326.177 431.934C326.027 431.184 325.84 430.848 325.623 430.823ZM329.26 433.218C329.525 433.183 330.061 433.76 330.994 434.811C332.879 436.931 332.987 438.266 331.44 440.273C330.097 442.005 329.856 441.6 329.29 436.689C329.013 434.32 328.911 433.261 329.26 433.218ZM98.0954 441.962C99.2816 442.039 100.799 442.995 103.918 445.089C105.941 446.45 107.886 447.561 108.247 447.561C111.661 447.561 108.181 449.276 103.111 450.086C99.5646 450.663 95.9157 451.343 94.9944 451.602C93.7721 451.955 93.3205 451.74 93.3205 450.818C93.3205 450.12 92.7785 448.845 92.1162 447.992C90.6289 446.062 90.5808 444.977 91.9777 444.977C92.5618 444.977 94.0731 444.184 95.3376 443.211C96.4515 442.358 97.1741 441.893 98.0954 441.962ZM116.846 450.482C118.73 450.439 119.736 450.559 118.767 450.921C117.695 451.317 116.31 452.179 115.696 452.834C115.082 453.488 113.396 455.298 111.956 456.857L109.331 459.691L114.425 459.123C119.995 458.494 123.192 456.883 123.74 454.419C124.71 450.034 131.604 454.927 142.798 467.953C149.078 475.258 149.144 475.517 144.568 474.836C142.449 474.526 139.408 474.268 137.812 474.268C135.265 474.268 134.639 473.871 132.634 471.02C128.72 465.437 127.799 464.619 122.825 462.207C118.062 459.898 117.99 459.889 118.375 461.673C119.826 468.418 123.132 471.631 128.666 471.666C132.826 471.692 133.236 473.036 129.286 473.708C124.312 474.569 120.952 474.345 117.767 472.967C116.141 472.26 113.817 471.683 112.607 471.683C107.543 471.683 104.026 467.72 102.431 460.225C100.769 452.42 100.636 452.834 105.158 451.791C108.133 451.102 113.709 450.559 116.846 450.482ZM97.987 452.739C98.7336 452.73 99.3117 453.023 99.2756 453.376C98.3121 462.12 96.289 465.187 94.5488 460.535C92.7665 455.78 94.0972 452.773 97.987 452.739ZM88.5094 454.539L89.4367 457.124C89.9545 458.537 91.0324 460.13 91.8452 460.656C95.5423 463.068 91.3154 464.567 86.1912 462.672C84.1861 461.922 82.3255 461.405 82.0606 461.509C81.7956 461.621 80.6335 461.414 79.4714 461.061L77.3639 460.423L79.9651 458.744C81.3982 457.822 83.9031 456.504 85.5349 455.806L88.5094 454.539ZM302.833 455.074L301.659 458.916C300.653 462.224 300.581 463.387 301.129 467.488C302.267 475.922 303.194 480.815 303.814 481.702C304.218 482.279 304.284 481.918 304.007 480.608C303.772 479.488 304.025 476.792 304.597 474.328C306.018 468.203 305.91 463.447 304.242 458.916L302.833 455.074ZM49.7561 462.448C49.1028 462.422 48.4778 462.457 47.9106 462.569C42.5835 463.559 38.7955 464.559 39.9053 464.671C40.4953 464.74 42.6612 465.601 44.7169 466.592C48.3074 468.323 53.5171 468.418 57.3581 466.824C60.2844 465.618 54.3293 462.612 49.7561 462.448ZM262.526 463.74C262.032 463.809 261.99 465.075 262.676 466.686C264.772 471.623 267.897 473.303 271.943 471.692C273.334 471.132 275.02 470.572 275.682 470.443C276.345 470.313 277.013 470.175 277.164 470.141C278.585 469.771 271.672 466.368 268.21 465.73C265.753 465.274 263.61 464.714 263.441 464.472C263.062 463.93 262.749 463.714 262.526 463.74ZM55.7173 470.934C56.8932 470.804 56.6048 471.425 55.3457 473.716C53.8651 476.413 52.9306 476.568 51.5294 474.354C50.3179 472.433 50.6015 472.088 54.0343 471.27C54.7701 471.097 55.3253 470.977 55.7173 470.934ZM296.498 476.886C294.349 476.68 294.21 484.149 297.233 490.584C298.052 492.333 298.877 494.728 299.069 495.917C299.774 500.319 301.231 501.99 300.858 497.967C300.659 495.796 300.791 494.185 301.201 493.823C302.893 492.324 301.406 483.391 298.75 479.057C297.853 477.601 297.1 476.947 296.498 476.886ZM113.131 480.944L111.655 483.804C109.927 487.155 109.68 493.014 111.053 498.157C111.529 499.94 112.017 502.18 112.131 503.127C112.372 505.031 114.178 500.965 114.991 496.675C115.401 494.513 115.31 493.315 114.395 488.482C114.124 487.061 113.733 484.778 113.516 483.417L113.131 480.944ZM109.458 481.34C109.331 481.306 109.205 481.47 109.12 481.831C108.994 482.391 107.826 483.701 106.525 484.743C104.032 486.751 102.106 491.222 101.383 496.684C101.16 498.329 100.709 500.173 100.377 500.776C100.046 501.379 99.9198 502.085 100.094 502.335C100.757 503.283 106.874 495.219 107.38 492.738C107.669 491.342 108.368 488.456 108.946 486.328C109.518 484.192 109.849 482.081 109.674 481.633C109.608 481.461 109.536 481.366 109.458 481.34Z" fill="#E1D4BA"/>
</svg>
