<svg width="283" height="441" viewBox="0 0 283 441" fill="none" xmlns="http://www.w3.org/2000/svg">
<path d="M121.191 439.05C112.055 435.676 106.438 433.977 96.5164 431.586C87.2474 429.352 84.9336 429.12 78.2352 429.755C63.575 431.145 60.7807 430.905 54.1599 427.685C50.8083 426.055 46.5895 424.472 44.7849 424.167C42.9802 423.863 40.027 423.345 38.2224 423.017C36.4177 422.689 33.8864 422.483 32.5974 422.558C21.7012 423.196 19.2032 422.153 16.1328 415.683C14.8028 412.88 9.22053 409.61 3.22477 408.122C1.76516 407.759 0.33826 406.857 0.0538831 406.115C-0.563841 404.506 4.21492 399.306 10.0111 395.28C13.6476 392.755 14.9979 392.389 21.2611 392.236C29.4206 392.036 33.2493 390.462 36.6546 385.908C39.2053 382.497 42.414 375.534 43.3057 371.474C44.0542 368.066 58.6077 356.503 65.5768 353.779C69.8642 352.103 70.5755 351.426 71.7509 347.9C72.6586 345.177 73.9588 343.46 75.8569 342.478C81.7377 339.437 82.2842 338.229 82.2919 328.251C82.2958 323.224 82.7427 316.376 83.2849 313.034C84.2501 307.085 88.2555 298.578 91.2689 296.077C92.4521 295.095 92.6168 293.74 92.1084 289.17C91.4255 283.032 88.6274 275.517 87.0251 275.517C85.5687 275.517 85.8184 276.558 87.5843 277.849C88.4884 278.51 88.8358 279.464 88.4184 280.14C87.9238 280.94 87.1498 280.388 85.9109 278.351C84.9253 276.73 84.3396 275.047 84.6094 274.61C84.8792 274.174 84.2556 274.037 83.2237 274.307C81.9652 274.636 81.3474 274.337 81.3474 273.397C81.3474 272.627 80.7146 271.471 79.9411 270.829C78.7894 269.873 78.5349 269.937 78.5349 271.183C78.5349 272.02 78.9123 272.704 79.3736 272.704C80.6226 272.704 78.9123 279.291 77.2253 280.978C75.9814 282.222 75.4439 282.247 73.4063 281.156C71.3027 280.031 71.0349 279.294 71.0349 274.636C71.0349 268.963 73.9753 256.999 76.2068 253.593C78.6983 249.791 78.8016 243.744 76.5771 231.923C73.9501 217.964 73.3136 204.384 74.9436 197.073C76.7514 188.963 76.4645 177.255 74.3488 172.797C71.9422 167.725 72.1004 159.387 74.6866 155.004C76.0353 152.718 76.6599 150.059 76.6599 146.603C76.6599 136.958 80.8183 121.46 84.7076 116.61C87.622 112.976 87.6483 114.999 84.7819 122.313C80.7744 132.539 79.2422 140.729 79.7348 149.29C80.2016 157.402 79.3668 161.03 77.6483 158.356C76.4145 156.437 75.6523 157.521 75.0432 162.062C74.6353 165.103 74.9536 166.534 76.5042 168.632C78.6897 171.588 80.4202 180.4 79.8202 185.517C79.6086 187.321 78.5536 192.354 77.4759 196.701C75.5483 204.476 75.5335 205.673 77.2163 217.641C77.7709 221.585 78.2346 222.294 81.1722 223.688C83.0025 224.556 85.3937 225.267 86.4861 225.267C89.7454 225.267 94.7223 219.174 92.5564 217.835C90.7762 216.735 91.6096 214.454 93.6821 214.755C96.454 215.157 96.8694 213.226 94.5172 210.874L92.5698 208.927L94.9273 207.852C96.8498 206.976 97.2849 206.114 97.2849 203.179C97.2849 199.722 98.5361 198.309 99.4349 200.751C99.6721 201.396 100.178 200.752 100.558 199.32C100.939 197.888 102.046 196.292 103.018 195.771C104.139 195.171 104.785 193.81 104.785 192.046C104.785 190.2 105.257 189.267 106.191 189.267C106.965 189.267 107.597 189.74 107.597 190.319C107.597 191.033 108.062 190.986 109.043 190.171C110.047 189.339 110.19 188.672 109.512 187.994C108.307 186.789 108.216 182.704 109.394 182.704C109.867 182.704 110.42 183.202 110.622 183.81C110.839 184.46 111.688 184.649 112.682 184.268C113.928 183.789 114.201 183.067 113.722 181.521C112.077 176.218 112.054 175.204 113.582 175.204C114.493 175.204 115.097 175.984 115.097 177.157C115.097 179.774 117.351 178.958 117.755 176.194C117.927 175.015 117.611 173.593 117.052 173.034C115.557 171.539 115.814 168.642 117.441 168.642C118.215 168.642 118.854 169.38 118.862 170.282C118.874 171.687 119.009 171.72 119.798 170.517C120.304 169.743 120.481 167.975 120.19 166.587C119.898 165.2 120.107 163.229 120.653 162.208C121.853 159.967 123.8 148.735 123.723 144.501C123.685 142.392 124.101 141.454 125.076 141.454C126.179 141.454 126.046 140.898 124.463 138.886L122.443 136.318L124.374 135.035C125.936 133.998 126.116 133.398 125.313 131.898C124.07 129.576 124.901 128.615 126.793 130.185C128.525 131.623 128.583 130.867 127.063 126.662C126.009 123.749 126.089 123.305 127.936 121.81C130.164 120.006 129.982 119.321 125.249 111.663C123.308 108.523 123.549 106.406 125.613 108.47C127.386 110.243 128.381 109.753 127.261 107.659C126.577 106.382 125.659 105.921 124.518 106.284C123.221 106.695 122.56 106.134 121.811 103.985C121.266 102.421 120.258 101.142 119.57 101.142C118.883 101.142 117.845 99.8801 117.263 98.3382C116.19 95.4952 112.996 93.6417 109.172 93.6417C105.198 93.6417 97.6291 99.4537 93.6063 105.595C90.2849 110.665 87.9099 112.862 87.9099 110.865C87.9099 109.848 95.6336 98.8328 96.8575 98.104C97.4984 97.7224 99.7951 95.9294 101.961 94.1197C107.05 89.8684 112.5 89.5534 116.9 93.2562C118.487 94.5911 119.785 96.2706 119.785 96.9884C119.785 98.1582 120.784 98.5573 126.582 99.7041C127.484 99.8826 128.222 99.8497 128.222 99.6311C128.222 99.4124 125.227 96.4076 121.565 92.9536C115.707 87.4272 114.526 86.7067 111.719 86.9485C109.966 87.0996 107.113 86.7553 105.38 86.1835C97.6379 83.6283 96.785 68.2791 103.441 51.2938C106.169 44.3338 106.125 44.8917 103.948 44.8917C102.06 44.8917 100.565 42.4805 101.929 41.6374C102.375 41.3614 103.412 41.393 104.232 41.7077C105.421 42.1641 105.722 41.6099 105.722 38.9652C105.722 35.3046 103.149 31.7375 101.931 33.709C100.553 35.9382 98.3555 33.7631 97.7228 29.5441C97.0076 24.7751 97.5601 23.3292 100.097 23.3292C102.15 23.3292 103.765 25.3878 102.138 25.9301C100.209 26.5731 100.939 27.7573 104.223 29.3161C105.977 30.1483 107.693 30.8292 108.037 30.8292C108.594 30.8292 108.171 28.8217 106.9 25.4385C106.657 24.794 107.092 24.2667 107.866 24.2667C108.639 24.2667 109.515 24.8995 109.811 25.6729C110.108 26.4463 110.997 27.0792 111.787 27.0792C112.576 27.0792 113.222 27.6784 113.222 28.4109C113.222 29.9162 116.487 30.7407 122.382 30.7237C124.926 30.7164 126.165 30.3548 125.78 29.7322C125.421 29.1516 123.694 28.9889 121.542 29.333C118.639 29.7972 117.91 29.6226 117.91 28.4635C117.91 27.3322 117.52 27.2216 116.139 27.9608C114.651 28.7575 114.182 28.458 113.198 26.0821C112.156 23.5675 112.248 23.0205 114.031 21.1227C116.54 18.452 116.586 17.403 114.16 18.1729C112.25 18.779 111.761 17.987 113.002 16.2979C114.184 14.6901 117.023 14.7089 119.514 16.3412L121.904 17.9075L119.204 20.1274C116.93 21.997 116.726 22.4965 117.91 23.2926C119.946 24.6611 120.442 24.5015 121.02 22.2929C121.568 20.1966 124.004 20.2772 124.004 22.3917C124.004 24.2588 126.028 24.5749 126.704 22.8133C127.104 21.7718 126.69 21.1232 125.414 20.7893C123.131 20.1924 123.063 19.6621 125.081 18.1868C126.441 17.1922 126.357 17.0673 124.379 17.146C122.883 17.2055 121.819 16.5175 121.193 15.0869C120.676 13.9052 119.304 12.6993 118.144 12.4072C115.53 11.7487 115.403 10.1939 117.91 9.5383C120.284 8.91755 120.361 7.39166 118.019 7.39166C117.034 7.39166 116.034 6.55138 115.756 5.49007C115.272 3.63785 115.166 3.65172 111.663 6.02422C107.656 8.73789 106.607 10.5967 107.319 13.7198C107.74 15.5616 107.427 15.8292 104.857 15.8292C100.916 15.8292 100.416 13.9552 103.19 9.58826C107.222 3.24183 112.682 0.0107191 115.676 2.1996C117.117 3.25362 117.547 3.21372 118.479 1.93964C119.398 0.682114 119.986 0.619889 122.052 1.56127C124.869 2.8445 125.892 4.78363 124.991 7.13101C124.46 8.51393 124.246 8.54753 123.499 7.36538C122.805 6.26833 122.623 6.40653 122.612 8.03945C122.605 9.16918 123.001 10.3428 123.494 10.6476C123.987 10.9524 124.116 11.9265 123.781 12.8123C123.214 14.3098 123.287 14.3076 124.826 12.7823C125.736 11.8799 127.084 11.1417 127.821 11.1417C128.557 11.1417 129.16 10.2979 129.16 9.26665C129.16 8.2354 128.738 7.39165 128.222 7.39165C127.707 7.39165 127.285 6.75884 127.285 5.9854C127.285 5.1104 128.17 4.57915 129.629 4.57915C130.918 4.57915 131.972 4.95487 131.972 5.41409C131.972 5.8733 133.343 6.47563 135.019 6.7526C142.246 7.94695 146.199 9.12426 147.776 10.5519C150.026 12.5876 151.66 12.4834 151.66 10.3045C151.66 8.4535 153.385 7.39165 156.391 7.39165C157.362 7.39165 158.608 6.5479 159.16 5.51665C160.247 3.48474 162.91 2.94461 162.91 4.75593C162.91 5.36878 163.77 4.94691 164.821 3.81843C165.873 2.68995 167.476 1.76665 168.384 1.76665C169.292 1.76665 170.51 1.29192 171.09 0.711682C172.846 -1.04465 178.664 0.639259 181.383 3.69103C182.737 5.21075 184.408 6.45415 185.096 6.45415C185.784 6.45415 186.347 7.2979 186.347 8.32915C186.347 11.113 184.845 10.6314 180.497 6.45415C176.297 2.41767 174.711 1.99236 171.871 4.14022C170.87 4.89726 169.319 5.51666 168.423 5.51666C167.527 5.51666 166.194 6.11648 165.461 6.8496C163.703 8.60773 160.497 9.14175 160.8 7.62603C161.359 4.83349 159.196 6.81745 157.312 10.8256C155.288 15.1306 155.283 15.2515 156.974 18.7836C157.918 20.7562 159.218 22.375 159.863 22.3809C161.382 22.3948 161.382 23.9793 159.863 24.5526C158.575 25.0387 164.795 28.0167 167.099 28.0167C167.889 28.0167 168.535 28.4941 168.535 29.0776C168.535 29.7794 167.227 29.9631 164.671 29.6203C161.885 29.2466 161.093 29.3868 161.829 30.123C162.964 31.2583 170.887 31.3937 176.194 30.3687C178.086 30.0032 180.545 28.7351 181.657 27.5507L183.68 25.3973L181.258 21.5602C179.926 19.4498 177.161 16.6148 175.114 15.2602C171.38 12.7893 170.66 12.7401 163.613 14.4754C159.104 15.5858 160.767 13.2564 165.639 11.6382C169.773 10.265 170.586 10.2524 173.607 11.515C175.458 12.2883 176.972 13.3644 176.972 13.9063C176.972 14.4483 177.599 14.8917 178.365 14.8917C179.131 14.8917 180.875 16.5792 182.24 18.6417C184.921 22.6928 187.285 23.5521 187.285 20.4756C187.285 19.1708 186.761 18.6473 185.644 18.8349C184.555 19.0178 183.904 18.4121 183.708 17.033C183.336 14.4122 178.488 10.2729 174.966 9.5686C171.633 8.90181 171.441 7.39166 174.69 7.39166C177.509 7.39166 180.113 8.6576 182.779 11.3233C184.182 12.7267 184.882 12.9334 185.398 12.0976C186.788 9.84865 189.639 11.6314 191.763 16.0784C193.338 19.3755 193.657 20.9963 192.979 22.2629C192.352 23.4334 192.4 24.3194 193.129 25.0481C193.929 25.8481 193.751 27.4756 192.421 31.5199C191.444 34.4916 190.583 37.5823 190.507 38.3883C190.251 41.1321 187.13 44.9924 185.956 44.0182C185.216 43.4041 184.538 43.6338 183.853 44.7307C182.728 46.5314 174.141 49.1123 167.597 49.6162C166.114 49.7304 165.821 49.9473 166.798 50.2069C168.613 50.6889 169.795 54.3193 168.544 55.5701C168.013 56.1012 167.026 55.9258 165.996 55.1175C164.464 53.9138 164.429 53.9424 165.607 55.4436C168.091 58.6099 164.665 68.8369 159.756 72.9108C158.913 73.6109 158.222 74.9407 158.222 75.8658C158.222 76.791 157.786 77.6934 157.252 77.8712C156.642 78.0745 156.755 78.8408 157.556 79.9357C158.676 81.4678 159.078 81.5228 160.904 80.3936C162.046 79.6878 163.221 78.1612 163.515 77.001C163.825 75.7805 164.771 74.8917 165.76 74.8917C167.678 74.8917 171.347 70.2854 171.347 67.8779C171.347 66.1449 176.242 60.8292 177.838 60.8292C179.365 60.8292 179.05 62.502 177.167 64.385C176.242 65.3095 174.923 67.5243 174.234 69.3069C173.546 71.0894 171.482 73.8792 169.647 75.5064C166.038 78.7076 162.972 86.1417 165.261 86.1417C165.929 86.1417 166.918 84.876 167.457 83.3292C167.996 81.7823 168.881 80.5167 169.424 80.5167C170.657 80.5167 170.669 81.5881 169.471 84.7378C168.63 86.9505 168.723 87.1458 170.366 86.6243C171.415 86.2915 173.236 86.7216 174.621 87.6292C176.919 89.135 177.111 89.1255 178.384 87.4445C179.122 86.4701 179.739 85.3565 179.755 84.9698C179.813 83.6046 181.66 84.2864 181.66 85.6729C181.66 86.4463 182.293 87.0792 183.066 87.0792C183.84 87.0792 184.472 87.712 184.472 88.4854C184.472 89.2588 185.15 89.8917 185.979 89.8917C187 89.8917 187.292 90.3952 186.885 91.4556C186.159 93.349 191.59 99.3547 193.4 98.66C194.061 98.4065 195.781 99.6779 197.223 101.485C198.666 103.293 200.183 104.563 200.596 104.308C202.014 103.431 201.346 94.9393 199.408 89.2002C198.341 86.0416 194.969 78.8932 191.914 73.315C188.859 67.7369 186.357 62.6456 186.353 62.001C186.349 61.3456 185.211 60.8355 183.769 60.8435C181.856 60.8542 181.539 61.0778 182.538 61.7103C184.19 62.7552 191.829 75.0902 195.864 83.2272C199.367 90.2898 200.602 98.3292 198.185 98.3292C197.019 98.3292 196.655 97.3915 196.639 94.3448C196.614 89.5161 193.569 82.3917 191.529 82.3917C190.72 82.3917 189.556 81.2315 188.943 79.8135C188.33 78.3956 186.642 75.8391 185.192 74.1324C182.535 71.0049 182.426 68.9 184.971 69.8767C186.669 70.5282 186.741 69.8042 185.14 68.1617C182.762 65.7201 179.664 59.9077 180.243 58.9713C181.307 57.2491 185.711 57.9705 189.295 60.4542C191.23 61.7948 194.727 65.6972 197.067 69.1261C199.408 72.555 204.082 78.3135 207.456 81.9229C210.829 85.5323 213.844 89.5401 214.157 90.8292C214.469 92.1182 215.406 93.9552 216.239 94.9113C217.256 96.0789 217.812 98.6954 217.932 102.88C218.031 106.307 218.36 110.449 218.664 112.084C218.976 113.76 218.789 115.323 218.236 115.665C217.696 115.998 217.522 116.704 217.849 117.233C218.176 117.762 218.024 119.104 217.512 120.215C213.945 127.951 213.665 130.726 216.113 134.062C219.607 138.824 220.864 142.214 222.057 150.097C223.184 157.546 223.429 158.15 224.816 156.894C226.571 155.307 229.098 155.09 229.941 156.454C230.26 156.97 231.471 157.392 232.633 157.392C233.89 157.392 235.582 158.524 236.813 160.189C237.95 161.727 240.139 163.636 241.676 164.432C243.214 165.227 244.472 166.544 244.472 167.36C244.472 168.296 244.993 168.642 245.887 168.3C248.238 167.397 251.241 169.142 256.66 174.556C265.782 183.671 268.009 186.253 269.896 189.904C272.16 194.287 279.16 212.613 279.16 214.159C279.16 214.775 280.006 217.19 281.039 219.528C282.961 223.871 282.753 226.767 280.521 226.767C279.833 226.767 279.003 227.199 278.677 227.727C278.35 228.256 278.642 228.572 279.325 228.431C281.113 228.059 280.941 236.188 279.013 243.173C275.898 254.457 270.494 268.565 268.061 271.765C266.689 273.569 264.568 276.944 263.349 279.265C259.871 285.885 256.938 287.839 237.441 296.524C229.168 300.21 218.222 301.532 218.222 298.845C218.222 298.389 219.593 298.002 221.269 297.983C222.945 297.965 225.371 297.347 226.66 296.61C229.575 294.944 228.003 294.852 222.366 296.36C217.351 297.701 214.632 301.373 216.319 304.526C217.943 307.561 217.417 309.037 214.328 310.114C211.485 311.105 211.434 311.213 212.999 312.943C213.894 313.932 214.549 315.724 214.455 316.926C213.961 323.221 218.888 326.67 229.472 327.441C232.824 327.685 235.657 327.914 235.768 327.951C236.52 328.197 238.343 332.903 239.328 337.139C240.34 341.495 240.301 342.367 239.034 343.633C237.709 344.959 237.719 345.179 239.147 345.978C240.013 346.463 240.723 347.577 240.724 348.454C240.725 349.763 246.338 354.171 250.511 356.142C253.96 357.77 259.498 362.257 259.633 363.532C259.721 364.366 259.861 365.681 259.943 366.454C260.025 367.228 260.8 369.501 261.664 371.506C262.82 374.189 262.965 375.479 262.211 376.387C260.888 377.98 261.892 379.579 264.215 379.579C265.949 379.579 266.442 380.497 266.105 383.095C266.021 383.739 266.807 384.267 267.851 384.267C269.094 384.267 269.952 385.076 270.337 386.61C270.661 387.899 271.447 388.954 272.085 388.954C272.723 388.954 273.968 389.754 274.853 390.732C276.098 392.108 276.184 392.613 275.233 392.968C274.333 393.304 274.497 393.806 275.846 394.841C277.677 396.246 277.677 396.275 275.846 399.688C272.499 405.924 267.437 411.865 263.67 413.978C260.405 415.81 259.719 415.905 257.983 414.767C256.111 413.541 255.898 413.737 253.915 418.522C251.722 423.813 245.583 430.766 241.852 432.184C236.636 434.168 235.699 432.528 238.847 426.923C241.816 421.638 241.07 416.552 237.889 420.386C236.444 422.127 228.75 427.392 227.651 427.392C227.216 427.392 226.651 427.937 226.396 428.603C226.14 429.269 222.615 431.724 218.561 434.058C211.596 438.07 210.836 438.293 204.72 438.12C199.396 437.969 197.984 437.59 196.751 435.982C193.041 431.14 184.66 430.199 162.539 432.139C155.013 432.799 150.288 433.692 148.008 434.884C137.143 440.565 128.803 441.86 121.191 439.05V439.05ZM136.191 436.294L139.004 434.969L136.191 435.551C134.644 435.871 132.324 436.451 131.035 436.838L128.691 437.543L131.035 437.581C132.324 437.602 134.644 437.023 136.191 436.294V436.294ZM126.347 436.249C126.347 435.965 125.082 435.29 123.535 434.751C121.988 434.212 120.722 433.39 120.722 432.925C120.722 432.46 119.246 432.079 117.441 432.079C112.851 432.079 113.355 433.364 118.613 435.062C123.442 436.621 126.347 437.067 126.347 436.249ZM202.847 434.174C203.415 433.795 204.283 432.25 204.778 430.74C206.114 426.664 208.032 425.827 212.792 427.243C220.691 429.593 220.824 429.59 223.204 427.023C224.449 425.679 225.777 424.579 226.154 424.579C226.531 424.579 228.048 423.718 229.526 422.666C231.426 421.313 232.661 419.184 233.742 415.4C234.583 412.456 235.731 408.438 236.293 406.469C237.065 403.763 238.671 401.859 242.879 398.659C246.458 395.937 248.768 394.749 249.35 395.332C249.932 395.914 249.474 396.819 248.067 397.867C246.734 398.86 246.508 399.285 247.489 398.954C249.233 398.366 250.862 400.028 249.514 401.02C249.062 401.354 247.642 402.889 246.36 404.431C244.77 406.344 245.305 406.044 248.044 403.487C251.024 400.706 251.931 399.231 251.564 397.768C251.292 396.684 251.864 394.152 252.835 392.141C253.806 390.131 254.857 386.376 255.17 383.798L255.74 379.11L253.8 383.317C251.747 387.77 249.407 390.829 248.053 390.829C247.604 390.829 247.891 389.564 248.691 388.017C250.272 384.96 249.631 384.202 247.699 386.843C245.651 389.644 244.927 387.183 246.784 383.735C247.98 381.515 248.239 380.158 247.59 379.51C246.942 378.861 246.113 379.923 245.008 382.817C244.112 385.161 242.782 387.079 242.051 387.079C240.287 387.079 240.371 386.29 242.597 381.923C243.629 379.9 244.453 376.963 244.429 375.397C244.391 372.885 244.065 373.242 241.675 378.407C240.183 381.63 238.515 384.267 237.968 384.267C236.624 384.267 236.713 383.242 238.406 379.19C239.34 376.955 239.544 375.233 238.993 374.248C238.278 372.97 237.947 373.146 236.856 375.385C236.147 376.842 235.039 378.206 234.394 378.416C232.854 378.918 232.949 375.974 234.567 373.051C235.675 371.052 235.647 370.596 234.365 369.659C233.046 368.694 233.094 368.464 234.805 367.548C236.223 366.789 236.603 365.881 236.258 364.076C236.001 362.731 236.309 360.662 236.944 359.477C237.873 357.74 237.843 356.838 236.789 354.826C235.52 352.403 235.444 352.543 234.197 359.627C233.491 363.64 232.586 367.556 232.187 368.329C231.787 369.103 231.224 370.863 230.936 372.241C230.647 373.62 229.356 376.001 228.066 377.533C225.78 380.25 225.726 380.66 225.863 394.246C225.94 401.906 226.179 407.013 226.394 405.595C227.021 401.452 228.535 402.629 228.535 407.259C228.535 411.472 225.642 421.284 223.881 423.046C223.279 423.647 222.062 423.556 220.365 422.783L217.769 421.6L220.672 420.38C223.202 419.316 225.487 415.594 224.325 414.431C224.112 414.219 223.676 415.092 223.355 416.372C222.636 419.234 215.919 421.762 214.123 419.847C213.337 419.008 213.36 418.612 214.215 418.298C214.846 418.066 215.581 418.013 215.848 418.181C216.966 418.884 220.097 411.167 220.097 407.708C220.097 404.996 220.488 403.954 221.504 403.954C223.185 403.954 223.386 402.394 221.774 401.857C220.884 401.56 220.884 400.656 221.774 397.685C223.147 393.102 223.25 382.564 221.986 375.901C221.168 371.586 221.284 370.729 223.006 368.4C225.303 365.293 225.861 359.835 223.949 359.166C222.959 358.82 222.794 359.303 223.264 361.176C223.773 363.204 223.56 363.642 222.065 363.642C219.964 363.642 218.702 367.714 219.523 371.845C220.61 377.316 221.129 386.559 220.544 390.021C219.429 396.624 218.223 393.773 218.21 384.501C218.203 379.474 217.942 374.411 217.631 373.251C216.514 369.081 215.41 371.266 215.41 377.649C215.41 383.207 214.395 386.377 213.047 385.028C211.813 383.795 212.952 373.063 214.694 369.502C215.261 368.343 215.443 367.113 215.099 366.768C214.754 366.424 214.472 366.832 214.472 367.675C214.472 368.695 213.971 369.015 212.972 368.632C211.07 367.902 209.707 370.037 210.375 372.698C210.807 374.419 207.532 389.644 206.511 390.666C205.817 391.36 203.408 389.236 198.189 383.329C191.367 375.608 191.035 375.175 191.035 373.994C191.035 372.596 192.038 372.785 193.988 374.551C195.564 375.976 195.733 375.96 196.385 374.316C197.291 372.034 197.252 362.34 196.318 357.66C195.065 351.383 193.557 355.171 193.77 364.058C193.924 370.435 193.692 372.079 192.638 372.079C191.625 372.079 191.355 370.764 191.489 366.489C191.688 360.174 190.185 350.517 189.003 350.517C188.574 350.517 188.222 356.296 188.222 363.36C188.222 373.635 187.988 375.97 187.051 375.032C186.244 374.226 185.879 370.37 185.879 362.659C185.879 356.498 185.738 351.879 185.566 352.393C185.394 352.908 184.887 353.329 184.438 353.329C183.99 353.329 183.869 351.254 184.169 348.718C185.008 341.638 182.361 335.286 175.805 328.645C172.838 325.639 170.41 323.002 170.41 322.785C170.41 321.822 173.604 322.548 177.012 324.287C180.256 325.942 181.44 326.067 186.357 325.275C193.043 324.198 193.847 323.784 193.847 321.417C193.847 320.277 194.708 319.399 196.191 319.027C197.48 318.703 198.535 318.013 198.535 317.493C198.535 316.965 197.605 316.806 196.426 317.133C190.834 318.684 183.98 318.787 182.129 317.347C180.38 315.987 180.696 315.886 186.816 315.845C193.479 315.8 202.887 313.704 200.37 312.825C199.618 312.563 198.079 312.69 196.948 313.108C191.098 315.268 178.612 314.508 173.187 311.661C171.659 310.86 169.144 309.54 167.597 308.729C166.051 307.918 164.785 306.954 164.785 306.588C164.785 306.221 163.512 305.169 161.956 304.25C160.4 303.331 159.36 302.201 159.645 301.74C160.388 300.539 164.066 302.128 167.141 304.977C169.975 307.604 173.222 308.183 173.222 306.063C173.222 305.332 175.178 303.987 177.569 303.074C179.959 302.161 182.701 300.57 183.662 299.539C185.407 297.666 185.41 297.667 185.41 299.696C185.41 301.123 184.294 302.298 181.66 303.642C176.926 306.057 176.775 306.947 181.426 305.03C185.035 303.542 187.285 301.35 187.285 299.321C187.285 297.609 180.294 295.349 171.816 294.322C167.691 293.821 161.646 292.529 158.382 291.449C153.008 289.671 150.393 288.588 138.066 283.038C136.004 282.109 130.308 279.591 125.41 277.443C120.511 275.294 114.739 272.735 112.583 271.757C109.734 270.464 108.559 270.286 108.283 271.107C107.989 271.982 107.169 271.972 104.637 271.064C100.407 269.546 99.1003 269.583 99.722 271.203C100.882 274.225 98.388 273.276 96.786 270.086C95.2347 266.997 95.002 266.844 94.6924 268.711C94.3281 270.909 97.7206 281.624 99.4761 283.82C100.587 285.21 102.451 288.305 103.509 290.517C107.12 298.069 115.219 309.008 122.303 315.902C137.831 331.014 145.405 335.939 151.592 334.95C154.744 334.446 155.41 334.606 155.41 335.866C155.41 337.074 154.425 337.392 150.685 337.392C146.017 337.392 139.968 335.095 136.42 331.976C135.514 331.18 134.546 330.756 134.267 331.034C133.493 331.809 140.648 337.167 145.236 339.249C150.683 341.721 153.772 341.61 157.083 338.824C160.103 336.282 161.526 336.598 159.989 339.469C158.582 342.098 153.012 344.194 149.491 343.421C142.045 341.785 138.316 339.154 126.816 327.418C120.411 320.881 114.468 314.018 113.608 312.166C112.749 310.313 111.361 308.021 110.525 307.071C108.828 305.145 104.39 297.772 102.933 294.458C102.145 292.667 101.764 292.51 100.665 293.52C99.5345 294.561 99.5335 294.779 100.658 295.039C101.871 295.318 102.372 296.467 102.074 298.28C102.007 298.683 102.819 299.941 103.877 301.077C104.935 302.213 106.699 306.103 107.796 309.72C111.93 323.355 116.484 332.374 123.188 340.204C126.057 343.556 129.382 347.814 130.576 349.666C134.025 355.018 141.429 363.103 146.513 367.069C153.801 372.755 160.955 377.704 161.885 377.704C162.351 377.704 164.423 379.075 166.491 380.751C168.558 382.427 173.061 385.696 176.497 388.017C184.7 393.555 189.513 397.182 193.596 400.901C196.365 403.423 197.01 404.741 197.384 408.635C197.735 412.287 197.538 413.329 196.497 413.329C195.591 413.329 195.159 412.261 195.159 410.019C195.159 407.506 194.413 405.982 192.058 403.691L188.957 400.673L191.402 404.639C194.879 410.278 194.638 411.145 189.576 411.222C186.082 411.275 185.358 411.003 185.601 409.73C185.764 408.873 186.842 408.038 187.997 407.873C189.152 407.709 190.089 407.287 190.08 406.936C190.058 406.116 184.263 401.437 178.847 397.867C176.527 396.338 173.089 393.809 171.208 392.247C169.328 390.685 165.953 388.395 163.708 387.158L159.628 384.909L161.62 387.166C164.495 390.423 165.674 393.017 167.479 400.054C168.948 405.78 169.389 406.454 172.792 408.175C177.237 410.423 185.752 416.196 186.191 417.259C186.363 417.676 187.072 418.017 187.768 418.017C188.464 418.017 189.297 418.849 189.62 419.867C189.943 420.885 191.238 422.528 192.496 423.518C193.755 424.508 194.784 425.992 194.784 426.816C194.784 427.639 195.628 428.84 196.659 429.484C197.691 430.128 198.534 431.102 198.534 431.648C198.534 432.696 200.424 434.902 201.3 434.877C201.584 434.87 202.28 434.553 202.847 434.174L202.847 434.174ZM173.691 321.813C163.897 318.426 157.304 315.435 158.029 314.71C158.733 314.006 161.937 314.955 168.066 317.686C172.711 319.755 182.601 321.437 187.369 320.967C192.042 320.508 192.298 320.581 190.621 321.899C188.341 323.691 178.982 323.644 173.691 321.813V321.813ZM138.535 302.818C125.91 288.406 122.048 282.079 125.879 282.079C126.652 282.079 127.285 282.647 127.285 283.341C127.285 285.982 130.338 290.516 136.205 296.589C139.549 300.051 142.049 303.264 141.761 303.731C141.026 304.921 140.163 304.677 138.535 302.818ZM116.666 297.782C111.187 292.375 106.66 286.796 106.66 285.45C106.66 285.143 107.293 284.892 108.066 284.892C108.84 284.892 109.472 285.239 109.472 285.664C109.472 286.089 112.41 289.464 116.001 293.163C119.592 296.863 122.982 300.734 123.534 301.765C125.439 305.324 122.697 303.734 116.666 297.782V297.782ZM213.535 433.966C214.561 433.311 214.001 433.102 211.463 433.193C209.55 433.261 208.204 433.672 208.472 434.105C209.12 435.153 211.789 435.08 213.535 433.966V433.966ZM149.785 430.635C154.168 429.383 160.646 427.956 164.181 427.463C171.081 426.502 172.211 426.005 170.773 424.567C170.173 423.967 168.079 424.158 164.741 425.114C161.929 425.921 158.415 426.819 156.931 427.11C152.733 427.934 154.292 425.545 159.203 423.627C161.5 422.73 163.517 421.302 163.686 420.453C163.947 419.145 163.408 419.002 160.171 419.52C155.609 420.249 154.711 418.297 159.196 417.4C160.839 417.071 161.832 416.387 161.541 415.783C161.263 415.207 160.768 413.969 160.441 413.032C159.999 411.766 158.977 411.368 156.456 411.482C151.631 411.701 151.007 411.545 152.597 410.517C153.371 410.017 156.194 409.601 158.87 409.594C161.547 409.587 163.997 409.157 164.316 408.642C164.672 408.065 163.128 407.704 160.309 407.704C157.786 407.704 155.453 407.434 155.123 407.105C153.737 405.719 155.626 405.312 161.039 405.83L166.796 406.38L166.184 403.12C165.511 399.532 159.305 386.622 158.594 387.332C158.35 387.577 159.01 390.881 160.061 394.675C162.326 402.851 162.339 403.017 160.693 403.017C159.879 403.017 158.822 400.544 157.789 396.22C155.348 386.002 151.086 377.641 147.128 375.303C145.706 374.463 143.559 372.34 142.356 370.584C141.152 368.828 139.749 367.392 139.237 367.392C138.725 367.392 138.995 368.341 139.836 369.501C140.678 370.661 141.752 372.502 142.223 373.592C142.693 374.682 143.744 375.829 144.557 376.141C145.37 376.453 146.035 377.302 146.035 378.029C146.035 378.755 146.643 379.854 147.385 380.47C149.356 382.106 153.497 393.515 154.164 399.145C154.667 403.392 154.547 403.924 153.199 403.407C152.314 403.067 151.655 401.763 151.649 400.338C151.634 396.971 149.462 389.056 147.619 385.65C145.75 382.195 145.57 383.857 147.35 388.137C148.073 389.875 148.965 393.724 149.333 396.689C149.875 401.061 149.746 402.079 148.653 402.079C147.706 402.079 147.003 400.126 146.289 395.51C145.272 388.941 139.497 374.982 136.906 372.832C136.18 372.229 134.743 370.085 133.713 368.067C131.254 363.246 130.478 364.228 132.257 369.909C134.538 377.193 134.727 378.642 133.392 378.642C132.723 378.642 131.9 377.481 131.563 376.064C130.359 370.994 126.184 358.471 125.441 357.701C125.025 357.269 125.049 358.871 125.496 361.26C126.778 368.125 127.31 375.703 126.544 376.177C126.158 376.415 125.083 372.321 124.156 367.079C123.228 361.837 121.919 355.649 121.246 353.329C120.087 349.331 120.029 349.711 120.138 360.576C120.208 367.525 119.884 372.141 119.316 372.295C118.742 372.45 118.302 368.65 118.181 362.502C118.033 355.009 117.246 349.41 115.086 340.471C113.492 333.879 111.731 328.064 111.172 327.548C110.453 326.885 110.324 327.297 110.733 328.954C111.051 330.243 112.429 336.782 113.795 343.485C116.038 354.493 116.168 356.215 115.138 361.276C114.512 364.357 113.598 367.627 113.109 368.541C111.811 370.967 110.067 370.629 110.807 368.095C112.799 361.267 113.348 353.788 112.292 347.843C109.838 334.017 108.408 327.657 107.023 324.403C106.222 322.523 104.719 318.243 103.682 314.892C101.848 308.964 99.1447 304.252 100.455 309.267C100.791 310.556 101.323 317.939 101.636 325.673C102.441 345.581 99.3365 364.476 94.0797 371.665C91.7189 374.894 91.1813 372.104 93.3695 367.979C96.8744 361.372 99.2443 345.521 98.9938 330.36C98.7955 318.357 97.8466 305.869 97.3909 309.267C97.2871 310.04 96.99 315.314 96.7306 320.985C96.0725 335.372 93.1108 352.399 90.0654 359.305C86.1781 368.121 83.252 372.484 82.0398 371.272C81.3007 370.532 81.4349 369.786 82.5232 368.584C86.4441 364.251 90.5473 352.57 93.1503 338.329C94.5008 330.941 94.841 307.708 93.6926 301.298L93.0208 297.548L90.0489 302.727C86.1429 309.534 85.1483 314.257 85.1189 326.142C85.092 336.981 83.6298 341.63 79.6278 343.598C76.3203 345.225 75.3896 346.443 73.7712 351.26C72.6198 354.687 71.7824 355.745 70.0212 355.996C65.9435 356.576 58.4662 360.536 54.016 364.471C51.6166 366.593 49.289 368.329 48.8437 368.329C48.3984 368.329 46.8245 371.733 45.3462 375.894C40.6863 389.009 30.5975 396.769 20.4384 395.053C16.1504 394.328 13.3024 395.451 9.15989 399.5C7.3552 401.264 5.05785 403.156 4.05465 403.705C2.6066 404.497 3.08965 404.614 6.3984 404.272C9.38738 403.962 11.4942 404.352 13.8474 405.649C17.4641 407.643 25.1221 417.799 24.4093 419.657C24.1093 420.438 24.9196 420.829 26.8398 420.829C29.9061 420.829 36.1885 415.796 34.4575 414.726C32.8588 413.738 33.4497 412.378 35.8786 411.454C37.2687 410.926 38.2224 409.822 38.2224 408.742C38.2224 406.184 39.1902 403.954 40.3003 403.954C40.8186 403.954 41.0717 405.396 40.8646 407.17C40.6582 408.938 40.8456 410.165 41.2811 409.896C42.3949 409.207 48.2602 413.39 49.3649 415.661C49.8698 416.699 50.3115 416.98 50.3464 416.286C50.4208 414.808 46.8421 409.452 45.041 408.347C44.3107 407.898 43.8877 406.233 44.0169 404.315C44.2818 400.381 46.1861 398.291 46.9264 401.122C47.1989 402.164 47.8634 403.017 48.4031 403.017C49.6235 403.017 51.4188 396.794 50.7221 394.978C50.44 394.243 50.6763 393.642 51.2471 393.642C51.8179 393.642 52.2849 393.009 52.2849 392.235C52.2849 391.462 52.9656 390.829 53.7975 390.829C54.945 390.829 55.2105 391.508 54.8974 393.642C54.6704 395.189 54.8186 396.454 55.2268 396.454C56.4779 396.454 57.9099 392.984 57.9099 389.953C57.9099 386.527 58.4494 386.38 60.7207 389.185L62.4259 391.291L63.0847 387.779C63.7181 384.402 65.4099 382.83 65.4099 385.618C65.4099 387.749 67.2962 388.36 68.5559 386.637C69.8967 384.803 73.9747 385.44 75.9183 387.787C76.9904 389.081 76.7271 389.173 73.613 388.59C71.3728 388.171 70.0974 388.287 70.0974 388.912C70.0974 389.451 70.6567 389.892 71.3402 389.892C72.8531 389.892 77.1988 394.353 76.4324 395.119C76.1314 395.42 74.7806 394.943 73.4307 394.058C72.0808 393.174 70.6731 392.768 70.3025 393.156C69.9319 393.544 70.4035 394.339 71.3505 394.923C75.1377 397.259 75.965 398.07 75.617 399.102C75.3577 399.872 74.4758 399.777 72.536 398.77C68.8292 396.844 68.5374 397.572 71.9633 400.197C73.5152 401.387 74.7849 402.718 74.7849 403.157C74.7849 404.481 72.2834 404.052 71.0019 402.508C70.2222 401.569 69.4816 401.382 68.8876 401.976C67.2307 403.633 68.972 405.829 71.9429 405.829C74.208 405.829 74.7849 406.23 74.7849 407.804C74.7849 409.226 74.3665 409.619 73.2915 409.207C69.6098 407.794 67.0204 407.455 67.6467 408.469C67.9995 409.039 69.7499 409.781 71.5365 410.116C74.702 410.71 76.2255 413.329 73.4053 413.329C71.3237 413.329 62.7242 409.025 57.4518 405.344C54.8796 403.548 52.3484 402.104 51.8268 402.134C51.3053 402.165 51.6663 402.692 52.6291 403.306C53.5918 403.92 56.3318 406.009 58.7178 407.949C61.1039 409.888 64.8513 412.16 67.0455 412.998C69.2396 413.836 71.0349 415.097 71.0349 415.8C71.0349 417.627 69.7459 417.405 64.2068 414.623L59.3161 412.166L61.5889 414.623C62.8389 415.974 64.607 417.079 65.518 417.079C67.671 417.079 68.262 418.131 67.5782 420.746C67.0923 422.604 66.6095 422.792 63.639 422.274C61.5937 421.918 59.2067 420.552 57.6087 418.824C56.1541 417.25 54.7537 416.173 54.4969 416.43C53.7012 417.225 56.1579 420.429 59.0088 422.314C60.7581 423.47 61.5787 424.695 61.3121 425.751C60.5965 428.585 69.3205 427.93 77.3792 424.544C85.7422 421.03 94.4756 420.018 99.2379 422.01C101.085 422.783 104.598 424.943 107.044 426.81C111.445 430.169 113.222 430.925 113.222 429.436C113.222 428.368 101 419.354 96.9025 417.4C92.8684 415.477 92.6418 414.512 96.113 414.041L98.6911 413.691L96.113 412.596C93.2159 411.365 92.6013 409.303 95.2662 409.755C96.2184 409.916 96.9567 409.626 96.9068 409.11C96.8569 408.595 96.3016 408.229 95.6728 408.298C94.3721 408.441 93.1351 405.359 93.9584 404.027C94.2579 403.543 94.009 402.841 93.4053 402.468C92.7198 402.044 92.5588 402.196 92.9766 402.872C93.373 403.513 93.05 403.954 92.1839 403.954C91.2622 403.954 90.7224 403.115 90.7224 401.682C90.7224 400.432 90.2284 397.27 89.6247 394.655C88.5351 389.934 89.1303 387.316 90.7114 389.874C91.165 390.608 91.8144 393.232 92.1545 395.705C93.0536 402.242 94.6396 402.425 93.873 395.903C93.2653 390.732 93.3165 390.553 95.2634 391.062C97.3175 391.6 98.0577 390.48 96.3474 389.423C95.2153 388.723 95.184 387.949 96.2215 386.313C96.8463 385.328 97.7173 385.479 100.536 387.062C104.262 389.155 105.377 389.038 104.461 386.651C104.156 385.855 102.863 385.204 101.588 385.204C100.314 385.204 99.0079 384.779 98.687 384.26C97.7071 382.675 100.767 382.158 104.277 383.316C107.025 384.223 107.597 384.863 107.597 387.031C107.597 388.973 108.445 390.227 110.872 391.88C114.161 394.12 114.966 395.846 113.222 396.923C110.917 398.348 112.371 400.204 115.8 400.217C120.356 400.234 123.65 401.134 123 402.186C122.718 402.643 121.351 403.044 119.964 403.077L117.441 403.137L120.488 404.653C122.164 405.487 123.535 406.515 123.535 406.937C123.535 408.268 119.13 407.768 117.91 406.298C116.182 404.216 113.222 404.512 113.222 406.767C113.222 407.976 113.847 408.642 114.983 408.642C115.951 408.642 117.268 409.275 117.91 410.048C118.622 410.906 120.677 411.454 123.181 411.454C125.438 411.454 127.285 411.848 127.285 412.329C127.285 413.629 123.722 414.517 121.123 413.865C117.287 412.902 118.597 414.915 122.989 416.732C125.267 417.674 126.93 418.77 126.684 419.168C125.954 420.35 120.918 419.99 120.406 418.72C120.128 418.031 119.902 418.236 119.859 419.218C119.818 420.137 120.394 421.122 121.138 421.407C122.156 421.798 122.276 422.491 121.623 424.207C120.942 425.998 121.155 426.887 122.614 428.346C124.086 429.817 125.741 430.204 130.566 430.204C133.918 430.204 136.66 430.567 136.66 431.01C136.66 431.453 134.445 432.271 131.738 432.828C126.988 433.805 127.077 433.824 134.316 433.376C138.441 433.12 145.402 431.887 149.785 430.635V430.635ZM122.597 426.806C122.597 425.599 123.207 425.404 125.527 425.868C127.138 426.19 129.459 426.454 130.683 426.454C131.908 426.454 132.91 426.876 132.91 427.392C132.91 427.907 130.59 428.329 127.754 428.329C123.619 428.329 122.597 428.027 122.597 426.806ZM92.5974 388.485C92.5974 387.712 92.5657 386.773 92.5271 386.399C92.4884 386.026 92.9103 385.569 93.4646 385.384C94.0189 385.199 94.4724 386.138 94.4724 387.47C94.4724 388.802 94.0505 389.892 93.5349 389.892C93.0192 389.892 92.5974 389.259 92.5974 388.485V388.485ZM77.9489 382.274C78.2712 380.663 78.5349 378.132 78.5349 376.649C78.5349 375.167 78.9567 373.954 79.4724 373.954C79.9932 373.954 80.4099 376.454 80.4099 379.579C80.4099 384.146 80.1234 385.204 78.8864 385.204C77.6802 385.204 77.485 384.594 77.9489 382.274ZM71.755 383.737C70.858 382.84 73.0823 378.543 74.2433 378.93C75.8164 379.454 75.4473 383.735 73.8017 384.052C73.0031 384.206 72.0821 384.064 71.755 383.737V383.737ZM68.2224 382.336C68.2224 381.79 68.6442 381.604 69.1599 381.923C69.6755 382.242 70.0974 382.688 70.0974 382.916C70.0974 383.143 69.6755 383.329 69.1599 383.329C68.6442 383.329 68.2224 382.882 68.2224 382.336ZM108.019 431.263C107.529 430.814 105.863 430.198 104.316 429.895L101.504 429.344L104.316 430.669C107.566 432.201 109.355 432.488 108.019 431.263V431.263ZM99.1599 428.409C97.4632 427.444 87.7789 425.335 87.2894 425.825C86.7191 426.395 95.6909 429.149 98.2224 429.18C99.9831 429.202 100.216 429.011 99.1599 428.409ZM117.953 425.597C116.64 423.145 115.097 423.064 115.097 425.448C115.097 426.441 115.836 427.418 116.738 427.619C118.996 428.121 119.159 427.85 117.953 425.597ZM249.26 419.189C251.625 415.192 253.822 411.185 254.143 410.282C255.094 407.606 252.761 408.368 248.399 412.16C244.724 415.354 244.308 416.162 243.815 421.064C243.516 424.037 243.651 426.454 244.117 426.454C244.581 426.454 246.896 423.185 249.26 419.189V419.189ZM176.287 424.902C175.652 424.645 174.387 424.629 173.475 424.867C172.562 425.105 173.082 425.315 174.629 425.334C176.175 425.353 176.922 425.158 176.287 424.902V424.902ZM110.987 421.005C109.676 419.694 109.472 419.681 109.472 420.91C109.472 422.836 111.666 425.029 112.148 423.585C112.343 422.999 111.821 421.838 110.987 421.005V421.005ZM186.652 423.149C186.742 422.647 185.55 422.12 184.004 421.98C181.314 421.735 181.271 421.787 183.028 423.164C184.964 424.682 186.378 424.676 186.652 423.15V423.149ZM178.945 420.551C177.741 419.348 176.521 420.278 177.412 421.72C177.757 422.278 178.469 422.469 178.994 422.145C179.634 421.749 179.618 421.225 178.945 420.551H178.945ZM170.41 420.47C170.41 419.14 167.185 417.804 166.245 418.744C164.913 420.076 165.931 421.767 168.066 421.767C169.437 421.767 170.41 421.228 170.41 420.47ZM175.505 419.793C174.637 418.389 172.299 418.838 172.861 420.301C173.145 421.042 173.973 421.42 174.701 421.141C175.429 420.861 175.791 420.255 175.505 419.793ZM51.5192 418.751C50.8465 418.078 50.4099 418.023 50.4099 418.61C50.4099 419.862 51.5186 420.97 52.1442 420.345C52.4106 420.078 52.1294 419.361 51.5192 418.751ZM116.972 419.478C116.972 418.735 116.58 417.885 116.1 417.588C114.985 416.899 113.864 418.655 114.629 419.892C115.491 421.287 116.972 421.025 116.972 419.478V419.478ZM66.3474 419.532C66.3474 419.335 65.3054 418.974 64.032 418.73C62.7585 418.487 61.9397 418.648 62.2123 419.09C62.6924 419.866 66.3474 420.258 66.3474 419.532V419.532ZM105.91 417.829C105.308 417.228 104.505 417.047 104.125 417.427C103.744 417.807 104.041 418.495 104.785 418.954C106.536 420.036 107.326 419.246 105.91 417.829ZM39.1599 417.548C38.518 416.774 37.5709 416.142 37.0553 416.142C36.5323 416.142 36.6338 416.763 37.2849 417.548C37.9268 418.321 38.8738 418.954 39.3894 418.954C39.9124 418.954 39.8109 418.332 39.1599 417.548ZM44.529 417.079C43.218 416.048 41.79 415.218 41.3557 415.235C40.2413 415.279 44.7838 418.954 45.9527 418.954C46.4807 418.954 45.8401 418.11 44.529 417.079ZM111.675 416.58C111.384 415.823 110.77 415.204 110.31 415.204C109.348 415.204 109.178 417.41 110.072 418.304C111.072 419.304 112.239 418.05 111.675 416.58ZM183.948 417.578C181.881 416.014 179.785 415.724 179.785 417.001C179.785 418.027 181.449 418.779 183.948 418.88C185.75 418.953 185.75 418.94 183.948 417.578ZM101.972 413.853C101.972 412.079 101.534 410.356 100.997 410.025C100.365 409.634 100.236 410.274 100.63 411.844C101.002 413.326 100.846 414.267 100.228 414.267C99.6731 414.267 99.4615 414.899 99.7583 415.673C100.723 418.186 101.972 417.159 101.972 413.853ZM106.249 412.673C105.813 411.538 105.387 411.414 104.606 412.195C103.825 412.976 103.885 413.651 104.837 414.798C106.291 416.551 107.207 415.171 106.249 412.673ZM168.166 414.659C167.853 413.843 167.597 412.788 167.597 412.315C167.597 411.842 166.258 411.454 164.621 411.454H161.646L163.847 413.798C166.334 416.445 169.06 416.989 168.166 414.659ZM172.285 415.383C172.285 414.966 171.621 413.806 170.809 412.805C169.997 411.804 169.51 411.407 169.727 411.923C169.944 412.439 170.384 413.599 170.705 414.501C171.305 416.187 172.285 416.734 172.285 415.383ZM116.738 413.095C116.148 411.321 113.222 411.069 113.222 412.792C113.222 413.661 114.024 414.267 115.175 414.267C116.321 414.267 116.967 413.782 116.738 413.095ZM262.698 411.893C264.201 410.757 264.255 410.517 263.009 410.517C260.818 410.517 258.535 411.525 258.535 412.492C258.535 413.75 260.645 413.446 262.698 411.893V411.893ZM111.333 411.689C111.325 411.302 110.91 410.353 110.41 409.579C109.675 408.442 109.498 408.577 109.487 410.282C109.48 411.442 109.894 412.392 110.41 412.392C110.925 412.392 111.341 412.075 111.333 411.689ZM253.29 404.106C252.852 403.509 247.377 407.987 246.843 409.379C246.55 410.143 247.933 409.34 249.916 407.596C251.9 405.851 253.418 404.28 253.29 404.106V404.106ZM107.597 408.642C107.597 408.126 106.965 407.704 106.191 407.704C105.418 407.704 104.785 408.126 104.785 408.642C104.785 409.157 105.418 409.579 106.191 409.579C106.965 409.579 107.597 409.157 107.597 408.642ZM103.847 405.729C103.847 405.268 103.017 404.892 102.002 404.892C100.782 404.892 100.332 405.349 100.673 406.239C101.208 407.633 103.847 407.209 103.847 405.729ZM109.578 403.685C108.812 402.919 108.535 403.024 108.535 404.079C108.535 405.943 109.796 407.203 110.261 405.806C110.459 405.213 110.151 404.258 109.578 403.685ZM97.8513 403.271C96.8983 402.318 96.112 403.752 96.8939 405.017C97.4845 405.973 97.7054 405.974 98.0229 405.021C98.24 404.37 98.1628 403.582 97.8513 403.271V403.271ZM261.333 402.782C261.321 401.077 261.145 400.942 260.41 402.079C259.235 403.897 259.235 404.892 260.41 404.892C260.925 404.892 261.341 403.942 261.333 402.782ZM58.0404 401.11C55.699 399.16 54.1599 398.744 54.1599 400.061C54.1599 400.896 57.7122 402.867 59.3161 402.922C59.8317 402.94 59.2577 402.125 58.0404 401.11ZM66.3474 400.618C66.3474 399.875 65.7146 399.267 64.9411 399.267C63.529 399.267 63.0139 401.246 64.1344 402.366C65.0093 403.241 66.3474 402.184 66.3474 400.618ZM106.355 400.512C106.109 397.306 103.847 396.395 103.847 399.501C103.847 400.747 104.129 402.048 104.472 402.392C105.774 403.693 106.541 402.928 106.355 400.512V400.512ZM102.441 401.142C102.122 400.626 101.44 400.204 100.924 400.204C100.409 400.204 100.247 400.626 100.566 401.142C100.885 401.657 101.567 402.079 102.083 402.079C102.599 402.079 102.76 401.657 102.441 401.142ZM109.567 396.396C108.674 394.161 108.652 394.174 108.594 397.001C108.562 398.591 108.851 400.211 109.238 400.601C110.351 401.723 110.571 398.91 109.567 396.396V396.396ZM96.8354 394.694C95.3999 393.284 95.3348 393.379 95.9465 395.985C96.904 400.065 97.7057 400.994 98.0678 398.444C98.2418 397.217 97.6872 395.53 96.8354 394.694V394.694ZM61.6599 398.329C61.6599 397.814 60.7912 397.392 59.7295 397.392C58.6679 397.392 58.0599 397.814 58.3786 398.329C58.6973 398.845 59.5659 399.267 60.3089 399.267C61.0519 399.267 61.6599 398.845 61.6599 398.329ZM266.284 393.642C267.853 387.413 267.186 386.028 265.269 391.532C263.3 397.185 262.941 399.267 263.935 399.267C264.447 399.267 265.504 396.735 266.284 393.642V393.642ZM260.41 396.399C260.41 395.337 259.988 394.729 259.472 395.048C258.957 395.367 258.535 396.235 258.535 396.978C258.535 397.721 258.957 398.329 259.472 398.329C259.988 398.329 260.41 397.461 260.41 396.399ZM181.191 394.579C180.872 394.064 180.19 393.642 179.674 393.642C179.159 393.642 178.997 394.064 179.316 394.579C179.635 395.095 180.317 395.517 180.833 395.517C181.349 395.517 181.51 395.095 181.191 394.579ZM105.722 393.642C105.722 393.126 105.3 392.704 104.785 392.704C104.269 392.704 103.847 393.126 103.847 393.642C103.847 394.157 104.269 394.579 104.785 394.579C105.3 394.579 105.722 394.157 105.722 393.642ZM175.933 390.884C174.7 389.857 173.351 389.003 172.936 388.985C172.52 388.968 173.364 389.973 174.811 391.218C176.257 392.463 177.606 393.318 177.808 393.117C178.01 392.916 177.167 391.911 175.933 390.884ZM67.2849 391.767C67.2849 391.251 66.6272 390.829 65.8233 390.829C65.0194 390.829 64.6224 391.251 64.9411 391.767C65.2598 392.282 65.9175 392.704 66.4027 392.704C66.8879 392.704 67.2849 392.282 67.2849 391.767ZM257.955 391.249C258.275 390.415 258.118 390.039 257.587 390.367C257.077 390.682 256.66 391.337 256.66 391.822C256.66 393.171 257.332 392.873 257.955 391.249V391.249ZM263.208 389.189C263.201 388.802 262.785 387.853 262.285 387.079C261.55 385.942 261.373 386.077 261.362 387.782C261.355 388.942 261.769 389.892 262.285 389.892C262.8 389.892 263.216 389.575 263.208 389.189ZM169.941 386.901C168.91 386.318 166.855 384.839 165.376 383.614C161.976 380.799 157.285 378.346 157.285 379.382C157.285 379.816 159.078 381.164 161.269 382.377C163.461 383.59 166.26 385.355 167.489 386.3C168.719 387.244 170.196 388.004 170.771 387.988C171.346 387.972 170.972 387.483 169.941 386.901V386.901ZM206.988 380.282C208.199 374.806 207.945 368.405 206.504 368.075C205.988 367.957 205.282 370.731 204.936 374.239C204.589 377.748 203.814 381.21 203.214 381.933C201.965 383.438 202.723 385.204 204.617 385.204C205.402 385.204 206.323 383.294 206.988 380.282ZM202.206 377.162C202.8 374.801 203.214 370.015 203.126 366.526C202.996 361.366 202.626 359.971 201.144 359.045C199.451 357.987 199.333 358.16 199.488 361.477C199.887 370.047 199.418 374.812 198.04 376.19C196.756 377.475 196.777 377.82 198.249 379.538C199.151 380.592 200.167 381.454 200.507 381.454C200.847 381.454 201.611 379.523 202.206 377.162V377.162ZM257.597 374.892C259.2 371.75 259.279 371.142 258.085 371.142C257.27 371.142 256.66 371.97 256.66 373.078C256.66 374.143 256.223 375.831 255.689 376.828C255.156 377.826 254.936 378.642 255.202 378.642C255.467 378.642 256.545 376.954 257.597 374.892ZM151.641 374.4C150.989 373.614 150.211 373.215 149.913 373.514C149.614 373.812 149.991 374.449 150.75 374.928C152.734 376.183 152.993 376.03 151.641 374.4ZM228.008 372.538C229.494 369.407 229.35 367.392 227.642 367.392C226.667 367.392 223.887 374.167 224.469 375.126C225.346 376.571 226.492 375.733 228.008 372.538V372.538ZM250.097 374.478C250.097 373.735 249.675 372.867 249.16 372.548C248.644 372.229 248.222 372.837 248.222 373.899C248.222 374.961 248.644 375.829 249.16 375.829C249.675 375.829 250.097 375.221 250.097 374.478ZM253.082 372.814C252.409 372.141 251.972 372.085 251.972 372.673C251.972 373.206 252.254 373.923 252.597 374.267C252.941 374.61 253.44 374.674 253.707 374.407C253.973 374.141 253.692 373.424 253.082 372.814V372.814ZM241.35 366.948C241.579 364.283 241.334 362.704 240.691 362.704C240.128 362.704 239.774 363.442 239.906 364.345C240.037 365.247 239.825 366.931 239.435 368.086C238.741 370.144 239.479 372.698 240.479 371.698C240.757 371.419 241.149 369.282 241.35 366.948ZM246.347 369.735C246.347 368.313 244.638 366.914 243.856 367.696C243.585 367.966 243.643 369.07 243.986 370.147C244.644 372.222 246.347 371.925 246.347 369.735V369.735ZM253.939 364.843C253.086 363.378 252.963 363.47 252.938 365.595C252.923 366.927 253.226 368.336 253.613 368.726C254.739 369.862 255.007 366.677 253.939 364.843V364.843ZM213.156 361.195C212.285 358.924 210.722 360.664 210.722 363.906V366.871L212.212 364.744C213.032 363.574 213.457 361.977 213.156 361.195V361.195ZM230.737 363.143C230.447 362.386 229.833 361.767 229.372 361.767C228.41 361.767 228.241 363.973 229.134 364.866C230.134 365.866 231.301 364.612 230.737 363.143V363.143ZM246.468 362.45C244.908 360.889 244.024 362.44 245.476 364.191C246.355 365.249 246.863 365.376 247.122 364.6C247.327 363.983 247.033 363.015 246.468 362.45ZM206.222 361.579C205.347 360.704 205.097 360.954 205.097 362.704C205.097 364.454 205.347 364.704 206.222 363.829C207.097 362.954 207.097 362.454 206.222 361.579ZM219.13 360.011C219.105 358.729 218.88 358.776 217.724 360.305C215.932 362.674 215.951 364.2 217.754 362.704C218.527 362.062 219.146 360.85 219.13 360.011V360.011ZM250.738 361.591C250.439 360.843 250.216 361.065 250.171 362.157C250.131 363.146 250.352 363.699 250.664 363.388C250.975 363.076 251.009 362.268 250.738 361.591H250.738ZM216.333 355.494C216.341 354.364 215.955 353.197 215.475 352.9C214.047 352.018 213.351 354.109 214.036 357.227C214.507 359.373 214.893 359.799 215.497 358.845C215.949 358.131 216.325 356.624 216.333 355.494ZM242.597 358.586C242.597 357.867 242.012 357.055 241.297 356.781C240.385 356.431 240.138 356.821 240.469 358.087C241.012 360.163 242.597 360.534 242.597 358.586V358.586ZM247.754 358.954C248.072 358.439 247.65 358.017 246.816 358.017C245.982 358.017 245.56 358.439 245.879 358.954C246.197 359.47 246.619 359.892 246.816 359.892C247.013 359.892 247.435 359.47 247.754 358.954ZM209.785 356.086C209.785 355.025 209.363 354.417 208.847 354.735C208.332 355.054 207.91 355.923 207.91 356.666C207.91 357.409 208.332 358.017 208.847 358.017C209.363 358.017 209.785 357.148 209.785 356.086ZM232.285 355.728C232.285 354.47 231.863 353.179 231.347 352.86C230.8 352.522 230.41 353.476 230.41 355.149C230.41 356.726 230.832 358.017 231.347 358.017C231.863 358.017 232.285 356.987 232.285 355.728ZM221.14 353.997C220.375 353.232 220.097 353.336 220.097 354.392C220.097 356.255 221.358 357.516 221.824 356.118C222.022 355.525 221.714 354.571 221.14 353.997ZM225.839 354.954C224.913 354.035 224.805 354.143 225.314 355.479C225.666 356.404 226.19 356.924 226.479 356.635C226.767 356.347 226.479 355.59 225.839 354.954ZM207.356 352.53C208.005 351.48 205.438 347.988 204.62 348.807C203.804 349.622 204.971 353.329 206.043 353.329C206.493 353.329 207.084 352.969 207.356 352.53V352.53ZM228.498 350.389C227.539 347.046 226.919 346.195 226.065 347.049C225.325 347.79 227.546 353.329 228.583 353.329C229 353.329 228.962 352.006 228.498 350.389V350.389ZM193.329 350.437C193.027 349.948 192.381 349.796 191.892 350.097C191.404 350.399 191.251 351.046 191.553 351.534C191.855 352.023 192.502 352.175 192.99 351.873C193.478 351.572 193.631 350.925 193.329 350.437ZM212.597 349.937C212.597 349.164 212.175 348.792 211.66 349.11C211.144 349.429 210.722 350.323 210.722 351.096C210.722 351.87 211.144 352.242 211.66 351.923C212.175 351.604 212.597 350.711 212.597 349.937ZM200.711 348.37C200.424 347.906 199.785 347.954 199.261 348.478C198.745 348.994 198.635 349.92 199.015 350.535C199.541 351.386 199.889 351.36 200.465 350.427C200.882 349.752 200.993 348.827 200.711 348.37V348.37ZM218.622 348.33C217.968 346.627 215.41 346.161 215.41 347.744C215.41 349.277 217.673 351.374 218.487 350.595C218.891 350.209 218.951 349.189 218.622 348.33V348.33ZM221.827 346.36C221.119 345.81 219.789 344.187 218.871 342.752C217.954 341.318 216.827 340.377 216.367 340.661C215.908 340.945 216.606 342.329 217.919 343.737C219.231 345.146 220.747 347.353 221.286 348.642C222.166 350.744 222.311 350.798 222.691 349.172C222.923 348.175 222.535 346.91 221.827 346.36V346.36ZM232.39 346.497C231.625 345.732 231.347 345.836 231.347 346.892C231.347 348.755 232.608 350.016 233.074 348.618C233.272 348.025 232.964 347.071 232.39 346.497V346.497ZM208.407 343.223C207.907 341.918 207.675 341.88 206.987 342.992C206.491 343.796 206.588 345.084 207.231 346.247C208.21 348.017 208.325 348.036 208.651 346.478C208.846 345.545 208.737 344.08 208.407 343.223ZM203.222 344.885C203.222 344.426 202.168 342.913 200.879 341.522C198.169 338.598 197.809 339.726 200.15 343.804C201.626 346.376 203.222 346.937 203.222 344.885ZM214.472 344.478C214.472 343.735 214.095 342.894 213.633 342.609C212.668 342.012 211.504 344.424 212.349 345.269C213.355 346.275 214.472 345.859 214.472 344.478ZM224.416 339.798C224.332 336.984 224.018 334.437 223.719 334.139C222.967 333.387 221.932 342.757 222.58 344.447C223.628 347.178 224.567 344.801 224.416 339.798ZM229.472 342.603C229.472 341.196 227.789 339.7 227.044 340.445C226.39 341.099 227.685 343.954 228.635 343.954C229.096 343.954 229.472 343.346 229.472 342.603V342.603ZM195.722 341.142C195.722 340.11 195.3 339.267 194.785 339.267C194.269 339.267 193.847 340.11 193.847 341.142C193.847 342.173 194.269 343.017 194.785 343.017C195.3 343.017 195.722 342.173 195.722 341.142ZM237.91 342.18C237.91 341.719 237.299 341.108 236.551 340.821C235.643 340.473 235.366 340.75 235.714 341.658C236.283 343.141 237.91 343.527 237.91 342.18ZM191.185 339.332C192.04 337.828 192.509 336.366 192.227 336.084C191.353 335.21 187.458 339.564 187.955 340.858C188.667 342.716 189.477 342.333 191.185 339.332V339.332ZM204.863 338.72C203.969 337.826 202.178 339.273 202.844 340.351C203.24 340.991 203.764 340.975 204.438 340.302C204.99 339.75 205.181 339.038 204.863 338.72V338.72ZM210.722 339.442C210.722 339.023 209.457 337.467 207.91 335.985C204.64 332.853 204.1 334.219 207.207 337.764C209.331 340.187 210.722 340.851 210.722 339.442V339.442ZM218.761 335.332C217.349 333.316 217.285 333.307 217.285 335.121C217.285 336.163 217.807 337.539 218.445 338.177C220.224 339.956 220.467 337.768 218.761 335.332V335.332ZM228.925 336.12C228.323 334.549 226.66 333.969 226.66 335.329C226.66 336.241 228.751 338.425 229.198 337.979C229.373 337.804 229.251 336.967 228.925 336.12ZM197.597 336.454C197.597 335.939 197.175 335.517 196.66 335.517C196.144 335.517 195.722 335.939 195.722 336.454C195.722 336.97 196.144 337.392 196.66 337.392C197.175 337.392 197.597 336.97 197.597 336.454ZM200.644 334.884C199.484 334.075 198.535 332.807 198.535 332.066C198.535 331.325 198.118 330.976 197.608 331.292C196.274 332.116 199.347 336.465 201.221 336.405C202.413 336.367 202.285 336.029 200.644 334.884V334.884ZM189.16 333.118C189.16 332.375 188.567 331.767 187.841 331.767C186.987 331.767 186.695 332.423 187.01 333.631C187.544 335.671 189.16 335.285 189.16 333.118ZM182.67 330.497L180.647 328.485L182.259 331.731C183.186 333.597 184.046 334.453 184.282 333.743C184.509 333.064 183.783 331.604 182.67 330.497ZM209.89 331.497C209.125 330.732 208.847 330.836 208.847 331.892C208.847 333.755 210.108 335.016 210.574 333.618C210.772 333.025 210.464 332.071 209.89 331.497ZM231.988 332.528C231.689 331.781 231.466 332.003 231.421 333.095C231.381 334.083 231.602 334.637 231.914 334.325C232.225 334.014 232.259 333.205 231.988 332.528H231.988ZM215.086 331.338C214.781 330.543 214.081 329.892 213.531 329.892C212.838 329.892 212.852 330.491 213.578 331.847C214.742 334.021 215.958 333.611 215.086 331.338H215.086ZM193.847 331.767C193.847 331.251 193.661 330.829 193.434 330.829C193.207 330.829 192.76 331.251 192.441 331.767C192.122 332.282 192.308 332.704 192.855 332.704C193.401 332.704 193.847 332.282 193.847 331.767ZM202.39 329.622C201.625 328.857 201.347 328.961 201.347 330.017C201.347 331.88 202.608 333.141 203.074 331.743C203.272 331.15 202.964 330.196 202.39 329.622ZM220.097 330.829C220.097 329.787 219.472 328.954 218.691 328.954C216.137 328.954 217.023 331.733 219.863 332.63C219.992 332.671 220.097 331.86 220.097 330.829ZM227.99 329.562C227.666 328.718 227.003 328.273 226.516 328.574C225.989 328.9 226.082 329.664 226.748 330.467C228.119 332.119 228.785 331.634 227.99 329.562ZM206.442 326.424C205.482 324.98 204.813 323.06 204.956 322.157C205.337 319.749 203.538 320.154 202.876 322.626C201.948 326.087 202.204 328.017 203.591 328.017C204.309 328.017 205.167 328.72 205.497 329.58C205.938 330.73 206.373 330.866 207.142 330.097C207.912 329.327 207.727 328.357 206.442 326.424V326.424ZM186.347 328.954C186.347 328.439 186.161 328.017 185.934 328.017C185.707 328.017 185.26 328.439 184.941 328.954C184.622 329.47 184.808 329.892 185.355 329.892C185.901 329.892 186.347 329.47 186.347 328.954ZM191.035 328.954C191.035 328.439 190.588 328.017 190.042 328.017C189.496 328.017 189.31 328.439 189.629 328.954C189.947 329.47 190.394 329.892 190.621 329.892C190.849 329.892 191.035 329.47 191.035 328.954ZM199.175 325.966C198.876 325.218 198.654 325.44 198.609 326.532C198.568 327.521 198.79 328.074 199.101 327.763C199.413 327.451 199.446 326.643 199.175 325.966H199.175ZM211.061 326.61C210.765 325.837 210.158 325.204 209.714 325.204C209.27 325.204 209.149 325.837 209.446 326.61C209.743 327.384 210.349 328.017 210.793 328.017C211.238 328.017 211.358 327.384 211.061 326.61ZM197.129 325.204C197.447 324.689 197.05 324.267 196.246 324.267C195.443 324.267 194.785 324.689 194.785 325.204C194.785 325.72 195.182 326.142 195.667 326.142C196.152 326.142 196.81 325.72 197.129 325.204ZM205.649 313.256C204.625 312.232 203.923 313.86 204.658 315.554C205.355 317.161 205.406 317.159 205.794 315.521C206.018 314.579 205.952 313.559 205.649 313.256V313.256ZM193.847 310.673C193.847 309.899 193.425 309.267 192.91 309.267C192.394 309.267 191.972 309.658 191.972 310.135C191.972 310.613 191.234 311.197 190.332 311.433C189.322 311.697 189.683 311.903 191.269 311.97C192.984 312.043 193.847 311.608 193.847 310.673ZM190.42 309.293C190.855 308.872 188.746 308.649 185.733 308.797C179.041 309.125 178.844 309.188 181.191 310.234C183.22 311.139 189.135 310.535 190.42 309.293V309.293ZM201.816 308.329C202.554 307.136 200.382 307.136 198.535 308.329C197.392 309.068 197.513 309.241 199.183 309.252C200.312 309.259 201.497 308.845 201.816 308.329ZM206.972 307.392C206.972 306.217 205.977 306.217 204.16 307.392C203.023 308.127 203.157 308.303 204.863 308.315C206.023 308.323 206.972 307.907 206.972 307.392ZM213.336 305.388C213.102 304.686 212.677 305.111 212.345 306.379C211.938 307.938 212.06 308.304 212.755 307.609C213.3 307.064 213.561 306.065 213.336 305.388ZM204.366 303.891C204.603 302.98 204.264 300.759 203.613 298.954L202.428 295.673L202.356 301.119C202.29 306.191 203.375 307.687 204.366 303.891H204.366ZM212.384 300.303C211.048 298.967 208.309 300.945 208.107 303.392L207.894 305.958L210.431 303.422C211.825 302.027 212.704 300.624 212.384 300.303ZM198.238 300.653C197.939 299.906 197.716 300.128 197.671 301.22C197.631 302.208 197.852 302.762 198.164 302.45C198.475 302.139 198.509 301.33 198.238 300.653H198.238ZM194.305 297.782C193.971 296.622 193.515 295.005 193.291 294.189C192.808 292.431 193.29 292.508 180.254 292.09C168.894 291.725 170.729 292.996 182.574 293.698C190.907 294.191 190.097 294.012 190.097 295.36C190.097 296.584 192.96 299.75 194.145 299.836C194.566 299.867 194.638 298.942 194.305 297.782V297.782ZM196.66 295.728C196.66 295.501 196.238 295.054 195.722 294.735C195.207 294.417 194.785 294.603 194.785 295.149C194.785 295.695 195.207 296.142 195.722 296.142C196.238 296.142 196.66 295.956 196.66 295.728ZM213.535 293.683C213.535 291.604 213.318 291.405 212.129 292.392C211.355 293.034 210.722 294.14 210.722 294.85C210.722 295.56 211.355 296.142 212.129 296.142C213.021 296.142 213.535 295.244 213.535 293.683ZM228.751 292.2C231.706 291.143 233.875 289.876 233.571 289.384C232.824 288.175 228.251 289.401 227.316 291.06C226.904 291.792 225.596 292.392 224.409 292.392C221.597 292.392 216.347 294.233 216.347 295.22C216.347 296.105 221 294.972 228.751 292.2ZM235.097 295.204C236.262 294.452 236.181 294.295 234.629 294.295C233.597 294.295 232.121 294.704 231.347 295.204C230.183 295.957 230.263 296.113 231.816 296.113C232.847 296.113 234.324 295.704 235.097 295.204ZM202.285 293.424C202.285 292.572 198.032 290.501 196.381 290.55C195.761 290.569 196.495 291.598 198.012 292.838C200.573 294.932 202.285 295.166 202.285 293.424V293.424ZM99.5016 288.407C98.6318 286.732 97.7498 285.864 97.5417 286.48C97.061 287.903 98.9266 291.454 100.154 291.454C100.665 291.454 100.371 290.083 99.5016 288.407V288.407ZM206.035 290.517C206.035 290.001 205.613 289.579 205.097 289.579C204.582 289.579 204.16 290.001 204.16 290.517C204.16 291.032 204.582 291.454 205.097 291.454C205.613 291.454 206.035 291.032 206.035 290.517ZM239.531 290.888C239.219 290.576 238.411 290.543 237.734 290.814C236.986 291.113 237.208 291.335 238.3 291.38C239.289 291.421 239.842 291.199 239.531 290.888V290.888ZM247.519 289.523C249.453 288.831 251.035 287.928 251.035 287.516C251.035 286.427 248.438 286.597 247.737 287.731C247.409 288.261 245.803 289.322 244.166 290.088C240.83 291.651 242.238 291.414 247.519 289.523V289.523ZM211.66 288.586C211.66 288.101 211.238 287.704 210.722 287.704C210.207 287.704 209.785 288.362 209.785 289.166C209.785 289.97 210.207 290.367 210.722 290.048C211.238 289.729 211.66 289.072 211.66 288.586ZM217.823 284.193C217.053 282.773 216.384 281.821 216.337 282.079C216.29 282.337 216.021 284.446 215.738 286.767L215.224 290.985L217.224 288.881C219.077 286.931 219.121 286.585 217.823 284.193V284.193ZM223.552 289.513C225.887 288.625 226.002 288.404 224.55 287.592C223.648 287.087 222.91 286.062 222.91 285.314C222.91 282.328 220.557 284.132 220.398 287.24C220.306 289.042 220.384 290.517 220.572 290.517C220.759 290.517 222.1 290.065 223.552 289.513V289.513ZM161.035 288.642C160.261 288.142 158.785 287.733 157.754 287.733C156.201 287.733 156.12 287.889 157.285 288.642C158.058 289.142 159.535 289.55 160.566 289.55C162.119 289.55 162.199 289.394 161.035 288.642ZM192.935 287.36C192.975 285.668 204.058 281.19 210.722 280.173C218.295 279.018 227.171 275.921 230.879 273.139C232.425 271.978 238.455 268.651 244.278 265.745C253.454 261.165 256.933 258.567 255.604 257.286C255.411 257.1 251.712 258.604 247.384 260.628C239.955 264.102 236.136 264.759 240.255 261.855C241.286 261.129 243.294 259.478 244.718 258.186C246.142 256.895 249.046 254.676 251.172 253.256C253.298 251.835 256.114 249.956 257.431 249.079C259.648 247.603 262.174 244.134 262.252 242.458C262.27 242.065 260.606 242.803 258.553 244.099C256.501 245.394 254.146 246.454 253.319 246.454C250.63 246.454 252.459 244.176 257.661 241.047C262.618 238.066 265.158 234.953 263.768 233.562C263.391 233.185 262.711 233.538 262.259 234.346C261.314 236.036 254.105 239.524 253.275 238.694C252.238 237.658 254.083 235.932 258.155 234.131C262.535 232.193 265.097 229.33 265.097 226.374C265.097 224.764 264.696 224.912 262.006 227.52C260.306 229.168 258.618 230.517 258.256 230.517C256.593 230.517 257.953 228.352 261.908 224.707C266.282 220.676 266.26 218.785 261.873 221.659C258.569 223.825 258.867 222.835 262.79 218.616C265.09 216.143 265.992 214.393 265.728 212.915C265.5 211.635 265.936 210.453 266.819 209.959C268.051 209.269 268.089 208.894 267.052 207.644C266.364 206.815 266.028 205.036 266.295 203.638C266.776 201.122 265.267 198.642 263.256 198.642C262.685 198.642 261.404 196.743 260.41 194.423C258.99 191.111 258.122 190.204 256.37 190.204C254.03 190.204 250.274 186.902 251.369 185.808C251.718 185.459 252.503 185.672 253.113 186.282C254.346 187.515 256.671 187.783 256.639 186.689C256.628 186.302 254.495 184.631 251.9 182.975C247.733 180.317 247.253 180.189 247.791 181.884C248.312 183.525 248.149 183.668 246.66 182.871C245.703 182.359 244.081 180.994 243.056 179.837C242.03 178.68 239.3 176.521 236.988 175.04C234.676 173.559 230.921 170.57 228.643 168.399C226.365 166.228 224.038 164.422 223.471 164.384C222.905 164.346 221.674 163.967 220.737 163.542C217.125 161.9 217.317 164.555 221.008 167.287C224.809 170.099 225.889 172.392 223.411 172.392C222.656 172.392 220.597 171.127 218.837 169.582C216.051 167.135 215.106 166.832 211.539 167.241C209.285 167.5 204.699 167.854 201.347 168.027C195.362 168.338 195.235 168.399 194.207 171.498C193.068 174.928 191.25 176.132 190.076 174.233C189.05 172.571 190.863 168.97 193.644 167.148C194.92 166.312 198.507 165.424 201.616 165.175C204.724 164.926 208.093 164.417 209.102 164.043C210.79 163.419 210.816 163.244 209.423 161.851C208.591 161.019 207.91 159.635 207.91 158.775C207.91 157.916 207.329 156.092 206.62 154.724C205.911 153.355 204.418 150.337 203.303 148.017C200.982 143.184 200.046 141.621 196.317 136.347C194.675 134.025 193.88 133.368 194.271 134.657C195.215 137.766 193.374 137.25 190.614 133.631C187.904 130.079 187.485 127.845 189.685 128.69C190.489 128.999 189.646 127.418 187.81 125.178C184.376 120.988 183.646 118.954 185.573 118.954C186.179 118.954 185.685 117.901 184.476 116.614C183.267 115.327 182.529 114.022 182.837 113.714C183.652 112.9 194.395 121.856 195.605 124.359C196.588 126.391 196.705 126.411 198.333 124.827C199.936 123.268 199.944 123.022 198.466 120.542C195.334 115.288 186.044 104.098 182.026 100.739C179.52 98.6441 177.91 96.5145 177.91 95.2946C177.91 93.4015 178.065 93.4396 180.722 95.9854C183.399 98.5496 183.535 98.5819 183.535 96.6536C183.535 94.4915 179.443 91.7667 176.196 91.7667C175.203 91.7667 173.924 91.2057 173.355 90.5202C172.731 89.768 171.16 89.4439 169.395 89.703C167.786 89.9391 166.838 90.3946 167.287 90.7151C168.414 91.5186 170.41 96.2141 170.41 98.0608C170.41 98.8959 170.164 99.333 169.863 99.0322C169.562 98.7313 167.347 99.4576 164.941 100.646C157.171 104.485 135.139 106.034 131.483 102.999C130.851 102.475 129.66 102.306 128.835 102.622C127.487 103.14 127.475 103.533 128.716 106.503C130.427 110.598 130.512 112.752 128.925 111.798C128.03 111.26 128.001 111.413 128.803 112.446C129.381 113.19 130.363 115.38 130.985 117.314C131.747 119.678 132.678 120.829 133.828 120.829C135.466 120.829 137.597 124.916 137.597 128.056C137.597 129.988 135.752 128.528 134.701 125.764C134.203 124.454 133.539 123.638 133.225 123.951C132.642 124.535 135.092 128.758 137.301 130.974C139.14 132.821 139.291 142.461 137.685 155.517C137.005 161.046 137.144 161.941 139.183 165.173C140.419 167.132 143.415 170.008 145.842 171.563C150.015 174.239 150.583 174.353 156.347 173.681C159.699 173.29 163.918 172.946 165.722 172.915C167.527 172.885 169.341 172.333 169.753 171.689C170.829 170.006 175.097 170.194 175.097 171.923C175.097 172.696 174.359 173.373 173.457 173.427C172.554 173.482 173.293 174.029 175.097 174.644C176.902 175.259 179.57 176.352 181.026 177.072C183.114 178.104 184.053 178.144 185.467 177.261C187.308 176.111 190.097 175.744 190.097 176.651C190.097 176.932 189.043 178.298 187.754 179.689C185.008 182.65 184.753 185.296 187.05 186.984C188.575 188.104 188.491 188.402 185.879 191.178C184.332 192.822 181.531 195.149 179.655 196.35C176.511 198.362 164.785 211.678 164.785 213.236C164.785 215.537 134.888 245.517 132.594 245.517C132.304 245.517 130.252 246.732 128.035 248.218C119.012 254.263 100.665 260.717 96.7603 259.219C96.1192 258.973 95.379 259.596 95.1154 260.604C94.8318 261.688 95.081 262.366 95.7262 262.265C96.3256 262.171 98.7146 262.995 101.035 264.097C103.355 265.199 106.182 266.11 107.316 266.121C108.451 266.132 109.717 266.709 110.129 267.402C110.541 268.095 114.043 269.961 117.91 271.547C121.777 273.134 130.004 276.623 136.191 279.301C142.379 281.979 148.707 284.348 150.254 284.566C151.8 284.785 156.774 285.636 161.307 286.457C166.886 287.469 172.589 287.805 178.967 287.498C185.951 287.161 188.503 287.345 188.834 288.208C189.37 289.604 192.899 288.875 192.935 287.36ZM105.957 263.53C98.628 261.698 98.1237 259.714 105.019 259.84C107.726 259.89 111.838 259.659 114.157 259.326C116.476 258.994 119.284 258.951 120.397 259.23C122.711 259.811 124.028 263.373 122.328 264.453C120.536 265.592 112.365 265.131 105.957 263.53V263.53ZM124.506 258.342C125.884 257.1 137.818 253.573 144.394 252.464C146.328 252.137 147.91 251.385 147.91 250.791C147.91 250.198 150.547 248.986 153.769 248.099C156.992 247.211 163.625 245.391 168.509 244.053C178.217 241.394 195.325 232.963 199.986 228.54C203.135 225.552 204.16 225.193 204.16 227.079C204.16 229.169 197.136 234.129 187.262 239.01C182.11 241.558 177.501 243.642 177.02 243.642C176.539 243.642 175.88 244.071 175.556 244.596C174.985 245.519 185.241 241.989 189.046 239.953C190.319 239.271 191.112 239.258 191.515 239.91C192.097 240.851 185.458 244.198 178.847 246.297C168.912 249.451 162.465 251.243 154.472 253.07C149.574 254.19 141.29 256.113 136.064 257.343C130.837 258.573 125.79 259.579 124.847 259.579C123.359 259.579 123.314 259.416 124.506 258.342V258.342ZM156.816 250.204C159.205 249.178 156.74 249.178 153.535 250.204C151.651 250.808 151.559 250.96 153.066 250.982C154.097 250.998 155.785 250.647 156.816 250.204ZM162.656 248.7C162.344 248.389 161.536 248.355 160.859 248.626C160.111 248.926 160.333 249.148 161.425 249.193C162.414 249.233 162.967 249.012 162.656 248.7V248.7ZM190.671 116.948C187.806 113.782 185.71 110.789 186.014 110.298C186.696 109.195 194.435 116.597 196.29 120.126C198.523 124.374 196.204 123.063 190.671 116.948ZM181.336 106.927C179.444 104.836 179.369 103.954 181.083 103.954C181.797 103.954 183.073 105.009 183.917 106.298C185.136 108.157 185.188 108.642 184.171 108.642C183.465 108.642 182.19 107.87 181.336 106.927ZM204.528 285.643C208.653 284.367 210.447 283.457 209.237 283.255C207.418 282.95 196.66 286.412 196.66 287.303C196.66 287.981 197.63 287.777 204.528 285.643V285.643ZM240.722 286.767C241.766 286.092 241.208 285.854 238.558 285.844C236.413 285.836 235.218 286.204 235.566 286.767C236.298 287.952 238.889 287.952 240.722 286.767ZM234.16 283.921C234.16 283.424 235.425 283.017 236.972 283.017C238.519 283.017 239.785 282.595 239.785 282.079C239.785 280.74 236.902 280.98 234.16 282.548C232.871 283.285 230.656 283.903 229.238 283.921C226.142 283.961 225.79 285.555 228.769 286.048C231.172 286.446 234.16 285.267 234.16 283.921ZM257.728 283.048C258.945 282.034 259.645 281.19 259.282 281.173C257.972 281.111 253.847 283.336 253.847 284.105C253.847 285.415 255.391 284.995 257.728 283.048ZM244.98 282.954C245.32 282.404 245.405 281.762 245.169 281.526C244.515 280.872 241.66 282.167 241.66 283.117C241.66 284.29 244.232 284.164 244.98 282.954ZM236.504 279.679C244.326 277.051 248.836 274.964 252.078 272.47C253.922 271.052 255.824 269.892 256.306 269.892C257.508 269.892 260.67 266.089 260.014 265.433C259.722 265.142 258.743 265.544 257.837 266.327C256.214 267.731 246.26 273.357 239.702 276.575C237.851 277.484 233.545 278.741 230.132 279.37C226.72 279.999 224.121 280.826 224.357 281.207C224.924 282.125 231.8 281.26 236.504 279.679V279.679ZM259.144 272.789C260.345 271.074 259.896 271.181 255.825 273.581C247.228 278.65 246.151 279.503 247.387 280.267C248.718 281.09 257.034 275.801 259.144 272.789V272.789ZM255.254 280.204C255.572 279.689 255.386 279.267 254.84 279.267C254.294 279.267 253.847 279.689 253.847 280.204C253.847 280.72 254.033 281.142 254.261 281.142C254.488 281.142 254.935 280.72 255.254 280.204ZM77.8464 268.251C80.06 265.86 81.39 265.622 83.0817 267.314C83.7263 267.958 84.7599 268.505 85.3786 268.528C85.9974 268.551 86.4168 269.023 86.3107 269.575C86.0603 270.88 90.5277 275.086 91.321 274.293C91.6543 273.96 91.365 273.01 90.678 272.182C89.7478 271.061 89.6894 270.26 90.449 269.044C91.01 268.145 91.3044 265.302 91.1032 262.726C90.8638 259.661 91.1945 257.417 92.0603 256.233C93.2247 254.64 93.7406 254.558 96.3613 255.547C99.3044 256.658 99.3323 256.642 98.7479 254.141C97.733 249.798 92.6616 245.891 87.078 245.15C81.6892 244.436 81.0222 242.804 85.6299 241.608C88.2897 240.918 88.3749 240.719 88.2632 235.471C88.1047 228.028 87.623 227.215 83.447 227.341C80.0049 227.445 79.9423 227.514 80.0078 231.091C80.0444 233.096 80.4184 237.998 80.8388 241.985C81.4271 247.566 81.3139 249.584 80.3471 250.749C79.6562 251.581 78.9783 253.001 78.8405 253.904C78.7027 254.806 77.7 257.613 76.6122 260.14C74.6845 264.619 72.7383 276.907 73.79 277.96C74.0793 278.249 74.671 276.658 75.1048 274.423C75.5386 272.189 76.7723 269.411 77.8464 268.251V268.251ZM81.2451 262.073C80.4474 260.322 80.6407 259.142 82.2027 256.227C83.2791 254.219 84.1599 252.042 84.1599 251.39C84.1599 250.738 84.5817 250.204 85.0974 250.204C86.579 250.204 86.1887 255.66 84.5255 258.199C82.6449 261.069 83.4411 264.155 85.5999 262.364C87.163 261.066 88.4558 261.687 87.4797 263.267C86.3148 265.152 82.2973 264.382 81.2451 262.073V262.073ZM233.629 276.55C234.626 276.16 235.048 275.606 234.566 275.32C233.635 274.766 229.472 276.052 229.472 276.893C229.472 277.572 231.432 277.41 233.629 276.55ZM262.754 275.517C263.491 274.323 261.319 274.323 259.472 275.517C258.329 276.255 258.45 276.428 260.12 276.44C261.25 276.447 262.435 276.032 262.754 275.517ZM241.201 273.229C244.628 271.797 251.035 267.057 251.035 265.953C251.035 264.902 244.373 268.242 239.879 271.547C235.468 274.789 235.962 275.418 241.201 273.229V273.229ZM263.253 265.673C264.525 263.939 264.506 263.894 262.988 265.085C262.086 265.792 261.347 266.812 261.347 267.35C261.347 267.889 261.467 268.153 261.613 267.939C261.759 267.724 262.497 266.704 263.253 265.673ZM256.679 263.775C258.49 261.592 257.198 261.181 255.259 263.323C254.323 264.358 253.992 265.204 254.525 265.204C255.057 265.204 256.026 264.561 256.679 263.775ZM269.216 262.784C270.241 260.113 269.754 259.072 268.349 260.93C267.592 261.931 266.972 263.091 266.972 263.508C266.972 264.85 268.628 264.315 269.216 262.784ZM264.16 258.609C264.16 256.999 262.38 257.65 261.309 259.65C260.357 261.431 260.434 261.507 262.214 260.555C263.284 259.982 264.16 259.106 264.16 258.609ZM272.678 252.865C274.2 250.022 272.975 249.693 271.163 252.459C270.292 253.788 269.225 254.656 268.792 254.389C268.358 254.121 267.564 254.723 267.027 255.727C266.091 257.477 266.167 257.495 268.86 256.151C270.406 255.38 272.124 253.901 272.678 252.865V252.865ZM262.8 253.219C261.897 252.316 259.472 253.961 259.472 255.476C259.472 256.919 259.637 256.908 261.353 255.355C262.387 254.419 263.039 253.458 262.8 253.219ZM111.457 253.761C124.792 248.297 135.273 241.467 144.033 232.533C150.282 226.159 150.782 225.379 149.306 224.299C148.245 223.524 147.903 222.517 148.328 221.421C148.947 219.824 149.051 219.831 150.321 221.555C151.653 223.366 152.009 222.994 151.728 220.085C151.647 219.246 152.177 218.331 152.906 218.052C153.635 217.772 154.53 216.351 154.896 214.895C155.261 213.438 156 211.716 156.538 211.069C157.797 209.552 160.763 209.548 161.273 211.063C161.586 211.993 161.967 211.987 163.125 211.032C165.164 209.35 165.888 206.141 164.228 206.141C163.503 206.141 162.91 205.675 162.91 205.105C162.91 204.536 161.644 202.194 160.097 199.902C158.55 197.61 157.285 195.305 157.285 194.779C157.285 194.253 156.336 193.958 155.175 194.123C153.271 194.393 153.089 194.877 153.304 199.11C153.599 204.914 152.719 211.952 151.771 211.366C151.383 211.126 151.015 207.249 150.953 202.75C150.854 195.495 151.198 193.686 153.99 186.761L157.138 178.954H154.806C153.523 178.954 151.553 178.467 150.426 177.873C145.765 175.411 137.615 168.422 135.595 165.154L133.43 161.651L132.687 165.849C130.387 178.842 125.54 191.926 121.788 195.271C120.686 196.253 119.785 197.536 119.785 198.123C119.785 199.577 111.534 207.578 110.796 206.84C110.016 206.06 113.485 201.251 116.903 198.375C119.91 195.844 125.994 184.762 126.793 180.36C127.223 177.99 126.966 178.212 125.163 181.766C121.177 189.624 115.871 197.214 110.582 202.626C105.779 207.539 105.516 208.016 107.61 208.016C109.747 208.016 109.607 208.305 105.624 212.122C102.001 215.593 101.15 217.12 100.113 222.005C99.2437 226.101 98.2125 228.313 96.5686 229.606C94.9342 230.892 94.1687 232.521 93.9742 235.129C93.8225 237.163 93.3215 239.501 92.8609 240.325C92.2223 241.466 93.2679 243.094 97.2655 247.184C100.505 250.498 102.379 253.174 102.171 254.188C101.699 256.493 105.18 256.333 111.457 253.761V253.761ZM266.972 250.673C266.972 249.899 266.807 249.267 266.604 249.267C266.401 249.267 265.993 249.899 265.696 250.673C265.399 251.446 265.565 252.079 266.064 252.079C266.564 252.079 266.972 251.446 266.972 250.673ZM264.714 247.633C264.063 246.983 262.285 248.304 262.285 249.437C262.285 250.058 262.823 249.987 263.714 249.248C264.5 248.596 264.95 247.869 264.714 247.633V247.633ZM273.105 247.329C274.098 245.721 273.208 245.564 271.245 247C269.724 248.112 269.677 248.329 270.957 248.329C271.798 248.329 272.765 247.879 273.105 247.329V247.329ZM267.88 237.603C267.864 237.057 267.231 237.429 266.474 238.43C265.717 239.431 265.111 240.697 265.127 241.243C265.144 241.789 265.776 241.416 266.533 240.416C267.29 239.415 267.896 238.149 267.88 237.603ZM274.472 239.423C274.472 238.649 274.307 238.017 274.104 238.017C273.901 238.017 273.493 238.649 273.196 239.423C272.899 240.196 273.065 240.829 273.564 240.829C274.064 240.829 274.472 240.196 274.472 239.423ZM270.532 236.015C270.237 234.139 270.105 234.271 269.673 236.874C269.365 238.737 269.502 239.612 270.022 239.092C270.495 238.619 270.724 237.235 270.532 236.015ZM275.41 232.204C275.41 230.272 275.087 229.527 274.503 230.111C274.004 230.61 273.843 231.96 274.144 233.111C274.916 236.064 275.41 235.71 275.41 232.204ZM268.847 231.868C268.847 231.064 268.425 230.667 267.91 230.985C267.394 231.304 266.972 231.962 266.972 232.447C266.972 232.932 267.394 233.329 267.91 233.329C268.425 233.329 268.847 232.671 268.847 231.868ZM95.3769 225.891C95.9106 224.893 96.3474 223.819 96.3474 223.503C96.3474 222.683 91.7248 226.154 91.6893 227.001C91.6277 228.472 94.45 227.623 95.3769 225.891ZM277.205 220.204C277.25 218.954 277.155 218.954 276.347 220.204C275.848 220.978 275.462 222.454 275.49 223.485C275.542 225.36 275.542 225.36 276.347 223.485C276.791 222.454 277.176 220.978 277.205 220.204ZM97.6426 220.624C97.9627 219.79 97.8056 219.414 97.2741 219.742C96.7644 220.057 96.3474 220.712 96.3474 221.197C96.3474 222.546 97.0193 222.248 97.6426 220.624V220.624ZM159.684 214.669C158.534 212.808 157.285 213.597 157.285 216.186C157.285 218.531 157.404 218.612 158.802 217.214C159.636 216.379 160.033 215.234 159.684 214.669ZM270.708 214.758C270.696 213.392 270.568 213.367 269.785 214.579C268.598 216.415 268.598 217.656 269.785 216.923C270.3 216.604 270.716 215.63 270.708 214.758V214.758ZM101.549 206.055C102.373 204.46 102.85 202.957 102.608 202.715C102.24 202.346 99.1599 207.629 99.1599 208.629C99.1599 209.733 100.259 208.548 101.549 206.055V206.055ZM271.369 203.564C271.133 202.661 270.94 203.4 270.94 205.204C270.94 207.009 271.133 207.747 271.369 206.845C271.604 205.942 271.604 204.466 271.369 203.564ZM180.254 192.574C181.456 191.694 181.671 191.191 180.852 191.172C179.916 191.15 179.732 190.309 180.162 188.018C180.618 185.586 180.329 184.513 178.855 183.18C177.813 182.237 176.858 181.639 176.732 181.851C176.606 182.062 175.964 183.079 175.305 184.11C174.646 185.142 173.38 187.143 172.492 188.558C171.605 189.972 170.427 191.133 169.876 191.136C169.324 191.139 167.926 192.231 166.768 193.562C165.583 194.925 164.075 195.758 163.318 195.467C162.578 195.183 161.972 195.325 161.972 195.783C161.972 197.079 165.17 202.379 165.957 202.386C166.343 202.389 166.66 203.126 166.66 204.023C166.66 205.124 168.568 203.749 172.519 199.801C175.742 196.581 179.222 193.329 180.254 192.574V192.574ZM110.205 199.724C110.783 197.992 108.978 198.473 107.097 200.552C105.396 202.431 105.404 202.449 107.606 201.634C108.837 201.179 110.007 200.319 110.205 199.724ZM114.486 194.358C115.954 192.518 116.908 190.764 116.604 190.461C115.956 189.813 111.885 194.014 111.048 196.196C110.072 198.737 111.676 197.88 114.486 194.358V194.358ZM167.045 187.392C167.738 187.392 168.829 186.761 169.468 185.99C170.405 184.861 170.336 184.138 169.115 182.273C167.02 179.077 167.133 178.906 171.025 179.404C174.173 179.807 174.306 179.733 172.665 178.493C170.749 177.044 166.333 177.362 161.713 179.28C159.823 180.064 158.836 181.388 158.11 184.11C157.56 186.173 156.451 188.599 155.646 189.501C154.341 190.963 154.338 191.142 155.618 191.142C156.409 191.142 157.563 191.754 158.184 192.502C159.143 193.658 159.801 193.375 162.549 190.627C164.329 188.848 166.352 187.392 167.045 187.392H167.045ZM265.512 188.269C263.222 185.739 262.653 186.748 264.771 189.585C265.724 190.861 266.652 191.498 266.834 191.001C267.016 190.503 266.421 189.274 265.512 188.269V188.269ZM260.836 186.028C260.026 184.088 259.14 182.724 258.869 182.995C258.597 183.267 259.099 185.015 259.984 186.88C262.075 191.286 262.751 190.61 260.836 186.028V186.028ZM124.871 174.311C126.199 170.108 127.285 165.426 127.285 163.906C127.285 160.594 129.76 160.069 130.373 163.251C130.597 164.411 130.837 163.539 130.907 161.313C131.022 157.667 130.849 157.324 129.16 157.86C127.662 158.336 127.272 158.018 127.219 156.283C127.183 155.088 126.753 153.267 126.265 152.235C125.649 150.936 125.526 152.207 125.863 156.372C126.238 161.001 125.787 164.56 123.9 171.841C122.553 177.042 120.864 182.232 120.149 183.374C119.433 184.516 118.849 185.993 118.851 186.656C118.858 189.208 122.569 181.599 124.871 174.311V174.311ZM241.061 172.86C240.765 172.087 239.986 171.454 239.331 171.454C238.675 171.454 237.614 170.821 236.972 170.048C235.738 168.561 233.222 168.122 233.222 169.394C233.222 169.95 239.577 173.692 241.396 174.209C241.509 174.241 241.358 173.634 241.061 172.86V172.86ZM241.66 168.586C241.66 168.101 241.238 167.704 240.722 167.704C240.207 167.704 239.785 168.362 239.785 169.166C239.785 169.97 240.207 170.367 240.722 170.048C241.238 169.729 241.66 169.072 241.66 168.586ZM234.179 161.633C233.526 160.847 231.884 160.222 230.529 160.243C228.149 160.281 228.176 160.342 231.347 162.034C234.968 163.966 235.994 163.821 234.179 161.633V161.633ZM219.16 159.267C219.16 158.751 218.974 158.329 218.746 158.329C218.519 158.329 218.072 158.751 217.754 159.267C217.435 159.782 217.621 160.204 218.167 160.204C218.713 160.204 219.16 159.782 219.16 159.267ZM215.41 157.814C215.41 156.6 212.414 151.638 211.957 152.094C211.309 152.742 213.768 158.329 214.701 158.329C215.091 158.329 215.41 158.097 215.41 157.814V157.814ZM208.847 152.336C208.847 151.617 208.221 150.789 207.455 150.495C206.29 150.048 206.25 150.262 207.212 151.801C208.576 153.986 208.847 154.075 208.847 152.336V152.336ZM131.953 142.593C133.382 136.489 131.961 123.896 129.982 125.119C129.513 125.409 129.429 126.13 129.794 126.722C130.749 128.267 130.226 140.425 129.048 144.071C127.924 147.551 128.712 151.431 130.04 148.954C130.454 148.181 131.315 145.318 131.953 142.593V142.593ZM210.012 146.597C209.551 144.185 207.91 142.371 207.91 144.273C207.91 145.376 209.627 148.954 210.157 148.954C210.325 148.954 210.26 147.893 210.012 146.597ZM205.738 138.466C205.439 137.718 205.216 137.94 205.171 139.032C205.131 140.021 205.352 140.574 205.664 140.263C205.975 139.951 206.009 139.143 205.738 138.466H205.738ZM200.343 133.087C199.091 132.275 197.222 130.607 196.191 129.381C195.16 128.154 192.69 125.412 190.703 123.287C187.199 119.54 187.155 119.522 189.255 122.704C193.755 129.524 199.671 135.694 201.161 135.122C202.347 134.667 202.193 134.286 200.343 133.087ZM205.255 131.862C204.56 131.166 204.438 131.532 204.845 133.092C205.177 134.36 205.602 134.784 205.836 134.082C206.061 133.406 205.8 132.407 205.255 131.862ZM205.985 125.855C205.05 123.394 200.41 117.288 200.41 118.517C200.41 119.233 206.184 128.329 206.638 128.329C206.797 128.329 206.503 127.216 205.985 125.855V125.855ZM212.144 111.363C212.854 107.159 211.996 99.3771 210.599 97.3468C209.862 96.2761 209.759 96.3858 210.115 97.8604C211.416 103.24 211.707 110.377 210.653 111.029C209.846 111.527 209.654 110.897 209.965 108.775C210.203 107.155 210.097 105.829 209.729 105.829C208.845 105.829 207.638 114.006 208.352 115.16C209.487 116.997 211.54 114.941 212.144 111.363V111.363ZM196.079 111.143C194.078 108.909 191.637 106.544 190.654 105.888C189.672 105.231 190.937 107.053 193.467 109.937C195.996 112.821 198.437 115.186 198.891 115.192C199.345 115.199 198.079 113.377 196.079 111.143ZM205.566 98.3304C204.936 94.6576 203.988 91.2197 203.459 90.6904C202.801 90.0324 202.75 91.0868 203.299 94.0252C203.741 96.3885 204.288 100.96 204.515 104.185C205.027 111.459 205.12 111.697 206.001 107.997C206.399 106.32 206.209 102.076 205.566 98.3304V98.3304ZM188.222 103.6C188.222 103.406 187.484 102.667 186.582 101.96C185.095 100.793 185.062 100.827 186.228 102.314C187.453 103.875 188.222 104.372 188.222 103.6ZM162.179 99.6281C163.582 98.903 165.182 97.4641 165.735 96.4305C167.227 93.6429 164.605 93.0339 161.334 95.4081C157.763 97.9992 151.793 99.2163 142.519 99.2437C136.008 99.263 134.785 99.508 134.785 100.793C134.785 102.161 136.074 102.249 147.207 101.633C154.757 101.216 160.629 100.429 162.179 99.6281V99.6281ZM154.472 95.7736C156.793 94.9884 159.619 93.6165 160.752 92.7249L162.814 91.1037L159.462 87.9196C157.619 86.1683 155.286 82.9088 154.277 80.6763C152.503 76.7491 152.499 76.5753 154.161 75.3323C155.767 74.1308 155.742 74.0819 153.769 74.5789C151.053 75.2632 151.086 73.8502 153.864 70.5105C156.905 66.8555 158.224 64.1506 158.213 61.5939C158.206 60.0549 157.548 60.8323 155.95 64.2644C154.71 66.9273 152.801 70.0009 151.707 71.0948C149.946 72.8555 149.558 72.9236 148.323 71.6886C147.088 70.4536 147.307 69.5501 150.231 63.8115C154.777 54.8922 154.375 54.0804 149.683 62.7042C145.193 70.9568 145.499 70.5633 144.192 69.7551C143.495 69.3245 143.815 68.0598 145.181 65.8509C148.241 60.8988 151.516 53.82 152.126 50.8378C152.425 49.3721 151.569 50.7749 150.222 53.9552C147.686 59.9435 142.029 67.4056 140.878 66.2814C140.516 65.9285 141.27 64.241 142.552 62.5314C145.61 58.4541 148.457 52.6729 149.276 48.876C149.638 47.2002 150.322 45.8292 150.797 45.8292C151.272 45.8292 151.66 45.3556 151.66 44.7769C151.66 44.0498 151.225 44.0853 150.254 44.8917C149.48 45.5336 148.847 46.5725 148.847 47.2005C148.847 49.1364 143.329 59.5049 141.341 61.304C137.571 64.7157 138.319 60.715 142.394 55.6729C143.227 54.6417 144.664 51.7718 145.587 49.2956C147.727 43.5528 152.514 39.7774 152.657 43.7198C152.7 44.8999 152.971 44.7237 153.623 43.0921C154.223 41.5901 154.203 40.4974 153.563 39.8577C152.9 39.1946 152.597 39.241 152.597 40.0056C152.597 40.6182 150.992 41.3762 149.031 41.6898C145.776 42.2103 145.456 42.5257 145.378 45.2979C145.28 48.7359 142.3 55.1261 139.854 57.1419C138.353 58.3787 138.278 58.2679 138.906 55.7469C139.282 54.2407 140.406 51.969 141.406 50.6986C143.41 48.1508 143.719 46.7667 142.285 46.7667C141.769 46.7667 141.347 47.3783 141.347 48.1259C141.347 49.5951 136.228 57.5933 134.673 58.5548C132.927 59.6339 132.743 58.2052 134.319 55.8001C137.093 51.5668 133.583 46.8932 130.039 50.1006C128.215 51.7514 124.36 51.6228 123.791 49.8923C123.593 49.291 124.193 48.6017 125.124 48.3604C126.228 48.0742 125.92 47.8838 124.238 47.8129C119.937 47.6315 121.358 45.8292 125.802 45.8292C130.462 45.8292 132.91 45.1257 132.91 43.7864C132.91 43.2389 130.914 43.1311 127.855 43.5133C122.587 44.1714 118.847 43.5363 118.847 41.9837C118.847 41.4407 120.684 41.3208 123.428 41.6847C126.133 42.0435 128.724 41.8815 129.756 41.2889C131.152 40.4874 130.82 40.3924 128.107 40.8169C126.069 41.1357 124.453 40.9319 124.067 40.3075C123.714 39.735 121.424 39.2667 118.98 39.2667C114.498 39.2667 112.285 38.0976 112.285 35.7309C112.285 34.5051 110.117 31.7667 109.146 31.7667C108.894 31.7667 108.698 35.4691 108.713 39.9942C108.734 46.7018 108.367 48.8833 106.728 51.8024C101.66 60.8254 100.761 75.8117 104.949 81.4757C106.784 83.9573 107.56 84.2667 111.948 84.2667C116.723 84.2667 121.66 85.7214 121.66 87.1282C121.66 87.5053 123.574 89.9429 125.914 92.545L130.167 97.2761L140.21 97.2386C146.64 97.2147 151.772 96.6875 154.472 95.7736V95.7736ZM126.347 55.2042C126.347 54.1729 126.91 53.3292 127.597 53.3292C129.361 53.3292 130.052 54.2313 129.464 55.7646C128.699 57.7587 126.347 57.3359 126.347 55.2042V55.2042ZM196.344 73.7217C194.969 71.0136 192.783 67.5323 191.486 65.9854L189.128 63.1729L191.362 67.3917C195.712 75.6025 198.045 79.4442 198.442 79.0473C198.663 78.8263 197.719 76.4298 196.344 73.7217ZM156.715 57.08C158.575 52.4318 160.074 47.6824 160.046 46.5258C160.017 45.3692 158.77 48.1006 157.273 52.5955C155.777 57.0904 153.867 62.0938 153.029 63.7143C152.191 65.3347 151.916 66.4064 152.419 66.0959C152.921 65.7853 154.854 61.7282 156.715 57.08ZM162.593 55.9073C162.333 55.2627 162.12 55.7901 162.12 57.0792C162.12 58.3682 162.333 58.8956 162.593 58.251C162.853 57.6065 162.853 56.5518 162.593 55.9073ZM156.031 46.5323C155.771 45.8877 155.558 46.4151 155.558 47.7042C155.558 48.9932 155.771 49.5206 156.031 48.876C156.291 48.2315 156.291 47.1768 156.031 46.5323ZM138.924 44.1092C138.134 43.9367 136.774 44.1002 135.902 44.4727C134.578 45.0379 134.703 45.2553 136.66 45.7893C138.004 46.156 139.293 46.0009 139.682 45.4258C140.055 44.8742 139.714 44.2818 138.924 44.1092ZM164.531 46.2002C164.219 45.8887 163.411 45.8554 162.734 46.1262C161.986 46.4255 162.208 46.6476 163.3 46.6926C164.289 46.7333 164.842 46.5118 164.531 46.2002V46.2002ZM175.097 42.9584C175.097 42.4748 174.018 42.0792 172.698 42.0792C171.379 42.0792 170.503 42.4088 170.752 42.8118C171.408 43.8737 175.097 43.9981 175.097 42.9584ZM170.879 40.2042C171.618 39.0071 168.512 39.0071 166.66 40.2042C165.56 40.915 165.803 41.1161 167.776 41.1273C169.164 41.1352 170.56 40.7198 170.879 40.2042ZM180.309 37.8902C182.763 36.0342 180.207 36.0114 176.972 37.8604C174.83 39.0852 174.794 39.2031 176.559 39.2334C177.62 39.2517 179.308 38.6473 180.309 37.8902V37.8902ZM137.597 37.4644C137.597 36.4412 132.841 34.8299 128.222 34.2883C126.418 34.0767 125.705 34.0883 126.639 34.3141C127.573 34.5399 128.571 35.3354 128.858 36.082C129.222 37.0298 129.723 37.1542 130.518 36.494C131.303 35.8428 132.217 35.972 133.456 36.909C135.508 38.4617 137.597 38.7419 137.597 37.4644V37.4644ZM147.557 37.0278C149.031 37.4132 149.363 37.0436 149.278 35.1115C149.176 32.7864 147.91 30.3862 147.91 32.5185C147.91 33.1039 147.277 33.34 146.504 33.0432C145.73 32.7464 145.097 32.9706 145.097 33.5414C145.097 34.1121 144.254 34.5792 143.222 34.5792C141.161 34.5792 141.092 34.6971 141.91 36.8291C142.32 37.8971 142.915 38.0581 144.102 37.4226C144.998 36.9429 146.553 36.7653 147.557 37.0278V37.0278ZM175.816 35.7579C177.5 34.9842 179.107 33.9806 179.387 33.5277C180.208 32.1981 176.958 32.5844 175.56 33.9824C174.857 34.6854 171.723 35.5501 168.596 35.904C165.469 36.2578 162.91 36.9627 162.91 37.4705C162.91 38.7352 171.945 37.5363 175.816 35.7579V35.7579ZM118.144 35.7925C116.984 35.5691 116.035 34.8279 116.035 34.1455C116.035 32.8619 113.313 31.3634 112.485 32.1913C112.227 32.4491 112.71 32.926 113.557 33.2511C114.404 33.5763 115.097 34.4299 115.097 35.1482C115.097 35.9788 116.036 36.4077 117.675 36.3265C119.886 36.217 119.953 36.1409 118.144 35.7925V35.7925ZM139.472 33.6857C139.472 32.5086 132.91 30.718 131.592 31.5356C131.028 31.8854 132.254 32.6809 134.316 33.3034C139.081 34.7414 139.472 34.7704 139.472 33.6857ZM165.254 33.6417C164.935 33.126 163.71 32.7042 162.531 32.7042C159.773 32.7042 156.355 29.1706 158.081 28.1039C158.948 27.5682 158.612 26.9356 156.844 25.7775L154.417 24.1869L155.051 26.716C155.626 29.0043 155.482 29.1916 153.538 28.6833C150.638 27.9249 152.107 29.2724 157.287 32.1208C161.55 34.4655 166.326 35.3772 165.254 33.6417ZM123.121 32.7922C122.832 32.3249 121.752 32.1632 120.721 32.4328C118.142 33.1073 118.374 33.6417 121.246 33.6417C122.566 33.6417 123.409 33.2594 123.121 32.7922ZM143.643 31.6891C142.599 29.9992 134.841 27.0792 131.396 27.0792C128.25 27.0792 126.152 29.1347 127.766 30.6352C128.158 30.9997 128.667 30.7706 128.898 30.126C129.526 28.3665 134.99 28.7149 139.604 30.8086C144.418 32.9929 144.454 33.0006 143.643 31.6891V31.6891ZM148.82 27.0425C146.597 25.6366 145.396 26.0726 147.373 27.568C148.366 28.3197 149.409 28.7053 149.689 28.4247C149.97 28.1442 149.579 27.5222 148.82 27.0425ZM122.131 27.4174C123.376 26.9394 123.439 26.6579 122.442 26.0255C120.659 24.8958 120.059 25.013 119.446 26.6104C118.864 28.1264 119.66 28.3655 122.131 27.4174V27.4174ZM140.41 26.7107C140.41 26.5081 139.755 26.091 138.955 25.7839C138.121 25.4638 137.744 25.621 138.073 26.1524C138.623 27.0432 140.41 27.47 140.41 26.7107ZM140.879 23.3292C140.56 22.8135 139.877 22.3917 139.362 22.3917C138.846 22.3917 138.685 22.8135 139.004 23.3292C139.322 23.8448 140.005 24.2667 140.521 24.2667C141.036 24.2667 141.197 23.8448 140.879 23.3292ZM148.847 22.8604C144.27 21.0976 142.222 21.1119 144.573 22.8902C145.574 23.6473 147.684 24.2346 149.261 24.1953L152.129 24.124L148.847 22.8604V22.8604ZM137.129 21.4542C136.81 20.9385 136.152 20.5167 135.667 20.5167C135.182 20.5167 134.785 20.9385 134.785 21.4542C134.785 21.9698 135.443 22.3917 136.246 22.3917C137.05 22.3917 137.447 21.9698 137.129 21.4542ZM141.816 19.5792C141.497 19.0635 140.604 18.6417 139.83 18.6417C139.057 18.6417 138.685 19.0635 139.004 19.5792C139.322 20.0948 140.216 20.5167 140.989 20.5167C141.763 20.5167 142.135 20.0948 141.816 19.5792ZM151.66 19.5792C149.826 18.3938 147.91 18.3938 147.91 19.5792C147.91 20.0948 149.07 20.5102 150.488 20.5023C152.497 20.4911 152.756 20.2873 151.66 19.5792ZM130.899 15.373C131.094 14.3605 131.943 12.9819 132.785 12.3093C134.141 11.2263 134.055 11.1165 132.036 11.3485C130.452 11.5304 129.369 12.5635 128.487 14.7324C127.325 17.5923 127.358 17.8276 128.881 17.5342C129.796 17.358 130.704 16.3855 130.899 15.373ZM151.266 15.9502C150.518 14.7405 145.366 13.9032 143.467 14.6828C142.342 15.1445 143.309 15.5375 146.504 15.9162C149.082 16.222 151.321 16.5384 151.481 16.6194C151.64 16.7004 151.543 16.3993 151.266 15.9502V15.9502ZM142.754 13.0167C143.99 12.4854 144.15 12.1934 143.222 12.1594C142.449 12.1311 141.183 12.5168 140.41 13.0167C138.696 14.1241 140.176 14.1241 142.754 13.0167ZM173.222 26.0084C170.902 25.5325 167.843 25.3573 166.425 25.619C164.502 25.974 163.847 25.7195 163.847 24.6163C163.847 23.3812 164.747 23.2212 169.312 23.6442C176.202 24.2826 179.785 25.1717 179.785 26.2433C179.785 27.214 178.955 27.1843 173.222 26.0084V26.0084ZM102.187 20.3409C102.767 18.6025 104.785 18.3142 104.785 19.9698C104.785 20.7862 104.117 21.4542 103.3 21.4542C102.484 21.4542 101.983 20.9532 102.187 20.3409ZM172.988 19.9698C172.687 19.669 170.511 19.4229 168.151 19.4229C163.326 19.4229 161.692 18.2131 165.295 17.3087C168.176 16.5856 175.373 18.3751 174.602 19.6229C173.958 20.6637 173.731 20.7126 172.988 19.9698Z" fill="#8B542F"/>
</svg>
