<svg width="275" height="55" viewBox="0 0 275 55" fill="none" xmlns="http://www.w3.org/2000/svg">
<g clip-path="url(#clip0_215_278)">
<path d="M92.9403 54.537C91.4281 53.7291 89.9364 51.9139 89.2096 49.4893C88.9141 48.5036 87.1475 47.4574 85.5812 47.341C82.9925 47.1487 77.9922 45.8292 77.0126 45.0795C59.9374 32.0126 71.9395 13.1887 96.1793 15.0186L96.9106 15.0741L96.1708 14.1749C95.2807 13.0934 94.8969 12.9506 90.0807 11.9082C85.462 10.9086 84.2464 10.3239 82.7257 8.37109C80.8098 5.91088 80.1961 5.33731 79.3606 5.22773C78.2763 5.08551 77.0141 5.79861 76.5318 6.8257C76.0667 7.81627 75.6786 7.9637 75.5113 7.21315C74.8631 4.30523 78.8191 3.26025 82.9804 5.24046C84.2193 5.83004 85.6479 6.51004 86.1547 6.75098L87.076 7.18877L87.4124 6.1379C87.869 4.71112 88.9021 3.8334 89.6634 4.2253C90.1701 4.48608 90.1807 4.63242 89.7544 5.47759C89.2803 6.41748 89.2914 6.45591 90.3764 7.65268C90.9839 8.32273 91.662 9.30257 91.8829 9.83047C92.3664 10.9856 93.046 11.624 94.1154 11.9275C95.1012 12.2072 96.9269 13.6814 97.7733 14.8816C98.4429 15.8309 100.877 16.6942 104.524 17.2748C107.198 17.7005 113.372 19.827 120.897 22.9149C123.54 23.9993 124.598 24.3094 124.734 24.0391C124.81 23.8876 124.373 23.6227 123.581 23.34C121.119 22.462 113.466 16.0365 112.527 14.0587C112.133 13.2296 110.556 12.263 109.553 12.2364C107.2 12.174 107.717 10.3961 110.146 10.1985L111.724 10.07L110.807 7.53327C110.302 6.13803 109.874 4.81336 109.856 4.58926C109.714 2.89157 107.452 0.988007 106.044 1.3816C104.411 1.83825 104.111 1.85428 103.795 1.50061C103.079 0.696854 104.654 -0.0476723 106.597 0.176514L106.598 0.176792C109.701 0.534752 113.181 3.66915 115.059 7.79793C115.873 9.5875 116.223 9.87996 116.947 9.37117C118.268 8.44205 120.174 11.9099 120.175 15.2444C120.176 19.2393 121.192 21.3742 123.71 22.6704C124.671 23.1647 125.508 23.7268 125.569 23.9194C125.744 24.4629 132.537 26.6239 133.37 26.4009C133.984 26.2366 132.902 24.9005 131.917 24.6084C130.702 24.2477 129.68 22.8538 128.841 20.4125C127.933 17.7698 127.196 16.9543 125.826 17.075C125.032 17.145 124.863 16.6446 125.6 16.4029C128.583 15.4236 131.697 18.5872 133.799 24.7324C134.552 26.9357 134.598 26.9658 137.4 27.0854C137.781 27.1017 138.04 27.1145 138.278 27.1288C138.284 27.1265 138.289 27.1308 138.295 27.1297C138.524 27.1435 138.721 27.1597 138.843 27.1805C139.947 27.2878 141.178 27.4981 142.2 27.8015C145.086 28.6581 147.412 24.8774 146.656 20.5585C146.058 17.1348 149.121 14.29 152.404 15.2215C153.531 15.5414 153.198 16.1313 151.917 16.0843C150.468 16.0311 149.506 18.0115 149.772 20.5027C150.058 23.1939 148.137 26.4001 145.358 27.8682L144.502 28.3206L145.527 28.6542C153.68 31.3105 161.079 22.6012 157.878 14.1148C157.35 12.7142 157.799 12.6043 159.667 13.6772L161.374 14.6581L162.747 11.9925C165.334 6.96884 165.968 6.17473 168.301 5.03511C170.002 4.20386 170.838 4.05503 171.612 4.44565C172.422 4.85438 172.463 4.77319 170.869 5.9488C169.278 7.1226 168.191 8.94373 167.43 11.7075C167.137 12.7728 166.622 14.1896 166.286 14.8557L165.675 16.0665L166.571 16.2428C168.946 16.709 169.939 17.9151 168.045 18.0344C166.485 18.1328 164.761 19.133 163.031 20.9419C162.131 21.882 161.09 22.9081 160.716 23.2225C160.342 23.537 159.76 24.1347 159.423 24.5511C158.833 25.2791 157.819 26.1106 155.172 28.0377C153.71 29.1021 151.899 29.8183 150.885 29.733C149.16 29.5879 150.675 30.2697 154.884 31.5326C155.351 31.6725 155.735 31.5693 156.034 31.2236C156.33 30.8798 156.922 30.7182 157.783 30.7459C159.504 30.8013 160.184 30.4962 162.542 28.6101C167.323 24.7872 169.828 24.3129 173.127 26.6052C174.933 27.8605 176.565 29.9983 176.228 30.6688C175.994 31.1352 175.535 30.7703 175.21 29.8579C174.243 27.143 171.12 26.9874 167.802 29.4889C165.687 31.0837 163.575 31.6976 160.577 31.5885C157.446 31.4745 155.529 32.2373 157.676 32.7427C157.996 32.8178 159.456 33.3493 160.92 33.9229C163.75 35.0311 169.377 36.7535 172.102 37.3458C175.023 37.9808 178.146 36.1768 178.584 33.6019C178.803 32.3087 180.08 29.6026 180.572 29.3886C180.848 29.2684 181.577 28.5841 182.192 27.8682C183.714 26.0951 184.526 26.363 183.792 28.3955C182.978 30.6515 183.222 30.9769 184.95 29.9422C186.932 28.7555 191.64 28.6433 193.249 29.7443C194.203 30.3972 193.771 30.7009 192.36 30.3684C191.631 30.1965 190.758 30.1664 190.42 30.3017C188.775 30.9594 186.155 32.6708 185.832 33.2992C185.415 34.111 183.085 35.5607 181.021 36.2918C177.187 37.6502 176.518 37.9226 176.39 38.1765C176.167 38.6184 178.834 39.2566 181.404 39.3763C182.22 39.4144 183.634 39.4878 184.547 39.5393C190.035 39.849 197.758 36.4913 200.931 32.4158C203.96 28.5256 204.919 25.701 204.31 22.4523C204.183 21.7719 204.138 21.0987 204.21 20.956C204.525 20.3316 202.342 15.8256 201.184 14.7104C199.197 12.7961 196.925 11.6534 193.656 10.9253C190.366 10.1925 187.414 11.8971 185.499 15.6354L184.294 17.9893L184.692 19.3086C185.969 23.5453 191.603 25.4774 193.236 22.239C194.251 20.227 192.757 17.5525 191.396 18.9459C190.947 19.4059 190.243 19.1425 190.509 18.6141C191.409 16.8292 194.665 18.6223 195.03 21.1041C195.193 22.2092 193.772 24.6145 192.748 24.9669C192.562 25.0312 192.32 25.261 192.211 25.4771C191.292 27.2976 185.313 26.2707 183.726 24.0201C180.082 18.8515 182.043 13.6669 188.908 10.3173C190.127 9.72279 193.772 9.70872 194.91 10.2944C196.496 11.111 198.585 11.5271 198.035 10.9169C196.904 9.66221 191.225 8.42755 188.389 8.81954C185.226 9.25673 183.093 7.99809 181.951 5.02122C180.968 2.45999 179.819 1.4095 178.907 2.23895C178.349 2.74657 177.842 2.18108 178.206 1.45826C179.824 -1.74968 184.337 0.661709 185.79 5.51091C186.086 6.49654 187.853 7.54226 189.419 7.65863C192.008 7.85094 197.008 9.17099 197.987 9.92063C215.063 22.9875 203.061 41.811 178.821 39.9811L178.089 39.926L178.829 40.8252C179.719 41.9068 180.103 42.0495 184.919 43.0919C189.538 44.0915 190.754 44.6762 192.274 46.6291C194.19 49.0893 194.804 49.6623 195.64 49.7719C196.724 49.9141 197.985 49.2013 198.468 48.1742C198.933 47.1836 199.322 47.0359 199.489 47.7865C200.137 50.6944 196.181 51.7394 192.02 49.7592C190.781 49.1696 189.352 48.4901 188.845 48.2491L187.924 47.8109L187.588 48.8617C187.131 50.2885 186.098 51.1662 185.337 50.7743C184.83 50.5135 184.819 50.3677 185.246 49.5225C185.72 48.5826 185.709 48.5442 184.623 47.3475C184.016 46.6774 183.338 45.697 183.117 45.1691C182.634 44.014 181.954 43.3756 180.885 43.0721C179.899 42.7924 178.073 41.3182 177.227 40.118C176.557 39.1687 174.123 38.3059 170.476 37.7253C167.802 37.2996 161.628 35.1727 154.103 32.0847C151.46 31.0004 150.402 30.6907 150.266 30.9611C150.189 31.1125 150.626 31.3772 151.419 31.6599C153.881 32.5379 161.534 38.9636 162.473 40.9415C162.867 41.7706 164.444 42.7371 165.447 42.7637C167.8 42.8262 167.282 44.6041 164.854 44.8016L163.276 44.9296L164.193 47.4664C164.698 48.8616 165.126 50.1868 165.144 50.4109C165.286 52.1086 167.548 54.0116 168.956 53.618C170.589 53.1614 170.889 53.1459 171.204 53.4995C171.921 54.3033 170.345 55.0476 168.402 54.8234C165.299 54.4654 161.819 51.3305 159.941 47.2017C159.128 45.4122 158.777 45.1197 158.053 45.6285C156.732 46.5576 154.826 43.0898 154.825 39.7553C154.824 35.7603 153.808 33.6252 151.289 32.329C150.329 31.8347 149.493 31.2729 149.431 31.0802C149.256 30.5367 142.463 28.3763 141.63 28.5992C141.016 28.7636 142.098 30.0996 143.082 30.3918C144.298 30.7525 145.32 32.1463 146.159 34.5876C147.067 37.2304 147.804 38.0459 149.174 37.9252C149.968 37.8551 150.137 38.355 149.4 38.5968C146.417 39.5761 143.303 36.413 141.201 30.2678C140.448 28.0645 140.401 28.0344 137.6 27.9147C137.233 27.8992 136.988 27.8861 136.753 27.8723C136.733 27.8714 136.715 27.8711 136.695 27.8692C136.472 27.8557 136.279 27.8396 136.159 27.8193C135.054 27.7121 133.823 27.5014 132.8 27.1978C129.914 26.3412 127.588 30.1218 128.344 34.4407C128.943 37.8645 125.879 40.7092 122.596 39.7777C121.469 39.4578 121.802 38.868 123.083 38.9149C124.532 38.9681 125.494 36.9878 125.228 34.4965C124.942 31.8053 126.863 28.5993 129.642 27.1313L130.498 26.6791L129.473 26.345C121.32 23.6887 113.921 32.398 117.122 40.8844C117.65 42.285 117.201 42.3949 115.333 41.3221L113.626 40.3416L112.253 43.0072C109.666 48.0309 109.032 48.8245 106.7 49.9641C104.998 50.7953 104.162 50.9442 103.388 50.5535C102.578 50.1448 102.538 50.2259 104.131 49.0504C105.722 47.8766 106.809 46.0555 107.57 43.2917C107.863 42.2264 108.378 40.8101 108.714 40.144L109.325 38.9327L108.429 38.757C106.054 38.2907 105.062 37.0841 106.955 36.9648C108.515 36.8664 110.239 35.8667 111.969 34.0579C112.869 33.1178 113.91 32.0911 114.284 31.7767C114.658 31.4622 115.24 30.8645 115.578 30.4481C116.167 29.7201 117.181 28.8886 119.829 26.9615C121.291 25.8972 123.101 25.181 124.115 25.2662C125.841 25.4114 124.325 24.7295 120.116 23.4666C119.649 23.3267 119.265 23.4299 118.966 23.7757C118.67 24.1194 118.078 24.281 117.217 24.2533C115.496 24.1979 114.817 24.5031 112.458 26.3892C107.677 30.212 105.172 30.6868 101.873 28.3945C100.067 27.1392 98.4353 25.0009 98.7722 24.3304C99.0066 23.864 99.4648 24.2294 99.7897 25.1418C100.757 27.8567 103.88 28.0123 107.198 25.5109C109.313 23.916 111.425 23.3016 114.423 23.4107C117.554 23.5247 119.472 22.762 117.324 22.2565C117.004 22.1814 115.544 21.6505 114.08 21.0768C111.25 19.9686 105.623 18.2457 102.899 17.6535C99.9771 17.0185 96.8539 18.8224 96.4166 21.3973C96.197 22.6906 94.9196 25.3971 94.4279 25.6111C94.1516 25.7313 93.4228 26.4151 92.8084 27.131C91.2865 28.9041 90.4736 28.6367 91.2075 26.6043C92.0221 24.3483 91.7787 24.0223 90.0505 25.057C88.0684 26.2437 83.3603 26.356 81.7511 25.255C80.7969 24.6021 81.2293 24.2983 82.6398 24.6309C83.3689 24.8027 84.2421 24.8328 84.5802 24.6976C86.2253 24.0399 88.8449 22.3285 89.1678 21.7C89.5849 20.8882 91.9154 19.4385 93.9788 18.7075C97.8128 17.3491 98.4816 17.0772 98.6097 16.8233C98.8326 16.3813 96.1662 15.7432 93.5963 15.6234C92.7802 15.5854 91.3661 15.512 90.4534 15.4605C84.9647 15.1509 77.2422 18.5081 74.0689 22.5836C71.0397 26.4738 70.0817 29.2985 70.6898 32.5471C70.8172 33.2275 70.8623 33.9012 70.7903 34.044C70.4753 34.6685 72.6582 39.174 73.8158 40.2892C75.8028 42.2035 78.0757 43.3461 81.3444 44.0742C84.6346 44.8071 87.5864 43.103 89.5005 39.3647L90.7057 37.0103L90.3079 35.6915C89.0306 31.4548 83.3969 29.5227 81.7635 32.761C80.7487 34.7731 82.2434 37.4476 83.6041 36.0542C84.0533 35.5941 84.7576 35.8571 84.4911 36.3855C83.5908 38.1704 80.3353 36.3773 79.9702 33.8955C79.8076 32.7904 81.2284 30.3851 82.252 30.0326C82.4386 29.9683 82.6804 29.7391 82.7893 29.523C83.7076 27.7025 89.6874 28.7293 91.2739 30.98C94.9175 36.1486 92.9567 41.3332 86.0918 44.6828C84.8733 45.2773 81.2281 45.2909 80.0904 44.7053C78.5038 43.8886 76.4147 43.4725 76.9649 44.0828C78.0959 45.3374 83.7753 46.5726 86.6113 46.1806C89.7741 45.7434 91.9072 47.0021 93.0494 49.979C94.0321 52.5402 95.1812 53.5907 96.0929 52.7612C96.6508 52.2536 97.1586 52.8185 96.794 53.5414C95.985 55.1454 94.4524 55.345 92.9403 54.537V54.537ZM92.0055 53.2818C92.0903 53.3309 92.1694 53.3432 92.2429 53.319C92.342 53.2865 92.1207 52.689 91.7512 51.9908C91.3816 51.2927 90.9121 50.1282 90.7076 49.4032C90.5032 48.6782 90.1256 47.8502 89.8688 47.5639C89.3157 46.9474 88.8812 46.6991 88.5477 46.8085C88.0345 46.977 88.1528 47.2743 88.9795 47.8943C89.5977 48.3579 90.0459 49.1087 90.5846 50.5831C91.164 52.1691 91.6379 53.0692 92.0055 53.2818V53.2818ZM107.512 47.8391C107.718 47.9553 108.675 46.2809 109.96 43.4354C111.026 41.0736 112.541 37.7585 113.326 36.0688C114.933 32.6109 114.999 32.2866 113.83 33.5852C111.735 35.9119 111.122 36.4 109.43 37.0842C107.638 37.8089 107.634 37.8128 108.433 38.0098C108.874 38.1186 109.619 38.0569 110.088 37.873C111.362 37.3734 111.412 37.8626 110.273 39.6823C109.375 41.1174 108.755 42.802 107.639 46.8429C107.465 47.4739 107.431 47.7936 107.512 47.8391L107.512 47.8391ZM91.5946 35.2129C91.6128 35.2243 91.6278 35.2286 91.6384 35.2251C92.0187 35.1003 91.364 33.3081 90.5151 32.1496C89.1061 30.2269 86.6355 29.0886 84.9318 29.5768C83.8981 29.8731 83.8459 30.2954 84.8454 30.2751C87.0855 30.2295 89.5465 31.8255 90.8697 34.1813C91.1656 34.708 91.4672 35.1332 91.5946 35.2128L91.5946 35.2129ZM86.6981 24.9936C86.7458 25.0252 86.8424 25.0441 86.9798 25.0587C88.1039 25.1782 92.0687 22.5012 93.8859 20.3962C95.1518 18.9297 92.523 19.9033 90.6079 21.6101C89.8183 22.3138 89.1066 23.0199 89.0261 23.1795C88.9456 23.3391 88.3895 23.7642 87.7903 24.1241C86.8505 24.6887 86.5552 24.899 86.6981 24.9937L86.6981 24.9936ZM103.883 28.7078C105.18 29.4131 108.086 28.4977 110.518 26.6182C111.239 26.0611 112.027 25.4681 112.27 25.3C112.513 25.132 112.795 24.8286 112.897 24.6258C113.592 23.2474 108.725 25.1814 107.402 26.8093C106.891 27.4385 105.022 28.2452 103.887 28.3263C103.298 28.3684 103.298 28.3893 103.883 28.7078H103.883ZM164.672 52.0465C164.903 52.2029 164.846 51.7606 164.443 50.6813C164.111 49.7933 163.568 48.3058 163.236 47.3757C162.547 45.4429 161.825 43.782 161.548 43.49C160.995 42.906 161.704 42.8748 162.471 43.4495C163.336 44.0987 164.495 44.2982 164.727 43.8376C164.792 43.7084 164.538 43.4434 164.161 43.2495C163.337 42.8256 162.166 41.6737 160.338 39.4893C159.155 38.0768 156.719 35.9815 156.88 36.5149C156.911 36.6185 157.432 37.6172 158.038 38.734C159.061 40.6185 159.429 41.4457 161.272 46.0056C161.645 46.9279 162.5 48.6449 163.171 49.8211C163.922 51.1352 164.441 51.8901 164.672 52.0465V52.0465ZM85.5865 9.92866C86.2579 10.2982 87.0523 10.5505 88.2453 10.8606C91.1259 11.6096 91.2687 11.4979 88.9699 10.2946C87.9236 9.74704 86.3013 8.78615 85.3648 8.15908C84.4283 7.532 83.1598 6.65982 82.5459 6.22108C81.1304 5.20945 81.1968 5.39665 83.0195 7.55146C84.0627 8.78471 84.7232 9.4535 85.5865 9.92867L85.5865 9.92866ZM145.541 37.0504C145.928 37.2036 145.991 36.5616 145.5 35.1408C144.61 32.5629 144.125 31.7095 143.313 31.2916L142.572 30.9102L143.087 32.5641C143.37 33.4736 143.85 34.6786 144.154 35.2416C144.741 36.3312 145.239 36.9312 145.541 37.0504V37.0504ZM158.011 42.9879C158.131 43.0305 158.227 42.8763 158.362 42.608C158.72 41.8991 158.035 40.0195 156.709 38.066C155.223 35.8762 155.295 36.8931 156.9 40.7584C157.54 42.3008 157.81 42.9171 158.011 42.9879ZM117.962 18.5299C118.089 18.5929 118.15 18.5852 118.12 18.4853C118.089 18.3816 117.568 17.383 116.962 16.2661C115.939 14.3816 115.571 13.5544 113.728 8.99448C113.355 8.07219 112.5 6.35527 111.828 5.179C110.328 2.55078 109.75 2.15974 110.557 4.3183C110.889 5.20633 111.432 6.69379 111.764 7.62391C112.453 9.55672 113.175 11.2176 113.452 11.5096C114.006 12.0936 113.296 12.1248 112.53 11.5501C111.664 10.901 110.505 10.7019 110.273 11.1625C110.207 11.2917 110.463 11.5562 110.839 11.7501C111.663 12.174 112.834 13.3259 114.663 15.5103C115.623 16.6579 117.412 18.2568 117.962 18.5299V18.5299ZM119.228 18.0585C119.582 18.2102 119.204 16.8991 118.1 14.2418C117.076 11.7738 116.999 11.6761 116.638 12.3916C116.281 13.1005 116.965 14.9806 118.291 16.9342C118.755 17.6185 119.067 17.9895 119.228 18.0585ZM131.687 23.708L132.428 24.0894L131.913 22.436C131.63 21.5265 131.15 20.3216 130.846 19.7586C129.504 17.2679 128.627 17.3335 129.5 19.8593C130.39 22.4372 130.875 23.2901 131.687 23.708L131.687 23.708ZM193.234 49.3005C193.727 49.5737 193.347 49.0648 191.98 47.4487C190.126 45.2562 189.482 44.8479 186.755 44.139C183.874 43.39 183.731 43.5017 186.03 44.705C187.077 45.2526 188.699 46.214 189.635 46.8411C190.572 47.4681 191.84 48.3403 192.454 48.779C192.808 49.032 193.069 49.2095 193.234 49.3005ZM162.15 30.7916C162.842 31.1558 166.481 29.5644 167.598 28.1909C168.109 27.5616 169.978 26.7549 171.113 26.6738C171.702 26.6317 171.702 26.6108 171.117 26.2923C169.82 25.587 166.914 26.5019 164.482 28.3814C163.762 28.9385 162.973 29.5321 162.73 29.7001C162.487 29.8681 162.205 30.1715 162.103 30.3743C161.994 30.5897 162.022 30.7242 162.15 30.7916H162.15ZM180.868 35.2997C181.27 35.4644 183.016 34.6168 184.392 33.39C185.182 32.6863 185.894 31.9798 185.974 31.8202C186.055 31.6606 186.611 31.2354 187.21 30.8756C188.463 30.1228 188.57 29.9993 188.02 29.9409C186.896 29.8214 182.931 32.4984 181.114 34.6035C180.758 35.0159 180.71 35.2353 180.868 35.2997L180.868 35.2997ZM160.392 22.1111C160.467 22.1602 160.732 21.9014 161.17 21.4144C163.265 19.0878 163.878 18.6001 165.57 17.9159C167.362 17.1912 167.366 17.1873 166.567 16.9903C166.125 16.8815 165.381 16.9427 164.912 17.1266C163.638 17.6262 163.588 17.137 164.727 15.3174C165.626 13.8822 166.246 12.1976 167.361 8.15673C167.981 5.91316 166.828 7.60528 165.04 11.5642C163.974 13.926 162.459 17.2416 161.674 18.9313C160.669 21.0925 160.267 22.0293 160.392 22.1111ZM186.791 24.853C187.909 25.4578 189.11 25.6978 190.068 25.4232C191.102 25.1269 191.154 24.7041 190.155 24.7244C187.915 24.77 185.453 23.1745 184.13 20.8187C183.792 20.2167 183.446 19.7467 183.362 19.7744C182.981 19.8992 183.636 21.6914 184.485 22.8499C185.102 23.6911 185.921 24.3825 186.791 24.853L186.791 24.853ZM185.874 8.08578C186.094 8.21131 186.286 8.24573 186.452 8.19114C186.966 8.02269 186.847 7.72538 186.021 7.10535C185.403 6.64178 184.954 5.89102 184.416 4.41664C183.702 2.46458 183.149 1.55195 182.757 1.68064C182.658 1.71316 182.879 2.31122 183.249 3.00938C183.618 3.70753 184.088 4.87199 184.292 5.59698C184.497 6.322 184.874 7.1492 185.131 7.4355C185.407 7.74377 185.655 7.96031 185.874 8.08585L185.874 8.08578Z" fill="#F2F2EC"/>
</g>
<g clip-path="url(#clip1_215_278)">
<path d="M12.0575 40.7727C11.2959 40.3761 10.5446 39.485 10.1785 38.2947C10.0297 37.8109 9.13999 37.2973 8.3511 37.2401C7.04731 37.1457 4.52891 36.498 4.03554 36.13C-4.56438 29.7153 1.48046 20.4745 13.6889 21.3728L14.0572 21.4L13.6846 20.9586C13.2363 20.4276 13.043 20.3576 10.6173 19.8459C8.29107 19.3551 7.67883 19.0681 6.91293 18.1094C5.94802 16.9017 5.63893 16.6201 5.21813 16.5663C4.67201 16.4965 4.03629 16.8466 3.7934 17.3508C3.55915 17.8371 3.36368 17.9095 3.27942 17.541C2.95296 16.1135 4.94539 15.6005 7.04122 16.5726C7.66521 16.862 8.3847 17.1958 8.63997 17.3141L9.10396 17.529L9.2734 17.0132C9.50337 16.3127 10.0237 15.8818 10.4071 16.0742C10.6623 16.2023 10.6676 16.2741 10.4529 16.689C10.2142 17.1504 10.2197 17.1693 10.7662 17.7568C11.0722 18.0857 11.4137 18.5667 11.525 18.8259C11.7685 19.3929 12.1108 19.7063 12.6494 19.8553C13.1459 19.9926 14.0654 20.7163 14.4917 21.3055C14.8289 21.7715 16.0549 22.1953 17.8917 22.4804C19.2383 22.6894 22.3478 23.7332 26.138 25.2491C27.4689 25.7815 28.0017 25.9337 28.0704 25.801C28.1089 25.7267 27.8888 25.5966 27.4895 25.4578C26.2495 25.0268 22.3952 21.8725 21.9222 20.9015C21.7239 20.4945 20.9294 20.02 20.4243 20.007C19.2394 19.9763 19.5 19.1035 20.7231 19.0065L21.518 18.9435L21.0559 17.6981C20.8019 17.0132 20.5864 16.3629 20.5769 16.2529C20.5054 15.4195 19.3663 14.485 18.6572 14.6782C17.8346 14.9024 17.6835 14.9103 17.5247 14.7367C17.1638 14.3421 17.9572 13.9766 18.9359 14.0867L18.9362 14.0868C20.4991 14.2625 22.2518 15.8012 23.1975 17.8281C23.6074 18.7066 23.784 18.8502 24.1484 18.6004C24.8137 18.1443 25.7738 19.8467 25.7743 21.4836C25.7749 23.4447 26.2866 24.4928 27.5548 25.1291C28.0386 25.3718 28.46 25.6477 28.4912 25.7423C28.5792 26.0091 32.0002 27.0699 32.4198 26.9605C32.7291 26.8798 32.184 26.2239 31.6884 26.0805C31.0763 25.9034 30.5615 25.2191 30.1389 24.0207C29.6814 22.7234 29.3104 22.323 28.6206 22.3823C28.2203 22.4166 28.1354 22.171 28.5064 22.0523C30.0091 21.5716 31.5773 23.1246 32.6358 26.1413C33.0154 27.223 33.0386 27.2377 34.4498 27.2965C34.6414 27.3045 34.7719 27.3108 34.892 27.3178C34.895 27.3166 34.8973 27.3188 34.9003 27.3182C35.0155 27.325 35.1152 27.333 35.1764 27.3431C35.7327 27.3958 36.3526 27.4991 36.8673 27.648C38.3207 28.0685 39.4921 26.2126 39.1116 24.0924C38.81 22.4116 40.353 21.0151 42.0063 21.4724C42.5741 21.6294 42.4064 21.919 41.761 21.8959C41.0314 21.8698 40.547 22.842 40.6806 24.065C40.825 25.3861 39.8572 26.9601 38.4574 27.6808L38.0264 27.9029L38.543 28.0666C42.6491 29.3706 46.3754 25.0951 44.7635 20.9291C44.4975 20.2415 44.7235 20.1876 45.6644 20.7142L46.5242 21.1958L47.2157 19.8872C48.5188 17.4211 48.838 17.0312 50.0127 16.4718C50.8695 16.0637 51.2906 15.9907 51.6806 16.1824C52.0886 16.3831 52.1089 16.3432 51.3064 16.9203C50.5051 17.4965 49.9574 18.3906 49.5742 19.7473C49.4265 20.2703 49.1671 20.9658 48.9979 21.2928L48.6903 21.8872L49.1417 21.9737C50.3379 22.2026 50.8377 22.7947 49.8841 22.8533C49.0984 22.9016 48.2298 23.3926 47.3584 24.2806C46.9056 24.7421 46.381 25.2458 46.1927 25.4002C46.0044 25.5545 45.7112 25.848 45.5413 26.0523C45.2443 26.4097 44.7337 26.8179 43.4004 27.764C42.6639 28.2865 41.7521 28.6381 41.2415 28.5962C40.3724 28.525 41.1357 28.8597 43.2557 29.4796C43.4906 29.5483 43.6842 29.4976 43.8345 29.3279C43.984 29.1592 44.282 29.0799 44.7156 29.0934C45.5824 29.1206 45.9245 28.9708 47.1125 28.0449C49.5203 26.1683 50.7818 25.9354 52.4433 27.0607C53.3532 27.677 54.1751 28.7264 54.0054 29.0556C53.8873 29.2846 53.6564 29.1054 53.4928 28.6575C53.0058 27.3248 51.4325 27.2484 49.7618 28.4763C48.6966 29.2593 47.6326 29.5606 46.1229 29.5071C44.5458 29.4511 43.5801 29.8256 44.6618 30.0737C44.8228 30.1106 45.5581 30.3715 46.2957 30.6531C47.7206 31.1971 50.5548 32.0426 51.9271 32.3334C53.3985 32.6451 54.9715 31.7595 55.1917 30.4955C55.3024 29.8606 55.9456 28.5322 56.1932 28.4271C56.3324 28.3681 56.6996 28.0322 57.009 27.6808C57.7755 26.8103 58.1848 26.9418 57.8152 27.9396C57.4049 29.0471 57.5276 29.2068 58.398 28.6989C59.3963 28.1163 61.7675 28.0612 62.578 28.6017C63.0586 28.9223 62.8408 29.0714 62.1304 28.9081C61.7632 28.8237 61.3234 28.809 61.1531 28.8754C60.3246 29.1982 59.0053 30.0384 58.8426 30.3469C58.6325 30.7454 57.4588 31.4571 56.4196 31.816C54.4886 32.4828 54.1516 32.6165 54.0871 32.7412C53.9748 32.9581 55.3177 33.2714 56.6121 33.3302C57.0231 33.3489 57.7353 33.3849 58.195 33.4102C60.9594 33.5622 64.8489 31.9139 66.4472 29.9132C67.9728 28.0035 68.4553 26.6169 68.149 25.0221C68.0849 24.688 68.062 24.3575 68.0983 24.2875C68.2569 23.981 67.1576 21.7689 66.5746 21.2215C65.5739 20.2817 64.4291 19.7208 62.7828 19.3633C61.1258 19.0036 59.6389 19.8404 58.6749 21.6756L58.068 22.8311L58.2682 23.4788C58.9115 25.5586 61.749 26.5071 62.5716 24.9173C63.0827 23.9296 62.3299 22.6167 61.6446 23.3007C61.4184 23.5266 61.0638 23.3972 61.198 23.1378C61.6514 22.2616 63.2911 23.1418 63.475 24.3602C63.5569 24.9027 62.8413 26.0835 62.3257 26.2565C62.2318 26.288 62.1099 26.4008 62.055 26.5069C61.5925 27.4006 58.5808 26.8965 57.7817 25.7917C55.9466 23.2544 56.9342 20.7092 60.3917 19.0649C61.0054 18.773 62.8414 18.7661 63.4144 19.0536C64.2135 19.4545 65.2657 19.6588 64.9886 19.3592C64.4189 18.7433 61.5584 18.1372 60.1301 18.3296C58.5371 18.5442 57.4628 17.9263 56.8875 16.465C56.3926 15.2076 55.8138 14.6919 55.3546 15.0991C55.0736 15.3483 54.818 15.0707 55.0017 14.7159C55.8166 13.1411 58.0893 14.3248 58.8214 16.7054C58.9702 17.1892 59.8601 17.7026 60.649 17.7597C61.9528 17.8541 64.471 18.5021 64.9644 18.8701C73.5643 25.2848 67.5196 34.5254 55.3112 33.6271L54.9428 33.6001L55.3154 34.0415C55.7637 34.5724 55.957 34.6425 58.3827 35.1542C60.7089 35.6449 61.3211 35.932 62.087 36.8906C63.052 38.0984 63.3612 38.3797 63.782 38.4335C64.3281 38.5033 64.9634 38.1533 65.2063 37.6492C65.4406 37.1629 65.6364 37.0904 65.7207 37.4588C66.0471 38.8863 64.0547 39.3993 61.9589 38.4272C61.3349 38.1378 60.6153 37.8042 60.36 37.6859L59.8961 37.4708L59.7267 37.9867C59.4968 38.6871 58.9764 39.118 58.5929 38.9256C58.3378 38.7976 58.3323 38.726 58.547 38.3111C58.7858 37.8497 58.7802 37.8308 58.2337 37.2433C57.9277 36.9144 57.5864 36.4331 57.4751 36.1739C57.2316 35.6069 56.8893 35.2935 56.3507 35.1445C55.8542 35.0072 54.9347 34.2835 54.5084 33.6943C54.1712 33.2283 52.945 32.8047 51.1083 32.5197C49.7617 32.3107 46.6523 31.2666 42.8621 29.7507C41.5312 29.2184 40.9982 29.0663 40.9295 29.1991C40.8911 29.2734 41.1109 29.4034 41.5101 29.5421C42.7502 29.9732 46.6047 33.1276 47.0778 34.0985C47.2761 34.5056 48.0705 34.98 48.5756 34.9931C49.7606 35.0238 49.4999 35.8965 48.2769 35.9935L47.4821 36.0564L47.9441 37.3017C48.1981 37.9866 48.4136 38.6372 48.423 38.7472C48.4945 39.5806 49.6338 40.5148 50.3428 40.3216C51.1655 40.0974 51.3164 40.0898 51.4752 40.2634C51.8361 40.658 51.0425 41.0233 50.0637 40.9133C48.5009 40.7376 46.7483 39.1986 45.8026 37.1718C45.3927 36.2932 45.2161 36.1497 44.8517 36.3994C44.1864 36.8555 43.2263 35.1532 43.2258 33.5162C43.2252 31.5551 42.7133 30.5069 41.445 29.8706C40.9613 29.6279 40.5401 29.3521 40.5089 29.2576C40.4209 28.9908 36.9998 27.9302 36.5802 28.0396C36.2709 28.1203 36.816 28.7762 37.3116 28.9196C37.9237 29.0967 38.4385 29.7809 38.8611 30.9794C39.3185 32.2767 39.6895 32.6771 40.3794 32.6178C40.7797 32.5834 40.8647 32.8288 40.4937 32.9475C38.991 33.4283 37.4227 31.8755 36.3641 28.8587C35.9846 27.7771 35.9613 27.7623 34.5502 27.7036C34.3654 27.696 34.242 27.6895 34.124 27.6828C34.1138 27.6823 34.1047 27.6822 34.0945 27.6813C33.9823 27.6746 33.8852 27.6667 33.8248 27.6567C33.2683 27.6041 32.6479 27.5007 32.1328 27.3516C30.6794 26.9311 29.508 28.7871 29.8885 30.9073C30.1901 32.588 28.6471 33.9845 26.9938 33.5272C26.426 33.3702 26.5937 33.0806 27.2391 33.1037C27.9687 33.1298 28.4531 32.1576 28.3195 30.9347C28.1751 29.6135 29.1425 28.0397 30.5423 27.319L30.9736 27.097L30.4571 26.933C26.351 25.629 22.6247 29.9045 24.2366 34.0705C24.5026 34.7581 24.2766 34.8121 23.3357 34.2854L22.4758 33.8041L21.7843 35.1126C20.4812 37.5788 20.1621 37.9684 18.9874 38.5278C18.1306 38.9359 17.7095 39.0089 17.3195 38.8172C16.9115 38.6166 16.8912 38.6564 17.6937 38.0793C18.495 37.5031 19.0427 36.609 19.4259 35.2523C19.5736 34.7293 19.8329 34.034 20.0021 33.707L20.3098 33.1124L19.8583 33.0261C18.662 32.7973 18.1624 32.2049 19.116 32.1464C19.9017 32.0981 20.7702 31.6073 21.6416 30.7193C22.0944 30.2578 22.6191 29.7538 22.8074 29.5995C22.9957 29.4451 23.2889 29.1517 23.4588 28.9473C23.7558 28.5899 24.2664 28.1817 25.5998 27.2357C26.3362 26.7132 27.248 26.3616 27.7586 26.4034C28.6277 26.4747 27.8644 26.1399 25.7444 25.52C25.5096 25.4513 25.3159 25.502 25.1656 25.6717C25.0161 25.8404 24.7181 25.9198 24.2845 25.9062C23.4177 25.879 23.0756 26.0288 21.8876 26.9547C19.4798 28.8313 18.2182 29.0644 16.5566 27.9391C15.6468 27.3229 14.8251 26.2732 14.9947 25.944C15.1128 25.7151 15.3436 25.8944 15.5072 26.3423C15.9942 27.6751 17.5675 27.7515 19.2382 26.5235C20.3034 25.7406 21.3675 25.439 22.8772 25.4925C24.4543 25.5485 25.42 25.1741 24.3383 24.9259C24.1773 24.889 23.4419 24.6284 22.7043 24.3468C21.2794 23.8028 18.4453 22.957 17.073 22.6662C15.6016 22.3545 14.0286 23.2401 13.8084 24.5041C13.6977 25.139 13.0544 26.4677 12.8068 26.5727C12.6676 26.6318 12.3005 26.9674 11.9911 27.3188C11.2246 28.1893 10.8152 28.058 11.1848 27.0603C11.5951 25.9528 11.4725 25.7928 10.6021 26.3007C9.6038 26.8833 7.23258 26.9384 6.4221 26.3979C5.94151 26.0774 6.1593 25.9283 6.86968 26.0915C7.23691 26.1759 7.67668 26.1907 7.84696 26.1243C8.67554 25.8014 9.99486 24.9613 10.1575 24.6527C10.3676 24.2542 11.5413 23.5426 12.5805 23.1837C14.5116 22.5168 14.8484 22.3833 14.9129 22.2587C15.0252 22.0417 13.6822 21.7285 12.3879 21.6697C11.9769 21.651 11.2647 21.615 10.805 21.5897C8.04059 21.4377 4.1512 23.0858 2.55293 25.0865C1.02731 26.9962 0.544794 28.3829 0.851072 29.9777C0.915224 30.3117 0.937926 30.6424 0.901661 30.7125C0.743046 31.0191 1.84246 33.2309 2.42546 33.7783C3.42622 34.7181 4.57096 35.279 6.21728 35.6364C7.87434 35.9962 9.36103 35.1596 10.3251 33.3245L10.9321 32.1687L10.7317 31.5213C10.0884 29.4414 7.251 28.4929 6.42835 30.0827C5.91723 31.0704 6.67005 32.3834 7.35533 31.6993C7.58159 31.4735 7.9363 31.6026 7.80208 31.862C7.34866 32.7382 5.70902 31.8579 5.52513 30.6396C5.44324 30.0971 6.15881 28.9163 6.67436 28.7433C6.76835 28.7117 6.89011 28.5992 6.94499 28.4931C7.40746 27.5994 10.4192 28.1035 11.2183 29.2084C13.0533 31.7457 12.0658 34.2908 8.60828 35.9352C7.99458 36.2271 6.1587 36.2337 5.58568 35.9462C4.78656 35.5453 3.73443 35.3411 4.01151 35.6406C4.58117 36.2566 7.44158 36.8629 8.86991 36.6705C10.4629 36.4559 11.5372 37.0737 12.1125 38.5351C12.6074 39.7925 13.1861 40.3081 13.6453 39.901C13.9263 39.6518 14.1821 39.9291 13.9984 40.284C13.591 41.0714 12.8191 41.1694 12.0575 40.7727V40.7727ZM11.5867 40.1565C11.6294 40.1806 11.6693 40.1867 11.7063 40.1748C11.7562 40.1588 11.6447 39.8655 11.4586 39.5228C11.2725 39.18 11.036 38.6084 10.933 38.2525C10.8301 37.8966 10.6399 37.4901 10.5105 37.3496C10.232 37.0469 10.0132 36.925 9.8452 36.9787C9.58671 37.0614 9.64629 37.2074 10.0627 37.5118C10.374 37.7393 10.5998 38.1079 10.8711 38.8317C11.1629 39.6103 11.4015 40.0522 11.5867 40.1565V40.1565ZM19.3963 37.4846C19.5004 37.5417 19.9823 36.7197 20.6294 35.3229C21.1666 34.1634 21.9294 32.536 22.3249 31.7065C23.1342 30.009 23.1673 29.8498 22.5784 30.4873C21.5234 31.6295 21.2146 31.8691 20.3626 32.205C19.4602 32.5608 19.458 32.5626 19.8605 32.6593C20.0828 32.7128 20.458 32.6825 20.6941 32.5922C21.3357 32.3469 21.3608 32.5871 20.7871 33.4804C20.3346 34.1849 20.0224 35.0119 19.4604 36.9956C19.3727 37.3054 19.3556 37.4623 19.3963 37.4846L19.3963 37.4846ZM11.3798 31.2863C11.3889 31.2919 11.3965 31.294 11.4018 31.2923C11.5934 31.231 11.2636 30.3512 10.8361 29.7825C10.1264 28.8387 8.88212 28.2799 8.02406 28.5195C7.50342 28.665 7.47714 28.8723 7.98053 28.8623C9.10877 28.8399 10.3483 29.6234 11.0147 30.7799C11.1637 31.0385 11.3156 31.2472 11.3798 31.2863L11.3798 31.2863ZM8.91366 26.2696C8.93765 26.2851 8.98633 26.2944 9.0555 26.3016C9.62165 26.3602 11.6186 25.046 12.5338 24.0127C13.1713 23.2928 11.8473 23.7707 10.8828 24.6086C10.4851 24.9541 10.1267 25.3007 10.0861 25.379C10.0456 25.4574 9.76549 25.6661 9.46374 25.8427C8.99039 26.1199 8.84168 26.2232 8.91365 26.2696L8.91366 26.2696ZM17.5689 28.0929C18.2221 28.4391 19.6858 27.9898 20.9104 27.0671C21.2735 26.7936 21.6705 26.5025 21.7928 26.42C21.9151 26.3375 22.0572 26.1886 22.1087 26.089C22.4589 25.4124 20.0076 26.3618 19.3412 27.1609C19.0836 27.4698 18.1423 27.8658 17.5709 27.9056C17.2741 27.9263 17.274 27.9366 17.5689 28.0929H17.5689ZM48.1853 39.5501C48.3017 39.6269 48.273 39.4097 48.0697 38.8799C47.9025 38.444 47.6291 37.7138 47.4621 37.2572C47.1148 36.3083 46.7515 35.493 46.612 35.3496C46.333 35.063 46.6905 35.0476 47.0764 35.3297C47.5124 35.6484 48.096 35.7464 48.213 35.5203C48.2459 35.4568 48.1175 35.3268 47.9277 35.2316C47.5129 35.0235 46.9231 34.458 46.0021 33.3857C45.4066 32.6923 44.1797 31.6636 44.2606 31.9255C44.2763 31.9764 44.5389 32.4666 44.8441 33.0149C45.359 33.94 45.5443 34.3461 46.4729 36.5846C46.6608 37.0373 47.0911 37.8802 47.4294 38.4576C47.8074 39.1027 48.069 39.4733 48.1853 39.5501V39.5501ZM8.35378 18.8741C8.69195 19.0555 9.09205 19.1793 9.69287 19.3316C11.1437 19.6993 11.2156 19.6444 10.0578 19.0537C9.53089 18.7849 8.7138 18.3132 8.24212 18.0054C7.77045 17.6975 7.13159 17.2694 6.82239 17.054C6.10946 16.5574 6.14293 16.6493 7.06092 17.7071C7.58631 18.3125 7.91898 18.6408 8.35378 18.8741L8.35378 18.8741ZM38.5497 32.1884C38.7449 32.2636 38.7765 31.9484 38.5293 31.251C38.0808 29.9854 37.8368 29.5665 37.4278 29.3613L37.0547 29.1741L37.3139 29.986C37.4566 30.4325 37.6983 31.024 37.8511 31.3004C38.1469 31.8353 38.3978 32.1299 38.5497 32.1884V32.1884ZM44.8304 35.1031C44.891 35.124 44.939 35.0484 45.0072 34.9167C45.1873 34.5687 44.8426 33.6459 44.1747 32.6869C43.426 31.6119 43.4623 32.1112 44.2705 34.0086C44.5931 34.7659 44.7293 35.0684 44.8304 35.1031ZM24.6598 23.0965C24.7238 23.1274 24.7545 23.1237 24.7394 23.0746C24.7236 23.0237 24.4611 22.5335 24.1559 21.9852C23.641 21.0601 23.4556 20.654 22.527 18.4155C22.3392 17.9627 21.9088 17.1199 21.5705 16.5424C20.8147 15.2522 20.5239 15.0602 20.9303 16.1199C21.0975 16.5558 21.3709 17.286 21.538 17.7426C21.8852 18.6915 22.2486 19.5068 22.3881 19.6502C22.667 19.9369 22.3096 19.9522 21.9237 19.6701C21.4877 19.3514 20.904 19.2537 20.787 19.4798C20.7541 19.5432 20.8826 19.673 21.0724 19.7682C21.4871 19.9763 22.077 20.5418 22.998 21.6142C23.4818 22.1775 24.3825 22.9624 24.6598 23.0965V23.0965ZM25.2974 22.8651C25.4758 22.9396 25.2851 22.2959 24.7294 20.9914C24.2133 19.7798 24.1747 19.7319 23.9929 20.0831C23.8128 20.4311 24.1573 21.3541 24.8252 22.3131C25.0592 22.6491 25.2164 22.8312 25.2974 22.8651ZM31.5723 25.6385L31.9454 25.8257L31.686 25.014C31.5434 24.5676 31.3017 23.976 31.1489 23.6997C30.4728 22.477 30.0312 22.5092 30.4706 23.7491C30.9191 25.0146 31.1633 25.4333 31.5723 25.6385L31.5723 25.6385ZM62.5703 38.2021C62.8186 38.3362 62.6275 38.0863 61.939 37.293C61.005 36.2167 60.6805 36.0163 59.3072 35.6682C57.8564 35.3005 57.7845 35.3554 58.9423 35.9461C59.4692 36.2149 60.2862 36.6869 60.7578 36.9947C61.2295 37.3025 61.8684 37.7307 62.1776 37.9461C62.3558 38.0702 62.4875 38.1574 62.5703 38.2021ZM46.9149 29.1159C47.2637 29.2947 49.0965 28.5134 49.6588 27.8392C49.9163 27.5302 50.8577 27.1342 51.4291 27.0944C51.7258 27.0737 51.726 27.0635 51.4311 26.9071C50.778 26.5609 49.3144 27.01 48.0897 27.9327C47.7267 28.2062 47.3295 28.4976 47.2072 28.58C47.0849 28.6625 46.9428 28.8115 46.8913 28.911C46.8366 29.0168 46.8504 29.0828 46.915 29.1159H46.9149ZM56.342 31.329C56.5449 31.4098 57.4239 30.9937 58.1172 30.3915C58.5148 30.046 58.8734 29.6992 58.914 29.6208C58.9545 29.5425 59.2346 29.3338 59.5363 29.1571C60.1675 28.7876 60.2213 28.7269 59.9446 28.6983C59.3784 28.6396 57.3815 29.9538 56.4663 30.9872C56.287 31.1896 56.2626 31.2973 56.342 31.329L56.342 31.329ZM46.0295 24.8546C46.0673 24.8787 46.2008 24.7516 46.4216 24.5125C47.4767 23.3704 47.7854 23.131 48.6373 22.7951C49.5397 22.4393 49.542 22.4374 49.1395 22.3407C48.9172 22.2873 48.5421 22.3173 48.306 22.4076C47.6644 22.6529 47.6393 22.4127 48.213 21.5194C48.6655 20.8149 48.9777 19.9879 49.5397 18.0042C49.8517 16.9028 49.271 17.7335 48.3707 19.677C47.8335 20.8364 47.0706 22.4641 46.6751 23.2936C46.1693 24.3545 45.9666 24.8144 46.0295 24.8546ZM59.3254 26.2005C59.8885 26.4975 60.4933 26.6153 60.9759 26.4805C61.4966 26.335 61.523 26.1274 61.0196 26.1374C59.8913 26.1598 58.6517 25.3766 57.9853 24.2201C57.815 23.9246 57.6408 23.6938 57.5982 23.7074C57.4067 23.7687 57.7364 24.6485 58.164 25.2172C58.4745 25.6302 58.8873 25.9696 59.3253 26.2005L59.3254 26.2005ZM58.8636 17.9694C58.9741 18.031 59.0709 18.0479 59.1549 18.0211C59.4134 17.9384 59.3538 17.7925 58.9374 17.4881C58.6261 17.2605 58.4003 16.892 58.129 16.1682C57.7698 15.2099 57.4913 14.7619 57.2938 14.825C57.2439 14.841 57.3552 15.1346 57.5413 15.4773C57.7274 15.8201 57.9639 16.3917 58.0669 16.7476C58.1699 17.1035 58.3599 17.5096 58.4893 17.6502C58.6286 17.8015 58.7531 17.9078 58.8636 17.9694L58.8636 17.9694Z" fill="#F2F2EC"/>
</g>
<g clip-path="url(#clip2_215_278)">
<path d="M218.058 40.7727C217.296 40.3761 216.545 39.485 216.179 38.2947C216.03 37.8109 215.14 37.2973 214.351 37.2401C213.047 37.1457 210.529 36.498 210.036 36.13C201.436 29.7153 207.48 20.4745 219.689 21.3728L220.057 21.4L219.685 20.9586C219.236 20.4276 219.043 20.3576 216.617 19.8459C214.291 19.3551 213.679 19.0681 212.913 18.1094C211.948 16.9017 211.639 16.6201 211.218 16.5663C210.672 16.4965 210.036 16.8466 209.793 17.3508C209.559 17.8371 209.364 17.9095 209.279 17.541C208.953 16.1135 210.945 15.6005 213.041 16.5726C213.665 16.862 214.385 17.1958 214.64 17.3141L215.104 17.529L215.273 17.0132C215.503 16.3127 216.024 15.8818 216.407 16.0742C216.662 16.2023 216.668 16.2741 216.453 16.689C216.214 17.1504 216.22 17.1693 216.766 17.7568C217.072 18.0857 217.414 18.5667 217.525 18.8259C217.769 19.3929 218.111 19.7063 218.649 19.8553C219.146 19.9926 220.065 20.7163 220.492 21.3055C220.829 21.7715 222.055 22.1953 223.892 22.4804C225.238 22.6894 228.348 23.7332 232.138 25.2491C233.469 25.7815 234.002 25.9337 234.07 25.801C234.109 25.7267 233.889 25.5966 233.49 25.4578C232.25 25.0268 228.395 21.8725 227.922 20.9015C227.724 20.4945 226.929 20.02 226.424 20.007C225.239 19.9763 225.5 19.1035 226.723 19.0065L227.518 18.9435L227.056 17.6981C226.802 17.0132 226.586 16.3629 226.577 16.2529C226.505 15.4195 225.366 14.485 224.657 14.6782C223.835 14.9024 223.684 14.9103 223.525 14.7367C223.164 14.3421 223.957 13.9766 224.936 14.0867L224.936 14.0868C226.499 14.2625 228.252 15.8012 229.197 17.8281C229.607 18.7066 229.784 18.8502 230.148 18.6004C230.814 18.1443 231.774 19.8467 231.774 21.4836C231.775 23.4447 232.287 24.4928 233.555 25.1291C234.039 25.3718 234.46 25.6477 234.491 25.7423C234.579 26.0091 238 27.0699 238.42 26.9605C238.729 26.8798 238.184 26.2239 237.688 26.0805C237.076 25.9034 236.561 25.2191 236.139 24.0207C235.681 22.7234 235.31 22.323 234.621 22.3823C234.22 22.4166 234.135 22.171 234.506 22.0523C236.009 21.5716 237.577 23.1246 238.636 26.1413C239.015 27.223 239.039 27.2377 240.45 27.2965C240.641 27.3045 240.772 27.3108 240.892 27.3178C240.895 27.3166 240.897 27.3188 240.9 27.3182C241.015 27.325 241.115 27.333 241.176 27.3431C241.733 27.3958 242.353 27.4991 242.867 27.648C244.321 28.0685 245.492 26.2126 245.112 24.0924C244.81 22.4116 246.353 21.0151 248.006 21.4724C248.574 21.6294 248.406 21.919 247.761 21.8959C247.031 21.8698 246.547 22.842 246.681 24.065C246.825 25.3861 245.857 26.9601 244.457 27.6808L244.026 27.9029L244.543 28.0666C248.649 29.3706 252.375 25.0951 250.764 20.9291C250.498 20.2415 250.723 20.1876 251.664 20.7142L252.524 21.1958L253.216 19.8872C254.519 17.4211 254.838 17.0312 256.013 16.4718C256.87 16.0637 257.291 15.9907 257.681 16.1824C258.089 16.3831 258.109 16.3432 257.306 16.9203C256.505 17.4965 255.957 18.3906 255.574 19.7473C255.427 20.2703 255.167 20.9658 254.998 21.2928L254.69 21.8872L255.142 21.9737C256.338 22.2026 256.838 22.7947 255.884 22.8533C255.098 22.9016 254.23 23.3926 253.358 24.2806C252.906 24.7421 252.381 25.2458 252.193 25.4002C252.004 25.5545 251.711 25.848 251.541 26.0523C251.244 26.4097 250.734 26.8179 249.4 27.764C248.664 28.2865 247.752 28.6381 247.242 28.5962C246.372 28.525 247.136 28.8597 249.256 29.4796C249.491 29.5483 249.684 29.4976 249.835 29.3279C249.984 29.1592 250.282 29.0799 250.716 29.0934C251.582 29.1206 251.925 28.9708 253.113 28.0449C255.52 26.1683 256.782 25.9354 258.443 27.0607C259.353 27.677 260.175 28.7264 260.005 29.0556C259.887 29.2846 259.656 29.1054 259.493 28.6575C259.006 27.3248 257.432 27.2484 255.762 28.4763C254.697 29.2593 253.633 29.5606 252.123 29.5071C250.546 29.4511 249.58 29.8256 250.662 30.0737C250.823 30.1106 251.558 30.3715 252.296 30.6531C253.721 31.1971 256.555 32.0426 257.927 32.3334C259.399 32.6451 260.971 31.7595 261.192 30.4955C261.302 29.8606 261.946 28.5322 262.193 28.4271C262.332 28.3681 262.7 28.0322 263.009 27.6808C263.776 26.8103 264.185 26.9418 263.815 27.9396C263.405 29.0471 263.528 29.2068 264.398 28.6989C265.396 28.1163 267.768 28.0612 268.578 28.6017C269.059 28.9223 268.841 29.0714 268.13 28.9081C267.763 28.8237 267.323 28.809 267.153 28.8754C266.325 29.1982 265.005 30.0384 264.843 30.3469C264.633 30.7454 263.459 31.4571 262.42 31.816C260.489 32.4828 260.152 32.6165 260.087 32.7412C259.975 32.9581 261.318 33.2714 262.612 33.3302C263.023 33.3489 263.735 33.3849 264.195 33.4102C266.959 33.5622 270.849 31.9139 272.447 29.9132C273.973 28.0035 274.455 26.6169 274.149 25.0221C274.085 24.688 274.062 24.3575 274.098 24.2875C274.257 23.981 273.158 21.7689 272.575 21.2215C271.574 20.2817 270.429 19.7208 268.783 19.3633C267.126 19.0036 265.639 19.8404 264.675 21.6756L264.068 22.8311L264.268 23.4788C264.912 25.5586 267.749 26.5071 268.572 24.9173C269.083 23.9296 268.33 22.6167 267.645 23.3007C267.418 23.5266 267.064 23.3972 267.198 23.1378C267.651 22.2616 269.291 23.1418 269.475 24.3602C269.557 24.9027 268.841 26.0835 268.326 26.2565C268.232 26.288 268.11 26.4008 268.055 26.5069C267.593 27.4006 264.581 26.8965 263.782 25.7917C261.947 23.2544 262.934 20.7092 266.392 19.0649C267.005 18.773 268.841 18.7661 269.414 19.0536C270.214 19.4545 271.266 19.6588 270.989 19.3592C270.419 18.7433 267.558 18.1372 266.13 18.3296C264.537 18.5442 263.463 17.9263 262.888 16.465C262.393 15.2076 261.814 14.6919 261.355 15.0991C261.074 15.3483 260.818 15.0707 261.002 14.7159C261.817 13.1411 264.089 14.3248 264.821 16.7054C264.97 17.1892 265.86 17.7026 266.649 17.7597C267.953 17.8541 270.471 18.5021 270.964 18.8701C279.564 25.2848 273.52 34.5254 261.311 33.6271L260.943 33.6001L261.315 34.0415C261.764 34.5724 261.957 34.6425 264.383 35.1542C266.709 35.6449 267.321 35.932 268.087 36.8906C269.052 38.0984 269.361 38.3797 269.782 38.4335C270.328 38.5033 270.963 38.1533 271.206 37.6492C271.441 37.1629 271.636 37.0904 271.721 37.4588C272.047 38.8863 270.055 39.3993 267.959 38.4272C267.335 38.1378 266.615 37.8042 266.36 37.6859L265.896 37.4708L265.727 37.9867C265.497 38.6871 264.976 39.118 264.593 38.9256C264.338 38.7976 264.332 38.726 264.547 38.3111C264.786 37.8497 264.78 37.8308 264.234 37.2433C263.928 36.9144 263.586 36.4331 263.475 36.1739C263.232 35.6069 262.889 35.2935 262.351 35.1445C261.854 35.0072 260.935 34.2835 260.508 33.6943C260.171 33.2283 258.945 32.8047 257.108 32.5197C255.762 32.3107 252.652 31.2666 248.862 29.7507C247.531 29.2184 246.998 29.0663 246.93 29.1991C246.891 29.2734 247.111 29.4034 247.51 29.5421C248.75 29.9732 252.605 33.1276 253.078 34.0985C253.276 34.5056 254.071 34.98 254.576 34.9931C255.761 35.0238 255.5 35.8965 254.277 35.9935L253.482 36.0564L253.944 37.3017C254.198 37.9866 254.414 38.6372 254.423 38.7472C254.495 39.5806 255.634 40.5148 256.343 40.3216C257.166 40.0974 257.316 40.0898 257.475 40.2634C257.836 40.658 257.042 41.0233 256.064 40.9133C254.501 40.7376 252.748 39.1986 251.803 37.1718C251.393 36.2932 251.216 36.1497 250.852 36.3994C250.186 36.8555 249.226 35.1532 249.226 33.5162C249.225 31.5551 248.713 30.5069 247.445 29.8706C246.961 29.6279 246.54 29.3521 246.509 29.2576C246.421 28.9908 243 27.9302 242.58 28.0396C242.271 28.1203 242.816 28.7762 243.312 28.9196C243.924 29.0967 244.438 29.7809 244.861 30.9794C245.319 32.2767 245.69 32.6771 246.379 32.6178C246.78 32.5834 246.865 32.8288 246.494 32.9475C244.991 33.4283 243.423 31.8755 242.364 28.8587C241.985 27.7771 241.961 27.7623 240.55 27.7036C240.365 27.696 240.242 27.6895 240.124 27.6828C240.114 27.6823 240.105 27.6822 240.094 27.6813C239.982 27.6746 239.885 27.6667 239.825 27.6567C239.268 27.6041 238.648 27.5007 238.133 27.3516C236.679 26.9311 235.508 28.7871 235.888 30.9073C236.19 32.588 234.647 33.9845 232.994 33.5272C232.426 33.3702 232.594 33.0806 233.239 33.1037C233.969 33.1298 234.453 32.1576 234.319 30.9347C234.175 29.6135 235.143 28.0397 236.542 27.319L236.974 27.097L236.457 26.933C232.351 25.629 228.625 29.9045 230.237 34.0705C230.503 34.7581 230.277 34.8121 229.336 34.2854L228.476 33.8041L227.784 35.1126C226.481 37.5788 226.162 37.9684 224.987 38.5278C224.131 38.9359 223.709 39.0089 223.32 38.8172C222.911 38.6166 222.891 38.6564 223.694 38.0793C224.495 37.5031 225.043 36.609 225.426 35.2523C225.574 34.7293 225.833 34.034 226.002 33.707L226.31 33.1124L225.858 33.0261C224.662 32.7973 224.162 32.2049 225.116 32.1464C225.902 32.0981 226.77 31.6073 227.642 30.7193C228.094 30.2578 228.619 29.7538 228.807 29.5995C228.996 29.4451 229.289 29.1517 229.459 28.9473C229.756 28.5899 230.266 28.1817 231.6 27.2357C232.336 26.7132 233.248 26.3616 233.759 26.4034C234.628 26.4747 233.864 26.1399 231.744 25.52C231.51 25.4513 231.316 25.502 231.166 25.6717C231.016 25.8404 230.718 25.9198 230.285 25.9062C229.418 25.879 229.076 26.0288 227.888 26.9547C225.48 28.8313 224.218 29.0644 222.557 27.9391C221.647 27.3229 220.825 26.2732 220.995 25.944C221.113 25.7151 221.344 25.8944 221.507 26.3423C221.994 27.6751 223.568 27.7515 225.238 26.5235C226.303 25.7406 227.367 25.439 228.877 25.4925C230.454 25.5485 231.42 25.1741 230.338 24.9259C230.177 24.889 229.442 24.6284 228.704 24.3468C227.279 23.8028 224.445 22.957 223.073 22.6662C221.602 22.3545 220.029 23.2401 219.808 24.5041C219.698 25.139 219.054 26.4677 218.807 26.5727C218.668 26.6318 218.301 26.9674 217.991 27.3188C217.225 28.1893 216.815 28.058 217.185 27.0603C217.595 25.9528 217.472 25.7928 216.602 26.3007C215.604 26.8833 213.233 26.9384 212.422 26.3979C211.942 26.0774 212.159 25.9283 212.87 26.0915C213.237 26.1759 213.677 26.1907 213.847 26.1243C214.676 25.8014 215.995 24.9613 216.158 24.6527C216.368 24.2542 217.541 23.5426 218.581 23.1837C220.512 22.5168 220.848 22.3833 220.913 22.2587C221.025 22.0417 219.682 21.7285 218.388 21.6697C217.977 21.651 217.265 21.615 216.805 21.5897C214.041 21.4377 210.151 23.0858 208.553 25.0865C207.027 26.9962 206.545 28.3829 206.851 29.9777C206.915 30.3117 206.938 30.6424 206.902 30.7125C206.743 31.0191 207.842 33.2309 208.425 33.7783C209.426 34.7181 210.571 35.279 212.217 35.6364C213.874 35.9962 215.361 35.1596 216.325 33.3245L216.932 32.1687L216.732 31.5213C216.088 29.4414 213.251 28.4929 212.428 30.0827C211.917 31.0704 212.67 32.3834 213.355 31.6993C213.582 31.4735 213.936 31.6026 213.802 31.862C213.349 32.7382 211.709 31.8579 211.525 30.6396C211.443 30.0971 212.159 28.9163 212.674 28.7433C212.768 28.7117 212.89 28.5992 212.945 28.4931C213.407 27.5994 216.419 28.1035 217.218 29.2084C219.053 31.7457 218.066 34.2908 214.608 35.9352C213.995 36.2271 212.159 36.2337 211.586 35.9462C210.787 35.5453 209.734 35.3411 210.012 35.6406C210.581 36.2566 213.442 36.8629 214.87 36.6705C216.463 36.4559 217.537 37.0737 218.112 38.5351C218.607 39.7925 219.186 40.3081 219.645 39.901C219.926 39.6518 220.182 39.9291 219.998 40.284C219.591 41.0714 218.819 41.1694 218.058 40.7727V40.7727ZM217.587 40.1565C217.629 40.1806 217.669 40.1867 217.706 40.1748C217.756 40.1588 217.645 39.8655 217.459 39.5228C217.273 39.18 217.036 38.6084 216.933 38.2525C216.83 37.8966 216.64 37.4901 216.511 37.3496C216.232 37.0469 216.013 36.925 215.845 36.9787C215.587 37.0614 215.646 37.2074 216.063 37.5118C216.374 37.7393 216.6 38.1079 216.871 38.8317C217.163 39.6103 217.402 40.0522 217.587 40.1565V40.1565ZM225.396 37.4846C225.5 37.5417 225.982 36.7197 226.629 35.3229C227.167 34.1634 227.929 32.536 228.325 31.7065C229.134 30.009 229.167 29.8498 228.578 30.4873C227.523 31.6295 227.215 31.8691 226.363 32.205C225.46 32.5608 225.458 32.5626 225.86 32.6593C226.083 32.7128 226.458 32.6825 226.694 32.5922C227.336 32.3469 227.361 32.5871 226.787 33.4804C226.335 34.1849 226.022 35.0119 225.46 36.9956C225.373 37.3054 225.356 37.4623 225.396 37.4846L225.396 37.4846ZM217.38 31.2863C217.389 31.2919 217.397 31.294 217.402 31.2923C217.593 31.231 217.264 30.3512 216.836 29.7825C216.126 28.8387 214.882 28.2799 214.024 28.5195C213.503 28.665 213.477 28.8723 213.981 28.8623C215.109 28.8399 216.348 29.6234 217.015 30.7799C217.164 31.0385 217.316 31.2472 217.38 31.2863L217.38 31.2863ZM214.914 26.2696C214.938 26.2851 214.986 26.2944 215.056 26.3016C215.622 26.3602 217.619 25.046 218.534 24.0127C219.171 23.2928 217.847 23.7707 216.883 24.6086C216.485 24.9541 216.127 25.3007 216.086 25.379C216.046 25.4574 215.765 25.6661 215.464 25.8427C214.99 26.1199 214.842 26.2232 214.914 26.2696L214.914 26.2696ZM223.569 28.0929C224.222 28.4391 225.686 27.9898 226.91 27.0671C227.273 26.7936 227.67 26.5025 227.793 26.42C227.915 26.3375 228.057 26.1886 228.109 26.089C228.459 25.4124 226.008 26.3618 225.341 27.1609C225.084 27.4698 224.142 27.8658 223.571 27.9056C223.274 27.9263 223.274 27.9366 223.569 28.0929H223.569ZM254.185 39.5501C254.302 39.6269 254.273 39.4097 254.07 38.8799C253.903 38.444 253.629 37.7138 253.462 37.2572C253.115 36.3083 252.751 35.493 252.612 35.3496C252.333 35.063 252.69 35.0476 253.076 35.3297C253.512 35.6484 254.096 35.7464 254.213 35.5203C254.246 35.4568 254.117 35.3268 253.928 35.2316C253.513 35.0235 252.923 34.458 252.002 33.3857C251.407 32.6923 250.18 31.6636 250.261 31.9255C250.276 31.9764 250.539 32.4666 250.844 33.0149C251.359 33.94 251.544 34.3461 252.473 36.5846C252.661 37.0373 253.091 37.8802 253.429 38.4576C253.807 39.1027 254.069 39.4733 254.185 39.5501V39.5501ZM214.354 18.8741C214.692 19.0555 215.092 19.1793 215.693 19.3316C217.144 19.6993 217.216 19.6444 216.058 19.0537C215.531 18.7849 214.714 18.3132 214.242 18.0054C213.77 17.6975 213.132 17.2694 212.822 17.054C212.109 16.5574 212.143 16.6493 213.061 17.7071C213.586 18.3125 213.919 18.6408 214.354 18.8741L214.354 18.8741ZM244.55 32.1884C244.745 32.2636 244.777 31.9484 244.529 31.251C244.081 29.9854 243.837 29.5665 243.428 29.3613L243.055 29.1741L243.314 29.986C243.457 30.4325 243.698 31.024 243.851 31.3004C244.147 31.8353 244.398 32.1299 244.55 32.1884V32.1884ZM250.83 35.1031C250.891 35.124 250.939 35.0484 251.007 34.9167C251.187 34.5687 250.843 33.6459 250.175 32.6869C249.426 31.6119 249.462 32.1112 250.271 34.0086C250.593 34.7659 250.729 35.0684 250.83 35.1031ZM230.66 23.0965C230.724 23.1274 230.755 23.1237 230.739 23.0746C230.724 23.0237 230.461 22.5335 230.156 21.9852C229.641 21.0601 229.456 20.654 228.527 18.4155C228.339 17.9627 227.909 17.1199 227.571 16.5424C226.815 15.2522 226.524 15.0602 226.93 16.1199C227.098 16.5558 227.371 17.286 227.538 17.7426C227.885 18.6915 228.249 19.5068 228.388 19.6502C228.667 19.9369 228.31 19.9522 227.924 19.6701C227.488 19.3514 226.904 19.2537 226.787 19.4798C226.754 19.5432 226.883 19.673 227.072 19.7682C227.487 19.9763 228.077 20.5418 228.998 21.6142C229.482 22.1775 230.383 22.9624 230.66 23.0965V23.0965ZM231.297 22.8651C231.476 22.9396 231.285 22.2959 230.729 20.9914C230.213 19.7798 230.175 19.7319 229.993 20.0831C229.813 20.4311 230.157 21.3541 230.825 22.3131C231.059 22.6491 231.216 22.8312 231.297 22.8651ZM237.572 25.6385L237.945 25.8257L237.686 25.014C237.543 24.5676 237.302 23.976 237.149 23.6997C236.473 22.477 236.031 22.5092 236.471 23.7491C236.919 25.0146 237.163 25.4333 237.572 25.6385L237.572 25.6385ZM268.57 38.2021C268.819 38.3362 268.628 38.0863 267.939 37.293C267.005 36.2167 266.681 36.0163 265.307 35.6682C263.856 35.3005 263.784 35.3554 264.942 35.9461C265.469 36.2149 266.286 36.6869 266.758 36.9947C267.23 37.3025 267.868 37.7307 268.178 37.9461C268.356 38.0702 268.487 38.1574 268.57 38.2021ZM252.915 29.1159C253.264 29.2947 255.097 28.5134 255.659 27.8392C255.916 27.5302 256.858 27.1342 257.429 27.0944C257.726 27.0737 257.726 27.0635 257.431 26.9071C256.778 26.5609 255.314 27.01 254.09 27.9327C253.727 28.2062 253.33 28.4976 253.207 28.58C253.085 28.6625 252.943 28.8115 252.891 28.911C252.837 29.0168 252.85 29.0828 252.915 29.1159H252.915ZM262.342 31.329C262.545 31.4098 263.424 30.9937 264.117 30.3915C264.515 30.046 264.873 29.6992 264.914 29.6208C264.955 29.5425 265.235 29.3338 265.536 29.1571C266.167 28.7876 266.221 28.7269 265.945 28.6983C265.378 28.6396 263.382 29.9538 262.466 30.9872C262.287 31.1896 262.263 31.2973 262.342 31.329L262.342 31.329ZM252.03 24.8546C252.067 24.8787 252.201 24.7516 252.422 24.5125C253.477 23.3704 253.785 23.131 254.637 22.7951C255.54 22.4393 255.542 22.4374 255.139 22.3407C254.917 22.2873 254.542 22.3173 254.306 22.4076C253.664 22.6529 253.639 22.4127 254.213 21.5194C254.665 20.8149 254.978 19.9879 255.54 18.0042C255.852 16.9028 255.271 17.7335 254.371 19.677C253.834 20.8364 253.071 22.4641 252.675 23.2936C252.169 24.3545 251.967 24.8144 252.03 24.8546ZM265.325 26.2005C265.889 26.4975 266.493 26.6153 266.976 26.4805C267.497 26.335 267.523 26.1274 267.02 26.1374C265.891 26.1598 264.652 25.3766 263.985 24.2201C263.815 23.9246 263.641 23.6938 263.598 23.7074C263.407 23.7687 263.736 24.6485 264.164 25.2172C264.474 25.6302 264.887 25.9696 265.325 26.2005L265.325 26.2005ZM264.864 17.9694C264.974 18.031 265.071 18.0479 265.155 18.0211C265.413 17.9384 265.354 17.7925 264.937 17.4881C264.626 17.2605 264.4 16.892 264.129 16.1682C263.77 15.2099 263.491 14.7619 263.294 14.825C263.244 14.841 263.355 15.1346 263.541 15.4773C263.727 15.8201 263.964 16.3917 264.067 16.7476C264.17 17.1035 264.36 17.5096 264.489 17.6502C264.629 17.8015 264.753 17.9078 264.864 17.9694L264.864 17.9694Z" fill="#F2F2EC"/>
</g>
<defs>
<clipPath id="clip0_215_278">
<rect width="137" height="55" fill="white" transform="matrix(1 0 0 -1 69 55)"/>
</clipPath>
<clipPath id="clip1_215_278">
<rect width="69" height="27" fill="white" transform="matrix(1 0 0 -1 0 41)"/>
</clipPath>
<clipPath id="clip2_215_278">
<rect width="69" height="27" fill="white" transform="matrix(1 0 0 -1 206 41)"/>
</clipPath>
</defs>
</svg>
