<svg width="458" height="458" viewBox="0 0 458 458" fill="none" xmlns="http://www.w3.org/2000/svg">
<path d="M443.333 228.836C446.598 224.574 448.617 219.281 447.3 211.379C441.488 175.635 395.975 181.685 407.424 142.439C395.346 181.613 440.431 176.963 445.453 211.663C446.59 219.76 443.946 224.746 440.052 228.836C443.946 232.926 446.59 237.912 445.453 246.009C440.432 280.709 395.346 276.06 407.424 315.233C395.975 275.987 441.488 282.037 447.3 246.294C448.616 238.392 446.598 233.099 443.333 228.836Z" fill="#7E3F15"/>
<path d="M228.836 443.332C233.098 446.597 238.391 448.616 246.293 447.3C282.037 441.487 275.987 395.974 315.232 407.423C276.058 395.346 280.708 440.431 246.008 445.452C237.911 446.589 232.926 443.945 228.835 440.052C224.745 443.945 219.76 446.589 211.662 445.452C176.962 440.431 181.612 395.346 142.438 407.423C181.684 395.975 175.635 441.488 211.378 447.3C219.28 448.616 224.573 446.597 228.836 443.332Z" fill="#7E3F15"/>
<path d="M14.3386 228.836C11.0734 233.099 9.05482 238.392 10.3712 246.293C16.1836 282.037 61.6967 275.987 50.2475 315.233C62.3251 276.059 17.24 280.709 12.2185 246.009C11.0817 237.912 13.7256 232.926 17.619 228.836C13.7256 224.746 11.082 219.76 12.2185 211.663C17.24 176.963 62.3254 181.613 50.2475 142.439C61.6967 181.685 16.1836 175.635 10.3712 211.379C9.05482 219.28 11.0734 224.574 14.3386 228.836Z" fill="#7E3F15"/>
<path d="M228.836 14.3388C224.573 11.0736 219.28 9.05495 211.379 10.3713C175.635 16.1837 181.685 61.6968 142.439 50.2476C181.613 62.3253 176.963 17.2401 211.663 12.2186C219.76 11.0819 224.746 13.7258 228.836 17.6191C232.926 13.7258 237.912 11.0821 246.009 12.2186C280.709 17.2398 276.059 62.3253 315.233 50.2476C275.987 61.6965 282.036 16.1835 246.293 10.3713C238.391 9.05495 233.098 11.0736 228.836 14.3388Z" fill="#7E3F15"/>
<path d="M193.195 19.5553C192.796 19.6569 192.398 19.749 192.001 19.8319C171.445 39.7091 143.974 22.5016 153.454 6.33777C157.742 -0.972669 167.802 -1.03359 170.477 6.52799C173.412 14.829 164.625 24.4175 156.761 26.4184C144.502 29.5374 137.496 16.8133 144.38 10.5898C147.856 7.44791 152.935 8.33036 155.249 11.8424C151.658 6.26626 142.861 8.12154 141.609 15.3327C139.863 25.3938 154.479 33.3075 166.406 21.0565C178.39 8.75141 167.6 -4.64061 156.966 1.57084C153.468 3.61549 151.155 7.36896 150.788 11.6593C149.379 28.6873 174.999 37.9402 192.898 20.763C193.006 20.3597 193.105 19.9569 193.195 19.5553Z" fill="#7E3F15"/>
<path d="M19.5553 264.477C19.6569 264.876 19.749 265.274 19.8319 265.671C39.7091 286.227 22.5016 313.698 6.33777 304.218C-0.972663 299.93 -1.03359 289.869 6.52799 287.195C14.829 284.259 24.4175 293.046 26.4184 300.911C29.5374 313.169 16.8133 320.175 10.5898 313.291C7.44791 309.816 8.33036 304.736 11.8424 302.422C6.26626 306.013 8.12155 314.81 15.3327 316.062C25.3938 317.808 33.3075 303.193 21.0565 291.266C8.75142 279.282 -4.64061 290.071 1.57084 300.706C3.61549 304.204 7.36896 306.516 11.6593 306.884C28.6873 308.293 37.9402 282.673 20.763 264.773C20.3597 264.666 19.9569 264.567 19.5553 264.477Z" fill="#7E3F15"/>
<path d="M264.477 438.116C264.875 438.015 265.273 437.923 265.67 437.84C286.227 417.963 313.697 435.17 304.217 451.334C299.93 458.644 289.869 458.705 287.194 451.144C284.259 442.843 293.046 433.254 300.91 431.253C313.169 428.134 320.175 440.858 313.291 447.082C309.815 450.224 304.736 449.341 302.422 445.829C306.013 451.406 314.81 449.55 316.062 442.339C317.808 432.278 303.192 424.364 291.265 436.615C279.282 448.92 290.071 462.312 300.705 456.101C304.203 454.056 306.516 450.303 306.883 446.012C308.292 428.984 282.672 419.731 264.773 436.908C264.665 437.312 264.566 437.715 264.477 438.116Z" fill="#7E3F15"/>
<path d="M438.116 193.194C438.015 192.796 437.923 192.398 437.84 192.001C417.962 171.444 435.17 143.974 451.334 153.454C458.644 157.741 458.705 167.802 451.143 170.476C442.842 173.412 433.254 164.625 431.253 156.761C428.134 144.502 440.858 137.496 447.082 144.38C450.224 147.855 449.341 152.935 445.829 155.249C451.405 151.658 449.55 142.861 442.338 141.609C432.277 139.863 424.364 154.479 436.615 166.406C448.92 178.389 462.312 167.6 456.1 156.965C454.056 153.468 450.302 151.155 446.012 150.787C428.984 149.379 419.731 174.999 436.908 192.898C437.312 193.006 437.714 193.105 438.116 193.194Z" fill="#7E3F15"/>
<path d="M264.477 19.5553C264.875 19.6569 265.273 19.749 265.67 19.8319C286.227 39.7091 313.697 22.5016 304.217 6.33777C299.93 -0.972669 289.869 -1.03359 287.194 6.52799C284.259 14.829 293.046 24.4175 300.91 26.4184C313.169 29.5374 320.175 16.8133 313.291 10.5898C309.815 7.44791 304.736 8.33036 302.422 11.8424C306.013 6.26626 314.81 8.12154 316.062 15.3327C317.808 25.3938 303.192 33.3075 291.265 21.0565C279.282 8.75141 290.071 -4.64061 300.705 1.57084C304.203 3.61549 306.516 7.36896 306.883 11.6593C308.292 28.6873 282.672 37.9402 264.773 20.763C264.665 20.3597 264.566 19.9569 264.477 19.5553Z" fill="#7E3F15"/>
<path d="M19.5553 193.195C19.6568 192.796 19.7489 192.398 19.8319 192.001C39.7091 171.445 22.5015 143.974 6.33773 153.454C-0.972705 157.741 -1.03363 167.802 6.52795 170.477C14.829 173.412 24.4175 164.625 26.4183 156.761C29.5374 144.502 16.8133 137.496 10.5898 144.38C7.44787 147.856 8.33032 152.935 11.8424 155.249C6.26622 151.658 8.12179 142.861 15.333 141.609C25.394 139.863 33.3077 154.479 21.0567 166.406C8.75166 178.389 -4.64037 167.6 1.57109 156.965C3.61573 153.468 7.36921 151.155 11.6596 150.787C28.6875 149.379 37.9405 174.999 20.7632 192.898C20.3596 193.006 19.9569 193.105 19.5553 193.195Z" fill="#7E3F15"/>
<path d="M193.195 438.116C192.796 438.015 192.398 437.923 192.001 437.84C171.445 417.963 143.974 435.17 153.454 451.334C157.742 458.644 167.802 458.705 170.477 451.144C173.412 442.843 164.625 433.254 156.761 431.253C144.502 428.134 137.496 440.858 144.38 447.082C147.856 450.224 152.935 449.341 155.249 445.829C151.658 451.406 142.861 449.55 141.609 442.339C139.863 432.278 154.479 424.364 166.406 436.615C178.39 448.92 167.6 462.312 156.966 456.101C153.468 454.056 151.155 450.303 150.788 446.012C149.379 428.984 174.999 419.731 192.898 436.908C193.006 437.312 193.105 437.715 193.195 438.116Z" fill="#7E3F15"/>
<path d="M438.116 264.477C438.015 264.876 437.923 265.274 437.84 265.671C417.962 286.227 435.17 313.698 451.334 304.218C458.644 299.93 458.705 289.869 451.143 287.195C442.842 284.259 433.254 293.046 431.253 300.911C428.134 313.169 440.858 320.175 447.082 313.291C450.224 309.816 449.341 304.736 445.829 302.422C451.405 306.013 449.55 314.81 442.338 316.062C432.277 317.808 424.364 303.193 436.615 291.266C448.92 279.282 462.312 290.071 456.1 300.706C454.056 304.204 450.302 306.516 446.012 306.884C428.984 308.293 419.731 282.673 436.908 264.773C437.312 264.666 437.714 264.567 438.116 264.477Z" fill="#7E3F15"/>
<path d="M168.508 47.4438C161.246 51.7883 161.861 61.4595 167.906 62.38C171.192 62.8697 173.62 59.8908 172.537 57.4294C170.98 53.8947 165.202 55.5215 163.336 59.1359C161.274 63.13 165.14 66.493 167.785 64.6245C169.09 63.7035 169.221 61.9283 168.202 60.8668C169.751 62.5178 168.404 65.2367 165.963 65.0516C162.599 64.7964 161.202 59.4626 166.113 56.5773C170 54.294 173.064 56.6716 172.425 59.323C171.692 62.3679 167.138 63.2767 164.755 59.9735C162.116 56.3149 164.292 50.4971 168.752 47.8537L168.508 47.4438Z" fill="#7E3F15"/>
<path d="M47.4432 289.164C51.7877 296.426 61.4588 295.811 62.3793 289.765C62.869 286.48 59.8902 284.052 57.4288 285.135C53.8941 286.692 55.5208 292.47 59.1353 294.336C63.1293 296.397 66.4924 292.531 64.6236 289.886C63.7026 288.582 61.9274 288.45 60.8659 289.469C62.5169 287.92 65.2358 289.267 65.0507 291.708C64.7956 295.073 59.4617 296.47 56.5764 291.559C54.2931 287.671 56.6707 284.607 59.3221 285.246C62.367 285.98 63.2758 290.534 59.9726 292.916C56.3141 295.556 50.4962 293.379 47.8529 288.919L47.4432 289.164Z" fill="#7E3F15"/>
<path d="M289.163 410.228C296.426 405.884 295.811 396.213 289.765 395.292C286.479 394.802 284.051 397.781 285.135 400.243C286.692 403.777 292.469 402.151 294.335 398.536C296.397 394.542 292.531 391.179 289.886 393.047C288.582 393.969 288.45 395.744 289.469 396.805C287.92 395.154 289.267 392.435 291.708 392.62C295.072 392.876 296.469 398.209 291.558 401.095C287.671 403.378 284.607 401 285.246 398.349C285.979 395.304 290.533 394.395 292.916 397.699C295.555 401.357 293.379 407.175 288.919 409.818L289.163 410.228Z" fill="#7E3F15"/>
<path d="M410.228 168.508C405.884 161.246 396.212 161.861 395.292 167.907C394.802 171.192 397.781 173.62 400.243 172.537C403.777 170.98 402.151 165.202 398.536 163.337C394.542 161.274 391.179 165.141 393.047 167.786C393.969 169.09 395.744 169.221 396.805 168.202C395.154 169.752 392.435 168.404 392.62 165.964C392.876 162.599 398.209 161.202 401.095 166.113C403.378 170.001 401 173.065 398.349 172.426C395.304 171.692 394.395 167.138 397.699 164.755C401.357 162.116 407.175 164.293 409.818 168.752L410.228 168.508Z" fill="#7E3F15"/>
<path d="M289.163 47.4438C296.426 51.7883 295.811 61.4595 289.765 62.38C286.479 62.8697 284.051 59.8908 285.135 57.4294C286.692 53.8947 292.469 55.5215 294.335 59.1359C296.397 63.13 292.531 66.493 289.886 64.6245C288.582 63.7035 288.45 61.9283 289.469 60.8668C287.92 62.5178 289.267 65.2367 291.708 65.0516C295.072 64.7964 296.469 59.4626 291.558 56.5773C287.671 54.294 284.607 56.6716 285.246 59.323C285.979 62.3679 290.533 63.2767 292.916 59.9735C295.555 56.3149 293.379 50.4971 288.919 47.8537L289.163 47.4438Z" fill="#7E3F15"/>
<path d="M47.4432 168.508C51.7877 161.246 61.4588 161.861 62.3793 167.907C62.869 171.192 59.8902 173.62 57.4288 172.537C53.8941 170.98 55.5208 165.202 59.1353 163.337C63.1293 161.274 66.4924 165.141 64.6236 167.786C63.7026 169.09 61.9274 169.221 60.8659 168.202C62.5169 169.752 65.2358 168.404 65.0507 165.964C64.7956 162.599 59.4617 161.202 56.5764 166.113C54.2931 170.001 56.6707 173.065 59.3221 172.426C62.367 171.692 63.2758 167.138 59.9726 164.755C56.3141 162.116 50.4962 164.293 47.8529 168.752L47.4432 168.508Z" fill="#7E3F15"/>
<path d="M168.508 410.228C161.246 405.884 161.861 396.213 167.906 395.292C171.192 394.802 173.62 397.781 172.537 400.243C170.98 403.777 165.202 402.151 163.336 398.536C161.274 394.542 165.14 391.179 167.785 393.047C169.09 393.969 169.221 395.744 168.202 396.805C169.751 395.154 168.404 392.435 165.963 392.62C162.599 392.876 161.202 398.209 166.113 401.095C170 403.378 173.064 401 172.425 398.349C171.692 395.304 167.138 394.395 164.755 397.699C162.116 401.357 164.292 407.175 168.752 409.818L168.508 410.228Z" fill="#7E3F15"/>
<path d="M410.228 289.164C405.884 296.426 396.212 295.811 395.292 289.765C394.802 286.48 397.781 284.052 400.243 285.135C403.777 286.692 402.151 292.47 398.536 294.336C394.542 296.397 391.179 292.531 393.047 289.886C393.969 288.582 395.744 288.45 396.805 289.469C395.154 287.92 392.435 289.267 392.62 291.708C392.876 295.073 398.209 296.47 401.095 291.559C403.378 287.671 401 284.607 398.349 285.246C395.304 285.98 394.395 290.534 397.699 292.916C401.357 295.556 407.175 293.379 409.818 288.919L410.228 289.164Z" fill="#7E3F15"/>
<path d="M223.87 24.3609C222.104 23.6106 220.218 23.2176 218.112 23.491C213.136 24.3331 209.272 29.6873 210.768 34.7752C210.966 35.4485 211.229 36.087 211.549 36.6814C212.144 37.002 212.782 37.2649 213.455 37.4628C218.544 38.9589 223.898 35.0947 224.74 30.1187C225.013 28.0128 224.62 26.1269 223.87 24.3609ZM208.763 39.4672C205.858 35.0026 205.852 28.4688 209.023 24.6486C212.508 20.1946 219.797 20.2496 225.304 22.9272C227.981 28.4339 228.036 35.7231 223.582 39.2077C219.762 42.3782 213.228 42.3728 208.763 39.4672Z" fill="#7E3F15"/>
<path d="M24.3607 233.802C23.6105 235.568 23.2174 237.454 23.4909 239.56C24.333 244.536 29.6872 248.4 34.7751 246.904C35.4484 246.706 36.0869 246.443 36.6813 246.122C37.0019 245.528 37.2648 244.889 37.4627 244.216C38.9587 239.128 35.0946 233.774 30.1185 232.932C28.0127 232.658 26.1271 233.051 24.3607 233.802ZM39.467 248.908C35.0025 251.814 28.4686 251.819 24.6485 248.649C20.1945 245.164 20.2494 237.875 22.9271 232.368C28.4337 229.69 35.723 229.636 39.2076 234.09C42.3781 237.91 42.3727 244.443 39.467 248.908Z" fill="#7E3F15"/>
<path d="M233.801 433.31C235.567 434.061 237.453 434.454 239.559 434.18C244.535 433.338 248.399 427.984 246.903 422.896C246.705 422.223 246.443 421.584 246.122 420.99C245.528 420.669 244.889 420.406 244.216 420.208C239.128 418.712 233.773 422.576 232.932 427.552C232.658 429.658 233.051 431.544 233.801 433.31ZM248.908 418.204C251.813 422.669 251.819 429.202 248.648 433.023C245.164 437.477 237.874 437.422 232.368 434.744C229.69 429.237 229.635 421.948 234.089 418.463C237.909 415.293 244.443 415.298 248.908 418.204Z" fill="#7E3F15"/>
<path d="M433.31 223.87C434.061 222.104 434.454 220.218 434.18 218.112C433.338 213.136 427.984 209.272 422.896 210.768C422.223 210.966 421.584 211.229 420.99 211.549C420.669 212.144 420.406 212.782 420.208 213.456C418.712 218.544 422.576 223.898 427.553 224.74C429.658 225.013 431.544 224.62 433.31 223.87ZM418.204 208.764C422.669 205.858 429.202 205.852 433.023 209.023C437.477 212.508 437.422 219.797 434.744 225.304C429.237 227.981 421.948 228.036 418.463 223.582C415.293 219.762 415.298 213.228 418.204 208.764Z" fill="#7E3F15"/>
<path d="M233.801 24.3609C235.567 23.6106 237.453 23.2176 239.559 23.491C244.535 24.3331 248.399 29.6873 246.903 34.7752C246.705 35.4485 246.443 36.087 246.122 36.6814C245.528 37.002 244.889 37.2649 244.216 37.4628C239.128 38.9589 233.773 35.0947 232.932 30.1187C232.658 28.0128 233.051 26.1269 233.801 24.3609ZM248.908 39.4672C251.813 35.0026 251.819 28.4688 248.648 24.6486C245.164 20.1946 237.874 20.2496 232.368 22.9272C229.69 28.4339 229.635 35.7231 234.089 39.2077C237.909 42.3782 244.443 42.3728 248.908 39.4672Z" fill="#7E3F15"/>
<path d="M24.3607 223.87C23.6105 222.104 23.2174 220.218 23.4909 218.112C24.333 213.136 29.6872 209.272 34.7751 210.768C35.4484 210.966 36.0869 211.229 36.6813 211.549C37.0019 212.144 37.2648 212.782 37.4627 213.456C38.9587 218.544 35.0946 223.898 30.1185 224.74C28.0127 225.013 26.1271 224.62 24.3607 223.87ZM39.467 208.764C35.0025 205.858 28.4686 205.852 24.6485 209.023C20.1945 212.508 20.2494 219.797 22.9271 225.304C28.4337 227.981 35.723 228.036 39.2076 223.582C42.3781 219.762 42.3727 213.228 39.467 208.764Z" fill="#7E3F15"/>
<path d="M223.87 433.31C222.104 434.061 220.218 434.454 218.112 434.18C213.136 433.338 209.272 427.984 210.768 422.896C210.966 422.223 211.229 421.584 211.549 420.99C212.144 420.669 212.782 420.406 213.455 420.208C218.544 418.712 223.898 422.576 224.74 427.552C225.013 429.658 224.62 431.544 223.87 433.31ZM208.763 418.204C205.858 422.669 205.852 429.202 209.023 433.023C212.508 437.477 219.797 437.422 225.304 434.744C227.981 429.237 228.036 421.948 223.582 418.463C219.762 415.293 213.228 415.298 208.763 418.204Z" fill="#7E3F15"/>
<path d="M433.31 233.802C434.061 235.568 434.454 237.454 434.18 239.56C433.338 244.536 427.984 248.4 422.896 246.904C422.223 246.706 421.584 246.443 420.99 246.122C420.669 245.528 420.406 244.889 420.208 244.216C418.712 239.128 422.576 233.774 427.553 232.932C429.658 232.658 431.544 233.051 433.31 233.802ZM418.204 248.908C422.669 251.814 429.202 251.819 433.023 248.649C437.477 245.164 437.422 237.875 434.744 232.368C429.237 229.69 421.948 229.636 418.463 234.09C415.293 237.91 415.298 244.443 418.204 248.908Z" fill="#7E3F15"/>
<path d="M228.836 14.4099C207.589 -3.7625 190.796 17.5867 180.244 8.14839C190.748 18.426 208.07 -3.01964 228.836 17.0398C249.601 -3.01964 266.923 18.426 277.428 8.14839C266.875 17.5867 250.082 -3.7625 228.836 14.4099Z" fill="#7E3F15"/>
<path d="M443.261 228.836C461.433 207.589 440.084 190.796 449.522 180.244C439.245 190.748 460.69 208.07 440.631 228.836C460.69 249.602 439.245 266.924 449.522 277.428C440.084 266.876 461.433 250.082 443.261 228.836Z" fill="#7E3F15"/>
<path d="M228.836 443.261C250.083 461.433 266.876 440.084 277.428 449.522C266.924 439.245 249.601 460.69 228.836 440.631C208.07 460.69 190.748 439.245 180.244 449.522C190.796 440.084 207.589 461.433 228.836 443.261Z" fill="#7E3F15"/>
<path d="M14.4103 228.836C-3.76213 250.083 17.5871 266.876 8.14875 277.428C18.4263 266.924 -3.01928 249.602 17.0401 228.836C-3.01928 208.07 18.4263 190.748 8.14875 180.244C17.5874 190.796 -3.76185 207.589 14.4103 228.836Z" fill="#7E3F15"/>
<path d="M186.395 24.3989C160.307 43.4446 138.699 25.0482 125.701 33.4968C138.932 25.6896 160.385 45.0322 187.561 26.0314L186.395 24.3989Z" fill="#7E3F15"/>
<path d="M24.3987 271.276C43.4444 297.365 25.048 318.972 33.4966 331.971C25.6893 318.739 45.0316 297.287 26.0311 270.11L24.3987 271.276Z" fill="#7E3F15"/>
<path d="M271.276 433.273C297.365 414.227 318.972 432.623 331.97 424.175C318.739 431.982 297.286 412.639 270.11 431.64L271.276 433.273Z" fill="#7E3F15"/>
<path d="M433.273 186.395C414.227 160.307 432.624 138.699 424.175 125.701C431.982 138.932 412.64 160.385 431.64 187.561L433.273 186.395Z" fill="#7E3F15"/>
<path d="M271.276 24.3989C297.365 43.4446 318.972 25.0482 331.97 33.4968C318.739 25.6896 297.286 45.0322 270.11 26.0314L271.276 24.3989Z" fill="#7E3F15"/>
<path d="M24.3987 186.395C43.4444 160.307 25.048 138.699 33.4966 125.701C25.6893 138.932 45.0316 160.385 26.0311 187.561L24.3987 186.395Z" fill="#7E3F15"/>
<path d="M186.395 433.273C160.307 414.227 138.699 432.623 125.701 424.175C138.932 431.982 160.385 412.639 187.561 431.64L186.395 433.273Z" fill="#7E3F15"/>
<path d="M433.273 271.276C414.227 297.365 432.624 318.972 424.175 331.971C431.982 318.739 412.64 297.287 431.64 270.11L433.273 271.276Z" fill="#7E3F15"/>
<path d="M227.982 15.8237C220.968 9.2195 209.616 12.9246 205.495 25.2881C204.658 27.5295 204.094 29.9895 201.823 31.1783C199.633 32.2198 196.635 31.1786 195.82 28.7638C195.121 26.6914 195.9 24.4454 198.09 23.5014C200.287 22.8901 201.226 24.8372 201.22 24.8318C201.987 26.8244 199.834 27.9531 198.403 26.7592C200.001 30.1339 203.948 26.1202 201.667 23.4817C199.675 21.2923 197.316 21.7843 195.272 23.657C192.032 26.6963 194.387 32.263 197.927 33.2298C200.706 34.0759 203.775 31.6946 205.083 28.8762C206.759 25.246 207.571 20.887 210.431 17.9336C213.28 14.7164 217.664 12.4123 222.043 13.2459C224.186 13.6503 226.154 14.6701 227.982 15.8237Z" fill="#7E3F15"/>
<path d="M15.8238 229.689C9.21963 236.704 12.9248 248.055 25.2882 252.177C27.5296 253.013 29.9896 253.578 31.1784 255.848C32.2199 258.039 31.1787 261.036 28.7639 261.851C26.6915 262.55 24.4455 261.771 23.5015 259.582C22.8903 257.385 24.8374 256.446 24.8319 256.451C26.8245 255.684 27.9532 257.838 26.7593 259.269C30.1341 257.67 26.1203 253.723 23.4818 256.004C21.2924 257.997 21.7844 260.355 23.6571 262.399C26.6964 265.639 32.2631 263.284 33.2299 259.744C34.076 256.965 31.6947 253.896 28.8763 252.588C25.2461 250.912 20.8871 250.1 17.9337 247.24C14.7165 244.391 12.4125 240.007 13.246 235.628C13.6502 233.486 14.6699 231.517 15.8238 229.689Z" fill="#7E3F15"/>
<path d="M229.689 441.848C236.704 448.452 248.056 444.747 252.177 432.383C253.013 430.142 253.578 427.682 255.848 426.493C258.039 425.451 261.036 426.493 261.851 428.907C262.55 430.98 261.771 433.226 259.582 434.17C257.385 434.781 256.446 432.834 256.451 432.839C255.684 430.847 257.838 429.718 259.269 430.912C257.67 427.537 253.723 431.551 256.004 434.189C257.997 436.379 260.355 435.887 262.4 434.014C265.639 430.975 263.284 425.408 259.744 424.441C256.965 423.595 253.896 425.977 252.588 428.795C250.913 432.425 250.101 436.784 247.24 439.738C244.392 442.955 240.008 445.259 235.629 444.425C233.486 444.021 231.518 443.001 229.689 441.848Z" fill="#7E3F15"/>
<path d="M441.848 227.982C448.451 220.967 444.747 209.616 432.383 205.494C430.141 204.658 427.682 204.093 426.493 201.823C425.451 199.632 426.492 196.635 428.907 195.82C430.98 195.121 433.226 195.9 434.17 198.089C434.781 200.286 432.834 201.225 432.839 201.22C430.847 201.987 429.718 199.833 430.912 198.402C427.537 200.001 431.551 203.948 434.189 201.667C436.379 199.674 435.887 197.316 434.014 195.271C430.975 192.032 425.408 194.387 424.441 197.927C423.595 200.706 425.976 203.775 428.795 205.083C432.425 206.758 436.784 207.57 439.737 210.431C442.955 213.279 445.259 217.663 444.425 222.042C444.021 224.185 443.001 226.154 441.848 227.982Z" fill="#7E3F15"/>
<path d="M229.689 15.8237C236.704 9.2195 248.056 12.9246 252.177 25.2881C253.013 27.5295 253.578 29.9895 255.848 31.1783C258.039 32.2198 261.036 31.1786 261.851 28.7638C262.55 26.6914 261.771 24.4454 259.582 23.5014C257.385 22.8901 256.446 24.8372 256.451 24.8318C255.684 26.8244 257.838 27.9531 259.269 26.7592C257.67 30.1339 253.723 26.1202 256.004 23.4817C257.997 21.2923 260.355 21.7843 262.4 23.657C265.639 26.6963 263.284 32.263 259.744 33.2298C256.965 34.0759 253.896 31.6946 252.588 28.8762C250.913 25.246 250.101 20.887 247.24 17.9336C244.392 14.7164 240.008 12.4123 235.629 13.2459C233.486 13.6503 231.518 14.6701 229.689 15.8237Z" fill="#7E3F15"/>
<path d="M15.8238 227.982C9.21963 220.967 12.9248 209.616 25.2882 205.494C27.5296 204.658 29.9896 204.093 31.1784 201.823C32.2199 199.632 31.1787 196.635 28.7639 195.82C26.6915 195.121 24.4455 195.9 23.5015 198.089C22.8903 200.286 24.8374 201.225 24.8319 201.22C26.8245 201.987 27.9532 199.833 26.7593 198.402C30.1341 200.001 26.1203 203.948 23.4818 201.667C21.2924 199.674 21.7844 197.316 23.6571 195.271C26.6964 192.032 32.2631 194.387 33.2299 197.927C34.076 200.706 31.6947 203.775 28.8763 205.083C25.2461 206.758 20.8871 207.57 17.9337 210.431C14.7165 213.279 12.4125 217.663 13.246 222.042C13.6502 224.185 14.6699 226.154 15.8238 227.982Z" fill="#7E3F15"/>
<path d="M227.982 441.848C220.968 448.452 209.616 444.747 205.495 432.383C204.658 430.142 204.094 427.682 201.823 426.493C199.633 425.451 196.635 426.493 195.82 428.907C195.121 430.98 195.9 433.226 198.09 434.17C200.287 434.781 201.226 432.834 201.22 432.839C201.987 430.847 199.834 429.718 198.403 430.912C200.001 427.537 203.948 431.551 201.667 434.189C199.675 436.379 197.316 435.887 195.272 434.014C192.032 430.975 194.387 425.408 197.927 424.441C200.706 423.595 203.775 425.977 205.083 428.795C206.759 432.425 207.571 436.784 210.431 439.738C213.28 442.955 217.664 445.259 222.043 444.425C224.186 444.021 226.154 443.001 227.982 441.848Z" fill="#7E3F15"/>
<path d="M441.848 229.689C448.451 236.704 444.747 248.055 432.383 252.177C430.141 253.013 427.682 253.578 426.493 255.848C425.451 258.039 426.492 261.036 428.907 261.851C430.98 262.55 433.226 261.771 434.17 259.582C434.781 257.385 432.834 256.446 432.839 256.451C430.847 255.684 429.718 257.838 430.912 259.269C427.537 257.67 431.551 253.723 434.189 256.004C436.379 257.997 435.887 260.355 434.014 262.399C430.975 265.639 425.408 263.284 424.441 259.744C423.595 256.965 425.976 253.896 428.795 252.588C432.425 250.912 436.784 250.1 439.737 247.24C442.955 244.391 445.259 240.007 444.425 235.628C444.021 233.486 443.001 231.517 441.848 229.689Z" fill="#7E3F15"/>
<path d="M228.836 39.8277C227.167 40.9911 225.199 41.9837 222.943 42.7357C220.701 43.5721 218.241 44.1367 217.053 46.4073C216.011 48.5976 217.052 51.5953 219.467 52.41C221.539 53.1094 223.785 52.3302 224.729 50.1408C225.341 47.9437 223.394 47.0049 223.399 47.01C221.406 46.2432 220.278 48.3968 221.472 49.8279C218.097 48.2292 222.111 44.2823 224.749 46.5629C226.939 48.5558 226.447 50.9143 224.574 52.9589C221.535 56.1981 215.968 53.8437 215.001 50.3036C214.155 47.5241 216.536 44.4551 219.355 43.1473C222.424 41.7308 226.015 40.9313 228.836 38.9888C231.657 40.9313 235.248 41.7308 238.317 43.1473C241.136 44.4551 243.517 47.5241 242.671 50.3036C241.704 53.8437 236.137 56.1981 233.098 52.9589C231.225 50.9143 230.733 48.5561 232.923 46.5629C235.561 44.2826 239.575 48.2294 236.2 49.8279C237.394 48.3968 236.265 46.2434 234.273 47.01C234.278 47.0049 232.331 47.944 232.942 50.1408C233.886 52.3302 236.132 53.1094 238.205 52.41C240.619 51.595 241.66 48.5976 240.619 46.4073C239.431 44.137 236.97 43.5721 234.729 42.7357C232.473 41.9837 230.505 40.9908 228.836 39.8277Z" fill="#7E3F15"/>
<path d="M417.844 228.836C416.68 227.166 415.688 225.198 414.935 222.942C414.099 220.701 413.534 218.241 411.264 217.052C409.074 216.01 406.076 217.052 405.261 219.466C404.562 221.539 405.341 223.785 407.53 224.729C409.727 225.34 410.666 223.393 410.661 223.398C411.428 221.406 409.274 220.277 407.843 221.471C409.442 218.096 413.389 222.11 411.108 224.749C409.115 226.938 406.757 226.446 404.712 224.573C401.473 221.534 403.827 215.967 407.368 215C410.147 214.154 413.216 216.536 414.524 219.354C415.94 222.424 416.74 226.014 418.682 228.835C416.74 231.657 415.94 235.247 414.524 238.316C413.216 241.135 410.147 243.516 407.368 242.67C403.827 241.703 401.473 236.137 404.712 233.097C406.757 231.225 409.115 230.733 411.108 232.922C413.388 235.56 409.442 239.574 407.843 236.199C409.274 237.393 411.428 236.265 410.661 234.272C410.666 234.278 409.727 232.33 407.53 232.942C405.341 233.886 404.562 236.131 405.261 238.204C406.076 240.619 409.074 241.66 411.264 240.619C413.534 239.43 414.099 236.97 414.935 234.728C415.687 232.473 416.68 230.505 417.844 228.836Z" fill="#7E3F15"/>
<path d="M228.836 417.843C230.505 416.679 232.473 415.687 234.729 414.935C236.97 414.098 239.43 413.534 240.619 411.263C241.661 409.073 240.619 406.075 238.205 405.26C236.132 404.561 233.886 405.34 232.942 407.53C232.331 409.727 234.278 410.665 234.273 410.66C236.265 411.427 237.394 409.274 236.2 407.843C239.575 409.441 235.561 413.388 232.923 411.108C230.733 409.115 231.225 406.756 233.098 404.712C236.137 401.473 241.704 403.827 242.671 407.367C243.517 410.147 241.136 413.215 238.317 414.523C235.248 415.94 231.657 416.739 228.836 418.682C226.015 416.739 222.424 415.94 219.355 414.523C216.536 413.215 214.155 410.147 215.001 407.367C215.968 403.827 221.535 401.473 224.574 404.712C226.447 406.756 226.939 409.115 224.749 411.108C222.111 413.388 218.097 409.441 221.472 407.843C220.278 409.274 221.407 411.427 223.399 410.66C223.394 410.665 225.341 409.726 224.729 407.53C223.786 405.34 221.54 404.561 219.467 405.26C217.052 406.075 216.011 409.073 217.053 411.263C218.241 413.533 220.701 414.098 222.943 414.935C225.198 415.687 227.166 416.68 228.836 417.843Z" fill="#7E3F15"/>
<path d="M39.828 228.835C40.9913 230.505 41.9839 232.472 42.7359 234.729C43.5723 236.97 44.137 239.43 46.4076 240.619C48.5978 241.66 51.5956 240.619 52.4102 238.205C53.1096 236.132 52.3304 233.886 50.141 232.942C47.9439 232.331 47.0051 234.278 47.0103 234.273C46.2434 236.265 48.397 237.394 49.8281 236.2C48.2294 239.575 44.2826 235.561 46.5632 232.922C48.5561 230.733 50.9145 231.225 52.9591 233.098C56.1983 236.137 53.8439 241.704 50.3038 242.67C47.5243 243.517 44.4553 241.135 43.1475 238.317C41.731 235.247 40.9315 231.657 38.989 228.836C40.9315 226.014 41.731 222.424 43.1475 219.354C44.4553 216.536 47.5243 214.155 50.3038 215.001C53.8439 215.968 56.1983 221.534 52.9591 224.574C50.9145 226.446 48.5563 226.938 46.5632 224.749C44.2828 222.111 48.2297 218.097 49.8281 221.472C48.397 220.278 46.2437 221.406 47.0103 223.399C47.0051 223.393 47.9442 225.341 50.141 224.729C52.3304 223.785 53.1096 221.54 52.4102 219.467C51.5953 217.052 48.5978 216.011 46.4076 217.052C44.1372 218.241 43.5723 220.701 42.7359 222.943C41.9839 225.198 40.9913 227.166 39.828 228.835Z" fill="#7E3F15"/>
<path d="M149.653 33.2087C146.306 32.9293 143.9 32.9499 142.054 35.9167C140.775 37.9142 139.577 42.3696 138.028 43.2901C135.427 44.611 133.501 40.7022 136.068 39.5146C137.154 39.1813 137.647 40.1393 137.645 40.1364C138.053 41.119 136.995 41.7094 136.266 41.1333C137.107 42.7935 139.02 40.7428 137.85 39.4582C136.829 38.3936 135.66 38.6693 134.666 39.629C133.092 41.1851 134.195 44.1562 135.971 44.5919C137.366 44.9772 139.146 44.3513 140.046 42.1299C143.424 34.5323 143.178 33.0989 150.196 33.7628L149.653 33.2087Z" fill="#7E3F15"/>
<path d="M33.2092 308.018C32.9297 311.365 32.9503 313.771 35.9172 315.617C37.9146 316.896 42.3701 318.095 43.2906 319.644C44.6115 322.244 40.7024 324.171 39.5151 321.604C39.1818 320.517 40.1398 320.024 40.1369 320.027C41.1195 319.619 41.7099 320.677 41.1338 321.405C42.794 320.565 40.7433 318.651 39.4587 319.821C38.394 320.842 38.6698 322.011 39.6295 323.005C41.1856 324.579 44.1567 323.477 44.5924 321.7C44.9777 320.305 44.3518 318.526 42.1304 317.625C34.5327 314.247 33.0994 314.494 33.7633 307.476L33.2092 308.018Z" fill="#7E3F15"/>
<path d="M308.018 424.462C311.366 424.742 313.771 424.721 315.617 421.754C316.896 419.757 318.095 415.301 319.644 414.381C322.244 413.06 324.171 416.969 321.604 418.156C320.517 418.49 320.024 417.532 320.027 417.535C319.619 416.552 320.677 415.962 321.405 416.538C320.565 414.878 318.651 416.928 319.821 418.213C320.842 419.277 322.011 419.002 323.005 418.042C324.579 416.486 323.477 413.515 321.701 413.08C320.305 412.694 318.526 413.32 317.625 415.541C314.247 423.139 314.494 424.572 307.476 423.909L308.018 424.462Z" fill="#7E3F15"/>
<path d="M424.462 149.653C424.742 146.306 424.721 143.9 421.754 142.054C419.757 140.775 415.302 139.577 414.381 138.028C413.06 135.427 416.969 133.501 418.157 136.068C418.49 137.154 417.532 137.647 417.535 137.645C416.552 138.053 415.962 136.994 416.538 136.266C414.878 137.107 416.928 139.02 418.213 137.85C419.278 136.829 419.002 135.66 418.042 134.666C416.486 133.092 413.515 134.195 413.079 135.971C412.694 137.366 413.32 139.146 415.542 140.046C423.139 143.424 424.573 143.178 423.909 150.196L424.462 149.653Z" fill="#7E3F15"/>
<path d="M308.018 33.2087C311.366 32.9293 313.771 32.9499 315.617 35.9167C316.896 37.9142 318.095 42.3696 319.644 43.2901C322.244 44.611 324.171 40.7022 321.604 39.5146C320.517 39.1813 320.024 40.1393 320.027 40.1364C319.619 41.119 320.677 41.7094 321.405 41.1333C320.565 42.7935 318.651 40.7428 319.821 39.4582C320.842 38.3936 322.011 38.6693 323.005 39.629C324.579 41.1851 323.477 44.1562 321.701 44.5919C320.305 44.9772 318.526 44.3513 317.625 42.1299C314.247 34.5323 314.494 33.0989 307.476 33.7628L308.018 33.2087Z" fill="#7E3F15"/>
<path d="M33.2092 149.653C32.9297 146.306 32.9503 143.9 35.9172 142.054C37.9146 140.775 42.3701 139.577 43.2906 138.028C44.6115 135.427 40.7024 133.501 39.5151 136.068C39.1818 137.154 40.1398 137.647 40.1369 137.645C41.1195 138.053 41.7099 136.994 41.1338 136.266C42.794 137.107 40.7433 139.02 39.4587 137.85C38.394 136.829 38.6698 135.66 39.6295 134.666C41.1856 133.092 44.1567 134.195 44.5924 135.971C44.9777 137.366 44.3518 139.146 42.1304 140.046C34.5327 143.424 33.0994 143.178 33.7633 150.196L33.2092 149.653Z" fill="#7E3F15"/>
<path d="M149.653 424.462C146.306 424.742 143.9 424.721 142.054 421.754C140.775 419.757 139.577 415.301 138.028 414.381C135.427 413.06 133.501 416.969 136.068 418.156C137.154 418.49 137.647 417.532 137.645 417.535C138.053 416.552 136.995 415.962 136.266 416.538C137.107 414.878 139.02 416.928 137.85 418.213C136.829 419.277 135.66 419.002 134.666 418.042C133.092 416.486 134.195 413.515 135.971 413.08C137.366 412.694 139.146 413.32 140.046 415.541C143.424 423.139 143.178 424.572 150.196 423.909L149.653 424.462Z" fill="#7E3F15"/>
<path d="M424.462 308.018C424.742 311.365 424.721 313.771 421.754 315.617C419.757 316.896 415.302 318.095 414.381 319.644C413.06 322.244 416.969 324.171 418.157 321.604C418.49 320.517 417.532 320.024 417.535 320.027C416.552 319.619 415.962 320.677 416.538 321.405C414.878 320.565 416.928 318.651 418.213 319.821C419.278 320.842 419.002 322.011 418.042 323.005C416.486 324.579 413.515 323.477 413.079 321.7C412.694 320.305 413.32 318.526 415.542 317.625C423.139 314.247 424.573 314.494 423.909 307.476L424.462 308.018Z" fill="#7E3F15"/>
<path d="M151.948 33.2294C129.34 19.7164 111.726 33.5155 100.64 27.8489C111.651 33.7683 129.315 20.3062 151.547 33.8945L151.948 33.2294Z" fill="#7E3F15"/>
<path d="M33.229 305.723C19.7159 328.331 33.515 345.945 27.8485 357.03C33.7679 346.02 20.3057 328.356 33.894 306.124L33.229 305.723Z" fill="#7E3F15"/>
<path d="M305.723 424.442C328.331 437.955 345.945 424.156 357.031 429.823C346.021 423.903 328.357 437.366 306.125 423.777L305.723 424.442Z" fill="#7E3F15"/>
<path d="M424.442 151.948C437.955 129.34 424.156 111.726 429.823 100.64C423.904 111.65 437.366 129.314 423.777 151.546L424.442 151.948Z" fill="#7E3F15"/>
<path d="M305.723 33.2294C328.331 19.7164 345.945 33.5155 357.031 27.8489C346.021 33.7683 328.357 20.3062 306.125 33.8945L305.723 33.2294Z" fill="#7E3F15"/>
<path d="M33.229 151.948C19.7159 129.34 33.515 111.726 27.8485 100.64C33.7679 111.65 20.3057 129.314 33.894 151.546L33.229 151.948Z" fill="#7E3F15"/>
<path d="M151.948 424.442C129.34 437.955 111.726 424.156 100.64 429.823C111.651 423.903 129.315 437.366 151.547 423.777L151.948 424.442Z" fill="#7E3F15"/>
<path d="M424.442 305.723C437.955 328.331 424.156 345.945 429.823 357.03C423.904 346.02 437.366 328.356 423.777 306.124L424.442 305.723Z" fill="#7E3F15"/>
<path d="M153.057 58.5876C154.304 55.9108 151.705 52.7251 157.88 52.5117C155.413 54.0346 156.297 55.9835 154.404 57.0284C156.388 56.1871 155.996 54.5232 158.04 52.5695C158.04 52.5695 158.671 52.8104 158.46 55.1036C158.25 57.3971 155.013 57.1371 153.057 58.5876Z" fill="#28382D"/>
<path d="M58.5876 304.614C55.9108 303.367 52.7251 305.966 52.5117 299.791C54.0346 302.258 55.9834 301.374 57.0284 303.267C56.1871 301.284 54.5232 301.676 52.5695 299.632C52.5695 299.632 52.8104 299 55.1036 299.211C57.3968 299.422 57.1371 302.658 58.5876 304.614Z" fill="#28382D"/>
<path d="M304.614 399.084C303.367 401.761 305.966 404.946 299.791 405.16C302.258 403.637 301.374 401.688 303.267 400.643C301.283 401.484 301.675 403.148 299.631 405.102C299.631 405.102 299 404.861 299.211 402.568C299.422 400.274 302.659 400.535 304.614 399.084Z" fill="#28382D"/>
<path d="M399.084 153.056C401.761 154.304 404.946 151.704 405.16 157.879C403.637 155.413 401.688 156.296 400.643 154.404C401.484 156.387 403.148 155.995 405.102 158.039C405.102 158.039 404.861 158.671 402.568 158.46C400.275 158.249 400.535 155.012 399.084 153.056Z" fill="#28382D"/>
<path d="M304.614 58.5876C303.367 55.9108 305.966 52.7251 299.791 52.5117C302.258 54.0346 301.374 55.9835 303.267 57.0284C301.283 56.1871 301.675 54.5232 299.631 52.5695C299.631 52.5695 299 52.8104 299.211 55.1036C299.422 57.3971 302.659 57.1371 304.614 58.5876Z" fill="#28382D"/>
<path d="M58.5876 153.056C55.9108 154.304 52.7251 151.704 52.5117 157.879C54.0346 155.413 55.9834 156.296 57.0284 154.404C56.1871 156.387 54.5232 155.995 52.5695 158.039C52.5695 158.039 52.8104 158.671 55.1036 158.46C57.3968 158.249 57.1371 155.012 58.5876 153.056Z" fill="#28382D"/>
<path d="M153.057 399.084C154.304 401.761 151.705 404.946 157.88 405.16C155.413 403.637 156.297 401.688 154.404 400.643C156.388 401.484 155.996 403.148 158.04 405.102C158.04 405.102 158.671 404.861 158.46 402.568C158.25 400.274 155.013 400.535 153.057 399.084Z" fill="#28382D"/>
<path d="M399.084 304.614C401.761 303.367 404.946 305.966 405.16 299.791C403.637 302.258 401.688 301.374 400.643 303.267C401.484 301.284 403.148 301.676 405.102 299.632C405.102 299.632 404.861 299 402.568 299.211C400.275 299.422 400.535 302.658 399.084 304.614Z" fill="#28382D"/>
<path d="M145.227 59.0512C146.288 56.212 144.074 52.822 149.338 52.5952C147.236 54.2134 147.989 56.284 146.375 57.3945C148.066 56.5009 147.732 54.7325 149.474 52.6567C149.474 52.6567 150.012 52.9127 149.833 55.3492C149.653 57.7858 146.894 57.5097 145.227 59.0512Z" fill="#28382D"/>
<path d="M59.0515 312.444C56.2122 311.383 52.8223 313.597 52.5955 308.333C54.2136 310.435 56.2843 309.682 57.3947 311.296C56.5011 309.605 54.7328 309.939 52.657 308.197C52.657 308.197 52.913 307.659 55.3495 307.838C57.786 308.018 57.51 310.777 59.0515 312.444Z" fill="#28382D"/>
<path d="M312.445 398.62C311.383 401.459 313.597 404.849 308.334 405.076C310.436 403.457 309.683 401.387 311.296 400.276C309.606 401.17 309.94 402.938 308.197 405.014C308.197 405.014 307.659 404.758 307.839 402.322C308.019 399.885 310.777 400.161 312.445 398.62Z" fill="#28382D"/>
<path d="M398.62 145.227C401.459 146.288 404.849 144.074 405.076 149.338C403.458 147.235 401.387 147.989 400.277 146.375C401.17 148.066 402.939 147.732 405.014 149.474C405.014 149.474 404.758 150.012 402.322 149.832C399.885 149.652 400.161 146.894 398.62 145.227Z" fill="#28382D"/>
<path d="M312.445 59.0512C311.383 56.212 313.597 52.822 308.334 52.5952C310.436 54.2134 309.683 56.284 311.296 57.3945C309.606 56.5009 309.94 54.7325 308.197 52.6567C308.197 52.6567 307.659 52.9127 307.839 55.3492C308.019 57.7858 310.777 57.5097 312.445 59.0512Z" fill="#28382D"/>
<path d="M59.0515 145.227C56.2122 146.288 52.8223 144.074 52.5955 149.338C54.2136 147.235 56.2843 147.989 57.3947 146.375C56.5011 148.066 54.7328 147.732 52.657 149.474C52.657 149.474 52.913 150.012 55.3495 149.832C57.786 149.652 57.51 146.894 59.0515 145.227Z" fill="#28382D"/>
<path d="M145.227 398.62C146.288 401.459 144.074 404.849 149.338 405.076C147.236 403.457 147.989 401.387 146.375 400.276C148.066 401.17 147.732 402.938 149.474 405.014C149.474 405.014 150.012 404.758 149.833 402.322C149.653 399.885 146.894 400.161 145.227 398.62Z" fill="#28382D"/>
<path d="M398.62 312.444C401.459 311.383 404.849 313.597 405.076 308.333C403.458 310.435 401.387 309.682 400.277 311.296C401.17 309.605 402.939 309.939 405.014 308.197C405.014 308.197 404.758 307.659 402.322 307.838C399.885 308.018 400.161 310.777 398.62 312.444Z" fill="#28382D"/>
<path d="M156.206 43.7544C157.361 46.7642 154.952 50.364 160.686 50.6046C158.395 48.8875 159.216 46.6904 157.458 45.5121C159.3 46.4604 158.936 48.3365 160.835 50.5394C160.835 50.5394 161.421 50.2679 161.225 47.6824C161.029 45.0968 158.023 45.3897 156.206 43.7544Z" fill="#28382D"/>
<path d="M43.7543 301.466C46.764 300.31 50.3639 302.72 50.6045 296.985C48.8873 299.277 46.6902 298.456 45.512 300.214C46.4603 298.372 48.3364 298.736 50.5393 296.837C50.5393 296.837 50.2678 296.251 47.6822 296.446C45.097 296.642 45.3896 299.649 43.7543 301.466Z" fill="#28382D"/>
<path d="M301.466 413.917C300.31 410.907 302.719 407.307 296.985 407.067C299.277 408.784 298.456 410.981 300.214 412.159C298.371 411.211 298.735 409.335 296.837 407.132C296.837 407.132 296.25 407.404 296.446 409.989C296.642 412.575 299.649 412.282 301.466 413.917Z" fill="#28382D"/>
<path d="M413.917 156.206C410.907 157.361 407.308 154.952 407.067 160.686C408.784 158.395 410.981 159.216 412.159 157.458C411.211 159.3 409.335 158.936 407.132 160.835C407.132 160.835 407.404 161.421 409.989 161.225C412.575 161.029 412.282 158.023 413.917 156.206Z" fill="#28382D"/>
<path d="M301.466 43.7544C300.31 46.7642 302.719 50.364 296.985 50.6046C299.277 48.8875 298.456 46.6904 300.214 45.5121C298.371 46.4604 298.735 48.3365 296.837 50.5394C296.837 50.5394 296.25 50.2679 296.446 47.6824C296.642 45.0968 299.649 45.3897 301.466 43.7544Z" fill="#28382D"/>
<path d="M43.7543 156.206C46.764 157.361 50.3639 154.952 50.6045 160.686C48.8873 158.395 46.6902 159.216 45.512 157.458C46.4603 159.3 48.3364 158.936 50.5393 160.835C50.5393 160.835 50.2678 161.421 47.6822 161.225C45.097 161.029 45.3896 158.023 43.7543 156.206Z" fill="#28382D"/>
<path d="M156.206 413.917C157.361 410.907 154.952 407.307 160.686 407.067C158.395 408.784 159.216 410.981 157.458 412.159C159.3 411.211 158.936 409.335 160.835 407.132C160.835 407.132 161.421 407.404 161.225 409.989C161.029 412.575 158.023 412.282 156.206 413.917Z" fill="#28382D"/>
<path d="M413.917 301.466C410.907 300.31 407.308 302.72 407.067 296.985C408.784 299.277 410.981 298.456 412.159 300.214C411.211 298.372 409.335 298.736 407.132 296.837C407.132 296.837 407.404 296.251 409.989 296.446C412.575 296.642 412.282 299.649 413.917 301.466Z" fill="#28382D"/>
<path d="M148.249 45.061C149.329 47.9501 147.08 51.3995 152.432 51.63C150.293 49.9836 151.059 47.8766 149.418 46.7467C151.138 47.656 150.798 49.4553 152.571 51.5674C152.571 51.5674 153.118 51.3071 152.936 48.8277C152.753 46.3485 149.946 46.6294 148.249 45.061Z" fill="#28382D"/>
<path d="M45.0613 309.422C47.9503 308.342 51.3995 310.592 51.6303 305.239C49.9838 307.378 47.8768 306.612 46.7469 308.253C47.6563 306.533 49.4555 306.873 51.5676 305.1C51.5676 305.1 51.3073 304.553 48.8279 304.736C46.3485 304.918 46.6297 307.725 45.0613 309.422Z" fill="#28382D"/>
<path d="M309.422 412.61C308.342 409.721 310.592 406.271 305.239 406.041C307.378 407.687 306.612 409.794 308.253 410.924C306.533 410.015 306.873 408.215 305.101 406.103C305.101 406.103 304.553 406.363 304.736 408.843C304.919 411.322 307.726 411.041 309.422 412.61Z" fill="#28382D"/>
<path d="M412.61 148.249C409.721 149.329 406.272 147.079 406.041 152.432C407.687 150.293 409.794 151.059 410.924 149.418C410.015 151.138 408.216 150.798 406.104 152.571C406.104 152.571 406.364 153.118 408.843 152.935C411.322 152.752 411.042 149.946 412.61 148.249Z" fill="#28382D"/>
<path d="M309.422 45.061C308.342 47.9501 310.592 51.3995 305.239 51.63C307.378 49.9836 306.612 47.8766 308.253 46.7467C306.533 47.656 306.873 49.4553 305.101 51.5674C305.101 51.5674 304.553 51.3071 304.736 48.8277C304.919 46.3482 307.726 46.6294 309.422 45.061Z" fill="#28382D"/>
<path d="M45.0613 148.249C47.9503 149.329 51.3995 147.079 51.6303 152.432C49.9838 150.293 47.8768 151.059 46.7469 149.418C47.6563 151.138 49.4555 150.798 51.5676 152.571C51.5676 152.571 51.3073 153.118 48.8279 152.935C46.3488 152.752 46.6297 149.946 45.0613 148.249Z" fill="#28382D"/>
<path d="M148.249 412.61C149.329 409.721 147.08 406.271 152.432 406.041C150.293 407.687 151.059 409.794 149.418 410.924C151.138 410.015 150.798 408.215 152.571 406.103C152.571 406.103 153.118 406.363 152.936 408.843C152.753 411.322 149.946 411.041 148.249 412.61Z" fill="#28382D"/>
<path d="M412.61 309.422C409.721 308.342 406.272 310.592 406.041 305.239C407.687 307.378 409.794 306.612 410.924 308.253C410.015 306.533 408.216 306.873 406.104 305.1C406.104 305.1 406.364 304.553 408.843 304.736C411.323 304.918 411.042 307.725 412.61 309.422Z" fill="#28382D"/>
<path d="M135.557 47.4828C138.719 49.514 139.037 54.524 144.433 50.8409C141.143 50.7952 140.354 48.1799 137.927 48.2748C140.27 47.9073 141.251 49.911 144.522 50.6787C144.522 50.6787 144.867 50.0251 142.879 47.7388C140.891 45.4524 138.357 47.7754 135.557 47.4828Z" fill="#28382D"/>
<path d="M47.4827 322.115C49.5139 318.952 54.524 318.634 50.8409 313.239C50.7951 316.528 48.1798 317.317 48.2747 319.744C47.9072 317.401 49.9109 316.42 50.6787 313.149C50.6787 313.149 50.025 312.804 47.739 314.792C45.4526 316.78 47.7753 319.315 47.4827 322.115Z" fill="#28382D"/>
<path d="M322.114 410.189C318.952 408.157 318.634 403.147 313.239 406.83C316.528 406.876 317.317 409.492 319.744 409.397C317.402 409.764 316.42 407.76 313.149 406.993C313.149 406.993 312.805 407.646 314.792 409.932C316.78 412.219 319.315 409.896 322.114 410.189Z" fill="#28382D"/>
<path d="M410.189 135.557C408.158 138.719 403.147 139.038 406.831 144.433C406.876 141.144 409.492 140.354 409.397 137.928C409.764 140.27 407.76 141.251 406.993 144.523C406.993 144.523 407.646 144.867 409.932 142.879C412.218 140.892 409.896 138.357 410.189 135.557Z" fill="#28382D"/>
<path d="M322.114 47.4827C318.952 49.5139 318.634 54.5239 313.239 50.8408C316.528 50.7951 317.317 48.1797 319.744 48.2747C317.402 47.9071 316.42 49.9109 313.149 50.6786C313.149 50.6786 312.805 50.025 314.792 47.7387C316.78 45.4526 319.315 47.7753 322.114 47.4827Z" fill="#28382D"/>
<path d="M47.4826 135.557C49.5138 138.719 54.5238 139.038 50.8407 144.433C50.7949 141.144 48.1796 140.354 48.2746 137.928C47.907 140.27 49.9108 141.251 50.6785 144.523C50.6785 144.523 50.0249 144.867 47.7389 142.879C45.4528 140.892 47.7752 138.357 47.4826 135.557Z" fill="#28382D"/>
<path d="M135.557 410.189C138.719 408.157 139.037 403.147 144.433 406.83C141.143 406.876 140.354 409.492 137.927 409.397C140.27 409.764 141.251 407.76 144.522 406.993C144.522 406.993 144.867 407.646 142.879 409.932C140.891 412.219 138.357 409.896 135.557 410.189Z" fill="#28382D"/>
<path d="M410.189 322.115C408.158 318.952 403.147 318.634 406.831 313.239C406.876 316.528 409.492 317.317 409.397 319.744C409.764 317.401 407.76 316.42 406.993 313.149C406.993 313.149 407.646 312.804 409.932 314.792C412.218 316.78 409.896 319.315 410.189 322.115Z" fill="#28382D"/>
<path d="M172.494 5.75697C175.656 7.78817 175.975 12.7983 181.37 9.11514C178.081 9.06937 177.291 6.45407 174.865 6.54903C177.207 6.18147 178.188 8.18521 181.46 8.95295C181.46 8.95295 181.804 8.29934 179.816 6.01328C177.829 3.72692 175.294 6.0496 172.494 5.75697Z" fill="#28382D"/>
<path d="M5.75706 285.178C7.78826 282.016 12.7983 281.697 9.11522 276.302C9.06945 279.591 6.45415 280.381 6.54912 282.807C6.18155 280.465 8.18529 279.484 8.95303 276.212C8.95303 276.212 8.29942 275.868 6.01307 277.856C3.72701 279.843 6.04968 282.378 5.75706 285.178Z" fill="#28382D"/>
<path d="M285.177 451.914C282.015 449.883 281.697 444.873 276.301 448.556C279.59 448.602 280.38 451.217 282.806 451.122C280.464 451.49 279.483 449.486 276.212 448.718C276.212 448.718 275.867 449.372 277.855 451.658C279.842 453.944 282.377 451.622 285.177 451.914Z" fill="#28382D"/>
<path d="M451.914 172.494C449.883 175.656 444.873 175.974 448.556 181.37C448.602 178.08 451.217 177.291 451.122 174.864C451.49 177.207 449.486 178.188 448.718 181.459C448.718 181.459 449.372 181.804 451.658 179.816C453.944 177.828 451.622 175.293 451.914 172.494Z" fill="#28382D"/>
<path d="M285.177 5.75697C282.015 7.78817 281.697 12.7983 276.301 9.11514C279.59 9.06937 280.38 6.45407 282.806 6.54903C280.464 6.18147 279.483 8.18521 276.212 8.95295C276.212 8.95295 275.867 8.29934 277.855 6.01328C279.842 3.72692 282.377 6.0496 285.177 5.75697Z" fill="#28382D"/>
<path d="M5.75706 172.494C7.78826 175.656 12.7983 175.974 9.11522 181.37C9.06945 178.08 6.45415 177.291 6.54912 174.864C6.18155 177.207 8.18529 178.188 8.95303 181.459C8.95303 181.459 8.29942 181.804 6.01307 179.816C3.72701 177.828 6.04968 175.293 5.75706 172.494Z" fill="#28382D"/>
<path d="M172.494 451.914C175.656 449.883 175.975 444.873 181.37 448.556C178.081 448.602 177.291 451.217 174.865 451.122C177.207 451.49 178.188 449.486 181.46 448.718C181.46 448.718 181.804 449.372 179.816 451.658C177.828 453.945 175.294 451.622 172.494 451.914Z" fill="#28382D"/>
<path d="M451.914 285.178C449.883 282.016 444.873 281.697 448.556 276.302C448.602 279.591 451.217 280.381 451.122 282.807C451.49 280.465 449.486 279.484 448.718 276.212C448.718 276.212 449.372 275.868 451.658 277.856C453.944 279.843 451.622 282.378 451.914 285.178Z" fill="#28382D"/>
<path d="M177.648 17.4893C181.11 16.0253 185.425 18.5865 185.43 12.0575C183.536 14.7469 180.931 13.9226 179.64 15.9792C180.658 13.8382 182.866 14.1594 185.347 11.8919C185.347 11.8919 185.001 11.2386 181.992 11.5893C178.983 11.9397 179.47 15.3431 177.648 17.4893Z" fill="#28382D"/>
<path d="M17.4895 280.024C16.0255 276.562 18.5868 272.247 12.0578 272.242C14.7472 274.136 13.9228 276.741 15.9795 278.032C13.8384 277.013 14.1597 274.805 11.8922 272.325C11.8922 272.325 11.2389 272.67 11.5895 275.679C11.9399 278.688 15.343 278.202 17.4895 280.024Z" fill="#28382D"/>
<path d="M280.023 440.182C276.562 441.646 272.246 439.085 272.242 445.614C274.136 442.924 276.74 443.748 278.031 441.692C277.013 443.833 274.805 443.512 272.325 445.779C272.325 445.779 272.67 446.432 275.679 446.082C278.688 445.732 278.202 442.328 280.023 440.182Z" fill="#28382D"/>
<path d="M440.182 177.647C441.646 181.109 439.085 185.424 445.614 185.429C442.924 183.535 443.749 180.93 441.692 179.639C443.833 180.658 443.512 182.866 445.779 185.346C445.779 185.346 446.432 185.001 446.082 181.992C445.731 178.982 442.328 179.469 440.182 177.647Z" fill="#28382D"/>
<path d="M280.023 17.4893C276.562 16.0253 272.246 18.5865 272.242 12.0575C274.136 14.7469 276.74 13.9226 278.031 15.9792C277.013 13.8382 274.805 14.1594 272.325 11.8919C272.325 11.8919 272.67 11.2386 275.679 11.5893C278.688 11.9397 278.202 15.3431 280.023 17.4893Z" fill="#28382D"/>
<path d="M17.4895 177.647C16.0255 181.109 18.5868 185.424 12.0578 185.429C14.7472 183.535 13.9228 180.93 15.9795 179.639C13.8384 180.658 14.1597 182.866 11.8922 185.346C11.8922 185.346 11.2389 185.001 11.5895 181.992C11.9399 178.983 15.343 179.469 17.4895 177.647Z" fill="#28382D"/>
<path d="M177.648 440.182C181.11 441.646 185.425 439.085 185.43 445.614C183.536 442.924 180.931 443.748 179.64 441.692C180.658 443.833 182.866 443.512 185.347 445.779C185.347 445.779 185.001 446.432 181.992 446.082C178.983 445.732 179.47 442.328 177.648 440.182Z" fill="#28382D"/>
<path d="M440.182 280.024C441.646 276.562 439.085 272.247 445.614 272.242C442.924 274.136 443.749 276.741 441.692 278.032C443.833 277.013 443.512 274.805 445.779 272.325C445.779 272.325 446.432 272.67 446.082 275.679C445.731 278.688 442.328 278.202 440.182 280.024Z" fill="#28382D"/>
<path d="M204.996 41.3831C204.61 38.8075 201.536 37.1822 205.394 34.8192C204.489 36.9113 205.918 38.1531 205.168 39.6597C206.066 38.2835 205.078 37.0944 205.522 34.8086C205.522 34.8086 206.032 34.7766 206.913 36.6822C207.794 38.5876 205.606 39.5301 204.996 41.3831Z" fill="#28382D"/>
<path d="M41.383 252.675C38.8074 253.061 37.1821 256.135 34.8191 252.277C36.9112 253.182 38.1529 251.753 39.6595 252.502C38.2834 251.605 37.0943 252.593 34.8085 252.149C34.8085 252.149 34.7765 251.638 36.6821 250.757C38.5874 249.877 39.53 252.064 41.383 252.675Z" fill="#28382D"/>
<path d="M252.676 416.289C253.061 418.864 256.135 420.489 252.278 422.852C253.183 420.76 251.754 419.519 252.503 418.012C251.606 419.388 252.594 420.577 252.15 422.863C252.15 422.863 251.639 422.895 250.758 420.989C249.878 419.084 252.066 418.142 252.676 416.289Z" fill="#28382D"/>
<path d="M416.288 204.996C418.864 204.61 420.489 201.536 422.852 205.394C420.76 204.489 419.518 205.917 418.012 205.168C419.388 206.066 420.577 205.078 422.863 205.522C422.863 205.522 422.895 206.032 420.989 206.913C419.084 207.794 418.141 205.606 416.288 204.996Z" fill="#28382D"/>
<path d="M252.676 41.3831C253.061 38.8075 256.135 37.1822 252.278 34.8192C253.183 36.9113 251.754 38.1531 252.503 39.6597C251.606 38.2835 252.594 37.0944 252.15 34.8086C252.15 34.8086 251.639 34.7766 250.758 36.6822C249.878 38.5876 252.066 39.5301 252.676 41.3831Z" fill="#28382D"/>
<path d="M41.383 204.996C38.8074 204.61 37.1821 201.536 34.8191 205.394C36.9112 204.489 38.1529 205.917 39.6595 205.168C38.2834 206.066 37.0943 205.078 34.8085 205.522C34.8085 205.522 34.7765 206.032 36.6821 206.913C38.5874 207.794 39.53 205.606 41.383 204.996Z" fill="#28382D"/>
<path d="M204.996 416.289C204.61 418.864 201.536 420.489 205.394 422.852C204.489 420.76 205.918 419.519 205.168 418.012C206.066 419.388 205.078 420.577 205.522 422.863C205.522 422.863 206.032 422.895 206.913 420.989C207.794 419.084 205.606 418.142 204.996 416.289Z" fill="#28382D"/>
<path d="M416.288 252.675C418.864 253.061 420.489 256.135 422.852 252.277C420.76 253.182 419.518 251.753 418.012 252.502C419.388 251.605 420.577 252.593 422.863 252.149C422.863 252.149 422.895 251.638 420.989 250.757C419.084 249.877 418.141 252.064 416.288 252.675Z" fill="#28382D"/>
<path d="M206.848 43.2344C209.423 43.6203 211.049 46.6944 213.412 42.8365C211.319 43.7416 210.078 42.3128 208.571 43.0619C209.947 42.1643 211.136 43.1523 213.422 42.7087C213.422 42.7087 213.454 42.1978 211.549 41.3171C209.643 40.4363 208.701 42.624 206.848 43.2344Z" fill="#28382D"/>
<path d="M43.235 250.824C43.6209 248.248 46.695 246.623 42.8371 244.26C43.7422 246.352 42.3134 247.593 43.0625 249.1C42.1649 247.724 43.1529 246.535 42.7093 244.249C42.7093 244.249 42.1984 244.217 41.3177 246.123C40.4369 248.028 42.6249 248.971 43.235 250.824Z" fill="#28382D"/>
<path d="M250.823 414.436C248.248 414.05 246.622 410.976 244.259 414.834C246.352 413.929 247.593 415.358 249.1 414.609C247.724 415.506 246.535 414.518 244.249 414.962C244.249 414.962 244.217 415.473 246.122 416.354C248.028 417.234 248.971 415.047 250.823 414.436Z" fill="#28382D"/>
<path d="M414.436 206.847C414.051 209.423 410.976 211.048 414.834 213.411C413.929 211.319 415.358 210.077 414.609 208.571C415.507 209.947 414.519 211.136 414.962 213.422C414.962 213.422 415.473 213.454 416.354 211.548C417.234 209.643 415.047 208.7 414.436 206.847Z" fill="#28382D"/>
<path d="M250.823 43.2344C248.248 43.6203 246.622 46.6944 244.259 42.8365C246.352 43.7416 247.593 42.3128 249.1 43.0619C247.724 42.1643 246.535 43.1523 244.249 42.7087C244.249 42.7087 244.217 42.1978 246.122 41.3171C248.028 40.4363 248.971 42.624 250.823 43.2344Z" fill="#28382D"/>
<path d="M43.235 206.847C43.6209 209.423 46.695 211.048 42.8371 213.411C43.7422 211.319 42.3134 210.077 43.0625 208.571C42.1649 209.947 43.1529 211.136 42.7093 213.422C42.7093 213.422 42.1984 213.454 41.3177 211.548C40.4369 209.643 42.6249 208.7 43.235 206.847Z" fill="#28382D"/>
<path d="M206.848 414.436C209.423 414.05 211.049 410.976 213.412 414.834C211.319 413.929 210.078 415.358 208.571 414.609C209.947 415.506 211.136 414.518 213.422 414.962C213.422 414.962 213.454 415.473 211.549 416.354C209.643 417.234 208.701 415.047 206.848 414.436Z" fill="#28382D"/>
<path d="M414.436 250.824C414.051 248.248 410.976 246.623 414.834 244.26C413.929 246.352 415.358 247.593 414.609 249.1C415.507 247.724 414.519 246.535 414.962 244.249C414.962 244.249 415.473 244.217 416.354 246.123C417.234 248.028 415.047 248.971 414.436 250.824Z" fill="#28382D"/>
<path d="M161.931 18.3944C158.789 16.3329 154.083 18.0809 155.251 11.6538C156.632 14.6398 159.342 14.2962 160.243 16.5511C159.625 14.2619 157.395 14.1815 155.363 11.5059C155.363 11.5059 155.82 10.9252 158.717 11.8102C161.614 12.6952 160.524 15.9559 161.931 18.3944Z" fill="#28382D"/>
<path d="M18.3945 295.74C16.333 298.883 18.081 303.588 11.6539 302.42C14.6399 301.04 14.2964 298.329 16.5512 297.429C14.262 298.046 14.1816 300.276 11.506 302.309C11.506 302.309 10.9253 301.852 11.8103 298.954C12.6954 296.057 15.956 297.147 18.3945 295.74Z" fill="#28382D"/>
<path d="M295.74 439.276C298.883 441.338 303.589 439.59 302.42 446.017C301.04 443.031 298.329 443.374 297.429 441.12C298.046 443.409 300.276 443.489 302.308 446.165C302.308 446.165 301.852 446.746 298.954 445.86C296.057 444.975 297.147 441.715 295.74 439.276Z" fill="#28382D"/>
<path d="M439.276 161.931C441.338 158.788 439.59 154.083 446.017 155.251C443.031 156.631 443.375 159.341 441.12 160.242C443.409 159.625 443.489 157.395 446.165 155.362C446.165 155.362 446.746 155.819 445.861 158.716C444.976 161.614 441.715 160.524 439.276 161.931Z" fill="#28382D"/>
<path d="M295.74 18.3944C298.883 16.3329 303.589 18.0809 302.42 11.6538C301.04 14.6398 298.329 14.2962 297.429 16.5511C298.046 14.2619 300.276 14.1815 302.308 11.5059C302.308 11.5059 301.852 10.9252 298.954 11.8102C296.057 12.6952 297.147 15.9559 295.74 18.3944Z" fill="#28382D"/>
<path d="M18.3945 161.931C16.333 158.788 18.081 154.083 11.6539 155.251C14.6399 156.631 14.2964 159.341 16.5512 160.242C14.262 159.625 14.1816 157.395 11.506 155.362C11.506 155.362 10.9253 155.819 11.8103 158.716C12.6954 161.614 15.956 160.524 18.3945 161.931Z" fill="#28382D"/>
<path d="M161.931 439.276C158.789 441.338 154.083 439.59 155.251 446.017C156.632 443.031 159.342 443.374 160.243 441.12C159.625 443.409 157.395 443.489 155.363 446.165C155.363 446.165 155.82 446.746 158.717 445.86C161.614 444.975 160.524 441.715 161.931 439.276Z" fill="#28382D"/>
<path d="M439.276 295.74C441.338 298.883 439.59 303.588 446.017 302.42C443.031 301.04 443.375 298.329 441.12 297.429C443.409 298.046 443.489 300.276 446.165 302.309C446.165 302.309 446.746 301.852 445.861 298.954C444.976 296.057 441.715 297.147 439.276 295.74Z" fill="#28382D"/>
<path d="M102.757 36.8261C104.163 33.8095 101.233 30.2191 108.193 29.9785C105.413 31.6948 106.409 33.891 104.276 35.069C106.511 34.121 106.069 32.2454 108.373 30.0437C108.373 30.0437 109.084 30.3152 108.847 32.8996C108.609 35.4843 104.961 35.1914 102.757 36.8261Z" fill="#28382D"/>
<path d="M36.8267 354.915C33.8101 353.509 30.2197 356.438 29.9791 349.479C31.6954 352.259 33.8916 351.263 35.0696 353.396C34.1216 351.161 32.246 351.602 30.0443 349.299C30.0443 349.299 30.3158 348.587 32.9002 348.825C35.4846 349.062 35.192 352.71 36.8267 354.915Z" fill="#28382D"/>
<path d="M354.915 420.845C353.509 423.861 356.438 427.452 349.479 427.692C352.259 425.976 351.263 423.78 353.396 422.602C351.161 423.55 351.602 425.425 349.299 427.627C349.299 427.627 348.587 427.356 348.825 424.771C349.062 422.187 352.71 422.479 354.915 420.845Z" fill="#28382D"/>
<path d="M420.845 102.757C423.861 104.163 427.452 101.234 427.692 108.193C425.976 105.413 423.78 106.409 422.602 104.276C423.55 106.511 425.425 106.07 427.627 108.373C427.627 108.373 427.356 109.085 424.771 108.847C422.186 108.61 422.479 104.962 420.845 102.757Z" fill="#28382D"/>
<path d="M354.915 36.8261C353.509 33.8095 356.438 30.2191 349.479 29.9785C352.259 31.6948 351.263 33.891 353.396 35.069C351.161 34.121 351.602 32.2454 349.299 30.0437C349.299 30.0437 348.587 30.3152 348.825 32.8996C349.062 35.4843 352.71 35.1914 354.915 36.8261Z" fill="#28382D"/>
<path d="M36.8267 102.757C33.8101 104.163 30.2197 101.234 29.9791 108.193C31.6954 105.413 33.8916 106.409 35.0696 104.276C34.1216 106.511 32.246 106.07 30.0443 108.373C30.0443 108.373 30.3158 109.085 32.9002 108.847C35.4846 108.61 35.192 104.962 36.8267 102.757Z" fill="#28382D"/>
<path d="M102.757 420.845C104.163 423.861 101.233 427.452 108.193 427.692C105.413 425.976 106.409 423.78 104.276 422.602C106.511 423.55 106.069 425.425 108.373 427.627C108.373 427.627 109.084 427.356 108.847 424.771C108.609 422.187 104.961 422.479 102.757 420.845Z" fill="#28382D"/>
<path d="M420.845 354.915C423.861 353.509 427.452 356.438 427.692 349.479C425.976 352.259 423.78 351.263 422.602 353.396C423.55 351.161 425.425 351.602 427.627 349.299C427.627 349.299 427.356 348.587 424.771 348.825C422.187 349.062 422.479 352.71 420.845 354.915Z" fill="#28382D"/>
<path d="M106.459 20.6997C107.773 24.1208 105.034 28.2132 111.552 28.4867C108.947 26.535 109.88 24.0373 107.882 22.698C109.976 23.7761 109.562 25.9089 111.721 28.4126C111.721 28.4126 112.388 28.104 112.165 25.1649C111.943 22.2258 108.525 22.5587 106.459 20.6997Z" fill="#28382D"/>
<path d="M20.7001 351.213C24.1212 349.899 28.2136 352.638 28.4871 346.119C26.5354 348.724 24.0376 347.791 22.6984 349.789C23.7765 347.695 25.9092 348.109 28.413 345.95C28.413 345.95 28.1043 345.284 25.1652 345.507C22.2261 345.729 22.5591 349.147 20.7001 351.213Z" fill="#28382D"/>
<path d="M351.212 436.971C349.899 433.55 352.637 429.458 346.119 429.185C348.724 431.136 347.791 433.634 349.789 434.973C347.695 433.895 348.109 431.762 345.95 429.259C345.95 429.259 345.284 429.567 345.506 432.506C345.729 435.445 349.147 435.112 351.212 436.971Z" fill="#28382D"/>
<path d="M436.971 106.458C433.55 107.772 429.458 105.033 429.184 111.552C431.136 108.947 433.634 109.88 434.973 107.882C433.895 109.976 431.762 109.562 429.258 111.72C429.258 111.72 429.567 112.387 432.506 112.164C435.445 111.942 435.112 108.524 436.971 106.458Z" fill="#28382D"/>
<path d="M351.212 20.6997C349.899 24.1208 352.637 28.2132 346.119 28.4867C348.724 26.535 347.791 24.0373 349.789 22.698C347.695 23.7761 348.109 25.9089 345.95 28.4126C345.95 28.4126 345.284 28.104 345.506 25.1649C345.729 22.2258 349.147 22.5587 351.212 20.6997Z" fill="#28382D"/>
<path d="M20.7001 106.458C24.1212 107.772 28.2136 105.033 28.4871 111.552C26.5354 108.947 24.0376 109.88 22.6984 107.882C23.7765 109.976 25.9092 109.562 28.413 111.72C28.413 111.72 28.1043 112.387 25.1652 112.164C22.2261 111.942 22.5591 108.524 20.7001 106.458Z" fill="#28382D"/>
<path d="M106.459 436.971C107.773 433.55 105.034 429.458 111.552 429.185C108.947 431.136 109.88 433.634 107.882 434.973C109.976 433.895 109.562 431.762 111.721 429.259C111.721 429.259 112.388 429.567 112.165 432.506C111.943 435.445 108.525 435.112 106.459 436.971Z" fill="#28382D"/>
<path d="M436.971 351.213C433.55 349.899 429.458 352.638 429.184 346.119C431.136 348.724 433.634 347.791 434.973 349.789C433.895 347.695 431.762 348.109 429.258 345.95C429.258 345.95 429.567 345.284 432.506 345.507C435.445 345.729 435.112 349.147 436.971 351.213Z" fill="#28382D"/>
<path d="M89.7157 19.624C93.4217 23.9001 91.7558 31.2726 101.113 28.2417C96.3805 26.7797 96.3496 22.6667 92.8044 21.7745C96.3439 22.2373 96.9109 25.5483 101.311 28.0454C101.311 28.0454 102.086 27.2474 100.185 23.1015C98.2836 18.9555 93.6365 21.235 89.7157 19.624Z" fill="#28382D"/>
<path d="M19.6243 367.955C23.9003 364.249 31.2729 365.915 28.2419 356.559C26.78 361.291 22.6669 361.321 21.7747 364.867C22.2376 361.327 25.5485 360.76 28.0457 356.36C28.0457 356.36 27.2476 355.585 23.1017 357.487C18.9555 359.388 21.235 364.035 19.6243 367.955Z" fill="#28382D"/>
<path d="M367.956 438.047C364.25 433.771 365.915 426.399 356.559 429.43C361.291 430.892 361.322 435.005 364.867 435.897C361.327 435.434 360.76 432.123 356.36 429.626C356.36 429.626 355.585 430.424 357.487 434.57C359.388 438.716 364.035 436.436 367.956 438.047Z" fill="#28382D"/>
<path d="M438.047 89.7158C433.771 93.4218 426.399 91.7559 429.429 101.113C430.891 96.3804 435.004 96.3498 435.897 92.8045C435.434 96.3441 432.123 96.911 429.626 101.311C429.626 101.311 430.424 102.086 434.57 100.185C438.716 98.2837 436.436 93.6363 438.047 89.7158Z" fill="#28382D"/>
<path d="M367.956 19.624C364.25 23.9001 365.915 31.2726 356.559 28.2417C361.291 26.7797 361.322 22.6667 364.867 21.7745C361.327 22.2373 360.76 25.5483 356.36 28.0454C356.36 28.0454 355.585 27.2474 357.487 23.1015C359.388 18.9555 364.035 21.235 367.956 19.624Z" fill="#28382D"/>
<path d="M19.6243 89.7158C23.9003 93.4218 31.2729 91.7559 28.2419 101.113C26.78 96.3804 22.6669 96.3498 21.7747 92.8045C22.2376 96.3441 25.5485 96.911 28.0457 101.311C28.0457 101.311 27.2476 102.086 23.1017 100.185C18.9555 98.2834 21.235 93.6363 19.6243 89.7158Z" fill="#28382D"/>
<path d="M89.7157 438.047C93.4217 433.771 91.7558 426.399 101.113 429.43C96.3805 430.892 96.3496 435.005 92.8044 435.897C96.3439 435.434 96.9109 432.123 101.311 429.626C101.311 429.626 102.086 430.424 100.185 434.57C98.2836 438.716 93.6365 436.436 89.7157 438.047Z" fill="#28382D"/>
<path d="M438.047 367.955C433.771 364.249 426.399 365.915 429.429 356.559C430.891 361.291 435.004 361.321 435.897 364.867C435.434 361.327 432.123 360.76 429.626 356.36C429.626 356.36 430.424 355.585 434.57 357.487C438.716 359.388 436.436 364.035 438.047 367.955Z" fill="#28382D"/>
<path d="M27.6059 27.6056C38.485 28.0049 47.4348 31.3837 54.0107 27.8482C47.3152 31.2707 38.239 27.5927 27.1196 27.1196C27.593 38.239 31.2707 47.3152 27.8482 54.0107C31.384 47.4342 28.0052 38.4845 27.6059 27.6056Z" fill="#7E3F15"/>
<path d="M430.066 27.6059C429.666 38.485 426.287 47.4348 429.823 54.0107C426.401 47.3152 430.078 38.239 430.552 27.1196C419.432 27.593 410.356 31.2707 403.661 27.8482C410.237 31.384 419.186 28.0052 430.066 27.6059Z" fill="#7E3F15"/>
<path d="M430.066 430.065C419.186 429.666 410.237 426.287 403.661 429.823C410.356 426.4 419.432 430.078 430.552 430.551C430.078 419.432 426.401 410.356 429.823 403.66C426.287 410.237 429.666 419.186 430.066 430.065Z" fill="#7E3F15"/>
<path d="M27.6057 430.065C28.0051 419.186 31.3838 410.236 27.8483 403.66C31.2708 410.356 27.5929 419.432 27.1198 430.551C38.2392 430.078 47.3153 426.4 54.0108 429.823C47.4346 426.287 38.4849 429.666 27.6057 430.065Z" fill="#7E3F15"/>
<path d="M51.8945 36.8261C49.69 35.1914 46.042 35.484 45.8043 32.8996C45.5666 30.3152 46.2783 30.0437 46.2783 30.0437C48.5821 32.2454 48.1402 34.121 50.3753 35.069C48.2426 33.8913 49.2383 31.6948 46.4582 29.9785C53.418 30.2194 50.4886 33.8095 51.8945 36.8261Z" fill="#28382D"/>
<path d="M36.8267 405.776C35.192 407.981 35.4846 411.629 32.9002 411.867C30.3158 412.104 30.0443 411.393 30.0443 411.393C32.246 409.089 34.1216 409.531 35.0696 407.296C33.8919 409.428 31.6954 408.433 29.9791 411.213C30.2197 404.253 33.8098 407.182 36.8267 405.776Z" fill="#28382D"/>
<path d="M405.777 420.845C407.982 422.479 411.63 422.187 411.867 424.771C412.105 427.356 411.393 427.627 411.393 427.627C409.089 425.425 409.531 423.55 407.296 422.602C409.429 423.78 408.433 425.976 411.213 427.692C404.254 427.452 407.183 423.861 405.777 420.845Z" fill="#28382D"/>
<path d="M420.845 51.8948C422.48 49.6903 422.187 46.0424 424.771 45.8049C427.356 45.5672 427.627 46.2789 427.627 46.2789C425.426 48.5827 423.55 48.1408 422.602 50.3759C423.78 48.2432 425.976 49.2389 427.692 46.4588C427.452 53.4183 423.861 50.4889 420.845 51.8948Z" fill="#28382D"/>
<path d="M405.777 36.8261C407.982 35.1914 411.63 35.484 411.867 32.8996C412.105 30.3152 411.393 30.0437 411.393 30.0437C409.089 32.2454 409.531 34.121 407.296 35.069C409.429 33.8913 408.433 31.6948 411.213 29.9785C404.254 30.2194 407.183 33.8095 405.777 36.8261Z" fill="#28382D"/>
<path d="M36.8267 51.8948C35.192 49.6903 35.4846 46.0424 32.9002 45.8049C30.3158 45.5672 30.0443 46.2789 30.0443 46.2789C32.246 48.5827 34.1216 48.1408 35.0696 50.3759C33.8919 48.2432 31.6954 49.2389 29.9791 46.4588C30.2197 53.4183 33.8098 50.4889 36.8267 51.8948Z" fill="#28382D"/>
<path d="M51.8945 420.845C49.69 422.479 46.042 422.187 45.8043 424.771C45.5666 427.356 46.2783 427.627 46.2783 427.627C48.5821 425.425 48.1402 423.55 50.3753 422.602C48.2426 423.78 49.2383 425.976 46.4582 427.692C53.418 427.452 50.4886 423.861 51.8945 420.845Z" fill="#28382D"/>
<path d="M420.845 405.776C422.48 407.981 422.187 411.629 424.771 411.867C427.356 412.104 427.627 411.393 427.627 411.393C425.426 409.089 423.55 409.531 422.602 407.296C423.78 409.428 425.976 408.433 427.692 411.213C427.452 404.253 423.861 407.182 420.845 405.776Z" fill="#28382D"/>
<path d="M42.4859 25.1649C42.2634 28.1037 42.9299 28.4126 42.9299 28.4126C45.0883 25.9089 44.6744 23.7761 46.7686 22.698C44.7703 24.0373 45.7033 26.535 43.0986 28.4867C49.617 28.2132 46.8781 24.1208 48.1916 20.6997C46.1264 22.559 42.7085 22.226 42.4859 25.1649Z" fill="#28382D"/>
<path d="M25.1654 415.185C28.1042 415.408 28.4131 414.741 28.4131 414.741C25.9094 412.583 23.7766 412.997 22.6985 410.903C24.0378 412.901 26.5355 411.968 28.4872 414.573C28.2137 408.054 24.1213 410.793 20.7002 409.479C22.5592 411.545 22.2262 414.963 25.1654 415.185Z" fill="#28382D"/>
<path d="M415.186 432.506C415.408 429.568 414.742 429.259 414.742 429.259C412.583 431.762 412.997 433.895 410.903 434.973C412.901 433.634 411.968 431.136 414.573 429.185C408.055 429.458 410.794 433.55 409.48 436.972C411.545 435.112 414.963 435.445 415.186 432.506Z" fill="#28382D"/>
<path d="M432.506 42.4854C429.567 42.2629 429.258 42.9294 429.258 42.9294C431.762 45.0879 433.895 44.674 434.973 46.7681C433.634 44.7698 431.136 45.7028 429.184 43.0981C429.458 49.6165 433.55 46.8776 436.971 48.1911C435.112 46.1259 435.445 42.708 432.506 42.4854Z" fill="#28382D"/>
<path d="M415.186 25.1649C415.408 28.1037 414.742 28.4126 414.742 28.4126C412.583 25.9089 412.997 23.7761 410.903 22.698C412.901 24.0373 411.968 26.535 414.573 28.4867C408.055 28.2132 410.794 24.1208 409.48 20.6997C411.545 22.559 414.963 22.226 415.186 25.1649Z" fill="#28382D"/>
<path d="M25.1654 42.4854C28.1042 42.2629 28.4131 42.9294 28.4131 42.9294C25.9094 45.0879 23.7766 44.674 22.6985 46.7681C24.0378 44.7698 26.5355 45.7028 28.4872 43.0981C28.2137 49.6165 24.1213 46.8776 20.7002 48.1911C22.5592 46.1259 22.2262 42.708 25.1654 42.4854Z" fill="#28382D"/>
<path d="M42.4859 432.506C42.2634 429.568 42.9299 429.259 42.9299 429.259C45.0883 431.762 44.6744 433.895 46.7686 434.973C44.7703 433.634 45.7033 431.136 43.0986 429.185C49.617 429.458 46.8781 433.55 48.1916 436.972C46.1264 435.112 42.7085 435.445 42.4859 432.506Z" fill="#28382D"/>
<path d="M432.506 415.185C429.567 415.408 429.258 414.741 429.258 414.741C431.762 412.583 433.895 412.997 434.973 410.903C433.634 412.901 431.136 411.968 429.184 414.573C429.458 408.054 433.55 410.793 436.971 409.479C435.112 411.545 435.445 414.963 432.506 415.185Z" fill="#28382D"/>
<path d="M64.9352 19.624C61.0147 21.2347 56.3676 18.9552 54.4663 23.1012C52.5652 27.2471 53.3401 28.0452 53.3401 28.0452C57.7401 25.548 58.307 22.237 61.8465 21.7742C58.3013 22.6664 58.2707 26.7797 53.5384 28.2414C62.8952 31.2726 61.2292 23.9004 64.9352 19.624Z" fill="#28382D"/>
<path d="M19.6243 392.736C21.235 396.656 18.9555 401.303 23.1014 403.205C27.2473 405.106 28.0454 404.331 28.0454 404.331C25.5482 399.931 22.2373 399.364 21.7745 395.825C22.6666 399.37 26.7799 399.401 28.2416 404.133C31.2726 394.776 23.9003 396.442 19.6243 392.736Z" fill="#28382D"/>
<path d="M392.736 438.047C396.657 436.436 401.304 438.716 403.205 434.57C405.106 430.424 404.331 429.626 404.331 429.626C399.931 432.123 399.364 435.434 395.825 435.897C399.37 435.005 399.401 430.891 404.133 429.43C394.776 426.399 396.442 433.771 392.736 438.047Z" fill="#28382D"/>
<path d="M438.047 64.9346C436.437 61.0141 438.716 56.3671 434.57 54.4657C430.424 52.5647 429.626 53.3393 429.626 53.3393C432.123 57.7392 435.434 58.3061 435.897 61.8456C435.005 58.3004 430.892 58.2698 429.43 53.5375C426.399 62.8943 433.771 61.2284 438.047 64.9346Z" fill="#28382D"/>
<path d="M392.736 19.624C396.657 21.2347 401.304 18.9552 403.205 23.1012C405.106 27.2471 404.331 28.0452 404.331 28.0452C399.931 25.548 399.364 22.237 395.825 21.7742C399.37 22.6664 399.401 26.7797 404.133 28.2414C394.776 31.2726 396.442 23.9004 392.736 19.624Z" fill="#28382D"/>
<path d="M19.6243 64.9346C21.235 61.0141 18.9555 56.3671 23.1014 54.4657C27.2473 52.5647 28.0454 53.3393 28.0454 53.3393C25.5482 57.7392 22.2373 58.3061 21.7745 61.8456C22.6666 58.3004 26.7799 58.2698 28.2416 53.5375C31.2726 62.8943 23.9003 61.2284 19.6243 64.9346Z" fill="#28382D"/>
<path d="M64.9352 438.047C61.0147 436.436 56.3676 438.716 54.4663 434.57C52.5652 430.424 53.3401 429.626 53.3401 429.626C57.7401 432.123 58.307 435.434 61.8465 435.897C58.3013 435.005 58.2707 430.891 53.5384 429.43C62.8952 426.399 61.2292 433.771 64.9352 438.047Z" fill="#28382D"/>
<path d="M438.047 392.736C436.437 396.656 438.716 401.303 434.57 403.205C430.424 405.106 429.626 404.331 429.626 404.331C432.123 399.931 435.434 399.364 435.897 395.825C435.005 399.37 430.892 399.401 429.43 404.133C426.399 394.776 433.771 396.442 438.047 392.736Z" fill="#28382D"/>
</svg>
