<svg width="260" height="144" viewBox="0 0 260 144" fill="none" xmlns="http://www.w3.org/2000/svg">
<path d="M147.499 142.801C131.502 142.339 133.452 142.238 161.916 142.051C180.02 141.932 194.584 141.586 194.279 141.282C193.549 140.552 132.644 140.695 115.968 141.466C107.156 141.873 101.004 141.662 96.968 140.813C90.5978 139.475 63.457 139.359 53 140.627C49.7 141.026 43.85 141.019 40 140.609C36.15 140.2 25.575 139.657 16.5 139.402C2.394 139.007 0 138.713 0 137.375C0 136.514 1.2119 135.028 2.6931 134.073C5.6892 132.143 29.4691 114.983 30.9261 113.703C31.4764 113.219 31.172 112.136 30.1761 111.036C27.9863 108.616 28.0018 108.461 31.4493 98.325C33.6303 91.9126 35.9103 87.6861 40.1993 82.1031C43.3895 77.9505 48.2093 71.658 50.9103 68.12L55.8206 61.6872L78.4106 50.5142C100.016 39.8282 101.262 39.3471 107.001 39.4761C110.301 39.5504 114.576 40.3203 116.501 41.187C120.511 42.9923 118.678 43.3543 113.494 41.7807C105.83 39.4543 103.322 40.197 79.938 51.718L57.614 62.717L49.7791 72.5516C40.2515 84.5106 37.1291 89.4306 38.0841 90.9776C38.5372 91.7107 38.3761 91.8828 37.6544 91.4368C36.348 90.6294 36.2376 90.9942 37.1047 93.2538C37.4373 94.1206 37.9998 94.6547 38.3547 94.4406C38.7095 94.2265 39.6279 94.7302 40.3954 95.5599C41.6184 96.882 41.4948 96.9788 39.3954 96.3426C37.5805 95.7925 37.2693 95.9012 38.1116 96.7907C39.3621 98.1114 37.6813 104.109 34.8492 108.431C32.5695 111.91 33.5176 112.193 37.7708 109.303C40.1305 107.7 41.2262 106.292 40.8592 105.335C40.5462 104.52 39.8874 104.102 39.3951 104.406C38.9027 104.71 38.4998 104.435 38.4998 103.793C38.4998 103.152 39.1378 102.872 39.9174 103.171C40.6971 103.47 42.718 102.394 44.4083 100.778C46.6741 98.6128 47.0461 97.8411 45.824 97.8411C44.9124 97.8411 44.4834 97.5243 44.8705 97.1371C45.2578 96.7499 46.7952 96.4124 48.2872 96.3871C50.6243 96.3475 50.9998 95.9259 50.9998 93.3412C50.9998 91.6912 50.3255 89.8155 49.5014 89.173C48.6773 88.5305 48.3473 87.6605 48.7681 87.2397C49.1889 86.8189 50.0368 86.9782 50.6522 87.5937C51.4776 88.4191 52.148 88.3359 53.207 87.277C53.9967 86.4873 55.1731 85.8482 55.8213 85.8566C56.5122 85.8656 56.3792 86.273 55.4999 86.8413C54.6749 87.3744 54.4234 87.8175 54.941 87.826C55.4586 87.834 55.0093 88.4795 53.9426 89.2595C52.8758 90.0396 52.3398 91.0146 52.7515 91.4263C53.1631 91.8379 53.4999 91.6497 53.4999 91.008C53.4999 90.3663 54.1446 89.8413 54.9325 89.8413C56.2988 89.8413 58.1438 86.2572 57.6732 84.517C57.5506 84.0636 57.9146 83.9797 58.4821 84.3304C59.0497 84.6811 59.789 84.2514 60.1251 83.3753C60.6702 81.9549 60.8889 81.9751 62.1453 83.5619C63.4775 85.2443 63.5393 85.2323 63.2771 83.3413C63.0698 81.8462 63.5047 81.4107 64.9998 81.6162C66.7945 81.8629 66.8245 81.7832 65.2914 80.8398C64.3517 80.2616 63.8374 79.1254 64.1484 78.3149C64.4743 77.4657 64.1394 76.8349 63.3568 76.826C62.2927 76.814 62.317 76.61 63.4696 75.8812C64.6797 75.1159 64.4146 74.5004 61.9696 72.3977C59.7928 70.5257 59.4466 69.8434 60.6731 69.8425C61.5934 69.8418 63.6627 70.9489 65.2714 72.3026C67.2858 73.9976 69.0049 74.6173 70.7931 74.293C72.5166 73.9804 73.6944 74.3666 74.2958 75.4412C75.1271 76.9267 75.2528 76.9275 75.8195 75.4512C76.1592 74.5659 75.9747 73.8417 75.4095 73.8417C74.8443 73.8417 74.6766 73.3647 75.0369 72.7819C75.4508 72.1121 76.1969 72.3881 77.0641 73.5319C78.383 75.2714 78.4375 75.269 78.4681 73.4693C78.4936 71.9653 78.7795 71.8289 79.9212 72.7764C81.098 73.753 81.2402 73.559 80.7477 71.6488C80.217 69.5898 80.333 69.4892 81.8265 70.7141C83.2674 71.8958 83.4999 71.8611 83.4999 70.4641C83.4999 68.5479 85.0855 68.3026 85.9072 70.0917C86.223 70.7792 86.2302 70.3292 85.9231 69.0917C85.6064 67.8151 85.8268 66.8417 86.4324 66.8417C87.0195 66.8417 87.5067 67.4042 87.5151 68.0917C87.5253 68.9261 87.8439 68.8458 88.4734 67.85C89.2245 66.662 89.6692 66.6112 90.6581 67.6C91.3826 68.3244 91.4682 68.8416 90.8637 68.8416C90.2938 68.8416 87.1328 71.0043 83.8392 73.6476C78.4911 77.9397 75.7492 79.4724 70.4072 81.1561C69.5313 81.4322 68.0677 83.2322 67.1547 85.1563C65.5251 88.5904 58.2842 93.8417 55.1787 93.8417C53.7729 93.8417 52.0036 96.5091 52.3472 98.1103C52.4379 98.5331 51.3844 99.3928 50.006 100.021C48.6276 100.649 47.4998 101.468 47.4998 101.842C47.4998 102.215 46.3494 103.045 44.9434 103.685C43.5374 104.326 42.6402 105.26 42.9496 105.761C43.259 106.261 42.9797 106.848 42.3289 107.065C41.1468 107.459 42.0015 109.862 43.3088 109.82C43.6888 109.807 45.1248 108.877 46.4998 107.752L48.9998 105.708L46.4998 106.831L43.9998 107.955L46.1574 106.148C54.184 99.4278 60.6594 94.6682 61.1334 95.1422C61.4389 95.4478 59.8039 96.8877 57.5 98.3421C55.1961 99.7965 53.5706 101.246 53.8879 101.563C54.2052 101.881 57.7352 99.4585 61.7324 96.1808C65.7296 92.9031 74.9574 85.6198 82.2384 79.9958C89.5193 74.3719 95.3694 69.2808 95.2384 68.6808C95.1074 68.0817 95.6255 67.3644 96.3895 67.0868C97.3489 66.7382 97.5278 67.0089 96.9676 67.9618C96.3823 68.9574 96.6916 68.9103 98.0784 67.7924C99.1354 66.9404 102.583 64.3019 105.739 61.9292C108.896 59.5565 111.263 57.2671 111 56.8417C110.737 56.4163 111.305 55.4547 112.261 54.7049C113.835 53.4712 113.87 53.508 112.628 55.0916C111.81 56.1341 111.685 56.8416 112.319 56.8416C113.448 56.8416 114.959 54.9274 114.985 53.4645C115.004 52.3695 129.371 40.3785 129.959 40.9665C130.195 41.2026 127.005 44.0129 122.871 47.2115C118.736 50.4101 115.573 53.247 115.842 53.5158C116.111 53.7846 120.152 50.9302 124.822 47.1728C129.492 43.4154 141.526 34.0408 151.564 26.3408C173.397 9.59378 177.963 5.87277 176.845 5.74077C176.38 5.68597 177.125 5.29791 178.5 4.87844C180.565 4.24863 180.711 3.99213 179.341 3.40612C177.501 2.61896 171.71 6.61692 139.339 31.0191C128.526 39.1708 119.301 45.8301 118.839 45.8181C117.722 45.7885 118.647 45.0636 150.756 20.8081C179.285 -0.742874 182.234 -2.39287 184.536 1.90813C186.094 4.81783 184.022 7.61832 176.301 13.0401C172.836 15.4739 166.814 19.7997 162.918 22.653C159.024 25.5063 155.311 27.8409 154.668 27.8409C154.026 27.8409 153.497 28.1784 153.493 28.5909C153.489 29.0034 150.055 32.0409 145.863 35.3409C141.67 38.6409 137.061 42.325 135.62 43.5277L133 45.7145L150.701 54.2777C168.267 62.7759 171.946 63.9958 172.753 61.5909C173.058 60.6828 175.679 60.4214 182.336 60.6351C189.412 60.8622 191.5 60.6281 191.5 59.608C191.5 58.8813 192.866 56.7909 194.536 54.9627L197.572 51.6387L205.786 52.1162C210.303 52.3789 220.145 53.1922 227.656 53.9236L241.312 55.2534L243.511 64.7972C246.675 78.5292 247.461 80.4772 246.96 73.341C246.604 68.283 246.683 67.8905 247.465 70.841C247.975 72.766 248.605 79.966 248.866 86.841C249.127 93.716 249.119 97.766 248.849 95.841C248.579 93.916 247.884 91.891 247.305 91.341C246.57 90.6427 246.487 92.0002 247.029 95.841C247.456 98.866 247.94 103.082 248.105 105.209C248.27 107.337 248.698 109.362 249.056 109.709C249.414 110.057 249.549 107.978 249.354 105.09C249.16 102.203 249.402 99.8401 249.893 99.8404C250.397 99.8408 250.584 106.894 250.324 116.091C250.07 125.029 250.178 130.991 250.563 129.341C250.949 127.691 251.317 119.929 251.383 112.091C251.449 104.06 251.907 97.8414 252.431 97.8414C253.395 97.8414 253.223 118.11 252.158 129.841L251.568 136.341L252.939 131.341C253.692 128.591 254.352 124.231 254.405 121.65C254.458 119.07 254.951 116.681 255.501 116.341C257.056 115.38 256.709 124.869 254.934 131.795C254.072 135.159 253.542 138.683 253.754 139.626C253.967 140.57 254.773 138.642 255.545 135.342C256.779 130.065 256.989 129.734 257.288 132.592C257.475 134.379 258.049 135.842 258.564 135.842C259.981 135.842 259.686 139.207 258.077 141.401C256.704 143.273 255.04 143.342 211.327 143.342C186.398 143.342 157.676 143.101 147.501 142.807L147.499 142.801ZM191.499 139.058C191.499 138.63 190.852 137.357 190.062 136.229C188.79 134.412 188.019 134.264 183.312 134.933C180.39 135.349 167.199 135.641 153.999 135.583L129.999 135.477L158.425 134.878C179.484 134.434 186.957 133.963 187.258 133.057C187.482 132.385 189.203 131.835 191.082 131.835C193.675 131.835 194.495 131.413 194.484 130.085C194.474 128.998 194.19 128.755 193.734 129.444C192.965 130.604 184.499 131.005 184.499 129.882C184.499 129.527 182.811 129.448 180.749 129.706L176.999 130.175L181.499 131.324C185.292 132.292 181.049 132.576 154.499 133.129C137.174 133.49 121.874 134.082 120.499 134.446C118.718 134.917 118.288 134.793 119.006 134.014C119.647 133.319 128.382 132.709 143.006 132.337C166.48 131.742 177.051 131.054 176.177 130.18C175.907 129.91 167.657 129.628 157.843 129.553L139.999 129.418L154.761 129.1L169.523 128.782L168.011 125.858C167.18 124.25 166.499 122.223 166.499 121.354C166.499 120.484 165.799 119.504 164.942 119.175C164.085 118.846 163.621 117.96 163.911 117.206C164.2 116.452 163.818 115.835 163.062 115.835C162.12 115.835 161.881 115.126 162.303 113.585C162.803 111.756 162.987 111.662 163.282 113.085C163.482 114.048 164.288 114.835 165.073 114.835C165.857 114.835 166.499 115.21 166.499 115.669C166.499 116.127 167.062 116.506 167.749 116.511C168.437 116.516 170.124 116.851 171.499 117.254L173.999 117.987L171.499 116.161C168.893 114.258 167.773 111.835 169.499 111.835C170.049 111.835 170.499 112.233 170.499 112.719C170.499 113.204 171.624 113.817 172.999 114.08C174.374 114.343 175.499 114.122 175.499 113.59C175.499 113.057 176.13 112.863 176.901 113.159C178.845 113.905 179.503 111.089 180.129 99.335C180.707 88.49 178.581 69.843 176.477 67.308C175.811 66.5059 173.427 65.3543 171.178 64.7489C166.777 63.5636 139.279 51.3799 136.027 49.1729C131.869 46.3521 130.078 47.2211 118.028 57.9072C115.813 59.872 112.313 62.7379 110.25 64.2759C108.188 65.8139 106.5 67.9189 106.5 68.9536C106.5 71.4148 107.247 71.3274 109.654 68.5849C111.022 67.0261 111.788 66.7189 112.148 67.5849C112.433 68.2724 113.36 68.8349 114.206 68.8349C115.461 68.8349 115.515 69.112 114.5 70.3349C113.816 71.1599 112.748 71.828 112.128 71.8196C111.463 71.8106 111.557 71.4517 112.357 70.9446C113.305 70.3441 113.379 69.8783 112.605 69.3997C111.972 69.0085 111.109 69.7058 110.593 71.0247C110.097 72.2953 109.23 74.5152 108.668 75.9579C107.945 77.8143 107.976 78.9103 108.773 79.7079C109.609 80.5438 109.599 80.8349 108.732 80.8349C108.089 80.8349 107.827 81.5231 108.15 82.3643C108.657 83.6863 108.92 83.6524 110.087 82.1143C112 79.5923 111.96 82.43 110.03 86.1301C108.712 88.6571 108.737 88.9781 110.286 89.476C111.229 89.7789 112.675 90.28 113.5 90.5896C114.325 90.8991 115.401 91.0598 115.891 90.9466C117.301 90.621 123.5 93.8268 123.5 94.8818C123.5 95.406 124.175 95.8349 125 95.8349C126.501 95.8349 127.166 97.7217 125.75 97.9625C122.075 98.588 118.839 98.4359 111.755 97.3047C103.648 96.0101 103.431 96.0302 98.7553 98.5106C85.1133 105.748 81.7683 108.545 82.4133 112.179C82.4956 112.643 81.9864 112.811 81.2817 112.554C80.577 112.296 80.0931 111.638 80.2063 111.092C80.3195 110.547 77.1695 109.15 73.2063 107.988C64.7069 105.498 57.3113 105.894 50.4893 109.205C44.7405 111.996 44.1482 113.816 49.196 113.179C51.2882 112.915 54.8 113.08 57 113.545C60.1651 114.213 61.2986 115.062 62.4305 117.612C63.2172 119.385 64.4547 120.835 65.1805 120.835C65.9062 120.835 66.5 121.233 66.5 121.72C66.5 122.856 77.094 124.204 78.619 123.262C79.3964 122.781 78.9946 121.939 77.3864 120.679C75.6322 119.304 75.4966 118.985 76.8741 119.476C78.1004 119.913 79.0678 119.572 79.6738 118.489C80.9561 116.198 84.157 116.414 84.7901 118.835C85.1088 120.054 86.1541 120.835 87.4657 120.835C88.6497 120.835 89.3402 121.285 89.0003 121.835C88.2231 123.093 89.6452 123.111 92.8713 121.884C94.8305 121.139 95.4405 121.263 95.6864 122.454C95.9398 123.682 97.3014 123.319 102.75 120.573C106.463 118.702 109.5 117.587 109.5 118.096C109.5 118.606 108.6 119.257 107.5 119.545C106.4 119.833 105.5 120.424 105.5 120.858C105.5 121.292 106.4 121.412 107.5 121.125C108.69 120.814 109.5 121.094 109.5 121.817C109.5 122.609 110.72 122.313 113 120.967C116.523 118.889 117.568 119.273 115.25 121.795C114.563 122.543 115.68 122.151 117.732 120.925C119.785 119.698 121.917 118.974 122.471 119.317C123.073 119.689 123.22 119.269 122.837 118.271C122.278 116.813 122.486 116.757 124.484 117.826C126.296 118.796 126.483 119.232 125.386 119.927C124.624 120.41 124.45 120.804 125 120.804C127.691 120.804 128.416 119.207 126.479 117.549C125.391 116.617 124.507 115.288 124.516 114.595C124.528 113.584 124.689 113.583 125.329 114.592C126.408 116.291 129.7 112.485 131.186 107.821C132.243 104.501 132.301 104.466 132.398 107.085C132.455 108.597 132.951 109.835 133.501 109.835C134.051 109.835 134.501 110.333 134.501 110.942C134.501 111.55 133.84 111.795 133.033 111.485C130.984 110.699 130.2 112.404 131.496 114.827C132.393 116.501 132.943 116.668 134.618 115.772C136.491 114.769 136.559 114.856 135.483 116.866C134.604 118.51 134.031 118.766 133.166 117.9C132.301 117.035 131.396 117.512 129.501 119.834C127.339 122.483 126.001 123.055 119.993 123.898C111.118 125.143 109.312 125.72 110.132 127.048C110.579 127.771 116.004 127.947 126.897 127.592C140.926 127.135 141.712 127.184 133.001 127.974C114.526 129.65 111.537 130.753 126.501 130.373L140.001 130.03L130.001 130.967C124.501 131.482 117.976 132.195 115.501 132.551L111.001 133.199L114.501 133.885L118.001 134.571L114.001 134.844C110.155 135.106 110.213 135.146 115.501 135.877C118.526 136.295 126.401 136.745 133.001 136.878C141.536 137.049 143.846 137.326 141.001 137.838C135.956 138.746 92.1919 138.028 83.5009 136.894C78.3159 136.218 79.6309 136.118 90.0009 136.403C99.6433 136.668 101.759 136.531 98.1933 135.872C95.5491 135.384 92.7563 134.462 91.9871 133.823C91.2178 133.185 90.1356 132.942 89.5822 133.284C88.5779 133.905 79.3432 129.722 76.5012 127.36C74.909 126.036 55.5622 122.819 49.2512 122.829C45.6283 122.835 41.5012 120.186 41.5012 117.855C41.5012 116.491 37.0439 119.266 27.4812 126.585C22.5608 130.35 18.3353 132.835 16.8512 132.835C12.7947 132.835 5.22018 135.043 6.52018 135.846C7.17173 136.249 9.12158 136.281 10.8533 135.918C12.5849 135.555 16.7017 135.488 20.0017 135.769L26.0017 136.279L20.0017 136.856C16.7017 137.173 23.2267 137.359 34.5017 137.268C52.2777 137.125 53.4077 137.2 43.0017 137.832C33.9449 138.382 37.3787 138.516 57.0017 138.379C71.3017 138.279 85.9267 138.497 89.5017 138.863C98.7798 139.815 191.502 139.991 191.502 139.058L191.499 139.058ZM185.499 137.835L181.999 137.099L185.749 136.967C187.812 136.895 189.499 137.285 189.499 137.835C189.499 138.385 189.387 138.776 189.249 138.704C189.112 138.631 187.424 138.24 185.499 137.835ZM160.77 137.231C161.102 136.899 161.965 136.863 162.687 137.152C163.484 137.471 163.247 137.708 162.083 137.756C161.028 137.8 160.438 137.563 160.77 137.231L160.77 137.231ZM24 134.791C21.8898 134.176 23.5212 134.022 29.5 134.271C34.175 134.466 48.294 134.186 60.875 133.65C73.456 133.113 84.122 133.045 84.577 133.499C85.0316 133.953 82.3879 134.324 78.7021 134.324C75.0163 134.324 61.8751 134.626 49.5001 134.995C37.1251 135.364 25.6501 135.272 24.0001 134.791H24ZM35.25 132.092C37.5875 131.882 41.4125 131.882 43.75 132.092C46.0875 132.303 44.175 132.475 39.5 132.475C34.825 132.475 32.9125 132.303 35.25 132.092ZM51.75 131.108C53.2625 130.879 55.7375 130.879 57.25 131.108C58.7625 131.337 57.525 131.525 54.5 131.525C51.475 131.525 50.2375 131.337 51.75 131.108ZM63.75 131.135C64.7125 130.883 66.2875 130.883 67.25 131.135C68.2125 131.386 67.425 131.592 65.5 131.592C63.575 131.592 62.7875 131.386 63.75 131.135ZM47.25 129.119C48.4875 128.88 50.5125 128.88 51.75 129.119C52.9875 129.357 51.975 129.552 49.5 129.552C47.025 129.552 46.0125 129.357 47.25 129.119ZM73 121.824C72.2178 120.559 73.5416 120.559 75.5 121.824C76.7927 122.66 76.7663 122.796 75.309 122.809C74.379 122.817 73.3399 122.374 73 121.824H73ZM129.5 121.947C129.5 121.464 130.248 120.452 131.163 119.697C132.459 118.627 132.918 118.6 133.246 119.574C133.477 120.262 134.417 120.869 135.333 120.924C136.339 120.984 136.009 121.341 134.5 121.824C131.025 122.937 129.5 122.974 129.5 121.947H129.5ZM68.25 121.162C68.9375 120.885 70.0625 120.885 70.75 121.162C71.4375 121.439 70.875 121.666 69.5 121.666C68.125 121.666 67.5625 121.439 68.25 121.162ZM96.5 121.35C96.5 121.089 97.9625 120.167 99.75 119.301L103 117.725L100.639 119.775C98.4272 121.695 96.5 122.429 96.5 121.35V121.35ZM91.5 119.824C92.325 119.291 93.45 118.855 94 118.855C94.55 118.855 94.325 119.291 93.5 119.824C92.675 120.357 91.55 120.794 91 120.794C90.45 120.794 90.675 120.357 91.5 119.824ZM111.961 118.333C113.59 117.002 115.124 116.115 115.371 116.362C116.003 116.994 111.429 120.832 110.097 120.788C109.494 120.769 110.333 119.663 111.961 118.333V118.333ZM136.75 120.199C134.425 119.192 135.442 117.593 138 118.235C139.518 118.616 140.5 118.435 140.5 117.776C140.5 117.146 141.337 116.955 142.492 117.322C143.991 117.798 144.773 117.32 145.652 115.389C146.295 113.979 147.199 112.824 147.661 112.824C148.97 112.824 148.646 114.608 147.25 115.08C146.562 115.312 147.462 116.261 149.25 117.189C151.041 118.119 152.5 118.415 152.5 117.85C152.5 117.286 151.825 116.824 151 116.824C150.175 116.824 149.5 116.149 149.5 115.324C149.5 114.499 149.95 113.824 150.5 113.824C151.05 113.824 151.5 114.274 151.5 114.824C151.5 115.374 152.4 115.824 153.5 115.824C154.6 115.824 155.5 116.274 155.5 116.824C155.5 117.374 156.175 117.824 157 117.824C157.825 117.824 158.5 118.162 158.499 118.574C158.499 118.987 156.024 119.431 152.999 119.562C149.885 119.697 147.5 119.372 147.5 118.812C147.5 118.269 147.023 117.824 146.441 117.824C145.859 117.824 145.66 118.274 146 118.824C146.34 119.374 145.973 119.824 145.184 119.824C144.395 119.824 142.456 120.031 140.875 120.282C139.294 120.534 137.438 120.497 136.75 120.199L136.75 120.199ZM85.5 118.824C85.5 118.274 86.175 117.824 87 117.824C87.825 117.824 88.5 118.274 88.5 118.824C88.5 119.374 87.825 119.824 87 119.824C86.175 119.824 85.5 119.374 85.5 118.824ZM96.5 117.824C96.5 117.274 96.95 116.824 97.5 116.824C98.05 116.824 98.5 117.274 98.5 117.824C98.5 118.374 98.05 118.824 97.5 118.824C96.95 118.824 96.5 118.374 96.5 117.824ZM158.943 117.406C157.876 116.626 157.296 115.695 157.654 115.337C158.395 114.596 162.5 116.907 162.5 118.065C162.5 119.233 161.083 118.971 158.943 117.406V117.406ZM104.5 116.824C104.5 116.274 104.698 115.824 104.941 115.824C105.184 115.824 105.66 116.274 106 116.824C106.34 117.374 106.141 117.824 105.559 117.824C104.977 117.824 104.5 117.374 104.5 116.824ZM137.5 115.824C137.5 115.274 137.923 114.824 138.441 114.824C138.959 114.824 139.66 115.274 140 115.824C140.34 116.374 139.916 116.824 139.059 116.824C138.202 116.824 137.5 116.374 137.5 115.824ZM121.5 114.883C121.5 114.301 121.95 113.824 122.5 113.824C123.05 113.824 123.5 114.023 123.5 114.265C123.5 114.508 123.05 114.984 122.5 115.324C121.95 115.664 121.5 115.466 121.5 114.883ZM142 114.824C142.34 114.274 143.042 113.824 143.559 113.824C144.077 113.824 144.5 114.274 144.5 114.824C144.5 115.374 143.798 115.824 142.941 115.824C142.084 115.824 141.66 115.374 142 114.824ZM114.5 113.883C114.5 113.301 114.95 112.824 115.5 112.824C116.05 112.824 116.5 113.023 116.5 113.265C116.5 113.508 116.05 113.984 115.5 114.324C114.95 114.664 114.5 114.466 114.5 113.883ZM154.5 113.824C154.5 113.274 154.95 112.824 155.5 112.824C156.05 112.824 156.5 113.274 156.5 113.824C156.5 114.374 156.05 114.824 155.5 114.824C154.95 114.824 154.5 114.374 154.5 113.824ZM139.5 112.883C139.5 112.301 139.95 111.824 140.5 111.824C141.05 111.824 141.5 112.023 141.5 112.265C141.5 112.508 141.05 112.984 140.5 113.324C139.95 113.664 139.5 113.466 139.5 112.883ZM158.5 112.824C158.5 112.274 159.202 111.824 160.059 111.824C160.916 111.824 161.34 112.274 161 112.824C160.66 113.374 159.958 113.824 159.441 113.824C158.923 113.824 158.5 113.374 158.5 112.824ZM126.849 111.639C127.145 110.712 126.85 109.735 126.193 109.468C125.273 109.094 125.272 108.964 126.19 108.903C127.954 108.786 128.509 110.22 127.339 111.872C126.489 113.073 126.404 113.032 126.849 111.639L126.849 111.639ZM143.5 111.824C143.5 111.274 143.95 110.824 144.5 110.824C145.05 110.824 145.5 111.274 145.5 111.824C145.5 112.374 145.05 112.824 144.5 112.824C143.95 112.824 143.5 112.374 143.5 111.824ZM165.5 111.824C165.5 111.274 165.95 110.824 166.5 110.824C167.05 110.824 167.5 111.274 167.5 111.824C167.5 112.374 167.05 112.824 166.5 112.824C165.95 112.824 165.5 112.374 165.5 111.824ZM121.723 109.252C121.612 107.917 121.967 106.824 122.511 106.824C123.682 106.824 123.851 110.489 122.712 111.193C122.278 111.461 121.834 110.588 121.723 109.252ZM150.5 111.383C150.5 110.328 152.419 109.884 152.99 110.808C153.335 111.367 152.917 111.824 152.059 111.824C151.202 111.824 150.5 111.626 150.5 111.383V111.383ZM172.5 110.824C172.5 110.274 172.95 109.824 173.5 109.824C174.05 109.824 174.5 110.274 174.5 110.824C174.5 111.374 174.05 111.824 173.5 111.824C172.95 111.824 172.5 111.374 172.5 110.824ZM140.5 109.824C140.5 109.274 140.95 108.824 141.5 108.824C142.05 108.824 142.5 109.274 142.5 109.824C142.5 110.374 142.05 110.824 141.5 110.824C140.95 110.824 140.5 110.374 140.5 109.824ZM147.5 109.324C147.5 108.499 147.95 107.824 148.5 107.824C149.05 107.824 149.5 108.499 149.5 109.324C149.5 110.149 149.05 110.824 148.5 110.824C147.95 110.824 147.5 110.149 147.5 109.324ZM154.771 110.22C155.103 109.888 155.966 109.852 156.688 110.141C157.485 110.461 157.248 110.697 156.083 110.745C155.029 110.789 154.439 110.553 154.771 110.22L154.771 110.22ZM169.5 108.824C169.5 108.274 169.95 107.824 170.5 107.824C171.05 107.824 171.5 108.274 171.5 108.824C171.5 109.374 171.05 109.824 170.5 109.824C169.95 109.824 169.5 109.374 169.5 108.824ZM159.01 107.841C158.664 107.282 159.083 106.824 159.941 106.824C161.697 106.824 161.956 107.424 160.569 108.282C160.057 108.598 159.355 108.4 159.01 107.841L159.01 107.841ZM166.5 106.824C166.5 106.274 166.95 105.824 167.5 105.824C168.05 105.824 168.5 106.274 168.5 106.824C168.5 107.374 168.05 107.824 167.5 107.824C166.95 107.824 166.5 107.374 166.5 106.824ZM170.5 105.824C170.5 105.274 170.95 104.824 171.5 104.824C172.05 104.824 172.5 105.274 172.5 105.824C172.5 106.374 172.05 106.824 171.5 106.824C170.95 106.824 170.5 106.374 170.5 105.824ZM155.5 104.824C155.5 104.274 155.95 103.824 156.5 103.824C157.05 103.824 157.5 104.274 157.5 104.824C157.5 105.374 157.05 105.824 156.5 105.824C155.95 105.824 155.5 105.374 155.5 104.824ZM125.5 104.419C125.5 104.17 126.081 103.373 126.791 102.646C127.501 101.919 128.906 100.199 129.914 98.8245C131.082 97.2309 131.52 96.9886 131.123 98.1563C130.78 99.1638 130.5 100.349 130.5 100.791C130.5 101.233 129.375 102.332 128 103.233C126.625 104.134 125.5 104.667 125.5 104.419L125.5 104.419ZM163.5 103.824C163.5 103.274 163.95 102.824 164.5 102.824C165.05 102.824 165.5 103.274 165.5 103.824C165.5 104.374 165.05 104.824 164.5 104.824C163.95 104.824 163.5 104.374 163.5 103.824ZM149.5 96.8244C149.5 96.2744 149.95 95.8244 150.5 95.8244C151.05 95.8244 151.5 96.2744 151.5 96.8244C151.5 97.3744 151.05 97.8244 150.5 97.8244C149.95 97.8244 149.5 97.3744 149.5 96.8244ZM125.106 93.2408C124.732 92.2669 124.955 91.8097 125.686 92.0533C127.181 92.5516 128.004 94.8244 126.69 94.8244C126.153 94.8244 125.44 94.1118 125.106 93.2408H125.106ZM142.15 93.3564C141.84 92.549 141.966 91.6541 142.429 91.3676C142.892 91.0811 143.506 91.7418 143.792 92.8356C144.39 95.1217 142.997 95.5634 142.15 93.3563L142.15 93.3564ZM136.499 92.8244C136.499 92.2744 136.949 91.8244 137.499 91.8244C138.049 91.8244 138.499 92.2744 138.499 92.8244C138.499 93.3744 138.049 93.8244 137.499 93.8244C136.949 93.8244 136.499 93.3744 136.499 92.8244ZM110.499 87.8244C110.499 87.2744 110.949 86.8244 111.499 86.8244C112.049 86.8244 112.499 87.2744 112.499 87.8244C112.499 88.3744 112.049 88.8244 111.499 88.8244C110.949 88.8244 110.499 88.3744 110.499 87.8244ZM114.499 85.8244C114.499 85.2744 114.949 84.8244 115.499 84.8244C116.049 84.8244 116.499 85.2744 116.499 85.8244C116.499 86.3744 116.049 86.8244 115.499 86.8244C114.949 86.8244 114.499 86.3744 114.499 85.8244ZM128.499 85.8244C130.455 84.56 132.499 84.56 132.499 85.8244C132.499 86.3744 131.261 86.8175 129.749 86.809C127.606 86.7971 127.33 86.5798 128.499 85.8244ZM111.499 84.8244C111.499 84.2744 111.949 83.8244 112.499 83.8244C113.049 83.8244 113.499 84.2744 113.499 84.8244C113.499 85.3744 113.049 85.8244 112.499 85.8244C111.949 85.8244 111.499 85.3744 111.499 84.8244ZM119.919 83.9541C120.326 83.2949 119.953 82.8244 119.023 82.8244C117.755 82.8244 117.641 82.4272 118.466 80.8851C119.169 79.5716 119.176 78.7425 118.485 78.316C117.349 77.6136 118.105 75.8244 119.539 75.8244C120.045 75.8244 120.303 77.1744 120.111 78.8244C119.864 80.9408 120.189 81.8244 121.214 81.8244C122.951 81.8244 122.433 84.013 120.547 84.6416C119.756 84.9052 119.503 84.6276 119.919 83.9541H119.919ZM113.499 81.8244C113.499 81.2744 113.697 80.8244 113.94 80.8244C114.183 80.8244 114.659 81.2744 114.999 81.8244C115.339 82.3744 115.14 82.8244 114.558 82.8244C113.976 82.8244 113.499 82.3744 113.499 81.8244ZM111.499 78.3244C111.499 77.4994 111.949 76.8244 112.499 76.8244C113.049 76.8244 113.499 77.4994 113.499 78.3244C113.499 79.1494 113.049 79.8244 112.499 79.8244C111.949 79.8244 111.499 79.1494 111.499 78.3244ZM117.999 73.8244C117.659 73.2744 117.831 72.8244 118.381 72.8244C118.931 72.8244 119.659 73.2744 119.999 73.8244C120.339 74.3744 120.167 74.8244 119.617 74.8244C119.067 74.8244 118.339 74.3744 117.999 73.8244ZM118.499 70.8244C118.499 70.2744 118.697 69.8244 118.94 69.8244C119.183 69.8244 119.659 70.2744 119.999 70.8244C120.339 71.3744 120.14 71.8244 119.558 71.8244C118.976 71.8244 118.499 71.3744 118.499 70.8244ZM112.499 64.8834C112.499 64.3009 112.949 63.8244 113.499 63.8244C114.049 63.8244 114.499 64.0228 114.499 64.2654C114.499 64.5079 114.049 64.9845 113.499 65.3244C112.949 65.6643 112.499 65.4658 112.499 64.8834ZM203.353 137.283C205.759 134.225 209.046 120.75 210.474 108.088C211.538 98.6542 211.141 88.5004 209.336 78.9954C207.88 71.3253 208.943 71.5781 210.9 79.3671C213.763 90.7651 212.629 113.424 208.471 127.923C207.225 132.266 207.325 134.075 208.63 130.825C210.127 127.097 213.499 110.095 213.499 106.274C213.499 104.442 213.997 102.635 214.606 102.259C215.362 101.792 215.53 102.487 215.136 104.45C214.818 106.031 214.061 111.15 213.453 115.825C212.845 120.5 211.724 127.006 210.964 130.282C209.215 137.81 209.88 138.8 211.905 131.682C215.323 119.665 218.062 93.8583 215.499 97.8253C214.819 98.8773 214.525 97.3468 214.515 92.7003C214.507 89.0565 214.266 84.5565 213.98 82.7003C213.577 80.0767 213.672 79.7706 214.41 81.3253C214.932 82.4253 215.419 86.0253 215.492 89.3253C215.599 94.1196 215.814 94.8573 216.56 92.9965C217.183 91.4424 217.03 88.4485 216.102 83.9965C214.036 74.0872 212.437 68.5545 211.818 69.1735C211.515 69.476 211.77 71.1635 212.384 72.9237C212.997 74.6839 213.473 76.8443 213.441 77.7247C213.383 79.3003 208.83 67.4797 207.792 63.0607C207.5 61.8151 206.864 60.551 206.38 60.2517C205.352 59.6166 205.171 64.1635 206.183 65.1761C206.559 65.5522 206.972 67.5397 207.099 69.5928C207.227 71.6458 207.816 76.2506 208.408 79.8258C210.358 91.6018 209.054 111.794 205.408 126.273C203.373 134.354 203.503 130.63 205.651 119.281C208.679 103.288 208.656 86.6243 205.586 71.2083C203.468 60.5713 202.857 58.8923 200.586 57.4673C198.247 55.9989 198.205 55.8709 200.152 56.1312C201.336 56.2896 203.023 57.0157 203.902 57.7449C206.001 59.4868 205.96 57.9919 203.844 55.6546C201.813 53.4101 199.499 53.3248 196.94 55.4C195.873 56.2658 195.493 56.7318 196.096 56.4356C196.7 56.1394 198.411 57.168 199.899 58.7214L202.605 61.5458L192.27 62.2381C186.586 62.6189 181.162 62.6337 180.217 62.2711C178.135 61.4722 178.062 62.5229 179.891 66.9537C182.245 72.6538 183.735 87.6607 183.304 101.326C182.949 112.575 182.532 115.202 180.213 120.826C177.722 126.868 177.86 127.04 181.291 122.162C182.494 120.452 182.552 120.481 182.135 122.576C181.84 124.055 182.168 124.826 183.093 124.826C183.866 124.826 184.499 125.556 184.499 126.448C184.499 127.692 184.812 127.811 185.841 126.957C186.579 126.344 187.513 126.173 187.916 126.576C188.319 126.979 189.14 126.433 189.739 125.362C190.812 123.444 190.839 123.443 191.505 125.342C192.089 127.008 192.252 126.897 192.706 124.524C192.995 123.014 192.772 121.494 192.211 121.147C191.649 120.8 191.469 120.968 191.811 121.52C192.812 123.141 187.666 125.421 185.744 124.208C183.23 122.623 183.069 120.751 185.394 120.143C186.552 119.84 187.499 119.165 187.499 118.642C187.499 118.119 186.594 117.978 185.488 118.329C183.643 118.915 183.575 118.753 184.662 116.368C185.313 114.938 186.106 114.119 186.423 114.547C186.74 114.975 187.98 115.872 189.178 116.54C190.886 117.492 191.45 117.492 191.791 116.54C192.03 115.872 192.576 115.652 193.005 116.052C193.433 116.451 193.191 117.492 192.467 118.364C191.301 119.769 191.474 119.87 193.974 119.243C196.022 118.729 196.597 118.858 196.069 119.713C195.668 120.361 195.178 122.565 194.98 124.609L194.62 128.326L196.014 125.326C196.781 123.676 197.429 121.538 197.454 120.576C197.479 119.613 197.966 118.826 198.536 118.826C199.776 118.826 198.968 127.082 197.45 129.918C196.56 131.58 196.783 131.825 199.186 131.825H201.944L199.692 134.075C197.514 136.253 197.345 136.27 194.47 134.622C190.563 132.382 190.31 134.744 194.134 137.753C197.667 140.532 200.929 140.366 203.353 137.284L203.353 137.283ZM198.67 136.553C200.139 135.971 201.796 134.556 202.352 133.409C202.909 132.263 203.394 131.917 203.432 132.64C203.578 135.49 201.41 137.824 198.714 137.718L195.999 137.612L198.67 136.553V136.553ZM199.025 129.075C199.432 128.112 200.231 125.412 200.801 123.075C201.808 118.939 203.499 117.252 203.499 120.382C203.499 124.289 201.167 130.825 199.773 130.825C198.741 130.825 198.512 130.289 199.025 129.075L199.025 129.075ZM194.499 116.825C194.499 116.275 194.949 115.825 195.499 115.825C196.049 115.825 196.499 116.275 196.499 116.825C196.499 117.375 196.049 117.825 195.499 117.825C194.949 117.825 194.499 117.375 194.499 116.825ZM198.499 116.825C198.499 116.275 198.949 115.825 199.499 115.825C200.049 115.825 200.499 116.275 200.499 116.825C200.499 117.375 200.049 117.825 199.499 117.825C198.949 117.825 198.499 117.375 198.499 116.825ZM202.183 117.075C201.945 116.662 202.112 115.425 202.554 114.325C203.256 112.579 203.368 112.674 203.429 115.075C203.498 117.788 203.03 118.539 202.183 117.075H202.183ZM191.499 113.825C191.499 113.275 191.949 112.825 192.499 112.825C193.049 112.825 193.499 113.275 193.499 113.825C193.499 114.375 193.049 114.825 192.499 114.825C191.949 114.825 191.499 114.375 191.499 113.825ZM198.499 113.825C198.499 113.275 198.949 112.825 199.499 112.825C200.049 112.825 200.499 113.275 200.499 113.825C200.499 114.375 200.049 114.825 199.499 114.825C198.949 114.825 198.499 114.375 198.499 113.825ZM198.999 110.825C198.659 110.275 198.858 109.825 199.44 109.825C200.023 109.825 200.499 110.275 200.499 110.825C200.499 111.375 200.301 111.825 200.058 111.825C199.816 111.825 199.339 111.375 198.999 110.825ZM202.499 110.825C202.499 110.275 202.949 109.825 203.499 109.825C204.049 109.825 204.499 110.275 204.499 110.825C204.499 111.375 204.049 111.825 203.499 111.825C202.949 111.825 202.499 111.375 202.499 110.825ZM196.578 87.4076C196.535 86.3534 196.771 85.7628 197.104 86.0951C197.436 86.4274 197.471 87.2899 197.182 88.0118C196.863 88.8096 196.626 88.5726 196.578 87.4077L196.578 87.4076ZM192.499 83.004C190.45 82.0753 190.138 79.8243 192.058 79.8243C192.916 79.8243 193.339 80.2743 192.999 80.8243C192.649 81.3915 193.489 81.8243 194.94 81.8243C196.348 81.8243 197.499 82.2743 197.499 82.8243C197.499 83.9436 194.788 84.0411 192.499 83.0041V83.004ZM190.249 77.162C190.937 76.8846 192.062 76.8846 192.749 77.162C193.437 77.4395 192.874 77.6664 191.499 77.6664C190.124 77.6664 189.562 77.4395 190.249 77.162ZM93.6074 131.891C92.8736 131.438 92.6616 130.861 93.1363 130.609C93.6111 130.358 93.4134 130.298 92.6971 130.477C91.9808 130.656 90.2933 130.08 88.9471 129.198C87.6009 128.316 86.4995 127.855 86.4995 128.173C86.4995 129.117 93.8385 133.819 94.4137 133.243C94.704 132.953 94.3412 132.345 93.6074 131.891L93.6074 131.891ZM106.978 132.203C109.16 130.022 108.543 127.733 105.5 126.71L103 125.87L105.25 127.469C107.808 129.288 108.291 131.342 105.948 130.443C105.058 130.101 104.657 130.269 105.007 130.836C105.812 132.138 104.867 132.086 102.184 130.679C100.016 129.542 100.014 129.549 101.905 131.679C104.189 134.251 104.861 134.321 106.978 132.203H106.978ZM230.518 126.074C232.037 117.685 231.916 90.2204 230.327 82.8244C229.677 79.7994 229.069 76.8744 228.976 76.3244C228.882 75.7744 228.688 74.8744 228.543 74.3244C228.398 73.7744 228.369 72.2613 228.477 70.962C228.601 69.4728 228.27 68.8494 227.581 69.2754C226.587 69.8897 226.225 69.3083 224.882 64.9312C224.647 64.165 224.182 63.8102 223.85 64.1429C223.517 64.4755 223.77 66.8349 224.413 69.3859C225.3 72.9096 225.301 74.3605 224.419 75.4242C223.511 76.5181 223.583 76.8243 224.75 76.8243C225.787 76.8243 226.446 78.3504 226.906 81.8145C227.969 89.829 227.657 116.544 226.427 122.794C225.807 125.95 225.469 129.385 225.678 130.428C226.12 132.635 228.031 122.054 229.399 109.824C230.338 101.434 230.345 101.48 229.918 113.324C229.68 119.924 229.215 127.012 228.884 129.074C227.823 135.694 229.251 133.071 230.519 126.074L230.518 126.074ZM229.733 95.8244C229.733 93.8994 229.939 93.1119 230.191 94.0744C230.442 95.0369 230.442 96.6119 230.191 97.5744C229.939 98.5369 229.733 97.7494 229.733 95.8244ZM14.4334 130.124C15.747 129.204 16.4956 128.979 16.0969 129.624C14.8067 131.712 18.1018 130.886 20.0851 128.625C21.3591 127.173 21.4932 126.701 20.4901 127.2C19.6651 127.61 19.8636 127.237 20.9312 126.371C21.9988 125.506 23.4613 124.797 24.1812 124.797C25.9358 124.797 25.8536 122.874 24.0698 122.189C22.9654 121.766 16.4932 126.196 10.5738 131.429C9.24797 132.601 12.4369 131.523 14.4338 130.124L14.4334 130.124ZM223.513 112.624C225.645 96.2264 222.526 69.0494 218.092 65.3734C217.381 64.784 216.208 62.7269 215.484 60.8019C213.71 56.0781 212.252 54.5726 213.612 58.8693C218.379 73.9223 221.408 94.2523 220.382 104.302C220.045 107.602 219.491 113.002 219.152 116.302L218.535 122.302L219.978 117.302L221.421 112.302L220.955 117.802C220.699 120.827 220.266 125.102 219.993 127.302C219.516 131.15 219.551 131.116 220.928 126.402C221.715 123.708 222.879 117.508 223.513 112.624L223.513 112.624ZM221.763 107.802C221.763 105.327 221.958 104.314 222.196 105.552C222.434 106.789 222.434 108.814 222.196 110.052C221.958 111.289 221.763 110.277 221.763 107.802ZM222.685 97.302C222.665 95.652 222.872 94.8559 223.146 95.533C223.42 96.21 223.437 97.56 223.183 98.533C222.93 99.506 222.706 98.952 222.685 97.302H222.685ZM221.648 84.802C221.648 83.427 221.875 82.8645 222.153 83.552C222.43 84.2395 222.43 85.3645 222.153 86.052C221.875 86.7395 221.648 86.177 221.648 84.802ZM219.865 76.335C219.555 75.5281 219.495 74.2906 219.73 73.585C219.966 72.8793 220.396 73.5395 220.686 75.052C221.252 78.0052 220.785 78.734 219.865 76.335ZM244.051 121.084C244.421 117.629 245.135 114.802 245.638 114.802C246.141 114.802 246.447 113.227 246.317 111.302C246.188 109.377 245.766 107.802 245.381 107.802C244.996 107.802 244.928 105.956 245.231 103.701C245.573 101.15 245.351 99.3337 244.643 98.8965C244.018 98.5098 243.269 95.9679 242.98 93.2477C242.648 90.1235 242.765 89.0141 243.3 90.2356C244.68 93.3909 245.683 90.3601 245.016 85.049C243.76 75.04 242.168 68.258 240.819 67.164C238.779 65.5106 237.366 60.032 238.826 59.4355C239.466 59.1737 239.203 58.9241 238.24 58.8806C237.278 58.8372 236.498 58.9141 236.507 59.0517C236.516 59.1892 237.424 62.6767 238.523 66.8017C241.951 79.6637 244.088 114.448 242.148 125.802C241.619 128.897 241.691 129.843 242.378 128.834C242.928 128.026 243.681 124.539 244.051 121.084L244.051 121.084ZM240 114.302C240.227 109.352 239.942 103.277 239.366 100.802C238.79 98.327 238.195 91.352 238.044 85.302C237.776 74.598 237.027 70.352 235.564 71.256C235.171 71.4994 234.03 69.3594 233.03 66.5003C232.029 63.6412 230.758 60.8519 230.203 60.3019C229.528 59.6314 229.431 59.9609 229.909 61.3019C233.097 70.2425 235.117 84.3269 236.005 103.802C236.269 109.577 236.559 114.527 236.65 114.802C236.742 115.077 237.157 112.827 237.573 109.802C238.096 106 238.232 108.162 238.015 116.802C237.649 131.331 239.314 129.234 240 114.302L240 114.302ZM236.372 118.885C236.558 113.504 235.798 115.689 235.183 122.302C234.816 126.247 234.904 127.275 235.439 125.302C235.887 123.652 236.307 120.764 236.372 118.885H236.372ZM247.86 125.552C248.192 124.314 248.43 121.052 248.391 118.302C248.309 112.65 247.34 114.647 246.077 123.072C245.352 127.904 246.72 129.806 247.86 125.552H247.86ZM175.49 125.144C171.151 123.696 170.994 123.526 173.416 122.887C174.75 122.535 175.913 121.809 175.999 121.274C176.086 120.74 175.969 120.639 175.74 121.052C175.053 122.288 170.695 121.898 170.152 120.552C169.875 119.864 169.612 120.292 169.569 121.502C169.482 123.918 171.875 125.768 174.99 125.693C176.354 125.659 176.513 125.485 175.49 125.144L175.49 125.144ZM104.016 121.995C103.708 121.687 102.901 121.994 102.223 122.678C101.243 123.665 101.357 123.78 102.783 123.238C103.769 122.862 104.324 122.303 104.016 121.995V121.995ZM28.043 119.572C27.1061 119.048 26.0489 118.909 25.6936 119.265C24.8137 120.145 27.6613 121.814 28.8203 121.098C29.3297 120.783 28.9799 120.096 28.043 119.572L28.043 119.572ZM59.304 119.077C58.7585 116.245 54.5398 114.762 48.99 115.452C43.0935 116.184 43.2777 116.085 44.0538 118.108C44.6303 119.61 46.386 119.956 56.8138 120.622C58.999 120.761 59.562 120.412 59.305 119.077H59.304ZM54.2395 119.14C54.927 118.862 56.052 118.862 56.7395 119.14C57.427 119.417 56.8645 119.644 55.4895 119.644C54.1145 119.644 53.552 119.417 54.2395 119.14ZM33.8455 115.256C36.3996 113.306 38.4893 111.481 38.4893 111.2C38.4893 110.492 33.6033 113.468 29.9893 116.377C25.2462 120.195 28.6869 119.195 33.8455 115.256V115.256ZM130.489 115.243C130.489 115 129.788 114.802 128.93 114.802C128.073 114.802 127.654 115.259 128 115.818C128.57 116.742 130.489 116.298 130.489 115.243V115.243ZM34.4025 105.964C35.4414 104.023 34.8028 99.802 33.4702 99.802C32.4077 99.802 30.3737 105.806 31.06 106.917C31.9407 108.342 33.3439 107.942 34.4025 105.964H34.4025ZM81.4805 105.829C84.6829 103.804 83.1889 101.35 77.9892 100.094C75.2392 99.4302 72.3142 98.9019 71.4892 98.9205C69.2552 98.9707 76.6221 101.637 79.2392 101.726C80.4767 101.768 81.4892 102.279 81.4892 102.861C81.4892 103.444 80.9627 103.595 80.3193 103.197C79.5626 102.729 79.3494 102.995 79.7156 103.95C80.1996 105.211 79.43 105.288 74.4215 104.482L68.5611 103.538L69.0782 99.1409L69.5953 94.7439L63.7364 99.0229L57.8775 103.302L64.9333 104.026C68.814 104.424 73.3391 105.173 74.9893 105.69C78.9473 106.93 79.7119 106.947 81.4806 105.828L81.4805 105.829ZM56.4055 104.158C56.6346 103.962 55.8206 103.802 54.5965 103.802C53.3674 103.802 52.6475 103.354 52.9889 102.802C54.027 101.122 52.9036 101.686 50.9823 103.809C49.191 105.789 49.2133 105.808 52.5773 105.166C54.4537 104.808 56.1764 104.354 56.4056 104.158L56.4055 104.158ZM99.0995 95.0828C98.4382 94.4115 91.6182 96.2026 92.0675 96.9296C92.364 97.4095 92.2426 97.8043 91.7976 97.807C91.3527 97.81 89.6386 98.9374 87.9886 100.313C85.6187 102.289 86.4932 102.025 92.152 99.058C96.0919 96.9922 99.2182 95.2034 99.0995 95.0828L99.0995 95.0828ZM83.4885 98.4156C83.4885 98.203 82.1385 97.8309 80.4885 97.5888C78.8385 97.3466 77.4885 97.5205 77.4885 97.9752C77.4885 98.43 78.8385 98.8021 80.4885 98.8021C82.1385 98.8021 83.4885 98.6281 83.4885 98.4156ZM75.676 97.1189C74.9541 96.8301 74.0916 96.8656 73.7593 97.1979C73.427 97.5302 74.0176 97.7665 75.0718 97.7231C76.2368 97.6751 76.4737 97.4381 75.676 97.1189L75.676 97.1189ZM81.7268 95.0947C80.4829 94.8556 78.6829 94.8646 77.7268 95.115C76.7707 95.3652 77.7885 95.561 79.9885 95.5499C82.1885 95.5388 82.9707 95.334 81.7268 95.0948V95.0947ZM120.455 94.3685C119.934 93.8481 118.942 93.3166 118.248 93.1876C117.555 93.0586 115.591 92.6508 113.882 92.2813C111.562 91.7796 110.626 92.0007 110.183 93.1548C109.755 94.2719 110.037 94.5286 111.203 94.0811C112.091 93.7407 112.562 93.8761 112.252 94.382C111.939 94.8929 113.848 95.3048 116.544 95.3083C119.598 95.3123 121.05 94.9634 120.455 94.3684V94.3685ZM74.4918 93.7985C73.6668 93.2653 72.5418 92.8291 71.9918 92.8291C71.4418 92.8291 71.6668 93.2653 72.4918 93.7985C73.3168 94.3316 74.4418 94.7678 74.9918 94.7678C75.5418 94.7678 75.3168 94.3316 74.4918 93.7985ZM95.4918 93.1915C95.4918 92.9753 94.2543 92.8054 92.7418 92.8138C90.7404 92.8249 90.3754 93.0719 91.4011 93.7212C92.6744 94.5273 95.4918 94.1624 95.4918 93.1915ZM82.4918 92.2394C82.4918 91.9969 81.2543 91.8301 79.7418 91.8687C77.341 91.9301 77.2458 92.0412 78.9918 92.7436C80.857 93.494 82.4918 93.2585 82.4918 92.2394ZM105.169 92.1975C105.764 90.6457 104.028 88.8134 101.992 88.8441C101.442 88.8521 101.779 89.3179 102.742 89.8785C103.704 90.4391 104.492 91.2924 104.492 91.7748C104.492 92.2572 103.704 92.8576 102.742 93.1091C101.102 93.5377 101.104 93.5737 102.773 93.6825C103.753 93.7463 104.831 93.078 105.169 92.1976V92.1975ZM76.4918 90.7394C76.4918 90.157 76.0418 89.9585 75.4918 90.2985C74.9418 90.6384 74.4918 91.1149 74.4918 91.3574C74.4918 91.6 74.9418 91.7984 75.4918 91.7984C76.0418 91.7984 76.4918 91.3219 76.4918 90.7394ZM94.7418 91.1362C94.0543 90.8588 92.9293 90.8588 92.2418 91.1362C91.5543 91.4136 92.1168 91.6406 93.4918 91.6406C94.8668 91.6406 95.4293 91.4136 94.7418 91.1362ZM79.4918 88.8718C79.4918 88.3621 80.2793 87.7891 81.2418 87.5983C82.3608 87.3765 82.5893 86.998 81.8754 86.5486C81.2614 86.1619 79.9542 86.735 78.9704 87.8221C77.949 88.9508 77.6772 89.7985 78.3368 89.7985C78.972 89.7985 79.4918 89.3815 79.4918 88.8718V88.8718ZM61.0708 87.3622C62.086 86.347 62.1788 85.7231 61.3876 85.2341C60.7718 84.8535 59.8753 85.1624 59.3952 85.9203C57.5629 88.8132 58.6684 89.7645 61.0708 87.3622L61.0708 87.3622ZM87.3128 83.1044C89.3692 81.0721 87.2816 81.6118 84.4914 83.8338C82.5009 85.419 82.399 85.6806 83.9914 85.1175C85.0914 84.7286 86.586 83.8226 87.3128 83.1043V83.1044ZM101.492 81.4151C101.492 81.2042 100.591 80.7962 99.4904 80.5083C98.3896 80.2205 97.7412 80.393 98.0494 80.8917C98.5876 81.7626 101.492 82.2041 101.492 81.4151ZM209.922 61.8701C208.928 59.1058 207.941 57.0172 207.73 57.2287C207.518 57.4402 208.151 59.8824 209.136 62.6558C210.121 65.4291 211.107 67.5178 211.328 67.2972C211.549 67.0766 210.916 64.6344 209.922 61.8701ZM226.489 64.0863C225.399 62.387 225.371 62.3892 225.918 64.1304C226.235 65.1379 226.529 66.4879 226.572 67.1304C226.629 67.9735 226.788 67.9612 227.143 67.0863C227.414 66.4195 227.119 65.0695 226.489 64.0863ZM241.098 63.0695C240.766 62.7372 240.529 63.3278 240.573 64.382C240.621 65.547 240.858 65.7839 241.177 64.9861C241.466 64.2643 241.43 63.4018 241.098 63.0695L241.098 63.0695ZM35.4978 108.889C35.4978 107.878 39.3886 105.352 39.9855 105.977C40.1595 106.159 39.221 107.116 37.8999 108.104C36.5788 109.092 35.4978 109.446 35.4978 108.889V108.889ZM251.498 94.3595C251.498 93.502 251.948 92.8005 252.498 92.8005C253.048 92.8005 253.498 93.2239 253.498 93.7414C253.498 94.259 253.048 94.9605 252.498 95.3004C251.948 95.6404 251.498 95.2169 251.498 94.3595ZM61.4978 94.5359C61.4978 94.3155 63.4103 92.6153 65.7478 90.7577C68.0853 88.9001 69.3628 88.1708 68.5866 89.137C67.1247 90.957 61.4978 95.2425 61.4978 94.5359V94.5359ZM42.4978 92.8004C42.4978 92.2504 42.6962 91.8004 42.9388 91.8004C43.1813 91.8004 43.6579 92.2504 43.9978 92.8004C44.3377 93.3504 44.1392 93.8004 43.5568 93.8004C42.9743 93.8004 42.4978 93.3504 42.4978 92.8004ZM39.4978 92.3594C39.4978 92.1169 39.9478 91.6403 40.4978 91.3004C41.0478 90.9605 41.4978 91.159 41.4978 91.7414C41.4978 92.3239 41.0478 92.8004 40.4978 92.8004C39.9478 92.8004 39.4978 92.602 39.4978 92.3594ZM70.4978 87.4269C70.4978 87.1466 73.3103 84.8316 76.7478 82.2825C80.1853 79.7334 81.4228 79.0649 79.4978 80.7971C75.2397 84.6287 70.4978 88.1218 70.4978 87.4269V87.4269ZM49.4978 84.8004C49.4978 84.2504 49.9212 83.8004 50.4388 83.8004C50.9563 83.8004 51.6579 84.2504 51.9978 84.8004C52.3377 85.3504 51.9143 85.8004 51.0568 85.8004C50.1993 85.8004 49.4978 85.3504 49.4978 84.8004ZM249.188 68.8004C248.195 63.0254 246.899 57.8504 246.308 57.3004C245.548 56.5941 245.399 57.4016 245.8 60.0504C246.509 64.7343 245.825 64.8382 243.942 60.3325C241.821 55.2562 242.033 54.917 247.193 55.1244L251.894 55.3133L253.132 61.8068C255.276 73.0538 254.079 73.9758 251.521 63.0472C250.845 60.158 249.827 57.5066 249.258 57.1552C248.181 56.4894 248.279 57.3938 250.442 68.1063C251.087 71.2996 251.475 75.1246 251.304 76.6063C251.133 78.088 250.181 74.5753 249.188 68.8003L249.188 68.8004ZM83.4978 77.4685C83.4978 77.1935 85.2978 75.5429 87.4978 73.8004C89.6978 72.058 91.4978 70.8573 91.4978 71.1323C91.4978 71.4073 89.6978 73.0579 87.4978 74.8004C85.2978 76.5428 83.4978 77.7435 83.4978 77.4685ZM81.7686 67.1965C82.1009 66.8642 82.9634 66.8287 83.6853 67.1175C84.483 67.4368 84.2461 67.6737 83.0811 67.7217C82.0269 67.7651 81.4363 67.5288 81.7686 67.1965L81.7686 67.1965ZM91.1039 65.9723C90.8223 65.5168 92.3708 64.3592 94.5449 63.3999C96.719 62.4407 98.4978 61.0134 98.4978 60.2282C98.4978 59.443 99.1223 58.8006 99.8856 58.8006C101.592 58.8006 110.359 52.8488 113.966 49.2416C115.425 47.7824 116.891 46.8612 117.225 47.1946C117.558 47.528 117.643 47.9642 117.414 48.1641C113.033 51.9849 93.2982 66.8011 92.5902 66.8011C92.0543 66.8011 91.3854 66.4283 91.1039 65.9728V65.9723ZM97.4978 66.4369C97.4978 66.1619 98.8478 64.9756 100.498 63.8007C102.148 62.6258 103.498 61.8895 103.498 62.1645C103.498 62.4395 102.148 63.6258 100.498 64.8007C98.8478 65.9756 97.4978 66.7119 97.4978 66.4369ZM59.9978 63.2696C63.2878 60.5728 64.8907 60.1137 64.2528 62.0507C64.0264 62.7382 62.8572 63.4454 61.6546 63.6222C60.452 63.799 59.7263 64.3615 60.042 64.8722C60.3576 65.3828 59.8018 65.7845 58.8068 65.7647C57.3704 65.7361 57.6157 65.2222 59.9978 63.2697V63.2696ZM103.081 48.9347C102.65 48.2376 102.568 47.3974 102.898 47.0673C103.793 46.1723 104.769 47.4886 104.285 48.9387C103.946 49.9549 103.711 49.9541 103.081 48.9347H103.081ZM131.534 39.4755C134.638 36.6665 146.489 27.8004 147.14 27.8004C147.516 27.8004 144.112 30.7254 139.574 34.3004C135.036 37.8754 131.042 40.8004 130.697 40.8004C130.352 40.8004 130.729 40.2042 131.534 39.4755H131.534ZM156.498 20.4365C156.498 20.1615 157.848 18.9752 159.498 17.8003C161.148 16.6254 162.498 15.8891 162.498 16.1641C162.498 16.4391 161.148 17.6254 159.498 18.8003C157.848 19.9752 156.498 20.7115 156.498 20.4365Z" fill="#7E3F15"/>
</svg>
